<?xml version="1.0" encoding="UTF-8" standalone="no"?>
<svg width="40px" height="40px" viewBox="0 0 40 40" version="1.1" xmlns="http://www.w3.org/2000/svg" xmlns:xlink="http://www.w3.org/1999/xlink">
    <!-- Generator: Sketch 3.7.2 (28276) - http://www.bohemiancoding.com/sketch -->
    <title>icon-domain-5</title>
    <desc>Created with Sketch.</desc>
    <defs>
        <polygon id="path-1" points="39.5949206 39.5949841 39.5949206 0.00019047619 0.000190476191 0.00019047619 0.000190476191 39.5949841 39.5949206 39.5949841"></polygon>
    </defs>
    <g id="Assets" stroke="none" stroke-width="1" fill="none" fill-rule="evenodd">
        <g id="Thematic-overview" transform="translate(-29.000000, -230.000000)">
            <g id="icon-domain-5" transform="translate(29.000000, 230.000000)">
                <mask id="mask-2" fill="white">
                    <use xlink:href="#path-1"></use>
                </mask>
                <use id="Clip-2" fill="#D84315" xlink:href="#path-1"></use>
                <path d="M16.0348571,14.7805079 C13.6246984,17.1906667 13.6246984,21.1500317 16.0348571,23.5601905 C16.2532698,23.7786032 16.459619,23.9697143 16.7008889,24.148127 L19.2881905,21.5614603 C19.0259683,21.4319365 18.7650159,21.2738413 18.5434286,21.052254 C17.4793016,19.988127 17.4793016,18.3532063 18.5434286,17.2890794 L24.8145397,11.0179683 C25.8780317,9.95384127 27.5129524,9.95384127 28.5770794,11.0179683 C29.6412063,12.0820952 29.6412063,13.7170159 28.5770794,14.7805079 L26.4608889,16.8973333 C27.0977143,18.2547937 27.3300952,19.7386032 27.1662857,21.2090794 L31.0856508,17.2890794 C33.4958095,14.8789206 33.4958095,10.9195556 31.0856508,8.50939683 C28.6754921,6.0992381 24.716127,6.0992381 22.3059683,8.50939683 L16.0348571,14.7805079 Z" id="Fill-4" fill="#FEFEFE" mask="url(#mask-2)"></path>
                <path d="M23.560254,24.8146032 C25.9704127,22.4038095 25.9704127,18.4450794 23.560254,16.0342857 C23.3418413,15.815873 23.1354921,15.6253968 22.8935873,15.4463492 L20.3069206,18.0336508 C20.5691429,18.1625397 20.8300952,18.3206349 21.0523175,18.5428571 C22.1158095,19.6069841 22.1158095,21.2419048 21.0523175,22.3053968 L14.7805714,28.5771429 C13.7164444,29.6412698 12.0821587,29.6412698 11.0180317,28.5771429 C9.95390476,27.5130159 9.95390476,25.8780952 11.0180317,24.8139683 L13.1348571,22.6977778 C12.4973968,21.3396825 12.2650159,19.855873 12.4288254,18.3860317 L8.50946032,22.3053968 C6.09930159,24.7161905 6.09930159,28.6749206 8.50946032,31.0857143 C10.919619,33.495873 14.8789841,33.495873 17.2891429,31.0857143 L23.560254,24.8139683 L23.560254,24.8146032 Z" id="Fill-6" fill="#FEFEFE" mask="url(#mask-2)"></path>
            </g>
        </g>
    </g>
</svg>