<?xml version="1.0" encoding="UTF-8" standalone="no"?>
<svg width="40px" height="40px" viewBox="0 0 40 40" version="1.1" xmlns="http://www.w3.org/2000/svg" xmlns:xlink="http://www.w3.org/1999/xlink">
    <!-- Generator: Sketch 3.7.2 (28276) - http://www.bohemiancoding.com/sketch -->
    <title>icon-domain-8</title>
    <desc>Created with Sketch.</desc>
    <defs>
        <polygon id="path-1" points="0.000190476191 39.5947937 39.5949206 39.5947937 39.5949206 6.34920635e-05 0.000190476191 6.34920635e-05 0.000190476191 39.5947937"></polygon>
    </defs>
    <g id="Assets" stroke="none" stroke-width="1" fill="none" fill-rule="evenodd">
        <g id="Thematic-overview" transform="translate(-29.000000, -379.000000)">
            <g id="icon-domain-8" transform="translate(29.000000, 379.000000)">
                <mask id="mask-2" fill="white">
                    <use xlink:href="#path-1"></use>
                </mask>
                <use id="Clip-2" fill="#FAA906" xlink:href="#path-1"></use>
                <path d="M5.61911111,12.7083175 C5.33593651,12.7083175 5.14673016,12.8975238 5.14673016,13.1806984 L5.14673016,26.4137143 C5.14673016,26.6975238 5.33593651,26.8867302 5.61911111,26.8867302 L33.9753016,26.8867302 C34.2591111,26.8867302 34.4483175,26.6975238 34.4483175,26.4137143 L34.4483175,13.1806984 C34.4483175,12.8975238 34.2591111,12.7083175 33.9753016,12.7083175 L5.61911111,12.7083175 Z M7.21466667,14.5984762 L8.63244444,14.5984762 C8.82165079,14.5984762 8.92831746,14.7045079 8.92831746,14.8949841 L8.92831746,16.3127619 C8.92831746,16.4067302 8.84577778,16.4899048 8.7511746,16.4899048 L7.21466667,16.4899048 C7.12006349,16.4899048 7.03688889,16.408 7.03688889,16.3127619 L7.03688889,14.8949841 C7.03688889,14.7057778 7.11942857,14.5984762 7.21466667,14.5984762 L7.21466667,14.5984762 Z M10.0502222,14.5984762 L11.468,14.5984762 C11.6572063,14.5984762 11.763873,14.7045079 11.763873,14.8949841 L11.763873,16.3127619 C11.763873,16.4067302 11.6806984,16.4899048 11.5860952,16.4899048 L10.0502222,16.4899048 C9.95561905,16.4899048 9.87307937,16.408 9.87307937,16.3127619 L9.87307937,14.8949841 C9.87307937,14.7057778 9.95561905,14.5984762 10.0502222,14.5984762 L10.0502222,14.5984762 Z M12.8857778,14.5984762 L14.3041905,14.5984762 C14.4927619,14.5984762 14.5994286,14.7045079 14.5994286,14.8949841 L14.5994286,16.3127619 C14.5994286,16.4067302 14.516254,16.4899048 14.4216508,16.4899048 L12.8857778,16.4899048 C12.7918095,16.4899048 12.7086349,16.408 12.7086349,16.3127619 L12.7086349,14.8949841 C12.7086349,14.7057778 12.7918095,14.5984762 12.8857778,14.5984762 L12.8857778,14.5984762 Z M15.7213333,14.5984762 L17.1391111,14.5984762 C17.3283175,14.5984762 17.435619,14.7045079 17.435619,14.8949841 L17.435619,16.3127619 C17.435619,16.4067302 17.3518095,16.4899048 17.2578413,16.4899048 L15.8400635,16.4899048 C15.6508571,16.4899048 15.5435556,16.408 15.5435556,16.3127619 L15.5435556,14.8949841 C15.5435556,14.7057778 15.6273651,14.5984762 15.7213333,14.5984762 L15.7213333,14.5984762 Z M18.5575238,14.5984762 L19.9753016,14.5984762 C20.1645079,14.5984762 20.2705397,14.7045079 20.2705397,14.8949841 L20.2705397,16.3127619 C20.2705397,16.4067302 20.188,16.4899048 20.0933968,16.4899048 L18.675619,16.4899048 C18.4864127,16.4899048 18.379746,16.408 18.379746,16.3127619 L18.379746,14.8949841 C18.379746,14.7057778 18.4629206,14.5984762 18.5575238,14.5984762 L18.5575238,14.5984762 Z M21.3930794,14.5984762 L22.8108571,14.5984762 C22.9994286,14.5984762 23.1067302,14.7045079 23.1067302,14.8949841 L23.1067302,16.3127619 C23.1067302,16.4067302 23.0241905,16.4899048 22.9289524,16.4899048 L21.5111746,16.4899048 C21.3219683,16.4899048 21.2153016,16.408 21.2153016,16.3127619 L21.2153016,14.8949841 C21.2153016,14.7057778 21.2978413,14.5984762 21.3930794,14.5984762 L21.3930794,14.5984762 Z M24.2286349,14.5984762 L25.6464127,14.5984762 C25.835619,14.5984762 25.9416508,14.7045079 25.9416508,14.8949841 L25.9416508,16.3127619 C25.9416508,16.4067302 25.859746,16.4899048 25.7645079,16.4899048 L24.3467302,16.4899048 C24.1575238,16.4899048 24.0508571,16.408 24.0508571,16.3127619 L24.0508571,14.8949841 C24.0508571,14.7057778 24.1333968,14.5984762 24.2286349,14.5984762 L24.2286349,14.5984762 Z M27.0641905,14.5984762 L28.4819683,14.5984762 C28.6711746,14.5984762 28.7778413,14.7045079 28.7778413,14.8949841 L28.7778413,16.3127619 C28.7778413,16.4067302 28.6953016,16.4899048 28.6000635,16.4899048 L27.1822857,16.4899048 C26.9930794,16.4899048 26.8864127,16.408 26.8864127,16.3127619 L26.8864127,14.8949841 C26.8864127,14.7057778 26.9689524,14.5984762 27.0641905,14.5984762 L27.0641905,14.5984762 Z M29.899746,14.5984762 L32.2629206,14.5984762 C32.4514921,14.5984762 32.5587937,14.7045079 32.5587937,14.8949841 L32.5587937,16.3127619 C32.5587937,16.4067302 32.476254,16.4899048 32.3810159,16.4899048 L30.0184762,16.4899048 C29.8286349,16.4899048 29.7219683,16.408 29.7219683,16.3127619 L29.7219683,14.8949841 C29.7219683,14.7057778 29.803873,14.5984762 29.899746,14.5984762 L29.899746,14.5984762 Z M7.21466667,17.4346667 L9.57784127,17.4346667 C9.76704762,17.4346667 9.87371429,17.5172063 9.87371429,17.6124444 L9.87371429,19.0295873 C9.87371429,19.2187937 9.79053968,19.3260952 9.69593651,19.3260952 L7.21466667,19.3260952 C7.12006349,19.3260952 7.03688889,19.2429206 7.03688889,19.1483175 L7.03688889,17.6124444 C7.03688889,17.5172063 7.11942857,17.4346667 7.21466667,17.4346667 L7.21466667,17.4346667 Z M10.995619,17.4346667 L12.4133968,17.4346667 C12.6026032,17.4346667 12.7092698,17.5172063 12.7092698,17.6124444 L12.7092698,19.0295873 C12.7092698,19.2187937 12.6260952,19.3260952 12.532127,19.3260952 L10.995619,19.3260952 C10.9010159,19.3260952 10.8178413,19.2429206 10.8178413,19.1483175 L10.8178413,17.6124444 C10.8178413,17.5172063 10.9010159,17.4346667 10.995619,17.4346667 L10.995619,17.4346667 Z M13.8311746,17.4346667 L15.2489524,17.4346667 C15.4381587,17.4346667 15.5448254,17.5172063 15.5448254,17.6124444 L15.5448254,19.0295873 C15.5448254,19.2187937 15.4616508,19.3260952 15.3670476,19.3260952 L13.8311746,19.3260952 C13.7365714,19.3260952 13.6540317,19.2429206 13.6540317,19.1483175 L13.6540317,17.6124444 C13.6540317,17.5172063 13.7365714,17.4346667 13.8311746,17.4346667 L13.8311746,17.4346667 Z M16.6667302,17.4346667 L18.0845079,17.4346667 C18.2737143,17.4346667 18.380381,17.5172063 18.380381,17.6124444 L18.380381,19.0295873 C18.380381,19.2187937 18.2972063,19.3260952 18.2026032,19.3260952 L16.7848254,19.3260952 C16.595619,19.3260952 16.4889524,19.2429206 16.4889524,19.1483175 L16.4889524,17.6124444 C16.4889524,17.5172063 16.572127,17.4346667 16.6667302,17.4346667 L16.6667302,17.4346667 Z M19.5022857,17.4346667 L20.9200635,17.4346667 C21.1092698,17.4346667 21.2159365,17.5172063 21.2159365,17.6124444 L21.2159365,19.0295873 C21.2159365,19.2187937 21.1340317,19.3260952 21.0381587,19.3260952 L19.620381,19.3260952 C19.4318095,19.3260952 19.3245079,19.2429206 19.3245079,19.1483175 L19.3245079,17.6124444 C19.3245079,17.5172063 19.4076825,17.4346667 19.5022857,17.4346667 L19.5022857,17.4346667 Z M22.3384762,17.4346667 L23.756254,17.4346667 C23.9448254,17.4346667 24.0514921,17.5172063 24.0514921,17.6124444 L24.0514921,19.0295873 C24.0514921,19.2187937 23.9695873,19.3260952 23.8737143,19.3260952 L22.4559365,19.3260952 C22.2673651,19.3260952 22.1600635,19.2429206 22.1600635,19.1483175 L22.1600635,17.6124444 C22.1600635,17.5172063 22.2426032,17.4346667 22.3384762,17.4346667 L22.3384762,17.4346667 Z M25.1740317,17.4346667 L26.5911746,17.4346667 C26.780381,17.4346667 26.8870476,17.5172063 26.8870476,17.6124444 L26.8870476,19.0295873 C26.8870476,19.2187937 26.8051429,19.3260952 26.7099048,19.3260952 L25.292127,19.3260952 C25.1029206,19.3260952 24.996254,19.2429206 24.996254,19.1483175 L24.996254,17.6124444 C24.996254,17.5172063 25.0781587,17.4346667 25.1740317,17.4346667 L25.1740317,17.4346667 Z M28.0095873,17.4346667 L29.4273651,17.4346667 C29.6165714,17.4346667 29.7232381,17.5172063 29.7232381,17.6124444 L29.7232381,19.0295873 C29.7232381,19.2187937 29.6406984,19.3260952 29.5448254,19.3260952 L28.1276825,19.3260952 C27.9384762,19.3260952 27.8318095,19.2429206 27.8318095,19.1483175 L27.8318095,17.6124444 C27.8318095,17.5172063 27.9137143,17.4346667 28.0095873,17.4346667 L28.0095873,17.4346667 Z M30.8451429,17.4346667 L32.2629206,17.4346667 C32.4514921,17.4346667 32.5587937,17.5172063 32.5587937,17.6124444 L32.5587937,19.1483175 C32.5587937,19.2429206 32.476254,19.3260952 32.3810159,19.3260952 L30.9632381,19.3260952 C30.7740317,19.3260952 30.6673651,19.2429206 30.6673651,19.1483175 L30.6673651,17.6124444 C30.6673651,17.5172063 30.7499048,17.4346667 30.8451429,17.4346667 L30.8451429,17.4346667 Z M7.21466667,20.2702222 L10.5232381,20.2702222 C10.7124444,20.2702222 10.8191111,20.3533968 10.8191111,20.448 L10.8191111,21.8651429 C10.8191111,22.0549841 10.7359365,22.1610159 10.6406984,22.1610159 L7.21466667,22.1610159 C7.12006349,22.1610159 7.03688889,22.0784762 7.03688889,21.983873 L7.03688889,20.448 C7.03688889,20.3533968 7.11942857,20.2702222 7.21466667,20.2702222 L7.21466667,20.2702222 Z M11.9410159,20.2702222 L13.3587937,20.2702222 C13.5473651,20.2702222 13.6546667,20.3533968 13.6546667,20.448 L13.6546667,21.8651429 C13.6546667,22.0549841 13.5714921,22.1610159 13.4768889,22.1610159 L11.9410159,22.1610159 C11.8464127,22.1610159 11.7632381,22.0784762 11.7632381,21.983873 L11.7632381,20.448 C11.7632381,20.3533968 11.8464127,20.2702222 11.9410159,20.2702222 L11.9410159,20.2702222 Z M14.7765714,20.2702222 L16.1943492,20.2702222 C16.3835556,20.2702222 16.4902222,20.3533968 16.4902222,20.448 L16.4902222,21.8651429 C16.4902222,21.959746 16.4070476,22.0727619 16.3124444,22.0727619 L14.8946667,22.0727619 C14.7054603,22.1667302 14.5987937,22.0784762 14.5987937,21.983873 L14.5987937,20.448 C14.5987937,20.3533968 14.6819683,20.2702222 14.7765714,20.2702222 L14.7765714,20.2702222 Z M17.612127,20.2702222 L19.0299048,20.2702222 C19.2191111,20.2702222 19.3257778,20.3533968 19.3257778,20.448 L19.3257778,21.8651429 C19.3257778,21.959746 19.2426032,22.0727619 19.148,22.0727619 L17.7302222,22.0727619 C17.5410159,22.1667302 17.4343492,22.0784762 17.4343492,21.983873 L17.4343492,20.448 C17.4343492,20.3533968 17.5175238,20.2702222 17.612127,20.2702222 L17.612127,20.2702222 Z M20.4476825,20.2702222 L21.8654603,20.2702222 C22.0546667,20.2702222 22.1613333,20.3533968 22.1613333,20.448 L22.1613333,21.8651429 C22.1613333,21.959746 22.0787937,22.0727619 21.9835556,22.0727619 L20.5657778,22.0727619 C20.3765714,22.1667302 20.2699048,22.0784762 20.2699048,21.983873 L20.2699048,20.448 C20.2699048,20.3533968 20.3524444,20.2702222 20.4476825,20.2702222 L20.4476825,20.2702222 Z M23.2832381,20.2702222 L24.7010159,20.2702222 C24.8902222,20.2702222 24.9968889,20.3533968 24.9968889,20.448 L24.9968889,21.8651429 C24.9968889,21.959746 24.9149841,22.0727619 24.8191111,22.0727619 L23.4013333,22.0727619 C23.212127,22.1667302 23.1060952,22.0784762 23.1060952,21.983873 L23.1060952,20.448 C23.1060952,20.3533968 23.188,20.2702222 23.2832381,20.2702222 L23.2832381,20.2702222 Z M26.1187937,20.2702222 L27.5365714,20.2702222 C27.7257778,20.2702222 27.8330794,20.3533968 27.8330794,20.448 L27.8330794,21.8651429 C27.8330794,22.0549841 27.7499048,22.1610159 27.6553016,22.1610159 L26.2368889,22.1610159 C26.0476825,22.1610159 25.9416508,22.0784762 25.9416508,21.983873 L25.9416508,20.448 C25.9416508,20.3533968 26.0235556,20.2702222 26.1187937,20.2702222 L26.1187937,20.2702222 Z M28.9543492,20.2702222 L32.2629206,20.2702222 C32.4514921,20.2702222 32.5587937,20.3533968 32.5587937,20.448 L32.5587937,21.983873 C32.5587937,22.0784762 32.476254,22.1610159 32.3810159,22.1610159 L29.0730794,22.1610159 C28.883873,22.1610159 28.7765714,22.0784762 28.7765714,21.983873 L28.7765714,20.448 C28.7765714,20.3533968 28.8591111,20.2702222 28.9543492,20.2702222 L28.9543492,20.2702222 Z M7.21466667,23.1057778 L8.63244444,23.1057778 C8.82165079,23.1057778 8.92831746,23.1889524 8.92831746,23.2835556 L8.92831746,24.8194286 C8.92831746,24.9140317 8.84577778,24.9972063 8.7511746,24.9972063 L7.21466667,24.9972063 C7.12006349,24.9972063 7.03688889,24.9140317 7.03688889,24.8194286 L7.03688889,23.4016508 C7.03688889,23.2124444 7.11942857,23.1057778 7.21466667,23.1057778 L7.21466667,23.1057778 Z M10.0502222,23.1057778 L11.468,23.1057778 C11.6572063,23.1057778 11.763873,23.1889524 11.763873,23.2835556 L11.763873,24.8194286 C11.763873,24.9140317 11.6806984,24.9972063 11.5860952,24.9972063 L10.0502222,24.9972063 C9.95561905,24.9972063 9.87307937,24.9140317 9.87307937,24.8194286 L9.87307937,23.4016508 C9.87307937,23.2124444 9.95561905,23.1057778 10.0502222,23.1057778 L10.0502222,23.1057778 Z M12.8857778,23.1057778 L26.5911746,23.1057778 C26.6864127,23.1057778 26.7987937,23.1889524 26.7987937,23.2835556 L26.7987937,24.8194286 L26.8870476,24.8194286 C26.8870476,24.9140317 26.8051429,24.9972063 26.7099048,24.9972063 L12.8857778,24.9972063 C12.7918095,24.9972063 12.7086349,24.9140317 12.7086349,24.8194286 L12.7086349,23.4016508 C12.7086349,23.2124444 12.7918095,23.1057778 12.8857778,23.1057778 L12.8857778,23.1057778 Z M28.1276825,23.1946667 L29.5448254,23.1946667 C29.6400635,23.1946667 29.7232381,23.3070476 29.7232381,23.4016508 L29.7232381,24.8194286 C29.7232381,24.9140317 29.6406984,24.9972063 29.5448254,24.9972063 L28.1276825,24.9972063 C28.0330794,24.9972063 27.9206984,24.9140317 27.9206984,24.8194286 L27.9206984,23.4016508 C27.9206984,23.3070476 28.0330794,23.1946667 28.1276825,23.1946667 L28.1276825,23.1946667 Z M30.9632381,23.1946667 L32.3810159,23.1946667 C32.475619,23.1946667 32.5587937,23.3070476 32.5587937,23.4016508 L32.5587937,24.8194286 C32.5587937,24.9140317 32.476254,24.9972063 32.3810159,24.9972063 L30.9632381,24.9972063 C30.8686349,24.9972063 30.756254,24.9140317 30.756254,24.8194286 L30.756254,23.4016508 C30.756254,23.3070476 30.8686349,23.1946667 30.9632381,23.1946667 L30.9632381,23.1946667 Z" id="Fill-4" fill="#FEFEFE" mask="url(#mask-2)"></path>
            </g>
        </g>
    </g>
</svg>