<?xml version="1.0" encoding="UTF-8" standalone="no"?>
<svg width="40px" height="40px" viewBox="0 0 40 40" version="1.1" xmlns="http://www.w3.org/2000/svg" xmlns:xlink="http://www.w3.org/1999/xlink">
    <!-- Generator: Sketch 3.7.2 (28276) - http://www.bohemiancoding.com/sketch -->
    <title>icon-domain-15</title>
    <desc>Created with Sketch.</desc>
    <defs>
        <polygon id="path-1" points="39.5949206 39.5946667 39.5949206 -0.000126984127 0.000190476191 -0.000126984127 0.000190476191 39.5946667 39.5949206 39.5946667"></polygon>
    </defs>
    <g id="Assets" stroke="none" stroke-width="1" fill="none" fill-rule="evenodd">
        <g id="Thematic-overview" transform="translate(-30.000000, -724.000000)">
            <g id="icon-domain-15" transform="translate(30.000000, 724.000000)">
                <mask id="mask-2" fill="white">
                    <use xlink:href="#path-1"></use>
                </mask>
                <use id="Clip-2" fill="#744D41" xlink:href="#path-1"></use>
                <path d="M28.6328254,13.0629841 L30.2975873,10.5017143 L27.9286984,8.64520635 L26.2639365,11.2064762 C24.7267937,10.3099683 22.9985397,9.66933333 21.2061587,9.4775873 L21.2061587,7.30107937 L23.8309206,7.30107937 L23.8309206,4.35568254 L15.827746,4.35568254 L15.827746,7.30107937 L18.4525079,7.30107937 L18.4525079,9.54171429 C12.1782222,10.1817143 7.31219048,15.496 7.31219048,21.9626667 C7.31219048,28.8769524 12.8823492,34.4471111 19.7972698,34.4471111 C26.7121905,34.4471111 32.2823492,28.8769524 32.2823492,21.9626667 C32.2823492,18.4407619 30.8734603,15.303619 28.6328254,13.0629841 M19.7972698,31.1817143 C14.6753651,31.1817143 10.5775873,27.0204444 10.5775873,21.9626667 C10.5775873,16.904254 14.6753651,12.6788571 19.7972698,12.6788571 C24.9191746,12.6788571 29.0169524,16.840127 29.0169524,21.9626667 C29.0169524,27.0839365 24.9191746,31.1817143 19.7972698,31.1817143" id="Fill-4" fill="#FEFEFE" mask="url(#mask-2)"></path>
                <path d="M19.7975873,22.9684444 C19.2064762,22.9684444 18.727746,22.4890794 18.727746,21.8986032 L18.727746,14.7824127 C18.727746,14.1913016 19.2064762,13.7125714 19.7975873,13.7125714 C20.3886984,13.7125714 20.8674286,14.1913016 20.8674286,14.7824127 L20.8674286,21.8986032 C20.8674286,22.4890794 20.3886984,22.9684444 19.7975873,22.9684444" id="Fill-6" fill="#FEFEFE" mask="url(#mask-2)"></path>
            </g>
        </g>
    </g>
</svg>