<?xml version="1.0" encoding="UTF-8" standalone="no"?>
<svg width="41px" height="41px" viewBox="0 0 41 41" version="1.1" xmlns="http://www.w3.org/2000/svg" xmlns:xlink="http://www.w3.org/1999/xlink">
    <!-- Generator: Sketch 3.7.2 (28276) - http://www.bohemiancoding.com/sketch -->
    <title>icon-domain-10</title>
    <desc>Created with Sketch.</desc>
    <defs>
        <polygon id="path-1" points="40.053732 40.035012 40.053732 0.00019047619 0.0188463194 0.00019047619 0.0188463194 40.035012"></polygon>
    </defs>
    <g id="Assets" stroke="none" stroke-width="1" fill="none" fill-rule="evenodd">
        <g id="Thematic-overview" transform="translate(-30.000000, -477.000000)">
            <g id="icon-domain-10" transform="translate(30.000000, 477.000000)">
                <mask id="mask-2" fill="white">
                    <use xlink:href="#path-1"></use>
                </mask>
                <use id="Clip-2" fill="#FAA806" xlink:href="#path-1"></use>
                <path d="M12.1083586,11.9633618 C12.1083586,11.3489901 12.6065325,10.8508162 13.2215462,10.8508162 L28.9326415,10.8508162 C29.5476552,10.8508162 30.0458291,11.3489901 30.0458291,11.9633618 L30.0458293,40.0160292 C30.0458294,40.0160285 33.9721602,40.0160296 33.9721594,40.0160292 L33.9721585,10.2069136 C33.9721585,8.36315652 32.4776368,6.86799283 30.6338797,6.86799283 L11.5126042,6.86799283 C9.66884722,6.86799283 8.1743255,8.36315652 8.1743255,10.2069136 L8.1743255,17.5787318 L12.1083586,17.5787318 L12.1083586,11.9633618 Z M19.9616594,8.21421793 L22.2804791,8.21421793 C22.6598874,8.21421793 22.9680362,8.52236674 22.9680362,8.90177496 C22.9680362,9.28182515 22.6598874,9.58933198 22.2804791,9.58933198 L19.9616594,9.58933198 C19.5822511,9.58933198 19.2747443,9.28182515 19.2747443,8.90177496 C19.2747443,8.52236674 19.5822511,8.21421793 19.9616594,8.21421793 L19.9616594,8.21421793 Z" id="Fill-4" fill="#FEFEFE" mask="url(#mask-2)"></path>
                <path d="M19.9619162,9.58920359 L22.2807359,9.58920359 C22.6601442,9.58920359 22.967651,9.28169676 22.967651,8.90164656 C22.967651,8.52223834 22.6601442,8.21408953 22.2807359,8.21408953 L19.9619162,8.21408953 C19.581866,8.21408953 19.2743591,8.52223834 19.2743591,8.90164656 C19.2743591,9.28169676 19.581866,9.58920359 19.9619162,9.58920359" id="Fill-6" fill="#FAA806" mask="url(#mask-2)"></path>
                <path d="M12.1086154,18.5831685 L8.17458229,18.5831685 L0.000293192733,18.5831685 C-0.0337315714,19.0575893 0.00029319325,19.5352199 0.00029319325,20.0179864 C0.00029319325,21.3411003 0.00029319325,22.5653499 0.000293189723,23.8592895 L0.00029319325,23.3224599 C0.00029319325,22.7074462 0.891356828,22.5653499 1.50637049,22.5653499 L8.17458229,22.5653499 L12.1086154,22.5653499 L15.8064011,22.5653499 L19.3584581,18.6152673 C19.2140133,18.59665 19.0682846,18.5831685 18.918704,18.5831685 L12.1086154,18.5831685 Z M8.24712566,21.3045077 C8.22208857,21.3045077 8.1989774,21.2993719 8.17458229,21.296804 C7.82984081,21.2602113 7.55956863,20.9713218 7.55956863,20.6169506 C7.55956863,20.2619375 7.82984081,19.97369 8.17458229,19.9364554 C8.1989774,19.9338875 8.22208857,19.9293936 8.24712566,19.9293936 L10.5659454,19.9293936 C10.9459956,19.9293936 11.2535025,20.2375424 11.2535025,20.6169506 C11.2535025,20.9963589 10.9459956,21.3045077 10.5659454,21.3045077 L8.24712566,21.3045077 Z" id="Fill-8" fill="#FEFEFE" mask="url(#mask-2)"></path>
                <path d="M18.3309744,24.7727867 L18.3309744,40.0351398 C18.3309744,40.1083246 19.4614953,40.0351403 20.0360645,40.0351403 C20.7871772,40.0351403 22.136612,40.0351404 22.1969579,40.0351398 L22.2573038,21.9217683 C22.2573038,21.70799 22.2354766,21.4993476 22.196958,21.296483 L18.3309744,24.7727867 Z" id="Fill-10" fill="#FEFEFE" mask="url(#mask-2)"></path>
                <path d="M10.565496,19.929201 L8.24667627,19.929201 C8.22228116,19.929201 8.19852802,19.9343368 8.17413291,19.9362628 C7.82939143,19.9734974 7.55976122,20.2617449 7.55976122,20.6167581 C7.55976122,20.9711292 7.82939143,21.2600187 8.17413291,21.2966114 C8.19852802,21.2991793 8.22228116,21.3043151 8.24667627,21.3043151 L10.565496,21.3043151 C10.9455462,21.3043151 11.2530531,20.9961663 11.2530531,20.6167581 C11.2530531,20.2373498 10.9455462,19.929201 10.565496,19.929201" id="Fill-12" fill="#FAA806" mask="url(#mask-2)"></path>
                <polygon id="Fill-14" fill="#FEFEFE" mask="url(#mask-2)" points="21.3017215 14.7456887 22.8212803 16.2652475 21.1065606 18.1725602 20.7631031 18.5545364 20.4157937 18.9403643 17.1564781 22.5656067 16.7051684 23.0669905 16.2532169 23.5696582 12.1086154 28.1796928 12.1086154 29.0174723 17.3272439 24.3252648 17.8286276 23.8739551 18.3056163 23.4444727 21.8249325 20.2808117 22.2030568 19.940564 22.5843909 19.5977485 24.4640986 17.9080658 25.9836574 19.4269827 27.4518581 13.277488"></polygon>
                <polygon id="Fill-16" fill="#FEFEFE" mask="url(#mask-2)" points="12.1083586 29.0171513 12.1083586 28.1793718 8.1743255 32.5544429"></polygon>
                <path d="M28.9330267,10.8506236 L13.2212894,10.8506236 C12.6069177,10.8506236 12.1087438,11.3487975 12.1087438,11.9631692 L12.1087438,17.5791812 L8.17471069,17.5791812 L0.168619479,17.5791812 C0.148076226,17.7454531 0.131384832,17.9130091 0.115335415,18.0812069 C0.0992859977,18.2481209 0.0858044873,18.4150348 0.0736069304,18.5832327 L8.17471069,18.5832327 L12.1087438,18.5832327 L18.9188324,18.5832327 C19.068413,18.5832327 19.2141417,18.5960722 19.3579445,18.6153315 L15.8065295,22.5654141 L12.1087438,22.5654141 L8.17471069,22.5654141 L1.50649889,22.5654141 C0.891485224,22.5654141 0.393311318,23.063588 0.393311318,23.6786016 L0.393311318,23.8853181 C0.526842468,24.5670974 0.694398382,25.237321 0.895337084,25.8921372 C1.04491765,26.3800395 1.21247357,26.8608801 1.39736285,27.3320909 C2.78788434,30.8725923 5.15870423,33.9200557 8.17471069,36.1425789 C9.38868859,37.0368524 10.7073087,37.7975948 12.1087438,38.4023369 C13.7464263,39.1097952 15.4977387,39.6047592 17.3267303,39.8519202 C17.4936442,39.8743894 17.6612001,39.8949326 17.828756,39.91355 C17.99567,39.9315253 18.1632259,39.9482167 18.3307818,39.9623402 L18.3307818,24.7725299 L22.1967654,21.2962262 C22.235284,21.4990908 22.2577532,21.7077332 22.2577532,21.9215115 L22.2577532,39.9109821 C22.4253091,39.8923647 22.592865,39.8718215 22.7597789,39.8493523 C22.9273348,39.8262411 23.0948908,39.802488 23.2618047,39.775525 C25.6987482,39.3800673 27.988037,38.5454977 30.0462143,37.3546309 L30.0462143,11.9631692 C30.0462143,11.3487975 29.5480404,10.8506236 28.9330267,10.8506236 L28.9330267,10.8506236 Z M25.9831439,19.427432 L24.463585,17.9078732 L22.5845193,19.5975559 L22.2031852,19.9410134 L21.8244189,20.281261 L18.3057447,23.4449221 L17.828756,23.8737626 L17.3267303,24.3250722 L12.1087438,29.0172797 L8.17471069,32.5545713 L12.1087438,28.1795002 L16.2533453,23.5694656 L16.7052968,23.0674398 L17.1566064,22.5654141 L20.4159221,18.9408137 L20.7632315,18.5543438 L21.106689,18.1723676 L22.8214087,16.2650549 L21.3018499,14.7461381 L27.4513445,13.2779374 L25.9831439,19.427432 Z" id="Fill-18" fill="#FAA906" mask="url(#mask-2)"></path>
            </g>
        </g>
    </g>
</svg>