<?xml version="1.0" encoding="UTF-8" standalone="no"?>
<svg width="40px" height="40px" viewBox="0 0 40 40" version="1.1" xmlns="http://www.w3.org/2000/svg" xmlns:xlink="http://www.w3.org/1999/xlink">
    <!-- Generator: Sketch 3.7.2 (28276) - http://www.bohemiancoding.com/sketch -->
    <title>icon-domain-6</title>
    <desc>Created with Sketch.</desc>
    <defs>
        <polygon id="path-1" points="39.5947302 39.5947937 39.5947302 0 0 0 2.5793686e-16 39.5947937 39.5947302 39.5947937"></polygon>
    </defs>
    <g id="Assets" stroke="none" stroke-width="1" fill="none" fill-rule="evenodd">
        <g id="Thematic-overview" transform="translate(-29.000000, -279.000000)">
            <g id="icon-domain-6" transform="translate(29.000000, 279.000000)">
                <mask id="mask-2" fill="white">
                    <use xlink:href="#path-1"></use>
                </mask>
                <use id="Clip-2" fill="#0097A7" xlink:href="#path-1"></use>
                <g id="Page-1" mask="url(#mask-2)" fill="#FEFEFE">
                    <g transform="translate(5.000000, 9.000000)">
                        <path d="M2.34256,8.49564483 L6.30656,10.8916103 L8.19696,12.0313 L8.38336,12.1470931 L8.62336,12.062231 L10.36816,11.4531276 L14.68976,9.9390931 L13.72336,9.33792069 L10.01616,10.6259207 C9.97776,10.5981621 9.94656,10.5704034 9.90416,10.5434379 C9.14976,10.0818517 7.84656,9.94226552 6.99456,10.2349207 L3.94416,8.38223103 C4.81216,8.09274828 4.88496,7.47492069 4.10816,6.99905862 L7.92976,5.73643793 L6.92336,5.1090931 L2.57616,6.5350931 L0.39376,7.25205862 L0.32256,7.27585172 L0.38736,7.31471379 L2.34256,8.49564483 Z" id="Fill-26"></path>
                        <path d="M18.75744,2.15549655 C19.47104,2.61946207 20.68544,2.78125517 21.47104,2.51715172 C21.47664,2.51635862 21.48064,2.51397931 21.48544,2.5116 L24.24224,4.32146207 C24.23744,4.32225517 24.23024,4.32384138 24.22464,4.32542759 C23.45264,4.59111724 23.38704,5.17563448 24.08064,5.62849655 C24.11984,5.65308276 24.16544,5.67449655 24.20784,5.69828966 L20.74464,6.89984138 L21.67344,7.49625517 L25.69824,6.08770345 L27.27264,5.53649655 L27.50144,5.4563931 L27.31744,5.33504828 L25.66544,4.24453103 L22.09744,1.8913931 L20.39184,0.766772414 L20.31904,0.7176 L20.24064,0.74297931 L18.27184,1.38856552 L14.22704,2.71542759 L15.19184,3.33484138 L18.75744,2.15549655 Z" id="Fill-28"></path>
                        <polygon id="Fill-30" points="14.8016 8.96421034 15.7376 9.54793448 16.7912 9.17993448 17.8536 8.80796897 18.5152 8.57638276 19.5672 8.20838276 20.6136 7.84355517 19.704 7.26221034 14.116 3.69086552 13.1456 3.06986552 12.0552 3.42834828 9.1632 4.3769 8.0464 4.74252069 9.0464 5.3666931"></polygon>
                        <polygon id="Fill-32" points="20.61388 7.87292069 20.64388 7.86192069 20.61288 7.84292069"></polygon>
                        <polygon id="Fill-34" points="21.67032 9.10133793 21.68232 10.1022345 27.62392 7.97513103 27.63752 6.39447586 21.66392 8.50333793"></polygon>
                        <polygon id="Fill-36" points="14.67536 12.6106621 14.66336 11.5891448 14.65616 10.9760759 8.40096 13.1856621 0.46896 8.65069655 0.45136 10.2813172 8.47296 14.8289724"></polygon>
                        <polygon id="Fill-38" points="0.42424 12.8360621 8.46824 17.3385103 14.70424 15.0607172 14.68504 13.4253379 8.39544 15.6936138 0.44104 11.2046483"></polygon>
                        <polygon id="Fill-40" points="21.71096 12.5006586 27.60376 10.348969 27.61736 8.76593448 21.69176 10.9017621"></polygon>
                        <polygon id="Fill-42" points="21.73984 14.9009069 27.58304 12.7230448 27.59744 11.1400103 21.72064 13.3004241"></polygon>
                        <polygon id="Fill-44" points="0.39728 15.3911241 8.46208 19.8467793 14.73328 17.5102966 14.71408 15.8765034 8.39088 18.2026759 0.41488 13.757331"></polygon>
                        <polygon id="Fill-46" points="21.76912 17.2987759 27.56352 15.0979138 27.57712 13.5148793 21.74992 15.6998793"></polygon>
                        <polygon id="Fill-48" points="8.3848 20.7120552 0.3864 16.3127103 0.3696 17.9465034 8.4568 22.3569517 14.7624 19.9609862 14.744 18.3279862"></polygon>
                        <polygon id="Fill-50" points="16.82888 9.19040345 15.76328 9.56474828 15.73688 9.5480931 15.72088 9.55364483 15.73288 10.5719897 15.74008 11.1834724 15.75208 12.1986448 15.76248 13.0139552 15.78088 14.6421966 15.79048 15.4559207 15.80968 17.0849552 15.81928 17.8986793 15.83928 19.5269207 16.90888 19.1208517 19.68568 18.0660241 20.73048 17.6686793 20.71048 16.0650241 20.70088 15.2624034 20.68248 13.6571621 20.67208 12.8561276 20.65368 11.2516793 20.64408 10.4482655 20.63208 9.44736897 20.62488 8.84461034 20.61368 7.86671379 19.59448 8.22281724"></polygon>
                        <polygon id="Fill-52" points="18.5152 8.57622414 17.8536 8.80781034 16.7904 9.18056897 15.7368 9.54856897 15.7632 9.56443103 16.8288 9.19008621 19.5944 8.2232931 20.6136 7.86639655 20.6136 7.84339655 20.6128 7.84339655 19.5672 8.20822414"></polygon>
                    </g>
                </g>
            </g>
        </g>
    </g>
</svg>