<?xml version="1.0" encoding="UTF-8" standalone="no"?>
<svg width="639px" height="309px" viewBox="0 0 639 309" version="1.1" xmlns="http://www.w3.org/2000/svg" xmlns:xlink="http://www.w3.org/1999/xlink">
    <!-- Generator: Sketch 3.7.2 (28276) - http://www.bohemiancoding.com/sketch -->
    <title>axes-scale</title>
    <desc>Created with Sketch.</desc>
    <defs></defs>
    <g id="Assets" stroke="none" stroke-width="1" fill="none" fill-rule="evenodd">
        <g id="Thematic-overview" transform="translate(-1262.000000, -458.000000)">
            <g id="axes-scale" transform="translate(1262.000000, 458.000000)">
                <path d="M188.137644,-0.00025037594 L188.137644,42.5836895 L628.308424,42.5836895 C628.308424,42.5836895 638.957798,42.5836895 638.957798,31.9377045 L638.957798,10.6457346 C638.957798,10.6457346 638.957798,-0.00025037594 628.308424,-0.00025037594 L188.137644,-0.00025037594 Z" id="Fill-1" fill="#E1E8EC"></path>
                <path d="M188.137644,50.9319744 L188.137644,93.5171662 L628.308424,93.5171662 C628.308424,93.5171662 638.957798,93.5171662 638.957798,82.8699293 L638.957798,61.5779594 C638.957798,61.5779594 638.957798,50.9319744 628.308424,50.9319744 L188.137644,50.9319744 Z" id="Fill-4" fill="#E1E8EC"></path>
                <path d="M188.137644,101.865326 L188.137644,144.449266 L628.308424,144.449266 C628.308424,144.449266 638.957798,144.449266 638.957798,133.803281 L638.957798,112.511311 C638.957798,112.511311 638.957798,101.865326 628.308424,101.865326 L188.137644,101.865326 Z" id="Fill-7" fill="#E1E8EC"></path>
                <path d="M188.137644,152.797551 L188.137644,206.426825 L628.308424,206.426825 C628.308424,206.426825 638.957798,206.426825 638.957798,195.78084 L638.957798,163.443536 C638.957798,163.443536 638.957798,152.797551 628.308424,152.797551 L188.137644,152.797551 Z" id="Fill-10" fill="#E1E8EC"></path>
                <path d="M188.137644,214.37188 L188.137644,256.95582 L628.308424,256.95582 C628.308424,256.95582 638.957798,256.95582 638.957798,246.309835 L638.957798,225.017865 C638.957798,225.017865 638.957798,214.37188 628.308424,214.37188 L188.137644,214.37188 Z" id="Fill-13" fill="#E1E8EC"></path>
                <path d="M188.137644,265.698947 L188.137644,308.282887 L628.308424,308.282887 C628.308424,308.282887 638.957798,308.282887 638.957798,297.636902 L638.957798,276.344932 C638.957798,276.344932 638.957798,265.698947 628.308424,265.698947 L188.137644,265.698947 Z" id="Fill-13" fill="#E1E8EC"></path>
                <path d="M10.6492486,-0.00025037594 C10.6492486,-0.00025037594 -0.000125227821,-0.00025037594 -0.000125227821,10.6457346 L-0.000125227821,31.9377045 C-0.000125227821,31.9377045 -0.000125227821,42.5836895 10.6492486,42.5836895 L188.137143,42.5836895 L188.137143,-0.00025037594 L10.6492486,-0.00025037594 Z" id="Fill-21" fill="#7C3AA4"></path>
                <path d="M10.6492486,152.797551 C10.6492486,152.797551 -0.000125227821,152.797551 -0.000125227821,163.443536 L-0.000125227821,195.78084 C-0.000125227821,195.78084 -0.000125227821,206.426825 10.6492486,206.426825 L188.137143,206.426825 L188.137143,152.797551 L10.6492486,152.797551 Z" id="Fill-24" fill="#FAA806"></path>
                <path d="M10.6492486,50.9319744 C10.6492486,50.9319744 -0.000125227821,50.9319744 -0.000125227821,61.5779594 L-0.000125227821,82.8711812 C-0.000125227821,82.8711812 -0.000125227821,93.5171662 10.6492486,93.5171662 L188.137143,93.5171662 L188.137143,50.9319744 L10.6492486,50.9319744 Z" id="Fill-27" fill="#D84315"></path>
                <g id="Group-2" transform="translate(8.000000, 63.000000)">
                    <path d="M10.9285544,11.6588688 L10.9089797,11.6385085 C10.6704134,11.410953 10.3535484,11.2851986 10.0183321,11.2851986 C9.67088172,11.2851986 9.34667622,11.4181389 9.1068865,11.6588688 L7.0013859,13.7511822 C6.5107957,14.2422232 6.51935962,15.033877 7.02218399,15.5141389 L7.04298208,15.5333015 C7.28154839,15.7620547 7.59718996,15.8866115 7.93362963,15.8866115 C8.27985663,15.8866115 8.60406213,15.7548688 8.84385185,15.5141389 L10.9493524,13.4218255 C11.4399427,12.9307846 11.4313787,12.1379331 10.9285544,11.6588688" id="Fill-5" fill="#FEFEFE"></path>
                    <path d="M10.9285544,11.6588688 L10.9089797,11.6385085 C10.6704134,11.410953 10.3535484,11.2851986 10.0183321,11.2851986 C9.67088172,11.2851986 9.34667622,11.4181389 9.1068865,11.6588688 L7.0013859,13.7511822 C6.5107957,14.2422232 6.51935962,15.033877 7.02218399,15.5141389 L7.04298208,15.5333015 C7.28154839,15.7620547 7.59718996,15.8866115 7.93362963,15.8866115 C8.27985663,15.8866115 8.60406213,15.7548688 8.84385185,15.5141389 L10.9493524,13.4218255 C11.4399427,12.9307846 11.4313787,12.1379331 10.9285544,11.6588688 L10.9285544,11.6588688 Z" id="Stroke-7" stroke="#FEFEFE" stroke-width="0.194"></path>
                    <path d="M14.1949553,14.0144281 L14.1741572,13.9952655 C13.9355909,13.7677099 13.6199493,13.6407579 13.2847331,13.6407579 C12.9360593,13.6407579 12.6130772,13.7736982 12.372064,14.0144281 L10.2677869,16.1079392 C9.77719665,16.5989801 9.78576057,17.3906339 10.2885849,17.8720936 L10.309383,17.8900585 C10.5467259,18.1188117 10.8635909,18.2445661 11.2000306,18.2445661 C11.5462576,18.2445661 11.8704631,18.1116257 12.1114762,17.8720936 L14.2157534,15.7785825 C14.7063436,15.2875415 14.6977797,14.4946901 14.1949553,14.0144281" id="Fill-9" fill="#FEFEFE"></path>
                    <path d="M14.1949553,14.0144281 L14.1741572,13.9952655 C13.9355909,13.7677099 13.6199493,13.6407579 13.2847331,13.6407579 C12.9360593,13.6407579 12.6130772,13.7736982 12.372064,14.0144281 L10.2677869,16.1079392 C9.77719665,16.5989801 9.78576057,17.3906339 10.2885849,17.8720936 L10.309383,17.8900585 C10.5467259,18.1188117 10.8635909,18.2445661 11.2000306,18.2445661 C11.5462576,18.2445661 11.8704631,18.1116257 12.1114762,17.8720936 L14.2157534,15.7785825 C14.7063436,15.2875415 14.6977797,14.4946901 14.1949553,14.0144281 L14.1949553,14.0144281 Z" id="Stroke-11" stroke="#FEFEFE" stroke-width="0.194"></path>
                    <path d="M17.6722734,16.091651 L17.6514753,16.0700931 C17.412909,15.8437352 17.0972674,15.7179808 16.7608277,15.7179808 C16.4133773,15.7179808 16.0903952,15.8509212 15.8493821,16.091651 L13.7438815,18.1839644 C13.2532913,18.6750054 13.2630786,19.4654615 13.7646796,19.9469212 L13.7854777,19.9660837 C14.024044,20.194837 14.3396855,20.3193937 14.6761252,20.3193937 C15.0235756,20.3193937 15.3465577,20.1888487 15.5875708,19.9469212 L17.6930714,17.8546077 C18.1836616,17.3635668 18.1738743,16.5707153 17.6722734,16.091651" id="Fill-13" fill="#FEFEFE"></path>
                    <path d="M17.6722734,16.091651 L17.6514753,16.0700931 C17.412909,15.8437352 17.0972674,15.7179808 16.7608277,15.7179808 C16.4133773,15.7179808 16.0903952,15.8509212 15.8493821,16.091651 L13.7438815,18.1839644 C13.2532913,18.6750054 13.2630786,19.4654615 13.7646796,19.9469212 L13.7854777,19.9660837 C14.024044,20.194837 14.3396855,20.3193937 14.6761252,20.3193937 C15.0235756,20.3193937 15.3465577,20.1888487 15.5875708,19.9469212 L17.6930714,17.8546077 C18.1836616,17.3635668 18.1738743,16.5707153 17.6722734,16.091651 L17.6722734,16.091651 Z" id="Stroke-15" stroke="#FEFEFE" stroke-width="0.194"></path>
                    <path d="M20.9375732,18.353673 L20.9167751,18.3321151 C20.6794323,18.1057572 20.3625673,17.9800028 20.0261276,17.9800028 C19.6786772,17.9800028 19.3556951,18.1141408 19.114682,18.3548706 L17.0104048,20.4471841 C16.5185912,20.938225 16.5283785,21.7286812 17.0312029,22.2101408 L17.052001,22.2281057 C17.2893438,22.4568589 17.6062088,22.583811 17.9414251,22.583811 C18.2888755,22.583811 18.613081,22.4508706 18.8540941,22.2089432 L20.9583713,20.1166297 C21.4501849,19.6255888 21.4391742,18.833935 20.9375732,18.353673" id="Fill-17" fill="#FEFEFE"></path>
                    <path d="M20.9375732,18.353673 L20.9167751,18.3321151 C20.6794323,18.1057572 20.3625673,17.9800028 20.0261276,17.9800028 C19.6786772,17.9800028 19.3556951,18.1141408 19.114682,18.3548706 L17.0104048,20.4471841 C16.5185912,20.938225 16.5283785,21.7286812 17.0312029,22.2101408 L17.052001,22.2281057 C17.2893438,22.4568589 17.6062088,22.583811 17.9414251,22.583811 C18.2888755,22.583811 18.613081,22.4508706 18.8540941,22.2089432 L20.9583713,20.1166297 C21.4501849,19.6255888 21.4391742,18.833935 20.9375732,18.353673 L20.9375732,18.353673 Z" id="Stroke-19" stroke="#FEFEFE" stroke-width="0.194"></path>
                    <path d="M32.8012922,14.7325455 C32.266659,12.6498133 26.6891011,7.89390222 23.9302958,6.30221099 L19.4048765,9.98022737 L19.3718442,10.0065759 C18.8054022,10.4832449 18.0811393,10.7455326 17.3336315,10.7455326 C17.2406519,10.7455326 17.1476722,10.7419396 17.0534691,10.733556 C16.2313329,10.662894 15.4826017,10.2868285 14.946745,9.67602152 L14.9137128,9.63889404 C14.6262098,9.31193263 14.4378036,8.98976187 14.3105682,8.64483556 C14.3105682,8.64483556 14.248174,8.42686129 14.2322695,8.3286531 C14.1307259,7.70107883 14.1796626,7.25554901 14.277536,6.89026246 L14.4292397,6.41958175 L14.5919541,6.08902737 C14.7571154,5.81236772 14.9577558,5.55247532 15.2183436,5.33330339 L20.222119,0.680391111 C19.9003603,0.454033216 19.368174,0.335464795 18.6059852,0.335464795 C16.2460139,0.335464795 12.6724129,1.45168468 12.4729959,1.5151607 C12.2038442,1.63253146 11.8135742,1.69121684 11.3131967,1.69121684 C10.747978,1.69121684 6.28495293,1.0169338 3.04045114,0.513916257 C1.45367933,3.10206129 0.470052091,6.08543439 0.27675221,9.27720047 C2.23299594,10.26048 5.60350968,12.5252566 6.08308913,13.0546227 L8.71710585,10.4820473 C8.91407599,10.3167701 9.46094337,9.99220398 9.9894595,9.99579696 C11.8955431,10.0113665 12.4289529,11.7180332 12.5500712,12.2665619 C12.7066686,12.2509923 12.8595957,12.2438063 13.0064057,12.2438063 C15.2611632,12.2438063 15.7309553,14.0115537 15.8263818,14.6151747 C16.1408,14.554094 16.4393137,14.5229549 16.7170294,14.5229549 C18.7846041,14.5229549 19.2617367,16.2224356 19.3632803,16.7949174 C20.4521214,16.6332332 21.2889386,16.8619864 21.850487,17.4668051 C23.3907689,18.9279513 22.2358633,20.4657478 22.093947,20.6118625 L19.5235479,23.1604847 C19.9517438,23.3844473 20.3591417,23.4958297 20.738401,23.4958297 C22.2566614,23.4958297 22.9173066,21.665804 22.9246471,21.6478391 L22.9723603,21.5101081 L23.117947,21.5364566 C23.3711943,21.5795724 23.6134308,21.602328 23.8373161,21.602328 C25.887763,21.602328 25.9942002,19.7064309 25.9966471,19.6261876 L26.005211,19.416597 L26.2131919,19.469294 C26.6254834,19.5734905 27.0108597,19.6261876 27.3583102,19.6261876 C29.4943962,19.6261876 29.7084941,17.6560356 29.7158346,17.5721993 L29.7341859,17.3889572 L29.9201453,17.421294 C30.2370103,17.4799794 30.5330772,17.5099209 30.7997821,17.5099209 C31.5142576,17.5099209 32.0513376,17.301528 32.392671,16.891928 C33.0533161,16.1026695 32.8159732,14.8068005 32.8012922,14.7325455" id="Fill-21" fill="#FEFEFE"></path>
                    <path d="M32.8012922,14.7325455 C32.266659,12.6498133 26.6891011,7.89390222 23.9302958,6.30221099 L19.4048765,9.98022737 L19.3718442,10.0065759 C18.8054022,10.4832449 18.0811393,10.7455326 17.3336315,10.7455326 C17.2406519,10.7455326 17.1476722,10.7419396 17.0534691,10.733556 C16.2313329,10.662894 15.4826017,10.2868285 14.946745,9.67602152 L14.9137128,9.63889404 C14.6262098,9.31193263 14.4378036,8.98976187 14.3105682,8.64483556 C14.3105682,8.64483556 14.248174,8.42686129 14.2322695,8.3286531 C14.1307259,7.70107883 14.1796626,7.25554901 14.277536,6.89026246 L14.4292397,6.41958175 L14.5919541,6.08902737 C14.7571154,5.81236772 14.9577558,5.55247532 15.2183436,5.33330339 L20.222119,0.680391111 C19.9003603,0.454033216 19.368174,0.335464795 18.6059852,0.335464795 C16.2460139,0.335464795 12.6724129,1.45168468 12.4729959,1.5151607 C12.2038442,1.63253146 11.8135742,1.69121684 11.3131967,1.69121684 C10.747978,1.69121684 6.28495293,1.0169338 3.04045114,0.513916257 C1.45367933,3.10206129 0.470052091,6.08543439 0.27675221,9.27720047 C2.23299594,10.26048 5.60350968,12.5252566 6.08308913,13.0546227 L8.71710585,10.4820473 C8.91407599,10.3167701 9.46094337,9.99220398 9.9894595,9.99579696 C11.8955431,10.0113665 12.4289529,11.7180332 12.5500712,12.2665619 C12.7066686,12.2509923 12.8595957,12.2438063 13.0064057,12.2438063 C15.2611632,12.2438063 15.7309553,14.0115537 15.8263818,14.6151747 C16.1408,14.554094 16.4393137,14.5229549 16.7170294,14.5229549 C18.7846041,14.5229549 19.2617367,16.2224356 19.3632803,16.7949174 C20.4521214,16.6332332 21.2889386,16.8619864 21.850487,17.4668051 C23.3907689,18.9279513 22.2358633,20.4657478 22.093947,20.6118625 L19.5235479,23.1604847 C19.9517438,23.3844473 20.3591417,23.4958297 20.738401,23.4958297 C22.2566614,23.4958297 22.9173066,21.665804 22.9246471,21.6478391 L22.9723603,21.5101081 L23.117947,21.5364566 C23.3711943,21.5795724 23.6134308,21.602328 23.8373161,21.602328 C25.887763,21.602328 25.9942002,19.7064309 25.9966471,19.6261876 L26.005211,19.416597 L26.2131919,19.469294 C26.6254834,19.5734905 27.0108597,19.6261876 27.3583102,19.6261876 C29.4943962,19.6261876 29.7084941,17.6560356 29.7158346,17.5721993 L29.7341859,17.3889572 L29.9201453,17.421294 C30.2370103,17.4799794 30.5330772,17.5099209 30.7997821,17.5099209 C31.5142576,17.5099209 32.0513376,17.301528 32.392671,16.891928 C33.0533161,16.1026695 32.8159732,14.8068005 32.8012922,14.7325455 L32.8012922,14.7325455 Z" id="Stroke-23" stroke="#FEFEFE" stroke-width="0.194"></path>
                    <path d="M37.2415618,1.07993076 C34.0337625,1.39491556 32.0285821,1.61768047 31.403416,1.61768047 C31.1000086,1.61768047 30.7121854,1.64642433 29.9365391,1.47994947 C29.7236645,1.42605474 28.9296669,1.18532491 28.3987039,1.02603602 L23.8231245,4.71483135 C28.8085486,7.43112608 32.8250265,12.1570957 33.6080134,13.246967 C36.6041615,11.336698 38.6215761,10.3773717 39.5795116,9.99891088 C39.5440325,6.77480795 38.703545,3.7411331 37.2415618,1.07993076" id="Fill-25" fill="#FEFEFE"></path>
                    <path d="M37.2415618,1.07993076 C34.0337625,1.39491556 32.0285821,1.61768047 31.403416,1.61768047 C31.1000086,1.61768047 30.7121854,1.64642433 29.9365391,1.47994947 C29.7236645,1.42605474 28.9296669,1.18532491 28.3987039,1.02603602 L23.8231245,4.71483135 C28.8085486,7.43112608 32.8250265,12.1570957 33.6080134,13.246967 C36.6041615,11.336698 38.6215761,10.3773717 39.5795116,9.99891088 C39.5440325,6.77480795 38.703545,3.7411331 37.2415618,1.07993076 L37.2415618,1.07993076 Z" id="Stroke-27" stroke="#FEFEFE" stroke-width="0.194"></path>
                    <path d="M28.3508683,1.0109455 C28.2224096,0.97142269 28.0963976,0.936690526 27.9716091,0.900760702 C26.3836139,0.463614503 24.9950356,0.378580585 23.854811,0.396545497 C22.2080918,0.426487018 21.5205314,1.2217338 21.5144143,1.22772211 L21.1584,1.54150924 L20.7510022,1.93913263 L16.0836664,6.27586246 C15.7594609,6.54892912 15.5637142,6.91062269 15.4866389,7.29147883 C15.463394,7.41244257 15.4511599,7.53101099 15.4523833,7.6531724 C15.4548301,8.06516772 15.5918528,8.47716304 15.8879197,8.81370573 L15.9136115,8.84484491 C16.2280296,9.20174784 16.6660129,9.41972211 17.1492626,9.46283789 C17.2043164,9.46762854 17.2593701,9.4688262 17.3132005,9.4688262 C17.7536306,9.4688262 18.1720392,9.3191186 18.5072554,9.03647064 L19.095719,8.55980164 L23.854811,4.72369404 L28.4303904,1.03489871 C28.4034753,1.02651509 28.3765601,1.01813146 28.3508683,1.0109455" id="Fill-29" fill="#FEFEFE"></path>
                    <path d="M28.3508683,1.0109455 C28.2224096,0.97142269 28.0963976,0.936690526 27.9716091,0.900760702 C26.3836139,0.463614503 24.9950356,0.378580585 23.854811,0.396545497 C22.2080918,0.426487018 21.5205314,1.2217338 21.5144143,1.22772211 L21.1584,1.54150924 L20.7510022,1.93913263 L16.0836664,6.27586246 C15.7594609,6.54892912 15.5637142,6.91062269 15.4866389,7.29147883 C15.463394,7.41244257 15.4511599,7.53101099 15.4523833,7.6531724 C15.4548301,8.06516772 15.5918528,8.47716304 15.8879197,8.81370573 L15.9136115,8.84484491 C16.2280296,9.20174784 16.6660129,9.41972211 17.1492626,9.46283789 C17.2043164,9.46762854 17.2593701,9.4688262 17.3132005,9.4688262 C17.7536306,9.4688262 18.1720392,9.3191186 18.5072554,9.03647064 L19.095719,8.55980164 L23.854811,4.72369404 L28.4303904,1.03489871 C28.4034753,1.02651509 28.3765601,1.01813146 28.3508683,1.0109455 L28.3508683,1.0109455 Z" id="Stroke-31" stroke="#FEFEFE" stroke-width="0.194"></path>
                </g>
                <path d="M10.6492486,214.37188 C10.6492486,214.37188 -0.000125227821,214.37188 -0.000125227821,225.017865 L-0.000125227821,246.309835 C-0.000125227821,246.309835 -0.000125227821,256.95582 10.6492486,256.95582 L188.137143,256.95582 L188.137143,214.37188 L10.6492486,214.37188 Z" id="Fill-30" fill="#558B2F"></path>
                <path d="M10.6492486,101.865326 C10.6492486,101.865326 -0.000125227821,101.865326 -0.000125227821,112.511311 L-0.000125227821,133.803281 C-0.000125227821,133.803281 -0.000125227821,144.449266 10.6492486,144.449266 L188.137143,144.449266 L188.137143,101.865326 L10.6492486,101.865326 Z" id="Fill-33" fill="#0097A7"></path>
                <path d="M10.6492486,265.304105 C10.6492486,265.304105 -0.000125227821,265.304105 -0.000125227821,275.950089 L-0.000125227821,297.242059 C-0.000125227821,297.242059 -0.000125227821,307.888044 10.6492486,307.888044 L188.137143,307.888044 L188.137143,265.304105 L10.6492486,265.304105 Z" id="Fill-36" fill="#744E42"></path>
                <path d="M40.9647919,274.221133 L40.9647919,269.776957 C40.9647919,268.954514 40.486501,268.749919 39.9038805,269.33254 L9.33120471,299.937734 C8.74993907,300.520354 8.95588867,301 9.77562226,301 L13.9826848,301 L13.9826848,298.571963 L15.4189122,298.571963 L15.4189122,301 L17.5055068,301 L17.5055068,298.571963 L18.9756076,298.571963 L18.9756076,301 L21.0608472,301 L21.0608472,298.571963 L22.5323029,298.571963 L22.5323029,301 L24.6175426,301 L24.6175426,298.571963 L26.0889983,298.571963 L26.0889983,301 L28.1742379,301 L28.1742379,298.571963 L29.6443387,298.571963 L29.6443387,301 L31.7309333,301 L31.7309333,298.571963 L33.202389,298.571963 L33.202389,301 L35.2876286,301 L35.2876286,298.571963 L36.7577294,298.571963 L36.7577294,301 L39.8700072,301 C40.6910957,301 40.9986652,300.689721 40.9986652,299.871342 L40.9986652,296.998887 L38.5367545,296.998887 L38.5367545,295.527431 L40.9986652,295.527431 L40.9986652,293.442192 L38.5367545,293.442192 L38.5367545,291.970736 L40.9986652,291.970736 L40.9986652,289.885496 L38.5367545,289.885496 L38.5367545,288.414041 L40.9986652,288.414041 L40.9986652,286.328801 L38.5367545,286.328801 L38.5367545,284.857345 L40.9986652,284.857345 L40.9986652,282.772106 L38.5367545,282.772106 L38.5367545,281.302005 L40.9986652,281.302005 L40.9986652,279.21541 L38.5367545,279.21541 L38.5367545,277.74531 L40.9986652,277.74531 L40.9986652,275.658715 L38.5367545,275.658715 L38.5367545,274.188614 L40.9647919,274.188614 L40.9647919,274.221133 Z M34.9461859,295.015267 L20.7871511,295.015267 L34.9461859,280.821004 L34.9461859,295.015267 Z" id="Fill-3" fill="#FEFEFE"></path>
                <path d="M130.094424,299.584076 L128.190961,299.584076 L125.198016,293.324677 L125.157943,293.337196 L125.157943,299.584076 L123.240706,299.584076 L123.240706,289.794377 L125.157943,289.794377 L128.150888,296.047516 L128.190961,296.033745 L128.190961,289.794377 L130.094424,289.794377 L130.094424,299.584076 Z M119.4726,293.302144 C119.4726,292.602343 119.342363,292.072798 119.083142,291.716012 C118.822668,291.357974 118.443228,291.178956 117.946073,291.178956 C117.44391,291.178956 117.066974,291.356723 116.815266,291.712256 C116.56481,292.066538 116.439583,292.597335 116.439583,293.302144 L116.439583,296.067546 C116.439583,296.778614 116.567315,297.311914 116.82278,297.666196 C117.078244,298.02173 117.45518,298.199497 117.952335,298.199497 C118.445732,298.199497 118.822668,298.02173 119.083142,297.666196 C119.342363,297.311914 119.4726,296.778614 119.4726,296.067546 L119.4726,293.302144 Z M121.376063,296.067546 C121.376063,297.214268 121.064246,298.111865 120.441864,298.757835 C119.818229,299.402553 118.987969,299.725538 117.952335,299.725538 C116.916701,299.725538 116.088945,299.402553 115.470319,298.757835 C114.851694,298.111865 114.542381,297.214268 114.542381,296.067546 L114.542381,293.324677 C114.542381,292.180459 114.851694,291.282862 115.470319,290.631884 C116.088945,289.978403 116.914196,289.651662 117.946073,289.651662 C118.97795,289.651662 119.806959,289.978403 120.43435,290.631884 C121.062994,291.282862 121.376063,292.180459 121.376063,293.324677 L121.376063,296.067546 Z M110.66658,299.584076 L112.570043,299.584076 L112.570043,289.794377 L110.66658,289.794377 L110.66658,299.584076 Z M109.024843,291.319166 L106.818329,291.319166 L106.818329,299.584076 L104.908605,299.584076 L104.908605,291.319166 L102.715866,291.319166 L102.715866,289.794377 L109.024843,289.794377 L109.024843,291.319166 Z M98.2314575,295.966144 L100.034738,295.966144 L99.1531342,292.503444 L99.1130613,292.503444 L98.2314575,295.966144 Z M100.424197,297.493437 L97.8419989,297.493437 L97.3172944,299.584076 L95.3862814,299.584076 L98.143798,289.794377 L100.13492,289.794377 L102.886176,299.584076 L100.955163,299.584076 L100.424197,297.493437 Z M94.3293586,289.794377 L94.3293586,296.45688 C94.3293586,297.5022 94.0238027,298.307159 93.4114387,298.875512 C92.8003269,299.442614 91.9988688,299.725538 91.0070645,299.725538 C90.0165124,299.725538 89.2138021,299.441362 88.6026903,298.871756 C87.9903263,298.302151 87.6847704,297.497192 87.6847704,296.45688 L87.6847704,289.794377 L89.5944947,289.794377 L89.5944947,296.45688 C89.5944947,297.054027 89.7184702,297.493437 89.965169,297.77511 C90.2106156,298.058035 90.5587489,298.199497 91.0070645,298.199497 C91.4691552,298.199497 91.8210453,298.064294 92.062735,297.79514 C92.305677,297.525986 92.4258957,297.080317 92.4258957,296.45688 L92.4258957,289.794377 L94.3293586,289.794377 Z M82.969943,298.058035 L86.5477018,298.058035 L86.5477018,299.584076 L81.052705,299.584076 L81.052705,289.794377 L82.969943,289.794377 L82.969943,298.058035 Z M75.0179764,295.966144 L76.8200047,295.966144 L75.9396531,292.503444 L75.8995802,292.503444 L75.0179764,295.966144 Z M77.2107155,297.493437 L74.6285178,297.493437 L74.1038133,299.584076 L72.1728003,299.584076 L74.9303169,289.794377 L76.9214392,289.794377 L79.6726945,299.584076 L77.7416815,299.584076 L77.2107155,297.493437 Z M68.0816074,297.08282 L68.1554918,297.459636 L68.1955647,297.459636 L68.2694491,297.10285 L69.9049245,289.794377 L71.9160833,289.794377 L69.1773508,299.584076 L67.1874807,299.584076 L64.4500006,289.794377 L66.4611594,289.794377 L68.0816074,297.08282 Z M62.8796437,295.287625 L59.5911611,295.287625 L59.5911611,298.058035 L63.4581962,298.058035 L63.4581962,299.584076 L57.6739232,299.584076 L57.6739232,289.794377 L63.4444212,289.794377 L63.4444212,291.319166 L59.5911611,291.319166 L59.5911611,293.761583 L62.8796437,293.761583 L62.8796437,295.287625 Z M155.361641,276.535719 C155.361641,276.719745 155.400462,276.908779 155.479356,277.101568 C155.558249,277.29561 155.675963,277.505926 155.832498,277.736271 L156.22947,277.439576 C156.453628,277.278083 156.603901,277.112835 156.68029,276.943832 C156.756679,276.774828 156.794248,276.58955 156.794248,276.387997 C156.794248,276.162659 156.729129,275.96361 156.596388,275.789598 C156.463646,275.616839 156.292084,275.530459 156.081701,275.530459 C155.848778,275.530459 155.669702,275.625602 155.546979,275.818392 C155.424255,276.008677 155.361641,276.247786 155.361641,276.535719 L155.361641,276.535719 Z M155.86631,282.551001 C156.06417,282.551001 156.260777,282.523459 156.458637,282.469629 C156.655245,282.415798 156.845591,282.333174 157.029676,282.221756 L155.287757,279.908283 L155.241423,279.947091 C155.083636,280.162414 154.977192,280.37273 154.92084,280.576786 C154.865739,280.780843 154.836937,280.989907 154.836937,281.20523 C154.836937,281.595817 154.934615,281.91755 155.12997,282.170429 C155.324073,282.423309 155.570772,282.551001 155.86631,282.551001 L155.86631,282.551001 Z M152.913438,281.326662 C152.913438,280.797117 153.042422,280.341433 153.300392,279.958358 C153.558361,279.575283 153.951576,279.174681 154.48129,278.757805 C154.202032,278.335922 153.996658,277.95535 153.861412,277.611083 C153.727418,277.26932 153.659795,276.918794 153.659795,276.558253 C153.659795,275.793354 153.881449,275.174926 154.323503,274.706723 C154.764305,274.23852 155.352876,274.003166 156.087963,274.003166 C156.725372,274.003166 157.24632,274.224749 157.652058,274.666662 C158.057796,275.107324 158.260666,275.643129 158.260666,276.27032 C158.260666,276.705974 158.162988,277.10282 157.968885,277.463362 C157.773529,277.823903 157.510551,278.136873 157.177445,278.402271 L156.632704,278.839177 L158.18052,280.883497 L158.220593,280.877238 C158.342064,280.643136 158.437237,280.378989 158.506112,280.08605 C158.57624,279.791858 158.610051,279.481392 158.610051,279.155903 L160.010098,279.155903 C160.010098,279.774332 159.943727,280.338929 159.810986,280.8522 C159.679497,281.365471 159.471619,281.822407 159.188604,282.221756 L160.493478,283.93558 L158.328289,283.93558 L157.897505,283.370982 C157.561894,283.607587 157.220022,283.785354 156.871889,283.901779 C156.523756,284.018204 156.151829,284.077042 155.752352,284.077042 C154.887028,284.077042 154.197023,283.822911 153.683589,283.317151 C153.170155,282.811392 152.913438,282.146644 152.913438,281.326662 L152.913438,281.326662 Z M147.978209,282.483399 C147.712726,282.905283 147.315754,283.275839 146.787293,283.59632 C146.258831,283.91555 145.58761,284.077042 144.776134,284.077042 C143.726725,284.077042 142.885194,283.76908 142.251541,283.155659 C141.616636,282.542238 141.298557,281.667174 141.298557,280.532971 L141.298557,277.547238 C141.298557,276.42305 141.605365,275.551741 142.216477,274.933313 C142.828841,274.313632 143.639065,274.003166 144.648401,274.003166 C145.734127,274.003166 146.548107,274.269817 147.090344,274.800614 C147.63258,275.331411 147.914343,276.09005 147.938136,277.080286 L147.924361,277.121598 L146.128594,277.121598 C146.114819,276.568268 145.992096,276.165162 145.761677,275.911031 C145.531258,275.658151 145.176863,275.530459 144.702249,275.530459 C144.23515,275.530459 143.870737,275.695708 143.606506,276.026204 C143.341023,276.354196 143.209534,276.857452 143.209534,277.529711 L143.209534,280.530467 C143.209534,281.217749 143.342275,281.726012 143.609011,282.055256 C143.875746,282.385753 144.265204,282.551001 144.776134,282.551001 C145.156826,282.551001 145.438589,282.499674 145.620169,282.395768 C145.80175,282.291862 145.950771,282.140384 146.067233,281.93758 L146.067233,280.183696 L144.776134,280.183696 L144.776134,278.839177 L147.978209,278.839177 L147.978209,282.483399 Z M139.393842,283.93558 L137.490379,283.93558 L134.497434,277.676181 L134.457361,277.6887 L134.457361,283.93558 L132.540123,283.93558 L132.540123,274.14588 L134.457361,274.14588 L137.450306,280.39902 L137.490379,280.385249 L137.490379,274.14588 L139.393842,274.14588 L139.393842,283.93558 Z M128.430146,283.93558 L130.333609,283.93558 L130.333609,274.14588 L128.430146,274.14588 L128.430146,283.93558 Z M121.824379,278.516192 L123.101703,278.516192 C123.492413,278.516192 123.787951,278.397264 123.989568,278.160659 C124.191185,277.92155 124.292619,277.583542 124.292619,277.144132 C124.292619,276.695959 124.191185,276.340426 123.989568,276.075027 C123.787951,275.81088 123.493666,275.678181 123.107964,275.678181 L121.824379,275.678181 L121.824379,278.516192 Z M121.824379,280.043486 L121.824379,283.93558 L119.913402,283.93558 L119.913402,274.153392 L123.107964,274.153392 C124.072218,274.153392 124.828594,274.407523 125.378344,274.915786 C125.928095,275.42405 126.202343,276.131362 126.202343,277.036471 C126.202343,277.547238 126.088386,277.987899 125.859219,278.358456 C125.631305,278.72776 125.296946,279.021952 124.857397,279.242283 C125.35956,279.412538 125.721469,279.694211 125.943122,280.089805 C126.166027,280.484147 126.276228,280.977388 126.276228,281.568275 L126.276228,282.260565 C126.276228,282.529719 126.307535,282.817651 126.370149,283.125614 C126.434015,283.432324 126.542963,283.655159 126.70075,283.794117 L126.70075,283.93558 L124.722151,283.93558 C124.565616,283.792865 124.466686,283.558764 124.426613,283.235779 C124.38654,282.914046 124.366504,282.58355 124.366504,282.248046 L124.366504,281.582046 C124.366504,281.092561 124.266321,280.715745 124.067209,280.446591 C123.866845,280.177437 123.581325,280.043486 123.209399,280.043486 L121.824379,280.043486 Z M116.139036,277.653647 C116.139036,276.953847 116.008799,276.424302 115.749577,276.067516 C115.489103,275.709478 115.110915,275.530459 114.612509,275.530459 C114.110345,275.530459 113.734662,275.708226 113.482954,276.06376 C113.231246,276.418042 113.106018,276.948839 113.106018,277.653647 L113.106018,280.41905 C113.106018,281.130117 113.23375,281.663418 113.489215,282.0177 C113.74468,282.373234 114.121616,282.551001 114.620022,282.551001 C115.11342,282.551001 115.489103,282.373234 115.749577,282.0177 C116.008799,281.663418 116.139036,281.130117 116.139036,280.41905 L116.139036,277.653647 Z M118.042499,280.41905 C118.042499,281.565771 117.730681,282.463369 117.108299,283.109339 C116.484665,283.754057 115.655656,284.077042 114.620022,284.077042 C113.583136,284.077042 112.756632,283.754057 112.138007,283.109339 C111.519382,282.463369 111.208817,281.565771 111.208817,280.41905 L111.208817,277.676181 C111.208817,276.531963 111.519382,275.634365 112.138007,274.983388 C112.756632,274.329907 113.580631,274.003166 114.612509,274.003166 C115.644386,274.003166 116.473394,274.329907 117.102038,274.983388 C117.729429,275.634365 118.042499,276.531963 118.042499,277.676181 L118.042499,280.41905 Z M110.205742,275.67067 L107.999227,275.67067 L107.999227,283.93558 L106.089503,283.93558 L106.089503,275.67067 L103.896764,275.67067 L103.896764,274.14588 L110.205742,274.14588 L110.205742,275.67067 Z M100.331528,283.93558 L102.234991,283.93558 L102.234991,274.14588 L100.331528,274.14588 L100.331528,283.93558 Z M98.1312752,283.93558 L96.2278123,283.93558 L93.2336151,277.676181 L93.1935422,277.6887 L93.1935422,283.93558 L91.2763043,283.93558 L91.2763043,274.14588 L93.1935422,274.14588 L96.1864872,280.39902 L96.2278123,280.385249 L96.2278123,274.14588 L98.1312752,274.14588 L98.1312752,283.93558 Z M87.5094515,277.653647 C87.5094515,276.953847 87.3792145,276.424302 87.1199929,276.067516 C86.8595191,275.709478 86.4800788,275.530459 85.9829243,275.530459 C85.4807608,275.530459 85.103825,275.708226 84.8533694,276.06376 C84.6016615,276.418042 84.4764337,276.948839 84.4764337,277.653647 L84.4764337,280.41905 C84.4764337,281.130117 84.604166,281.663418 84.8596308,282.0177 C85.1150955,282.373234 85.4920313,282.551001 85.9891857,282.551001 C86.4825833,282.551001 86.8595191,282.373234 87.1199929,282.0177 C87.3792145,281.663418 87.5094515,281.130117 87.5094515,280.41905 L87.5094515,277.653647 Z M89.4129143,280.41905 C89.4129143,281.565771 89.1010971,282.463369 88.4787148,283.109339 C87.8550803,283.754057 87.0248198,284.077042 85.9891857,284.077042 C84.9535516,284.077042 84.1257958,283.754057 83.5071703,283.109339 C82.8885449,282.463369 82.5792322,281.565771 82.5792322,280.41905 L82.5792322,277.676181 C82.5792322,276.531963 82.8885449,275.634365 83.5071703,274.983388 C84.1257958,274.329907 84.9510471,274.003166 85.9829243,274.003166 C87.0148016,274.003166 87.8438097,274.329907 88.4712011,274.983388 C89.0998448,275.634365 89.4129143,276.531963 89.4129143,277.676181 L89.4129143,280.41905 Z M74.6811135,274.14588 L76.4368076,281.334174 L76.4781328,281.334174 L78.2538632,274.14588 L80.7484014,274.14588 L80.7484014,283.93558 L78.8449386,283.93558 L78.8449386,281.092561 L79.0064825,277.285595 L78.9664095,277.279335 L77.0967582,283.93558 L75.8256958,283.93558 L73.9760809,277.333166 L73.9347557,277.338174 L74.1038133,281.092561 L74.1038133,283.93558 L72.2003504,283.93558 L72.2003504,274.14588 L74.6811135,274.14588 Z M64.8294409,283.93558 L66.7191287,283.93558 L66.7191287,282.200474 L64.8294409,282.200474 L64.8294409,283.93558 Z M60.3750873,278.871726 C60.1096043,278.871726 59.8841943,278.918046 59.6951002,279.009433 C59.5072585,279.102072 59.3569851,279.229764 59.2442801,279.396264 L59.2442801,280.167422 C59.2442801,280.933572 59.3469669,281.520704 59.549836,281.932572 C59.7552096,282.344441 60.0319631,282.551001 60.3813487,282.551001 C60.6681204,282.551001 60.8997919,282.368226 61.0738585,282.003929 C61.2491775,281.63838 61.336837,281.201474 61.336837,280.690708 C61.336837,280.149895 61.2466729,279.711738 61.0675972,279.374982 C60.8885214,279.04073 60.6568499,278.871726 60.3750873,278.871726 L60.3750873,278.871726 Z M60.7920959,274.003166 C61.1101746,274.003166 61.4007032,274.039471 61.6624293,274.108324 C61.9254077,274.178429 62.1933953,274.282335 62.4663919,274.421294 L62.1433041,275.867215 C61.9053713,275.764561 61.6874749,275.685692 61.4871104,275.634365 C61.2879981,275.583038 61.0588312,275.558001 60.7983573,275.558001 C60.3325098,275.558001 59.9593309,275.769568 59.6788206,276.192704 C59.3983103,276.615839 59.2643165,277.216741 59.2780916,277.991655 L59.3056417,278.017944 C59.4797084,277.816392 59.7051185,277.657403 59.9781151,277.54223 C60.2511118,277.424553 60.5566676,277.365715 60.8922782,277.365715 C61.6323746,277.365715 62.2096749,277.677433 62.6254312,278.300869 C63.0399353,278.924305 63.2465612,279.721753 63.2465612,280.694463 C63.2465612,281.670929 62.979826,282.479644 62.4463555,283.119354 C61.9128849,283.756561 61.2241319,284.077042 60.3813487,284.077042 C59.4759516,284.077042 58.7408642,283.727768 58.1785913,283.027967 C57.6163184,282.329418 57.3345558,281.369226 57.3345558,280.151147 L57.3345558,278.133117 C57.3345558,276.864963 57.6588959,275.859704 58.3063237,275.117339 C58.9537515,274.374974 59.7827597,274.003166 60.7920959,274.003166 L60.7920959,274.003166 Z M102.236243,136.144922 L100.326519,136.144922 L100.326519,132.091335 L97.2859874,132.091335 L97.2859874,136.144922 L95.3687495,136.144922 L95.3687495,126.355223 L97.2859874,126.355223 L97.2859874,130.564042 L100.326519,130.564042 L100.326519,126.355223 L102.236243,126.355223 L102.236243,136.144922 Z M93.827195,127.881264 L91.6206808,127.881264 L91.6206808,136.144922 L89.7109566,136.144922 L89.7109566,127.881264 L87.5182174,127.881264 L87.5182174,126.355223 L93.827195,126.355223 L93.827195,127.881264 Z M84.1909142,134.620132 L87.7699253,134.620132 L87.7699253,136.144922 L82.2736763,136.144922 L82.2736763,126.355223 L84.1909142,126.355223 L84.1909142,134.620132 Z M76.2401999,132.528241 L78.0422282,132.528241 L77.1606244,129.06429 L77.1205515,129.06429 L76.2401999,132.528241 Z M78.432939,134.054283 L75.8494891,134.054283 L75.3247845,136.144922 L73.3950238,136.144922 L76.1525404,126.355223 L78.1436628,126.355223 L80.8936657,136.144922 L78.963905,136.144922 L78.432939,134.054283 Z M71.8472079,131.849723 L68.5574731,131.849723 L68.5574731,134.620132 L72.4257605,134.620132 L72.4257605,136.144922 L66.6414874,136.144922 L66.6414874,126.355223 L72.4119854,126.355223 L72.4119854,127.881264 L68.5574731,127.881264 L68.5574731,130.322429 L71.8472079,130.322429 L71.8472079,131.849723 Z M64.5414169,136.144922 L62.6304404,136.144922 L62.6304404,132.091335 L59.5911611,132.091335 L59.5911611,136.144922 L57.6739232,136.144922 L57.6739232,126.355223 L59.5911611,126.355223 L59.5911611,130.564042 L62.6304404,130.564042 L62.6304404,126.355223 L64.5414169,126.355223 L64.5414169,136.144922 Z M132.366057,118.971636 L135.943816,118.971636 L135.943816,120.496426 L130.448819,120.496426 L130.448819,110.706726 L132.366057,110.706726 L132.366057,118.971636 Z M124.41409,116.879745 L126.217371,116.879745 L125.335767,113.415794 L125.295694,113.415794 L124.41409,116.879745 Z M126.606829,118.405786 L124.024632,118.405786 L123.499927,120.496426 L121.568914,120.496426 L124.327683,110.706726 L126.317553,110.706726 L129.068808,120.496426 L127.139048,120.496426 L126.606829,118.405786 Z M118.091338,120.496426 L119.9948,120.496426 L119.9948,110.706726 L118.091338,110.706726 L118.091338,120.496426 Z M116.192884,117.342941 L116.214172,117.384253 C116.222938,118.459617 115.967474,119.270835 115.446526,119.816655 C114.926831,120.364978 114.159184,120.63914 113.146091,120.63914 C112.132998,120.63914 111.324026,120.328674 110.717923,119.706489 C110.113073,119.085557 109.810022,118.205486 109.810022,117.067527 L109.810022,114.141884 C109.810022,113.008933 110.103055,112.128862 110.687869,111.504174 C111.272683,110.878234 112.056609,110.565264 113.038395,110.565264 C114.079038,110.565264 114.864217,110.843181 115.396435,111.399016 C115.927401,111.95485 116.202902,112.777335 116.220434,113.866471 L116.200397,113.907783 L114.357044,113.907783 C114.384594,113.264317 114.296935,112.801121 114.095318,112.516944 C113.892449,112.23402 113.540559,112.091305 113.038395,112.091305 C112.608864,112.091305 112.278262,112.260309 112.050347,112.597065 C111.821181,112.932568 111.707223,113.443335 111.707223,114.124358 L111.707223,117.065023 C111.707223,117.757313 111.829946,118.270583 112.074141,118.607339 C112.318335,118.942843 112.675234,119.111847 113.146091,119.111847 C113.608182,119.111847 113.930017,118.977895 114.111597,118.712497 C114.293178,118.445847 114.373324,117.987659 114.350783,117.342941 L116.192884,117.342941 Z M107.952893,120.496426 L106.04943,120.496426 L103.056485,114.237027 L103.01516,114.249546 L103.01516,120.496426 L101.099175,120.496426 L101.099175,110.706726 L103.01516,110.706726 L106.009357,116.959865 L106.04943,116.946095 L106.04943,110.706726 L107.952893,110.706726 L107.952893,120.496426 Z M95.0644459,116.879745 L96.8677265,116.879745 L95.9861226,113.415794 L95.9460497,113.415794 L95.0644459,116.879745 Z M97.257185,118.405786 L94.6749874,118.405786 L94.1502828,120.496426 L92.2192698,120.496426 L94.9780387,110.706726 L96.9679088,110.706726 L99.719164,120.496426 L97.7894033,120.496426 L97.257185,118.405786 Z M90.7515997,120.496426 L88.8481369,120.496426 L85.855192,114.237027 L85.8151191,114.249546 L85.8151191,120.496426 L83.8978811,120.496426 L83.8978811,110.706726 L85.8151191,110.706726 L88.808064,116.959865 L88.8481369,116.946095 L88.8481369,110.706726 L90.7515997,110.706726 L90.7515997,120.496426 Z M79.7879041,120.496426 L81.6913669,120.496426 L81.6913669,110.706726 L79.7879041,110.706726 L79.7879041,120.496426 Z M77.4724416,116.427817 L74.1501476,116.427817 L74.1501476,120.496426 L72.2329096,120.496426 L72.2329096,110.706726 L78.0585078,110.706726 L78.0585078,112.232768 L74.1501476,112.232768 L74.1501476,114.903027 L77.4724416,114.903027 L77.4724416,116.427817 Z M64.8294409,120.496426 L66.7191287,120.496426 L66.7191287,118.76132 L64.8294409,118.76132 L64.8294409,120.496426 Z M59.0827362,114.760313 L60.0382245,114.760313 C60.3788441,114.760313 60.6330566,114.640132 60.7983573,114.397268 C60.9636581,114.154403 61.0475607,113.815144 61.0475607,113.379489 C61.0475607,112.997666 60.9636581,112.6872 60.7983573,112.449343 C60.6330566,112.210234 60.3951238,112.091305 60.085811,112.091305 C59.8341031,112.091305 59.617459,112.196463 59.4371309,112.408031 C59.2542983,112.619598 59.1641343,112.896264 59.1641343,113.236775 L57.3145194,113.236775 L57.3007443,113.196715 C57.2782033,112.423053 57.5324158,111.790854 58.064634,111.301369 C58.5956,110.810632 59.2517938,110.565264 60.0319631,110.565264 C60.9198283,110.565264 61.6286178,110.808129 62.1570792,111.29511 C62.6855406,111.780839 62.9510236,112.468121 62.9510236,113.355704 C62.9510236,113.800121 62.8370663,114.210738 62.6078993,114.590057 C62.3787324,114.968125 62.0656629,115.263568 61.6661861,115.475136 C62.1232677,115.662918 62.4726533,115.954606 62.7155953,116.351452 C62.957285,116.748298 63.078756,117.220256 63.078756,117.767328 C63.078756,118.659918 62.7919842,119.359719 62.2209454,119.870486 C61.6486542,120.382505 60.9173238,120.63914 60.0244494,120.63914 C59.2405233,120.63914 58.5655453,120.396275 58.0007678,119.914302 C57.4359904,119.43358 57.164246,118.743794 57.186787,117.847448 L57.2005621,117.807388 L59.0564384,117.807388 C59.0564384,118.184204 59.1553683,118.495922 59.351976,118.74129 C59.549836,118.987911 59.7940302,119.111847 60.085811,119.111847 C60.4176648,119.111847 60.6806432,118.986659 60.8759986,118.738786 C61.0701017,118.489662 61.1677794,118.156662 61.1677794,117.739786 C61.1677794,117.220256 61.0726063,116.839685 60.88226,116.600576 C60.6919137,116.361467 60.4101511,116.240035 60.0382245,116.240035 L59.0827362,116.240035 L59.0827362,114.760313 Z M145.548789,238.272016 C145.548789,237.891444 145.451112,237.589741 145.253252,237.368159 C145.055392,237.146576 144.708511,236.927497 144.210104,236.712174 C143.192002,236.357892 142.429364,235.956038 141.919687,235.505362 C141.411262,235.054685 141.15705,234.423738 141.15705,233.61252 C141.15705,232.810065 141.452587,232.157835 142.044915,231.652076 C142.637243,231.14882 143.392366,230.895941 144.311539,230.895941 C145.244486,230.895941 146.002114,231.177614 146.584424,231.740959 C147.167985,232.303053 147.449748,233.011617 147.432216,233.869155 L147.418441,233.907963 L145.562565,233.907963 C145.562565,233.461042 145.451112,233.097997 145.225702,232.82008 C145.001544,232.540911 144.68597,232.401952 144.277727,232.401952 C143.897035,232.401952 143.600245,232.518377 143.386105,232.748723 C143.173218,232.98032 143.066774,233.269505 143.066774,233.620031 C143.066774,233.941764 143.18574,234.207162 143.423673,234.416226 C143.661606,234.624038 144.073606,234.856888 144.660924,235.112271 C145.590115,235.426493 146.287634,235.823339 146.757238,236.305313 C147.22559,236.787286 147.459766,237.438264 147.459766,238.259497 C147.459766,239.105768 147.176751,239.770516 146.611974,240.249986 C146.047196,240.728204 145.295829,240.969817 144.359125,240.969817 C143.426178,240.969817 142.617206,240.696907 141.933462,240.151087 C141.249718,239.607771 140.919117,238.826598 140.941658,237.807568 L140.955433,237.76876 L142.818823,237.76876 C142.818823,238.372166 142.946555,238.80782 143.20202,239.071967 C143.457485,239.337365 143.843187,239.468813 144.359125,239.468813 C144.762359,239.468813 145.061653,239.362403 145.255756,239.14708 C145.452364,238.931756 145.548789,238.640068 145.548789,238.272016 L145.548789,238.272016 Z M139.098304,240.827102 L137.194842,240.827102 L134.201897,234.567704 L134.161824,234.580223 L134.161824,240.827102 L132.244586,240.827102 L132.244586,231.037403 L134.161824,231.037403 L137.154769,237.290542 L137.194842,237.276771 L137.194842,231.037403 L139.098304,231.037403 L139.098304,240.827102 Z M128.476481,234.546422 C128.476481,233.845369 128.346244,233.315824 128.08577,232.959038 C127.826548,232.601001 127.447108,232.423234 126.949954,232.423234 C126.44779,232.423234 126.070854,232.599749 125.819146,232.955283 C125.568691,233.310817 125.443463,233.840362 125.443463,234.546422 L125.443463,237.311824 C125.443463,238.02164 125.571195,238.554941 125.82666,238.909223 C126.082125,239.264756 126.45906,239.442523 126.956215,239.442523 C127.449613,239.442523 127.826548,239.264756 128.08577,238.909223 C128.346244,238.554941 128.476481,238.02164 128.476481,237.311824 L128.476481,234.546422 Z M130.379944,237.311824 C130.379944,238.458546 130.068126,239.356144 129.444492,240.000862 C128.822109,240.646832 127.991849,240.969817 126.956215,240.969817 C125.920581,240.969817 125.092825,240.646832 124.4742,240.000862 C123.855574,239.356144 123.546261,238.458546 123.546261,237.311824 L123.546261,234.567704 C123.546261,233.423486 123.855574,232.52714 124.4742,231.874911 C125.092825,231.222681 125.918076,230.895941 126.949954,230.895941 C127.981831,230.895941 128.810839,231.222681 129.43823,231.874911 C130.066874,232.52714 130.379944,233.423486 130.379944,234.567704 L130.379944,237.311824 Z M119.67046,240.827102 L121.573923,240.827102 L121.573923,231.037403 L119.67046,231.037403 L119.67046,240.827102 Z M118.028724,232.563444 L115.822209,232.563444 L115.822209,240.827102 L113.912485,240.827102 L113.912485,232.563444 L111.719746,232.563444 L111.719746,231.037403 L118.028724,231.037403 L118.028724,232.563444 Z M107.235338,237.210422 L109.038618,237.210422 L108.157015,233.746471 L108.116942,233.746471 L107.235338,237.210422 Z M109.428077,238.737715 L106.845879,238.737715 L106.321175,240.827102 L104.390162,240.827102 L107.147678,231.037403 L109.138801,231.037403 L111.890056,240.827102 L109.959043,240.827102 L109.428077,238.737715 Z M98.4080287,235.407715 L99.6853525,235.407715 C100.076063,235.407715 100.371601,235.290038 100.573218,235.052181 C100.774834,234.814324 100.876269,234.475065 100.876269,234.036907 C100.876269,233.587482 100.774834,233.231948 100.573218,232.96655 C100.371601,232.702403 100.078568,232.570956 99.6928661,232.570956 L98.4080287,232.570956 L98.4080287,235.407715 Z M98.4080287,236.935008 L98.4080287,240.827102 L96.4970521,240.827102 L96.4970521,231.044914 L99.6928661,231.044914 C100.65712,231.044914 101.413496,231.299046 101.961994,231.807309 C102.511744,232.316824 102.785993,233.022884 102.785993,233.929245 C102.785993,234.440012 102.672036,234.879422 102.442869,235.249978 C102.214954,235.619283 101.880596,235.914726 101.441047,236.133805 C101.94321,236.304061 102.306371,236.586986 102.526772,236.981328 C102.749677,237.376922 102.859878,237.868911 102.859878,238.46105 L102.859878,239.153339 C102.859878,239.421241 102.891185,239.710426 102.955051,240.017136 C103.017665,240.323847 103.126613,240.547933 103.2844,240.68564 L103.2844,240.827102 L101.307053,240.827102 C101.149266,240.684388 101.051588,240.451538 101.010263,240.128553 C100.97019,239.805568 100.950153,239.475072 100.950153,239.14082 L100.950153,238.47482 C100.950153,237.985335 100.849971,237.607268 100.650859,237.338114 C100.451747,237.068959 100.166227,236.935008 99.7930484,236.935008 L98.4080287,236.935008 Z M94.3105744,236.531903 L91.0208396,236.531903 L91.0208396,239.302313 L94.8891269,239.302313 L94.8891269,240.827102 L89.1048539,240.827102 L89.1048539,231.037403 L94.8753519,231.037403 L94.8753519,232.563444 L91.0208396,232.563444 L91.0208396,235.00461 L94.3105744,235.00461 L94.3105744,236.531903 Z M82.6130437,235.784531 L84.0994979,235.784531 C84.5077406,235.784531 84.8195579,235.634305 85.0349497,235.333854 C85.2490893,235.033403 85.3567852,234.650328 85.3567852,234.188384 C85.3567852,233.721433 85.2503416,233.33335 85.0374543,233.025388 C84.824567,232.717426 84.5127497,232.563444 84.0994979,232.563444 L82.6130437,232.563444 L82.6130437,235.784531 Z M82.6130437,237.311824 L82.6130437,240.827102 L80.6958057,240.827102 L80.6958057,231.037403 L84.0994979,231.037403 C85.0775272,231.037403 85.8476783,231.326587 86.413708,231.903704 C86.9784855,232.48082 87.2602481,233.238208 87.2602481,234.174614 C87.2602481,235.114775 86.9772332,235.872162 86.4099512,236.448027 C85.8426692,237.02264 85.0725181,237.311824 84.0994979,237.311824 L82.6130437,237.311824 Z M76.9277006,234.546422 C76.9277006,233.845369 76.7974637,233.315824 76.5382421,232.959038 C76.2777682,232.601001 75.8995802,232.423234 75.4011735,232.423234 C74.8990099,232.423234 74.5233265,232.599749 74.2716186,232.955283 C74.0199106,233.310817 73.8946828,233.840362 73.8946828,234.546422 L73.8946828,237.311824 C73.8946828,238.02164 74.0224152,238.554941 74.2778799,238.909223 C74.5333447,239.264756 74.9102804,239.442523 75.4086872,239.442523 C75.9020848,239.442523 76.2777682,239.264756 76.5382421,238.909223 C76.7974637,238.554941 76.9277006,238.02164 76.9277006,237.311824 L76.9277006,234.546422 Z M78.8311635,237.311824 C78.8311635,238.458546 78.5193462,239.356144 77.896964,240.000862 C77.2733294,240.646832 76.4443212,240.969817 75.4086872,240.969817 C74.3718008,240.969817 73.5452972,240.646832 72.9266718,240.000862 C72.3067941,239.356144 71.9974813,238.458546 71.9974813,237.311824 L71.9974813,234.567704 C71.9974813,233.423486 72.3067941,232.52714 72.9266718,231.874911 C73.5452972,231.222681 74.3692963,230.895941 75.4011735,230.895941 C76.4330507,230.895941 77.2620589,231.222681 77.8894503,231.874911 C78.518094,232.52714 78.8311635,233.423486 78.8311635,234.567704 L78.8311635,237.311824 Z M64.8294409,240.827102 L66.7191287,240.827102 L66.7191287,239.091997 L64.8294409,239.091997 L64.8294409,240.827102 Z M57.5361726,236.49685 L58.0208043,231.037403 L62.8095161,231.037403 L62.8095161,232.604756 L59.5811429,232.604756 L59.3720125,234.910719 C59.5110153,234.77176 59.685082,234.656587 59.8942125,234.563948 C60.1020907,234.472561 60.3212393,234.421234 60.549154,234.412471 C61.3656394,234.399952 61.9930307,234.680373 62.4288236,235.256238 C62.8671209,235.832102 63.0850173,236.64332 63.0850173,237.68864 C63.0850173,238.620038 62.8370663,239.399959 62.3424164,240.028403 C61.8465142,240.655595 61.138977,240.969817 60.2198048,240.969817 C59.4396355,240.969817 58.7659098,240.719441 58.1986278,240.218689 C57.6313458,239.719189 57.3570968,239.041922 57.3746287,238.184384 L57.3884038,238.151835 L59.2442801,238.050433 C59.2442801,238.489843 59.3344441,238.831606 59.5135199,239.075723 C59.6925957,239.319839 59.928024,239.442523 60.2198048,239.442523 C60.5566676,239.442523 60.8008619,239.282283 60.9536398,238.961802 C61.1051655,238.64132 61.1815545,238.220689 61.1815545,237.699907 C61.1815545,237.12279 61.0963996,236.665854 60.9260897,236.329098 C60.7557799,235.993595 60.495306,235.824591 60.1459204,235.824591 C59.8816897,235.824591 59.6775683,235.8972 59.5335564,236.039914 C59.3907966,236.182629 59.2918667,236.374166 59.2380187,236.612023 L57.5361726,236.49685 Z M162.776381,74.8328617 C162.776381,74.4510383 162.677451,74.1505872 162.479591,73.9277526 C162.282983,73.7061699 161.93485,73.4883429 161.437695,73.2730195 C160.419593,72.9174857 159.655703,72.5156323 159.147278,72.0662075 C158.637601,71.6142789 158.383389,70.9845835 158.383389,70.1721135 C158.383389,69.3696586 158.680179,68.7174293 159.271254,68.2129218 C159.863582,67.7084143 160.618705,67.4555346 161.537878,67.4555346 C162.470825,67.4555346 163.228453,67.7384594 163.812015,68.3005534 C164.394324,68.8626474 164.677339,69.5724632 164.659807,70.4287489 L164.646032,70.4675571 L162.788904,70.4675571 C162.788904,70.0206361 162.677451,69.657591 162.453293,69.3796737 C162.229135,69.1017564 161.912309,68.9615459 161.505318,68.9615459 C161.123374,68.9615459 160.826584,69.0779707 160.613696,69.3095684 C160.400809,69.5399143 160.294365,69.8303504 160.294365,70.1796248 C160.294365,70.5026098 160.412079,70.7680083 160.650012,70.9770722 C160.887945,71.1848842 161.299945,71.416482 161.888515,71.6718654 C162.816454,71.9860872 163.513973,72.384185 163.983577,72.8649068 C164.451929,73.3468805 164.686105,73.9991098 164.686105,74.819091 C164.686105,75.6666135 164.40309,76.3301098 163.838313,76.8095797 C163.273535,77.2890496 162.523421,77.5294105 161.585464,77.5294105 C160.652517,77.5294105 159.844797,77.2565008 159.159801,76.7119331 C158.47731,76.1673654 158.145456,75.3861925 158.167997,74.3684143 L158.181772,74.3283541 L160.045162,74.3283541 C160.045162,74.933012 160.172894,75.3674143 160.428359,75.6315609 C160.683824,75.8969594 161.069526,76.0296586 161.585464,76.0296586 C161.988698,76.0296586 162.287992,75.921997 162.483348,75.7066737 C162.678703,75.4913504 162.776381,75.2009143 162.776381,74.8328617 L162.776381,74.8328617 Z M151.946679,72.3441248 L153.433133,72.3441248 C153.840123,72.3441248 154.151941,72.1938992 154.367333,71.8934481 C154.582724,71.592997 154.69042,71.2099218 154.69042,70.7479782 C154.69042,70.2810271 154.583977,69.8929444 154.371089,69.584982 C154.158202,69.2770195 153.845133,69.1230383 153.433133,69.1230383 L151.946679,69.1230383 L151.946679,72.3441248 Z M151.946679,73.871418 L151.946679,77.3879481 L150.029441,77.3879481 L150.029441,67.596997 L153.433133,67.596997 C154.40991,67.596997 155.181313,67.8861812 155.746091,68.4645496 C156.312121,69.0416662 156.593883,69.7978015 156.593883,70.7342075 C156.593883,71.6743692 156.310868,72.4330083 155.742334,73.0088729 C155.176304,73.5834857 154.406153,73.871418 153.433133,73.871418 L151.946679,73.871418 Z M145.918212,77.3879481 L147.821674,77.3879481 L147.821674,67.5982489 L145.918212,67.5982489 L145.918212,77.3879481 Z M143.731734,77.3879481 L141.82201,77.3879481 L141.82201,73.3331098 L138.781478,73.3331098 L138.781478,77.3879481 L136.86424,77.3879481 L136.86424,67.596997 L138.781478,67.596997 L138.781478,71.8070684 L141.82201,71.8070684 L141.82201,67.596997 L143.731734,67.596997 L143.731734,77.3879481 Z M133.151235,74.8328617 C133.151235,74.4510383 133.052305,74.1505872 132.855698,73.9277526 C132.657838,73.7061699 132.310957,73.4883429 131.81255,73.2730195 C130.794448,72.9174857 130.03181,72.5156323 129.522133,72.0662075 C129.013708,71.6142789 128.759496,70.9845835 128.759496,70.1721135 C128.759496,69.3696586 129.055033,68.7174293 129.647361,68.2129218 C130.238436,67.7084143 130.994812,67.4555346 131.913984,67.4555346 C132.845679,67.4555346 133.60456,67.7384594 134.186869,68.3005534 C134.769179,68.8626474 135.052194,69.5724632 135.034662,70.4287489 L135.020887,70.4675571 L133.16501,70.4675571 C133.16501,70.0206361 133.052305,69.657591 132.828147,69.3796737 C132.60399,69.1017564 132.287163,68.9615459 131.880173,68.9615459 C131.49948,68.9615459 131.201438,69.0779707 130.988551,69.3095684 C130.775663,69.5399143 130.66922,69.8303504 130.66922,70.1796248 C130.66922,70.5026098 130.788186,70.7680083 131.026119,70.9770722 C131.264052,71.1848842 131.676052,71.416482 132.26337,71.6718654 C133.191308,71.9860872 133.890079,72.384185 134.358431,72.8649068 C134.826783,73.3468805 135.060959,73.9991098 135.060959,74.819091 C135.060959,75.6666135 134.779197,76.3301098 134.214419,76.8095797 C133.64839,77.2890496 132.898275,77.5294105 131.960319,77.5294105 C131.028624,77.5294105 130.219652,77.2565008 129.535908,76.7119331 C128.852164,76.1673654 128.521563,75.3861925 128.544104,74.3684143 L128.556626,74.3283541 L130.420016,74.3283541 C130.420016,74.933012 130.547749,75.3674143 130.803214,75.6315609 C131.059931,75.8969594 131.445632,76.0296586 131.960319,76.0296586 C132.363552,76.0296586 132.664099,75.921997 132.858202,75.7066737 C133.053558,75.4913504 133.151235,75.2009143 133.151235,74.8328617 L133.151235,74.8328617 Z M122.280208,71.9685609 L123.558784,71.9685609 C123.948243,71.9685609 124.245033,71.8496323 124.446649,71.6117752 C124.648266,71.373918 124.748448,71.0359105 124.748448,70.5965008 C124.748448,70.1483278 124.648266,69.7915421 124.446649,69.5261436 C124.245033,69.2632489 123.950747,69.1305496 123.565046,69.1305496 L122.280208,69.1305496 L122.280208,71.9685609 Z M122.280208,73.4946023 L122.280208,77.3879481 L120.370484,77.3879481 L120.370484,67.6045083 L123.565046,67.6045083 C124.5293,67.6045083 125.285676,67.8586398 125.835426,68.3681549 C126.385176,68.876418 126.659425,69.5824782 126.659425,70.4888391 C126.659425,70.999606 126.545468,71.4402677 126.316301,71.8108241 C126.087134,72.1801286 125.754028,72.4743203 125.314478,72.6946511 C125.815389,72.8636549 126.17855,73.1465797 126.400203,73.5421737 C126.623109,73.9365158 126.733309,74.4285045 126.733309,75.0206436 L126.733309,75.7129331 C126.733309,75.9820872 126.764616,76.2700195 126.82723,76.5767301 C126.889844,76.8834406 127.000045,77.1075271 127.156579,77.2452338 L127.156579,77.3879481 L125.179232,77.3879481 C125.022697,77.2452338 124.923767,77.0111323 124.883695,76.6881474 C124.843622,76.3651624 124.823585,76.035918 124.823585,75.7004143 L124.823585,75.0344143 C124.823585,74.5449293 124.723403,74.1681135 124.524291,73.8989594 C124.323926,73.6298053 124.038407,73.4946023 123.66648,73.4946023 L122.280208,73.4946023 Z M118.184006,73.091497 L114.894271,73.091497 L114.894271,75.8619068 L118.762559,75.8619068 L118.762559,77.3879481 L112.978286,77.3879481 L112.978286,67.596997 L118.748784,67.596997 L118.748784,69.1230383 L114.894271,69.1230383 L114.894271,71.5642038 L118.184006,71.5642038 L118.184006,73.091497 Z M110.86444,77.3879481 L108.960977,77.3879481 L105.968032,71.1285496 L105.927959,71.1410684 L105.927959,77.3879481 L104.010721,77.3879481 L104.010721,67.596997 L105.927959,67.596997 L108.920904,73.851388 L108.960977,73.8376173 L108.960977,67.596997 L110.86444,67.596997 L110.86444,77.3879481 Z M102.469167,69.1230383 L100.262653,69.1230383 L100.262653,77.3879481 L98.3529284,77.3879481 L98.3529284,69.1230383 L96.1601893,69.1230383 L96.1601893,67.596997 L102.469167,67.596997 L102.469167,69.1230383 Z M90.1868223,71.9685609 L91.464146,71.9685609 C91.8548568,71.9685609 92.1503945,71.8496323 92.3520113,71.6117752 C92.5536281,71.373918 92.6550626,71.0359105 92.6550626,70.5965008 C92.6550626,70.1483278 92.5536281,69.7915421 92.3520113,69.5261436 C92.1503945,69.2632489 91.8573614,69.1305496 91.4716597,69.1305496 L90.1868223,69.1305496 L90.1868223,71.9685609 Z M90.1868223,73.4946023 L90.1868223,77.3879481 L88.2758457,77.3879481 L88.2758457,67.6045083 L91.4716597,67.6045083 C92.4359139,67.6045083 93.19229,67.8586398 93.7407878,68.3681549 C94.290538,68.876418 94.5647869,69.5824782 94.5647869,70.4888391 C94.5647869,70.999606 94.4508296,71.4402677 94.2216626,71.8108241 C93.993748,72.1801286 93.6593897,72.4743203 93.2198401,72.6946511 C93.7220036,72.8636549 94.0851643,73.1465797 94.3055653,73.5421737 C94.5284708,73.9365158 94.6399236,74.4285045 94.6399236,75.0206436 L94.6399236,75.7129331 C94.6399236,75.9820872 94.6699782,76.2700195 94.7338444,76.5767301 C94.7964583,76.8834406 94.9054065,77.1075271 95.0631936,77.2452338 L95.0631936,77.3879481 L93.0858463,77.3879481 C92.9280593,77.2452338 92.8303816,77.0111323 92.7890564,76.6881474 C92.7489835,76.3651624 92.728947,76.035918 92.728947,75.7004143 L92.728947,75.0344143 C92.728947,74.5449293 92.630017,74.1681135 92.4296525,73.8989594 C92.2305403,73.6298053 91.9450209,73.4946023 91.571842,73.4946023 L90.1868223,73.4946023 Z M82.2348557,73.7700158 L84.0381363,73.7700158 L83.1565324,70.3073165 L83.1164595,70.3073165 L82.2348557,73.7700158 Z M84.4275948,75.297309 L81.8453971,75.297309 L81.3206926,77.3879481 L79.3896796,77.3879481 L82.1471962,67.596997 L84.1383185,67.596997 L86.8895738,77.3879481 L84.959813,77.3879481 L84.4275948,75.297309 Z M74.1501476,72.3441248 L75.6366018,72.3441248 C76.0448445,72.3441248 76.3566618,72.1938992 76.5720536,71.8934481 C76.7874455,71.592997 76.8951414,71.2099218 76.8951414,70.7479782 C76.8951414,70.2810271 76.7886977,69.8929444 76.5745582,69.584982 C76.3616709,69.2770195 76.0498536,69.1230383 75.6366018,69.1230383 L74.1501476,69.1230383 L74.1501476,72.3441248 Z M74.1501476,73.871418 L74.1501476,77.3879481 L72.2329096,77.3879481 L72.2329096,67.596997 L75.6366018,67.596997 C76.6146311,67.596997 77.3860345,67.8861812 77.9508119,68.4645496 C78.5155894,69.0416662 78.7986043,69.7978015 78.7986043,70.7342075 C78.7986043,71.6743692 78.5143371,72.4330083 77.9470551,73.0088729 C77.3797731,73.5834857 76.609622,73.871418 75.6366018,73.871418 L74.1501476,73.871418 Z M64.8294409,77.3879481 L66.7191287,77.3879481 L66.7191287,75.6528429 L64.8294409,75.6528429 L64.8294409,77.3879481 Z M63.1388653,77.3879481 L57.3545923,77.3879481 L57.3545923,76.0897489 L60.0244494,72.7071699 C60.3788441,72.2051662 60.6343089,71.7682602 60.7883391,71.3952 C60.9436216,71.0221398 61.0200106,70.6816286 61.0200106,70.3774218 C61.0200106,69.959294 60.9398648,69.6225383 60.7783209,69.3671549 C60.616777,69.1105195 60.3838533,68.9828278 60.0782974,68.9828278 C59.7652278,68.9828278 59.5235381,69.1380609 59.3557328,69.4485271 C59.1866753,69.7589932 59.1040249,70.1658541 59.1040249,70.6716135 L57.240635,70.6716135 L57.2268599,70.6365609 C57.209328,69.7489782 57.4597836,68.9978504 57.9807314,68.3806737 C58.5004268,67.7647489 59.2004503,67.4555346 60.0782974,67.4555346 C60.9761808,67.4555346 61.6749521,67.7159256 62.1771156,68.2354556 C62.6792792,68.7562376 62.9309871,69.4648015 62.9309871,70.3598955 C62.9309871,70.9620496 62.790732,71.5166323 62.5102216,72.0286511 C62.2297113,72.539418 61.7626116,73.2079218 61.1076701,74.0329105 L59.8303463,75.8619068 L63.1388653,75.8619068 L63.1388653,77.3879481 Z M147.690185,188.304489 L144.40045,188.304489 L144.40045,191.074899 L148.268738,191.074899 L148.268738,192.600941 L142.484465,192.600941 L142.484465,182.811241 L148.254963,182.811241 L148.254963,184.336031 L144.40045,184.336031 L144.40045,186.778448 L147.690185,186.778448 L147.690185,188.304489 Z M135.965104,187.181553 L137.242428,187.181553 C137.633139,187.181553 137.928677,187.062625 138.130293,186.82602 C138.333162,186.586911 138.433345,186.248903 138.433345,185.809493 C138.433345,185.36132 138.333162,185.005786 138.130293,184.740388 C137.928677,184.476241 137.635643,184.343542 137.249942,184.343542 L135.965104,184.343542 L135.965104,187.181553 Z M135.965104,188.708847 L135.965104,192.600941 L134.05538,192.600941 L134.05538,182.818753 L137.249942,182.818753 C138.214196,182.818753 138.970572,183.072884 139.51907,183.581147 C140.06882,184.089411 140.344321,184.796723 140.344321,185.701832 C140.344321,186.212598 140.229112,186.65326 140.001197,187.023817 C139.77203,187.393121 139.437672,187.687313 138.998122,187.907644 C139.500286,188.077899 139.863446,188.359572 140.0851,188.755166 C140.306753,189.149508 140.418206,189.642749 140.418206,190.233636 L140.418206,190.925926 C140.418206,191.19508 140.449513,191.483012 140.512127,191.790974 C140.57474,192.097685 140.684941,192.32052 140.841476,192.459478 L140.841476,192.600941 L138.864128,192.600941 C138.706341,192.458226 138.608664,192.224125 138.568591,191.90114 C138.527266,191.579407 138.507229,191.248911 138.507229,190.913407 L138.507229,190.247407 C138.507229,189.757922 138.408299,189.381106 138.207935,189.111952 C138.008822,188.842798 137.723303,188.708847 137.350124,188.708847 L135.965104,188.708847 Z M132.056744,182.811241 L132.056744,189.473745 C132.056744,190.519065 131.751188,191.324023 131.137572,191.892377 C130.52646,192.459478 129.725002,192.742403 128.73445,192.742403 C127.742646,192.742403 126.941188,192.458226 126.330076,191.888621 C125.71646,191.319016 125.410904,190.514057 125.410904,189.473745 L125.410904,182.811241 L127.32188,182.811241 L127.32188,189.473745 C127.32188,190.070892 127.444603,190.510302 127.691302,190.791974 C127.938001,191.074899 128.286134,191.216362 128.73445,191.216362 C129.195288,191.216362 129.547179,191.081159 129.790121,190.812005 C130.03181,190.54285 130.153281,190.097181 130.153281,189.473745 L130.153281,182.811241 L132.056744,182.811241 Z M123.977045,184.336031 L121.771783,184.336031 L121.771783,192.600941 L119.860807,192.600941 L119.860807,184.336031 L117.668067,184.336031 L117.668067,182.811241 L123.977045,182.811241 L123.977045,184.336031 Z M116.236714,189.446204 L116.25675,189.488768 C116.266768,190.564132 116.010051,191.374098 115.490356,191.92117 C114.969408,192.469493 114.203014,192.742403 113.189921,192.742403 C112.176828,192.742403 111.366604,192.431937 110.761753,191.811005 C110.156903,191.190072 109.853851,190.310001 109.853851,189.172042 L109.853851,186.246399 C109.853851,185.113448 110.145632,184.232125 110.731699,183.607437 C111.316512,182.981497 112.100439,182.668527 113.082225,182.668527 C114.122868,182.668527 114.908046,182.947696 115.440265,183.502279 C115.971231,184.059365 116.245479,184.88185 116.264264,185.970986 L116.242975,186.011046 L114.400874,186.011046 C114.427171,185.368832 114.339512,184.905636 114.137895,184.621459 C113.936278,184.337283 113.584388,184.19582 113.082225,184.19582 C112.651441,184.19582 112.322092,184.364824 112.092925,184.700328 C111.86501,185.037083 111.751053,185.546598 111.751053,186.228873 L111.751053,189.169538 C111.751053,189.861828 111.872524,190.375098 112.11797,190.710602 C112.360912,191.047358 112.719064,191.216362 113.189921,191.216362 C113.652011,191.216362 113.973847,191.082411 114.154175,190.81576 C114.337007,190.54911 114.415901,190.092174 114.39336,189.446204 L116.236714,189.446204 Z M107.90155,188.304489 L104.613067,188.304489 L104.613067,191.074899 L108.480102,191.074899 L108.480102,192.600941 L102.695829,192.600941 L102.695829,182.811241 L108.466327,182.811241 L108.466327,184.336031 L104.613067,184.336031 L104.613067,186.778448 L107.90155,186.778448 L107.90155,188.304489 Z M101.155527,184.336031 L98.9490129,184.336031 L98.9490129,192.600941 L97.0392886,192.600941 L97.0392886,184.336031 L94.8465495,184.336031 L94.8465495,182.811241 L101.155527,182.811241 L101.155527,184.336031 Z M91.2800611,192.600941 L93.183524,192.600941 L93.183524,182.811241 L91.2800611,182.811241 L91.2800611,192.600941 Z M89.0798083,192.600941 L87.1688318,192.600941 L87.1688318,188.547354 L84.1283003,188.547354 L84.1283003,192.600941 L82.2123147,192.600941 L82.2123147,182.811241 L84.1283003,182.811241 L84.1283003,187.020061 L87.1688318,187.020061 L87.1688318,182.811241 L89.0798083,182.811241 L89.0798083,192.600941 Z M80.4152954,189.446204 L80.4353319,189.488768 C80.4440978,190.564132 80.1886331,191.374098 79.6676853,191.92117 C79.1479899,192.469493 78.3815956,192.742403 77.3685026,192.742403 C76.3541572,192.742403 75.5451855,192.431937 74.9403351,191.811005 C74.3342325,191.190072 74.0311811,190.310001 74.0311811,189.172042 L74.0311811,186.246399 C74.0311811,185.113448 74.3242142,184.232125 74.9102804,183.607437 C75.4938421,182.981497 76.2777682,182.668527 77.2608066,182.668527 C78.3001975,182.668527 79.0866283,182.947696 79.6175942,183.502279 C80.1485602,184.059365 80.4240614,184.88185 80.4415933,185.970986 L80.4215568,186.011046 L78.5782033,186.011046 C78.6057534,185.368832 78.518094,184.905636 78.3164772,184.621459 C78.1148604,184.337283 77.7617179,184.19582 77.2608066,184.19582 C76.8300229,184.19582 76.5006738,184.364824 76.2715068,184.700328 C76.0423399,185.037083 75.9283826,185.546598 75.9283826,186.228873 L75.9283826,189.169538 C75.9283826,189.861828 76.0511059,190.375098 76.2953001,190.710602 C76.5394944,191.047358 76.897646,191.216362 77.3685026,191.216362 C77.8293409,191.216362 78.1511764,191.082411 78.3327568,190.81576 C78.5155894,190.54911 78.5944829,190.092174 78.5719419,189.446204 L80.4152954,189.446204 Z M67.8386654,187.181553 L69.1159892,187.181553 C69.5067,187.181553 69.8022376,187.062625 70.0038544,186.82602 C70.2054712,186.586911 70.3069058,186.248903 70.3069058,185.809493 C70.3069058,185.36132 70.2054712,185.005786 70.0038544,184.740388 C69.8022376,184.476241 69.5092045,184.343542 69.1235029,184.343542 L67.8386654,184.343542 L67.8386654,187.181553 Z M67.8386654,188.708847 L67.8386654,192.600941 L65.9276889,192.600941 L65.9276889,182.818753 L69.1235029,182.818753 C70.0877571,182.818753 70.8441331,183.072884 71.392631,183.581147 C71.9423811,184.089411 72.21663,184.796723 72.21663,185.701832 C72.21663,186.212598 72.1026727,186.65326 71.8735058,187.023817 C71.6455912,187.393121 71.3112329,187.687313 70.8716832,187.907644 C71.3738468,188.077899 71.7357552,188.359572 71.9574084,188.755166 C72.180314,189.149508 72.2905144,189.642749 72.2905144,190.233636 L72.2905144,190.925926 C72.2905144,191.19508 72.3218214,191.483012 72.3856876,191.790974 C72.4483015,192.097685 72.5572497,192.32052 72.7150367,192.459478 L72.7150367,192.600941 L70.7376895,192.600941 C70.5799024,192.458226 70.4809724,192.224125 70.4408995,191.90114 C70.4008266,191.579407 70.3807902,191.248911 70.3807902,190.913407 L70.3807902,190.247407 C70.3807902,189.757922 70.2806079,189.381106 70.0814957,189.111952 C69.8811312,188.842798 69.5956117,188.708847 69.2236851,188.708847 L67.8386654,188.708847 Z M59.8866988,188.983008 L61.6887271,188.983008 L60.8083756,185.520309 L60.7683027,185.520309 L59.8866988,188.983008 Z M62.0794379,190.510302 L59.4972403,190.510302 L58.9725357,192.600941 L57.0415227,192.600941 L59.7990393,182.811241 L61.7901617,182.811241 L64.5414169,192.600941 L62.6104039,192.600941 L62.0794379,190.510302 Z M158.041517,169.552583 C158.041517,169.73661 158.080337,169.925644 158.159231,170.118433 C158.238125,170.312474 158.354586,170.52279 158.512373,170.753136 L158.909346,170.456441 C159.133503,170.294948 159.283777,170.1297 159.360166,169.960696 C159.436555,169.791692 159.474123,169.606414 159.474123,169.404862 C159.474123,169.179523 159.407752,168.980474 159.276263,168.806463 C159.143522,168.633704 158.97196,168.547324 158.761577,168.547324 C158.528653,168.547324 158.349577,168.642467 158.226854,168.835256 C158.102878,169.025542 158.041517,169.264651 158.041517,169.552583 L158.041517,169.552583 Z M158.546185,175.567865 C158.742793,175.567865 158.940653,175.540324 159.13726,175.486493 C159.33512,175.432662 159.525467,175.350038 159.709551,175.238621 L157.967632,172.925147 L157.920046,172.963956 C157.763511,173.179279 157.657067,173.389595 157.600715,173.593651 C157.544362,173.797708 157.516812,174.006771 157.516812,174.222095 C157.516812,174.612681 157.61449,174.934414 157.809845,175.187294 C158.003948,175.440174 158.249395,175.567865 158.546185,175.567865 L158.546185,175.567865 Z M155.593313,174.343527 C155.593313,173.813982 155.722298,173.358298 155.980267,172.975223 C156.236984,172.592147 156.631452,172.191546 157.159913,171.77467 C156.881907,171.352786 156.676534,170.972215 156.541288,170.627948 C156.407294,170.286185 156.339671,169.935659 156.339671,169.575117 C156.339671,168.810219 156.560072,168.19179 157.002126,167.723587 C157.44418,167.255384 158.032751,167.020031 158.767838,167.020031 C159.403996,167.020031 159.926196,167.241614 160.331934,167.683527 C160.737672,168.124189 160.940541,168.659993 160.940541,169.287185 C160.940541,169.722839 160.842863,170.119685 160.647508,170.480226 C160.452152,170.840768 160.189174,171.153738 159.85732,171.419136 L159.312579,171.856042 L160.859143,173.900362 L160.900468,173.894102 C161.020687,173.660001 161.11586,173.395854 161.185987,173.102914 C161.254863,172.808723 161.289927,172.498256 161.289927,172.172768 L162.688721,172.172768 C162.688721,172.791196 162.623603,173.355794 162.490861,173.869065 C162.35812,174.382335 162.151494,174.839271 161.868479,175.238621 L163.173353,176.952444 L161.008164,176.952444 L160.57738,176.387847 C160.240517,176.624452 159.898645,176.802219 159.550512,176.918644 C159.203631,177.035068 158.830452,177.093907 158.430975,177.093907 C157.565651,177.093907 156.876898,176.839775 156.363464,176.334016 C155.85003,175.828256 155.593313,175.163508 155.593313,174.343527 L155.593313,174.343527 Z M147.556191,171.357794 L147.597517,171.357794 L149.23174,167.162745 L151.309269,167.162745 L148.51168,173.469715 L148.51168,176.952444 L146.601955,176.952444 L146.601955,173.348283 L143.8507,167.162745 L145.942005,167.162745 L147.556191,171.357794 Z M142.476951,175.500264 C142.21272,175.922147 141.815748,176.292704 141.287287,176.613185 C140.757573,176.932414 140.086352,177.093907 139.276128,177.093907 C138.226719,177.093907 137.383936,176.785944 136.750283,176.172523 C136.115378,175.559102 135.798551,174.684038 135.798551,173.549835 L135.798551,170.564102 C135.798551,169.439914 136.104107,168.568606 136.716471,167.950177 C137.328835,167.330497 138.139059,167.020031 139.147143,167.020031 C140.232868,167.020031 141.046849,167.286681 141.589086,167.817478 C142.131322,168.348275 142.414337,169.106914 142.436878,170.097151 L142.423103,170.138463 L140.627336,170.138463 C140.613561,169.585132 140.49209,169.182027 140.261671,168.927895 C140.029999,168.675016 139.676857,168.547324 139.200991,168.547324 C138.735144,168.547324 138.369479,168.712572 138.105248,169.043068 C137.841017,169.371061 137.708276,169.874317 137.708276,170.546576 L137.708276,173.547332 C137.708276,174.234614 137.842269,174.742877 138.109005,175.072121 C138.37574,175.402617 138.763946,175.567865 139.276128,175.567865 C139.656821,175.567865 139.938583,175.516538 140.118911,175.412632 C140.301744,175.308726 140.450765,175.157249 140.567227,174.954444 L140.567227,173.200561 L139.276128,173.200561 L139.276128,171.856042 L142.476951,171.856042 L142.476951,175.500264 Z M132.225802,170.670512 C132.225802,169.970711 132.095565,169.441166 131.835091,169.08438 C131.575869,168.726343 131.196429,168.547324 130.698022,168.547324 C130.197111,168.547324 129.820175,168.725091 129.568467,169.080625 C129.316759,169.434907 129.191532,169.965704 129.191532,170.670512 L129.191532,173.435914 C129.191532,174.146982 129.319264,174.680283 129.574729,175.034565 C129.831446,175.390098 130.207129,175.567865 130.705536,175.567865 C131.198934,175.567865 131.575869,175.390098 131.835091,175.034565 C132.095565,174.680283 132.225802,174.146982 132.225802,173.435914 L132.225802,170.670512 Z M134.129265,173.435914 C134.129265,174.582636 133.817447,175.480234 133.193813,176.126204 C132.57143,176.770922 131.74117,177.093907 130.705536,177.093907 C129.669902,177.093907 128.842146,176.770922 128.22352,176.126204 C127.604895,175.480234 127.295582,174.582636 127.295582,173.435914 L127.295582,170.693046 C127.295582,169.548828 127.604895,168.65123 128.22352,168.000253 C128.842146,167.346771 129.667397,167.020031 130.698022,167.020031 C131.729899,167.020031 132.558908,167.346771 133.187551,168.000253 C133.814943,168.65123 134.129265,169.548828 134.129265,170.693046 L134.129265,173.435914 Z M122.832463,175.426403 L126.410222,175.426403 L126.410222,176.952444 L120.915225,176.952444 L120.915225,167.162745 L122.832463,167.162745 L122.832463,175.426403 Z M117.14712,170.670512 C117.14712,169.970711 117.016883,169.441166 116.757661,169.08438 C116.497187,168.726343 116.117747,168.547324 115.620593,168.547324 C115.118429,168.547324 114.741493,168.725091 114.491038,169.080625 C114.23933,169.434907 114.114102,169.965704 114.114102,170.670512 L114.114102,173.435914 C114.114102,174.146982 114.241834,174.680283 114.497299,175.034565 C114.752764,175.390098 115.1297,175.567865 115.626854,175.567865 C116.120252,175.567865 116.497187,175.390098 116.757661,175.034565 C117.016883,174.680283 117.14712,174.146982 117.14712,173.435914 L117.14712,170.670512 Z M119.050583,173.435914 C119.050583,174.582636 118.738765,175.480234 118.116383,176.126204 C117.492749,176.770922 116.662488,177.093907 115.626854,177.093907 C114.59122,177.093907 113.763464,176.770922 113.144839,176.126204 C112.526213,175.480234 112.2169,174.582636 112.2169,173.435914 L112.2169,170.693046 C112.2169,169.548828 112.526213,168.65123 113.144839,168.000253 C113.763464,167.346771 114.588715,167.020031 115.620593,167.020031 C116.65247,167.020031 117.481478,167.346771 118.108869,168.000253 C118.737513,168.65123 119.050583,169.548828 119.050583,170.693046 L119.050583,173.435914 Z M110.339735,176.952444 L108.436273,176.952444 L105.442075,170.693046 L105.402002,170.705565 L105.402002,176.952444 L103.484765,176.952444 L103.484765,167.162745 L105.402002,167.162745 L108.394947,173.415884 L108.436273,173.402114 L108.436273,167.162745 L110.339735,167.162745 L110.339735,176.952444 Z M101.385946,176.952444 L99.4749697,176.952444 L99.4749697,172.898858 L96.4356905,172.898858 L96.4356905,176.952444 L94.5184526,176.952444 L94.5184526,167.162745 L96.4356905,167.162745 L96.4356905,171.371565 L99.4749697,171.371565 L99.4749697,167.162745 L101.385946,167.162745 L101.385946,176.952444 Z M92.7214334,173.797708 L92.7414698,173.840271 C92.751488,174.915636 92.4960233,175.725602 91.9750755,176.272674 C91.4553801,176.820997 90.6877336,177.093907 89.6746405,177.093907 C88.6615474,177.093907 87.8525757,176.783441 87.246473,176.162508 C86.6416227,175.541576 86.3385713,174.661505 86.3385713,173.523546 L86.3385713,170.597903 C86.3385713,169.464952 86.6303522,168.583629 87.2164184,167.958941 C87.8012323,167.333001 88.5851584,167.020031 89.5669446,167.020031 C90.6075877,167.020031 91.3927662,167.2992 91.9249844,167.853783 C92.4559504,168.410869 92.7314516,169.233354 92.7489835,170.322489 L92.728947,170.36255 L90.8855935,170.36255 C90.9118914,169.720335 90.8254842,169.25714 90.6226151,168.972963 C90.4209983,168.688786 90.0691081,168.547324 89.5669446,168.547324 C89.1361609,168.547324 88.8068117,168.716328 88.5788971,169.051832 C88.3497301,169.388587 88.2357728,169.898102 88.2357728,170.580377 L88.2357728,173.521042 C88.2357728,174.213332 88.3572438,174.726602 88.6026903,175.062106 C88.8468846,175.398862 89.2037839,175.567865 89.6746405,175.567865 C90.1367311,175.567865 90.4585666,175.433914 90.640147,175.167264 C90.8217273,174.900614 90.9018731,174.443677 90.8793321,173.797708 L92.7214334,173.797708 Z M84.3862696,172.655993 L81.0977871,172.655993 L81.0977871,175.426403 L84.9648222,175.426403 L84.9648222,176.952444 L79.1805491,176.952444 L79.1805491,167.162745 L84.9522994,167.162745 L84.9522994,168.687535 L81.0977871,168.687535 L81.0977871,171.129952 L84.3862696,171.129952 L84.3862696,172.655993 Z M77.6389946,168.687535 L75.4337327,168.687535 L75.4337327,176.952444 L73.5227562,176.952444 L73.5227562,168.687535 L71.330017,168.687535 L71.330017,167.162745 L77.6389946,167.162745 L77.6389946,168.687535 Z M64.8294409,176.952444 L66.7191287,176.952444 L66.7191287,175.217339 L64.8294409,175.217339 L64.8294409,176.952444 Z M58.8886331,173.280681 L60.5028197,173.280681 L60.5028197,169.898102 L60.4627468,169.891843 L60.3613122,170.074617 L58.8886331,173.280681 Z M62.4062826,173.280681 L63.2540749,173.280681 L63.2540749,174.807974 L62.4062826,174.807974 L62.4062826,176.952444 L60.5028197,176.952444 L60.5028197,174.807974 L57.2531577,174.807974 L57.1529755,173.617437 L60.495306,167.162745 L62.4062826,167.162745 L62.4062826,173.280681 Z M153.890215,22.3866135 L153.056197,22.3866135 L153.056197,26.4552226 L151.138959,26.4552226 L151.138959,16.6655233 L153.056197,16.6655233 L153.056197,20.6465008 L153.674823,20.6465008 L155.584547,16.6655233 L157.932569,16.6655233 L155.262712,21.1372376 L158.154222,26.4552226 L155.827489,26.4552226 L153.890215,22.3866135 Z M144.634626,21.0358353 L145.91195,21.0358353 C146.302661,21.0358353 146.598199,20.9169068 146.799815,20.6803015 C147.001432,20.4411925 147.102867,20.103185 147.102867,19.6637752 C147.102867,19.2156023 147.001432,18.8600684 146.799815,18.5946699 C146.598199,18.3305233 146.305166,18.1978241 145.919464,18.1978241 L144.634626,18.1978241 L144.634626,21.0358353 Z M144.634626,22.5631286 L144.634626,26.4552226 L142.72365,26.4552226 L142.72365,16.6730346 L145.919464,16.6730346 C146.883718,16.6730346 147.640094,16.9271662 148.188592,17.4354293 C148.738342,17.9436925 149.012591,18.6510045 149.012591,19.5561135 C149.012591,20.0681323 148.898634,20.5075421 148.669467,20.8780985 C148.441552,21.247403 148.107194,21.5415947 147.667644,21.7619256 C148.169808,21.9321812 148.532968,22.215106 148.753369,22.6094481 C148.976275,23.0037902 149.087728,23.4970308 149.087728,24.0891699 L149.087728,24.7802075 C149.087728,25.0493617 149.117782,25.3385459 149.181649,25.6452564 C149.244262,25.9519669 149.353211,26.1760534 149.510998,26.3137602 L149.510998,26.4552226 L147.53365,26.4552226 C147.375863,26.3125083 147.278186,26.0784068 147.23686,25.7566737 C147.196788,25.4336887 147.176751,25.1031925 147.176751,24.7689406 L147.176751,24.1016887 C147.176751,23.6134556 147.077821,23.235388 146.877457,22.9662338 C146.678344,22.6970797 146.392825,22.5631286 146.019646,22.5631286 L144.634626,22.5631286 Z M138.949283,20.1745421 C138.949283,19.4734895 138.819046,18.9439444 138.559825,18.5871586 C138.299351,18.2291211 137.921163,18.0501023 137.422756,18.0501023 C136.920593,18.0501023 136.543657,18.2278692 136.293201,18.583403 C136.041493,18.937685 135.916266,19.468482 135.916266,20.1745421 L135.916266,22.9399444 C135.916266,23.6497602 136.043998,24.1830609 136.299463,24.5373429 C136.554927,24.8928767 136.931863,25.0706436 137.429018,25.0706436 C137.922415,25.0706436 138.299351,24.8928767 138.559825,24.5373429 C138.819046,24.1830609 138.949283,23.6497602 138.949283,22.9399444 L138.949283,20.1745421 Z M140.852746,22.9399444 C140.852746,24.0866662 140.540929,24.983012 139.918547,25.628982 C139.294912,26.2749519 138.465904,26.596685 137.429018,26.596685 C136.393384,26.596685 135.56688,26.2749519 134.947002,25.628982 C134.328377,24.983012 134.019064,24.0866662 134.019064,22.9399444 L134.019064,20.1958241 C134.019064,19.051606 134.328377,18.1540083 134.947002,17.5030308 C135.56688,16.8495496 136.390879,16.5240609 137.422756,16.5240609 C138.454633,16.5240609 139.283642,16.8495496 139.911033,17.5030308 C140.539677,18.1540083 140.852746,19.051606 140.852746,20.1958241 L140.852746,22.9399444 Z M129.90533,22.912403 L129.945403,22.912403 L131.001074,16.6655233 L132.858202,16.6655233 L130.967262,26.4552226 L129.18527,26.4552226 L127.806512,20.4574669 L127.766439,20.4574669 L126.400203,26.4552226 L124.624473,26.4552226 L122.734785,16.6655233 L124.590661,16.6655233 L125.647584,22.912403 L125.687657,22.912403 L127.100227,16.6655233 L128.472724,16.6655233 L129.90533,22.912403 Z M116.998099,18.1915647 L116.998099,24.9291812 L117.93355,24.9291812 C118.467021,24.9291812 118.879021,24.6975835 119.167045,24.2331361 C119.457573,23.7686887 119.601585,23.1527639 119.601585,22.3841098 L119.601585,20.7228654 C119.601585,19.9604707 119.457573,19.3470496 119.167045,18.885106 C118.879021,18.4231624 118.467021,18.1915647 117.93355,18.1915647 L116.998099,18.1915647 Z M115.082113,26.4552226 L115.082113,16.6655233 L118.041246,16.6655233 C119.045574,16.6655233 119.874582,17.0460947 120.529523,17.8047338 C121.184465,18.5646248 121.511309,19.5435947 121.511309,20.7403917 L121.511309,22.3866135 C121.511309,23.5846624 121.184465,24.5623805 120.529523,25.3185158 C119.874582,26.075903 119.045574,26.4552226 118.041246,26.4552226 L115.082113,26.4552226 Z M112.982042,26.4552226 L111.07858,26.4552226 L108.085635,20.1958241 L108.045562,20.2083429 L108.045562,26.4552226 L106.128324,26.4552226 L106.128324,16.6655233 L108.045562,16.6655233 L111.038507,22.9186624 L111.07858,22.9048917 L111.07858,16.6655233 L112.982042,16.6655233 L112.982042,26.4552226 Z M104.135949,16.6655233 L104.135949,23.3280271 C104.135949,24.3733466 103.830393,25.1795571 103.218029,25.7466586 C102.606918,26.3137602 101.805459,26.596685 100.813655,26.596685 C99.8231031,26.596685 99.021645,26.3125083 98.409281,25.742903 C97.7969169,25.1732977 97.491361,24.3683391 97.491361,23.3280271 L97.491361,16.6655233 L99.4010853,16.6655233 L99.4010853,23.3280271 C99.4010853,23.9251737 99.5250609,24.3645835 99.7717597,24.6462564 C100.017206,24.9291812 100.36534,25.0706436 100.813655,25.0706436 C101.275746,25.0706436 101.627636,24.9354406 101.869326,24.6662865 C102.112268,24.3983842 102.232486,23.9514632 102.232486,23.3280271 L102.232486,16.6655233 L104.135949,16.6655233 Z M93.8309518,20.1745421 C93.8309518,19.4734895 93.7007149,18.9439444 93.440241,18.5871586 C93.1810195,18.2291211 92.8015792,18.0501023 92.3044247,18.0501023 C91.8022612,18.0501023 91.4253254,18.2278692 91.1736175,18.583403 C90.9231619,18.937685 90.797934,19.468482 90.797934,20.1745421 L90.797934,22.9399444 C90.797934,23.6497602 90.9256664,24.1830609 91.1811312,24.5373429 C91.4365959,24.8928767 91.8135317,25.0706436 92.3106861,25.0706436 C92.8040837,25.0706436 93.1810195,24.8928767 93.440241,24.5373429 C93.7007149,24.1830609 93.8309518,23.6497602 93.8309518,22.9399444 L93.8309518,20.1745421 Z M95.7344147,22.9399444 C95.7344147,24.0866662 95.4225974,24.983012 94.7989629,25.628982 C94.1765806,26.2749519 93.3463202,26.596685 92.3106861,26.596685 C91.275052,26.596685 90.4472961,26.2749519 89.8286707,25.628982 C89.2100453,24.983012 88.9007326,24.0866662 88.9007326,22.9399444 L88.9007326,20.1958241 C88.9007326,19.051606 89.2100453,18.1540083 89.8286707,17.5030308 C90.4472961,16.8495496 91.2725475,16.5240609 92.3044247,16.5240609 C93.3350497,16.5240609 94.1653101,16.8495496 94.7927015,17.5030308 C95.4213452,18.1540083 95.7344147,19.051606 95.7344147,20.1958241 L95.7344147,22.9399444 Z M82.7007032,21.0358353 L83.9780269,21.0358353 C84.3687377,21.0358353 84.6642754,20.9169068 84.8658922,20.6803015 C85.067509,20.4411925 85.1689435,20.103185 85.1689435,19.6637752 C85.1689435,19.2156023 85.067509,18.8600684 84.8658922,18.5946699 C84.6642754,18.3305233 84.3712423,18.1978241 83.9855406,18.1978241 L82.7007032,18.1978241 L82.7007032,21.0358353 Z M82.7007032,22.5631286 L82.7007032,26.4552226 L80.7897266,26.4552226 L80.7897266,16.6730346 L83.9855406,16.6730346 C84.9497948,16.6730346 85.7061709,16.9271662 86.2546687,17.4354293 C86.8044188,17.9436925 87.0786678,18.6510045 87.0786678,19.5561135 C87.0786678,20.0681323 86.9647104,20.5075421 86.7355435,20.8780985 C86.5076289,21.247403 86.1732706,21.5415947 85.733721,21.7619256 C86.2358845,21.9321812 86.5990452,22.215106 86.8194462,22.6094481 C87.0423517,23.0037902 87.1525522,23.4970308 87.1525522,24.0891699 L87.1525522,24.7802075 C87.1525522,25.0493617 87.1838591,25.3385459 87.2477253,25.6452564 C87.3103392,25.9519669 87.4192874,26.1760534 87.5770745,26.3137602 L87.5770745,26.4552226 L85.5997272,26.4552226 C85.4419401,26.3125083 85.3442624,26.0784068 85.3029373,25.7566737 C85.2628644,25.4336887 85.2428279,25.1031925 85.2428279,24.7689406 L85.2428279,24.1016887 C85.2428279,23.6134556 85.1426457,23.235388 84.9435334,22.9662338 C84.7444212,22.6970797 84.4589018,22.5631286 84.0857229,22.5631286 L82.7007032,22.5631286 Z M78.7172062,25.0030421 C78.4529755,25.4249256 78.0560033,25.795482 77.5262896,26.1159632 C76.9978282,26.4364444 76.3266071,26.596685 75.5163831,26.596685 C74.466974,26.596685 73.6241907,26.2887226 72.990538,25.6753015 C72.3556329,25.0618805 72.0388065,24.1880684 72.0388065,23.0526135 L72.0388065,20.0681323 C72.0388065,18.9426925 72.3443624,18.0713842 72.9567264,17.4529556 C73.5690905,16.8345271 74.3793145,16.5240609 75.3873984,16.5240609 C76.4731236,16.5240609 77.2871045,16.7894594 77.8293409,17.3202564 C78.3715774,17.8510534 78.6545923,18.6109444 78.6771333,19.6011812 L78.6633582,19.6412414 L76.8675913,19.6412414 C76.8538162,19.0879105 76.7323452,18.6848053 76.501926,18.4306737 C76.2702546,18.177794 75.9171121,18.0501023 75.4412464,18.0501023 C74.9753989,18.0501023 74.6097337,18.2153504 74.345503,18.5458466 C74.0812723,18.875091 73.9485308,19.3770947 73.9485308,20.0493541 L73.9485308,23.0501098 C73.9485308,23.7373917 74.0812723,24.2469068 74.3492598,24.5748992 C74.6159951,24.9053955 75.0042013,25.0706436 75.5163831,25.0706436 C75.8970757,25.0706436 76.1788383,25.0193165 76.3591663,24.9154105 C76.5419989,24.8127564 76.6897678,24.6612789 76.8074819,24.4572226 L76.8074819,22.7033391 L75.5163831,22.7033391 L75.5163831,21.3588203 L78.7172062,21.3588203 L78.7172062,25.0030421 Z M64.8294409,26.4552226 L66.7191287,26.4552226 L66.7191287,24.7201173 L64.8294409,24.7201173 L64.8294409,26.4552226 Z M61.3831713,26.4552226 L59.473447,26.4552226 L59.473447,18.6635233 L57.6576436,18.7023316 L57.6576436,17.324012 L61.3831713,16.658012 L61.3831713,26.4552226 Z" id="Fill-39" fill="#FEFEFE"></path>
                <polygon id="Fill-43" fill="#FEFEFE" points="23.2698336 13.8332707 32.5066377 13.8332707 32.5066377 9.21633835 23.2698336 9.21633835"></polygon>
                <polygon id="Fill-45" fill="#FEFEFE" points="12.8771768 25.3768534 22.1139808 25.3768534 22.1139808 20.7599211 12.8771768 20.7599211"></polygon>
                <polygon id="Fill-46" fill="#FEFEFE" points="23.2698336 25.3768534 32.5066377 25.3768534 32.5066377 20.7599211 23.2698336 20.7599211"></polygon>
                <polygon id="Fill-47" fill="#FEFEFE" points="33.6612382 25.3768534 42.8992945 25.3768534 42.8992945 20.7599211 33.6612382 20.7599211"></polygon>
                <polygon id="Fill-48" fill="#FEFEFE" points="18.0165265 19.6044361 27.2533306 19.6044361 27.2533306 14.9875038 18.0165265 14.9875038"></polygon>
                <polygon id="Fill-49" fill="#FEFEFE" points="28.4079311 19.6044361 37.6447351 19.6044361 37.6447351 14.9875038 28.4079311 14.9875038"></polygon>
                <polygon id="Fill-50" fill="#FEFEFE" points="7.62386972 31.0979436 16.8606738 31.0979436 16.8606738 26.4797594 7.62386972 26.4797594"></polygon>
                <polygon id="Fill-51" fill="#FEFEFE" points="18.0152743 31.0979436 27.2520783 31.0979436 27.2520783 26.4797594 18.0152743 26.4797594"></polygon>
                <polygon id="Fill-52" fill="#FEFEFE" points="28.4079311 31.0979436 37.6459874 31.0979436 37.6459874 26.4797594 28.4079311 26.4797594"></polygon>
                <polygon id="Fill-53" fill="#FEFEFE" points="38.7993356 31.0979436 48.0361397 31.0979436 48.0361397 26.4797594 38.7993356 26.4797594"></polygon>
                <polygon id="Fill-54" fill="#FEFEFE" points="19.7496796 131.62188 7.67270857 125.585317 6.12614498 126.26008 19.7496796 133.069053 46.9967488 119.449854 45.499024 118.773839"></polygon>
                <polygon id="Fill-55" fill="#FEFEFE" points="19.7496796 134.034002 7.67270857 127.997438 6.12614498 128.673453 19.7496796 135.482427 46.9967488 121.863228 45.499024 121.188465"></polygon>
                <polygon id="Fill-56" fill="#FEFEFE" points="19.7496796 136.447251 7.67270857 130.410687 6.12614498 131.086702 19.7496796 137.894424 46.9967488 124.275224 45.499024 123.599209"></polygon>
                <path d="M33.3737151,110.228759 L6.12664589,123.847958 L19.7501805,130.656932 L46.9972497,117.038984 L33.3737151,110.228759 Z M29.9662661,122.147905 C28.0865965,123.086815 25.0372991,123.086815 23.1563772,122.147905 C21.2742031,121.206492 21.2742031,119.68045 23.1563772,118.740289 C25.0360468,117.801379 28.0853442,117.801379 29.9662661,118.740289 C31.8484402,119.68045 31.8484402,121.206492 29.9662661,122.147905 L29.9662661,122.147905 Z" id="Fill-57" fill="#FEFEFE"></path>
                <path d="M14.7815163,175.938923 L14.7815163,181.294464 C14.7815163,183.411392 20.6071145,185.12772 27.8002005,185.12772 C34.9920342,185.12772 40.8176324,183.411392 40.8176324,181.294464 L40.8176324,175.938923 C40.8176324,175.938923 37.4026698,179.166268 27.8002005,179.166268 C16.922912,179.166268 14.7815163,175.938923 14.7815163,175.938923" id="Fill-58" fill="#FEFEFE"></path>
                <path d="M14.7815163,183.53946 L14.7815163,190.767813 C14.7815163,192.884742 20.6071145,194.599817 27.8002005,194.599817 C34.9920342,194.599817 40.8176324,192.884742 40.8176324,190.767813 L40.8176324,183.53946 C40.8176324,183.53946 37.4026698,186.768058 27.8002005,186.768058 C16.922912,186.766806 14.7815163,183.53946 14.7815163,183.53946 M29.0700106,190.547482 C29.0700106,191.308625 28.4513851,191.927054 27.6887477,191.927054 C26.924858,191.927054 26.3062326,191.308625 26.3062326,190.547482 C26.3062326,189.783836 26.924858,189.165407 27.6887477,189.165407 C28.4513851,189.165407 29.0700106,189.783836 29.0700106,190.547482" id="Fill-59" fill="#FEFEFE"></path>
                <path d="M27.7995743,164.492361 C20.6064883,164.492361 14.7808901,166.208688 14.7808901,168.325616 L14.7808901,168.378195 C15.6111506,169.840391 21.2100864,171.39147 26.497205,171.643097 C27.1709307,171.675646 27.8321336,171.691921 28.4795614,171.694424 C28.0863461,171.715706 27.6868693,171.730729 27.2836357,171.740744 C22.9044188,172.370439 16.7569851,171.002135 14.7808901,169.322112 L14.7808901,173.678654 C14.7808901,175.795582 20.6064883,177.511909 27.7995743,177.511909 C34.9926604,177.511909 40.8182586,175.795582 40.8182586,173.678654 L40.8182586,168.325616 C40.8182586,166.208688 34.9926604,164.492361 27.7995743,164.492361" id="Fill-60" fill="#FEFEFE"></path>
                <path d="M21.2881034,221.033507 C22.9210741,221.033507 24.2434799,222.356744 24.2434799,223.986691 C24.2434799,225.617891 22.9210741,226.942379 21.2881034,226.942379 C19.6563849,226.942379 18.3327268,225.617891 18.3327268,223.986691 C18.3327268,222.356744 19.6563849,221.033507 21.2881034,221.033507" id="Fill-61" fill="#FEFEFE"></path>
                <path d="M27.7910589,221.033507 C29.4227774,221.033507 30.7464354,222.356744 30.7464354,223.986691 C30.7464354,225.617891 29.4227774,226.942379 27.7910589,226.942379 C26.1580881,226.942379 24.8356823,225.617891 24.8356823,223.986691 C24.8356823,222.356744 26.1580881,221.033507 27.7910589,221.033507" id="Fill-62" fill="#FEFEFE"></path>
                <path d="M34.2927621,221.033507 C35.9257328,221.033507 37.2481386,222.356744 37.2481386,223.986691 C37.2481386,225.617891 35.9257328,226.942379 34.2927621,226.942379 C32.6597913,226.942379 31.3373855,225.617891 31.3373855,223.986691 C31.3373855,222.356744 32.6597913,221.033507 34.2927621,221.033507" id="Fill-63" fill="#FEFEFE"></path>
                <path d="M37.2485143,227.532515 C38.8802328,227.532515 40.2038909,228.855752 40.2038909,230.486952 L40.2038909,237.194523 C40.2038909,238.825722 38.8802328,240.148959 37.2485143,240.148959 L37.2485143,251.170508 L31.4667458,251.170508 L31.4667458,240.147707 L30.6164489,240.147707 L30.6164489,251.170508 L24.9649174,251.170508 L24.9649174,240.147707 L24.1133682,240.147707 L24.1133682,251.170508 L18.332852,251.170508 L18.332852,240.147707 C16.6998812,240.147707 15.3774755,238.825722 15.3774755,237.194523 L15.3774755,230.486952 C15.3774755,228.855752 16.6998812,227.532515 18.332852,227.532515 L37.2485143,227.532515 Z" id="Fill-64" fill="#FEFEFE"></path>
                <text id="The-initial-steps-of" font-family="RobotoCondensed-Regular, Roboto Condensed" font-size="11" font-style="condensed" font-weight="normal" fill="#212121">
                    <tspan x="198" y="18">The initial steps of specifying the key components of the projects approach to scaling up, assessing </tspan>
                    <tspan x="198" y="33">relevant contextual influences, and taking stock of the scientific basis for the product</tspan>
                </text>
                <text id="Collaborations-with-" font-family="RobotoCondensed-Regular, Roboto Condensed" font-size="11" font-style="condensed" font-weight="normal" fill="#212121">
                    <tspan x="198" y="69">Collaborations with external groups to support the process of scaling up, including strategies for </tspan>
                    <tspan x="198" y="84">identifying, developing and sustaining fruitful partnerships </tspan>
                </text>
                <text id="The-projection-of-sc" font-family="RobotoCondensed-Regular, Roboto Condensed" font-size="11" font-style="condensed" font-weight="normal" fill="#212121">
                    <tspan x="198" y="119.797551">The projection of scale-up costs, and the development of a nancial plan for securing and managing </tspan>
                    <tspan x="198" y="134.797551">funds over the long term</tspan>
                </text>
                <text id="Organizational-and-p" font-family="RobotoCondensed-Regular, Roboto Condensed" font-size="11" font-style="condensed" font-weight="normal" fill="#212121">
                    <tspan x="198" y="232">Organizational and programmatic measures for supporting the implementation, use and </tspan>
                    <tspan x="198" y="247">maintenance of the product throughout the scaling-up process</tspan>
                </text>
                <text id="Decisions-and-activi" font-family="RobotoCondensed-Regular, Roboto Condensed" font-size="11" font-style="condensed" font-weight="normal" fill="#212121">
                    <tspan x="199" y="283">Decisions and activities that enable e ective process monitoring and in-depth outcome evaluation, </tspan>
                    <tspan x="199" y="298">based on project and stakeholder need </tspan>
                </text>
                <text id="Steps-taken-to-optim" font-family="RobotoCondensed-Regular, Roboto Condensed" font-size="11" font-style="condensed" font-weight="normal" fill="#212121">
                    <tspan x="198" y="168">Steps taken to optimize the mHealth product for scaling up based on its anticipated user base, </tspan>
                    <tspan x="198" y="183">purpose, integration with information systems and compatibility with other components of the </tspan>
                    <tspan x="198" y="198">information systems architecture</tspan>
                </text>
            </g>
        </g>
    </g>
</svg>