<?xml version="1.0" encoding="utf-8"?>
<!-- Generator: Adobe Illustrator 16.0.4, SVG Export Plug-In . SVG Version: 6.00 Build 0)  -->
<!DOCTYPE svg PUBLIC "-//W3C//DTD SVG 1.1//EN" "http://www.w3.org/Graphics/SVG/1.1/DTD/svg11.dtd">
<svg version="1.1" id="Layer_1" xmlns="http://www.w3.org/2000/svg" xmlns:xlink="http://www.w3.org/1999/xlink" x="0px" y="0px"
	 width="33px" height="19px" viewBox="0 0 33 19" enable-background="new 0 0 33 19" xml:space="preserve">
<title>icon-axis1</title>
<desc>Created with Sketch.</desc>
<g id="Symbols">
	<g id="Flex---2---Project-Details" transform="translate(-20.000000, -105.000000)">
		<g id="Overview">
			<g transform="translate(10.000000, 87.000000)">
				<g id="icon-axis1" transform="translate(10.000000, 18.000000)">
					<polygon id="Fill-3" fill="#FEFEFE" points="13,4.505 20.19,4.505 20.19,0.91 13,0.91 					"/>
					<polygon id="Fill-4" fill="#FEFEFE" points="4.909,13.494 12.101,13.494 12.101,9.898 4.909,9.898 					"/>
					<polygon id="Fill-5" fill="#FEFEFE" points="13,13.494 20.19,13.494 20.19,9.898 13,9.898 					"/>
					<polygon id="Fill-6" fill="#FEFEFE" points="21.089,13.494 28.28,13.494 28.28,9.898 21.089,9.898 					"/>
					<polygon id="Fill-7" fill="#FEFEFE" points="8.91,9 16.102,9 16.102,5.404 8.91,5.404 					"/>
					<polygon id="Fill-8" fill="#FEFEFE" points="17,9 24.19,9 24.19,5.404 17,5.404 					"/>
					<polygon id="Fill-9" fill="#FEFEFE" points="0.819,17.951 8.011,17.951 8.011,14.354 0.819,14.354 					"/>
					<polygon id="Fill-10" fill="#FEFEFE" points="8.909,17.951 16.101,17.951 16.101,14.354 8.909,14.354 					"/>
					<polygon id="Fill-11" fill="#FEFEFE" points="17,17.951 24.192,17.951 24.192,14.354 17,14.354 					"/>
					<polygon id="Fill-12" fill="#FEFEFE" points="25.089,17.951 32.28,17.951 32.28,14.354 25.089,14.354 					"/>
				</g>
			</g>
		</g>
	</g>
</g>
</svg>
