<?xml version="1.0" encoding="UTF-8" standalone="no"?>
<svg width="40px" height="40px" viewBox="0 0 40 40" version="1.1" xmlns="http://www.w3.org/2000/svg" xmlns:xlink="http://www.w3.org/1999/xlink">
    <!-- Generator: Sketch 3.7.2 (28276) - http://www.bohemiancoding.com/sketch -->
    <title>icon-domain-7</title>
    <desc>Created with Sketch.</desc>
    <defs>
        <polygon id="path-1" points="40.0002584 40 40.0002584 -0.000129032258 0.000193548387 -0.000129032258 0.000193548387 40 40.0002584 40"></polygon>
    </defs>
    <g id="Assets" stroke="none" stroke-width="1" fill="none" fill-rule="evenodd">
        <g id="Thematic-overview" transform="translate(-29.000000, -329.000000)">
            <g id="icon-domain-7" transform="translate(29.000000, 329.000000)">
                <mask id="mask-2" fill="white">
                    <use xlink:href="#path-1"></use>
                </mask>
                <use id="Clip-2" fill="#0097A7" xlink:href="#path-1"></use>
                <path d="M20.2151613,24.350129 L20.2158065,24.350129 C20.773871,24.350129 21.3293548,24.2617419 21.8648387,24.0875484 C23.2203226,23.6475484 24.3222581,22.7056129 24.9687097,21.4372258 C25.5764516,20.2443226 25.6332258,19.1204516 25.3635484,17.8172258 L19.7570968,19.5733548 L19.7570968,13.6875484 C19.2758065,13.7081935 19.0480645,13.7881935 18.5687097,13.9443226 C17.213871,14.3836774 16.1119355,15.3249677 15.4654839,16.5946452 C14.8183871,17.8636774 14.7048387,19.3088387 15.1454839,20.6636774 C15.8609677,22.8688387 17.8990323,24.350129 20.2151613,24.350129" id="Fill-4" fill="#FEFEFE" mask="url(#mask-2)"></path>
                <path d="M21.4756774,12.6882581 L21.4756774,17.5592258 L26.2027742,16.1230968 C25.4447097,14.1043871 23.6305161,12.7863226 21.4756774,12.6882581" id="Fill-6" fill="#FEFEFE" mask="url(#mask-2)"></path>
                <path d="M33.5228387,9.84122581 L21.1054194,9.84122581 L21.1054194,9.42316129 C21.1054194,8.93219355 20.708,8.53477419 20.2170323,8.53477419 C19.7267097,8.53477419 19.3286452,8.93219355 19.3286452,9.42316129 L19.3286452,9.84122581 L6.91122581,9.84122581 C6.42090323,9.84122581 6.02283871,10.2386452 6.02283871,10.7296129 C6.02283871,11.2025161 6.39316129,11.5850968 6.85832258,11.6128387 L6.85832258,26.6457419 C6.85832258,27.338 7.42219355,27.9005806 8.11445161,27.9005806 L18.7867097,27.9005806 L13.788,32.9005806 C13.5563871,33.1315484 13.5563871,33.5070323 13.788,33.738 C13.9034839,33.854129 14.0550968,33.9115484 14.2067097,33.9115484 C14.3583226,33.9115484 14.5105806,33.854129 14.6254194,33.738 L19.6247742,28.7386452 L19.6247742,31.7850968 C19.6247742,32.1121935 19.8899355,32.3773548 20.2170323,32.3773548 C20.544129,32.3773548 20.8092903,32.1121935 20.8092903,31.7850968 L20.8092903,28.7386452 L25.8092903,33.738 C25.924129,33.854129 26.0763871,33.9115484 26.2273548,33.9115484 C26.3789677,33.9115484 26.5305806,33.854129 26.6467097,33.738 C26.8776774,33.5070323 26.8776774,33.1315484 26.6467097,32.9005806 L21.6473548,27.9005806 L32.3196129,27.9005806 C33.011871,27.9005806 33.5750968,27.338 33.5750968,26.6457419 L33.5750968,11.6128387 C34.0409032,11.5850968 34.4112258,11.2025161 34.4112258,10.7296129 C34.4112258,10.2386452 34.0131613,9.84122581 33.5228387,9.84122581 L33.5228387,9.84122581 Z M32.1899355,26.4444516 C32.1899355,26.4838065 32.1576774,26.5154194 32.1183226,26.5154194 L8.31509677,26.5154194 C8.2763871,26.5154194 8.24412903,26.4838065 8.24412903,26.4444516 L8.24412903,11.6186452 L32.1899355,11.6186452 L32.1899355,26.4444516 Z" id="Fill-8" fill="#FEFEFE" mask="url(#mask-2)"></path>
            </g>
        </g>
    </g>
</svg>