<?xml version="1.0" encoding="UTF-8" standalone="no"?>
<svg width="16px" height="16px" viewBox="0 0 16 16" version="1.1" xmlns="http://www.w3.org/2000/svg" xmlns:xlink="http://www.w3.org/1999/xlink">
    <!-- Generator: Sketch 3.7.2 (28276) - http://www.bohemiancoding.com/sketch -->
    <title>Shape</title>
    <desc>Created with Sketch.</desc>
    <defs></defs>
    <g id="MAPS-Toolkit" stroke="none" stroke-width="1" fill="none" fill-rule="evenodd">
        <g id="03---Toolkit---Thematic-overview" transform="translate(-127.000000, -140.000000)" fill="#FFFFFF">
            <g id="Overlay" transform="translate(100.000000, 0.000000)">
                <g id="Summary">
                    <g id="Sections" transform="translate(0.000000, 20.000000)">
                        <g id="section" transform="translate(20.000000, 113.000000)">
                            <g id="ic_language_24px" transform="translate(7.000000, 7.000000)">
                                <path d="M7.992,0 C3.576,0 0,3.584 0,8 C0,12.416 3.576,16 7.992,16 C12.416,16 16,12.416 16,8 C16,3.584 12.416,0 7.992,0 L7.992,0 Z M13.536,4.8 L11.176,4.8 C10.92,3.8 10.552,2.84 10.072,1.952 C11.544,2.456 12.768,3.48 13.536,4.8 L13.536,4.8 Z M8,1.632 C8.664,2.592 9.184,3.656 9.528,4.8 L6.472,4.8 C6.816,3.656 7.336,2.592 8,1.632 L8,1.632 Z M1.808,9.6 C1.68,9.088 1.6,8.552 1.6,8 C1.6,7.448 1.68,6.912 1.808,6.4 L4.512,6.4 C4.448,6.928 4.4,7.456 4.4,8 C4.4,8.544 4.448,9.072 4.512,9.6 L1.808,9.6 L1.808,9.6 Z M2.464,11.2 L4.824,11.2 C5.08,12.2 5.448,13.16 5.928,14.048 C4.456,13.544 3.232,12.528 2.464,11.2 L2.464,11.2 Z M4.824,4.8 L2.464,4.8 C3.232,3.472 4.456,2.456 5.928,1.952 C5.448,2.84 5.08,3.8 4.824,4.8 L4.824,4.8 Z M8,14.368 C7.336,13.408 6.816,12.344 6.472,11.2 L9.528,11.2 C9.184,12.344 8.664,13.408 8,14.368 L8,14.368 Z M9.872,9.6 L6.128,9.6 C6.056,9.072 6,8.544 6,8 C6,7.456 6.056,6.92 6.128,6.4 L9.872,6.4 C9.944,6.92 10,7.456 10,8 C10,8.544 9.944,9.072 9.872,9.6 L9.872,9.6 Z M10.072,14.048 C10.552,13.16 10.92,12.2 11.176,11.2 L13.536,11.2 C12.768,12.52 11.544,13.544 10.072,14.048 L10.072,14.048 Z M11.488,9.6 C11.552,9.072 11.6,8.544 11.6,8 C11.6,7.456 11.552,6.928 11.488,6.4 L14.192,6.4 C14.32,6.912 14.4,7.448 14.4,8 C14.4,8.552 14.32,9.088 14.192,9.6 L11.488,9.6 L11.488,9.6 Z" id="Shape"></path>
                            </g>
                        </g>
                    </g>
                </g>
            </g>
        </g>
    </g>
</svg>