<?xml version="1.0" encoding="UTF-8" standalone="no"?>
<svg width="16px" height="16px" viewBox="0 0 16 16" version="1.1" xmlns="http://www.w3.org/2000/svg" xmlns:xlink="http://www.w3.org/1999/xlink">
    <!-- Generator: Sketch 3.7.2 (28276) - http://www.bohemiancoding.com/sketch -->
    <title>Shape</title>
    <desc>Created with Sketch.</desc>
    <defs></defs>
    <g id="MAPS-Toolkit" stroke="none" stroke-width="1" fill="none" fill-rule="evenodd">
        <g id="03---Toolkit---Thematic-overview" transform="translate(-127.000000, -190.000000)" fill="#FFFFFF">
            <g id="Overlay" transform="translate(100.000000, 0.000000)">
                <g id="Summary">
                    <g id="Sections" transform="translate(0.000000, 20.000000)">
                        <g id="section-copy" transform="translate(20.000000, 163.000000)">
                            <g id="ic_info_24px" transform="translate(7.000000, 7.000000)">
                                <path d="M8,0 C3.584,0 0,3.584 0,8 C0,12.416 3.584,16 8,16 C12.416,16 16,12.416 16,8 C16,3.584 12.416,0 8,0 L8,0 Z M8.8,12 L7.2,12 L7.2,7.2 L8.8,7.2 L8.8,12 L8.8,12 Z M8.8,5.6 L7.2,5.6 L7.2,4 L8.8,4 L8.8,5.6 L8.8,5.6 Z" id="Shape"></path>
                            </g>
                        </g>
                    </g>
                </g>
            </g>
        </g>
    </g>
</svg>