<?xml version="1.0" encoding="UTF-8" standalone="no"?>
<svg width="40px" height="40px" viewBox="0 0 40 40" version="1.1" xmlns="http://www.w3.org/2000/svg" xmlns:xlink="http://www.w3.org/1999/xlink">
    <!-- Generator: Sketch 3.7.2 (28276) - http://www.bohemiancoding.com/sketch -->
    <title>icon-domain-16</title>
    <desc>Created with Sketch.</desc>
    <defs>
        <polygon id="path-1" points="39.5947937 39.5947937 0 39.5947937 0 6.34920635e-05 39.5947937 6.34920635e-05 39.5947937 39.5947937"></polygon>
    </defs>
    <g id="Assets" stroke="none" stroke-width="1" fill="none" fill-rule="evenodd">
        <g id="Thematic-overview" transform="translate(-30.000000, -774.000000)">
            <g id="icon-domain-16" transform="translate(30.000000, 774.000000)">
                <mask id="mask-2" fill="white">
                    <use xlink:href="#path-1"></use>
                </mask>
                <use id="Clip-2" fill="#744D41" xlink:href="#path-1"></use>
                <path d="M25.7493333,9.38184127 C25.7493333,8.55961905 25.0833016,7.89422222 24.2617143,7.89422222 L15.3334603,7.89422222 C14.5112381,7.89422222 13.8458413,8.55961905 13.8458413,9.38184127 L13.8458413,10.8694603 L25.7493333,10.8694603 L25.7493333,9.38184127 Z" id="Fill-4" fill="#FEFEFE" mask="url(#mask-2)"></path>
                <path d="M28.7248889,9.38184127 L27.2372698,9.38184127 L27.2372698,12.3577143 L12.3579048,12.3577143 L12.3579048,9.38184127 L10.8696508,9.38184127 C10.0474286,9.38184127 9.38203175,10.047873 9.38203175,10.8694603 L9.38203175,30.2129524 C9.38203175,31.0351746 10.0474286,31.7005714 10.8696508,31.7005714 L28.7248889,31.7005714 C29.5471111,31.7005714 30.2131429,31.0351746 30.2131429,30.2129524 L30.2131429,10.8694603 C30.2131429,10.047873 29.5471111,9.38184127 28.7248889,9.38184127 L28.7248889,9.38184127 Z M18.3096508,27.2370794 L13.8455238,22.7735873 L16.0779048,20.5412063 L18.3096508,22.7735873 L23.5172698,17.5653333 L25.7490159,19.7970794 L18.3096508,27.2370794 Z" id="Fill-6" fill="#FEFEFE" mask="url(#mask-2)"></path>
            </g>
        </g>
    </g>
</svg>