<?xml version="1.0" encoding="UTF-8" standalone="no"?>
<svg width="147px" height="120px" viewBox="0 0 147 120" version="1.1" xmlns="http://www.w3.org/2000/svg" xmlns:xlink="http://www.w3.org/1999/xlink">
    <!-- Generator: Sketch 3.7.2 (28276) - http://www.bohemiancoding.com/sketch -->
    <title>“</title>
    <desc>Created with Sketch.</desc>
    <defs></defs>
    <g id="MAPS-Toolkit" stroke="none" stroke-width="1" fill="none" fill-rule="evenodd">
        <g id="03---Toolkit---Thematic-overview" transform="translate(-1052.000000, -593.000000)" fill="#FFFFFF">
            <g id="Overlay" transform="translate(100.000000, 0.000000)">
                <g id="blockquote" transform="translate(844.000000, 593.000000)">
                    <path d="M108.361538,120 L164.969231,120 L164.969231,55.9589744 L136.951282,55.9589744 C136.951282,31.9435897 143.241026,22.7948718 168.4,9.64358974 L155.820513,-13.8 C117.510256,5.64102564 108.361538,23.9384615 108.361538,70.825641 L108.361538,120 Z M198.133333,120 L254.169231,120 L254.169231,55.9589744 L226.151282,55.9589744 C226.151282,31.9435897 232.441026,22.7948718 257.6,9.64358974 L245.020513,-13.8 C206.710256,5.64102564 198.133333,23.9384615 198.133333,70.825641 L198.133333,120 Z" id="“" transform="translate(182.980769, 53.100000) rotate(-180.000000) translate(-182.980769, -53.100000) "></path>
                </g>
            </g>
        </g>
    </g>
</svg>