<?xml version="1.0" encoding="UTF-8" standalone="no"?>
<svg width="639px" height="390px" viewBox="0 0 639 390" version="1.1" xmlns="http://www.w3.org/2000/svg" xmlns:xlink="http://www.w3.org/1999/xlink">
    <!-- Generator: Sketch 3.7.2 (28276) - http://www.bohemiancoding.com/sketch -->
    <title>sample-saq</title>
    <desc>Created with Sketch.</desc>
    <defs></defs>
    <g id="Assets" stroke="none" stroke-width="1" fill="none" fill-rule="evenodd">
        <g id="Thematic-overview" transform="translate(-1283.000000, -789.000000)">
            <g id="sample-saq" transform="translate(1283.000000, 789.000000)">
                <g id="Group-3" transform="translate(0.000000, 0.139650)" fill="#E1E8EC">
                    <path d="M11.0171984,0.157009779 C11.0171984,0.157009779 -0.000129554656,0.157009779 -0.000129554656,11.1827006 L-0.000129554656,293.162682 C-0.000129554656,293.162682 -0.000129554656,304.188373 11.0171984,304.188373 L627.982381,304.188373 C627.982381,304.188373 638.999709,304.188373 638.999709,293.162682 L638.999709,11.1827006 C638.999709,11.1827006 638.999709,0.157009779 627.982381,0.157009779 L11.0171984,0.157009779 Z" id="Fill-1"></path>
                </g>
                <path d="M238.706397,43.6216467 L18.3617814,43.6216467 L18.3617814,23.583776 L238.706397,23.583776 L274.512065,23.583776 L274.512065,43.6216467 L238.706397,43.6216467 Z M274.51336,43.6216467 L358.060567,43.6216467 L358.060567,23.583776 L274.51336,23.583776 L274.51336,43.6216467 Z M358.060567,43.6216467 L437.832551,43.6216467 L437.832551,23.583776 L358.060567,23.583776 L358.060567,43.6216467 Z M437.832551,43.6216467 L527.909312,43.6216467 L527.909312,23.583776 L437.832551,23.583776 L437.832551,43.6216467 Z M527.909312,43.6216467 L620.638057,43.6216467 L620.638057,23.583776 L527.909312,23.583776 L527.909312,43.6216467 Z" id="Fill-4" fill="#C85C19"></path>
                <path d="M18.3617814,117.199722 L238.707045,117.199722 L238.707045,43.6216467 L18.3617814,43.6216467 L18.3617814,117.199722 Z M238.706397,250.742309 L18.3617814,250.742309 L18.3617814,190.777798 L238.706397,190.777798 L274.512065,190.777798 L274.512065,250.742309 L238.706397,250.742309 Z M238.705749,117.199722 L274.512065,117.199722 L274.512065,43.6216467 L238.705749,43.6216467 L238.705749,117.199722 Z M274.51336,117.199722 L358.060567,117.199722 L358.060567,43.6216467 L274.51336,43.6216467 L274.51336,117.199722 Z M358.060567,117.199722 L437.832551,117.199722 L437.832551,43.6216467 L358.060567,43.6216467 L358.060567,117.199722 Z M437.832551,117.199722 L527.909312,117.199722 L527.909312,43.6216467 L437.832551,43.6216467 L437.832551,117.199722 Z M527.909312,117.199722 L620.638057,117.199722 L620.638057,43.6216467 L527.909312,43.6216467 L527.909312,117.199722 Z M274.51336,250.742309 L358.060567,250.742309 L358.060567,190.777798 L274.51336,190.777798 L274.51336,250.742309 Z M358.060567,250.742309 L437.832551,250.742309 L437.832551,190.777798 L358.060567,190.777798 L358.060567,250.742309 Z M437.832551,250.742309 L527.909312,250.742309 L527.909312,190.777798 L437.832551,190.777798 L437.832551,250.742309 Z M527.909312,250.742309 L620.638057,250.742309 L620.638057,190.777798 L527.909312,190.777798 L527.909312,250.742309 Z" id="Combined-Shape" fill="#FEFEFE"></path>
                <path d="M319.500308,102.01217 C332.177231,102.01217 342.453506,91.7280946 342.453506,79.0428454 C342.453506,66.3562997 332.177231,56.072224 319.500308,56.072224 C306.823385,56.072224 296.547109,66.3562997 296.547109,79.0428454 C296.547109,91.7280946 306.823385,102.01217 319.500308,102.01217" id="Fill-32" fill="#EBB594"></path>
                <path d="M319.500308,175.516214 C332.177231,175.516214 342.453506,165.232138 342.453506,152.546889 C342.453506,139.860344 332.177231,129.576268 319.500308,129.576268 C306.823385,129.576268 296.547109,139.860344 296.547109,152.546889 C296.547109,165.232138 306.823385,175.516214 319.500308,175.516214" id="Fill-34" fill="#EBB594"></path>
                <path d="M399.375028,244.262641 C412.051951,244.262641 422.328227,233.978566 422.328227,221.293316 C422.328227,208.606771 412.051951,198.322695 399.375028,198.322695 C386.698105,198.322695 376.42183,208.606771 376.42183,221.293316 C376.42183,233.978566 386.698105,244.262641 399.375028,244.262641" id="Fill-36" fill="#EBB594"></path>
                <path d="M573.569036,241.669581 C586.24596,241.669581 596.520939,231.385506 596.520939,218.700256 C596.520939,206.013711 586.24596,195.729635 573.569036,195.729635 C560.892113,195.729635 550.615838,206.013711 550.615838,218.700256 C550.615838,231.385506 560.892113,241.669581 573.569036,241.669581" id="Fill-38" fill="#EBB594"></path>
                <path d="M573.569036,292.95914 C586.24596,292.95914 596.520939,282.675064 596.520939,269.989815 C596.520939,257.303269 586.24596,247.019194 573.569036,247.019194 C560.892113,247.019194 550.615838,257.303269 550.615838,269.989815 C550.615838,282.675064 560.892113,292.95914 573.569036,292.95914" id="Fill-40" fill="#EBB594"></path>
                <path d="M573.569036,175.516214 C586.24596,175.516214 596.520939,165.232138 596.520939,152.546889 C596.520939,139.860344 586.24596,129.576268 573.569036,129.576268 C560.892113,129.576268 550.615838,139.860344 550.615838,152.546889 C550.615838,165.232138 560.892113,175.516214 573.569036,175.516214" id="Fill-42" fill="#EBB594"></path>
                <path d="M573.569036,101.984295 C586.24596,101.984295 596.520939,91.7002192 596.520939,79.01497 C596.520939,66.3284243 586.24596,56.0443486 573.569036,56.0443486 C560.892113,56.0443486 550.615838,66.3284243 550.615838,79.01497 C550.615838,91.7002192 560.892113,101.984295 573.569036,101.984295" id="Fill-44" fill="#EBB594"></path>
                <polygon id="Fill-13" fill="#221F20" points="563.203887 92.7860631 585.344777 92.7860631 585.344777 91.9964763 563.203887 91.9964763"></polygon>
                <path d="M319.299757,89.2082886 C319.194818,89.5972476 318.984939,89.9434211 318.671417,90.2468091 C318.356599,90.5514937 318.022348,90.694112 317.66996,90.6785536 C317.425101,90.6629953 316.908178,90.3323801 316.115304,89.6880047 C315.32502,89.0423328 314.954494,88.5937334 315.006316,88.3447997 C315.034818,88.2358912 315.097004,88.0932729 315.191579,87.9130552 C315.286154,87.7341341 315.345749,87.5979984 315.370364,87.5046483 L317.995142,77.7028817 C318.091012,77.3450394 317.811174,77.0883265 317.151741,76.9327429 C316.424939,76.7460426 316.050526,76.4893297 316.028502,76.1626041 C316.012955,75.9927587 316.025911,75.8280994 316.067368,75.6738123 C316.159352,75.3315284 316.43919,74.9257145 316.905587,74.4589637 C317.542996,73.821071 317.932955,73.4087744 318.076761,73.2220741 C318.425263,72.6152981 318.773765,72.0085221 319.123563,71.4030426 C319.570526,70.7171782 320.119838,70.3761909 320.772794,70.3761909 C321.442591,70.3761909 322.055385,70.577153 322.617652,70.9816703 C323.24081,71.4341593 323.477895,71.9475852 323.323725,72.5219479 L319.180567,87.9947366 C319.139109,88.1503202 319.159838,88.3486893 319.242753,88.5898438 C319.325668,88.8309984 319.345101,89.0384432 319.299757,89.2082886" id="Fill-10" fill="#005573"></path>
                <path d="M601.27404,31.2624612 L601.27404,35.7030763 L601.890721,35.7030763 C602.241814,35.7030763 602.512583,35.5500858 602.703028,35.2441047 C602.893474,34.9368271 602.988049,34.5310132 602.988049,34.0253666 L602.988049,32.9310953 C602.988049,32.4280416 602.893474,32.0235243 602.703028,31.7201363 C602.512583,31.4154517 602.241814,31.2624612 601.890721,31.2624612 L601.27404,31.2624612 Z M600.012178,36.7091836 L600.012178,30.2563539 L601.96068,30.2563539 C602.622704,30.2563539 603.16813,30.5065842 603.599547,31.0070448 C604.030964,31.5088019 604.246024,32.1531773 604.246024,32.9414675 L604.246024,34.0279596 C604.246024,34.8162498 604.030964,35.4606252 603.599547,35.9597893 C603.16813,36.4589533 602.622704,36.7091836 601.96068,36.7091836 L600.012178,36.7091836 Z M598.5223,33.8775621 L596.356146,33.8775621 L596.356146,35.7030763 L598.90319,35.7030763 L598.90319,36.7091836 L595.094283,36.7091836 L595.094283,30.2563539 L598.894121,30.2563539 L598.894121,31.2624612 L596.356146,31.2624612 L596.356146,32.8714549 L598.5223,32.8714549 L598.5223,33.8775621 Z M593.658818,36.7091836 L592.404729,36.7091836 L590.435498,32.5836252 L590.406996,32.5914044 L590.406996,36.7091836 L589.146429,36.7091836 L589.146429,30.2563539 L590.406996,30.2563539 L592.378818,34.3780227 L592.404729,34.368947 L592.404729,30.2563539 L593.658818,30.2563539 L593.658818,36.7091836 Z M584.818008,33.1372435 L585.660113,33.1372435 C585.916632,33.1372435 586.110964,33.0581552 586.244405,32.9025716 C586.376551,32.7456915 586.443919,32.5226883 586.443919,32.2335621 C586.443919,31.9379533 586.376551,31.7019849 586.244405,31.5282498 C586.110964,31.3545148 585.917927,31.2663508 585.664,31.2663508 L584.818008,31.2663508 L584.818008,33.1372435 Z M584.818008,34.1433508 L584.818008,36.7091836 L583.560032,36.7091836 L583.560032,30.2615401 L585.664,30.2615401 C586.298818,30.2615401 586.796308,30.4287924 587.157765,30.7645937 C587.520518,31.0990984 587.700599,31.5645527 587.700599,32.162253 C587.700599,32.4993508 587.626753,32.788477 587.475174,33.0335211 C587.324891,33.2759722 587.104648,33.4704517 586.815741,33.6156631 C587.146105,33.7271647 587.384486,33.913865 587.530883,34.1744675 C587.677279,34.4337735 587.751126,34.7592025 587.751126,35.149458 L587.751126,35.6058366 C587.751126,35.7821647 587.770559,35.9727546 587.810721,36.1750132 C587.853474,36.3772719 587.924729,36.5237798 588.028372,36.6158334 L588.028372,36.7091836 L586.726348,36.7091836 C586.622704,36.6145369 586.559223,36.4602498 586.532016,36.2476189 C586.506105,36.034988 586.49315,35.8184675 586.49315,35.5967609 L586.49315,35.1572372 C586.49315,34.8356978 586.427077,34.5854675 586.294931,34.4091394 C586.164081,34.2315148 585.974931,34.1433508 585.731368,34.1433508 L584.818008,34.1433508 Z M579.538656,34.324865 L580.725377,34.324865 L580.144972,32.0429722 L580.119061,32.0429722 L579.538656,34.324865 Z M580.98319,35.3309722 L579.282138,35.3309722 L578.936227,36.7091836 L577.665296,36.7091836 L579.481652,30.2563539 L580.791449,30.2563539 L582.602623,36.7091836 L581.331692,36.7091836 L580.98319,35.3309722 Z M576.591287,33.8775621 L574.425134,33.8775621 L574.425134,35.7030763 L576.972178,35.7030763 L576.972178,36.7091836 L573.164567,36.7091836 L573.164567,30.2563539 L576.963109,30.2563539 L576.963109,31.2624612 L574.425134,31.2624612 L574.425134,32.8714549 L576.591287,32.8714549 L576.591287,33.8775621 Z M568.415093,35.0249912 C568.415093,34.7734644 568.34902,34.5750953 568.219466,34.4285874 C568.089911,34.283376 567.860599,34.1381647 567.532826,33.9968429 C566.861733,33.7634675 566.360356,33.4976789 566.02481,33.20207 C565.689263,32.9038681 565.522138,32.4889785 565.522138,31.9535117 C565.522138,31.4245274 565.717765,30.9940795 566.106429,30.6621678 C566.496389,30.3302562 566.993879,30.1630038 567.600194,30.1630038 C568.212988,30.1630038 568.711773,30.3484076 569.095255,30.7205117 C569.480032,31.0900227 569.666591,31.55807 569.654931,32.1220606 L569.644567,32.1492877 L568.422866,32.1492877 C568.422866,31.8536789 568.34902,31.6138208 568.202623,31.4310101 C568.053636,31.2481994 567.845053,31.1561457 567.576874,31.1561457 C567.326834,31.1561457 567.131206,31.232641 566.989992,31.384335 C566.850073,31.536029 566.780113,31.7279155 566.780113,31.9586978 C566.780113,32.1713287 566.859142,32.3450637 567.015903,32.4837924 C567.171368,32.6199281 567.443433,32.7742151 567.830802,32.9414675 C568.439709,33.1489123 568.900923,33.4108114 569.209263,33.7284612 C569.517603,34.046111 569.671773,34.4752625 569.671773,35.0159155 C569.671773,35.5747199 569.485215,36.0116505 569.113393,36.3280038 C568.741571,36.6430606 568.247968,36.8012372 567.629992,36.8012372 C567.017198,36.8012372 566.483433,36.6223161 566.033879,36.2631773 C565.583028,35.905335 565.365377,35.3893161 565.380923,34.7190101 L565.389992,34.6930795 L566.615579,34.6930795 C566.615579,35.0911142 566.699789,35.3776473 566.868211,35.5526789 C567.036632,35.7264139 567.291854,35.8132814 567.629992,35.8132814 C567.895579,35.8132814 568.093798,35.7432688 568.220761,35.6006505 C568.350316,35.4593287 568.415093,35.2674423 568.415093,35.0249912 L568.415093,35.0249912 Z M564.551773,31.2624612 L563.099466,31.2624612 L563.099466,36.7091836 L561.84149,36.7091836 L561.84149,31.2624612 L560.399547,31.2624612 L560.399547,30.2563539 L564.551773,30.2563539 L564.551773,31.2624612 Z M559.321652,36.7091836 L558.067563,36.7091836 L556.098332,32.5836252 L556.06983,32.5914044 L556.06983,36.7091836 L554.809263,36.7091836 L554.809263,30.2563539 L556.06983,30.2563539 L558.041652,34.3780227 L558.067563,34.368947 L558.067563,30.2563539 L559.321652,30.2563539 L559.321652,36.7091836 Z M552.058818,36.7091836 L553.311611,36.7091836 L553.311611,30.2563539 L552.058818,30.2563539 L552.058818,36.7091836 Z M549.465134,32.5693634 C549.465134,32.1065022 549.378332,31.7577356 549.208615,31.5230637 C549.037603,31.2870953 548.786267,31.169111 548.459789,31.169111 C548.129425,31.169111 547.88068,31.2870953 547.716146,31.5204707 C547.550316,31.7538461 547.468696,32.1039091 547.468696,32.5693634 L547.468696,34.3922845 C547.468696,34.8590353 547.551611,35.210395 547.720032,35.4450669 C547.888453,35.6784423 548.135903,35.7964265 548.463676,35.7964265 C548.788858,35.7964265 549.037603,35.6784423 549.208615,35.4450669 C549.378332,35.210395 549.465134,34.8590353 549.465134,34.3922845 L549.465134,32.5693634 Z M550.717927,34.390988 C550.717927,35.1481615 550.511935,35.7380826 550.102543,36.1633445 C549.69315,36.5886063 549.146429,36.8012372 548.463676,36.8012372 C547.782219,36.8012372 547.238089,36.5886063 546.831287,36.1633445 C546.42319,35.7380826 546.218494,35.1481615 546.218494,34.390988 L546.218494,32.5836252 C546.218494,31.8290448 546.42319,31.2378271 546.831287,30.8086757 C547.238089,30.3782278 547.780923,30.1630038 548.459789,30.1630038 C549.138656,30.1630038 549.685377,30.3782278 550.09736,30.8086757 C550.51064,31.2378271 550.717927,31.8290448 550.717927,32.5836252 L550.717927,34.390988 Z M542.063676,33.3848808 L543.043109,33.3848808 C543.311287,33.3848808 543.515984,33.2863445 543.657198,33.0879754 C543.799709,32.8896063 543.869668,32.6380795 543.869668,32.333395 C543.869668,32.0248208 543.801004,31.7694044 543.659789,31.5658492 C543.51987,31.3635905 543.315174,31.2624612 543.043109,31.2624612 L542.063676,31.2624612 L542.063676,33.3848808 Z M542.063676,34.390988 L542.063676,36.7091836 L540.801814,36.7091836 L540.801814,30.2563539 L543.043109,30.2563539 C543.686996,30.2563539 544.193555,30.4469438 544.566672,30.8281237 C544.938494,31.2080069 545.123757,31.707171 545.123757,32.3243192 C545.123757,32.9440606 544.937198,33.4432246 544.564081,33.8218114 C544.189668,34.2016946 543.683109,34.390988 543.043109,34.390988 L542.063676,34.390988 Z M504.452664,31.2624612 L504.452664,35.7030763 L505.068049,35.7030763 C505.420437,35.7030763 505.691206,35.5500858 505.880356,35.2441047 C506.072097,34.9368271 506.166672,34.5310132 506.166672,34.0253666 L506.166672,32.9310953 C506.166672,32.4280416 506.072097,32.0235243 505.880356,31.7201363 C505.691206,31.4154517 505.420437,31.2624612 505.068049,31.2624612 L504.452664,31.2624612 Z M503.190802,36.7091836 L503.190802,30.2563539 L505.139304,30.2563539 C505.801328,30.2563539 506.346753,30.5065842 506.77817,31.0070448 C507.209587,31.5088019 507.424648,32.1531773 507.424648,32.9414675 L507.424648,34.0279596 C507.424648,34.8162498 507.209587,35.4606252 506.77817,35.9597893 C506.346753,36.4589533 505.801328,36.7091836 505.139304,36.7091836 L503.190802,36.7091836 Z M501.700923,33.8775621 L499.534769,33.8775621 L499.534769,35.7030763 L502.081814,35.7030763 L502.081814,36.7091836 L498.272907,36.7091836 L498.272907,30.2563539 L502.072745,30.2563539 L502.072745,31.2624612 L499.534769,31.2624612 L499.534769,32.8714549 L501.700923,32.8714549 L501.700923,33.8775621 Z M497.21315,31.2624612 L495.760842,31.2624612 L495.760842,36.7091836 L494.502866,36.7091836 L494.502866,31.2624612 L493.060923,31.2624612 L493.060923,30.2563539 L497.21315,30.2563539 L497.21315,31.2624612 Z M491.983028,36.7091836 L490.728939,36.7091836 L488.758413,32.5836252 L488.731206,32.5914044 L488.731206,36.7091836 L487.469344,36.7091836 L487.469344,30.2563539 L488.731206,30.2563539 L490.701733,34.3780227 L490.728939,34.368947 L490.728939,30.2563539 L491.983028,30.2563539 L491.983028,36.7091836 Z M485.98983,33.8775621 L483.823676,33.8775621 L483.823676,35.7030763 L486.370721,35.7030763 L486.370721,36.7091836 L482.561814,36.7091836 L482.561814,30.2563539 L486.361652,30.2563539 L486.361652,31.2624612 L483.823676,31.2624612 L483.823676,32.8714549 L485.98983,32.8714549 L485.98983,33.8775621 Z M477.161976,30.2563539 L478.317603,34.9938744 L478.34481,34.9938744 L479.514688,30.2563539 L481.156146,30.2563539 L481.156146,36.7091836 L479.903352,36.7091836 L479.903352,34.8344013 L480.009587,32.3256158 L479.982381,32.3217262 L478.752907,36.7091836 L477.914688,36.7091836 L476.69817,32.3567325 L476.669668,32.3619186 L476.781085,34.8344013 L476.781085,36.7091836 L475.528291,36.7091836 L475.528291,30.2563539 L477.161976,30.2563539 Z M474.193879,30.2563539 L474.193879,34.6477009 C474.193879,35.3361584 473.993069,35.8677356 473.588858,36.2411363 C473.187239,36.6145369 472.659951,36.8012372 472.006996,36.8012372 C471.35404,36.8012372 470.826753,36.6145369 470.423838,36.2385432 C470.019628,35.8638461 469.818818,35.3335653 469.818818,34.6477009 L469.818818,30.2563539 L471.076794,30.2563539 L471.076794,34.6477009 C471.076794,35.0418461 471.157117,35.3309722 471.320356,35.516376 C471.4823,35.7030763 471.711611,35.7964265 472.006996,35.7964265 C472.310154,35.7964265 472.543352,35.7069659 472.702704,35.5306379 C472.862057,35.3530132 472.939789,35.0587009 472.939789,34.6477009 L472.939789,30.2563539 L474.193879,30.2563539 Z M468.669668,34.6308461 L468.682623,34.6567767 C468.689101,35.3659785 468.52068,35.9014454 468.178656,36.2605842 C467.835336,36.6210196 467.330073,36.8012372 466.664162,36.8012372 C465.996955,36.8012372 465.46319,36.597682 465.065457,36.1879785 C464.666429,35.7782751 464.466915,35.1987262 464.466915,34.4493319 L464.466915,32.5213918 C464.466915,31.773294 464.659951,31.1937451 465.046024,30.7814486 C465.430802,30.3691521 465.946429,30.1630038 466.592907,30.1630038 C467.276955,30.1630038 467.795174,30.3458145 468.144972,30.7127325 C468.494769,31.0796505 468.67485,31.6216 468.68651,32.3398776 L468.673555,32.3658082 L467.460923,32.3658082 C467.479061,31.9418429 467.422057,31.6371584 467.28732,31.450458 C467.15647,31.2624612 466.923271,31.169111 466.592907,31.169111 C466.309182,31.169111 466.092826,31.2806126 465.941247,31.5023192 C465.792259,31.7240259 465.715822,32.0598271 465.715822,32.5084265 L465.715822,34.4480353 C465.715822,34.9031174 465.797441,35.2415117 465.958089,35.4632183 C466.118737,35.6849249 466.353231,35.7964265 466.664162,35.7964265 C466.96732,35.7964265 467.179789,35.7082625 467.29898,35.5319344 C467.419466,35.3569028 467.471287,35.0561079 467.457036,34.6308461 L468.669668,34.6308461 Z M462.101247,32.5693634 C462.101247,32.1065022 462.015741,31.7577356 461.844729,31.5230637 C461.673717,31.2870953 461.423676,31.169111 461.097198,31.169111 C460.765538,31.169111 460.518089,31.2870953 460.353555,31.5204707 C460.187725,31.7538461 460.10481,32.1039091 460.10481,32.5693634 L460.10481,34.3922845 C460.10481,34.8590353 460.18902,35.210395 460.356146,35.4450669 C460.524567,35.6784423 460.773312,35.7964265 461.101085,35.7964265 C461.426267,35.7964265 461.673717,35.6784423 461.844729,35.4450669 C462.015741,35.210395 462.101247,34.8590353 462.101247,34.3922845 L462.101247,32.5693634 Z M463.35404,34.390988 C463.35404,35.1481615 463.149344,35.7380826 462.738656,36.1633445 C462.329263,36.5886063 461.782543,36.8012372 461.101085,36.8012372 C460.418332,36.8012372 459.874202,36.5886063 459.467401,36.1633445 C459.060599,35.7380826 458.854607,35.1481615 458.854607,34.390988 L458.854607,32.5836252 C458.854607,31.8290448 459.060599,31.2378271 459.467401,30.8086757 C459.874202,30.3782278 460.417036,30.1630038 461.097198,30.1630038 C461.774769,30.1630038 462.32149,30.3782278 462.733474,30.8086757 C463.148049,31.2378271 463.35404,31.8290448 463.35404,32.5836252 L463.35404,34.390988 Z M454.721814,31.2624612 L454.721814,35.7030763 L455.337198,35.7030763 C455.689587,35.7030763 455.960356,35.5500858 456.149506,35.2441047 C456.341247,34.9368271 456.435822,34.5310132 456.435822,34.0253666 L456.435822,32.9310953 C456.435822,32.4280416 456.341247,32.0235243 456.149506,31.7201363 C455.960356,31.4154517 455.689587,31.2624612 455.337198,31.2624612 L454.721814,31.2624612 Z M453.459951,36.7091836 L453.459951,30.2563539 L455.408453,30.2563539 C456.070478,30.2563539 456.615903,30.5065842 457.04732,31.0070448 C457.478737,31.5088019 457.693798,32.1531773 457.693798,32.9414675 L457.693798,34.0279596 C457.693798,34.8162498 457.478737,35.4606252 457.04732,35.9597893 C456.615903,36.4589533 456.070478,36.7091836 455.408453,36.7091836 L453.459951,36.7091836 Z M417.730073,31.2624612 L417.730073,35.7030763 L418.346753,35.7030763 C418.697846,35.7030763 418.968615,35.5500858 419.159061,35.2441047 C419.349506,34.9368271 419.444081,34.5310132 419.444081,34.0253666 L419.444081,32.9310953 C419.444081,32.4280416 419.349506,32.0235243 419.159061,31.7201363 C418.968615,31.4154517 418.697846,31.2624612 418.346753,31.2624612 L417.730073,31.2624612 Z M416.469506,36.7091836 L416.469506,30.2563539 L418.416713,30.2563539 C419.078737,30.2563539 419.624162,30.5065842 420.055579,31.0070448 C420.486996,31.5088019 420.702057,32.1531773 420.702057,32.9414675 L420.702057,34.0279596 C420.702057,34.8162498 420.486996,35.4606252 420.055579,35.9597893 C419.624162,36.4589533 419.078737,36.7091836 418.416713,36.7091836 L416.469506,36.7091836 Z M414.988696,33.8775621 L412.822543,33.8775621 L412.822543,35.7030763 L415.369587,35.7030763 L415.369587,36.7091836 L411.56068,36.7091836 L411.56068,30.2563539 L415.360518,30.2563539 L415.360518,31.2624612 L412.822543,31.2624612 L412.822543,32.8714549 L414.988696,32.8714549 L414.988696,33.8775621 Z M406.160842,30.2563539 L407.31647,34.9938744 L407.344972,34.9938744 L408.513555,30.2563539 L410.155012,30.2563539 L410.155012,36.7091836 L408.903514,36.7091836 L408.903514,34.8344013 L409.009749,32.3256158 L408.981247,32.3217262 L407.751773,36.7091836 L406.91485,36.7091836 L405.697036,32.3567325 L405.66983,32.3619186 L405.781247,34.8344013 L405.781247,36.7091836 L404.528453,36.7091836 L404.528453,30.2563539 L406.160842,30.2563539 Z M400.212988,33.1372435 L401.055093,33.1372435 C401.310316,33.1372435 401.505943,33.0581552 401.639385,32.9025716 C401.77153,32.7456915 401.838899,32.5226883 401.838899,32.2335621 C401.838899,31.9379533 401.77153,31.7019849 401.639385,31.5282498 C401.505943,31.3545148 401.312907,31.2663508 401.05898,31.2663508 L400.212988,31.2663508 L400.212988,33.1372435 Z M400.212988,34.1433508 L400.212988,36.7091836 L398.955012,36.7091836 L398.955012,30.2615401 L401.05898,30.2615401 C401.693798,30.2615401 402.191287,30.4287924 402.552745,30.7645937 C402.915498,31.0990984 403.095579,31.5645527 403.095579,32.162253 C403.095579,32.4993508 403.021733,32.788477 402.868858,33.0335211 C402.71987,33.2759722 402.499628,33.4704517 402.210721,33.6156631 C402.541085,33.7271647 402.779466,33.913865 402.924567,34.1744675 C403.072259,34.4337735 403.14481,34.7592025 403.14481,35.149458 L403.14481,35.6058366 C403.14481,35.7821647 403.165538,35.9727546 403.2057,36.1750132 C403.247158,36.3772719 403.319709,36.5237798 403.423352,36.6158334 L403.423352,36.7091836 L402.121328,36.7091836 C402.017684,36.6145369 401.952907,36.4602498 401.926996,36.2476189 C401.899789,36.034988 401.88813,35.8184675 401.88813,35.5967609 L401.88813,35.1572372 C401.88813,34.8356978 401.822057,34.5854675 401.689911,34.4091394 C401.559061,34.2315148 401.369911,34.1433508 401.126348,34.1433508 L400.212988,34.1433508 Z M396.42481,32.5693634 C396.42481,32.1065022 396.338008,31.7577356 396.168291,31.5230637 C395.997279,31.2870953 395.745943,31.169111 395.419466,31.169111 C395.089101,31.169111 394.840356,31.2870953 394.675822,31.5204707 C394.509992,31.7538461 394.428372,32.1039091 394.428372,32.5693634 L394.428372,34.3922845 C394.428372,34.8590353 394.511287,35.210395 394.679709,35.4450669 C394.84813,35.6784423 395.095579,35.7964265 395.423352,35.7964265 C395.748534,35.7964265 395.997279,35.6784423 396.168291,35.4450669 C396.338008,35.210395 396.42481,34.8590353 396.42481,34.3922845 L396.42481,32.5693634 Z M397.677603,34.390988 C397.677603,35.1481615 397.471611,35.7380826 397.062219,36.1633445 C396.652826,36.5886063 396.106105,36.8012372 395.423352,36.8012372 C394.741895,36.8012372 394.197765,36.5886063 393.790964,36.1633445 C393.382866,35.7380826 393.17817,35.1481615 393.17817,34.390988 L393.17817,32.5836252 C393.17817,31.8290448 393.382866,31.2378271 393.790964,30.8086757 C394.197765,30.3782278 394.740599,30.1630038 395.419466,30.1630038 C396.098332,30.1630038 396.645053,30.3782278 397.057036,30.8086757 C397.470316,31.2378271 397.677603,31.8290448 397.677603,32.5836252 L397.677603,34.390988 Z M391.832097,34.0279596 L389.642623,34.0279596 L389.642623,36.7091836 L388.382057,36.7091836 L388.382057,30.2563539 L392.216874,30.2563539 L392.216874,31.2624612 L389.642623,31.2624612 L389.642623,33.0218524 L391.832097,33.0218524 L391.832097,34.0279596 Z M384.053636,33.1372435 L384.895741,33.1372435 C385.152259,33.1372435 385.346591,33.0581552 385.481328,32.9025716 C385.612178,32.7456915 385.679547,32.5226883 385.679547,32.2335621 C385.679547,31.9379533 385.612178,31.7019849 385.481328,31.5282498 C385.346591,31.3545148 385.15485,31.2663508 384.899628,31.2663508 L384.053636,31.2663508 L384.053636,33.1372435 Z M384.053636,34.1433508 L384.053636,36.7091836 L382.79566,36.7091836 L382.79566,30.2615401 L384.899628,30.2615401 C385.535741,30.2615401 386.031935,30.4287924 386.394688,30.7645937 C386.756146,31.0990984 386.937522,31.5645527 386.937522,32.162253 C386.937522,32.4993508 386.862381,32.788477 386.710802,33.0335211 C386.561814,33.2759722 386.341571,33.4704517 386.051368,33.6156631 C386.381733,33.7271647 386.620113,33.913865 386.76651,34.1744675 C386.912907,34.4337735 386.986753,34.7592025 386.986753,35.149458 L386.986753,35.6058366 C386.986753,35.7821647 387.006186,35.9727546 387.047644,36.1750132 C387.089101,36.3772719 387.160356,36.5237798 387.265296,36.6158334 L387.265296,36.7091836 L385.963271,36.7091836 C385.859628,36.6145369 385.79485,36.4602498 385.767644,36.2476189 C385.741733,36.034988 385.728777,35.8184675 385.728777,35.5967609 L385.728777,35.1572372 C385.728777,34.8356978 385.662704,34.5854675 385.531854,34.4091394 C385.399709,34.2315148 385.211854,34.1433508 384.966996,34.1433508 L384.053636,34.1433508 Z M381.301895,33.8775621 L379.135741,33.8775621 L379.135741,35.7030763 L381.682785,35.7030763 L381.682785,36.7091836 L377.873879,36.7091836 L377.873879,30.2563539 L381.673717,30.2563539 L381.673717,31.2624612 L379.135741,31.2624612 L379.135741,32.8714549 L381.301895,32.8714549 L381.301895,33.8775621 Z M373.563595,33.3848808 L374.543028,33.3848808 C374.811206,33.3848808 375.015903,33.2863445 375.158413,33.0879754 C375.299628,32.8896063 375.370883,32.6380795 375.370883,32.333395 C375.370883,32.0248208 375.300923,31.7694044 375.161004,31.5658492 C375.019789,31.3635905 374.815093,31.2624612 374.543028,31.2624612 L373.563595,31.2624612 L373.563595,33.3848808 Z M373.563595,34.390988 L373.563595,36.7091836 L372.303028,36.7091836 L372.303028,30.2563539 L374.543028,30.2563539 C375.186915,30.2563539 375.694769,30.4469438 376.066591,30.8281237 C376.438413,31.2080069 376.624972,31.707171 376.624972,32.3243192 C376.624972,32.9440606 376.437117,33.4432246 376.064,33.8218114 C375.690883,34.2016946 375.183028,34.390988 374.543028,34.390988 L373.563595,34.390988 Z M340.958575,35.0249912 C340.958575,34.7734644 340.893798,34.5750953 340.764243,34.4285874 C340.633393,34.283376 340.405377,34.1381647 340.077603,33.9968429 C339.40651,33.7634675 338.903838,33.4976789 338.569587,33.20207 C338.23404,32.9038681 338.066915,32.4889785 338.066915,31.9535117 C338.066915,31.4245274 338.261247,30.9940795 338.651206,30.6621678 C339.041166,30.3302562 339.538656,30.1630038 340.143676,30.1630038 C340.757765,30.1630038 341.256551,30.3484076 341.640032,30.7205117 C342.02481,31.0900227 342.210073,31.55807 342.198413,32.1220606 L342.189344,32.1492877 L340.966348,32.1492877 C340.966348,31.8536789 340.893798,31.6138208 340.746105,31.4310101 C340.598413,31.2481994 340.38983,31.1561457 340.121652,31.1561457 C339.870316,31.1561457 339.674688,31.232641 339.534769,31.384335 C339.393555,31.536029 339.324891,31.7279155 339.324891,31.9586978 C339.324891,32.1713287 339.402623,32.3450637 339.559385,32.4837924 C339.71485,32.6199281 339.986915,32.7742151 340.374283,32.9414675 C340.984486,33.1489123 341.444405,33.4108114 341.75404,33.7284612 C342.062381,34.046111 342.216551,34.4752625 342.216551,35.0159155 C342.216551,35.5747199 342.029992,36.0116505 341.656874,36.3280038 C341.285053,36.6430606 340.791449,36.8012372 340.174769,36.8012372 C339.56068,36.8012372 339.028211,36.6223161 338.57736,36.2631773 C338.127806,35.905335 337.910154,35.3893161 337.9257,34.7190101 L337.933474,34.6930795 L339.160356,34.6930795 C339.160356,35.0911142 339.244567,35.3776473 339.412988,35.5526789 C339.581409,35.7264139 339.835336,35.8132814 340.174769,35.8132814 C340.440356,35.8132814 340.637279,35.7432688 340.765538,35.6006505 C340.895093,35.4593287 340.958575,35.2674423 340.958575,35.0249912 L340.958575,35.0249912 Z M335.605377,35.0249912 C335.605377,34.7734644 335.539304,34.5750953 335.409749,34.4285874 C335.280194,34.283376 335.050883,34.1381647 334.723109,33.9968429 C334.052016,33.7634675 333.55064,33.4976789 333.215093,33.20207 C332.879547,32.9038681 332.712421,32.4889785 332.712421,31.9535117 C332.712421,31.4245274 332.906753,30.9940795 333.296713,30.6621678 C333.686672,30.3302562 334.184162,30.1630038 334.790478,30.1630038 C335.403271,30.1630038 335.902057,30.3484076 336.285538,30.7205117 C336.670316,31.0900227 336.855579,31.55807 336.845215,32.1220606 L336.83485,32.1492877 L335.611854,32.1492877 C335.611854,31.8536789 335.539304,31.6138208 335.391611,31.4310101 C335.243919,31.2481994 335.035336,31.1561457 334.767158,31.1561457 C334.517117,31.1561457 334.320194,31.232641 334.180275,31.384335 C334.040356,31.536029 333.970397,31.7279155 333.970397,31.9586978 C333.970397,32.1713287 334.04813,32.3450637 334.204891,32.4837924 C334.361652,32.6199281 334.633717,32.7742151 335.019789,32.9414675 C335.629992,33.1489123 336.091206,33.4108114 336.399547,33.7284612 C336.707887,34.046111 336.862057,34.4752625 336.862057,35.0159155 C336.862057,35.5747199 336.675498,36.0116505 336.303676,36.3280038 C335.930559,36.6430606 335.438251,36.8012372 334.820275,36.8012372 C334.206186,36.8012372 333.673717,36.6223161 333.224162,36.2631773 C332.773312,35.905335 332.55566,35.3893161 332.571206,34.7190101 L332.580275,34.6930795 L333.805862,34.6930795 C333.805862,35.0911142 333.890073,35.3776473 334.058494,35.5526789 C334.226915,35.7264139 334.480842,35.8132814 334.820275,35.8132814 C335.085862,35.8132814 335.282785,35.7432688 335.411045,35.6006505 C335.540599,35.4593287 335.605377,35.2674423 335.605377,35.0249912 L335.605377,35.0249912 Z M331.248453,33.8775621 L329.0823,33.8775621 L329.0823,35.7030763 L331.629344,35.7030763 L331.629344,36.7091836 L327.821733,36.7091836 L327.821733,30.2563539 L331.620275,30.2563539 L331.620275,31.2624612 L329.0823,31.2624612 L329.0823,32.8714549 L331.248453,32.8714549 L331.248453,33.8775621 Z M323.493312,33.1372435 L324.335417,33.1372435 C324.591935,33.1372435 324.786267,33.0581552 324.919709,32.9025716 C325.05315,32.7456915 325.119223,32.5226883 325.119223,32.2335621 C325.119223,31.9379533 325.05315,31.7019849 324.919709,31.5282498 C324.786267,31.3545148 324.593231,31.2663508 324.339304,31.2663508 L323.493312,31.2663508 L323.493312,33.1372435 Z M323.493312,34.1433508 L323.493312,36.7091836 L322.236632,36.7091836 L322.236632,30.2615401 L324.339304,30.2615401 C324.974121,30.2615401 325.472907,30.4287924 325.834364,30.7645937 C326.195822,31.0990984 326.375903,31.5645527 326.375903,32.162253 C326.375903,32.4993508 326.300761,32.788477 326.150478,33.0335211 C326.000194,33.2759722 325.779951,33.4704517 325.491045,33.6156631 C325.821409,33.7271647 326.059789,33.913865 326.206186,34.1744675 C326.352583,34.4337735 326.425134,34.7592025 326.425134,35.149458 L326.425134,35.6058366 C326.425134,35.7821647 326.445862,35.9727546 326.48732,36.1750132 C326.528777,36.3772719 326.601328,36.5237798 326.703676,36.6158334 L326.703676,36.7091836 L325.402947,36.7091836 C325.299304,36.6145369 325.234526,36.4602498 325.20732,36.2476189 C325.181409,36.034988 325.167158,35.8184675 325.167158,35.5967609 L325.167158,35.1572372 C325.167158,34.8356978 325.102381,34.5854675 324.97153,34.4091394 C324.839385,34.2315148 324.650235,34.1433508 324.405377,34.1433508 L323.493312,34.1433508 Z M320.825781,35.7510479 C320.652178,36.0298019 320.390478,36.2735495 320.041976,36.4848839 C319.693474,36.6962183 319.252988,36.8012372 318.717927,36.8012372 C318.027401,36.8012372 317.472907,36.5989785 317.055741,36.1944612 C316.637279,35.7899438 316.428696,35.2142845 316.428696,34.4661868 L316.428696,32.4993508 C316.428696,31.7577356 316.630802,31.1820763 317.033717,30.7749659 C317.436632,30.3678555 317.970397,30.1630038 318.633717,30.1630038 C319.348858,30.1630038 319.883919,30.3380353 320.24149,30.6880984 C320.599061,31.0381615 320.785619,31.5386221 320.79987,32.1907767 L320.790802,32.2167073 L319.607968,32.2167073 C319.600194,31.8536789 319.51987,31.5878902 319.366996,31.4206379 C319.215417,31.2533855 318.982219,31.169111 318.669992,31.169111 C318.362947,31.169111 318.121976,31.2780196 317.948372,31.4958366 C317.773474,31.7123571 317.686672,32.0429722 317.686672,32.4863855 L317.686672,34.4648902 C317.686672,34.9173792 317.774769,35.2531804 317.950964,35.4697009 C318.125862,35.687518 318.382381,35.7964265 318.717927,35.7964265 C318.969263,35.7964265 319.154526,35.7614202 319.273717,35.6940006 C319.394202,35.6265811 319.492664,35.5254517 319.569101,35.3932057 L319.569101,34.2354044 L318.717927,34.2354044 L318.717927,33.3498744 L320.825781,33.3498744 L320.825781,35.7510479 Z M314.031935,32.5693634 C314.031935,32.1065022 313.946429,31.7577356 313.774121,31.5230637 C313.603109,31.2870953 313.354364,31.169111 313.026591,31.169111 C312.694931,31.169111 312.447482,31.2870953 312.282947,31.5204707 C312.117117,31.7538461 312.034202,32.1039091 312.034202,32.5693634 L312.034202,34.3922845 C312.034202,34.8590353 312.118413,35.210395 312.286834,35.4450669 C312.455255,35.6784423 312.702704,35.7964265 313.030478,35.7964265 C313.35566,35.7964265 313.603109,35.6784423 313.774121,35.4450669 C313.946429,35.210395 314.031935,34.8590353 314.031935,34.3922845 L314.031935,32.5693634 Z M315.284729,34.390988 C315.284729,35.1481615 315.080032,35.7380826 314.669344,36.1633445 C314.258656,36.5886063 313.713231,36.8012372 313.030478,36.8012372 C312.34902,36.8012372 311.803595,36.5886063 311.396794,36.1633445 C310.989992,35.7380826 310.785296,35.1481615 310.785296,34.390988 L310.785296,32.5836252 C310.785296,31.8290448 310.989992,31.2378271 311.396794,30.8086757 C311.803595,30.3782278 312.347725,30.1630038 313.026591,30.1630038 C313.705457,30.1630038 314.252178,30.3782278 314.664162,30.8086757 C315.077441,31.2378271 315.284729,31.8290448 315.284729,32.5836252 L315.284729,34.390988 Z M306.648615,33.1372435 L307.490721,33.1372435 C307.747239,33.1372435 307.941571,33.0581552 308.075012,32.9025716 C308.208453,32.7456915 308.274526,32.5226883 308.274526,32.2335621 C308.274526,31.9379533 308.208453,31.7019849 308.075012,31.5282498 C307.941571,31.3545148 307.748534,31.2663508 307.494607,31.2663508 L306.648615,31.2663508 L306.648615,33.1372435 Z M306.648615,34.1433508 L306.648615,36.7091836 L305.391935,36.7091836 L305.391935,30.2615401 L307.494607,30.2615401 C308.129425,30.2615401 308.628211,30.4287924 308.989668,30.7645937 C309.351126,31.0990984 309.532502,31.5645527 309.532502,32.162253 C309.532502,32.4993508 309.456065,32.788477 309.305781,33.0335211 C309.155498,33.2759722 308.935255,33.4704517 308.646348,33.6156631 C308.976713,33.7271647 309.215093,33.913865 309.36149,34.1744675 C309.507887,34.4337735 309.580437,34.7592025 309.580437,35.149458 L309.580437,35.6058366 C309.580437,35.7821647 309.601166,35.9727546 309.642623,36.1750132 C309.684081,36.3772719 309.756632,36.5237798 309.85898,36.6158334 L309.85898,36.7091836 L308.558251,36.7091836 C308.454607,36.6145369 308.38983,36.4602498 308.362623,36.2476189 C308.336713,36.034988 308.322462,35.8184675 308.322462,35.5967609 L308.322462,35.1572372 C308.322462,34.8356978 308.257684,34.5854675 308.126834,34.4091394 C307.994688,34.2315148 307.805538,34.1433508 307.561976,34.1433508 L306.648615,34.1433508 Z M301.077765,33.3848808 L302.055903,33.3848808 C302.325377,33.3848808 302.530073,33.2863445 302.671287,33.0879754 C302.812502,32.8896063 302.883757,32.6380795 302.883757,32.333395 C302.883757,32.0248208 302.813798,31.7694044 302.673879,31.5658492 C302.53396,31.3635905 302.326672,31.2624612 302.055903,31.2624612 L301.077765,31.2624612 L301.077765,33.3848808 Z M301.077765,34.390988 L301.077765,36.7091836 L299.815903,36.7091836 L299.815903,30.2563539 L302.055903,30.2563539 C302.699789,30.2563539 303.207644,30.4469438 303.579466,30.8281237 C303.951287,31.2080069 304.136551,31.707171 304.136551,32.3243192 C304.136551,32.9440606 303.949992,33.4432246 303.576874,33.8218114 C303.203757,34.2016946 302.697198,34.390988 302.055903,34.390988 L301.077765,34.390988 Z M296.118413,36.7091836 L294.865619,36.7091836 L292.895093,32.5836252 L292.867887,32.5914044 L292.867887,36.7091836 L291.606024,36.7091836 L291.606024,30.2563539 L292.867887,30.2563539 L294.838413,34.3780227 L294.865619,34.368947 L294.865619,30.2563539 L296.118413,30.2563539 L296.118413,36.7091836 Z M288.854283,36.7091836 L290.107077,36.7091836 L290.107077,30.2563539 L288.854283,30.2563539 L288.854283,36.7091836 Z M259.948049,32.5693634 C259.948049,32.1065022 259.862543,31.7577356 259.690235,31.5230637 C259.519223,31.2870953 259.270478,31.169111 258.942704,31.169111 C258.611045,31.169111 258.363595,31.2870953 258.197765,31.5204707 C258.033231,31.7538461 257.950316,32.1039091 257.950316,32.5693634 L257.950316,34.3922845 C257.950316,34.8590353 258.034526,35.210395 258.202947,35.4450669 C258.371368,35.6784423 258.618818,35.7964265 258.946591,35.7964265 C259.271773,35.7964265 259.519223,35.6784423 259.690235,35.4450669 C259.862543,35.210395 259.948049,34.8590353 259.948049,34.3922845 L259.948049,32.5693634 Z M261.200842,34.390988 C261.200842,35.1481615 260.996146,35.7380826 260.585457,36.1633445 C260.174769,36.5886063 259.628049,36.8012372 258.946591,36.8012372 C258.265134,36.8012372 257.719709,36.5886063 257.312907,36.1633445 C256.90481,35.7380826 256.701409,35.1481615 256.701409,34.390988 L256.701409,32.5836252 C256.701409,31.8290448 256.90481,31.2378271 257.312907,30.8086757 C257.719709,30.3782278 258.263838,30.1630038 258.942704,30.1630038 C259.621571,30.1630038 260.166996,30.3782278 260.580275,30.8086757 C260.993555,31.2378271 261.200842,31.8290448 261.200842,32.5836252 L261.200842,34.390988 Z M255.420113,36.7091836 L254.16732,36.7091836 L252.196794,32.5836252 L252.169587,32.5914044 L252.169587,36.7091836 L250.907725,36.7091836 L250.907725,30.2563539 L252.169587,30.2563539 L254.140113,34.3780227 L254.16732,34.368947 L254.16732,30.2563539 L255.420113,30.2563539 L255.420113,36.7091836 Z" id="Fill-8" fill="#FEFEFE"></path>
                <path d="M319.299757,162.786364 C319.194818,163.175323 318.984939,163.521497 318.671417,163.824885 C318.356599,164.128273 318.022348,164.272188 317.66996,164.256629 C317.425101,164.241071 316.906883,163.910456 316.115304,163.264784 C315.32502,162.620409 314.954494,162.173106 315.006316,161.922875 C315.034818,161.813967 315.097004,161.670052 315.191579,161.491131 C315.286154,161.313506 315.345749,161.176074 315.370364,161.082724 L317.995142,151.280957 C318.091012,150.923115 317.809879,150.666402 317.151741,150.510819 C316.424939,150.324118 316.050526,150.067405 316.028502,149.74068 C316.012955,149.569538 316.025911,149.407472 316.067368,149.250591 C316.159352,148.909604 316.43919,148.50379 316.905587,148.037039 C317.542996,147.400443 317.932955,146.98685 318.076761,146.80015 C318.425263,146.19467 318.77247,145.587894 319.123563,144.979822 C319.570526,144.29655 320.119838,143.954267 320.772794,143.954267 C321.442591,143.954267 322.055385,144.155229 322.617652,144.559746 C323.24081,145.012235 323.476599,145.525661 323.323725,146.100024 L319.180567,161.572812 C319.137814,161.728396 319.159838,161.926765 319.242753,162.16792 C319.325668,162.409074 319.346397,162.615222 319.299757,162.786364" id="Fill-14" fill="#005573"></path>
                <polygon id="Fill-16" fill="#221F20" points="563.203887 166.364139 585.344777 166.364139 585.344777 165.573256 563.203887 165.573256"></polygon>
                <path d="M404.598931,227.761056 C404.589862,228.212249 404.263385,228.531195 403.618202,228.717895 C403.421279,228.686779 403.123304,228.694558 402.730753,228.741233 C402.450915,228.741233 401.544032,228.966829 400.011401,229.418021 C398.290915,229.884772 397.000551,230.320406 396.142899,230.724924 C395.912291,230.833832 395.697231,230.97645 395.495126,231.156668 C395.294316,231.334293 395.171239,231.42505 395.124599,231.42505 C394.887514,231.456167 394.261765,231.051649 393.244761,230.211498 C392.95715,230.024797 392.670834,229.822539 392.385814,229.604722 C392.102089,229.386905 391.969943,229.130192 391.991968,228.834583 C392.003628,228.725674 392.805571,227.706602 394.395206,225.777365 C396.348891,223.412495 397.880227,221.436583 398.994397,219.848334 C400.716178,217.344734 401.720227,215.361044 402.009134,213.898558 C400.735611,214.396425 399.385652,215.516627 397.95796,217.259163 C397.855611,217.336955 397.78047,217.48087 397.729943,217.690908 C397.682008,217.900946 397.621117,218.044861 397.549862,218.122652 C397.369781,218.324911 397.131401,218.42604 396.836016,218.42604 C396.32298,218.42604 395.730915,218.177107 395.062413,217.679239 C394.772211,217.508097 394.482008,217.336955 394.191806,217.165813 C393.844599,216.963555 393.670996,216.784633 393.674883,216.62905 C393.687838,216.271208 394.160713,215.578861 395.096097,214.552009 C396.09885,213.462924 397.176745,212.537201 398.328486,211.773545 C399.701765,210.84134 400.879417,210.374589 401.85885,210.374589 C402.231968,210.374589 402.570105,210.495167 402.875854,210.736321 C403.179012,210.977476 403.473101,211.22252 403.752939,211.471454 C404.90468,212.342722 405.604275,213.167315 405.850429,213.945233 C405.893182,214.100816 405.900955,214.303075 405.869862,214.552009 C405.736421,215.641094 404.943547,217.414747 403.492534,219.872968 C402.119255,222.191163 400.704518,224.205971 399.250915,225.917391 C399.753587,225.761807 400.449296,225.528432 401.341927,225.217264 C401.441684,225.169293 401.617879,225.061681 401.873101,224.890539 C402.041522,224.78163 402.195692,224.734955 402.334316,224.750514 C402.69966,224.797189 403.169943,225.236712 403.746462,226.069085 C404.319093,226.901457 404.604113,227.465447 404.598931,227.761056" id="Fill-17" fill="#005573"></path>
                <polygon id="Fill-19" fill="#221F20" points="563.203887 233.135432 585.344777 233.135432 585.344777 232.345845 563.203887 232.345845"></polygon>
                <polygon id="Fill-20" fill="#FEFEFE" points="562.157085 260.203477 562.157085 281.74273 562.157085 283.100197 563.513522 283.100197 585.035142 283.100197 586.390283 283.100197 586.390283 281.74273 586.390283 260.203477 586.390283 258.847307 585.035142 258.847307 563.513522 258.847307 562.157085 258.847307"></polygon>
                <polygon id="Stroke-21" stroke="#221F20" stroke-width="2" points="562.157085 260.203477 562.157085 281.74273 562.157085 283.100197 563.513522 283.100197 585.035142 283.100197 586.390283 283.100197 586.390283 281.74273 586.390283 260.203477 586.390283 258.847307 585.035142 258.847307 563.513522 258.847307 562.157085 258.847307"></polygon>
                <path d="M575.28719,87.5535274 C575.183547,87.9424864 574.972372,88.2886599 574.65885,88.5920479 C574.344032,88.895436 574.009781,89.0393508 573.657393,89.0237924 C573.412534,89.0082341 572.894316,88.6776189 572.104032,88.031947 C571.312453,87.3862751 570.941927,86.9389722 570.993749,86.6900385 C571.023547,86.58113 571.084437,86.4372151 571.179012,86.258294 C571.273587,86.0793729 571.331887,85.9432372 571.357798,85.8498871 L573.982575,76.0481205 C574.07715,75.6902782 573.798607,75.4335653 573.139174,75.2779817 C572.411077,75.0912814 572.03796,74.8345685 572.017231,74.5078429 C572.000389,74.3367009 572.013344,74.1733382 572.054802,74.0177546 C572.146785,73.6754707 572.425328,73.2709533 572.891725,72.8042025 C573.530429,72.1663098 573.920389,71.7540132 574.064194,71.5673129 C574.411401,70.9605369 574.761198,70.3537609 575.1097,69.7469849 C575.55796,69.062417 576.107271,68.7201331 576.760227,68.7201331 C577.430024,68.7201331 578.044113,68.9223918 578.605085,69.3269091 C579.229538,69.7781016 579.465328,70.2915274 579.309862,70.8671868 L575.168,86.3399754 C575.126543,86.495559 575.148567,86.6939281 575.230186,86.9350826 C575.313101,87.1762372 575.332534,87.3823855 575.28719,87.5535274" id="Fill-22" fill="#005573"></path>
                <path d="M575.28719,161.455087 C575.183547,161.844046 574.973668,162.19022 574.660146,162.493608 C574.344032,162.796996 574.011077,162.940911 573.657393,162.925352 C573.412534,162.909794 572.895611,162.579179 572.104032,161.933507 C571.312453,161.289132 570.941927,160.840532 570.995045,160.591598 C571.023547,160.48269 571.084437,160.338775 571.179012,160.159854 C571.273587,159.980933 571.333182,159.843501 571.359093,159.751447 L573.982575,149.94968 C574.078445,149.591838 573.798607,149.335125 573.14047,149.179542 C572.412372,148.992841 572.03796,148.734832 572.017231,148.409403 C572.000389,148.238261 572.01464,148.074898 572.056097,147.919315 C572.146785,147.577031 572.426623,147.172513 572.89302,146.705762 C573.531725,146.06787 573.920389,145.654277 574.064194,145.468873 C574.412696,144.862097 574.761198,144.255321 575.110996,143.648545 C575.55796,142.963977 576.108567,142.621693 576.761522,142.621693 C577.430024,142.621693 578.044113,142.823952 578.605085,143.228469 C579.229538,143.679662 579.465328,144.193087 579.309862,144.76745 L575.168,160.241535 C575.126543,160.397119 575.148567,160.595488 575.230186,160.835346 C575.314397,161.077797 575.332534,161.283945 575.28719,161.455087" id="Fill-24" fill="#005573"></path>
                <path d="M580.222704,226.72085 C580.213636,227.172043 579.887158,227.490989 579.241976,227.677689 C579.045053,227.646573 578.747077,227.654352 578.354526,227.701027 C578.073393,227.701027 577.167806,227.926623 575.635174,228.377815 C573.914688,228.844566 572.624324,229.2802 571.766672,229.684718 C571.536065,229.793626 571.321004,229.937541 571.118899,230.116462 C570.918089,230.295383 570.795012,230.384844 570.748372,230.384844 C570.511287,230.415961 569.884243,230.011443 568.868534,229.171292 C568.580923,228.984591 568.294607,228.782333 568.009587,228.564516 C567.725862,228.346699 567.593717,228.089986 567.614445,227.794377 C567.627401,227.685468 568.429344,226.666396 570.01898,224.737159 C571.972664,222.372289 573.504,220.396377 574.61817,218.809424 C576.339951,216.304528 577.344,214.320838 577.632907,212.858352 C576.359385,213.356219 575.009425,214.476421 573.581733,216.218957 C573.479385,216.296749 573.404243,216.440664 573.353717,216.650702 C573.305781,216.86074 573.244891,217.004655 573.173636,217.082446 C572.993555,217.284705 572.755174,217.385834 572.459789,217.385834 C571.946753,217.385834 571.354688,217.136901 570.686186,216.639033 C570.395984,216.467891 570.104486,216.296749 569.815579,216.125607 C569.468372,215.923349 569.294769,215.744427 569.298656,215.588844 C569.311611,215.231002 569.784486,214.538655 570.71987,213.511803 C571.722623,212.422718 572.800518,211.496995 573.952259,210.734636 C575.325538,209.801134 576.50319,209.334383 577.482623,209.334383 C577.855741,209.334383 578.193879,209.454961 578.498332,209.696115 C578.802785,209.93727 579.095579,210.182314 579.376713,210.431248 C580.528453,211.302516 581.228049,212.127109 581.474202,212.905027 C581.516955,213.06061 581.524729,213.262869 581.493636,213.511803 C581.360194,214.600888 580.56732,216.374541 579.116308,218.832762 C577.743028,221.150957 576.328291,223.165765 574.874688,224.877185 C575.376065,224.721601 576.073069,224.488226 576.9657,224.177058 C577.065457,224.130383 577.241652,224.021475 577.496874,223.850333 C577.664,223.741424 577.819466,223.694749 577.956794,223.710308 C578.323433,223.756983 578.793717,224.196506 579.370235,225.028879 C579.942866,225.861251 580.227887,226.425241 580.222704,226.72085" id="Fill-26" fill="#005573"></path>
                <path d="M575.330202,271.548633 L575.689069,268.618475 L572.740405,272.312289 L575.330202,271.548633 Z M582.482915,273.310617 C582.444049,273.623081 582.077409,273.891463 581.3817,274.118356 C580.700243,274.218188 579.930688,274.337469 579.075628,274.478791 L578.465425,279.449687 C578.457652,279.505438 578.462834,279.591009 578.480972,279.703807 C578.496518,279.816605 578.491336,279.916438 578.466721,280.000712 C578.398057,280.298914 578.215385,280.555627 577.917409,280.776037 C577.618138,280.99515 577.347368,281.091094 577.099919,281.06257 C576.16583,280.949772 575.191579,280.276873 574.17587,279.045169 C574.069636,278.903848 574.054089,278.65621 574.127935,278.302258 C574.137004,278.230949 574.201781,278.146674 574.323563,278.046841 C574.442753,277.948305 574.508826,277.856251 574.51919,277.77068 L574.861215,274.988327 C573.522915,275.370803 572.517571,275.648261 571.845182,275.81681 C570.641619,276.113715 569.820243,276.277078 569.382348,276.305602 C569.005344,276.334125 568.452146,276.092971 567.722753,275.583434 C567.078866,275.130945 566.670769,274.769214 566.503644,274.500832 C566.436275,274.400999 566.410364,274.29598 566.425911,274.181885 C566.44664,274.01204 566.653927,273.708652 567.049069,273.269128 C567.238219,273.12651 567.508988,272.886652 567.861377,272.546961 C567.896356,272.518438 569.313684,270.777198 572.118543,267.321945 C574.865101,263.938002 576.329069,262.204542 576.50915,262.118971 C577.058462,261.836327 577.456194,261.701488 577.701053,261.71575 C578.057328,261.730012 578.657166,262.030807 579.504453,262.618135 C580.34915,263.205463 580.785749,263.641097 580.81166,263.925037 C580.840162,264.080621 580.647126,264.385305 580.233846,264.837794 L579.525182,270.613835 C580.06413,270.528264 580.34915,270.486775 580.380243,270.486775 C580.566802,270.486775 580.723563,270.536043 580.851822,270.634579 C581.103158,270.861472 581.442591,271.332113 581.868826,272.047797 C582.29247,272.763482 582.497166,273.183557 582.482915,273.310617 L582.482915,273.310617 Z" id="Fill-28" fill="#005573"></path>
                <path d="M309.033457,99.4500975 L199.228113,325.658274" id="Stroke-46" stroke="#EAB594" stroke-width="2"></path>
                <path d="M309.365506,173.22382 L228.839514,338.495088" id="Stroke-48" stroke="#EAB594" stroke-width="2"></path>
                <path d="M382.844113,237.30585 L257.103547,355.383428" id="Stroke-50" stroke="#EAB594" stroke-width="2"></path>
                <path d="M573.359028,101.947603 L573.359028,129.572767" id="Stroke-52" stroke="#C85C19" stroke-width="2"></path>
                <path d="M573.359028,175.461112 L573.359028,195.696055" id="Stroke-54" stroke="#C85C19" stroke-width="2"></path>
                <path d="M573.359028,241.67023 L573.359028,247.019712" id="Stroke-56" stroke="#C85C19" stroke-width="2"></path>
                <path d="M573.359028,292.959788 L573.359028,318.996703" id="Stroke-58" stroke="#EAB594" stroke-width="2"></path>
                <path d="M381.930623,311.335378 C381.930623,311.335378 370.913296,311.335378 370.913296,322.361069 L370.913296,378.81717 C370.913296,378.81717 370.913296,389.842861 381.930623,389.842861 L627.982121,389.842861 C627.982121,389.842861 638.999449,389.842861 638.999449,378.81717 L638.999449,322.361069 C638.999449,322.361069 638.999449,311.335378 627.982121,311.335378 L381.930623,311.335378 Z" id="Fill-30" fill="#C85C19"></path>
                <path d="M11.0171984,311.335378 C11.0171984,311.335378 -0.000129554656,311.335378 -0.000129554656,322.361069 L-0.000129554656,378.81717 C-0.000129554656,378.81717 -0.000129554656,389.842861 11.0171984,389.842861 L352.551773,389.842861 C352.551773,389.842861 363.569101,389.842861 363.569101,378.81717 L363.569101,322.361069 C363.569101,322.361069 363.569101,311.335378 352.551773,311.335378 L11.0171984,311.335378 Z" id="Fill-60" fill="#C85C19"></path>
                <text id="i)-Procedures-for-ad" font-family="RobotoCondensed-Regular, Roboto Condensed" font-size="11" font-style="condensed" font-weight="normal" line-spacing="13" fill="#212121">
                    <tspan x="27" y="59">i) Procedures for addressing lack of/ </tspan>
                    <tspan x="27" y="72">inconsistencies in connectivity have been </tspan>
                    <tspan x="27" y="85">established (e.g. provision of several SIM </tspan>
                    <tspan x="27" y="98">cards so health workers can use di erent </tspan>
                    <tspan x="27" y="111">networks when necessary) </tspan>
                </text>
                <text id="ii)-Procedures-for-a" font-family="RobotoCondensed-Regular, Roboto Condensed" font-size="11" font-style="condensed" font-weight="normal" line-spacing="13" fill="#212121">
                    <tspan x="27" y="132">ii) Procedures for addressing lack of/ </tspan>
                    <tspan x="27" y="145">inconsistencies in electricity have been </tspan>
                    <tspan x="27" y="158">established (e.g. provision of solar </tspan>
                    <tspan x="27" y="171">chargers, setting up charging stations in </tspan>
                    <tspan x="27" y="184">communities) </tspan>
                </text>
                <text id="iii)-Information-reg" font-family="RobotoCondensed-Regular, Roboto Condensed" font-size="11" font-style="condensed" font-weight="normal" line-spacing="13" fill="#212121">
                    <tspan x="27" y="206">iii) Information regarding these strategies </tspan>
                    <tspan x="27" y="219">is included within the standard operating </tspan>
                    <tspan x="27" y="232">procedures/job aids provided to end-users </tspan>
                    <tspan x="27" y="245">and secondary users </tspan>
                </text>
                <text id="Total-points-earned-" font-family="RobotoCondensed-Bold, Roboto Condensed" font-size="11" font-style="condensed" font-weight="bold" line-spacing="13" fill="#212121">
                    <tspan x="27" y="268">Total points earned (out of a possible 9 )</tspan>
                </text>
                <text id="0" font-family="RobotoCondensed-Regular, Roboto Condensed" font-size="11" font-style="condensed" font-weight="normal" line-spacing="13" fill="#212121">
                    <tspan x="247.262207" y="84.4467773">0</tspan>
                </text>
                <text id="2" font-family="RobotoCondensed-Regular, Roboto Condensed" font-size="11" font-style="condensed" font-weight="normal" line-spacing="13" fill="#212121">
                    <tspan x="385.267578" y="84.4467773">2</tspan>
                </text>
                <text id="3" font-family="RobotoCondensed-Regular, Roboto Condensed" font-size="11" font-style="condensed" font-weight="normal" line-spacing="13" fill="#212121">
                    <tspan x="469.267578" y="84.4467773">3</tspan>
                </text>
                <text id="0" font-family="RobotoCondensed-Regular, Roboto Condensed" font-size="11" font-style="condensed" font-weight="normal" line-spacing="13" fill="#212121">
                    <tspan x="247.262207" y="160.446777">0</tspan>
                </text>
                <text id="2" font-family="RobotoCondensed-Regular, Roboto Condensed" font-size="11" font-style="condensed" font-weight="normal" line-spacing="13" fill="#212121">
                    <tspan x="385.267578" y="160.446777">2</tspan>
                </text>
                <text id="3" font-family="RobotoCondensed-Regular, Roboto Condensed" font-size="11" font-style="condensed" font-weight="normal" line-spacing="13" fill="#212121">
                    <tspan x="469.267578" y="160.446777">3</tspan>
                </text>
                <text id="0" font-family="RobotoCondensed-Regular, Roboto Condensed" font-size="11" font-style="condensed" font-weight="normal" line-spacing="13" fill="#212121">
                    <tspan x="247.262207" y="225.446777">0</tspan>
                </text>
                <text id="1" font-family="RobotoCondensed-Regular, Roboto Condensed" font-size="11" font-style="condensed" font-weight="normal" line-spacing="13" fill="#212121">
                    <tspan x="307.267578" y="225.446777">1</tspan>
                </text>
                <text id="3" font-family="RobotoCondensed-Regular, Roboto Condensed" font-size="11" font-style="condensed" font-weight="normal" line-spacing="13" fill="#212121">
                    <tspan x="469.267578" y="225.446777">3</tspan>
                </text>
                <text id="Use-the-guidelines-g" font-family="RobotoCondensed-Regular, Roboto Condensed" font-size="13" font-style="condensed" font-weight="normal" line-spacing="17" fill="#FFFFFF">
                    <tspan x="17" y="337">Use the guidelines given in Table 1 to select the most appropriate </tspan>
                    <tspan x="17" y="354">response. In this example the team has selected In progress for </tspan>
                    <tspan x="17" y="371">questions (i) and (ii); and Performed for question (iii). </tspan>
                </text>
                <text id="Write-the-appropriat" font-family="RobotoCondensed-Regular, Roboto Condensed" font-size="13" font-style="condensed" font-weight="normal" line-spacing="17" fill="#FFFFFF">
                    <tspan x="387" y="337">Write the appropriate points value in the </tspan>
                    <tspan x="387" y="354">Points earned column. Then add up your total </tspan>
                    <tspan x="387" y="371">and write it in the Total points earned box. </tspan>
                </text>
            </g>
        </g>
    </g>
</svg>