<?xml version="1.0" encoding="UTF-8"?>
<svg width="193px" height="94px" viewBox="0 0 193 94" version="1.1" xmlns="http://www.w3.org/2000/svg" xmlns:xlink="http://www.w3.org/1999/xlink">
    <!-- Generator: Sketch 43.1 (39012) - http://www.bohemiancoding.com/sketch -->
    <title>Group 2</title>
    <desc>Created with Sketch.</desc>
    <defs></defs>
    <g id="Planning-&amp;-Guidance-(CMS)" stroke="none" stroke-width="1" fill="none" fill-rule="evenodd">
        <g id="Dashboard---Team-member" transform="translate(-659.000000, -828.000000)">
            <g id="Flex---1---Improve-project" transform="translate(30.000000, 719.000000)">
                <g id="Group-5" transform="translate(11.000000, 108.000000)">
                    <g id="Group-4" transform="translate(403.000000, 0.000000)">
                        <g id="Group-2" transform="translate(215.000000, 1.000000)">
                            <g id="Group" transform="translate(0.000000, 19.105691)">
                                <polygon id="Fill-81" fill="#0E424F" points="15.5895616 17.5092457 6.86154406 16.5184436 0.397156636 73.4215845 9.12517421 74.4128521"></polygon>
                                <polygon id="Fill-82" fill="#231F1F" points="14.0703677 23.1005727 7.08804681 22.3076517 1.91616425 67.8305368 8.89895093 68.6229922"></polygon>
                                <polygon id="Fill-84" fill="#231F1F" points="8.57533566 63.4631856 3.38901431 62.8741985 3.34569793 63.2536645 8.53248504 63.8426516"></polygon>
                                <polygon id="Fill-86" fill="#231F1F" points="8.74771621 61.9458803 3.56139487 61.3568931 3.51807849 61.7363591 8.7048656 62.3248807"></polygon>
                                <polygon id="Fill-88" fill="#231F1F" points="8.92009677 60.4283421 3.73377543 59.839355 3.69045905 60.218821 8.87724616 60.8078081"></polygon>
                                <polygon id="Fill-90" fill="#231F1F" points="12.6194087 27.8670849 7.43262162 27.2780978 7.38930524 27.6575638 12.5760924 28.2465509"></polygon>
                                <polygon id="Fill-92" fill="#231F1F" points="12.6707829 25.4392939 7.92694069 24.9010574 7.88409008 25.2800579 12.6274665 25.8187599"></polygon>
                                <polygon id="Fill-95" fill="#744C4C" points="63.494217 74.7986038 72.7070985 74.7986038 72.7070985 14.7358845 63.494217 14.7358845"></polygon>
                                <polygon id="Fill-96" fill="#231F1F" points="63.494217 20.4418429 72.7070985 20.4418429 72.7070985 19.340693 63.494217 19.340693"></polygon>
                                <polygon id="Fill-98" fill="#231F1F" points="63.494217 23.2447698 72.7070985 23.2447698 72.7070985 22.1436199 63.494217 22.1436199"></polygon>
                                <polygon id="Fill-100" fill="#231F1F" points="63.494217 67.2907639 72.7070985 67.2907639 72.7070985 66.189614 63.494217 66.189614"></polygon>
                                <polygon id="Fill-102" fill="#231F1F" points="63.494217 64.487837 72.7070985 64.487837 72.7070985 63.3866871 63.494217 63.3866871"></polygon>
                                <path d="M71.3051849,30.6525517 C71.3051849,28.8832623 69.8706209,27.4492067 68.1007043,27.4492067 C66.3307877,27.4492067 64.8962238,28.8832623 64.8962238,30.6525517 C64.8962238,32.4218411 66.3307877,33.8558967 68.1007043,33.8558967 C69.8706209,33.8558967 71.3051849,32.4218411 71.3051849,30.6525517" id="Fill-104" fill="#231F1F"></path>
                                <path d="M69.7027583,30.6525517 C69.7027583,29.767907 68.9854763,29.0508792 68.1009838,29.0508792 C67.2155597,29.0508792 66.4982777,29.767907 66.4982777,30.6525517 C66.4982777,31.5371964 67.2155597,32.2542242 68.1009838,32.2542242 C68.9854763,32.2542242 69.7027583,31.5371964 69.7027583,30.6525517" id="Fill-106" fill="#231F1F"></path>
                                <polygon id="Fill-109" fill="#BC8F6E" points="25.5709596 74.7986038 35.1056865 74.7986038 35.1056865 12.6406734 25.5709596 12.6406734"></polygon>
                                <polygon id="Fill-110" fill="#231F1F" points="25.5709596 18.5459096 35.1056865 18.5459096 35.1056865 17.4061147 25.5709596 17.4061147"></polygon>
                                <polygon id="Fill-112" fill="#231F1F" points="25.5709596 21.446613 35.1056865 21.446613 35.1056865 20.3068181 25.5709596 20.3068181"></polygon>
                                <polygon id="Fill-114" fill="#231F1F" points="25.5709596 67.0286297 35.1056865 67.0286297 35.1056865 65.8893004 25.5709596 65.8893004"></polygon>
                                <polygon id="Fill-116" fill="#231F1F" points="25.5709596 64.1283919 35.1056865 64.1283919 35.1056865 62.988597 25.5709596 62.988597"></polygon>
                                <path d="M33.6549139,29.1124784 C33.6549139,27.2817295 32.170047,25.7973888 30.3386491,25.7973888 C28.5067855,25.7973888 27.0223844,27.2817295 27.0223844,29.1124784 C27.0223844,30.9432273 28.5067855,32.427568 30.3386491,32.427568 C32.170047,32.427568 33.6549139,30.9432273 33.6549139,29.1124784" id="Fill-118" fill="#231F1F"></path>
                                <path d="M31.996502,29.1124784 C31.996502,28.1971039 31.2540686,27.4549336 30.3383697,27.4549336 C29.4231365,27.4549336 28.680703,28.1971039 28.680703,29.1124784 C28.680703,30.0278529 29.4231365,30.7700232 30.3383697,30.7700232 C31.2540686,30.7700232 31.996502,30.0278529 31.996502,29.1124784" id="Fill-120" fill="#231F1F"></path>
                                <polygon id="Fill-123" fill="#54ABB4" points="97.2390739 74.7986038 106.880462 74.7986038 106.880462 11.9422697 97.2390739 11.9422697"></polygon>
                                <polygon id="Fill-124" fill="#231F1F" points="97.2390739 26.8182688 106.880462 26.8182688 106.880462 25.6659026 97.2390739 25.6659026"></polygon>
                                <polygon id="Fill-126" fill="#231F1F" points="97.2390739 20.9516776 106.880462 20.9516776 106.880462 19.7993114 97.2390739 19.7993114"></polygon>
                                <polygon id="Fill-128" fill="#231F1F" points="97.2390739 23.8849732 106.880462 23.8849732 106.880462 22.732607 97.2390739 22.732607"></polygon>
                                <polygon id="Fill-130" fill="#FFFFFF" points="99.2306958 65.7891959 104.889305 65.7891959 104.889305 55.9417035 99.2306958 55.9417035"></polygon>
                                <polygon id="Fill-133" fill="#F3703A" points="81.5986005 74.7986038 89.6330902 74.7986038 89.6330902 22.4183254 81.5986005 22.4183254"></polygon>
                                <polygon id="Fill-134" fill="#231F1F" points="81.5986005 34.8149913 89.6330902 34.8149913 89.6330902 33.8544534 81.5986005 33.8544534"></polygon>
                                <polygon id="Fill-136" fill="#231F1F" points="81.5986005 29.9261653 89.6330902 29.9261653 89.6330902 28.9656274 81.5986005 28.9656274"></polygon>
                                <polygon id="Fill-138" fill="#231F1F" points="81.5986005 32.3705783 89.6330902 32.3705783 89.6330902 31.4100404 81.5986005 31.4100404"></polygon>
                                <polygon id="Fill-140" fill="#FFFFFF" points="83.2576644 67.2907639 87.9735606 67.2907639 87.9735606 59.0845203 83.2576644 59.0845203"></polygon>
                                <polygon id="Fill-143" fill="#0E424F" points="44.6399477 74.7986038 54.0670823 74.7986038 54.0670823 13.3390771 44.6399477 13.3390771"></polygon>
                                <polygon id="Fill-144" fill="#231F1F" points="44.6399477 27.8844984 54.0670823 27.8844984 54.0670823 26.7577404 44.6399477 26.7577404"></polygon>
                                <polygon id="Fill-146" fill="#231F1F" points="44.6399477 22.1482759 54.0670823 22.1482759 54.0670823 21.0215179 44.6399477 21.0215179"></polygon>
                                <polygon id="Fill-148" fill="#231F1F" points="44.6399477 25.0163872 54.0670823 25.0163872 54.0670823 23.8896292 44.6399477 23.8896292"></polygon>
                                <polygon id="Fill-150" fill="#FFFFFF" points="46.5868559 65.989405 52.1201741 65.989405 52.1201741 56.3607458 46.5868559 56.3607458"></polygon>
                                <polygon id="Fill-153" fill="#FDCC94" points="35.1056865 74.7986038 44.6399477 74.7986038 44.6399477 12.6406734 35.1056865 12.6406734"></polygon>
                                <polygon id="Fill-154" fill="#231F1F" points="35.1056865 27.3513836 44.6399477 27.3513836 44.6399477 26.2115887 35.1056865 26.2115887"></polygon>
                                <polygon id="Fill-156" fill="#231F1F" points="35.1056865 21.5499768 44.6399477 21.5499768 44.6399477 20.4106475 35.1056865 20.4106475"></polygon>
                                <polygon id="Fill-158" fill="#231F1F" points="35.1056865 24.4506802 44.6399477 24.4506802 44.6399477 23.3108853 35.1056865 23.3108853"></polygon>
                                <polygon id="Fill-160" fill="#FFFFFF" points="37.0744859 65.8893004 42.6711484 65.8893004 42.6711484 56.1512247 37.0744859 56.1512247"></polygon>
                                <polygon id="Fill-163" fill="#744C4C" points="89.6330902 74.7986038 97.2390739 74.7986038 97.2390739 25.2119402 89.6330902 25.2119402"></polygon>
                                <polygon id="Fill-164" fill="#231F1F" points="89.6330902 36.9474506 97.2390739 36.9474506 97.2390739 36.038129 89.6330902 36.038129"></polygon>
                                <polygon id="Fill-166" fill="#231F1F" points="89.6330902 32.319362 97.2390739 32.319362 97.2390739 31.4100404 89.6330902 31.4100404"></polygon>
                                <polygon id="Fill-168" fill="#231F1F" points="89.6330902 34.6334063 97.2390739 34.6334063 97.2390739 33.7245503 89.6330902 33.7245503"></polygon>
                                <polygon id="Fill-170" fill="#FFFFFF" points="91.2041241 67.691182 95.6685058 67.691182 95.6685058 59.9226047 91.2041241 59.9226047"></polygon>
                                <polygon id="Fill-173" fill="#AF9C31" points="54.0675481 74.7986038 63.494217 74.7986038 63.494217 13.3390771 54.0675481 13.3390771"></polygon>
                                <polygon id="Fill-174" fill="#231F1F" points="54.0675481 27.8844984 63.494217 27.8844984 63.494217 26.7577404 54.0675481 26.7577404"></polygon>
                                <polygon id="Fill-176" fill="#231F1F" points="54.0675481 22.1482759 63.494217 22.1482759 63.494217 21.0215179 54.0675481 21.0215179"></polygon>
                                <polygon id="Fill-178" fill="#231F1F" points="54.0675481 25.0163872 63.494217 25.0163872 63.494217 23.8896292 54.0675481 23.8896292"></polygon>
                                <polygon id="Fill-180" fill="#FFFFFF" points="56.0139906 65.989405 61.5473087 65.989405 61.5473087 56.3607458 56.0139906 56.3607458"></polygon>
                                <polygon id="Fill-183" fill="#BC8F6E" points="72.7070985 74.7986038 81.5986005 74.7986038 81.5986005 16.8310957 72.7070985 16.8310957"></polygon>
                                <polygon id="Fill-184" fill="#231F1F" points="72.7070985 30.5500726 81.5986005 30.5500726 81.5986005 29.4875677 72.7070985 29.4875677"></polygon>
                                <polygon id="Fill-186" fill="#231F1F" points="72.7070985 25.1397718 81.5986005 25.1397718 81.5986005 24.0768014 72.7070985 24.0768014"></polygon>
                                <polygon id="Fill-188" fill="#231F1F" points="72.7070985 27.8449222 81.5986005 27.8449222 81.5986005 26.7824174 72.7070985 26.7824174"></polygon>
                                <polygon id="Fill-190" fill="#FFFFFF" points="74.5431541 66.4899276 79.7620792 66.4899276 79.7620792 57.4083513 74.5431541 57.4083513"></polygon>
                                <polygon id="Fill-193" fill="#54ABB4" points="15.9305035 74.7986038 25.5714254 74.7986038 25.5714254 11.9422697 15.9305035 11.9422697"></polygon>
                                <polygon id="Fill-194" fill="#231F1F" points="15.9305035 61.0749708 25.5714254 61.0749708 25.5714254 59.9226047 15.9305035 59.9226047"></polygon>
                                <polygon id="Fill-196" fill="#231F1F" points="15.9305035 66.941562 25.5714254 66.941562 25.5714254 65.7891959 15.9305035 65.7891959"></polygon>
                                <polygon id="Fill-198" fill="#231F1F" points="15.9305035 64.0082664 25.5714254 64.0082664 25.5714254 62.8559003 15.9305035 62.8559003"></polygon>
                                <polygon id="Fill-200" fill="#FFFFFF" points="17.9211939 30.7991699 23.5802692 30.7991699 23.5802692 20.9516776 17.9211939 20.9516776"></polygon>
                                <polygon id="Fill-476" fill="#F3703A" points="116.195812 74.7986038 125.8372 74.7986038 125.8372 11.9422697 116.195812 11.9422697"></polygon>
                                <polygon id="Fill-477" fill="#FFFFFF" points="118.605693 31.2182121 123.426853 31.2182121 123.426853 11.9422697 118.605693 11.9422697"></polygon>
                                <polygon id="Fill-491" fill="#FDCC94" points="106.880462 74.7986038 116.195812 74.7986038 116.195812 0.302207817 106.880462 0.302207817"></polygon>
                            </g>
                            <g id="Book" transform="translate(79.479675, 0.000000)">
                                <path d="M34.9941943,49.0122269 C38.6056284,49.0122269 41.533693,50.6733264 41.533693,52.7210778 C41.533693,54.7699856 38.6056284,56.4306996 34.9941943,56.4306996 C31.3827601,56.4306996 28.4546955,54.7699856 28.4546955,52.7210778 C28.4546955,50.6733264 31.3827601,49.0122269 34.9941943,49.0122269 L34.9941943,49.0122269 Z" id="Fill-1" fill="#353535"></path>
                                <path d="M34.9941943,49.0122269 C38.6056284,49.0122269 41.533693,50.6725555 41.533693,52.7210778 C41.533693,54.7699856 38.6056284,56.4306996 34.9941943,56.4306996 L34.9941943,49.0122269 Z" id="Fill-3" fill="#212121"></path>
                                <polygon id="Fill-5" fill="#353535" points="0 54.6250779 69.987848 54.6250779 69.987848 9.38141507 0 9.38141507"></polygon>
                                <polygon id="Fill-7" fill="#212121" points="34.9943101 54.6250779 69.9886202 54.6250779 69.9886202 9.38141507 34.9943101 9.38141507"></polygon>
                                <path d="M1.50136667,10.4423754 C12.6657712,7.13251224 23.8297897,7.21230978 34.9941943,10.4423754 L34.9941943,52.795594 L1.50136667,52.795594 L1.50136667,10.4423754 Z" id="Fill-8" fill="#FFFFFF"></path>
                                <path d="M68.4870218,10.4423754 C57.3226173,7.13251224 46.1582127,7.21230978 34.9941943,10.4423754 L34.9941943,52.795594 L68.4870218,52.795594 L68.4870218,10.4423754 Z" id="Fill-9" fill="#E6E6E6"></path>
                                <path d="M34.9941943,50.5775308 L34.9941943,52.7956711 L68.4870218,52.7956711 L68.4870218,50.5775308 C57.3226173,47.2676677 46.1585988,47.3474652 34.9941943,50.5775308" id="Fill-10" fill="#CCCCCC"></path>
                                <path d="M40.0962233,16.0252734 C47.8592237,14.4501393 55.6222241,14.4162158 63.3848384,16.0033002 L63.3848384,13.2967372 C55.6222241,11.7096528 47.8592237,11.7435764 40.0962233,13.3179395 L40.0962233,16.0252734 Z" id="Fill-11" fill="#CCCCCC"></path>
                                <path d="M40.0962233,30.710218 C47.8592237,29.1350839 55.6222241,29.1011603 63.3848384,30.6882447 L63.3848384,18.1912562 C55.6222241,16.6041718 47.8592237,16.6380954 40.0962233,18.2132294 L40.0962233,30.710218 Z" id="Fill-12" fill="#CCCCCC"></path>
                                <path d="M40.0962233,45.3952011 C47.8592237,43.820838 55.6222241,43.7869144 63.3848384,45.3739988 L63.3848384,32.8762393 C55.6222241,31.2891549 47.8592237,31.3238495 40.0962233,32.8982125 L40.0962233,45.3952011 Z" id="Fill-13" fill="#CCCCCC"></path>
                                <path d="M6.6033957,16.0252734 C14.3663961,14.4501393 22.1293965,14.4162158 29.8920108,16.0033002 L29.8920108,13.2967372 C22.1293965,11.7096528 14.3663961,11.7435764 6.6033957,13.3179395 L6.6033957,16.0252734 Z" id="Fill-14" fill="#E6E6E6"></path>
                                <path d="M6.6033957,25.8147353 C14.3663961,24.2403722 22.1293965,24.2064487 29.8920108,25.793533 L29.8920108,18.1915646 C22.1293965,16.6040947 14.3663961,16.6380183 6.6033957,18.2131523 L6.6033957,25.8147353 Z" id="Fill-15" fill="#E6E6E6"></path>
                                <path d="M6.6033957,30.710218 C14.3663961,29.1350839 22.1293965,29.1011603 29.8920108,30.6882447 L29.8920108,27.9816818 C22.1293965,26.3945974 14.3663961,26.428521 6.6033957,28.002884 L6.6033957,30.710218 Z" id="Fill-16" fill="#E6E6E6"></path>
                                <path d="M49.5289232,41.123103 L49.5289232,41.123103 C48.8640857,40.3135627 48.9644677,39.081134 49.7941632,38.4450667 L57.709667,32.3758278 C58.5393625,31.7393749 59.7269583,31.8307373 60.3917958,32.6398921 C61.0562471,33.4486613 60.9357888,34.6517924 60.1265557,35.3171573 L52.2102798,41.3875528 C51.3790399,42.0251621 50.1937606,41.9326432 49.5289232,41.123103" id="Fill-17" fill="#DEAC81"></path>
                                <path d="M53.2016289,43.2267897 L53.2016289,43.2267897 C52.4167192,42.5332835 52.3190398,41.3008549 53.0363847,40.5410435 L59.884751,33.2914178 C60.602096,32.5316064 61.7893057,32.4329196 62.5742154,33.1256548 C63.3598973,33.8191609 63.4320951,35.0261469 62.7394596,35.8114009 L55.8914794,43.0617977 C55.172204,43.823151 53.9869247,43.9202958 53.2016289,43.2267897" id="Fill-18" fill="#DEAC81"></path>
                                <polygon id="Fill-19" fill="#DEAC81" points="70.4826538 42.6575672 65.5913497 31.3432784 55.6886692 31.4901522 51.1722531 36.0463218 64.367462 45.0707682"></polygon>
                                <path d="M57.2332387,45.188884 L57.2332387,45.188884 C56.2888761,44.7347704 55.8595502,43.5748149 56.3437001,42.6484695 L60.9628147,33.8144579 C61.4469646,32.889269 62.5627487,32.472163 63.5067252,32.9266621 C64.4510879,33.3807756 64.8491409,34.5222274 64.3962639,35.4663055 L59.7767632,44.3010882 C59.2918411,45.2289755 58.1772153,45.6437685 57.2332387,45.188884" id="Fill-20" fill="#DEAC81"></path>
                                <path d="M71.5639992,44.3968066 L71.5639992,44.3968066 C70.6883596,44.9719657 69.3077216,44.82355 68.9247258,43.8532582 L64.2461542,32.0089133 C63.8631584,31.0386215 63.9148937,29.9488261 64.7901472,29.373667 C65.6657868,28.7985079 66.8510661,29.0440685 67.4290346,29.9172155 L72.1076062,41.7615604 C72.4925324,42.7349362 72.4396388,43.8208766 71.5639992,44.3968066" id="Fill-21" fill="#F9C293"></path>
                                <path d="M55.5746585,30.2359045 L55.5746585,30.2359045 C55.6800595,29.1946815 56.6201752,28.4529884 57.6618311,28.534328 L65.984654,29.1804182 C67.0263099,29.2617577 67.794618,30.2231831 67.689603,31.2644061 C67.5838158,32.3056291 66.6456306,33.0692954 65.6024303,32.9659826 L57.2796075,32.3198924 C56.2340907,32.2385529 55.4696435,31.2778984 55.5746585,30.2359045" id="Fill-22" fill="#F9C293"></path>
                                <path d="M46.993352,36.7298436 L46.993352,36.7298436 C46.4196305,35.8543837 46.6516673,34.6396878 47.5450667,34.0961393 L56.0682675,28.9108413 C56.9608947,28.3680638 58.1326611,28.5854832 58.7059965,29.4613286 C59.2801041,30.3375596 59.0306936,31.5194884 58.1542818,32.0950329 L49.6310811,37.280331 C48.7357512,37.8254215 47.5670736,37.6060746 46.993352,36.7298436" id="Fill-23" fill="#F9C293"></path>
                                <polygon id="Fill-24" fill="#F9C293" points="70.3635082 39.6473882 64.2965769 47.180353 68.3466029 51.5730726 75.221223 44.7212781"></polygon>
                                <path d="M61.359169,31.9178978 C62.2556571,33.4718296 66.3933244,40.623154 61.8568319,40.832478 C57.3207255,41.042573 67.7623799,46.4237027 67.7623799,46.4237027 L70.1661418,39.3899544 C70.1661418,39.3899544 67.7535,31.7929973 61.359169,31.9178978" id="Fill-25" fill="#F9C293"></path>
                                <path d="M68.7087115,40.2038122 C72.6239941,40.8603108 73.6092817,46.9711832 71.9761444,49.3072851 C70.342621,51.6437725 66.5736644,51.5963565 63.1734185,49.4961778 C59.7735587,47.3956136 59.2635411,43.4300228 60.1546241,42.2245788 C61.0453209,41.0191349 64.7930429,39.5473136 68.7087115,40.2038122" id="Fill-26" fill="#F9C293"></path>
                                <polygon id="Fill-27" fill="#FFFFFF" points="75.2170918 43.3419757 66.3881122 51.9901786 69.0640637 54.7133178 77.8934294 46.0651149"></polygon>
                                <polygon id="Fill-28" fill="#283593" points="93.6226303 80.8754529 67.6925092 55.0868386 78.2828061 44.7139294 113.496399 80.7456419"></polygon>
                                <path d="M34.9941943,10.4423754 C38.2357594,3.38434086 43.8505859,-1.33026739 52.6351658,0.335843557 L52.6351658,40.1490333 C43.8505859,38.4825368 38.2357594,43.1975306 34.9941943,50.2551796 L34.9941943,10.4423754 Z" id="Fill-29" fill="#F6F6F6"></path>
                                <path d="M47.8258274,7.82069855 C43.802055,8.18344969 40.6284407,10.1240333 38.1872286,13.0376073 L38.1872286,10.0002893 C38.2069189,9.92820168 38.2269953,9.85727054 38.24823,9.7859539 C40.6813343,6.91285698 43.8348722,5.0011855 47.8258274,4.64190382 L47.8258274,7.82069855 Z" id="Fill-30" fill="#E0DDDD"></path>
                                <path d="M47.8258274,19.3606949 C43.802055,19.722675 40.6284407,21.6640297 38.1872286,24.5768326 L38.1872286,15.3122226 C38.2069189,15.240135 38.2269953,15.1692038 38.24823,15.0975017 C40.6813343,12.2244048 43.8348722,10.3127333 47.8258274,9.95383712 L47.8258274,19.3606949 Z" id="Fill-31" fill="#E0DDDD"></path>
                                <path d="M47.8258274,34.7466242 C43.802055,35.1093754 40.6284407,37.049959 38.1872286,39.9635329 L38.1872286,27.0344041 C38.2069189,26.9630874 38.2269953,26.8913853 38.24823,26.8204541 C40.6813343,23.9473572 43.8348722,22.0356857 47.8258274,21.6767896 L47.8258274,34.7466242 Z" id="Fill-32" fill="#E0DDDD"></path>
                                <path d="M63.4422877,43.9947735 L63.4422877,43.9947735 C62.9009973,45.0976758 61.5107072,45.6331288 60.4485888,45.0178782 L50.8532315,39.4563367 C49.7911131,38.8410861 49.2865007,37.5708789 49.8277912,36.4672057 C50.3698538,35.3631469 51.714972,34.905564 52.8214901,35.4437155 L62.4176196,41.0056425 C63.4824405,41.6224351 63.9839643,42.8911003 63.4422877,43.9947735" id="Fill-33" fill="#F9C293"></path>
                                <path d="M34.9941943,50.5775308 L34.9941943,52.7956711 L1.50136667,52.7956711 L1.50136667,50.5775308 C12.6653851,47.2676677 23.8301758,47.3474652 34.9941943,50.5775308" id="Fill-34" fill="#E6E6E6"></path>
                                <path d="M6.6033957,45.3952011 C14.3663961,43.820838 22.1293965,43.7869144 29.8920108,45.3739988 L29.8920108,32.8762393 C22.1293965,31.2891549 14.3663961,31.3238495 6.6033957,32.8982125 L6.6033957,45.3952011 Z" id="Fill-35" fill="#E6E6E6"></path>
                                <polygon id="Fill-36" fill="#E7D1A7" points="18.190833 58.6398193 19.310478 75.2477304 10.946344 84.7617559 7.76693846 81.6280641 6.37742046 60.9300473"></polygon>
                                <polygon id="Fill-37" fill="#F9C293" points="6.7560921 62.644615 6.71323673 83.324899 9.26293855 86.4173428 18.7359071 75.7583961 18.7575278 63.6943188"></polygon>
                                <path d="M25.0615536,43.2855006 L22.7319199,55.7508786 C22.4952501,57.0180018 20.337038,61.5884348 19.052921,61.4542824 C17.7707345,61.32013 17.6946759,57.3915468 17.9641628,56.129435 L20.1694773,46.6285164 C21.0883583,42.669479 23.6917259,42.9875127 25.0615536,43.2855006" id="Fill-38" fill="#DEAC81"></path>
                                <path d="M16.17331,31.8606903 L16.3617192,43.4436694 C15.2231561,41.8504171 12.4325376,42.8014341 12.2225076,44.8915899 C11.2800755,43.098651 8.58018678,43.7778938 8.01959213,45.6352105 C6.87909861,44.1256107 4.12747461,45.1864939 4.15488661,47.3340885 L4.27997798,57.1684607 C4.31511166,59.9297639 5.85674694,63.4632144 7.05476705,64.8567801 C10.6048137,68.9881339 16.9721188,66.2622962 18.5195453,63.787416 C19.7256732,61.8576262 20.8005324,60.6155602 20.8020767,59.1375709 L20.8020767,31.7408013 C20.8059375,28.27674 16.0995679,29.0130361 16.17331,31.8606903" id="Fill-39" fill="#F9C293"></path>
                                <path d="M12.4629224,44.0610016 C12.337445,44.3108026 12.2528925,44.5895158 12.2223918,44.8913586 C12.1598461,44.7718551 12.0891927,44.6639164 12.0119758,44.5663861 C12.0490399,46.48384 12.1050221,48.8592624 12.1050221,48.8592624 C12.1050221,48.8592624 12.3563631,45.9002 12.4629224,44.0610016 M16.3284001,43.3991061 C16.2229991,43.2599423 16.1052433,43.1415952 15.9770633,43.0429084 C16.0380646,44.984263 16.21798,48.2999086 16.21798,48.2999086 C16.21798,48.2999086 16.3639199,44.8882747 16.3619895,43.4434381 C16.3619895,43.4661823 16.3488626,43.445751 16.3284001,43.3991061 M7.91755001,49.0805367 C7.91755001,49.0805367 7.85384607,47.1307012 7.80519943,45.399056 C7.88125807,45.4696017 7.95306978,45.5478572 8.01947631,45.6353647 C8.06850903,45.4726856 8.13491556,45.3184875 8.21444896,45.1746977 C8.09360452,46.9387245 7.91755001,49.0805367 7.91755001,49.0805367" id="Fill-40" fill="#DEAC81"></path>
                                <polygon id="Fill-41" fill="#FFFFFF" points="5.6494968 66.7969782 5.73945448 86.7567715 15.509708 86.7567715 19.5620506 78.4346976 19.5114735 66.77886"></polygon>
                                <polygon id="Fill-42" fill="#283593" points="5.23476487 69.95086 5.24965201 85.778143 19.9593233 85.778143 19.9381679 69.9404516"></polygon>
                                <path d="M12.1273378,8.30179676 L12.1273378,17.0432895 L8.85874672,15.5410141 L5.59015562,17.3497583 L5.59015562,9.38156926 C7.76921635,8.89815808 9.94789101,8.53887641 12.1273378,8.30179676" id="Fill-43" fill="#F44336"></path>
                            </g>
                        </g>
                    </g>
                </g>
            </g>
        </g>
    </g>
</svg>