<?xml version="1.0" encoding="UTF-8"?>
<svg width="260px" height="298px" viewBox="0 0 260 298" version="1.1" xmlns="http://www.w3.org/2000/svg" xmlns:xlink="http://www.w3.org/1999/xlink">
    <!-- Generator: Sketch 43.1 (39012) - http://www.bohemiancoding.com/sketch -->
    <title>Illustration</title>
    <desc>Created with Sketch.</desc>
    <defs></defs>
    <g id="Planning-&amp;-Guidance-(CMS)" stroke="none" stroke-width="1" fill="none" fill-rule="evenodd">
        <g id="00---Toolkit---Add-Experience" transform="translate(-973.000000, -2327.000000)">
            <g id="Illustration" transform="translate(973.000000, 2327.000000)">
                <g id="Cloud" fill-opacity="0.300000012" fill="#9ECBE5">
                    <path d="M49.5080633,21.3228157 C49.4103135,17.7790223 46.5021173,14.9355027 42.92624,14.9355027 C41.4798736,14.9355027 40.1428544,15.4016173 39.0565609,16.1900452 C38.8803902,9.96140948 33.767576,4.96527778 27.4817635,4.96527778 C22.1049694,4.96527778 17.5852814,8.62036575 16.279741,13.5762772 C14.6505768,12.5707698 12.7309244,11.989504 10.674864,11.989504 C4.77949863,11.989504 0.000248847926,16.758088 0.000248847926,22.6390661 C0.000248847926,27.321149 3.02994198,31.2946935 7.23870817,32.7222384 C7.92847972,33.0820172 8.71047853,33.2891792 9.5388671,33.2891792 L51.2040508,33.2891792 C51.7513396,33.4357354 52.3262412,33.515625 52.9193674,33.515625 C56.5570978,33.515625 59.5061611,30.573483 59.5061611,26.9448413 C59.5061611,23.3156486 56.5570978,20.3735066 52.9193674,20.3735066 C51.6707097,20.3735066 50.5032341,20.7200623 49.5080633,21.3228157 Z" id="Fill-1"></path>
                    <path d="M106.563261,103.916253 C105.58605,103.916253 104.672374,104.18747 103.893544,104.65919 C103.817045,101.885787 101.541065,99.6604236 98.7425522,99.6604236 C97.6106133,99.6604236 96.5642505,100.025209 95.7141077,100.642239 C95.576235,95.767655 91.5749021,91.8576389 86.6555706,91.8576389 C82.4476448,91.8576389 78.9104977,94.7181425 77.8887704,98.5966819 C76.6137724,97.8097631 75.1114357,97.3548594 73.5023449,97.3548594 C68.8885807,97.3548594 65.1482983,101.086795 65.1482983,105.689299 C65.1482983,109.353538 67.5193625,112.463269 70.8131795,113.580478 C71.3530007,113.862044 71.9649998,114.02417 72.6133039,114.02417 L105.220839,114.02417 C105.649152,114.138867 106.099075,114.201389 106.563261,114.201389 C109.41018,114.201389 111.718143,111.898843 111.718143,109.059036 C111.718143,106.218799 109.41018,103.916253 106.563261,103.916253" id="Fill-1"></path>
                    <path d="M249.325013,24.7870365 C247.316292,24.7870365 245.438169,25.3445421 243.837234,26.3141941 C243.679983,20.6132782 239.001555,16.0388959 233.249026,16.0388959 C230.92225,16.0388959 228.771381,16.7887365 227.023856,18.0570839 C226.74045,8.03705053 218.515443,-0.000248263889 208.403429,-0.000248263889 C199.753757,-0.000248263889 192.482916,5.87970764 190.382687,13.8523039 C187.761844,12.2347399 184.67369,11.2996549 181.366097,11.2996549 C171.882197,11.2996549 164.193797,18.9708968 164.193797,28.4316519 C164.193797,35.9637389 169.067678,42.3559973 175.838338,44.652495 C176.947977,45.2312727 178.205982,45.5645352 179.538614,45.5645352 L246.565576,45.5645352 C247.446002,45.8003007 248.370849,45.9288194 249.325013,45.9288194 C255.177046,45.9288194 259.921217,41.1957829 259.921217,35.3583711 C259.921217,29.520073 255.177046,24.7870365 249.325013,24.7870365" id="Fill-1" transform="translate(212.057507, 22.964286) scale(-1, 1) translate(-212.057507, -22.964286) "></path>
                </g>
                <g id="Spyglass" transform="translate(41.013825, 32.274306)">
                    <path d="M0,29.0535515 C0,32.4803331 1.92286542,35.2580578 4.29557208,35.2580578 C6.66827873,35.2580578 8.59189264,32.4803331 8.59189264,29.0535515 C8.59189264,25.6267698 6.66827873,22.8490451 4.29557208,22.8490451 C1.92286542,22.8490451 0,25.6267698 0,29.0535515" id="Fill-1" fill="#FDFDF8"></path>
                    <path d="M97.6740038,36.1181143 L141.307106,37.8038698 C141.318333,37.8046167 141.327315,37.7956539 141.328064,37.7844504 L141.66638,29.0628877 C141.66638,29.0516842 141.658895,29.0419745 141.64692,29.0419745 L98.0138173,27.356219 C98.00259,27.356219 97.9936081,27.3644349 97.9928596,27.3748915 L97.6545431,36.097948 C97.6545431,36.1084046 97.6627765,36.1181143 97.6740038,36.1181143" id="Fill-3" fill="#FBC02D"></path>
                    <path d="M66.8252245,35.3865995 L97.8470542,36.5846286 C97.8582815,36.5853755 97.8672634,36.5771596 97.8680118,36.5659561 L98.2362679,27.0623882 C98.2370164,27.0519316 98.2280345,27.0429687 98.2168072,27.0422218 L67.1957261,25.8434458 C67.1844987,25.8434458 67.1755169,25.8516617 67.1755169,25.8628652 L66.8065123,35.3656863 C66.8065123,35.3768898 66.8139972,35.3865995 66.8252245,35.3865995" id="Fill-5" fill="#FBC02D"></path>
                    <path d="M34.9873934,35.5017716 L66.0009897,36.6998008 C66.013714,36.7005477 66.0256898,36.6885973 66.0264383,36.6729123 L66.4672976,25.3058265 C66.4680461,25.2901415 66.4575673,25.2774442 66.4440945,25.2766973 L35.4312467,24.0786682 C35.4177739,24.0779213 34.5667432,23.7582477 34.5667432,23.7739326 L34.9649388,35.4733894 C34.9641903,35.4883274 34.9739206,35.5010247 34.9873934,35.5017716" id="Fill-7" fill="#FBC02D"></path>
                    <path d="M3.2205189,35.373454 L34.2416001,36.5714832 C34.2528274,36.5722301 34.2625577,36.5640142 34.2625577,36.5528107 L34.7850023,23.0921614 C34.7850023,23.0809579 34.7767689,23.0712481 34.7662901,23.0712481 L3.74371195,21.8724721 C3.73323311,21.8724721 3.72425126,21.880688 3.72350277,21.8918915 L3.2018067,35.3525408 C3.20105822,35.3637443 3.20929158,35.3727071 3.2205189,35.373454" id="Fill-9" fill="#FBC02D"></path>
                    <path d="M141.532925,38.115925 L141.79789,38.115925 C142.148182,38.115925 142.434853,37.8298619 142.434853,37.4803123 L142.434853,28.7669656 C142.434853,28.4174159 142.148182,28.1313528 141.79789,28.1313528 L141.532925,28.1313528 C141.182633,28.1313528 140.895962,28.4174159 140.895962,28.7669656 L140.895962,37.4803123 C140.895962,37.8298619 141.182633,38.115925 141.532925,38.115925" id="Fill-11" fill="#E0DA8A"></path>
                    <path d="M98.2784826,37.4970429 L98.5434473,37.4970429 C98.8937397,37.4970429 99.1804105,37.2109798 99.1804105,36.8614301 L99.1804105,26.7655697 C99.1804105,26.416767 98.8937397,26.1307039 98.5434473,26.1307039 L98.2784826,26.1307039 C97.9274418,26.1307039 97.6407709,26.416767 97.6407709,26.7655697 L97.6407709,36.8614301 C97.6407709,37.2109798 97.9274418,37.4970429 98.2784826,37.4970429" id="Fill-13" fill="#E0DA8A"></path>
                    <path d="M66.4143795,37.4992836 L66.6793443,37.4992836 C67.0296366,37.4992836 67.3163075,37.2132205 67.3163075,36.8636708 L67.3163075,25.0760797 C67.3163075,24.7265301 67.0296366,24.440467 66.6793443,24.440467 L66.4143795,24.440467 C66.0633387,24.440467 65.7766678,24.7265301 65.7766678,25.0760797 L65.7766678,36.8636708 C65.7766678,37.2132205 66.0633387,37.4992836 66.4143795,37.4992836" id="Fill-15" fill="#E0DA8A"></path>
                    <path d="M34.8178609,37.306359 L34.5528962,37.306359 C34.2026038,37.306359 33.9151845,37.020296 33.9151845,36.6707463 L33.9151845,22.8695102 C33.9151845,22.5207074 34.2026038,22.2338975 34.5528962,22.2338975 L34.8178609,22.2338975 C35.1681532,22.2338975 35.4548241,22.5207074 35.4548241,22.8695102 L35.4548241,36.6707463 C35.4548241,37.020296 35.1681532,37.306359 34.8178609,37.306359" id="Fill-17" fill="#E0DA8A"></path>
                    <path d="M2.95592843,36.5995667 L3.22089315,36.5995667 C3.57193397,36.5995667 3.85860484,36.3135036 3.85860484,35.9639539 L3.85860484,21.8176496 C3.85860484,21.4680999 3.57193397,21.1820368 3.22089315,21.1820368 L2.95592843,21.1820368 C2.60563609,21.1820368 2.31896522,21.4680999 2.31896522,21.8176496 L2.31896522,35.9639539 C2.31896522,36.3135036 2.60563609,36.5995667 2.95592843,36.5995667" id="Fill-19" fill="#E0DA8A"></path>
                    <path d="M167.240266,56.7676854 C167.240266,56.7676854 178.09334,86.2493605 167.274696,69.464255 C167.269457,69.4560391 167.255984,69.4769523 167.247751,69.4821806 C166.786682,69.4664957 166.333847,69.5964565 165.928915,69.8205268 C165.443146,69.5919751 164.884026,69.5307292 164.349606,69.6211042 C164.271014,69.4747116 160.715697,78.8557878 160.608663,78.7280677 L163.967877,69.0781072 C163.907249,69.0056578 163.836143,68.9503871 163.769527,68.8876475 C163.891531,68.5380978 162.241864,78.5585212 162.417758,78.1268125 C162.359376,75.9025414 161.329457,58.241321 161.329457,58.241321 C166.861531,57.3599779 167.240266,56.7676854 167.240266,56.7676854" id="Fill-21" fill="#FFDBAE"></path>
                    <path d="M99.513787,32.683042 C99.828152,33.3059574 100.237575,33.8683739 100.724092,34.3553533 C101.527968,35.5108091 102.867761,36.4309911 103.549634,36.4862618 C103.67014,36.4959715 103.821335,36.4489167 103.990493,36.3697452 C104.526411,36.5109095 105.10574,36.5960562 105.740458,36.5960562 C106.003177,36.5960562 106.250178,36.5729023 106.494934,36.5460139 C106.694032,36.5699147 106.894626,36.5870934 107.097466,36.5960562 C107.226955,36.6020314 107.354198,36.5923217 107.482189,36.5885872 C107.431292,37.782135 106.837741,39.5351115 105.183583,41.6906677 C102.462829,45.2347128 100.350597,47.6636348 100.350597,47.6636348 C100.350597,47.6636348 103.314609,60.8300051 107.667066,65.9739121 C112.018774,71.1178191 100.992051,69.0735511 99.5938753,69.7689159 C99.5938753,69.7689159 94.2174866,57.2045478 93.48322,49.7840867 C93.48322,49.7840867 89.0678899,40.5792791 88.8583133,36.7618682 C88.7295733,34.4151054 95.8387114,29.4153503 99.513787,32.683042" id="Fill-23" fill="#FFDBAE"></path>
                    <path d="M172.080587,248.488202 C172.080587,248.488202 175.701772,260.100271 175.881409,262.996753 C176.061046,265.893235 163.007417,265.977635 161.772412,265.139612 C160.536659,264.300842 157.612316,250.418941 158.8331,250.017855 C160.053135,249.616769 171.65844,247.108676 172.080587,248.488202" id="Fill-25" fill="#5C3938"></path>
                    <path d="M173.071735,249.411595 C173.071735,249.411595 170.912348,251.409555 167.266463,252.877963 C163.621327,254.345623 158.80331,250.294432 158.80331,250.294432 C153.717335,238.594229 146.832743,164.81311 146.832743,164.81311 C146.832743,164.81311 163.732852,146.354946 165.140757,152.088158 C166.547915,157.822117 160.673782,183.478165 162.771045,198.883745 L173.071735,249.411595 Z" id="Fill-27" fill="#02395A"></path>
                    <path d="M129.846559,148.670788 C129.846559,148.670788 129.648958,195.339401 132.784374,205.710121 C135.919041,216.080094 144.295369,242.283621 145.004187,244.518348 C145.004187,244.518348 145.004187,247.004782 145.234722,248.232687 C145.465256,249.461339 147.621649,254.092872 148.926264,255.047411 C150.230878,256.002698 159.613923,256.665199 161.575709,252.696167 C161.575709,252.696167 157.505432,236.081355 155.840795,229.348043 C154.177655,222.615477 149.926244,181.193096 150.644792,166.027272 C150.644792,166.027272 163.019543,159.350724 164.505291,155.227831 C165.851821,151.490339 166.69387,147.013414 166.655697,146.394233 C166.616775,145.775799 129.846559,148.670788 129.846559,148.670788" id="Fill-32" fill="#004873"></path>
                    <path d="M169.694034,149.800251 C169.694034,149.800251 165.361786,126.279593 170.075014,110.308609 C174.788242,94.3376258 184.267093,75.8406233 179.916133,68.4194152 C179.916133,68.4194152 176.342103,67.4671165 171.836206,68.4194152 C167.32956,69.3724609 159.093948,69.0042387 159.093948,69.0042387 C159.093948,69.0042387 151.013273,69.5270694 148.993852,69.9923887 C146.973683,70.457708 133.765117,81.0024559 125.685191,82.3976669 C117.604515,83.7928779 106.478242,59.3550251 104.769445,56.2822745 C103.059898,53.2102708 94.1543891,54.9139519 93.8437666,57.7693543 C93.5331442,60.6247567 102.220843,86.5840468 111.85538,91.5464569 C121.489916,96.50812 137.183462,92.9416679 137.183462,92.9416679 C137.183462,92.9416679 125.096879,124.835833 128.048915,152.281456 C128.048915,152.281456 150.082154,157.680056 169.694034,149.800251" id="Fill-34" fill="#FB8C00"></path>
                    <path d="M156.01145,69.1123153 C156.01145,69.1123153 157.25394,64.7705799 157.875185,64.4598691 C158.497179,64.1499052 172.172053,66.0111824 176.211642,64.4598691 C176.211642,64.4598691 176.67795,66.7864657 176.211642,68.646996 C176.211642,68.646996 171.395122,72.8333759 156.01145,69.1123153" id="Fill-36" fill="#DB7A00"></path>
                    <path d="M132.270387,37.3478867 C135.737383,37.5144457 137.327171,35.3073533 138.086887,35.9287749 C138.846602,36.5501965 138.955881,39.0485802 136.235128,42.5926254 C133.514374,46.1374174 131.402141,48.5663393 131.402141,48.5663393 C131.402141,48.5663393 134.366153,61.7319627 138.717862,66.8766166 C143.070319,72.0205236 132.042847,69.9762556 130.64542,70.6716204 C130.64542,70.6716204 125.269031,58.1065054 124.535513,50.6860443 C124.535513,50.6860443 118.430097,39.1284987 117.828313,36.8698701 C122.653066,37.3859787 127.414946,37.1148536 132.270387,37.3478867" id="Fill-38" fill="#FFDBAE"></path>
                    <path d="M125.498143,60.4766463 C125.808766,57.6212438 134.714275,55.9175627 136.423821,58.9903133 C138.132619,62.062317 149.258892,86.5009168 157.338819,85.1049589 C162.967448,84.1332407 171.078811,78.7256777 176.169277,75.374333 C174.907327,77.9952085 173.627413,80.5989053 172.126694,83.1144678 C169.60429,87.3426742 167.538463,91.7083103 165.771284,96.2001728 C160.721984,96.960518 150.516352,97.8620274 143.509008,94.2537488 C133.87522,89.2920857 125.187521,63.3320487 125.498143,60.4766463" id="Fill-40" fill="#FB8C00"></path>
                    <path d="M152.878654,20.3632093 C152.878654,20.3632093 152.72222,27.545409 149.525428,37.7458356 C146.239567,48.2256031 144.931958,50.1488731 144.479123,52.4052609 C142.336202,63.0986421 162.338793,62.7804623 167.719672,58.6149956 C173.102797,54.4510227 180.048017,30.8467113 180.825696,26.0635575 C181.603374,21.2796568 160.521464,4.8202001 152.878654,20.3632093" id="Fill-42" fill="#FFDBAE"></path>
                    <path d="M171.143481,46.0896904 C171.143481,46.0896904 165.711704,42.6195885 168.37183,32.750786 C169.310434,29.2687336 168.820174,26.32445 168.820174,26.32445 C168.820174,26.32445 170.073143,28.4912097 163.428816,22.3061228 C161.261195,20.2872495 152.787563,23.1956818 149.588526,20.7719882 C146.389489,18.3490414 140.644844,8.00222231 151.00242,4.64415554 C161.698312,1.17554744 173.423375,-1.83446347 168.738589,1.34584086 C150.685809,13.600992 179.922495,10.478199 186.197818,18.6911221 C186.197818,18.6911221 185.197089,15.3479933 186.848254,15.3323084 C190.101182,15.3001917 187.030136,18.7516211 187.030136,18.7516211 C187.030136,18.7516211 189.161081,15.9358044 190.44399,18.4341882 C191.726149,20.9325719 187.727727,20.9631948 187.727727,20.9631948 C187.727727,20.9631948 196.515724,32.2951764 185.146192,43.8878263 C185.146192,43.8878263 175.519141,52.6527092 175.185315,54.7007117 C174.852238,56.749461 172.238518,53.6513158 172.238518,53.6513158 C172.238518,53.6513158 174.105247,58.5323137 169.676444,56.1750942 C162.340514,52.2710428 171.143481,46.0896904 171.143481,46.0896904" id="Fill-44" fill="#744D41"></path>
                    <path d="M168.07498,40.4040561 C168.07498,40.4040561 171.316681,37.659942 174.663919,39.7915973 C178.00966,41.9239996 173.568132,50.5380085 166.604201,45.2521903 C166.604201,45.2521903 165.255426,43.9227066 168.07498,40.4040561" id="Fill-46" fill="#FFDBAE"></path>
                    <path d="M166.91647,42.1170735 C166.943416,42.1417212 166.965122,42.1715973 166.994313,42.1947512 C168.01525,43.0230644 169.387977,43.3546884 170.547385,42.5226407 C171.532395,41.8160724 171.728499,40.7450164 171.625956,39.6358685 C171.605747,39.4125451 171.548113,39.2064004 171.477007,39.0084717 C172.451538,38.9188436 173.54957,39.0824149 174.664068,39.7919708 C178.009809,41.9236262 173.568282,50.5383819 166.604351,45.2525638 C166.604351,45.2525638 165.706914,44.3622578 166.91647,42.1170735" id="Fill-48" fill="#FFDBAE"></path>
                    <path d="M167.373272,44.3494111 C167.373272,44.3494111 172.198774,45.1754836 174.157567,42.2491256 C174.157567,42.2491256 173.444258,47.4445687 167.373272,44.3494111" id="Fill-50" fill="#F9F8E8"></path>
                    <path d="M169.50766,31.7757067 C169.50766,31.7757067 165.474807,36.6455011 163.593109,41.3001879 C163.248056,42.1546426 164.182169,42.9695116 164.979308,42.506433 C166.962053,41.3562055 170.390128,39.429201 169.941783,37.807679 C169.742685,37.0861726 169.50766,31.7757067 169.50766,31.7757067" id="Fill-58" fill="#744D41"></path>
                    <path d="M150.277958,36.0039878 C148.973344,33.8895112 142.820025,37.8966349 149.018253,40.8424123" id="Fill-60" fill="#FFDBAE"></path>
                    <path d="M88.7169987,36.4919382 C88.856966,34.3602829 89.1877976,31.5093619 89.9138309,27.8876391 C90.526094,24.8328141 103.001142,26.5424704 104.550512,28.9101465 C104.589433,28.8511413 103.333471,36.1304382 104.384348,38.416702 C105.044514,39.8552333 97.9638183,40.6237944 93.1061318,40.9793193 C92.6098843,38.8730585 91.147339,37.0341883 88.7169987,36.4919382" id="Fill-64" fill="#FFDBAE"></path>
                    <path d="M128.200484,31.0466567 C128.200484,33.0401354 129.077712,34.6564291 130.159277,34.6564291 C131.24159,34.6564291 132.118818,33.0401354 132.118818,31.0466567 C132.118818,29.053178 131.24159,27.4368843 130.159277,27.4368843 C129.077712,27.4368843 128.200484,29.053178 128.200484,31.0466567" id="Fill-66" fill="#FFDBAE"></path>
                    <path d="M124.884159,30.5951551 C124.884159,32.5886338 125.761387,34.2049275 126.8437,34.2049275 C127.925265,34.2049275 128.802493,32.5886338 128.802493,30.5951551 C128.802493,28.6016764 127.925265,26.9853827 126.8437,26.9853827 C125.761387,26.9853827 124.884159,28.6016764 124.884159,30.5951551" id="Fill-68" fill="#FFDBAE"></path>
                    <path d="M121.266717,30.1440269 C121.266717,32.1375056 122.143945,33.7537993 123.22551,33.7537993 C124.307823,33.7537993 125.185051,32.1375056 125.185051,30.1440269 C125.185051,28.1505482 124.307823,26.5342545 123.22551,26.5342545 C122.143945,26.5342545 121.266717,28.1505482 121.266717,30.1440269" id="Fill-70" fill="#FFDBAE"></path>
                    <path d="M117.498005,30.1440269 C117.498005,32.1375056 118.375233,33.7537993 119.457547,33.7537993 C120.53986,33.7537993 121.417088,32.1375056 121.417088,30.1440269 C121.417088,28.1505482 120.53986,26.5342545 119.457547,26.5342545 C118.375233,26.5342545 117.498005,28.1505482 117.498005,30.1440269" id="Fill-72" fill="#FFDBAE"></path>
                    <path d="M100.615337,28.7902689 C100.615337,30.7837476 101.493313,32.4000413 102.574878,32.4000413 C103.657192,32.4000413 104.534419,30.7837476 104.534419,28.7902689 C104.534419,26.7967902 103.657192,25.1804965 102.574878,25.1804965 C101.493313,25.1804965 100.615337,26.7967902 100.615337,28.7902689" id="Fill-74" fill="#FFDBAE"></path>
                    <path d="M97.2997598,28.3391407 C97.2997598,30.3326194 98.1769877,31.9489131 99.2585527,31.9489131 C100.340866,31.9489131 101.218094,30.3326194 101.218094,28.3391407 C101.218094,26.345662 100.340866,24.7293683 99.2585527,24.7293683 C98.1769877,24.7293683 97.2997598,26.345662 97.2997598,28.3391407" id="Fill-76" fill="#FFDBAE"></path>
                    <path d="M93.6815693,27.8876391 C93.6815693,29.8811177 94.5595456,31.4974114 95.6411106,31.4974114 C96.7234241,31.4974114 97.600652,29.8811177 97.600652,27.8876391 C97.600652,25.8941604 96.7234241,24.2778667 95.6411106,24.2778667 C94.5595456,24.2778667 93.6815693,25.8941604 93.6815693,27.8876391" id="Fill-78" fill="#FFDBAE"></path>
                    <path d="M89.9136064,27.8876391 C89.9136064,29.8811177 90.7908342,31.4974114 91.8731477,31.4974114 C92.9547127,31.4974114 93.832689,29.8811177 93.832689,27.8876391 C93.832689,25.8941604 92.9547127,24.2778667 91.8731477,24.2778667 C90.7908342,24.2778667 89.9136064,25.8941604 89.9136064,27.8876391" id="Fill-80" fill="#FFDBAE"></path>
                </g>
            </g>
        </g>
    </g>
</svg>