<svg xmlns="http://www.w3.org/2000/svg" xmlns:xlink="http://www.w3.org/1999/xlink" width="560" height="560" viewBox="0 0 560 560">
  <defs>
    <rect id="bg-ambition_matrix-a" width="560" height="560" x="0" y="0"/>
  </defs>
  <g fill="none" fill-rule="evenodd">
    <mask id="bg-ambition_matrix-b" fill="#fff">
      <use xlink:href="#bg-ambition_matrix-a"/>
    </mask>
    <use fill="#77DCEE" xlink:href="#bg-ambition_matrix-a"/>
    <path fill="#1CABE2" d="M2.84217094e-14,112 L388,112 C421.137085,112 448,138.862915 448,172 L448,560 L448,560 L2.84217094e-14,560 L2.84217094e-14,112 Z" mask="url(#bg-ambition_matrix-b)" opacity=".8"/>
    <path fill="#1672B6" d="M1.42108547e-14,336 L164,336 C197.137085,336 224,362.862915 224,396 L224,560 L224,560 L1.42108547e-14,560 L1.42108547e-14,336 Z" mask="url(#bg-ambition_matrix-b)" opacity=".8"/>
    <path fill="#31B6E4" fill-rule="nonzero" d="M49.8676758,454.5 L49.8676758,441.448242 L47.081543,441.448242 L47.081543,454.5 L49.8676758,454.5 Z M54.9213867,454.5 L54.9213867,443.698242 L59.9663086,454.5 L63.7983398,454.5 L63.7983398,441.483398 L61.2055664,441.483398 L61.2055664,451.731445 L56.3276367,441.483398 L52.293457,441.483398 L52.293457,454.5 L54.9213867,454.5 Z M71.5327148,454.807617 C73.003418,454.807617 74.203125,454.391602 75.1318359,453.55957 C76.0605469,452.727539 76.5249023,451.637695 76.5249023,450.290039 L76.5249023,450.290039 L73.5893555,450.290039 C73.5893555,450.999023 73.3710938,451.586426 72.9345703,452.052246 C72.4980469,452.518066 71.9428711,452.750977 71.269043,452.750977 C70.3725586,452.750977 69.6914062,452.374512 69.2255859,451.621582 C68.7597656,450.868652 68.5268555,449.756836 68.5268555,448.286133 C68.5268555,446.80957 68.7802734,445.634766 69.2871094,444.761719 C69.7939453,443.888672 70.519043,443.452148 71.4624023,443.452148 C72.0893555,443.452148 72.5786133,443.645508 72.9301758,444.032227 C73.2817383,444.418945 73.4956055,444.987305 73.5717773,445.737305 L73.5717773,445.737305 L76.4106445,445.737305 C76.3989258,444.407227 75.9345703,443.354004 75.0175781,442.577637 C74.1005859,441.80127 72.9536133,441.413086 71.5766602,441.413086 C69.7485352,441.413086 68.2983398,442.045898 67.2260742,443.311523 C66.1538086,444.577148 65.6176758,446.229492 65.6176758,448.268555 C65.6176758,450.313477 66.1362305,451.914551 67.1733398,453.071777 C68.2104492,454.229004 69.6635742,454.807617 71.5327148,454.807617 Z M80.9282227,454.5 L80.9282227,449.244141 L83.503418,449.244141 C84.2416992,449.244141 84.6738281,449.510742 84.7998047,450.043945 C84.9257812,450.577148 85.0473633,451.280273 85.1645508,452.15332 L85.1645508,452.15332 L85.4897461,454.5 L88.565918,454.5 C88.3432617,454.230469 88.1704102,453.713379 88.0473633,452.94873 C87.9243164,452.184082 87.8085938,451.369629 87.7001953,450.505371 C87.5917969,449.641113 87.3691406,449.036133 87.0322266,448.69043 C86.6953125,448.344727 86.1606445,448.133789 85.4282227,448.057617 C86.3540039,447.799805 87.0395508,447.404297 87.4848633,446.871094 C87.9301758,446.337891 88.152832,445.669922 88.152832,444.867187 C88.152832,443.941406 87.815918,443.145996 87.1420898,442.480957 C86.4682617,441.815918 85.3989258,441.483398 83.934082,441.483398 L83.934082,441.483398 L78.0893555,441.483398 L78.0893555,454.5 L80.9282227,454.5 Z M83.2749023,447.169922 L80.840332,447.169922 L80.840332,443.540039 L83.3100586,443.540039 C83.9487305,443.540039 84.4291992,443.690918 84.7514648,443.992676 C85.0737305,444.294434 85.2348633,444.729492 85.2348633,445.297852 C85.2348633,445.848633 85.059082,446.29834 84.7075195,446.646973 C84.355957,446.995605 83.878418,447.169922 83.2749023,447.169922 L83.2749023,447.169922 Z M99.253418,454.5 L99.253418,452.337891 L93.1362305,452.337891 L93.1362305,448.831055 L98.6821289,448.831055 L98.6821289,446.704102 L93.1362305,446.704102 L93.1362305,443.610352 L99.0600586,443.610352 L99.0600586,441.483398 L90.3500977,441.483398 L90.3500977,454.5 L99.253418,454.5 Z M103.700684,454.5 L103.700684,443.337891 L107.172363,454.5 L109.475098,454.5 L113.025879,443.337891 L113.025879,454.5 L115.794434,454.5 L115.794434,441.483398 L111.364746,441.483398 L108.394043,450.958008 L105.643066,441.483398 L101.090332,441.483398 L101.090332,454.5 L103.700684,454.5 Z M127.237793,454.5 L127.237793,452.337891 L121.120605,452.337891 L121.120605,448.831055 L126.666504,448.831055 L126.666504,446.704102 L121.120605,446.704102 L121.120605,443.610352 L127.044434,443.610352 L127.044434,441.483398 L118.334473,441.483398 L118.334473,454.5 L127.237793,454.5 Z M131.913574,454.5 L131.913574,443.698242 L136.958496,454.5 L140.790527,454.5 L140.790527,441.483398 L138.197754,441.483398 L138.197754,451.731445 L133.319824,441.483398 L129.285645,441.483398 L129.285645,454.5 L131.913574,454.5 Z M148.92041,454.5 L148.92041,443.645508 L152.796387,443.645508 L152.796387,441.483398 L142.249512,441.483398 L142.249512,443.645508 L146.116699,443.645508 L146.116699,454.5 L148.92041,454.5 Z M155.740723,454.5 L156.716309,451.696289 L161.866699,451.696289 L162.79834,454.5 L165.61084,454.5 L161.093262,441.483398 L157.779785,441.483398 L153.077637,454.5 L155.740723,454.5 Z M161.163574,449.586914 L157.437012,449.586914 L159.361816,444.041016 L161.163574,449.586914 Z M175.656738,454.5 L175.656738,452.285156 L170.075684,452.285156 L170.075684,441.500977 L167.228027,441.500977 L167.228027,454.5 L175.656738,454.5 Z" mask="url(#bg-ambition_matrix-b)"/>
    <path fill="#2082BF" fill-rule="nonzero" d="M185.72168,260.307617 C187.344727,260.307617 188.666016,259.919434 189.685547,259.143066 C190.705078,258.366699 191.214844,257.345703 191.214844,256.080078 C191.214844,255.177734 190.913086,254.436523 190.30957,253.856445 C189.706055,253.276367 188.777344,252.848633 187.523438,252.573242 C186.269531,252.297852 185.355469,252.037109 184.78125,251.791016 C184.207031,251.544922 183.919922,251.114258 183.919922,250.499023 C183.919922,249.948242 184.12207,249.516113 184.526367,249.202637 C184.930664,248.88916 185.443359,248.732422 186.064453,248.732422 C186.697266,248.732422 187.193848,248.897949 187.554199,249.229004 C187.914551,249.560059 188.121094,250.024414 188.173828,250.62207 L188.173828,250.62207 L188.173828,250.709961 L190.854492,250.709961 L190.854492,250.62207 C190.854492,249.40918 190.438477,248.464355 189.606445,247.787598 C188.774414,247.11084 187.637695,246.772461 186.196289,246.772461 C184.631836,246.772461 183.385254,247.125488 182.456543,247.831543 C181.527832,248.537598 181.057617,249.535156 181.045898,250.824219 C181.045898,251.398438 181.171875,251.919922 181.423828,252.388672 C181.675781,252.857422 182.126953,253.279297 182.777344,253.654297 C183.427734,254.029297 184.476562,254.398438 185.923828,254.761719 L185.923828,254.761719 L186.380859,254.867188 C187.013672,255.019531 187.491211,255.204102 187.813477,255.420898 C188.135742,255.637695 188.296875,255.989258 188.296875,256.475586 C188.296875,257.043945 188.068359,257.490723 187.611328,257.815918 C187.154297,258.141113 186.5625,258.303711 185.835938,258.303711 C185.080078,258.303711 184.49707,258.114746 184.086914,257.736816 C183.676758,257.358887 183.47168,256.762695 183.47168,255.948242 L183.47168,255.948242 L183.47168,255.842773 L180.632812,255.842773 C180.632812,257.360352 181.042969,258.483887 181.863281,259.213379 C182.683594,259.942871 183.969727,260.307617 185.72168,260.307617 Z M198.958008,260.254883 C200.62793,260.254883 201.981445,259.797852 203.018555,258.883789 C204.055664,257.969727 204.574219,256.745117 204.574219,255.209961 L204.574219,255.209961 L204.574219,247.018555 L201.849609,247.018555 L201.849609,255.139648 C201.849609,255.87793 201.748535,256.446289 201.546387,256.844727 C201.344238,257.243164 201.024902,257.55957 200.588379,257.793945 C200.151855,258.02832 199.608398,258.145508 198.958008,258.145508 C197.90918,258.145508 197.169434,257.908203 196.73877,257.433594 C196.308105,256.958984 196.092773,256.176758 196.092773,255.086914 L196.092773,255.086914 L196.092773,247.018555 L193.297852,247.018555 L193.297852,255.297852 C193.297852,256.891602 193.792969,258.116211 194.783203,258.97168 C195.773438,259.827148 197.165039,260.254883 198.958008,260.254883 Z M212.088867,260 C213.500977,260 214.532227,259.85498 215.182617,259.564941 C215.833008,259.274902 216.344238,258.858887 216.716309,258.316895 C217.088379,257.774902 217.274414,257.140625 217.274414,256.414062 C217.274414,255.587891 217.023926,254.88916 216.522949,254.317871 C216.021973,253.746582 215.355469,253.390625 214.523438,253.25 L214.523438,253.25 L214.523438,253.214844 C215.214844,252.992188 215.759766,252.64209 216.158203,252.164551 C216.556641,251.687012 216.755859,251.09375 216.755859,250.384766 C216.755859,249.664062 216.556641,249.018066 216.158203,248.446777 C215.759766,247.875488 215.245605,247.491699 214.615723,247.29541 C213.98584,247.099121 213.137695,247.000977 212.071289,247.000977 L212.071289,247.000977 L207.228516,247.000977 L207.228516,260 L212.088867,260 Z M211.930664,252.291992 L209.891602,252.291992 L209.891602,249.004883 L212.036133,249.004883 C212.774414,249.004883 213.298828,249.139648 213.609375,249.40918 C213.919922,249.678711 214.075195,250.083008 214.075195,250.62207 C214.075195,251.18457 213.911133,251.603516 213.583008,251.878906 C213.254883,252.154297 212.704102,252.291992 211.930664,252.291992 L211.930664,252.291992 Z M211.913086,257.908203 L209.891602,257.908203 L209.891602,254.313477 L211.623047,254.313477 C212.771484,254.313477 213.539062,254.462891 213.925781,254.761719 C214.3125,255.060547 214.505859,255.529297 214.505859,256.167969 C214.505859,256.619141 214.415039,256.967773 214.233398,257.213867 C214.051758,257.459961 213.79834,257.637207 213.473145,257.745605 C213.147949,257.854004 212.62793,257.908203 211.913086,257.908203 L211.913086,257.908203 Z M223.734375,260.307617 C225.357422,260.307617 226.678711,259.919434 227.698242,259.143066 C228.717773,258.366699 229.227539,257.345703 229.227539,256.080078 C229.227539,255.177734 228.925781,254.436523 228.322266,253.856445 C227.71875,253.276367 226.790039,252.848633 225.536133,252.573242 C224.282227,252.297852 223.368164,252.037109 222.793945,251.791016 C222.219727,251.544922 221.932617,251.114258 221.932617,250.499023 C221.932617,249.948242 222.134766,249.516113 222.539062,249.202637 C222.943359,248.88916 223.456055,248.732422 224.077148,248.732422 C224.709961,248.732422 225.206543,248.897949 225.566895,249.229004 C225.927246,249.560059 226.133789,250.024414 226.186523,250.62207 L226.186523,250.62207 L226.186523,250.709961 L228.867188,250.709961 L228.867188,250.62207 C228.867188,249.40918 228.451172,248.464355 227.619141,247.787598 C226.787109,247.11084 225.650391,246.772461 224.208984,246.772461 C222.644531,246.772461 221.397949,247.125488 220.469238,247.831543 C219.540527,248.537598 219.070312,249.535156 219.058594,250.824219 C219.058594,251.398438 219.18457,251.919922 219.436523,252.388672 C219.688477,252.857422 220.139648,253.279297 220.790039,253.654297 C221.44043,254.029297 222.489258,254.398438 223.936523,254.761719 L223.936523,254.761719 L224.393555,254.867188 C225.026367,255.019531 225.503906,255.204102 225.826172,255.420898 C226.148438,255.637695 226.30957,255.989258 226.30957,256.475586 C226.30957,257.043945 226.081055,257.490723 225.624023,257.815918 C225.166992,258.141113 224.575195,258.303711 223.848633,258.303711 C223.092773,258.303711 222.509766,258.114746 222.099609,257.736816 C221.689453,257.358887 221.484375,256.762695 221.484375,255.948242 L221.484375,255.948242 L221.484375,255.842773 L218.645508,255.842773 C218.645508,257.360352 219.055664,258.483887 219.875977,259.213379 C220.696289,259.942871 221.982422,260.307617 223.734375,260.307617 Z M236.944336,260 L236.944336,249.145508 L240.820312,249.145508 L240.820312,246.983398 L230.273438,246.983398 L230.273438,249.145508 L234.140625,249.145508 L234.140625,260 L236.944336,260 Z M243.764648,260 L244.740234,257.196289 L249.890625,257.196289 L250.822266,260 L253.634766,260 L249.117188,246.983398 L245.803711,246.983398 L241.101562,260 L243.764648,260 Z M249.1875,255.086914 L245.460938,255.086914 L247.385742,249.541016 L249.1875,255.086914 Z M257.932617,260 L257.932617,249.198242 L262.977539,260 L266.80957,260 L266.80957,246.983398 L264.216797,246.983398 L264.216797,257.231445 L259.338867,246.983398 L255.304688,246.983398 L255.304688,260 L257.932617,260 Z M274.939453,260 L274.939453,249.145508 L278.81543,249.145508 L278.81543,246.983398 L268.268555,246.983398 L268.268555,249.145508 L272.135742,249.145508 L272.135742,260 L274.939453,260 Z M282.875977,260 L282.875977,246.948242 L280.089844,246.948242 L280.089844,260 L282.875977,260 Z M286.760742,260 L287.736328,257.196289 L292.886719,257.196289 L293.818359,260 L296.630859,260 L292.113281,246.983398 L288.799805,246.983398 L284.097656,260 L286.760742,260 Z M292.183594,255.086914 L288.457031,255.086914 L290.381836,249.541016 L292.183594,255.086914 Z M306.676758,260 L306.676758,257.785156 L301.095703,257.785156 L301.095703,247.000977 L298.248047,247.000977 L298.248047,260 L306.676758,260 Z" mask="url(#bg-ambition_matrix-b)"/>
    <path fill="#31B6E4" fill-rule="nonzero" d="M344.082031,65 C345.494141,65 346.525391,64.8549805 347.175781,64.5649414 C347.826172,64.2749023 348.337402,63.8588867 348.709473,63.3168945 C349.081543,62.7749023 349.267578,62.140625 349.267578,61.4140625 C349.267578,60.5878906 349.01709,59.8891602 348.516113,59.3178711 C348.015137,58.746582 347.348633,58.390625 346.516602,58.25 L346.516602,58.25 L346.516602,58.2148438 C347.208008,57.9921875 347.75293,57.6420898 348.151367,57.1645508 C348.549805,56.6870117 348.749023,56.09375 348.749023,55.3847656 C348.749023,54.6640625 348.549805,54.0180664 348.151367,53.4467773 C347.75293,52.8754883 347.23877,52.4916992 346.608887,52.2954102 C345.979004,52.0991211 345.130859,52.0009766 344.064453,52.0009766 L344.064453,52.0009766 L339.22168,52.0009766 L339.22168,65 L344.082031,65 Z M343.923828,57.2919922 L341.884766,57.2919922 L341.884766,54.0048828 L344.029297,54.0048828 C344.767578,54.0048828 345.291992,54.1396484 345.602539,54.4091797 C345.913086,54.6787109 346.068359,55.0830078 346.068359,55.6220703 C346.068359,56.1845703 345.904297,56.6035156 345.576172,56.8789062 C345.248047,57.1542969 344.697266,57.2919922 343.923828,57.2919922 L343.923828,57.2919922 Z M343.90625,62.9082031 L341.884766,62.9082031 L341.884766,59.3134766 L343.616211,59.3134766 C344.764648,59.3134766 345.532227,59.4628906 345.918945,59.7617188 C346.305664,60.0605469 346.499023,60.5292969 346.499023,61.1679688 C346.499023,61.6191406 346.408203,61.9677734 346.226562,62.2138672 C346.044922,62.4599609 345.791504,62.637207 345.466309,62.7456055 C345.141113,62.8540039 344.621094,62.9082031 343.90625,62.9082031 L343.90625,62.9082031 Z M353.925781,65 L353.925781,59.7441406 L356.500977,59.7441406 C357.239258,59.7441406 357.671387,60.0107422 357.797363,60.5439453 C357.92334,61.0771484 358.044922,61.7802734 358.162109,62.6533203 L358.162109,62.6533203 L358.487305,65 L361.563477,65 C361.34082,64.7304688 361.167969,64.2133789 361.044922,63.4487305 C360.921875,62.684082 360.806152,61.8696289 360.697754,61.0053711 C360.589355,60.1411133 360.366699,59.5361328 360.029785,59.1904297 C359.692871,58.8447266 359.158203,58.6337891 358.425781,58.5576172 C359.351562,58.2998047 360.037109,57.9042969 360.482422,57.3710938 C360.927734,56.8378906 361.150391,56.1699219 361.150391,55.3671875 C361.150391,54.4414062 360.813477,53.6459961 360.139648,52.980957 C359.46582,52.315918 358.396484,51.9833984 356.931641,51.9833984 L356.931641,51.9833984 L351.086914,51.9833984 L351.086914,65 L353.925781,65 Z M356.272461,57.6699219 L353.837891,57.6699219 L353.837891,54.0400391 L356.307617,54.0400391 C356.946289,54.0400391 357.426758,54.190918 357.749023,54.4926758 C358.071289,54.7944336 358.232422,55.2294922 358.232422,55.7978516 C358.232422,56.3486328 358.056641,56.7983398 357.705078,57.1469727 C357.353516,57.4956055 356.875977,57.6699219 356.272461,57.6699219 L356.272461,57.6699219 Z M372.250977,65 L372.250977,62.8378906 L366.133789,62.8378906 L366.133789,59.3310547 L371.679688,59.3310547 L371.679688,57.2041016 L366.133789,57.2041016 L366.133789,54.1103516 L372.057617,54.1103516 L372.057617,51.9833984 L363.347656,51.9833984 L363.347656,65 L372.250977,65 Z M375.757812,65 L376.733398,62.1962891 L381.883789,62.1962891 L382.81543,65 L385.62793,65 L381.110352,51.9833984 L377.796875,51.9833984 L373.094727,65 L375.757812,65 Z M381.180664,60.0869141 L377.454102,60.0869141 L379.378906,54.5410156 L381.180664,60.0869141 Z M390.004883,65 L390.004883,58.3730469 L394.557617,65 L398.029297,65 L392.84375,57.8193359 L397.616211,51.9833984 L394.355469,51.9833984 L390.004883,57.6171875 L390.004883,52.0185547 L387.209961,52.0185547 L387.209961,65 L390.004883,65 Z M404.9375,65 L404.9375,54.1455078 L408.813477,54.1455078 L408.813477,51.9833984 L398.266602,51.9833984 L398.266602,54.1455078 L402.133789,54.1455078 L402.133789,65 L404.9375,65 Z M413.005859,65 L413.005859,59.2958984 L417.954102,59.2958984 L417.954102,65 L420.740234,65 L420.740234,51.9833984 L417.918945,51.9833984 L417.918945,57.1865234 L413.005859,57.1865234 L413.005859,51.9833984 L410.210938,51.9833984 L410.210938,65 L413.005859,65 Z M425.925781,65 L425.925781,59.7441406 L428.500977,59.7441406 C429.239258,59.7441406 429.671387,60.0107422 429.797363,60.5439453 C429.92334,61.0771484 430.044922,61.7802734 430.162109,62.6533203 L430.162109,62.6533203 L430.487305,65 L433.563477,65 C433.34082,64.7304688 433.167969,64.2133789 433.044922,63.4487305 C432.921875,62.684082 432.806152,61.8696289 432.697754,61.0053711 C432.589355,60.1411133 432.366699,59.5361328 432.029785,59.1904297 C431.692871,58.8447266 431.158203,58.6337891 430.425781,58.5576172 C431.351562,58.2998047 432.037109,57.9042969 432.482422,57.3710938 C432.927734,56.8378906 433.150391,56.1699219 433.150391,55.3671875 C433.150391,54.4414062 432.813477,53.6459961 432.139648,52.980957 C431.46582,52.315918 430.396484,51.9833984 428.931641,51.9833984 L428.931641,51.9833984 L423.086914,51.9833984 L423.086914,65 L425.925781,65 Z M428.272461,57.6699219 L425.837891,57.6699219 L425.837891,54.0400391 L428.307617,54.0400391 C428.946289,54.0400391 429.426758,54.190918 429.749023,54.4926758 C430.071289,54.7944336 430.232422,55.2294922 430.232422,55.7978516 C430.232422,56.3486328 430.056641,56.7983398 429.705078,57.1469727 C429.353516,57.4956055 428.875977,57.6699219 428.272461,57.6699219 L428.272461,57.6699219 Z M441.03418,65.3251953 C442.305664,65.3251953 443.421875,65.0410156 444.382812,64.4726562 C445.34375,63.9042969 446.062988,63.0751953 446.540527,61.9853516 C447.018066,60.8955078 447.256836,59.6914062 447.256836,58.3730469 C447.256836,56.4511719 446.736816,54.8618164 445.696777,53.6049805 C444.656738,52.3481445 443.102539,51.7197266 441.03418,51.7197266 C439.05957,51.7197266 437.524414,52.3364258 436.428711,53.5698242 C435.333008,54.8032227 434.785156,56.5009766 434.785156,58.6630859 C434.785156,60.7724609 435.334473,62.4101562 436.433105,63.5761719 C437.531738,64.7421875 439.06543,65.3251953 441.03418,65.3251953 Z M440.981445,63.2685547 C439.90332,63.2685547 439.087402,62.8642578 438.533691,62.0556641 C437.97998,61.2470703 437.703125,60.0458984 437.703125,58.4521484 C437.703125,56.9345703 437.990234,55.765625 438.564453,54.9453125 C439.138672,54.125 439.973633,53.7148438 441.069336,53.7148438 C442.124023,53.7148438 442.934082,54.1337891 443.499512,54.9716797 C444.064941,55.8095703 444.347656,56.9199219 444.347656,58.3027344 C444.347656,59.8320312 444.086914,61.0419922 443.56543,61.9326172 C443.043945,62.8232422 442.182617,63.2685547 440.981445,63.2685547 Z M454.964844,65.2548828 C456.634766,65.2548828 457.988281,64.7978516 459.025391,63.8837891 C460.0625,62.9697266 460.581055,61.7451172 460.581055,60.2099609 L460.581055,60.2099609 L460.581055,52.0185547 L457.856445,52.0185547 L457.856445,60.1396484 C457.856445,60.8779297 457.755371,61.4462891 457.553223,61.8447266 C457.351074,62.2431641 457.031738,62.5595703 456.595215,62.7939453 C456.158691,63.0283203 455.615234,63.1455078 454.964844,63.1455078 C453.916016,63.1455078 453.17627,62.9082031 452.745605,62.4335938 C452.314941,61.9589844 452.099609,61.1767578 452.099609,60.0869141 L452.099609,60.0869141 L452.099609,52.0185547 L449.304688,52.0185547 L449.304688,60.2978516 C449.304688,61.8916016 449.799805,63.1162109 450.790039,63.9716797 C451.780273,64.8271484 453.171875,65.2548828 454.964844,65.2548828 Z M469.950195,65.2900391 C470.881836,65.2900391 471.724121,65.2314453 472.477051,65.1142578 C473.22998,64.9970703 473.972656,64.8154297 474.705078,64.5693359 L474.705078,64.5693359 L474.705078,58.0742188 L469.396484,58.0742188 L469.396484,60.2275391 L471.910156,60.2275391 L471.910156,62.9697266 C471.640625,63.0576172 471.313965,63.1206055 470.930176,63.1586914 C470.546387,63.1967773 470.123047,63.2158203 469.660156,63.2158203 C468.330078,63.2158203 467.32959,62.8217773 466.658691,62.0336914 C465.987793,61.2456055 465.652344,60.1044922 465.652344,58.6103516 C465.652344,57.0693359 465.977539,55.859375 466.62793,54.9804688 C467.27832,54.1015625 468.21875,53.6621094 469.449219,53.6621094 C470.228516,53.6621094 470.839355,53.8569336 471.281738,54.246582 C471.724121,54.6362305 471.959961,55.2148438 471.989258,55.9824219 L471.989258,55.9824219 L474.880859,55.9824219 C474.880859,54.5761719 474.384277,53.4980469 473.391113,52.7480469 C472.397949,51.9980469 471.107422,51.6230469 469.519531,51.6230469 C467.451172,51.6230469 465.797363,52.2543945 464.558105,53.5170898 C463.318848,54.7797852 462.699219,56.5068359 462.699219,58.6982422 C462.699219,60.7783203 463.270508,62.3969727 464.413086,63.5541992 C465.555664,64.7114258 467.401367,65.2900391 469.950195,65.2900391 Z M480.013672,65 L480.013672,59.2958984 L484.961914,59.2958984 L484.961914,65 L487.748047,65 L487.748047,51.9833984 L484.926758,51.9833984 L484.926758,57.1865234 L480.013672,57.1865234 L480.013672,51.9833984 L477.21875,51.9833984 L477.21875,65 L480.013672,65 Z" mask="url(#bg-ambition_matrix-b)"/>
  </g>
</svg>
