<svg viewBox="0 0 364 309" xmlns="http://www.w3.org/2000/svg"><path fill="#47B7E2" fill-rule="evenodd" d="M181.769 267.388c22.43-8.947 58.275-14.569 104.005-2.376l5.226 1.377-5.02 2.02c-21.15 8.491-47.64 11.02-62.98 5.925-5.81-1.925-9.325-5.039-13.611-9.134-7.013.71-13.91 2.721-20.536 5.626 5.457 2.915 25.694 14.49 39.226 31.851l.921 1.208-1.034 1.114c-1.072 1.132-3.628 3.076-5.283 3.642l-1.147.359s-.808-.887-.808-.906c-9.49-11.603-23.357-24.892-39.236-33.628-15.883 8.735-29.747 22.025-39.239 33.628l-.79.906-1.146-.377c-1.655-.548-4.211-2.491-5.264-3.624L134 303.886l.94-1.208c13.497-17.357 33.727-28.943 39.2-31.85-6.632-2.91-13.533-4.925-20.547-5.635-4.306 4.096-7.784 7.21-13.574 9.154-15.36 5.077-41.868 2.567-63.018-5.945L72 266.382l5.226-1.378c45.904-12.228 81.855-6.52 104.28 2.49ZM27 220l3.892.624c14.203 2.22 54.36 23.982 60.536 32.807l1.572 2.22-2.77.46c-33.102 5.559-50.786-16.093-61.228-32.863l-.992-1.615L27 220Zm309 0-1.01 1.633-.993 1.596c-10.426 16.771-28.114 38.442-61.245 32.882l-2.752-.477 1.554-2.202c6.195-8.826 46.383-30.588 60.571-32.826L336 220ZM77 208l3.258 1.657c10.854 7.228 41.9 33.038 44.193 41.904l.549 2.071-2.178.15c-33.907 2.843-42.052-22.778-45.235-42.3l-.303-1.731L77 208Zm209 0-.284 1.75-.303 1.733c-3.184 19.521-11.351 45.142-45.253 42.3l-2.16-.151.53-2.07c2.294-8.867 33.352-34.677 44.23-41.924L286 208ZM181.01 0C249.351 0 305 54.5 305 121.5S249.352 243 181.01 243C112.63 243 57 188.5 57 121.5S112.63 0 181.01 0ZM55.32 169l2.093 2.743c7.555 10.001 17.205 42.729 17.587 55.734 0 0-.2 2.388-.2 2.444L74.308 233l-2.294-1.437c-13.49-8.657-20.518-21.178-20.991-37.168-.2-7.053.928-14.498 3.295-22.111l.492-1.66.51-1.624Zm252.32 0 .51 1.623.53 1.642c2.386 7.632 3.497 15.058 3.297 22.148-.455 15.972-7.525 28.474-21.025 37.15L288.674 233l-.492-3.079c-.018-.056-.182-2.444-.182-2.444.346-13.005 10.003-45.752 17.582-55.734L307.64 169ZM4 165l3.635 2.265c16.113 9.995 41.22 40.3 46.09 53.31L55 224l-3.56-1.123c-26.043-8.161-42.906-36.332-46.56-53.722l-.43-2.077L4 165Zm355 0-.43 2.078-.45 2.059c-3.653 17.389-20.528 45.56-46.543 53.721L308 224l1.311-3.444c4.832-13.01 29.93-43.296 46.056-53.291L359 165ZM136.558 13.363C92.126 30.886 63.123 72.042 62.074 118.82c6.61-5.641 15.391-11.376 19.249-13.156 4.85-2.25 9.062-7.44 7.601-13.194-1.46-5.716-8.481-27.531 5.543-42.45 14.062-14.918 35.875-16.323 57.389 1.144 22.562 18.329 9.755 35.983 6.441 40.181-2.04 2.549-4.138 6.447-2.621 10.046 1.751 4.138.523 4.838-1.031 5.443l-.224.086c-.828.316-1.71.649-2.265 1.48-.618.862.73 2.98-.45 4.01-1.16.994-1.666.581-2.116 1.444-.449.843.73 2.417-.505 3.223-.993.6-2.303-.637-4.1 1.556-.14.168-.276.338-.41.51l-.2.26-.3.393-.202.261-.206.26c-1.43 1.777-3.305 3.42-8.494 3.563-1.983.046-4.546-.652-7.207-1.347l-.64-.167c-4.813-1.241-9.82-2.281-12.207 1.233-1.46 2.155-1.048 4.086-.58 5.304.926 2.401 2.243 9.765 3.41 17.55l.161 1.088c.107.727.213 1.455.316 2.182l.154 1.089c1.244 8.87 2.162 17.188 1.95 18.235 4.663 7.984 19.68 4.423 24.735 6.878.6.28 2.19.43 3.82-.993 1.61-1.444 6.59-5.398 10.373-5.023.177.013.371.02.572.028l.202.008c1.427.064 3.03.282 1.566 3.131-.58 1.143 1.03 1.293 2.21.712 1.18-.58 10.523-4.31 6.572 9.034-3.95 13.325-13.687 12.556-20.784 10.026-1.61-.562-2.77-.862-5.41 0-1.34.447-6.789 1.401-12.327 2.212l-.977.142c-5.047.723-9.972 1.295-11.73 1.226-3.783-.131-10.524.15-15.055-4.292-2.771 3.88-5.524 9.633-3.932 14.993 3.838 3.467 7.883 6.71 12.152 9.652 7.901 1.949 18.069.974 25.745-1.687 2.041-.73 26.195-11.376 39.789-11.9 11.122-.432 11.403-9.896 9.25-15.05-1.835-4.292-2.21-10.776-2.378-14.787-.131-4.03-1.161-9.595-9.194-15.499-8.07-5.885-12.9-9.445-12.9-14.618 0-2.867 1.816-6.616 3.37-7.46 1.61-.88 2.04-2.867 1.91-4.01-.15-1.18-1.498-5.453 3.351-5.453.861 0 2.49-.863 2.49-2.587 0-1.724-1.572-7.403 2.34-6.316 1.012.3 2.79-1.012 2.79-2.867s-7.283-10.758 4.251-10.326c7.808.262 16.796-3.074 20.484-7.647 17.994-22.227 45.893-26.556 72.144-1.8 24.341 22.94 19.38 58.136 3.52 73.992-14.043 14.056-25.446 17.204-36.287 17.204-2.06 0-5.28-2.024-6.142 2.586-.898 4.517-.561 16.811 15.935 25.695 28.535-21.328 46.978-54.968 46.978-92.751 0-22.752-6.722-44.754-19.36-63.702-6.647 4.386-13.594 8.284-20.653 11.732.505 1.181 2.715 6.372 2.715 6.372l.768 1.818-6.666-2.905s-.936-2.117-1.404-3.167c-1.199.525-3.09 1.33-3.09 1.33s-4.063-1.255-9.4-1.836c0 0 3.195-1.105 6.38-2.338l.53-.207a73.616 73.616 0 0 0 3.426-1.428c-4.082-7.965-8.987-15.462-14.698-22.321a120.838 120.838 0 0 1-22.263 9.277c.741 1.805 1.683 4.372 2.639 7.082l.239.68.239.683a677.27 677.27 0 0 1 4.054 12.058l-4.868 1.48-.019-.058-.033-.103c-.28-.867-1.656-5.109-3.23-9.714l-.231-.677-.352-1.02-.236-.68c-1.103-3.17-2.228-6.271-3.089-8.344-9.137 2.342-18.48 3.636-27.824 3.823v23.108c1.161-.075 3.333-.187 3.333-.187 6.385-.356 13.463-.825 21.495-1.856l3.633-.318-6.666 5.772-.337.056c-7.602.656-13.893 1.162-21.458 1.518v8.321h-5.149V59.335c-2.546-.075-9.38-.3-11.59-.469l-.506-.056-.206-.43c-.543-1.032-1.18-2.175-1.984-3.337l-1.068-1.555 1.91.187c3.052.3 10.542.619 13.444.675V34.334a56.57 56.57 0 0 1-15.41-2.774c-.83 1.35-2.157 3.688-3.501 6.1l-.337.605c-2.184 3.93-4.307 7.857-4.307 7.857s-.73-.637-1.854-1.386c-1.123-.731-2.359-1.462-2.359-1.462s2.074-3.828 4.165-7.594l.321-.578c1.178-2.115 2.327-4.147 3.079-5.397-4.026-1.743-7.827-3.898-11.31-6.485-1.507 1.065-3.593 2.677-5.693 4.344l-.821.654a525.239 525.239 0 0 0-7.358 5.999l-.096.08s-2.022-.6-2.977-.806c-1.367-.338-2.846-.562-2.846-.562s4.865-4.254 9.565-8.128l.552-.454c2.11-1.73 4.147-3.347 5.649-4.425a60.943 60.943 0 0 1-6.292-6.56ZM316.798 131l1.082 1.572 1.102 1.573c8.227 11.774 12.388 23.848 12.122 34.967-.209 8.236-2.926 16.117-8.056 23.417L321.3 195l-1.444-2.602c-3.534-6.458-6.365-27.31-5.928-43.802.133-5.84.741-10.67 1.748-13.946l1.121-3.65Zm-269.555 0 1.083 3.65c.988 3.276 1.615 8.105 1.767 13.946.4 16.491-2.394 37.344-5.966 43.783L42.702 195l-1.729-2.47c-5.13-7.32-7.866-15.182-8.094-23.418-.247-11.12 3.933-23.193 12.141-34.967l1.121-1.573L47.243 131Zm316.227-20 .15 2.266.169 2.247c.862 12.285.225 42.547-24.847 58.596 0 .018-2.942 1.891-2.942 1.891l.131-3.446c.431-11.498 14.148-45.786 24.416-58.07L363.47 111ZM.523 111l2.922 3.502c10.283 12.285 23.974 46.573 24.405 58.052L28 176s-2.978-1.854-2.978-1.873C-.02 158.06-.675 127.797.224 115.532l.3-4.532ZM46.79 95l.189 4.005c.547 13.137-9.701 41.403-17.44 52.11L27.465 154l-1.152-3.341c-1.264-3.607-2-7.08-2.227-10.308-1.396-20.957 14.778-37.89 19.78-42.58l1.49-1.385L46.79 95Zm270.382 0 1.492 1.386 1.455 1.367c5.005 4.688 21.21 21.64 19.794 42.598-.227 3.227-.964 6.682-2.191 10.289L336.55 154l-2.097-2.904c-7.744-10.707-17.98-38.954-17.433-52.11l.151-3.986Zm33.015-33 .836 2.165.855 2.202c1.16 3.042 3.287 9.425 4.408 17.898 1.615 12.019 1.235 29.002-9.595 41.712 0-.02-1.216 1.493-1.216 1.493l-1.254 1.53-1.615-7.708c-1.805-13.642.57-42.215 5.795-54.962l1.786-4.33ZM13.833 62l1.786 4.33c5.187 12.747 7.562 41.32 5.776 54.962L19.78 129l-1.254-1.549s-1.216-1.512-1.197-1.493c-10.85-12.672-11.21-29.674-9.614-41.693 1.12-8.473 3.268-14.856 4.446-17.898l.836-2.202.836-2.165ZM306 57l2.002 1.257 2.04 1.256c19.127 11.966 27.922 26.2 26.874 43.511l-.224 3.976-2.789-2.363c-10.311-8.721-22.981-30.702-26.574-43.117L306 57ZM59 57l-1.41 4.575c-3.889 12.471-17.042 34.491-27.565 43.09L27.206 107l-.169-4.005c-.695-17.54 8.4-31.777 27.848-43.49l2.067-1.252L59 57ZM48 30l-.863 5.072C44.087 53.07 36.575 68.682 26.6 77.918L24.323 80s-.79-3.634-.808-3.653c0 0-.239-1.23-.257-1.286-2.498-18.452 13.795-35.277 20.94-41.636l1.892-1.703L48 30Zm268 0 1.91 1.722 1.91 1.685c7.144 6.377 23.435 23.202 20.918 41.635a94.933 94.933 0 0 0-.275 1.287c0 .037-.771 3.671-.771 3.671l-2.278-2.1c-9.99-9.217-17.502-24.811-20.55-42.847L316 30Zm-58.597 2.179a118.722 118.722 0 0 1-14.436 10.139c5.73 7.047 10.71 14.674 14.792 22.696a166.946 166.946 0 0 0 19.96-11.32 118.764 118.764 0 0 0-20.316-21.515Zm-58.269-.619c-5.018 1.65-10.26 2.587-15.597 2.83V54.37a116.34 116.34 0 0 0 25.783-3.486c-2.996-6.672-6.385-13.157-10.186-19.323Zm16.122-8.32c-3.54 2.604-7.321 4.74-11.328 6.484a177.667 177.667 0 0 1 10.354 19.79 115.527 115.527 0 0 0 20.877-8.545c-5.954-6.579-12.657-12.576-19.903-17.73Zm10.298-9.84a59.562 59.562 0 0 1-6.291 6.578c7.452 5.435 14.323 11.639 20.409 18.48 4.812-2.83 9.4-5.98 13.668-9.446-8.575-6.447-17.9-11.714-27.786-15.612Zm-47.166-3.205c-4.569 5.454-8.819 11.133-12.62 16.961a52.561 52.561 0 0 0 12.62 2.193Zm5.15-.225V29.35c4.343-.188 8.65-.956 12.806-2.193A171.979 171.979 0 0 0 183.537 9.97Zm-10.805-.805c-7.508 3.036-14.68 6.728-21.364 11.076 2.94 2.042 6.086 3.804 9.493 5.21 3.633-5.66 7.658-11.095 11.871-16.286Zm16.59-.038c4.306 5.304 8.37 10.739 11.965 16.305a51.466 51.466 0 0 0 9.511-5.191 124.612 124.612 0 0 0-21.476-11.114Zm4.906-3.355c7.264 3.111 14.23 6.86 20.783 11.264a50.614 50.614 0 0 0 5.486-5.491c-8.425-2.905-17.244-4.836-26.27-5.773Zm-26.195-.075c-9.063.956-17.9 2.868-26.439 5.81 1.685 1.912 3.483 3.767 5.505 5.51 6.591-4.423 13.594-8.19 20.934-11.32Z" /></svg>