<?xml version="1.0" encoding="UTF-8"?>
<svg width="30px" height="30px" viewBox="0 0 30 30" version="1.1" xmlns="http://www.w3.org/2000/svg" xmlns:xlink="http://www.w3.org/1999/xlink">
    <!-- Generator: Sketch 51 (57462) - http://www.bohemiancoding.com/sketch -->
    <title>icon-role-implementer copy</title>
    <desc>Created with Sketch.</desc>
    <defs></defs>
    <g id="00---Login/signup" stroke="none" stroke-width="1" fill="none" fill-rule="evenodd">
        <g id="2---Signup" transform="translate(-576.000000, -344.000000)">
            <rect x="0" y="0" width="1440" height="1465"></rect>
            <g id="Form" transform="translate(440.000000, 210.000000)" fill="#008DC9">
                <g id="fieldset" transform="translate(96.000000, 88.000000)">
                    <g id="Group-6" transform="translate(0.000000, 46.000000)">
                        <g id="icon-role-implementer-copy" transform="translate(40.000000, 0.000000)">
                            <path d="M21.5789474,27.8571429 L21.5789474,24.7273469 L23.7368421,20.8876531 L23.7368421,27.942551 C23.7368421,29.1554082 22.8829323,30 21.6612556,30 L2.0678797,30 C0.846511278,30 0,29.1554082 0,27.942551 L0,2.19122449 C0,0.978061224 0.846511278,0 2.0678797,0 L21.6612556,0 C22.8829323,0 23.7368421,0.978061224 23.7368421,2.19122449 L23.7368421,10.0760204 L21.5789474,13.9157143 L21.5789474,2.14285714 L2.15789474,2.14285714 L2.15789474,27.8571429 L16.4912481,27.8571429 L16.8022932,27.8571429 L21.5789474,27.8571429 Z M4.0075188,5.51020408 L16.0300752,5.51020408 L16.0300752,7.04081633 L4.0075188,7.04081633 L4.0075188,5.51020408 Z M4.0075188,12.5510204 L16.0300752,12.5510204 L16.0300752,14.0816327 L4.0075188,14.0816327 L4.0075188,12.5510204 Z M4.0075188,9.18367347 L19.7293233,9.18367347 L19.7293233,10.7142857 L4.0075188,10.7142857 L4.0075188,9.18367347 Z M4.0075188,16.2244898 L19.7293233,16.2244898 L19.7293233,17.755102 L4.0075188,17.755102 L4.0075188,16.2244898 Z M4.0075188,19.5918367 L16.0300752,19.5918367 L16.0300752,21.122449 L4.0075188,21.122449 L4.0075188,19.5918367 Z M27.0341053,7.71459184 L29.2006316,8.95010204 L28.6161504,9.96091837 L28.363985,10.3968367 L26.1974586,9.16132653 L26.4496241,8.72510204 L27.0341053,7.71459184 Z M17.8796992,23.1394898 L25.6095865,9.96091837 L27.7761128,11.1964286 L20.1066466,24.3753061 L17.8796992,25.7142857 L17.8796992,23.1394898 Z M5.42679699,26.1670408 C4.60004748,26.1670408 3.92983459,25.5014984 3.92983459,24.6805102 C3.92983459,23.859522 4.60004748,23.1939796 5.42679699,23.1939796 C6.2535465,23.1939796 6.9237594,23.859522 6.9237594,24.6805102 C6.9237594,25.5014984 6.2535465,26.1670408 5.42679699,26.1670408 Z M10.176015,26.1854082 C9.34926553,26.1854082 8.67905263,25.5198657 8.67905263,24.6988776 C8.67905263,23.8778894 9.34926553,23.2123469 10.176015,23.2123469 C11.0027645,23.2123469 11.6729774,23.8778894 11.6729774,24.6988776 C11.6729774,25.5198657 11.0027645,26.1854082 10.176015,26.1854082 Z" id="Combined-Shape"></path>
                        </g>
                    </g>
                </g>
            </g>
        </g>
    </g>
</svg>
