<?xml version="1.0" encoding="UTF-8"?>
<svg width="27px" height="32px" viewBox="0 0 27 32" version="1.1" xmlns="http://www.w3.org/2000/svg" xmlns:xlink="http://www.w3.org/1999/xlink">
    <!-- Generator: Sketch 51 (57462) - http://www.bohemiancoding.com/sketch -->
    <title>icon-role-investor copy</title>
    <desc>Created with Sketch.</desc>
    <defs></defs>
    <g id="00---Login/signup" stroke="none" stroke-width="1" fill="none" fill-rule="evenodd">
        <g id="2---Signup" transform="translate(-575.000000, -494.000000)">
            <rect x="0" y="0" width="1440" height="1465"></rect>
            <g id="Form" transform="translate(440.000000, 210.000000)" fill="#008DC9">
                <g id="fieldset" transform="translate(96.000000, 88.000000)">
                    <g id="Group-6" transform="translate(0.000000, 196.000000)">
                        <g id="icon-role-investor-copy" transform="translate(39.000000, 0.000000)">
                            <path d="M18.5251566,27.3243036 L14.5021803,27.3243036 L13.3991062,22.2205505 C15.6376978,19.0595163 13.2368894,18.9278065 12.8151258,18.9278065 L12.8151258,18.9278065 L12.8151258,18.9278065 C12.3933622,18.9278065 10.0249972,19.0924437 12.2311454,22.2205505 L11.1280713,27.3243036 L0,27.3243036 L0,23.6693578 C0,22.9120267 0.324433565,22.1546956 0.908413981,21.660784 C4.18519299,18.9278065 7.72151884,17.1167974 8.43527269,16.7545955 C8.5001594,16.7216681 8.56504611,16.6228858 8.56504611,16.5570309 L8.56504611,14.6472394 C8.07839576,13.8240534 7.81884891,12.8691577 7.68907549,12.0459717 C7.39708528,12.0130443 7.007765,11.617915 6.61844472,10.1691077 C6.06690766,8.16053385 6.65088808,7.8641869 7.13753843,7.93004178 C6.7806615,6.87636372 6.74821815,5.85561309 7.007765,4.90071735 C7.26731185,3.78118441 7.85129227,2.89214355 8.53260275,2.16773988 C8.95436639,1.70675573 9.44101674,1.31162645 9.96011044,0.982352058 C10.3818741,0.686005104 10.8360811,0.455513028 11.3227314,0.257948391 L11.3227314,0.257948391 C11.7120517,0.126238633 12.1338153,0.027456315 12.5880223,0.027456315 C13.9506433,-0.104253443 14.9888307,0.257948391 15.7350279,0.686005104 C16.838102,1.31162645 17.2598656,2.13481244 17.2598656,2.13481244 C17.2598656,2.13481244 20.0499943,2.33237707 18.8171468,8.25931617 C19.206467,8.39102593 19.4660139,8.91786496 19.0118069,10.4654546 C18.4927132,12.3752461 18.0060628,12.4740284 17.7140726,12.2764638 C17.5842992,12.9350126 17.3896391,13.6594162 17.0652055,14.3508925 L17.0652055,16.5570309 C17.0652055,16.6558132 17.1300922,16.7216681 17.1949789,16.7545955 C17.5518559,16.9521602 18.6873733,17.5119267 20.114881,18.4009675 C18.9144768,19.1912261 18.200723,20.4095413 18.1358363,21.9242035 C18.0709496,23.1095914 18.3953831,24.7888908 20.4393146,26.0401335 C20.4717579,26.0401335 20.4717579,26.0730609 20.5042013,26.0730609 C20.3744279,26.0401335 20.2446544,26.007206 20.0824377,26.007206 C19.7580041,26.0401335 18.9144768,26.1718432 18.5251566,27.3243036 L18.5251566,27.3243036 Z M24.4947341,30.0572811 C25.208488,29.8597164 25.7924684,29.4645872 26.2791187,28.9048207 C27.576853,27.3243036 27.0577593,25.0193828 25.2409313,23.9657048 C24.6569509,23.6364304 24.0729705,23.4059383 23.4565467,23.1425188 C23.0996698,23.010809 22.7752362,22.8132444 22.483246,22.5827523 C21.8992656,22.1217682 22.0290391,21.3644371 22.7103495,21.0351627 C22.9050097,20.9363804 23.0996698,20.9363804 23.29433,20.9034529 C24.0729705,20.8705255 24.8191677,21.0022352 25.5329216,21.3644371 C25.8897985,21.5290743 26.0195719,21.4961468 26.116902,21.1010175 C26.2466754,20.7058883 26.3440055,20.310759 26.4737789,19.9156297 C26.5386656,19.6522102 26.4413355,19.4546456 26.214232,19.3558633 C25.760025,19.1582986 25.2733747,18.9936614 24.7867244,18.9278065 C24.1378572,18.8290242 24.1378572,18.8290242 24.1378572,18.1704754 C24.1378572,17.2485071 24.1378572,17.2485071 23.2294432,17.2485071 L22.840123,17.2485071 C22.4183593,17.2485071 22.3534726,17.3472895 22.3210293,17.7753462 L22.3210293,18.3680401 C22.3210293,18.960734 22.3210293,18.9278065 21.7694922,19.1253712 C20.4393146,19.6192828 19.6282307,20.5412511 19.5309006,21.9900584 C19.4660139,23.2742286 20.114881,24.1632694 21.1530684,24.7888908 C21.8019356,25.18402 22.5156894,25.4145121 23.1969999,25.7108591 C23.4565467,25.8425688 23.7160936,25.9742786 23.9431971,26.1718432 C24.5920642,26.7316097 24.4947341,27.653578 23.6836502,27.9828524 C23.2618866,28.180417 22.840123,28.2133445 22.385916,28.1474896 C21.6721621,28.0487073 21.023295,27.8840701 20.3744279,27.5547957 C20.0175509,27.357231 19.8877775,27.4230859 19.7580041,27.8182152 C19.660674,28.180417 19.563344,28.5096914 19.4660139,28.8718933 C19.3362405,29.3328774 19.3686838,29.4645872 19.8228908,29.6950792 C20.4068712,29.9914262 20.9908516,30.123136 21.6397188,30.2219183 C22.1263691,30.2877731 22.1263691,30.3207006 22.1588125,30.8475396 L22.1588125,31.5390158 C22.1588125,31.8353628 22.2885859,32 22.6130195,32 L23.6187635,32 C23.8783104,32 24.0405272,31.8353628 24.0405272,31.5719433 L24.0405272,30.6170475 C24.0729705,30.2877731 24.2027439,30.123136 24.4947341,30.0572811 L24.4947341,30.0572811 Z" id="Shape"></path>
                        </g>
                    </g>
                </g>
            </g>
        </g>
    </g>
</svg>
