<?xml version="1.0" encoding="UTF-8"?>
<svg width="30px" height="30px" viewBox="0 0 30 30" version="1.1" xmlns="http://www.w3.org/2000/svg" xmlns:xlink="http://www.w3.org/1999/xlink">
    <!-- Generator: Sketch 51 (57462) - http://www.bohemiancoding.com/sketch -->
    <title>icon-role-government copy</title>
    <desc>Created with Sketch.</desc>
    <defs></defs>
    <g id="00---Login/signup" stroke="none" stroke-width="1" fill="none" fill-rule="evenodd">
        <g id="2---Signup" transform="translate(-573.000000, -626.000000)">
            <rect x="0" y="0" width="1440" height="1465"></rect>
            <g id="Form" transform="translate(440.000000, 210.000000)" fill="#008DC9">
                <g id="fieldset" transform="translate(96.000000, 88.000000)">
                    <g id="Group-6" transform="translate(0.000000, 328.000000)">
                        <g id="icon-role-government-copy" transform="translate(37.000000, 0.000000)">
                            <path d="M7.71440326,15.4237624 L7.71440326,16 L6,16 L6,13 L24,13 L24,16 L22.2855967,16 L22.2855967,15.4237624 L15,13.7236724 L7.71440326,15.4237624 Z M21,27 L18.6000576,27 L18.6000576,17.6565791 L16.2001152,17.6565791 L16.2001152,27 L13.7998848,27 L13.7998848,17.6565791 L11.3999424,17.6565791 L11.3999424,27 L9,27 L9,17.6565791 L9,16.8440059 L9,16.8437134 L9,15.6248537 L15,14 L21,15.6248537 L21,16.8437134 L21,16.8440059 L21,17.6565791 L21,27 Z M20,11.1430776 L20,12 L10,12 L10,11.1430776 C10,11.142769 10,11.142769 10,11.142769 C10,8.59514503 11.8026639,6.48570253 14.1669167,6.07683604 L14.1669167,4.92861551 C14.1669167,4.81042995 14.2599148,4.71446204 14.3751125,4.71446204 L14.5833083,4.71446204 L14.5833083,0.428615511 C14.5833083,0.191627237 14.7696046,0 15,0 C15.2303954,0 15.4166917,0.191627237 15.4166917,0.428615511 L15.4166917,0.620242748 C16.8845623,1.37595145 18.0938381,0.0737502571 20,0.857231022 L20,3.84241926 C18.0941381,3.05893849 16.8848623,4.36113968 15.4166917,3.60543098 L15.4166917,4.71446204 L15.6248875,4.71446204 C15.7397852,4.71446204 15.8330833,4.81012137 15.8330833,4.92861551 L15.8330833,6.07683604 C18.1973361,6.48570253 20,8.59514503 20,11.142769 L20,11.1430776 Z M7.71440326,28 L22.2855967,28 L24,30 L6,30 L7.71440326,28 Z M22,17 L30,17 L30,30 L24.8751374,30 L24.2794346,29.4255243 L22.5950964,27.800378 L22.3486301,27.5625731 L22,27.5625731 L22,17 Z M7.65135668,27.5625731 L7.40488101,27.800378 L5.72047901,29.4255243 L5.12505684,30 L0,30 L0,17 L8,17 L8,27.5625731 L7.65135668,27.5625731 Z" id="Combined-Shape"></path>
                        </g>
                    </g>
                </g>
            </g>
        </g>
    </g>
</svg>
