<?xml version="1.0" encoding="UTF-8" standalone="no"?>
<!DOCTYPE svg PUBLIC "-//W3C//DTD SVG 1.1//EN" "http://www.w3.org/Graphics/SVG/1.1/DTD/svg11.dtd">
<svg width="100%" height="100%" viewBox="0 0 544 110" version="1.1" xmlns="http://www.w3.org/2000/svg" xmlns:xlink="http://www.w3.org/1999/xlink" xml:space="preserve" xmlns:serif="http://www.serif.com/" style="fill-rule:evenodd;clip-rule:evenodd;stroke-linejoin:round;stroke-miterlimit:2;">
    <g id="Layer-1" serif:id="Layer 1">
        <rect x="0" y="0" width="543.964" height="109.032" style="fill:rgb(0,174,239);"/>
        <g transform="matrix(1,0,0,1,185.8,68.0803)">
            <path d="M0,-31.794C-9.049,-31.794 -16.409,-24.663 -16.409,-15.897C-16.409,-7.132 -9.049,0 0,0C9.045,0 16.407,-7.132 16.407,-15.897C16.407,-24.663 9.045,-31.794 0,-31.794M12.798,-24.769C11.958,-24.22 11.073,-23.723 10.155,-23.287C9.615,-24.337 8.958,-25.336 8.198,-26.257C8.871,-26.654 9.514,-27.098 10.108,-27.583C11.124,-26.757 12.028,-25.81 12.798,-24.769M5.894,-30.041C7.203,-29.529 8.437,-28.842 9.572,-27.998C9.007,-27.545 8.398,-27.132 7.762,-26.763C6.957,-27.657 6.049,-28.468 5.062,-29.181C5.361,-29.448 5.642,-29.734 5.894,-30.041M7.165,-26.433C6.286,-25.973 5.355,-25.597 4.402,-25.315C4.004,-26.2 3.546,-27.069 3.034,-27.905C3.563,-28.133 4.063,-28.413 4.531,-28.754C5.492,-28.078 6.377,-27.295 7.165,-26.433M5.227,-30.283C5.003,-30.026 4.763,-29.787 4.499,-29.565C3.633,-30.142 2.712,-30.633 1.749,-31.04C2.945,-30.915 4.11,-30.665 5.227,-30.283M3.941,-29.147C3.548,-28.876 3.125,-28.648 2.684,-28.466C2.208,-29.194 1.67,-29.906 1.101,-30.601C2.096,-30.206 3.049,-29.719 3.941,-29.147M0.335,-30.49C0.939,-29.783 1.509,-29.031 2.029,-28.241C1.479,-28.078 0.909,-27.98 0.335,-27.953L0.335,-30.49ZM0.335,-27.295C1.04,-27.327 1.734,-27.448 2.399,-27.665C2.901,-26.857 3.351,-26.011 3.746,-25.137C2.63,-24.86 1.483,-24.704 0.335,-24.68L0.335,-27.295ZM-0.347,-30.46L-0.347,-27.953C-0.911,-27.981 -1.473,-28.08 -2.017,-28.241C-1.513,-29.003 -0.951,-29.745 -0.347,-30.46M-2.664,-28.465C-3.115,-28.648 -3.532,-28.878 -3.923,-29.147C-3.038,-29.715 -2.089,-30.198 -1.094,-30.595C-1.652,-29.916 -2.185,-29.203 -2.664,-28.465M-1.717,-31.048C-2.688,-30.638 -3.614,-30.146 -4.487,-29.567C-4.753,-29.797 -4.991,-30.037 -5.215,-30.287C-4.086,-30.672 -2.916,-30.924 -1.717,-31.048M9.524,-3.762C7.342,-4.924 7.298,-6.532 7.415,-7.124C7.531,-7.727 7.957,-7.463 8.229,-7.463C9.663,-7.463 11.172,-7.874 13.03,-9.713C15.128,-11.788 15.786,-16.393 12.564,-19.395C9.091,-22.633 5.399,-22.066 3.019,-19.157C2.53,-18.561 1.34,-18.125 0.309,-18.157C-1.219,-18.214 -0.256,-17.049 -0.256,-16.808C-0.256,-16.564 -0.489,-16.393 -0.623,-16.431C-1.143,-16.574 -0.935,-15.832 -0.935,-15.607C-0.935,-15.381 -1.148,-15.267 -1.262,-15.267C-1.904,-15.267 -1.727,-14.708 -1.707,-14.553C-1.688,-14.405 -1.745,-14.146 -1.96,-14.029C-2.164,-13.918 -2.405,-13.429 -2.405,-13.054C-2.405,-12.377 -1.767,-11.911 -0.697,-11.14C0.364,-10.368 0.5,-9.639 0.52,-9.112C0.54,-8.587 0.589,-7.74 0.832,-7.179C1.118,-6.504 1.08,-5.265 -0.391,-5.21C-2.19,-5.14 -5.386,-3.747 -5.657,-3.652C-6.673,-3.304 -8.017,-3.177 -9.063,-3.431C-9.627,-3.817 -10.163,-4.239 -10.671,-4.694C-10.882,-5.396 -10.518,-6.148 -10.15,-6.656C-9.551,-6.074 -8.658,-6.112 -8.158,-6.095C-7.654,-6.074 -5.194,-6.447 -4.846,-6.562C-4.495,-6.675 -4.344,-6.637 -4.129,-6.562C-3.191,-6.232 -1.902,-6.131 -1.38,-7.874C-0.856,-9.62 -2.094,-9.131 -2.249,-9.057C-2.405,-8.98 -2.619,-9 -2.541,-9.149C-2.313,-9.593 -2.655,-9.548 -2.851,-9.565C-3.353,-9.612 -4.012,-9.095 -4.224,-8.907C-4.438,-8.72 -4.65,-8.738 -4.729,-8.776C-5.397,-9.099 -7.385,-8.633 -8.003,-9.677C-7.944,-9.957 -8.509,-14.198 -8.795,-14.93C-8.857,-15.087 -8.912,-15.341 -8.72,-15.623C-8.213,-16.358 -6.82,-15.568 -6.064,-15.586C-5.16,-15.61 -5.017,-15.976 -4.767,-16.272C-4.529,-16.56 -4.354,-16.397 -4.224,-16.477C-4.06,-16.58 -4.217,-16.787 -4.158,-16.898C-4.098,-17.011 -4.031,-16.956 -3.877,-17.086C-3.722,-17.221 -3.9,-17.499 -3.818,-17.611C-3.597,-17.938 -2.986,-17.678 -3.353,-18.528C-3.554,-18.998 -3.274,-19.508 -3.006,-19.844C-2.565,-20.392 -0.872,-22.701 -3.856,-25.099C-6.705,-27.386 -9.591,-27.202 -11.45,-25.25C-13.308,-23.299 -12.379,-20.444 -12.186,-19.696C-11.992,-18.943 -12.549,-18.264 -13.191,-17.97C-13.701,-17.736 -14.863,-16.986 -15.738,-16.247C-15.599,-22.368 -11.761,-27.754 -5.881,-30.047C-5.63,-29.743 -5.352,-29.457 -5.049,-29.187C-5.706,-28.722 -7.135,-27.484 -7.135,-27.484C-7.135,-27.484 -6.939,-27.456 -6.758,-27.413C-6.631,-27.384 -6.365,-27.307 -6.365,-27.307C-6.365,-27.307 -5.105,-28.343 -4.516,-28.756C-4.056,-28.417 -3.552,-28.135 -3.019,-27.907C-3.305,-27.44 -4.021,-26.132 -4.021,-26.132C-4.021,-26.132 -3.856,-26.037 -3.709,-25.94C-3.559,-25.844 -3.464,-25.758 -3.464,-25.758C-3.464,-25.758 -2.682,-27.188 -2.386,-27.665C-1.727,-27.452 -1.042,-27.329 -0.347,-27.301L-0.347,-24.682C-0.731,-24.691 -1.723,-24.732 -2.124,-24.771L-2.378,-24.796L-2.236,-24.593C-2.13,-24.441 -2.047,-24.291 -1.975,-24.155L-1.946,-24.099L-1.88,-24.093C-1.588,-24.069 -0.685,-24.039 -0.347,-24.03L-0.347,-19.266L0.335,-19.266L0.335,-20.356C1.336,-20.402 2.168,-20.469 3.174,-20.555L3.218,-20.56L4.101,-21.316L3.619,-21.274C2.557,-21.14 1.622,-21.077 0.777,-21.032C0.777,-21.032 0.489,-21.017 0.335,-21.007L0.335,-24.032C1.571,-24.057 2.807,-24.224 4.018,-24.53C4.348,-23.746 4.969,-21.837 4.969,-21.837L5.611,-22.03C5.611,-22.03 4.99,-23.926 4.664,-24.712C5.687,-25.02 6.677,-25.429 7.61,-25.927C8.365,-25.028 9.015,-24.047 9.553,-23.007C9.068,-22.789 8.187,-22.485 8.187,-22.485C8.894,-22.409 9.43,-22.247 9.43,-22.247C9.43,-22.247 9.68,-22.351 9.839,-22.419C9.901,-22.282 10.025,-22.006 10.025,-22.006L10.908,-21.625L10.806,-21.864C10.806,-21.864 10.514,-22.542 10.445,-22.697C11.38,-23.147 12.299,-23.658 13.179,-24.231C14.852,-21.752 15.74,-18.873 15.74,-15.897C15.74,-10.954 13.3,-6.554 9.524,-3.762" style="fill:white;fill-rule:nonzero;"/>
        </g>
        <g transform="matrix(1,0,0,1,167.906,46.5439)">
            <path d="M0,-6.032L-0.256,-5.812C-1.219,-4.988 -3.417,-2.808 -3.08,-0.417C-3.078,-0.409 -3.046,-0.25 -3.046,-0.25C-3.044,-0.248 -2.936,0.224 -2.936,0.224L-2.629,-0.048C-1.283,-1.243 -0.271,-3.265 0.14,-5.598L0.258,-6.256L0,-6.032Z" style="fill:white;fill-rule:nonzero;"/>
        </g>
        <g transform="matrix(1,0,0,1,163.441,52.8758)">
            <path d="M0,-8.235L-0.109,-7.945C-0.264,-7.546 -0.542,-6.708 -0.689,-5.593C-0.896,-4.015 -0.849,-1.783 0.564,-0.117C0.563,-0.119 0.72,0.08 0.72,0.08L0.885,0.284L1.096,-0.731C1.329,-2.521 1.02,-6.276 0.343,-7.951L0.108,-8.519L0,-8.235Z" style="fill:white;fill-rule:nonzero;"/>
        </g>
        <g transform="matrix(1,0,0,1,161.811,59.0168)">
            <path d="M0,-7.919L-0.021,-7.623C-0.139,-6.017 -0.053,-2.054 3.26,0.05C3.26,0.052 3.653,0.296 3.653,0.296L3.635,-0.154C3.578,-1.659 1.766,-6.148 0.405,-7.758L0.021,-8.215L0,-7.919Z" style="fill:white;fill-rule:nonzero;"/>
        </g>
        <g transform="matrix(1,0,0,1,162.381,65.3776)">
            <path d="M0,-7.187L0.057,-6.916C0.54,-4.638 2.771,-0.946 6.214,0.123L6.686,0.271L6.516,-0.178C5.873,-1.882 2.553,-5.852 0.421,-7.162L-0.059,-7.458L0,-7.187Z" style="fill:white;fill-rule:nonzero;"/>
        </g>
        <g transform="matrix(1,0,0,1,169.298,50.0795)">
            <path d="M0,-6.136L-0.272,-5.976C-2.837,-4.461 -4.036,-2.623 -3.943,-0.357L-3.921,0.161L-3.549,-0.142C-2.162,-1.253 -0.428,-4.095 0.086,-5.708L0.271,-6.297L0,-6.136Z" style="fill:white;fill-rule:nonzero;"/>
        </g>
        <g transform="matrix(1,0,0,1,167.791,56.1674)">
            <path d="M0,-7.262L-0.195,-7.084C-0.853,-6.478 -2.976,-4.29 -2.791,-1.582C-2.763,-1.165 -2.666,-0.718 -2.499,-0.252L-2.35,0.179L-2.075,-0.192C-1.062,-1.575 0.286,-5.227 0.213,-6.925L0.189,-7.441L0,-7.262Z" style="fill:white;fill-rule:nonzero;"/>
        </g>
        <g transform="matrix(1,0,0,1,167.901,61.5756)">
            <path d="M0,-7.97L-0.146,-7.764C-1.217,-6.223 -1.763,-4.641 -1.729,-3.183C-1.7,-2.105 -1.344,-1.074 -0.673,-0.116L-0.449,0.207L-0.262,-0.136C0.202,-0.979 0.568,-3.712 0.515,-5.872C0.494,-6.636 0.415,-7.269 0.284,-7.699L0.144,-8.177L0,-7.97Z" style="fill:white;fill-rule:nonzero;"/>
        </g>
        <g transform="matrix(1,0,0,1,169.143,66.6141)">
            <path d="M0,-7.984L-0.066,-7.766C-0.389,-6.765 -0.542,-5.788 -0.516,-4.859C-0.451,-2.759 0.506,-1.114 2.342,0.025L2.653,0.214L2.72,-0.191C2.72,-0.199 2.748,-0.513 2.748,-0.513C2.696,-2.221 1.381,-6.523 0.354,-7.837L0.07,-8.198L0,-7.984Z" style="fill:white;fill-rule:nonzero;"/>
        </g>
        <g transform="matrix(1,0,0,1,165.529,70.4281)">
            <path d="M0,-5.133L0.133,-4.916C1.514,-2.675 3.856,0.218 8.238,-0.526L8.604,-0.586L8.397,-0.884C7.578,-2.063 2.261,-4.97 0.381,-5.267L-0.133,-5.351L0,-5.133Z" style="fill:white;fill-rule:nonzero;"/>
        </g>
        <g transform="matrix(1,0,0,1,172.011,74.9644)">
            <path d="M0,-3.975L-0.687,-3.795L-0.028,-3.534C2.757,-2.429 6.25,-2.101 8.275,-2.762C9.038,-3.014 9.498,-3.418 10.064,-3.951C13.628,-3.594 16.967,-0.721 18.913,1.623C18.913,1.625 19.017,1.74 19.017,1.74L19.169,1.693C19.387,1.621 19.724,1.369 19.866,1.221L20.003,1.077L19.879,0.92C17.85,-1.65 14.67,-3.246 14.531,-3.31C11.67,-4.662 6.619,-5.715 0,-3.975" style="fill:white;fill-rule:nonzero;"/>
        </g>
        <g transform="matrix(1,0,0,1,172.158,69.6887)">
            <path d="M0,-5.878L0.039,-5.652C0.456,-3.109 1.521,0.228 5.956,-0.142L6.24,-0.162L6.168,-0.432C5.868,-1.587 1.808,-4.947 0.388,-5.891L-0.038,-6.106L0,-5.878Z" style="fill:white;fill-rule:nonzero;"/>
        </g>
        <g transform="matrix(1,0,0,1,203.499,46.7672)">
            <path d="M0,-6.478L0.117,-5.823C0.528,-3.488 1.54,-1.465 2.888,-0.272L3.194,0C3.194,0 3.301,-0.47 3.301,-0.474C3.301,-0.474 3.335,-0.633 3.337,-0.641C3.676,-3.031 1.478,-5.21 0.515,-6.037L0.257,-6.254L0,-6.478Z" style="fill:white;fill-rule:nonzero;"/>
        </g>
        <g transform="matrix(1,0,0,1,208.114,53.1586)">
            <path d="M0,-8.803L-0.232,-8.235C-0.913,-6.559 -1.224,-2.805 -0.989,-1.012L-0.778,0L-0.613,-0.201C-0.613,-0.201 -0.456,-0.401 -0.456,-0.399C0.957,-2.066 1.007,-4.298 0.796,-5.877C0.648,-6.991 0.372,-7.829 0.22,-8.229L0.108,-8.519L0,-8.803Z" style="fill:white;fill-rule:nonzero;"/>
        </g>
        <g transform="matrix(1,0,0,1,209.832,59.3129)">
            <path d="M0,-8.511L-0.387,-8.054C-1.743,-6.445 -3.559,-1.955 -3.614,-0.45L-3.631,0C-3.631,0 -3.242,-0.244 -3.242,-0.246C0.072,-2.35 0.157,-6.313 0.042,-7.919L0.019,-8.215L0,-8.511Z" style="fill:white;fill-rule:nonzero;"/>
        </g>
        <g transform="matrix(1,0,0,1,209.341,65.6491)">
            <path d="M0,-7.729L-0.481,-7.433C-2.613,-6.124 -5.934,-2.156 -6.574,-0.452L-6.746,0L-6.272,-0.148C-2.831,-1.219 -0.601,-4.909 -0.117,-7.187L-0.057,-7.458L0,-7.729Z" style="fill:white;fill-rule:nonzero;"/>
        </g>
        <g transform="matrix(1,0,0,1,202.224,50.2422)">
            <path d="M0,-6.536L0.177,-5.945C0.652,-4.321 2.329,-1.448 3.694,-0.309L4.063,0L4.094,-0.519C4.232,-2.782 3.068,-4.643 0.537,-6.207L0.266,-6.372L0,-6.536Z" style="fill:white;fill-rule:nonzero;"/>
        </g>
        <g transform="matrix(1,0,0,1,203.68,56.3477)">
            <path d="M0,-7.62L-0.021,-7.104C-0.091,-5.406 1.251,-1.757 2.267,-0.373L2.541,0L2.694,-0.432C2.857,-0.9 2.954,-1.346 2.982,-1.763C3.168,-4.471 1.044,-6.659 0.387,-7.264L0.195,-7.442L0,-7.62Z" style="fill:white;fill-rule:nonzero;"/>
        </g>
        <g transform="matrix(1,0,0,1,203.623,61.7826)">
            <path d="M0,-8.384L-0.146,-7.906C-0.279,-7.476 -0.356,-6.843 -0.376,-6.079C-0.431,-3.919 -0.062,-1.187 0.397,-0.341L0.587,0L0.814,-0.324C1.483,-1.281 1.838,-2.312 1.864,-3.39C1.9,-4.848 1.356,-6.43 0.284,-7.971L0.142,-8.177L0,-8.384Z" style="fill:white;fill-rule:nonzero;"/>
        </g>
        <g transform="matrix(1,0,0,1,202.445,66.8272)">
            <path d="M0,-8.41L-0.28,-8.051C-1.31,-6.737 -2.625,-2.435 -2.672,-0.726C-2.672,-0.726 -2.647,-0.411 -2.646,-0.404L-2.579,0L-2.269,-0.187C-0.434,-1.329 0.528,-2.972 0.589,-5.071C0.616,-6.002 0.466,-6.979 0.14,-7.98L0.07,-8.196L0,-8.41Z" style="fill:white;fill-rule:nonzero;"/>
        </g>
        <g transform="matrix(1,0,0,1,206.267,70.6463)">
            <path d="M0,-5.568L-0.512,-5.486C-2.392,-5.189 -7.712,-2.28 -8.53,-1.101L-8.736,-0.805L-8.371,-0.743C-3.985,0 -1.646,-2.894 -0.266,-5.135L-0.133,-5.35L0,-5.568Z" style="fill:white;fill-rule:nonzero;"/>
        </g>
        <g transform="matrix(1,0,0,1,185.121,74.2995)">
            <path d="M0,-2.645C-0.14,-2.581 -3.32,-0.985 -5.348,1.584L-5.471,1.742L-5.332,1.886C-5.192,2.034 -4.856,2.286 -4.637,2.358L-4.487,2.405C-4.487,2.405 -4.383,2.29 -4.383,2.288C-2.438,-0.056 0.9,-2.929 4.465,-3.286C5.03,-2.753 5.492,-2.349 6.258,-2.097C8.28,-1.436 11.772,-1.764 14.561,-2.869L15.22,-3.13L14.531,-3.31C7.908,-5.05 2.86,-3.997 0,-2.645" style="fill:white;fill-rule:nonzero;"/>
        </g>
        <g transform="matrix(1,0,0,1,199.542,69.9172)">
            <path d="M0,-6.334L-0.425,-6.119C-1.846,-5.176 -5.907,-1.815 -6.207,-0.66L-6.274,-0.391L-5.994,-0.37C-1.56,0 -0.493,-3.338 -0.076,-5.881L-0.036,-6.106L0,-6.334Z" style="fill:white;fill-rule:nonzero;"/>
        </g>
        <g transform="matrix(1,0,0,1,0,0.474)">
            <path d="M86.139,36.935L91.743,36.935L91.743,41.885L86.139,41.885L86.139,36.935ZM86.582,47.506L91.293,47.506L91.293,71.623L86.582,71.623L86.582,47.506Z" style="fill:white;fill-rule:nonzero;"/>
        </g>
        <g transform="matrix(1,0,0,1,51.0207,72.8372)">
            <path d="M0,-24.837L4.711,-24.837L4.711,-0.718L0.099,-0.718L0.099,-4.275L0,-4.275C-1.886,-1.246 -5.059,0 -8.532,0C-13.737,0 -16.713,-3.843 -16.713,-8.694L-16.713,-24.837L-12,-24.837L-12,-10.566C-12,-6.386 -11.009,-3.315 -6.497,-3.315C-4.562,-3.315 -1.936,-4.275 -0.944,-6.771C-0.054,-9.029 0,-11.864 0,-12.441L0,-24.837Z" style="fill:white;fill-rule:nonzero;"/>
        </g>
        <g transform="matrix(1,0,0,1,65.1369,67.8449)">
            <path d="M0,-16.29L0.101,-16.29C1.686,-19.316 5.157,-20.563 7.638,-20.563C9.371,-20.563 17.058,-20.132 17.058,-12.397L17.058,4.273L12.349,4.273L12.349,-10.908C12.349,-14.895 10.613,-17.056 6.646,-17.056C6.646,-17.056 4.065,-17.2 2.083,-15.28C1.39,-14.607 0.101,-13.552 0.101,-8.843L0.101,4.273L-4.612,4.273L-4.612,-19.844L0,-19.844L0,-16.29Z" style="fill:white;fill-rule:nonzero;"/>
        </g>
        <g transform="matrix(1,0,0,1,111.022,64.3255)">
            <path d="M0,-8.589C-0.246,-11.598 -1.723,-13.694 -5.075,-13.694C-9.553,-13.694 -11.281,-9.929 -11.281,-4.293C-11.281,1.34 -9.553,5.112 -5.075,5.112C-1.975,5.112 -0.053,3.161 0.193,-0.282L4.878,-0.282C4.479,5.112 0.345,8.404 -5.126,8.404C-13.056,8.404 -16.209,2.966 -16.209,-4.102C-16.209,-11.126 -12.566,-16.993 -4.725,-16.993C0.496,-16.993 4.435,-13.791 4.673,-8.589L0,-8.589Z" style="fill:white;fill-rule:nonzero;"/>
        </g>
        <g transform="matrix(1,0,0,1,122.935,59.1698)">
            <path d="M0,1.72C-0.345,5.921 1.429,10.269 6.205,10.269C9.851,10.269 11.674,8.887 12.212,5.393L17.145,5.393C16.402,10.843 12.066,13.558 6.159,13.558C-1.775,13.558 -4.933,8.121 -4.933,1.055C-4.933,-5.972 -1.279,-11.838 6.552,-11.838C13.938,-11.688 17.435,-7.159 17.435,-0.516L17.435,1.72L0,1.72ZM12.514,-1.426C12.612,-5.434 10.735,-8.538 6.205,-8.538C2.309,-8.538 0,-5.349 0,-1.426L12.514,-1.426Z" style="fill:white;fill-rule:nonzero;"/>
        </g>
        <g transform="matrix(1,0,0,1,145.673,36.2608)">
            <path d="M0,35.753L0,14.941L-4.256,14.941L-4.256,11.786L0,11.786L0,6.635C0.153,1.384 4.235,0 7.735,0C8.867,0 9.957,0.285 11.092,0.475L11.092,4.243C10.296,4.204 9.512,4.098 8.72,4.098C6.064,4.098 4.535,4.774 4.679,7.396L4.679,11.786L10.396,11.786L10.396,14.941L4.679,14.941L4.679,35.753L0,35.753Z" style="fill:white;fill-rule:nonzero;"/>
        </g>
        <g transform="matrix(1,0,0,1,240.958,36.9687)">
            <path d="M0,35.008L0,13.688L-4.973,13.688L-4.973,11.066L0,11.066L0,5.962C0,1.859 1.723,0 5.956,0C6.893,0 7.876,0.333 8.763,0.525L8.763,2.814C8.172,2.717 7.533,2.622 6.941,2.622C2.905,2.622 2.807,4.578 2.954,8.012L2.954,11.066L8.565,11.066L8.565,13.688L2.954,13.688L2.954,35.008L0,35.008Z" style="fill:white;fill-rule:nonzero;"/>
        </g>
        <g transform="matrix(1,0,0,1,273.661,60.0051)">
            <path d="M0,0C0,6.295 -3.643,12.688 -11.521,12.688C-19.396,12.688 -23.04,6.295 -23.04,0C-23.04,-6.296 -19.396,-12.688 -11.521,-12.688C-3.643,-12.688 0,-6.296 0,0M-11.521,-10.063C-17.477,-10.063 -19.84,-4.437 -19.84,0C-19.84,4.437 -17.477,10.063 -11.521,10.063C-5.562,10.063 -3.199,4.437 -3.199,0C-3.199,-4.437 -5.562,-10.063 -11.521,-10.063" style="fill:white;fill-rule:nonzero;"/>
        </g>
        <g transform="matrix(1,0,0,1,280.908,47.2707)">
            <path d="M0,24.706L-2.955,24.706L-2.955,6.153C-2.905,4.292 -3.103,2.384 -3.199,0.764L-0.148,0.764L0,4.292L0.098,4.292C0.985,1.86 3.2,0.144 5.66,0.047C6.646,0 7.631,0.047 8.614,0.095L8.614,2.861C8.023,2.813 7.385,2.67 6.793,2.67C2.412,2.67 0.098,5.723 0,10.301L0,24.706Z" style="fill:white;fill-rule:nonzero;"/>
        </g>
        <g transform="matrix(1,0,0,1,303.849,59.337)">
            <path d="M0,1.336C0.099,6.439 2.511,10.732 8.565,10.732C12.063,10.732 14.966,8.298 15.704,5.008L18.807,5.008C17.279,10.732 13.588,13.355 7.632,13.355C0.246,13.355 -3.201,7.203 -3.201,0.669C-3.201,-5.818 0.492,-12.019 7.826,-12.019C16.099,-12.019 19.101,-6.152 19.101,1.336L0,1.336ZM15.901,-1.287C15.557,-5.915 12.996,-9.396 7.876,-9.396C3.053,-9.396 0.492,-5.485 0.099,-1.287L15.901,-1.287Z" style="fill:white;fill-rule:nonzero;"/>
        </g>
        <g transform="matrix(1,0,0,1,326.929,71.9754)">
            <path d="M0,-23.942L8.517,-3.959L16.739,-23.942L19.987,-23.942L10.189,0L6.843,0L-3.248,-23.942L0,-23.942Z" style="fill:white;fill-rule:nonzero;"/>
        </g>
        <g transform="matrix(1,0,0,1,350.722,59.337)">
            <path d="M0,1.336C0.098,6.439 2.511,10.732 8.565,10.732C12.062,10.732 14.965,8.298 15.704,5.008L18.807,5.008C17.279,10.732 13.587,13.355 7.631,13.355C0.246,13.355 -3.201,7.203 -3.201,0.669C-3.201,-5.818 0.492,-12.019 7.826,-12.019C16.099,-12.019 19.1,-6.152 19.1,1.336L0,1.336ZM15.901,-1.287C15.557,-5.915 12.996,-9.396 7.875,-9.396C3.053,-9.396 0.492,-5.485 0.098,-1.287L15.901,-1.287Z" style="fill:white;fill-rule:nonzero;"/>
        </g>
        <g transform="matrix(1,0,0,1,377.36,47.2707)">
            <path d="M0,24.706L-2.954,24.706L-2.954,6.153C-2.905,4.292 -3.101,2.384 -3.199,0.764L-0.147,0.764L0,4.292L0.099,4.292C0.985,1.86 3.201,0.144 5.662,0.047C6.646,0 7.632,0.047 8.615,0.095L8.615,2.861C8.023,2.813 7.385,2.67 6.794,2.67C2.412,2.67 0.099,5.723 0,10.301L0,24.706Z" style="fill:white;fill-rule:nonzero;"/>
        </g>
        <g transform="matrix(1,0,0,1,392.325,81.1354)">
            <path d="M0,-33.102L8.319,-13.069L16.592,-33.102L19.79,-33.102L6.153,0L2.905,0L6.646,-9.16L-3.593,-33.102L0,-33.102Z" style="fill:white;fill-rule:nonzero;"/>
        </g>
        <g transform="matrix(1,0,0,1,440.275,64.6291)">
            <path d="M0,-9.251C-0.246,-12.923 -2.658,-14.688 -6.744,-14.688C-11.273,-14.688 -14.08,-10.109 -14.08,-4.672C-14.08,0.812 -11.273,5.44 -6.744,5.44C-2.905,5.44 -0.246,3.15 0,-0.141L3.201,-0.141C2.412,5.344 -0.838,8.062 -6.449,8.062C-13.834,8.062 -17.279,1.909 -17.279,-4.625C-17.279,-11.111 -13.588,-17.313 -6.252,-17.313C-1.183,-17.313 2.954,-14.354 3.201,-9.251L0,-9.251Z" style="fill:white;fill-rule:nonzero;"/>
        </g>
        <g transform="matrix(1,0,0,1,450.545,57.8584)">
            <path d="M0,-6.2L0.099,-6.2C1.821,-9.157 4.628,-10.54 7.829,-10.54C15.901,-10.54 16.542,-3.625 16.542,-0.858L16.542,14.118L13.588,14.118L13.588,-1.336C13.588,-5.484 11.126,-7.917 7.09,-7.917C2.216,-7.917 0,-3.959 0,0.334L0,14.118L-2.954,14.118L-2.954,-20.318L0,-20.318L0,-6.2Z" style="fill:white;fill-rule:nonzero;"/>
        </g>
        <g transform="matrix(1,0,0,1,0,0.484)">
            <path d="M475.258,40.634L471.814,40.634L471.814,37.056L475.258,37.056L475.258,40.634ZM475.014,71.492L472.06,71.492L472.06,47.55L475.014,47.55L475.014,71.492Z" style="fill:white;fill-rule:nonzero;"/>
        </g>
        <g transform="matrix(-1,0,0,1,964.565,0.484)">
            <rect x="480.805" y="37.056" width="2.955" height="34.436" style="fill:white;"/>
        </g>
        <g transform="matrix(1,0,0,1,507.001,41.7844)">
            <path d="M0,26.663L-0.098,26.472C-2.116,29.335 -5.12,30.907 -8.565,30.907C-15.901,30.907 -18.708,24.135 -18.708,18.125C-18.708,11.925 -15.901,5.532 -8.565,5.532C-5.268,5.532 -1.821,7.059 -0.098,9.874L0,9.779L0,-4.244L2.955,-4.244L2.955,24.802C2.955,26.663 3.103,28.571 3.201,30.191L0.148,30.191L0,26.663ZM-8.072,8.157C-13.686,8.157 -15.507,13.213 -15.507,17.792C-15.507,22.226 -14.179,28.285 -8.516,28.285C-2.067,28.285 -0.098,23.087 -0.098,17.647C-0.098,12.783 -2.313,8.157 -8.072,8.157" style="fill:white;fill-rule:nonzero;"/>
        </g>
        <g transform="matrix(1,0,0,1,0,5.573)">
            <rect x="222.931" y="22.063" width="0.948" height="59.333" style="fill:white;"/>
        </g>
    </g>
</svg>
