<svg xmlns="http://www.w3.org/2000/svg" width="149" height="23" viewBox="0 0 149 23">
  <g fill="none" fill-rule="evenodd">
    <path fill="#474747" d="M20.765,11.524 C20.765,13.477 20.849,16.165 19.652,17.551 C18.98,18.328 18.056,19 16.376,19 L12.155,19 L12.155,4.048 L16.376,4.048 C18.056,4.048 18.98,4.72 19.652,5.497 C20.849,6.883 20.765,9.571 20.765,11.524 Z M17.783,11.503 C17.783,9.844 17.783,8.08 17.426,7.387 C17.237,7.009 16.859,6.736 16.313,6.736 L15.137,6.736 L15.137,16.312 L16.313,16.312 C16.859,16.312 17.237,16.039 17.426,15.661 C17.783,14.968 17.783,13.162 17.783,11.503 Z M24.859,19 L22.045,19 L22.045,8.143 L24.859,8.143 L24.859,19 Z M24.943,6.904 L21.961,6.904 L21.961,3.922 L24.943,3.922 L24.943,6.904 Z M33.531,19.147 C33.531,20.365 33.111,21.247 32.502,21.856 C31.872,22.465 30.822,22.822 29.835,22.822 C28.827,22.822 27.84,22.507 27.168,21.856 C26.412,21.142 26.139,20.197 26.139,19.315 L28.953,19.315 C28.953,19.63 29.016,19.903 29.163,20.113 C29.31,20.302 29.52,20.407 29.835,20.407 C30.108,20.407 30.339,20.302 30.507,20.113 C30.654,19.945 30.717,19.693 30.717,19.378 L30.717,17.173 C30.486,17.446 30.276,17.635 30.045,17.782 C29.793,17.929 29.478,17.992 29.058,17.992 C28.008,17.992 27.546,17.782 27,17.131 C26.265,16.249 26.076,14.989 26.076,12.763 C26.076,10.537 26.265,9.298 27,8.416 C27.546,7.765 28.008,7.534 29.058,7.534 C29.415,7.534 29.814,7.639 30.129,7.807 C30.402,7.954 30.633,8.164 30.843,8.374 L30.843,7.702 L33.531,7.702 L33.531,19.147 Z M30.717,14.527 L30.717,11.083 C30.717,10.726 30.633,10.474 30.465,10.306 C30.318,10.138 30.087,10.054 29.835,10.054 C29.478,10.054 29.289,10.222 29.1,10.495 C28.869,10.852 28.89,11.923 28.89,12.805 C28.89,13.687 28.869,14.758 29.1,15.115 C29.289,15.388 29.478,15.556 29.835,15.556 C30.108,15.556 30.318,15.472 30.486,15.283 C30.633,15.115 30.717,14.863 30.717,14.527 Z M37.877,19 L35.063,19 L35.063,8.143 L37.877,8.143 L37.877,19 Z M37.961,6.904 L34.979,6.904 L34.979,3.922 L37.961,3.922 L37.961,6.904 Z M44.113,19 C42.958,19 42.034,18.895 41.215,18.307 C40.417,17.74 39.913,16.837 39.913,15.367 L39.913,10.264 L38.863,10.264 L38.863,8.143 L39.913,8.143 L39.913,5.056 L42.727,5.056 L42.727,8.143 L44.113,8.143 L44.113,10.264 L42.727,10.264 L42.727,15.178 C42.727,16.06 43.168,16.48 44.113,16.48 L44.113,19 Z M52.239,19 L49.614,19 L49.614,18.076 C49.383,18.349 49.173,18.622 48.879,18.811 C48.543,19.042 48.207,19.168 47.64,19.168 C46.59,19.168 45.96,18.874 45.351,18.118 C44.868,17.53 44.7,16.69 44.7,15.619 C44.7,14.59 45.078,13.708 45.792,13.099 C46.359,12.616 47.094,12.301 48.564,12.301 L49.425,12.301 L49.425,10.999 C49.425,10.369 49.11,10.012 48.585,10.012 C48.291,10.012 48.123,10.117 47.976,10.285 C47.808,10.495 47.724,10.747 47.724,11.062 L44.91,11.062 C44.91,10.138 45.204,9.298 45.939,8.542 C46.506,7.975 47.577,7.534 48.564,7.534 C49.53,7.534 50.496,7.786 51.168,8.458 C51.798,9.088 52.239,9.991 52.239,11.272 L52.239,19 Z M49.425,15.493 L49.425,14.254 L48.942,14.254 C48.48,14.254 48.165,14.254 47.871,14.527 C47.64,14.737 47.514,15.199 47.514,15.493 C47.514,16.312 47.892,16.711 48.48,16.711 C48.984,16.711 49.425,16.291 49.425,15.493 Z M57.887,19 C56.732,19 55.808,18.895 54.989,18.307 C54.191,17.74 53.687,16.837 53.687,15.367 L53.687,4.048 L56.501,4.048 L56.501,15.178 C56.501,16.06 56.942,16.48 57.887,16.48 L57.887,19 Z M70.632,19 L67.65,19 L67.65,12.742 L65.172,12.742 L65.172,19 L62.19,19 L62.19,4.048 L65.172,4.048 L65.172,10.054 L67.65,10.054 L67.65,4.048 L70.632,4.048 L70.632,19 Z M79.5349999,14.254 L74.8519999,14.254 C74.8519999,15.01 74.8939999,15.892 75.0619999,16.207 C75.2089999,16.459 75.4399999,16.648 75.7969999,16.648 C76.1539999,16.648 76.3429999,16.48 76.5319999,16.207 C76.6159999,16.06 76.6789999,15.682 76.6789999,15.514 L79.4719999,15.514 C79.4089999,16.396 79.1569999,17.425 78.4639999,18.202 C77.8339999,18.895 76.8889999,19.168 75.7969999,19.168 C74.6629999,19.168 73.9489999,18.958 73.1509999,18.181 C72.0589999,17.131 72.0379999,15.052 72.0379999,13.351 C72.0379999,11.65 72.0589999,9.55 73.1509999,8.5 C73.9489999,7.723 74.8519999,7.534 75.7969999,7.534 C76.7839999,7.534 77.6449999,7.702 78.4219999,8.5 C79.6819999,9.823 79.5139999,12.448 79.5349999,14.254 Z M76.7209999,12.217 C76.7209999,11.461 76.6789999,10.705 76.5319999,10.474 C76.3639999,10.243 76.1539999,10.054 75.7969999,10.054 C75.4399999,10.054 75.2299999,10.243 75.0619999,10.474 C74.9149999,10.705 74.8519999,11.461 74.8519999,12.217 L76.7209999,12.217 Z M87.7869999,19 L85.1619999,19 L85.1619999,18.076 C84.9309999,18.349 84.7209999,18.622 84.4269999,18.811 C84.0909999,19.042 83.7549999,19.168 83.1879999,19.168 C82.1379999,19.168 81.5079999,18.874 80.8989999,18.118 C80.4159999,17.53 80.2479999,16.69 80.2479999,15.619 C80.2479999,14.59 80.6259999,13.708 81.3399999,13.099 C81.9069999,12.616 82.6419999,12.301 84.1119999,12.301 L84.9729999,12.301 L84.9729999,10.999 C84.9729999,10.369 84.6579999,10.012 84.1329999,10.012 C83.8389999,10.012 83.6709999,10.117 83.5239999,10.285 C83.3559999,10.495 83.2719999,10.747 83.2719999,11.062 L80.4579999,11.062 C80.4579999,10.138 80.7519999,9.298 81.4869999,8.542 C82.0539999,7.975 83.1249999,7.534 84.1119999,7.534 C85.0779999,7.534 86.0439999,7.786 86.7159999,8.458 C87.3459999,9.088 87.7869999,9.991 87.7869999,11.272 L87.7869999,19 Z M84.9729999,15.493 L84.9729999,14.254 L84.4899999,14.254 C84.0279999,14.254 83.7129999,14.254 83.4189999,14.527 C83.1879999,14.737 83.0619999,15.199 83.0619999,15.493 C83.0619999,16.312 83.4399999,16.711 84.0279999,16.711 C84.5319999,16.711 84.9729999,16.291 84.9729999,15.493 Z M93.4349999,19 C92.2799999,19 91.3559999,18.895 90.5369999,18.307 C89.7389999,17.74 89.2349999,16.837 89.2349999,15.367 L89.2349999,4.048 L92.0489999,4.048 L92.0489999,15.178 C92.0489999,16.06 92.4899999,16.48 93.4349999,16.48 L93.4349999,19 Z M99.0829999,19 C97.9279999,19 97.0039999,18.895 96.1849999,18.307 C95.3869999,17.74 94.8829999,16.837 94.8829999,15.367 L94.8829999,10.264 L93.8329999,10.264 L93.8329999,8.143 L94.8829999,8.143 L94.8829999,5.056 L97.6969999,5.056 L97.6969999,8.143 L99.0829999,8.143 L99.0829999,10.264 L97.6969999,10.264 L97.6969999,15.178 C97.6969999,16.06 98.1379999,16.48 99.0829999,16.48 L99.0829999,19 Z M107.461,19 L104.647,19 L104.647,11.083 C104.647,10.39 104.269,10.054 103.765,10.054 C103.261,10.054 102.883,10.39 102.883,11.083 L102.883,19 L100.069,19 L100.069,4.048 L102.883,4.048 L102.883,8.374 C103.093,8.143 103.324,7.954 103.576,7.807 C103.891,7.639 104.29,7.534 104.647,7.534 C105.676,7.534 106.285,7.828 106.831,8.479 C107.272,9.025 107.461,9.634 107.461,11.041 L107.461,19 Z M121.907,19 L118.799,19 L118.316,16.669 L114.872,16.669 L114.389,19 L111.281,19 L115.124,4.048 L118.064,4.048 L121.907,19 Z M117.749,13.981 L116.594,8.437 L115.439,13.981 L117.749,13.981 Z M126.988,19 C125.833,19 124.909,18.895 124.09,18.307 C123.292,17.74 122.788,16.837 122.788,15.367 L122.788,10.264 L121.738,10.264 L121.738,8.143 L122.788,8.143 L122.788,5.056 L125.602,5.056 L125.602,8.143 L126.988,8.143 L126.988,10.264 L125.602,10.264 L125.602,15.178 C125.602,16.06 126.043,16.48 126.988,16.48 L126.988,19 Z M132.132,19 C130.977,19 130.053,18.895 129.234,18.307 C128.436,17.74 127.932,16.837 127.932,15.367 L127.932,4.048 L130.746,4.048 L130.746,15.178 C130.746,16.06 131.187,16.48 132.132,16.48 L132.132,19 Z M140.111,19 L137.486,19 L137.486,18.076 C137.255,18.349 137.045,18.622 136.751,18.811 C136.415,19.042 136.079,19.168 135.512,19.168 C134.462,19.168 133.832,18.874 133.223,18.118 C132.74,17.53 132.572,16.69 132.572,15.619 C132.572,14.59 132.95,13.708 133.664,13.099 C134.231,12.616 134.966,12.301 136.436,12.301 L137.297,12.301 L137.297,10.999 C137.297,10.369 136.982,10.012 136.457,10.012 C136.163,10.012 135.995,10.117 135.848,10.285 C135.68,10.495 135.596,10.747 135.596,11.062 L132.782,11.062 C132.782,10.138 133.076,9.298 133.811,8.542 C134.378,7.975 135.449,7.534 136.436,7.534 C137.402,7.534 138.368,7.786 139.04,8.458 C139.67,9.088 140.111,9.991 140.111,11.272 L140.111,19 Z M137.297,15.493 L137.297,14.254 L136.814,14.254 C136.352,14.254 136.037,14.254 135.743,14.527 C135.512,14.737 135.386,15.199 135.386,15.493 C135.386,16.312 135.764,16.711 136.352,16.711 C136.856,16.711 137.297,16.291 137.297,15.493 Z M148.615,15.535 C148.615,16.774 148.132,17.614 147.544,18.223 C146.809,18.958 145.906,19.168 144.898,19.168 C143.89,19.168 142.84,18.832 142.21,18.181 C141.559,17.488 141.16,16.732 141.139,15.598 L143.911,15.598 C143.932,15.913 144.037,16.165 144.205,16.333 C144.373,16.522 144.646,16.627 144.898,16.627 C145.192,16.627 145.36,16.585 145.57,16.396 C145.717,16.27 145.801,15.997 145.801,15.766 C145.801,15.535 145.759,15.346 145.612,15.136 C145.444,14.926 145.192,14.779 144.877,14.653 L143.302,14.044 C142.504,13.729 141.916,13.309 141.559,12.742 C141.307,12.322 141.181,11.818 141.181,11.167 C141.181,9.949 141.58,9.214 142.21,8.563 C142.882,7.87 143.869,7.534 144.877,7.534 C145.864,7.534 146.809,7.87 147.439,8.458 C148.048,9.046 148.489,9.844 148.489,10.999 L145.738,10.999 C145.738,10.705 145.654,10.453 145.507,10.285 C145.339,10.117 145.108,10.012 144.877,10.012 C144.604,10.012 144.373,10.117 144.226,10.264 C144.058,10.411 143.995,10.621 143.995,10.894 C143.995,11.104 144.037,11.251 144.142,11.398 C144.268,11.608 144.52,11.776 144.856,11.902 L146.41,12.49 C147.208,12.784 147.733,13.162 148.111,13.687 C148.405,14.086 148.615,14.695 148.615,15.535 Z"/>
    <g transform="matrix(0 1 1 0 .478 .478)">
      <polygon fill="#6A1B9A" points="0 .043 3.654 .043 3.654 5.625 0 5.625"/>
      <polygon fill="#D84315" points="3.648 .043 7.303 .043 7.303 5.625 3.648 5.625"/>
      <polygon fill="#0097A7" points="7.297 .043 10.951 .043 10.951 5.623 7.297 5.623"/>
      <polygon fill="#FAA806" points="10.945 .043 14.6 .043 14.6 5.625 10.945 5.625"/>
      <polygon fill="#558B2F" points="14.594 .043 18.248 .043 18.248 5.625 14.594 5.625"/>
      <polygon fill="#5D4037" points="18.242 .043 21.897 .043 21.897 5.625 18.242 5.625"/>
    </g>
  </g>
</svg>
