<svg xmlns="http://www.w3.org/2000/svg" width="212" height="49" viewBox="0 0 212 49">
  <g fill="#00AEEF" fill-rule="evenodd">
    <path d="M182.415.0286C171.52.0286 162.657 8.5576 162.657 19.0446 162.657 29.5276 171.52 38.0586 182.415 38.0586 193.307 38.0586 202.171 29.5276 202.171 19.0446 202.171 8.5576 193.307.0286 182.415.0286L182.415.0286zM197.824 8.4316C196.815 9.0896 195.748 9.6826 194.645 10.2046 193.994 8.9476 193.203 7.7526 192.286 6.6526 193.096 6.1756 193.871 5.6456 194.587 5.0656 195.81 6.0536 196.898 7.1856 197.824 8.4316L197.824 8.4316zM189.512 2.1246C191.088 2.7366 192.574 3.5596 193.94 4.5686 193.261 5.1106 192.528 5.6056 191.762 6.0466 190.793 4.9766 189.7 4.0066 188.51 3.1536 188.871 2.8346 189.209 2.4936 189.512 2.1246L189.512 2.1246zM191.044 6.4416C189.983 6.9916 188.864 7.4416 187.716 7.7786 187.236 6.7206 186.684 5.6806 186.068 4.6796 186.705 4.4086 187.308 4.0726 187.87 3.6636 189.028 4.4746 190.092 5.4086 191.044 6.4416L191.044 6.4416zM188.708 1.8346C188.44 2.1426 188.149 2.4286 187.833 2.6936 186.79 2.0056 185.68 1.4186 184.522.9316 185.96 1.0806 187.364 1.3786 188.708 1.8346L188.708 1.8346zM187.161 3.1946C186.686 3.5196 186.178 3.7926 185.647 4.0096 185.073 3.1386 184.426 2.2866 183.74 1.4556 184.939 1.9286 186.086 2.5116 187.161 3.1946L187.161 3.1946zM182.82 1.5886C183.547 2.4336 184.232 3.3346 184.86 4.2786 184.198 4.4746 183.511 4.5926 182.82 4.6236L182.82 1.5886zM182.82 5.4086C183.668 5.3706 184.502 5.2256 185.305 4.9676 185.908 5.9336 186.451 6.9476 186.925 7.9926 185.582 8.3236 184.203 8.5076 182.82 8.5376L182.82 5.4086zM181.997 1.6246L181.997 4.6236C181.317 4.5896 180.642 4.4716 179.986 4.2786 180.594 3.3666 181.27 2.4786 181.997 1.6246L181.997 1.6246zM179.208 4.0116C178.665 3.7906 178.162 3.5166 177.691 3.1946 178.758 2.5156 179.901 1.9366 181.099 1.4626 180.426 2.2746 179.785 3.1276 179.208 4.0116L179.208 4.0116zM180.347.9216C179.18 1.4116 178.064 2.0006 177.011 2.6916 176.693 2.4186 176.404 2.1296 176.135 1.8306 177.496 1.3716 178.904 1.0686 180.347.9216L180.347.9216zM193.884 33.5576C191.254 32.1686 191.203 30.2456 191.343 29.5376 191.483 28.8176 191.996 29.1326 192.324 29.1326 194.05 29.1326 195.867 28.6396 198.105 26.4406 200.631 23.9606 201.423 18.4506 197.543 14.8596 193.362 10.9866 188.916 11.6636 186.049 15.1436 185.462 15.8576 184.027 16.3796 182.786 16.3396 180.948 16.2716 182.106 17.6656 182.106 17.9546 182.106 18.2476 181.827 18.4506 181.664 18.4056 181.039 18.2336 181.29 19.1226 181.29 19.3926 181.29 19.6616 181.033 19.7976 180.896 19.7976 180.123 19.7976 180.335 20.4666 180.359 20.6516 180.381 20.8286 180.312 21.1386 180.055 21.2766 179.809 21.4106 179.519 21.9956 179.519 22.4446 179.519 23.2536 180.288 23.8126 181.575 24.7356 182.853 25.6566 183.017 26.5306 183.04 27.1606 183.065 27.7866 183.124 28.8006 183.417 29.4716 183.762 30.2786 183.717 31.7616 181.945 31.8276 179.778 31.9116 175.929 33.5776 175.604 33.6906 174.381 34.1076 172.764 34.2596 171.503 33.9546 170.824 33.4926 170.177 32.9866 169.565 32.4426 169.311 31.6036 169.751 30.7036 170.193 30.0986 170.915 30.7946 171.99 30.7486 172.592 30.7686 173.199 30.7946 176.16 30.3456 176.58 30.2106 177.002 30.0756 177.186 30.1206 177.444 30.2106 178.573 30.6056 180.125 30.7246 180.754 28.6396 181.385 26.5526 179.894 27.1356 179.706 27.2256 179.519 27.3176 179.261 27.2936 179.355 27.1156 179.632 26.5836 179.218 26.6386 178.982 26.6186 178.378 26.5606 177.585 27.1806 177.328 27.4036 177.07 27.6286 176.815 27.6056 176.721 27.5616 175.917 27.1766 173.523 27.7326 172.779 26.4836 172.848 26.1496 172.171 21.0756 171.825 20.2006 171.75 20.0126 171.684 19.7076 171.916 19.3726 172.524 18.4926 174.201 19.4366 175.113 19.4166 176.202 19.3866 176.376 18.9496 176.675 18.5956 176.961 18.2526 177.171 18.4456 177.328 18.3506 177.527 18.2256 177.339 17.9786 177.409 17.8446 177.481 17.7106 177.562 17.7776 177.746 17.6206 177.934 17.4606 177.72 17.1266 177.816 16.9926 178.084 16.6026 178.818 16.9136 178.378 15.8956 178.137 15.3346 178.472 14.7256 178.797 14.3226 179.326 13.6666 181.366 10.9036 177.771 8.0366 174.342 5.3016 170.866 5.5216 168.628 7.8556 166.392 10.1896 167.509 13.6046 167.742 14.5006 167.975 15.3996 167.303 16.2126 166.53 16.5656 165.917 16.8446 164.519 17.7416 163.464 18.6256 163.634 11.3026 168.253 4.8616 175.334 2.1186 175.635 2.4816 175.972 2.8246 176.336 3.1476 175.544 3.7016 173.824 5.1836 173.824 5.1836 173.824 5.1836 174.06 5.2176 174.277 5.2696 174.43 5.3036 174.751 5.3966 174.751 5.3966 174.751 5.3966 176.267 4.1566 176.978 3.6616 177.531 4.0686 178.138 4.4056 178.78 4.6766 178.435 5.2376 177.573 6.8016 177.573 6.8016 177.573 6.8016 177.772 6.9156 177.95 7.0306 178.13 7.1456 178.243 7.2476 178.243 7.2476 178.243 7.2476 179.186 5.5386 179.542 4.9676 180.335 5.2206 181.16 5.3686 181.997 5.4036L181.997 8.5356C181.534 8.5236 180.34 8.4766 179.856 8.4286L179.553 8.3996 179.722 8.6436C179.851 8.8246 179.95 9.0026 180.038 9.1656L180.073 9.2336 180.152 9.2396C180.503 9.2676 181.592 9.3046 181.997 9.3146L181.997 15.0136 182.82 15.0136 182.82 13.7096C184.024 13.6546 185.026 13.5736 186.238 13.4736L186.29 13.4676 187.353 12.5626 186.774 12.6106C185.494 12.7716 184.369 12.8466 183.35 12.9006 183.35 12.9006 183.003 12.9206 182.82 12.9306L182.82 9.3136C184.307 9.2836 185.795 9.0836 187.252 8.7166 187.65 9.6556 188.399 11.9396 188.399 11.9396L189.172 11.7056C189.172 11.7056 188.423 9.4406 188.031 8.4996 189.262 8.1326 190.453 7.6416 191.579 7.0476 192.487 8.1216 193.27 9.2946 193.917 10.5406 193.335 10.8006 192.272 11.1626 192.274 11.1626 193.124 11.2536 193.77 11.4476 193.77 11.4476 193.77 11.4476 194.071 11.3246 194.263 11.2416 194.338 11.4046 194.486 11.7366 194.486 11.7366L195.55 12.1916 195.427 11.9066C195.427 11.9066 195.075 11.0956 194.992 10.9086 196.118 10.3726 197.225 9.7596 198.284 9.0756 200.299 12.0406 201.369 15.4836 201.369 19.0446 201.369 24.9576 198.429 30.2206 193.884 33.5576L193.884 33.5576zM160.869 5.0831L160.561 5.3451C159.401 6.3331 156.754 8.9391 157.161 11.7991 157.163 11.8081 157.203 11.9981 157.203 11.9981 157.204 12.0021 157.335 12.5651 157.335 12.5651L157.703 12.2411C159.325 10.8121 160.542 8.3921 161.038 5.6011L161.179 4.8171 160.869 5.0831zM155.492 10.0218L155.359 10.3688C155.174 10.8458 154.84 11.8478 154.661 13.1818 154.412 15.0698 154.469 17.7388 156.173 19.7328 156.17 19.7318 156.36 19.9688 156.36 19.9688L156.558 20.2108 156.81 18.9988C157.091 16.8558 156.72 12.3658 155.904 10.3608L155.621 9.6808 155.492 10.0218zM153.529 17.7455L153.504 18.0985C153.362 20.0205 153.465 24.7625 157.454 27.2765 157.454 27.2795 157.928 27.5715 157.928 27.5715L157.907 27.0335C157.838 25.2335 155.655 19.8625 154.017 17.9375L153.554 17.3915 153.529 17.7455zM154.216 26.2298L154.284 26.5548C154.867 29.2798 157.552 33.6938 161.699 34.9728L162.266 35.1498 162.061 34.6118C161.287 32.5738 157.291 27.8248 154.724 26.2608L154.144 25.9058 154.216 26.2298zM162.545 9.1874L162.217 9.3794C159.13 11.1914 157.685 13.3894 157.795 16.1004L157.823 16.7204 158.272 16.3584C159.942 15.0284 162.03 11.6294 162.647 9.7004L162.87 8.9954 162.545 9.1874zM160.73 15.1228L160.495 15.3358C159.704 16.0608 157.147 18.6778 157.368 21.9168 157.403 22.4158 157.52 22.9488 157.719 23.5078L157.9 24.0258 158.231 23.5798C159.453 21.9248 161.073 17.5578 160.986 15.5258L160.958 14.9108 160.73 15.1228zM160.862 20.745L160.687 20.993C159.397 22.835 158.74 24.727 158.78 26.471 158.816 27.76 159.244 28.993 160.052 30.139L160.321 30.526 160.548 30.117C161.106 29.108 161.547 25.839 161.483 23.253 161.458 22.34 161.361 21.584 161.204 21.068L161.035 20.498 160.862 20.745zM162.357 26.7551L162.276 27.0151C161.889 28.2121 161.705 29.3821 161.737 30.4931 161.813 33.0061 162.967 34.9721 165.178 36.3341L165.551 36.5611 165.632 36.0771C165.632 36.0681 165.665 35.6911 165.665 35.6911 165.604 33.6481 164.022 28.5021 162.783 26.9311L162.441 26.5001 162.357 26.7551zM158.006 34.7278L158.166 34.9858C159.829 37.6678 162.65 41.1278 167.926 40.2398L168.366 40.1658 168.116 39.8098C167.131 38.3998 160.728 34.9228 158.464 34.5668L157.846 34.4678 158.006 34.7278zM165.811 41.5385L164.983 41.7535 165.777 42.0665C169.131 43.3875 173.338 43.7795 175.776 42.9895 176.692 42.6885 177.248 42.2055 177.929 41.5675 182.221 41.9945 186.241 45.4295 188.584 48.2355 188.584 48.2365 188.711 48.3745 188.711 48.3745L188.892 48.3195C189.156 48.2325 189.561 47.9305 189.731 47.7545L189.896 47.5825 189.749 47.3935C187.304 44.3185 183.476 42.4105 183.309 42.3335 179.863 40.7185 173.783 39.4565 165.811 41.5385"/>
    <path d="M165.988 32.9521L166.035 33.2221C166.538 36.2651 167.821 40.2561 173.16 39.8141L173.502 39.7881 173.416 39.4661C173.056 38.0831 168.164 34.0651 166.456 32.9361L165.943 32.6801 165.988 32.9521zM203.726 4.8166L203.867 5.6016C204.363 8.3926 205.581 10.8126 207.203 12.2406L207.573 12.5656C207.573 12.5656 207.701 12.0016 207.701 11.9976 207.701 11.9976 207.742 11.8086 207.744 11.7986 208.152 8.9396 205.505 6.3326 204.346 5.3456L204.036 5.0826 203.726 4.8166zM209.284 9.6809L209.003 10.3609C208.184 12.3659 207.811 16.8559 208.093 18.9989L208.346 20.2109 208.545 19.9689C208.545 19.9689 208.734 19.7309 208.734 19.7329 210.436 17.7389 210.495 15.0689 210.243 13.1819 210.064 11.8479 209.732 10.8459 209.549 10.3689L209.415 10.0219 209.284 9.6809zM211.352 17.392L210.886 17.937C209.252 19.862 207.067 25.233 207.001 27.033L206.979 27.571C206.979 27.571 207.448 27.279 207.448 27.277 211.439 24.762 211.541 20.021 211.402 18.099L211.374 17.746 211.352 17.392zM210.761 25.9062L210.181 26.2602C207.614 27.8252 203.616 32.5732 202.844 34.6112L202.637 35.1502 203.207 34.9732C207.353 33.6932 210.038 29.2802 210.62 26.5552L210.694 26.2302 210.761 25.9062zM202.191 8.9035L202.404 9.6115C202.977 11.5535 204.996 14.9905 206.639 16.3525L207.084 16.7215 207.12 16.1015C207.287 13.3935 205.885 11.1685 202.836 9.2985L202.511 9.1005 202.191 8.9035zM203.944 14.9106L203.919 15.5266C203.835 17.5576 205.45 21.9246 206.673 23.5796L207.004 24.0256 207.188 23.5076C207.385 22.9496 207.502 22.4166 207.535 21.9176 207.759 18.6776 205.201 16.0606 204.409 15.3356L204.178 15.1226 203.944 14.9106zM203.875 20.4975L203.699 21.0685C203.54 21.5835 203.446 22.3395 203.424 23.2535 203.357 25.8385 203.799 29.1075 204.354 30.1165L204.582 30.5255 204.855 30.1385C205.661 28.9935 206.087 27.7595 206.12 26.4705 206.164 24.7275 205.509 22.8355 204.217 20.9925L204.046 20.7445 203.875 20.4975zM202.458 26.4999L202.12 26.9309C200.882 28.5019 199.298 33.6479 199.24 35.6909 199.24 35.6909 199.27 36.0679 199.272 36.0769L199.353 36.5609C199.353 36.5609 199.726 36.3339 199.727 36.3339 201.935 34.9719 203.094 33.0059 203.169 30.4929 203.2 29.3819 203.019 28.2119 202.627 27.0149L202.541 26.7549 202.458 26.4999zM207.059 34.4683C207.059 34.4683 206.444 34.5663 206.443 34.5663 204.178 34.9223 197.774 38.4003 196.788 39.8103L196.54 40.1653 196.98 40.2393C202.261 41.1273 205.077 37.6673 206.74 34.9863L206.899 34.7283 207.059 34.4683zM181.598 42.334C181.43 42.411 177.6 44.319 175.159 47.394L175.01 47.582 175.176 47.754C175.347 47.93 175.749 48.233 176.015 48.319L176.195 48.374C176.195 48.374 176.321 48.236 176.321 48.235 178.661 45.43 182.681 41.995 186.974 41.567 187.654 42.206 188.211 42.689 189.132 42.989 191.567 43.779 195.772 43.388 199.13 42.067L199.925 41.753 199.095 41.539C191.121 39.457 185.041 40.718 181.598 42.334M198.961 32.6801L198.449 32.9361C196.74 34.0651 191.849 38.0831 191.489 39.4661L191.405 39.7881 191.743 39.8141C197.083 40.2561 198.367 36.2651 198.87 33.2221L198.918 32.9521 198.961 32.6801zM62.4112 1.3717L69.1582 1.3717 69.1582 7.2927 62.4112 7.2927 62.4112 1.3717zM62.9462 14.0157L68.6192 14.0157 68.6192 42.8617 62.9462 42.8617 62.9462 14.0157zM20.125 14.0408L25.798 14.0408 25.798 42.8888 20.243 42.8888 20.243 38.6358 20.125 38.6358C17.855 42.2568 14.033 43.7498 9.852 43.7498 3.583 43.7498 0 39.1538 0 33.3488L0 14.0408 5.675 14.0408 5.675 31.1088C5.675 36.1098 6.869 39.7858 12.302 39.7858 14.632 39.7858 17.795 38.6358 18.989 35.6508 20.061 32.9478 20.125 29.5578 20.125 28.8678L20.125 14.0408zM37.1235 18.292L37.2435 18.292C39.1525 14.673 43.3325 13.18 46.3185 13.18 48.4075 13.18 57.6625 13.697 57.6625 22.948L57.6625 42.889 51.9935 42.889 51.9935 24.73C51.9935 19.96 49.9015 17.376 45.1245 17.376 45.1245 17.376 42.0175 17.204 39.6305 19.501 38.7965 20.304 37.2435 21.568 37.2435 27.201L37.2435 42.889 31.5705 42.889 31.5705 14.041 37.1235 14.041 37.1235 18.292zM92.3734 23.2941C92.0754 19.6951 90.3004 17.1881 86.2634 17.1881 80.8694 17.1881 78.7904 21.6911 78.7904 28.4331 78.7904 35.1701 80.8694 39.6831 86.2634 39.6831 89.9964 39.6831 92.3104 37.3491 92.6054 33.2301L98.2474 33.2301C97.7664 39.6831 92.7874 43.6191 86.2004 43.6191 76.6524 43.6191 72.8564 37.1151 72.8564 28.6611 72.8564 20.2581 77.2434 13.2411 86.6834 13.2411 92.9714 13.2411 97.7134 17.0721 98.0014 23.2941L92.3734 23.2941zM106.718 29.4578C106.303 34.4838 108.439 39.6828 114.189 39.6828 118.58 39.6828 120.774 38.0298 121.423 33.8508L127.363 33.8508C126.469 40.3698 121.247 43.6188 114.134 43.6188 104.581 43.6188 100.777 37.1148 100.777 28.6618 100.777 20.2578 105.177 13.2418 114.607 13.2418 123.502 13.4198 127.711 18.8368 127.711 26.7818L127.711 29.4578 106.718 29.4578zM121.786 25.6948C121.905 20.9008 119.645 17.1888 114.189 17.1888 109.496 17.1888 106.718 21.0018 106.718 25.6948L121.786 25.6948zM134.098 42.764L134.098 17.871 128.973 17.871 128.973 14.095 134.098 14.095 134.098 7.936C134.282 1.653 139.198-7.10542736e-15 143.412-7.10542736e-15 144.774-7.10542736e-15 146.086.34 147.454.565L147.454 5.074C146.495 5.026 145.55 4.9 144.596 4.9 141.4 4.9 139.558 5.709 139.733 8.844L139.733 14.095 146.617 14.095 146.617 17.871 139.733 17.871 139.733 42.764 134.098 42.764z"/>
  </g>
</svg>
