<?xml version="1.0" encoding="UTF-8"?>
<svg width="199px" height="62px" viewBox="0 0 199 62" version="1.1" xmlns="http://www.w3.org/2000/svg" xmlns:xlink="http://www.w3.org/1999/xlink">
    <!-- Generator: Sketch 51.2 (57519) - http://www.bohemiancoding.com/sketch -->
    <title>WHO</title>
    <desc>Created with Sketch.</desc>
    <defs></defs>
    <g id="00---Login/signup" stroke="none" stroke-width="1" fill="none" fill-rule="evenodd">
        <g id="2---Signup" transform="translate(-116.000000, -39.000000)" fill="#008DC9">
            <g id="Top-navigation-bar-(logged-out)">
                <g id="Upper">
                    <g>
                        <g id="WHO" transform="translate(116.000000, 38.000000)">
                            <polygon id="Fill-1" points="83.5352303 15.0690704 83.4886915 15.0690704 80.8920886 29 77.3281751 29 74 12 76.8323414 12 79.1453621 25.1033919 79.1927708 25.1033919 81.6706346 12 85.3528523 12 87.8076641 25.1033919 87.8550728 25.1033919 90.262476 12 93 12 89.6009294 29 85.9904771 29"></polygon>
                            <path d="M98.21844,27.7789028 C100.117469,27.7789028 100.545209,25.4694902 100.545209,23.3103084 C100.545209,21.1515671 100.117469,18.8672664 98.21844,18.8672664 C96.3194114,18.8672664 95.8684905,21.1515671 95.8684905,23.3103084 C95.8684905,25.4694902 96.3194114,27.7789028 98.21844,27.7789028 M98.21844,16.6583014 C100.710095,16.6583014 103.58313,18.0390147 103.58313,23.3103084 C103.58313,28.732714 100.710095,29.9878678 98.21844,29.9878678 C95.7267851,29.9878678 92.831007,28.732714 92.831007,23.3103084 C92.831007,18.0390147 95.7267851,16.6583014 98.21844,16.6583014" id="Fill-2"></path>
                            <path d="M105.4089,18.9930902 C105.4089,18.1895098 105.38572,17.4361531 105.31443,16.8585797 L107.97272,16.8585797 C107.996338,17.6370483 108.068503,18.4406287 108.068503,19.2186566 L108.1153,19.2186566 C108.471751,18.2146217 109.39721,16.6585657 111.224074,16.6585657 C111.414764,16.6585657 111.556907,16.708349 111.723542,16.7334608 L111.723542,19.6455587 C111.461999,19.5702231 111.200894,19.5199993 110.892116,19.5199993 C109.681496,19.5199993 108.351914,20.2980273 108.351914,22.7078874 L108.351914,29.7867965 L105.4089,29.7867965 L105.4089,18.9930902 Z" id="Fill-4"></path>
                            <polygon id="Fill-6" points="113.578703 29.7866643 116.521716 29.7866643 116.521716 10.9597972 113.578703 10.9597972"></polygon>
                            <path d="M123.532946,27.7033909 C125.265776,27.7033909 125.859278,25.7204329 125.859278,23.2850203 C125.859278,20.7747126 125.194486,18.9424259 123.579744,18.9424259 C121.942258,18.9424259 121.372812,20.6244818 121.372812,23.2105657 C121.372812,26.1971182 121.82417,27.7033909 123.532946,27.7033909 Z M128.801853,10.9599294 L128.801853,27.5778315 C128.801853,28.5069713 128.826346,29.3096706 128.896761,29.7867965 L126.144438,29.7867965 C126.096765,29.4105587 126.048656,28.6576427 126.048656,27.7787266 L125.97824,27.7787266 C125.502827,28.8832091 124.62504,29.9876916 122.725574,29.9876916 C119.688091,29.9876916 118.430236,26.9249224 118.430236,23.3352441 C118.430236,19.1186497 120.020486,16.6585657 122.655159,16.6585657 C124.411607,16.6585657 125.383864,17.7123839 125.811605,18.7173 L125.859278,18.7173 L125.859278,10.9599294 L128.801853,10.9599294 Z" id="Fill-8"></path>
                            <polygon id="Fill-9" points="138.498533 12.265307 141.536891 12.265307 141.536891 19.3948804 146.449348 19.3948804 146.449348 12.265307 149.487269 12.265307 149.487269 29.7867965 146.449348 29.7867965 146.449348 22.0554189 141.536891 22.0554189 141.536891 29.7867965 138.498533 29.7867965"></polygon>
                            <path d="M158.530485,22.2060902 C158.530485,19.9217895 157.818022,18.7666427 156.489314,18.7666427 C154.946298,18.7666427 154.306,20.4984818 154.306,22.2060902 L158.530485,22.2060902 Z M160.761472,29.1594399 C160.143916,29.4356706 158.862444,29.9876916 157.106433,29.9876916 C153.16667,29.9876916 151.457894,27.0006986 151.457894,23.5110273 C151.457894,19.6455587 153.38054,16.6585657 156.489314,16.6585657 C159.123549,16.6585657 161.377716,18.2899573 161.377716,23.5616916 L161.377716,24.1639364 L154.306,24.1639364 C154.306,26.3729014 155.136114,27.7033909 157.414773,27.7033909 C159.218894,27.7033909 160.071751,27.1258175 160.618455,26.6989154 L160.761472,29.1594399 Z" id="Fill-10"></path>
                            <path d="M169.803682,23.4612881 L169.542577,23.4612881 C167.026429,23.4612881 165.531524,24.0133091 165.531524,25.895379 C165.531524,27.0756378 166.267605,27.8792182 167.406935,27.8792182 C169.163383,27.8792182 169.803682,26.4989455 169.803682,24.1886517 L169.803682,23.4612881 Z M164.013876,17.612421 C164.84399,17.2106308 166.006062,16.6586098 167.881911,16.6586098 C171.678656,16.6586098 172.55688,18.6160154 172.55688,21.8545678 L172.55688,27.5020993 C172.55688,28.4316797 172.652662,29.2850434 172.723953,29.7868406 L170.065225,29.7868406 C169.922207,29.2850434 169.899465,28.6572462 169.899465,28.0303301 L169.851792,28.0303301 C169.115711,29.0837077 168.189814,29.9877357 166.43424,29.9877357 C164.534775,29.9877357 162.779201,28.6070224 162.779201,26.1971622 C162.779201,22.6828196 165.484726,21.8043441 169.211056,21.8043441 L169.803682,21.8043441 L169.803682,21.3276587 C169.803682,20.047393 169.211056,18.8671343 167.525898,18.8671343 C166.05461,18.8671343 164.748645,19.6204909 164.179199,20.1222881 L164.013876,17.612421 Z" id="Fill-11"></path>
                            <polygon id="Fill-12" points="175.452396 29.7866643 178.395409 29.7866643 178.395409 10.9597972 175.452396 10.9597972"></polygon>
                            <path d="M182.074197,14.1983497 L185.01721,13.2445385 L185.01721,16.8588881 L187.46163,16.8588881 L187.46163,19.1436294 L185.01721,19.1436294 L185.01721,25.8458601 C185.01721,27.227014 185.491749,27.6283636 186.34723,27.6283636 C186.868129,27.6283636 187.248635,27.4776923 187.46163,27.3521329 L187.46163,29.5610979 C187.011584,29.7866643 186.37041,29.9875594 185.491749,29.9875594 C183.308435,29.9875594 182.074197,28.9333007 182.074197,26.2225385 L182.074197,19.1436294 L180.129245,19.1436294 L180.129245,16.8588881 L182.074197,16.8588881 L182.074197,14.1983497 Z" id="Fill-13"></path>
                            <path d="M188.981028,10.9599734 L191.924041,10.9599734 L191.924041,18.5155678 L191.995331,18.5155678 C192.517105,17.712428 193.205514,16.6586098 195.032377,16.6586098 C197.810067,16.6586098 198.640619,18.8424629 198.640619,21.4527776 L198.640619,29.7868406 L195.697169,29.7868406 L195.697169,22.0299105 C195.697169,20.047393 195.22263,19.2187007 194.012885,19.2187007 C192.46987,19.2187007 191.924041,20.599414 191.924041,22.256358 L191.924041,29.7868406 L188.981028,29.7868406 L188.981028,10.9599734 Z" id="Fill-14"></path>
                            <path d="M80.5351688,49.9587357 C82.4578149,49.9587357 83.9999556,48.2268965 83.9999556,43.4071762 C83.9999556,38.5874559 82.4578149,36.8551762 80.5351688,36.8551762 C78.6125226,36.8551762 77.0699446,38.5874559 77.0699446,43.4071762 C77.0699446,48.2268965 78.6125226,49.9587357 80.5351688,49.9587357 M80.5351688,34.3955329 C83.9767754,34.3955329 87.1332215,37.1062951 87.1332215,43.4071762 C87.1332215,49.7084979 83.9767754,52.4188196 80.5351688,52.4188196 C77.0935622,52.4188196 73.937116,49.7084979 73.937116,43.4071762 C73.937116,37.1062951 77.0935622,34.3955329 80.5351688,34.3955329" id="Fill-15"></path>
                            <path d="M89.1156114,41.3734217 C89.1156114,40.5707224 89.0915565,39.8182469 89.0211411,39.2397923 L91.6794312,39.2397923 C91.7026114,40.0187014 91.7743389,40.8218413 91.7743389,41.6003098 L91.8215741,41.6003098 C92.1775873,40.5953937 93.1026092,39.0393378 94.9307851,39.0393378 C95.1206004,39.0393378 95.2623059,39.0895615 95.4285037,39.115114 L95.4285037,42.0272119 C95.168273,41.9509951 94.9076048,41.9016524 94.5983895,41.9016524 C93.388207,41.9016524 92.059062,42.6792399 92.059062,45.0895406 L92.059062,52.1684497 L89.1156114,52.1684497 L89.1156114,41.3734217 Z" id="Fill-16"></path>
                            <path d="M101.832674,49.8834441 C103.682718,49.8834441 104.419236,48.4785 104.419236,45.5412902 C104.419236,42.8300874 103.445667,41.3735979 102.045232,41.3987098 C100.502216,41.4242622 99.9100275,42.930535 99.9100275,45.5659615 C99.9100275,48.6031783 100.835049,49.8834441 101.832674,49.8834441 Z M97.2547989,54.1766958 C97.9432077,54.5776049 99.3200253,55.2811783 100.863041,55.2811783 C103.640293,55.2811783 104.091214,53.2475559 104.091214,51.2143741 L104.091214,49.9843322 L104.043542,49.9843322 C103.569003,50.9888077 102.737577,52.1686259 100.815805,52.1686259 C99.1061549,52.1686259 96.5432099,50.9636958 96.5432099,45.7417448 C96.5432099,42.1771783 97.754267,39.039514 100.958386,39.039514 C102.737577,39.039514 103.569003,40.1188846 104.186997,41.248479 L104.28103,41.248479 C104.28103,40.570458 104.351882,39.9179895 104.375937,39.2399685 L107.034227,39.2399685 C106.986555,39.9179895 106.93932,40.5955699 106.93932,41.2735909 L106.93932,50.8121434 C106.93932,54.8538357 105.776373,57.7417028 101.290344,57.7417028 C99.3445176,57.7417028 97.8015022,57.2139126 97.0890385,56.9381224 L97.2547989,54.1766958 Z" id="Fill-17"></path>
                            <path d="M115.913695,45.842721 L115.653027,45.842721 C113.13688,45.842721 111.641099,46.3943014 111.641099,48.2772524 C111.641099,49.4566301 112.377181,50.2597699 113.51651,50.2597699 C115.272084,50.2597699 115.913695,48.8799378 115.913695,46.5696441 L115.913695,45.842721 Z M110.122576,39.9934133 C110.953565,39.5920636 112.116513,39.0396021 113.991049,39.0396021 C117.788231,39.0396021 118.666893,40.9970077 118.666893,44.2360007 L118.666893,49.8835322 C118.666893,50.8122315 118.761363,51.6660357 118.832653,52.1682734 L116.1748,52.1682734 C116.032658,51.6660357 116.008165,51.038679 116.008165,50.4108818 L115.960493,50.4108818 C115.225724,51.4655811 114.299389,52.368728 112.543816,52.368728 C110.644787,52.368728 108.888339,50.9888958 108.888339,48.5785951 C108.888339,45.0642524 111.594302,44.1857769 115.319756,44.1857769 L115.913695,44.1857769 L115.913695,43.708651 C115.913695,42.4283853 115.319756,41.2485671 113.635473,41.2485671 C112.16331,41.2485671 110.85822,42.0019238 110.288774,42.5041615 L110.122576,39.9934133 Z" id="Fill-18"></path>
                            <path d="M121.634005,41.3734217 C121.634005,40.5707224 121.609512,39.8182469 121.538222,39.2397923 L124.291857,39.2397923 C124.315912,39.8935825 124.386328,40.5707224 124.386328,41.2236315 L124.457618,41.2236315 L124.434,41.2236315 C124.861741,40.4451629 125.691855,39.0393378 127.686229,39.0393378 C130.462607,39.0393378 131.293596,41.2236315 131.293596,43.8343867 L131.293596,52.1684497 L128.350583,52.1684497 L128.350583,44.4115196 C128.350583,42.4285615 127.875607,41.6003098 126.665862,41.6003098 C125.122409,41.6003098 124.577018,42.980142 124.577018,44.6375266 L124.577018,52.1684497 L121.634005,52.1684497 L121.634005,41.3734217 Z" id="Fill-19"></path>
                            <path d="M133.993916,52.1684056 L136.93693,52.1684056 L136.93693,39.2397483 L133.993916,39.2397483 L133.993916,52.1684056 Z M133.945807,36.8052168 L136.984165,36.8052168 L136.984165,33.7424476 L133.945807,33.7424476 L133.945807,36.8052168 Z" id="Fill-20"></path>
                            <polygon id="Fill-21" points="139.675651 49.4820503 144.897323 41.6000014 139.841849 41.6000014 139.841849 39.2399245 147.840774 39.2399245 147.840774 41.9017846 142.714446 49.8085049 148.006097 49.8085049 148.006097 52.1685818 139.675651 52.1685818"></polygon>
                            <path d="M156.58374,45.842721 L156.323072,45.842721 C153.80605,45.842721 152.310707,46.3943014 152.310707,48.2772524 C152.310707,49.4566301 153.047226,50.2597699 154.186556,50.2597699 C155.942567,50.2597699 156.58374,48.8799378 156.58374,46.5696441 L156.58374,45.842721 Z M150.792184,39.9934133 C151.622299,39.5920636 152.786121,39.0396021 154.661532,39.0396021 C158.459151,39.0396021 159.336938,40.9970077 159.336938,44.2360007 L159.336938,49.8835322 C159.336938,50.8122315 159.431409,51.6660357 159.503136,52.1682734 L156.846158,52.1682734 C156.701828,51.6660357 156.679085,51.038679 156.679085,50.4108818 L156.630976,50.4108818 C155.895332,51.4655811 154.969872,52.368728 153.214299,52.368728 C151.31527,52.368728 149.558822,50.9888958 149.558822,48.5785951 C149.558822,45.0642524 152.263472,44.1857769 155.990677,44.1857769 L156.58374,44.1857769 L156.58374,43.708651 C156.58374,42.4283853 155.990677,41.2485671 154.305081,41.2485671 C152.834231,41.2485671 151.528266,42.0019238 150.959694,42.5041615 L150.792184,39.9934133 Z" id="Fill-22"></path>
                            <path d="M162.7209,36.579342 L165.663914,35.6255308 L165.663914,39.2398804 L168.109208,39.2398804 L168.109208,41.5255028 L165.663914,41.5255028 L165.663914,48.2268524 C165.663914,49.6075657 166.139327,50.0084748 166.993933,50.0084748 C167.516582,50.0084748 167.895338,49.8591252 168.109208,49.7326846 L168.109208,51.9425308 C167.658287,52.1685378 167.017988,52.3689923 166.139327,52.3689923 C163.956013,52.3689923 162.7209,51.3147336 162.7209,48.6030902 L162.7209,41.5255028 L160.775074,41.5255028 L160.775074,39.2398804 L162.7209,39.2398804 L162.7209,36.579342 Z" id="Fill-23"></path>
                            <path d="M170.505824,52.1684056 L173.448837,52.1684056 L173.448837,39.2397483 L170.505824,39.2397483 L170.505824,52.1684056 Z M170.131004,36.8052168 L173.168488,36.8052168 L173.168488,33.7424476 L170.131004,33.7424476 L170.131004,36.8052168 Z" id="Fill-24"></path>
                            <path d="M181.0914,50.1601154 C182.989553,50.1601154 183.417294,47.8502622 183.417294,45.691521 C183.417294,43.5323392 182.989553,41.248479 181.0914,41.248479 C179.192808,41.248479 178.742325,43.5323392 178.742325,45.691521 C178.742325,47.8502622 179.192808,50.1601154 181.0914,50.1601154 M181.0914,39.039514 C183.583492,39.039514 186.455215,40.4202273 186.455215,45.691521 C186.455215,51.1139266 183.583492,52.3690804 181.0914,52.3690804 C178.59887,52.3690804 175.703967,51.1139266 175.703967,45.691521 C175.703967,40.4202273 178.59887,39.039514 181.0914,39.039514" id="Fill-25"></path>
                            <path d="M189.018597,41.3734217 C189.018597,40.5707224 188.994105,39.8182469 188.922815,39.2397923 L191.676013,39.2397923 C191.69963,39.8935825 191.771795,40.5707224 191.771795,41.2236315 L191.842211,41.2236315 L191.81903,41.2236315 C192.246334,40.4451629 193.076448,39.0393378 195.069947,39.0393378 C197.8472,39.0393378 198.678189,41.2236315 198.678189,43.8343867 L198.678189,52.1684497 L195.735175,52.1684497 L195.735175,44.4115196 C195.735175,42.4285615 195.2602,41.6003098 194.04958,41.6003098 C192.507876,41.6003098 191.961611,42.980142 191.961611,44.6375266 L191.961611,52.1684497 L189.018597,52.1684497 L189.018597,41.3734217 Z" id="Fill-26"></path>
                            <path d="M43.2286607,22.7987308 L43.2286607,22.5370385 L43.0773332,22.733528 L43.1206321,22.9731923 L43.2286607,22.7987308 Z M43.1206321,24.0626958 L43.2286607,24.127458 L43.3585574,23.9322902 L43.5531837,23.5833671 L43.4451552,23.6049545 L43.2719596,23.6917448 L43.1853618,23.1908287 L43.0773332,23.2780594 L43.163931,23.5833671 L43.0554651,23.8225909 L42.9041376,23.7794161 L42.7095112,23.9098217 L42.730942,24.2367168 L43.1206321,24.0626958 Z M43.7045112,22.8639336 L43.9643046,23.0599825 L44.2669596,22.9947797 L44.0294716,22.9291364 L43.9643046,22.6678846 L43.9643046,22.4713951 L43.8339705,22.2317308 L43.6612123,22.2973741 L43.5750519,22.2317308 L43.3148211,22.4713951 L43.7263793,22.689472 L43.7045112,22.8639336 Z M45.8244079,20.9245909 L46.0409024,21.1422273 L46.148931,21.1201993 L46.322564,21.229458 L46.2792651,21.0986119 L45.8458387,20.7937448 L45.5650519,20.5320524 L45.6945112,20.9245909 L45.8244079,20.9245909 Z M42.2765222,24.6067867 L42.3845508,24.3891503 L41.9087002,24.4111783 L41.6922057,24.5636119 L41.9305684,24.6508427 L42.2765222,24.6067867 Z M47.317564,24.6508427 L47.5121903,24.9997657 L47.4474607,25.1301713 L47.6202189,25.7183182 L47.7715464,25.7623741 L47.7715464,25.1301713 L47.5983508,24.9120944 L47.5336211,24.2587448 L47.2322782,23.4666189 L47.1701727,23.6075979 L47.2523969,24.0626958 L47.317564,24.6508427 Z M46.0627705,21.5343252 L46.4087244,22.0792972 L46.6252189,22.1881154 L46.2573969,21.5563531 L46.0627705,21.5343252 Z M47.0363398,23.0599825 L47.1662365,23.1251853 L46.841276,22.4713951 L46.6685178,22.4282203 L46.841276,22.7115 L47.0363398,23.0599825 Z M43.2903288,18.2891643 C43.2728343,18.334542 43.257964,18.3816818 43.2395947,18.4270594 L43.4018563,18.5490944 L43.5750519,18.4838916 L43.2903288,18.2891643 Z M14.4965596,41.0436189 L14.472942,40.8325909 L14.2407024,40.551514 L14.1011837,40.5986538 L14.3570409,40.9264301 L14.3338607,41.0198287 L14.54292,41.2542063 L14.6820013,41.5586329 L14.7987771,41.511493 L14.6820013,41.2542063 L14.4965596,41.0436189 Z M43.9021991,12.3913951 L44.1449354,12.5693811 L44.7187552,12.7693951 L44.9173178,13.1249266 L45.0717068,13.1249266 L45.0279705,12.7469266 L44.8508387,12.6134371 L44.8954497,12.4134231 L44.542498,12.2583462 L44.4095398,12.3913951 L44.2332826,12.3024021 L44.3216299,12.1023881 L43.9021991,12.3913951 Z M36.8462277,46.4647028 L36.8663464,46.4757168 C36.8632848,46.4647028 36.8593486,46.4545699 36.856287,46.4444371 L36.8462277,46.4647028 Z M54.5231134,38.8932483 C53.3719749,41.6326469 51.7274914,44.0953741 49.6360233,46.214465 L46.6103486,43.1662343 C48.3086277,41.4436469 49.6447705,39.4426259 50.5798519,37.2151573 C51.5201815,34.9757937 52.0095903,32.6011783 52.0458914,30.1556329 L56.3250475,30.1556329 C56.2887464,33.1840385 55.686498,36.1225699 54.5231134,38.8932483 Z M45.9932299,42.5446049 L46.0190343,42.3899685 L46.2355288,42.193479 L46.0409024,41.2127937 L46.083764,40.9511014 L45.8677068,40.5374161 L45.7378101,40.4065699 L45.8677068,40.3849825 L45.6945112,40.1453182 L45.2833903,40.1237308 L45.2833903,40.4501853 L45.1325002,40.5805909 L45.2405288,40.8427238 L45.0668958,41.3436399 L44.9374365,41.4308706 L44.9872958,41.5317587 L43.308698,39.8408916 C45.8685815,37.2376259 47.3044431,33.8109545 47.3766079,30.1556329 L51.7204936,30.1556329 C51.6474541,34.9793182 49.7606716,39.5047448 46.3802958,42.9349406 L45.9932299,42.5446049 Z M42.9391266,45.6783042 L42.9469991,45.658479 L43.098764,45.3967867 L42.9469991,45.0046888 L43.5098848,44.5253601 L43.4661486,44.1980245 L43.0554651,43.9808287 L43.4661486,43.1746049 L43.9419991,42.3899685 L43.3799881,41.6921224 L43.1849244,41.7577657 L42.9255684,41.6921224 L42.6876431,41.1691783 L42.5796145,41.2127937 L42.7095112,40.7114371 L42.7921727,40.3312343 C42.8870804,40.2444441 42.9828629,40.1589755 43.0751464,40.069542 L44.9488079,41.9560175 L44.9593046,41.9754021 L44.970676,41.9789266 L46.1467442,43.1627098 C45.1609288,44.1292972 44.084142,44.9676818 42.9391266,45.6783042 Z M42.4497178,38.1403322 L41.7306936,38.7121783 L41.627476,38.7936818 L41.5627464,38.6848636 L41.2163552,38.6848636 L40.7186365,38.7936818 L40.2427859,38.5980734 L40.0048607,38.5980734 L39.6370387,38.3139126 L39.3995508,38.3363811 L39.1830563,38.1403322 L38.8366651,38.1178636 L38.6634695,37.8786399 L38.512142,37.8196049 C38.5226387,37.8129965 38.5331354,37.8059476 38.5440695,37.7980175 L38.7500673,37.8345839 L38.7500673,37.7257657 L39.2477859,37.8138776 L39.4209815,37.9222552 L39.9615618,38.009486 L40.0048607,38.1403322 L40.4374123,38.1403322 L41.0217288,38.3139126 L41.1888013,38.5927867 L41.5408782,38.5760455 L41.8006716,38.2927657 L42.0167288,37.8566119 L42.3412519,37.0067727 L42.2765222,36.8547797 L42.4278497,36.701465 L42.5581837,36.1789615 L42.4711486,35.9604441 L42.5796145,35.7864231 L42.4278497,35.5903741 L42.3845508,35.0674301 L42.0167288,35.1542203 L41.8006716,35.4599685 L41.4761486,35.4379406 L41.5190101,35.8300385 L41.2596541,36.1573741 L41.0431596,36.0485559 L40.8485332,36.2216958 L40.3508145,36.2661923 L40.3306958,36.2481294 C40.4395991,36.1260944 40.5454409,36.0009755 40.6482211,35.8736538 L40.869964,35.8736538 L41.1113881,35.8300385 L41.3462519,35.5687867 L41.3899881,35.3617238 L41.627476,35.3507098 L42.0814585,34.6753322 L42.4497178,33.8902552 L43.4228497,33.4333951 L43.4014189,33.1712622 L43.2719596,33.0408566 L43.3366892,32.9536259 L43.6397815,33.1056189 L44.2883903,33.2369056 L44.8079771,33.0192692 L45.6516497,32.8443671 L45.4347178,32.2341923 L45.0668958,31.8641224 L44.6129134,31.842535 L44.0290343,30.4256958 L43.9419991,30.4908986 L43.725942,30.3168776 L43.8991376,30.2076189 L43.8895156,30.1556329 L47.0512101,30.1556329 C46.9786079,33.7228427 45.577298,37.0675699 43.0786453,39.6087168 L42.9837376,39.5135559 L43.0121662,39.4038566 L43.1201947,38.8593252 L43.0121662,38.009486 L42.8175398,37.5081294 L42.6876431,37.638535 L42.4497178,37.987458 L42.4497178,38.1403322 Z M39.7022057,25.8491643 L40.0695903,25.7183182 L39.6589068,25.435479 L39.8968321,25.1521993 L39.8535332,24.9997657 L40.2427859,24.8253042 L39.8754013,24.3891503 L39.4424123,24.7816888 L39.3772453,25.064528 L39.0964585,24.9336818 L38.7933662,24.9781783 L38.7072057,24.7816888 L38.7041442,24.7808077 L39.4052365,24.0750315 L39.4647178,24.1499266 L40.0700277,24.171514 L40.2760255,23.9225979 C40.5668716,24.2679965 40.8323508,24.6363042 41.0711508,25.0226748 L41.0650277,25.0213531 L40.7619354,25.6747028 L40.2860848,25.413451 L40.1566255,25.435479 L40.2860848,25.6967308 L40.4374123,25.8059895 L40.2860848,26.1760594 L40.2213552,26.0020385 L39.7022057,25.8491643 Z M39.6947705,23.7829406 L39.9366321,23.5393112 C40.0249793,23.6331503 40.1107024,23.7291923 40.1951134,23.8265559 L39.9182629,24.0626958 L39.6807749,24.0406678 L39.5941771,23.9534371 L39.7888035,23.8225909 L39.6947705,23.7829406 Z M43.2002321,20.2522972 C43.5247552,20.5910874 43.8291596,20.9439755 44.1151947,21.3087587 L43.9424365,21.4039196 L43.7478101,21.447535 L44.0509024,21.5343252 L44.1926079,21.4118497 C44.3286277,21.5876329 44.4589618,21.7669406 44.5857969,21.9488916 L44.4401552,21.9488916 L44.4401552,22.0356818 L44.59192,22.0792972 L45.0454651,22.7987308 L45.1723002,22.8626119 C45.2256585,22.9542483 45.2755178,23.0476469 45.3271266,23.1401643 L45.3271266,23.430493 L45.0240343,23.7573881 L44.9378738,23.5177238 L44.6780804,23.4741084 L44.7865464,23.7573881 L44.59192,23.9534371 L45.0673332,24.127458 L45.2623969,24.4111783 L45.6516497,24.5199965 L45.6735178,24.694458 L46.0194716,24.7816888 L46.0842013,25.3262203 L46.2928233,25.2962622 C46.4144101,25.6487098 46.5202519,26.0064441 46.6138475,26.3690245 L46.6033508,26.372549 L46.3868563,26.7430594 L46.083764,26.895493 L45.8677068,27.5276958 L45.3052585,27.8545909 L45.1106321,27.5052273 L45.2838277,26.6778566 L45.5431837,26.4813671 L44.6776431,25.8059895 L44.2232233,26.0460944 L43.8125398,26.895493 L43.3799881,26.6558287 L43.2500914,26.3073462 L43.4880167,26.198528 L43.5960453,26.3509615 L43.7906716,26.2853182 L43.725942,26.0236259 L43.4447178,25.9368357 L43.4661486,26.1108566 L43.2719596,26.1108566 L43.0554651,25.7844021 L42.5581837,25.2830455 L41.9738673,24.8689196 L41.4328497,24.8253042 L41.3781793,24.9006399 C41.0296013,24.3279126 40.6241662,23.7930734 40.1666848,23.3080175 L43.2002321,20.2522972 Z M45.3704255,22.4934231 L45.3608035,22.5458497 C45.3428716,22.5163322 45.3245024,22.4868147 45.3065705,22.4577378 L45.3704255,22.4934231 Z M44.5048848,28.5079406 L45.1106321,28.1158427 L45.8458387,28.0501993 L46.0409024,27.6360734 L46.2788277,27.5052273 L46.6033508,26.9391084 L46.6829508,26.6478986 C46.7083178,26.754514 46.7310607,26.8620105 46.7538035,26.9690664 L46.6252189,27.3096189 L46.6685178,27.3968497 L46.4953222,27.7453322 L46.516753,27.9197937 L46.1712365,28.3995629 L46.2355288,28.7039895 L46.3654255,28.7260175 L46.7118167,28.1810455 L46.7118167,27.8545909 L46.8850123,27.810535 L46.9025068,27.7832203 C47.0022255,28.4541923 47.0551464,29.1370594 47.0568958,29.8278566 L43.7876101,29.8278566 L43.7045112,29.771465 L43.725942,29.5102133 L44.0071662,29.4009545 L44.2232233,29.0960874 L44.7423727,29.0308846 L44.7423727,28.8132483 L44.5048848,28.5079406 Z M43.4403442,20.0104301 L43.8125398,20.4232343 L44.0076035,19.8130594 L43.7045112,19.7694441 L43.7045112,19.7443322 L44.6500892,18.7914021 L45.2707068,19.4399056 L45.8663947,19.3954091 L46.0649574,19.7293531 L46.1318738,20.2404021 L47.3232497,20.9523462 L47.6547705,20.9078497 L48.4494585,21.8193671 L48.626153,22.2859196 L49.1776673,22.8643741 L49.8179662,22.8419056 L50.1018145,22.237458 C51.1584826,24.5931294 51.720931,27.1664371 51.7266167,29.8278566 L47.382731,29.8278566 C47.3805442,28.9969615 47.3040057,28.1779615 47.1636123,27.3765839 L47.3608629,27.0699545 L47.4688914,27.0699545 L47.7068167,26.0460944 L47.5336211,26.0020385 L47.57692,25.8280175 L47.1443684,25.8491643 L47.0577705,25.7403462 L46.9716101,25.9368357 L47.2305288,26.154472 L47.0363398,26.2196748 L46.9633002,26.413521 C46.8592079,25.994549 46.7371837,25.5808636 46.5959156,25.1751084 L46.841276,24.8032762 L46.7765464,24.3675629 L46.5604892,24.3239476 L46.4738914,23.8446189 L46.6033508,23.7358007 L46.3654255,23.4089056 L45.954742,23.4520804 L45.8174101,23.3600035 C45.7273134,23.185542 45.6324057,23.0132832 45.5353112,22.8419056 L45.954742,22.8419056 L45.8681442,22.6242692 L46.148931,22.5370385 L46.148931,22.3189615 L45.954742,22.2973741 L45.6735178,22.515451 L45.5864826,22.4282203 L45.8244079,22.0577098 L45.6297815,21.9268636 L45.3922936,22.2757867 L45.1040716,22.1304021 C44.875331,21.7779545 44.6290958,21.4351993 44.367553,21.1016958 L44.3749881,21.0118217 L44.3378123,21.0620455 C44.0535266,20.702549 43.751309,20.3549476 43.4298475,20.0205629 L43.4403442,20.0104301 Z M49.7576101,13.646549 C51.7904716,15.7370035 53.3951552,18.1539126 54.5231134,20.8395629 C55.7184255,23.686458 56.3263596,26.7108986 56.3311705,29.8278566 L52.0520145,29.8278566 C52.0472035,27.2928776 51.5525464,24.8332343 50.5798519,22.5176538 C50.4858189,22.2929685 50.3847881,22.0726888 50.2820079,21.8528497 L50.3922233,21.6193531 L50.6349596,21.7748706 L50.7228695,21.5078916 L49.2878826,19.1513392 L48.9791046,19.0623462 L46.8596453,16.6159196 L46.8583332,16.567458 L49.7576101,13.646549 Z M12.0971881,38.8932483 C10.9338035,36.1225699 10.3311178,33.1840385 10.2948167,30.1556329 L14.5744101,30.1556329 C14.6024013,32.0658986 14.9111793,33.9307867 15.4911222,35.7238636 L15.170098,35.9392972 L14.3338607,35.470542 L14.1475442,35.6582203 L13.9153046,35.5405909 L13.7757859,35.6582203 L13.8689442,35.9622063 L13.3804101,35.9392972 L13.1013727,35.7749685 L13.1249903,35.5176818 L13.0550123,35.3066538 L12.9154936,35.3066538 L12.9391112,35.5405909 L12.9154936,35.6815699 L12.7995925,35.6344301 L12.4505771,35.7987587 L12.6832541,35.9855559 L12.3810365,35.915507 L12.2415178,36.0793951 L12.4042167,36.1494441 L12.19472,36.1494441 L12.19472,36.5005699 L12.2883156,36.6886888 L12.4042167,36.7816469 L12.2183376,36.7816469 L12.3114958,37.0860734 L12.4973749,37.1561224 L12.5634167,37.2728706 L12.6832541,37.4843392 L12.7532321,37.6715769 L12.334676,37.4138497 L12.4973749,37.8592552 L12.2183376,37.2499615 L12.2183376,37.6486678 L12.4741947,38.2566399 L12.6832541,38.7720944 L13.3340497,40.0602902 L13.264509,39.8021224 L12.7532321,38.5610664 L12.7532321,38.0931923 L13.0090892,37.6715769 L13.8453266,38.6782552 L13.9616651,38.5852972 L13.8221464,37.9526538 L13.9852826,38.0694021 L14.2407024,38.5148077 L14.6592585,38.6315559 L14.8451376,38.9126329 L15.0078365,38.9359825 L14.8687552,38.5852972 L15.0078365,38.3976189 L15.1473552,38.8888427 L15.4491354,39.380507 L15.7286101,39.3342483 L16.4721266,40.5986538 L16.8902453,40.7154021 L17.0070211,40.2008287 L17.1692826,40.4109755 L17.7973354,41.3242552 L18.5810892,41.5352832 C19.0228255,42.0987587 19.4934277,42.6419685 20.0012057,43.1574231 L16.9750936,46.2052133 C14.8879991,44.0887657 13.2461398,41.6295629 12.0971881,38.8932483 Z M12.0971881,20.8395629 C13.2233969,18.1574371 14.8254563,15.7436119 16.8530695,13.6562413 L19.8791815,16.7035909 C18.24432,18.3957797 16.9506013,20.3483392 16.0400123,22.5176538 C15.0677552,24.8332343 14.573098,27.2928776 14.5678497,29.8278566 L10.2886936,29.8278566 C10.293942,26.7108986 10.9014387,23.686458 12.0971881,20.8395629 Z M19.2436936,30.1556329 C19.2568145,30.8217587 19.3162958,31.4812762 19.419076,32.128458 L19.1920848,32.005542 L19.1920848,32.309528 L19.0285112,32.239479 L18.8898673,32.005542 L18.5640321,32.1456399 L18.5176716,32.4271573 L17.7737178,33.5739336 L17.5646585,33.6210734 L17.4719376,35.5405909 L16.9370431,35.7987587 L16.7743442,35.7278287 L16.518487,35.8450175 L15.9140519,35.7987587 L15.8497596,35.7710035 C15.2558211,33.9805699 14.9291112,32.0932133 14.8998079,30.1556329 L19.2436936,30.1556329 Z M23.4113222,20.261549 L26.4448695,23.3172692 C25.7455266,24.060493 25.1638343,24.9160594 24.7290958,25.854451 L24.5611486,25.8240524 L24.7006673,25.6368147 L24.3520892,25.9412413 L24.0730519,26.128479 L24.0030738,26.0112902 L23.5154145,26.1989685 L23.5385947,26.3857657 L23.7940145,26.2218776 L24.2357508,26.1989685 L24.6258782,26.091472 C24.6048848,26.1399336 24.5830167,26.1879545 24.562898,26.2368566 L24.0498716,26.5967937 L23.9335332,26.4791643 L23.329098,26.9245699 L22.7942035,26.8307308 L22.4460629,27.2523462 L21.9116057,28.4467028 L22.0043266,28.774479 L21.5625903,29.359542 L21.4930497,29.804507 L21.4869266,29.8278566 L19.5629684,29.8278566 C19.5725903,26.2293671 20.9375991,22.8454301 23.4113222,20.261549 Z M24.9324695,26.2029336 C24.9587112,26.1425769 24.9836409,26.0822203 25.0107574,26.0227448 L25.0956057,26.0112902 L25.0028848,26.1989685 L24.9324695,26.2029336 Z M25.5145991,31.8416538 L25.9554607,32.028451 L26.2581156,32.4029266 L26.3971969,32.309528 L26.9089112,32.6377448 L27.0947903,32.8721224 L26.7457749,32.7311434 L26.6766716,32.8721224 L26.9788892,33.0355699 L27.3038497,33.2937378 L27.3038497,33.1289685 L27.234309,32.8721224 L27.3738277,32.6377448 L27.536964,32.5439056 L27.2111288,32.1456399 L27.5833244,32.3333182 L27.815564,32.6377448 L27.9782629,33.0589196 L28.3036607,33.1289685 L27.6060673,33.2461573 L27.8619244,33.8083112 L28.094164,33.8316608 L28.1405244,33.5972832 L28.0714211,33.3166469 L28.3732013,33.2937378 L28.6058782,32.8950315 L28.6985991,32.309528 L28.861298,32.239479 L29.0065024,32.0086259 C29.2278079,32.4588776 29.512531,32.8721224 29.856298,33.2298566 L26.796509,36.3120105 C25.4612409,34.9440734 24.5502145,33.1580455 24.2694277,31.1693601 L24.4448101,31.1861014 L25.0260651,31.7711643 L25.5145991,31.8416538 Z M22.2601837,29.4767308 L22.3760848,28.703549 L23.0037002,28.3757727 L23.7476541,28.5630105 L23.9033552,28.848493 C23.8688035,29.1701014 23.8499969,29.4974371 23.8482475,29.8278566 L22.7049815,29.8278566 L22.7014826,29.7340175 L22.2601837,29.4767308 Z M23.5333464,39.599465 C23.2643684,39.3254371 23.0102607,39.0399545 22.7666497,38.7478636 L22.7714607,38.7483042 L22.910542,38.2566399 L22.8873618,37.694486 L22.4460629,36.9221853 L22.4460629,36.1260944 L22.283364,35.611521 L22.3992651,35.400493 L21.9343486,34.5572622 L21.9811464,34.2532762 L21.7248519,33.7611713 L21.4698695,33.6911224 L21.8879881,33.6210734 L21.772087,33.4571853 L21.4930497,32.8478916 L21.004953,32.7073531 L21.1212914,32.309528 L20.9349749,31.6777657 L21.1676519,31.1389615 L21.7484695,31.0922622 L21.9116057,30.8116259 L21.8521244,30.1556329 L22.2199464,30.1556329 L22.4460629,30.2256818 L22.7251002,30.3666608 L22.7172277,30.1556329 L23.8548079,30.1556329 C23.8635552,30.4512483 23.8867354,30.742458 23.9217244,31.0301434 L23.9107903,31.0451224 L23.6544958,31.0222133 L23.2827376,31.4438287 L23.6085727,31.5138776 L23.9602123,31.3010874 C24.2650541,33.3267797 25.2018848,35.1462902 26.5664563,36.5441853 L23.5333464,39.599465 Z M23.2280673,39.906535 L23.0518101,39.5628986 C23.1353464,39.6523322 23.2171332,39.743528 23.3028563,39.8316399 L23.2280673,39.906535 Z M22.0970475,38.7483042 L22.050687,38.6315559 L22.2829266,38.6694441 C22.3288497,38.7271573 22.3725859,38.7861923 22.4193837,38.8430245 L22.0970475,38.7483042 Z M20.7259156,32.5672552 L20.2378189,32.6844441 L20.0283222,32.4738566 L19.8888035,32.3800175 L19.7624057,32.209521 C19.6491288,31.5363462 19.583087,30.8503951 19.5690914,30.1556329 L21.4012035,30.1556329 L21.3767112,30.249472 L21.1212914,30.6944371 L20.9581552,30.7173462 L20.6563749,31.7011154 L20.9349749,32.1456399 L20.7259156,32.5672552 Z M20.2308211,42.9252483 C19.9067354,42.5957098 19.6001442,42.2529545 19.3031749,41.9035909 L19.5870233,42.026507 L19.8660607,41.8626189 L20.6327574,42.3542832 L20.7595925,42.3930524 L20.2308211,42.9252483 Z M54.8227068,20.7118007 C53.6466387,17.9116049 51.9632299,15.3960105 49.8192782,13.2359476 C47.6753266,11.0767657 45.1784233,9.38105245 42.398109,8.19638811 C40.1977376,7.25931818 37.8923991,6.67822028 35.5210189,6.45485664 C35.5022123,6.57204545 35.4869046,6.68042308 35.4746585,6.77954895 C37.8184848,6.99894755 40.0971442,7.57167483 42.2708365,8.49817133 C44.9877332,9.65552098 47.4290914,11.3093811 49.5301815,13.4117308 L46.8443376,16.1180874 L46.8377771,15.9264441 L46.6173464,15.9489126 L46.352742,15.8154231 L45.954742,15.7044021 L46.5066936,15.6158497 L46.3964782,15.4598916 L46.0872629,15.4598916 L46.1756101,15.2158217 L45.9105684,14.5483741 L45.2042277,13.6809126 L44.5197552,13.2359476 L44.1449354,13.0139056 L43.8580255,13.0808706 L43.8580255,12.9028846 L43.1958585,12.6134371 L42.934753,12.8588287 C43.4206629,13.6919266 43.6703969,14.5492552 43.7141332,15.3136259 C43.7478101,15.900451 43.7206936,16.4590804 43.6362826,16.9917168 L43.8580255,16.8608706 L44.5643662,18.1503881 L44.0784563,18.1948846 L44.4239727,18.5557028 L43.6039178,19.3817517 L43.1853618,18.8544021 L43.224287,18.4601014 C43.1114475,18.7319266 42.979364,18.9945 42.8293486,19.2478217 L42.8822695,19.3553182 L43.4018563,19.4209615 L43.4525903,19.5341853 L43.2028563,19.7857448 C43.0576519,19.6416818 42.9093859,19.5020245 42.7589332,19.3645699 C42.700764,19.4579685 42.6390958,19.5496049 42.5752409,19.6408007 C42.7095112,19.7645979 42.8429068,19.8883951 42.9728035,20.0179196 L39.9388189,23.0736399 C39.6903969,22.8269266 39.4271046,22.596514 39.1528782,22.3788776 C39.0417881,22.4304231 38.9293859,22.4810874 38.8152343,22.529549 C39.1292607,22.7692133 39.4288541,23.0273811 39.7096409,23.3053741 L39.3182013,23.6987937 L39.312953,23.6917448 L39.3776826,23.4741084 L39.0745903,23.5613392 L38.7505046,23.5177238 L38.7505046,23.256472 L38.4041134,23.4741084 L38.0362914,23.8225909 L38.2099244,23.9322902 L38.577309,23.6917448 L38.945131,23.8225909 L38.945131,23.8882343 L39.1922409,23.8256748 L38.34332,24.6808007 L37.3439464,24.8909476 L37.0627222,25.261458 L36.8685332,25.3918636 L36.8462277,25.5879126 L36.9975552,25.5658846 L37.14932,25.6967308 L37.1178299,25.9143671 L37.0447903,25.9888217 L36.8029288,25.9368357 L36.2295464,26.0271503 C36.119331,25.9416818 36.0060541,25.8597378 35.8884035,25.7844021 L35.8507903,25.7403462 L35.6889662,25.6650105 C35.4882167,25.5487028 35.2769705,25.4508986 35.0596013,25.3641084 L35.0429815,26.6051643 C35.0368585,26.9981434 35.030298,27.3673322 35.0246123,27.7259476 L35.1584453,27.6581014 L35.2747837,27.7717657 L35.019364,28.0286119 C35.0171771,28.1907378 35.014553,28.3453741 35.0119288,28.5000105 L35.4960892,28.0123112 L35.3968079,28.3559476 L35.5389508,28.4057308 L35.6412936,28.9304371 L35.9159574,29.2053462 L35.2669112,28.8564231 L35.2157398,29.1053392 C36.0629112,29.4520594 37.2206101,29.9653112 38.1591903,30.6750524 C39.5801815,31.7495769 40.3110145,33.2391084 40.113764,34.6603531 C39.9711837,35.6868566 39.3807442,36.5622483 38.4198585,37.2023811 L38.4469749,37.3120804 L38.2527859,37.5517448 L37.9063947,37.5953601 L37.776498,37.8138776 L37.1055837,38.0967168 L36.5002738,38.0746888 L36.3266409,38.3363811 L36.4351068,38.5112832 L36.43292,38.5130455 C36.3515705,38.5430035 36.2697837,38.5711993 36.1875596,38.5989545 L35.7641925,38.6412483 L35.6566013,38.4672273 L35.1807508,38.5324301 L35.1741903,38.5302273 C35.084531,38.5610664 34.9992453,38.591465 34.9126475,38.6223042 L34.910898,38.9606538 C34.910898,39.0611014 34.8907793,39.8316399 34.8592892,40.9330385 C36.3974936,41.7088636 38.30352,42.9829615 38.2226079,46.3602902 C38.2226079,46.3602902 38.1876189,46.9753112 38.0122365,47.4207168 L38.0148607,47.4238007 L38.6796519,47.6180874 C37.3745618,48.0172343 36.0196123,48.2709965 34.6344848,48.3696818 C34.6309859,48.4811434 34.6270497,48.5930455 34.6239881,48.6992203 C36.0817178,48.5978916 37.5097068,48.3287098 38.8943969,47.8934371 L39.1830563,47.9908007 L39.4852738,48.2516119 L39.8570321,48.1071084 L40.4374123,47.9683322 L40.6757749,47.7506958 L41.3248211,47.4678566 L41.9738673,47.0096748 L42.7095112,46.2686538 L42.7440629,46.1796608 C44.0579002,45.4060385 45.2742057,44.476458 46.3772343,43.3948846 L49.402909,46.4426748 C47.3302475,48.485549 44.9339376,50.0997587 42.2708365,51.2341993 C39.4332277,52.4439755 36.4180497,53.0567937 33.3101508,53.0567937 C30.2022519,53.0567937 27.1870738,52.4439755 24.3490277,51.2341993 C21.6824277,50.0979965 19.2830563,48.4811434 17.2077705,46.4347448 L20.2338826,43.386514 C21.915542,45.0377308 23.8574321,46.343549 26.0145046,47.2625559 C27.9485222,48.0864021 29.9844453,48.5657308 32.0798497,48.7014231 C32.0767881,48.5943671 32.0732892,48.4842273 32.0697903,48.3718846 C27.6987881,48.0802343 23.6247552,46.2567587 20.4639354,43.1547797 L21.1090453,42.5049545 L21.6557486,42.9869266 L22.7942035,42.893528 L23.2595574,42.4247727 L23.8871727,42.4481224 L24.4679903,42.5181713 L24.7702079,42.2842343 L24.7470277,42.0031573 L24.4220673,41.6286818 L24.0266914,40.8559406 L23.6313156,40.6920524 L23.3850804,40.2122832 L23.5359705,40.0602902 C25.8448079,42.3089056 28.7843222,43.6719965 31.9486409,43.9773042 C31.9455793,43.8662832 31.9429552,43.7557028 31.940331,43.6468846 C28.8669837,43.3411364 26.0110057,42.0132902 23.7660233,39.8285559 L26.7991332,36.7732762 C27.5986321,37.5376469 28.5297771,38.1632413 29.5540804,38.6121713 C29.5772607,38.5033531 29.6056892,38.394535 29.6411156,38.2865979 C28.6714826,37.8561713 27.7880101,37.2658217 27.0291859,36.541542 L30.0915991,33.4563042 C30.5700738,33.8920175 31.1360211,34.229486 31.7575134,34.4440385 L31.7518277,34.0968776 C31.2208695,33.8964231 30.736709,33.599486 30.3216519,33.2250105 L30.523276,33.0219126 L30.6304299,33.0153042 L30.8154343,32.8289476 L31.2252431,32.8822552 L31.4631684,32.7487657 L31.7273354,32.7210105 L31.7181508,32.1733951 L30.7835068,31.8663252 L30.7493925,31.8971643 L30.3662629,31.9636888 L30.0889749,32.3496189 L29.9704497,32.8417238 L29.9752607,32.8721224 C29.5951925,32.4447797 29.2951618,31.9469476 29.0983486,31.3980105 L29.1263398,31.2557098 C28.8468651,31.1283881 28.5883837,30.9922552 28.348709,30.8468706 L28.1405244,30.9517238 L27.9082848,30.8116259 L27.5597068,30.9517238 L27.3738277,30.7873951 L27.5833244,30.5772483 L27.8597376,30.5212972 C26.9019134,29.8053881 26.3232826,28.8868217 26.0241266,27.666472 C25.8443705,26.9329406 25.7901376,26.2218776 25.850931,25.5447378 L25.4210035,25.7068636 L25.1494013,25.7372622 C25.4328123,25.1720245 25.7743925,24.6420315 26.1623332,24.1499266 C26.3009771,23.767521 26.4789837,23.4000944 26.7016013,23.0533741 C26.6919793,23.0630664 26.6814826,23.0718776 26.6718607,23.0820105 L23.6383134,20.0267308 C25.756898,17.9133671 28.4366189,16.5771503 31.3376453,16.1595 C31.3363332,16.0511224 31.3345837,15.9409825 31.3323969,15.8304021 C28.3460848,16.2511364 25.586764,17.6212762 23.4082607,19.7945559 L22.6734914,19.0544161 C22.6726167,19.0570594 22.6708673,19.0597028 22.6699925,19.061465 C22.6113859,19.1817378 22.5663376,19.2852692 22.5304738,19.3738217 L23.1812695,20.0298147 C20.6463156,22.6758147 19.2471925,26.1416958 19.2375705,29.8278566 L14.8936848,29.8278566 C14.9037442,24.9733322 16.7546629,20.4086958 20.1092343,16.9357657 L21.304109,18.1389336 C21.3863332,18.1490664 21.4803662,18.1543531 21.5770233,18.1464231 C21.6343178,18.1420175 21.6911749,18.1327657 21.7471574,18.1213112 L20.3366629,16.700507 C21.2813662,15.755507 22.3117925,14.9312203 23.4073859,14.2241224 C23.4699288,14.0377657 23.5534651,13.8549336 23.6566826,13.6800315 C22.3717112,14.4585 21.1842716,15.3911643 20.1066101,16.4687727 L17.080498,13.4209825 C19.1842123,11.3142273 21.6286321,9.65684266 24.3490277,8.49817133 C26.5095991,7.57784266 28.7733881,7.00467483 31.1027815,6.78263287 L31.0564211,6.45794056 C28.6999112,6.68394755 26.4090057,7.2646049 24.2217552,8.19638811 C21.4418782,9.38105245 18.9449749,11.0767657 16.8010233,13.2359476 C14.6566343,15.3960105 12.9727881,17.9116049 11.7971574,20.7118007 C10.5795398,23.6115629 9.9624211,26.6910734 9.9624211,29.8661853 C9.9624211,33.0412972 10.5795398,36.1208077 11.7971574,39.0210105 C12.9727881,41.8212063 14.6566343,44.3359196 16.8010233,46.4959825 C18.9449749,48.6560455 21.4418782,50.3517587 24.2217552,51.5364231 C27.100476,52.7620594 30.1585156,53.3845699 33.3101508,53.3845699 C36.4617859,53.3845699 39.5193881,52.7620594 42.398109,51.5364231 C45.1784233,50.3517587 47.6753266,48.6560455 49.8192782,46.4959825 C51.9632299,44.3359196 53.6466387,41.8212063 54.8227068,39.0210105 C56.0403244,36.1208077 56.6574431,33.0412972 56.6574431,29.8661853 C56.6574431,26.6910734 56.0403244,23.6115629 54.8227068,20.7118007 Z M46.0409024,31.776451 L45.4351552,31.9949685 L45.5864826,32.2341923 L46.0194716,32.2778077 L46.0409024,31.776451 Z M29.4806035,31.4081434 C29.4167486,31.3825909 29.3524563,31.3552762 29.2899134,31.3288427 L29.2566738,31.7482552 L29.4806035,31.4081434 Z M29.7745112,31.5231294 C29.6778541,31.4874441 29.582509,31.4504371 29.4902255,31.412549 L29.512531,31.6777657 L29.7745112,31.5231294 Z M22.2632453,19.105521 C22.2829266,18.9579336 22.3109178,18.8319336 22.3428453,18.7213531 L22.1530299,18.5305909 C22.0121991,18.5601084 21.8704936,18.5781713 21.7309749,18.5693601 L22.2632453,19.105521 Z M31.1858804,25.9645909 L31.1675112,25.9033531 C31.1753837,25.8989476 31.1828189,25.8936608 31.1915662,25.8896958 L31.1858804,25.9645909 Z M31.1627002,25.3790874 L31.1893793,25.5257937 C30.9011574,25.6694161 30.6352409,25.8478427 30.3837574,26.0447727 C30.3802585,26.3870874 30.5127793,26.750549 30.7699486,27.0827308 C30.880164,27.2245909 31.0083112,27.3466259 31.1714475,27.4620524 L31.6319903,27.2615979 L31.5970013,25.2689476 L31.4417376,25.2852483 L31.488098,25.0513112 L31.5904409,24.8913881 L31.586942,24.6896119 L31.488098,24.7702343 L31.2790387,25.098451 L31.1627002,25.3790874 Z M34.770942,43.9499895 C34.770942,43.9543951 34.770942,43.9579196 34.770942,43.9627657 C34.7779398,43.9618846 34.7853749,43.9614441 34.7923727,43.9605629 C34.7858123,43.9565979 34.7779398,43.9530734 34.770942,43.9499895 Z M22.9569024,32.9183811 L22.8641815,32.9888706 L22.7942035,33.0822692 L22.631942,32.7311434 L22.5624013,32.8016329 L22.631942,33.1056189 L22.7251002,33.2937378 L22.6551222,33.4100455 L22.8410013,33.6444231 L22.9569024,33.9021503 L23.050498,33.8783601 L23.0736782,33.480535 L22.98052,33.269507 L22.9569024,32.9183811 Z M22.7714607,30.8116259 L22.9569024,31.3028497 L22.8410013,31.4667378 L22.8873618,31.7240245 L22.8178211,32.0998217 L22.6783024,32.1932203 L22.910542,32.8016329 L22.98052,32.7782832 L22.910542,32.239479 L23.0968585,31.3261993 L22.9569024,30.8578846 L22.7714607,30.8116259 Z M35.3968079,33.847521 L35.4103662,33.8484021 C35.4016189,33.8523671 35.393309,33.8580944 35.3845618,33.8625 L35.3968079,33.847521 Z M35.1374519,34.566514 L35.1807508,34.740535 L35.1606321,34.8202762 C35.8643486,34.4722343 35.964942,34.270458 35.9575068,34.1788217 C35.9343266,33.8990664 35.5214563,33.6100594 34.9310167,33.328542 C34.9275178,33.5413322 34.9240189,33.7307727 34.92052,33.9003881 L35.0386079,34.0272692 C34.9992453,34.0440105 34.9576958,34.0572273 34.9178958,34.0726469 C34.9152716,34.2021713 34.9130848,34.3202413 34.910898,34.4246538 C34.9804387,34.3999825 35.0504167,34.3788357 35.1177705,34.3497587 L35.1374519,34.566514 Z M37.7336365,24.2146888 L38.0581596,24.2146888 L38.1228892,24.0838427 L37.8416651,24.0190804 L37.7336365,23.8446189 L37.3872453,23.8666469 L37.5608782,24.1063112 L37.5608782,24.3891503 L37.7336365,24.2146888 Z M37.2359178,24.6072273 L37.084153,24.7160455 L37.0198607,24.6292552 L36.6087398,25.3262203 L36.9765618,25.261458 L36.9979925,24.9997657 L37.2792167,24.7160455 L37.4957112,24.5199965 L37.3658145,24.3459755 L37.2359178,24.6072273 Z M35.721331,24.3239476 L35.2887793,24.3459755 L35.1584453,24.5636119 L35.070098,24.5636119 L35.060476,25.268507 L35.5052738,25.064528 L35.721331,24.3239476 Z M38.7920541,16.8053601 C37.6584101,16.3220664 36.4613486,15.9938497 35.2271112,15.8242343 C35.2240497,15.9348147 35.2214255,16.0453951 35.2192387,16.1533322 C36.3953068,16.3176608 37.5359486,16.6300175 38.6175464,17.0859965 C38.6818387,16.9930385 38.74132,16.8996399 38.7920541,16.8053601 Z" id="Fill-27"></path>
                            <path d="M25.7623213,62.8279175 L27.4719719,63.0001762 C27.4719719,63.0001762 29.6552862,58.1645958 35.1503103,57.932421 C38.6780774,57.7835119 41.762796,59.5607287 45.5206158,59.8356378 C50.0333235,60.1656168 53.1158554,59.2056378 55.6980444,56.7288126 C52.9675895,58.2434559 49.7464136,57.5896657 46.021396,56.7288126 C43.5988444,56.168421 41.1159367,55.9340434 39.27464,55.9525469 C30.727262,56.0380154 25.7623213,62.8279175 25.7623213,62.8279175" id="Fill-28"></path>
                            <path d="M51.5556079,46.8627923 C50.7556716,47.6676944 49.6841332,48.7290021 48.6427727,50.981142 C47.6320277,53.1685196 47.621531,54.0487573 46.6383398,55.6413797 C48.8723881,54.7985895 50.5260563,56.4224916 56.1601618,54.3214636 C58.7672804,53.3504706 60.6221354,50.8767294 61.4806782,48.7290021 C59.4758079,50.5546804 57.8531925,51.4811769 55.4660673,51.8358273 C53.1148057,52.1847503 51.611153,52.3407084 49.6456453,53.5055476 C50.8790079,52.1847503 51.3417376,51.4472538 51.9969068,49.6995545 C52.6997486,47.8262958 52.5860343,46.2142888 53.3846585,44.7683727 C52.811276,45.500142 52.3555442,46.0578902 51.5556079,46.8627923" id="Fill-29"></path>
                            <path d="M54.395491,44.0641385 C53.8098624,47.1396839 53.983058,49.7107888 52.421236,51.6805301 C54.5008954,49.9394392 56.5276338,49.9500126 59.3215064,48.6900126 C62.6537723,47.0401175 64.4132822,44.1531315 65.3361174,39.9528378 C64.5965371,41.8071524 62.7014448,43.5592573 60.5937943,44.8849007 C58.7953591,46.0171385 56.8762119,46.5726839 55.5435679,48.2247818 C56.3150756,47.292558 56.5180119,46.8392224 56.6898954,45.7990615 C57.230913,42.9508448 56.3325701,41.3361944 56.758124,38.3628587 C56.3242602,39.5924601 54.7733723,42.0820615 54.395491,44.0641385" id="Fill-30"></path>
                            <path d="M57.5599409,35.0279119 C57.3460705,39.8493944 59.3054552,40.8384503 57.895398,45.2731217 C59.1287607,43.4866531 60.5891145,42.9504923 62.4828947,41.2737231 C64.8402793,39.1748979 66.785231,36.0041916 66.6076618,31.7210727 C66.1637387,32.9189538 64.7576178,35.2155902 63.2154771,36.8469818 C61.6733365,38.4779329 60.3752442,40.431814 59.7069541,41.7777231 C61.24822,36.4500378 58.4928354,34.4234643 58.1595651,31.226765 C58.073842,32.4321357 57.636042,34.224772 57.5599409,35.0279119" id="Fill-31"></path>
                            <path d="M58.4778338,29.550172 C58.0597152,27.9848643 58.2390338,27.0548434 57.8777723,25.3005357 C58.5123855,26.8667245 62.2133481,29.6413678 61.8271569,34.9818294 C62.0353415,34.0029063 62.7928536,31.0375007 63.8709525,28.9637874 C64.719436,27.3328364 65.579291,25.7054098 65.3741679,23.2937874 C66.3486119,26.4715427 66.2991899,28.3033888 65.8753855,29.8955706 C65.4515811,31.4877524 64.3940382,32.7103049 63.4851987,33.9729483 C62.8881987,34.8038434 61.6220338,36.4255427 61.018036,37.9340182 C61.0652712,34.6655077 59.0258492,31.5983329 58.4778338,29.550172" id="Fill-32"></path>
                            <path d="M57.2996226,22.417779 C56.6033413,21.0784783 56.3348007,19.9735552 55.434271,18.2751986 C55.9905963,19.0038839 56.4730073,19.3928979 57.8568226,20.5753594 C59.7624116,22.2036671 61.2109567,24.0324294 61.9654073,27.0744923 C62.0205149,25.1800867 62.2518798,24.0456462 62.6376336,21.9344853 C62.9840248,20.0317091 62.8930534,17.8549049 62.0196402,15.4490098 C63.7043611,17.5015762 65.1533435,21.5454713 64.3328512,24.2637231 C63.6833677,26.8449608 62.5764029,28.150779 62.2514424,29.9724923 C61.1234842,26.3281846 58.2539479,24.2522685 57.2996226,22.417779" id="Fill-33"></path>
                            <path d="M58.2127921,19.0421685 C57.3695569,18.3593014 55.2570954,17.0332175 54.2231701,15.8097839 C53.1923064,14.5889937 52.6683459,13.4232734 51.9410119,12.3469867 C53.4652207,13.7585392 54.2970844,14.1770706 55.8519086,15.1383713 C57.261091,15.9490007 59.1671174,17.0411476 59.9381877,18.7575671 C59.4758954,17.4684902 59.2449679,15.7604413 59.0901415,14.3228958 C58.8596514,12.1822175 57.9914866,10.8781615 57.3555613,10.0908818 C59.4343459,11.7742594 60.6930756,13.1959448 61.2494009,16.2261126 C61.8052888,19.256721 61.1719877,21.5463084 61.3841086,23.1785811 C60.28108,20.9735811 59.0555899,19.7259168 58.2127921,19.0421685" id="Fill-34"></path>
                            <path d="M58.5892738,15.8767049 C57.6642519,13.0813552 56.6968057,11.4138378 54.8113354,9.81901259 C52.3406738,7.72855804 49.7195596,6.74919441 48.6812607,6.24563497 C50.7027508,7.69771888 50.5973464,8.95551608 53.2871266,11.508558 C55.3912782,13.5060545 56.8713134,13.6633343 58.5892738,15.8767049" id="Fill-35"></path>
                            <path d="M40.8566681,62.8279175 L39.1470176,63.0001762 C39.1470176,63.0001762 36.9641407,58.1645958 31.4691165,57.932421 C27.9409121,57.7835119 24.8566308,59.5607287 21.098811,59.8356378 C16.5856659,60.1656168 13.5031341,59.2056378 10.9209451,56.7288126 C13.6522747,58.2434559 16.8725758,57.5896657 20.5975934,56.7288126 C23.0201451,56.168421 25.5030527,55.9340434 27.3443495,55.9525469 C35.8921648,56.0380154 40.8566681,62.8279175 40.8566681,62.8279175" id="Fill-36"></path>
                            <path d="M15.0633815,46.8627923 C15.8637552,47.6676944 16.9352936,48.7290021 17.9762167,50.981142 C18.9869618,53.1685196 18.9978958,54.0487573 19.9806497,55.6413797 C17.7470387,54.7985895 16.0929332,56.4224916 10.4588277,54.3214636 C7.85170901,53.3504706 5.99729143,50.8767294 5.13874857,48.7290021 C7.1436189,50.5546804 8.76579692,51.4811769 11.1529222,51.8358273 C13.5041837,52.1847503 15.0078365,52.3407084 16.9737815,53.5055476 C15.7399815,52.1847503 15.2776892,51.4472538 14.62252,49.6995545 C13.9196782,47.8262958 14.0329552,46.2142888 13.234331,44.7683727 C13.8081508,45.500142 14.26432,46.0578902 15.0633815,46.8627923" id="Fill-37"></path>
                            <path d="M12.2233235,44.0641385 C12.8093895,47.1396839 12.6361938,49.7107888 14.1980158,51.6805301 C12.1183565,49.9394392 10.091618,49.9500126 7.29730813,48.6900126 C3.96547956,47.0401175 2.20596967,44.1531315 1.28400923,39.9528378 C2.02227736,41.8071524 3.91780703,43.5592573 6.02502022,44.8849007 C7.82389275,46.0171385 9.74304,46.5726839 11.0752466,48.2247818 C10.3041763,47.292558 10.1016774,46.8392224 9.92935648,45.7990615 C9.3883389,42.9508448 10.2866818,41.3361944 9.86112791,38.3628587 C10.2949916,39.5924601 11.8463169,42.0820615 12.2233235,44.0641385" id="Fill-38"></path>
                            <path d="M9.05948593,35.0279119 C9.27335626,39.8493944 7.31353429,40.8384503 8.72359143,45.2731217 C7.49022879,43.4866531 6.02987495,42.9504923 4.13609473,41.2737231 C1.77914747,39.1748979 -0.165804176,36.0041916 0.0113276923,31.7210727 C0.455688132,32.9189538 1.86180901,35.2155902 3.40394967,36.8469818 C4.94609033,38.4779329 6.24418264,40.431814 6.91203538,41.7777231 C5.37120681,36.4500378 8.12659143,34.4234643 8.4594244,31.226765 C8.54514747,32.4321357 8.98294747,34.224772 9.05948593,35.0279119" id="Fill-39"></path>
                            <path d="M8.14119934,29.550172 C8.55931802,27.9848643 8.3804367,27.0548434 8.74169824,25.3005357 C8.10664769,26.8667245 4.40612242,29.6413678 4.79187626,34.9818294 C4.58369165,34.0029063 3.82661692,31.0375007 2.74808066,28.9637874 C1.90003451,27.3328364 1.0397422,25.7054098 1.24486527,23.2937874 C0.270421319,26.4715427 0.319843297,28.3033888 0.743647692,29.8955706 C1.16788945,31.4877524 2.22543231,32.7103049 3.13383451,33.9729483 C3.73083451,34.8038434 4.9974367,36.4255427 5.60099714,37.9340182 C5.55376198,34.6655077 7.59362132,31.5983329 8.14119934,29.550172" id="Fill-40"></path>
                            <path d="M8.99497495,22.9144657 C9.88413319,21.593228 10.28432,19.9737315 11.1848497,18.2753748 C10.6285244,19.0040601 10.1461134,19.3930741 8.76229802,20.5755357 C6.85670901,22.2034028 5.40816396,24.032165 4.65371341,27.0746685 C4.59816835,25.1798224 4.36680352,24.0458224 3.9819244,21.934221 C3.63509582,20.0318853 3.72606725,17.8546406 4.59948044,15.4487455 C2.91475956,17.5013119 1.46577714,21.545207 2.28626945,24.2638993 C2.9353156,26.8446965 4.04228044,28.1505147 4.36767824,29.9726685 C5.49563648,26.3283608 7.83159033,24.6427804 8.99497495,22.9144657" id="Fill-41"></path>
                            <path d="M8.40663473,19.0421685 C9.24943253,18.3593014 11.3623314,17.0332175 12.3962567,15.8097839 C13.4266831,14.5889937 13.9510809,13.4232734 14.6779776,12.3469867 C13.1537688,13.7585392 12.3219051,14.1770706 10.7675182,15.1383713 C9.3574611,15.9490007 7.45187209,17.0411476 6.68123912,18.7575671 C7.14353143,17.4684902 7.3744589,15.7604413 7.52928527,14.3228958 C7.75933802,12.1822175 8.62750286,10.8781615 9.26342813,10.0908818 C7.18464352,11.7742594 5.92591385,13.1959448 5.37002593,16.2261126 C4.81413802,19.256721 5.44700176,21.5463084 5.23488088,23.1785811 C6.33834681,20.9735811 7.56383692,19.7259168 8.40663473,19.0421685" id="Fill-42"></path>
                            <path d="M8.0297156,15.8767049 C8.95473758,13.0813552 9.92218374,11.4138378 11.8080914,9.81901259 C14.2783156,7.72855804 16.8994299,6.74919441 17.9377288,6.24563497 C15.916676,7.69771888 16.0220804,8.95551608 13.3318629,11.508558 C11.2277112,13.5060545 9.74767604,13.6633343 8.0297156,15.8767049" id="Fill-43"></path>
                            <path d="M32.5604675,40.1309119 C32.5311642,40.4710238 32.7590301,49.6315762 32.8368807,50.5801007 C33.0262587,52.8784993 33.7172916,52.9106601 33.8690565,50.6972895 C33.9136675,50.0412965 34.2294433,39.2630098 34.2294433,38.8814853 C33.2663708,39.1859119 32.6098895,39.5643524 32.5604675,40.1309119 Z M34.2434389,35.2195552 C34.2552477,35.1279189 34.3956411,24.1751706 34.4043884,23.7993734 C33.9888938,23.8597301 32.6321949,24.2249538 32.270496,24.366814 C32.2748697,24.6113245 32.4406301,35.8592476 32.4406301,35.8592476 C32.4406301,35.8592476 32.8530631,35.7103385 33.2563114,35.5746462 C33.7024213,35.439835 34.0352543,35.2997371 34.2434389,35.2195552 Z M32.071496,19.8198 C32.7935818,19.5986392 33.7894565,19.5061217 34.4752411,19.2594084 C34.4752411,18.3359958 34.7372213,7.49338741 34.7752719,6.92374406 C34.8833004,5.32363217 36.4101334,0.993373427 33.2834279,0.993373427 C30.2367598,0.993373427 31.5860235,5.55977203 31.8283224,7.04357622 C31.9214807,7.61277902 32.071496,18.8774434 32.071496,19.8198 Z M43.0335532,15.3534084 C42.9023444,13.0801217 40.6577993,9.9591986 35.3775202,9.60058322 C35.3578389,10.3552615 35.3364081,11.2139119 35.31454,12.1056042 C35.6569949,12.1474573 35.9421554,12.2003245 36.1363444,12.2465832 C38.6616763,12.8501497 39.7524587,14.2709538 39.7660169,15.7133455 C39.7795752,17.1222545 38.6126916,18.796821 36.0081971,19.5691217 C35.7554015,19.6440168 35.4654301,19.7193524 35.1549026,19.7955692 L35.1549026,19.815835 L34.6611202,19.9554923 C34.2434389,20.0444853 33.6608719,20.1854643 33.3066081,20.2616811 C32.9252279,20.3436252 32.4891774,20.4251287 32.1926455,20.516765 L31.4080169,20.7075273 L31.4075796,20.7018 C30.8350719,20.864807 30.3150477,21.038828 29.9104873,21.2291497 C27.1227378,22.5393734 26.0485752,24.9016531 26.6862499,27.5022755 C27.066318,29.0539259 27.9410433,30.1610517 30.2533796,30.9694783 C30.7384147,31.1390937 31.2260741,31.2976951 31.7049862,31.4510098 L31.6533774,28.4842825 C31.035384,28.2239119 30.5792147,27.9525273 30.2323862,27.5044783 C29.3222345,26.3281846 29.4726873,24.6663944 31.5724653,23.8773524 L31.5724653,23.8698629 L31.6787444,23.8372615 C31.7089224,23.8266881 31.7351642,23.8143524 31.7662169,23.8042196 C32.7699642,23.4720378 33.8314433,23.2270867 34.881551,22.9803734 L35.0910477,22.9261846 L35.0910477,22.9305902 C36.5636477,22.5829888 38.0030081,22.2199678 39.2088169,21.590849 C41.3930059,20.4515622 43.2229312,18.6346951 43.0335532,15.3534084 Z M37.7502125,31.2241217 C36.885984,30.5712126 35.812696,30.0910028 34.991329,29.7539748 C34.9716477,30.9232196 34.95634,31.8475133 34.9436565,32.5766392 C35.925973,33.0083874 36.5846411,33.4885972 36.6371246,34.1216811 C36.6887334,34.7463944 35.9876411,35.2389399 34.8872367,35.7010867 L34.8872367,35.7063734 L34.7083554,35.773779 C34.4411268,35.8812755 34.155529,35.9878909 33.8519993,36.0936252 C33.6158235,36.1782126 33.3153554,36.2839469 32.9545312,36.4064224 C32.5853971,36.5324224 32.2731202,36.6663524 32.0658103,36.7615133 C30.1711554,37.6809608 30.0696873,38.8735552 30.1943356,39.9859678 C30.2979905,40.9067371 31.0091422,41.5169119 31.9031114,41.9825832 C31.8816807,40.9344923 31.8716213,40.1859818 31.8816807,40.0718769 C31.9241048,39.575807 32.1878345,39.2185133 32.5674653,38.9365552 C32.8779927,38.6708979 33.3910191,38.4691217 34.0575598,38.2061077 C34.9287862,37.8624713 35.7186631,37.6523245 37.0495576,37.137751 C40.1425862,35.9420727 40.1382125,33.0304154 37.7502125,31.2241217 Z M26.8856873,13.623772 L25.9405466,14.6529189 L25.4380169,14.5700937 L25.5399224,14.1158769 L26.4072125,13.2867441 L27.120551,13.2321147 L26.8856873,13.623772 Z M29.0694389,14.2022266 C29.6585664,13.3761776 30.4414455,12.8492685 31.275496,12.5206112 C31.2584389,11.5861846 31.2413818,10.6834783 31.2251993,9.89091189 C29.7088631,10.2499678 28.9867774,10.7843664 28.6705642,10.8892196 C27.817707,11.1747021 26.6696301,11.1024503 25.429707,12.4615762 C25.2079642,12.7052056 24.6713202,13.3876322 24.2890653,13.9449399 C23.9159949,14.4881497 23.8989378,15.3613385 23.6242741,15.8300937 C23.224962,16.5094364 23.3211818,16.8980098 23.3211818,16.8980098 L23.3684169,16.9759888 C23.3146213,17.1381147 23.2004697,17.388793 22.9564213,17.6623804 C22.5409268,18.1271706 21.9955356,18.3831357 21.3451774,18.2787231 C21.9098125,18.563765 22.6926916,18.1650587 22.6926916,18.1650587 C22.6926916,18.1650587 22.513373,18.6399818 22.3629202,19.341793 C22.9030631,18.111751 23.4248367,17.5156741 23.6811312,17.2733664 C23.9417993,17.3464993 24.5055598,17.3442965 25.5980916,16.7134154 C26.782907,16.028786 28.5660345,14.9088839 29.0694389,14.2022266 Z M34.8373774,41.6931357 C34.8238191,42.1623315 34.8089488,42.6685343 34.7932037,43.1950028 C35.9806433,43.7646462 37.0368741,44.5981846 37.5407158,46.3436811 C37.6080697,43.559786 36.2133202,42.4293105 34.8373774,41.6931357 Z" id="Fill-44"></path>
                        </g>
                    </g>
                </g>
            </g>
        </g>
    </g>
</svg>