<svg xmlns="http://www.w3.org/2000/svg" width="140" height="24" viewBox="0 0 140 24">
  <g fill="none" fill-rule="evenodd">
    <g transform="translate(33 4)">
      <path fill="#474747" d="M14.9508,8.29728 C14.9508,9.70344 15.01128,11.6388 14.14944,12.63672 C13.6656,13.19616 13.00032,13.68 11.79072,13.68 L8.7516,13.68 L8.7516,2.91456 L11.79072,2.91456 C13.00032,2.91456 13.6656,3.3984 14.14944,3.95784 C15.01128,4.95576 14.9508,6.89112 14.9508,8.29728 Z M12.80376,8.28216 C12.80376,7.08768 12.80376,5.8176 12.54672,5.31864 C12.41064,5.04648 12.13848,4.84992 11.74536,4.84992 L10.89864,4.84992 L10.89864,11.74464 L11.74536,11.74464 C12.13848,11.74464 12.41064,11.54808 12.54672,11.27592 C12.80376,10.77696 12.80376,9.47664 12.80376,8.28216 Z M17.89848,13.68 L15.8724,13.68 L15.8724,5.86296 L17.89848,5.86296 L17.89848,13.68 Z M17.95896,4.97088 L15.81192,4.97088 L15.81192,2.82384 L17.95896,2.82384 L17.95896,4.97088 Z M24.14232,13.78584 C24.14232,14.6628 23.83992,15.29784 23.40144,15.73632 C22.94784,16.1748 22.19184,16.43184 21.4812,16.43184 C20.75544,16.43184 20.0448,16.20504 19.56096,15.73632 C19.01664,15.22224 18.82008,14.54184 18.82008,13.9068 L20.84616,13.9068 C20.84616,14.1336 20.89152,14.33016 20.99736,14.48136 C21.1032,14.61744 21.2544,14.69304 21.4812,14.69304 C21.67776,14.69304 21.84408,14.61744 21.96504,14.48136 C22.07088,14.3604 22.11624,14.17896 22.11624,13.95216 L22.11624,12.36456 C21.94992,12.56112 21.79872,12.6972 21.6324,12.80304 C21.45096,12.90888 21.22416,12.95424 20.92176,12.95424 C20.16576,12.95424 19.83312,12.80304 19.44,12.33432 C18.9108,11.69928 18.77472,10.79208 18.77472,9.18936 C18.77472,7.58664 18.9108,6.69456 19.44,6.05952 C19.83312,5.5908 20.16576,5.42448 20.92176,5.42448 C21.1788,5.42448 21.46608,5.50008 21.69288,5.62104 C21.88944,5.72688 22.05576,5.87808 22.20696,6.02928 L22.20696,5.54544 L24.14232,5.54544 L24.14232,13.78584 Z M22.11624,10.45944 L22.11624,7.97976 C22.11624,7.72272 22.05576,7.54128 21.9348,7.42032 C21.82896,7.29936 21.66264,7.23888 21.4812,7.23888 C21.22416,7.23888 21.08808,7.35984 20.952,7.5564 C20.78568,7.81344 20.8008,8.58456 20.8008,9.2196 C20.8008,9.85464 20.78568,10.62576 20.952,10.8828 C21.08808,11.07936 21.22416,11.20032 21.4812,11.20032 C21.67776,11.20032 21.82896,11.13984 21.94992,11.00376 C22.05576,10.8828 22.11624,10.70136 22.11624,10.45944 Z M27.27144,13.68 L25.24536,13.68 L25.24536,5.86296 L27.27144,5.86296 L27.27144,13.68 Z M27.33192,4.97088 L25.18488,4.97088 L25.18488,2.82384 L27.33192,2.82384 L27.33192,4.97088 Z M31.76136,13.68 C30.92976,13.68 30.26448,13.6044 29.6748,13.18104 C29.10024,12.7728 28.73736,12.12264 28.73736,11.06424 L28.73736,7.39008 L27.98136,7.39008 L27.98136,5.86296 L28.73736,5.86296 L28.73736,3.64032 L30.76344,3.64032 L30.76344,5.86296 L31.76136,5.86296 L31.76136,7.39008 L30.76344,7.39008 L30.76344,10.92816 C30.76344,11.5632 31.08096,11.8656 31.76136,11.8656 L31.76136,13.68 Z M37.61208,13.68 L35.72208,13.68 L35.72208,13.01472 C35.55576,13.21128 35.40456,13.40784 35.19288,13.54392 C34.95096,13.71024 34.70904,13.80096 34.3008,13.80096 C33.5448,13.80096 33.0912,13.58928 32.65272,13.04496 C32.30496,12.6216 32.184,12.0168 32.184,11.24568 C32.184,10.5048 32.45616,9.86976 32.97024,9.43128 C33.37848,9.08352 33.90768,8.85672 34.96608,8.85672 L35.586,8.85672 L35.586,7.91928 C35.586,7.46568 35.3592,7.20864 34.9812,7.20864 C34.76952,7.20864 34.64856,7.28424 34.54272,7.4052 C34.42176,7.5564 34.36128,7.73784 34.36128,7.96464 L32.3352,7.96464 C32.3352,7.29936 32.54688,6.69456 33.07608,6.15024 C33.48432,5.742 34.25544,5.42448 34.96608,5.42448 C35.6616,5.42448 36.35712,5.60592 36.84096,6.08976 C37.29456,6.54336 37.61208,7.19352 37.61208,8.11584 L37.61208,13.68 Z M35.586,11.15496 L35.586,10.26288 L35.23824,10.26288 C34.9056,10.26288 34.6788,10.26288 34.46712,10.45944 C34.3008,10.61064 34.21008,10.94328 34.21008,11.15496 C34.21008,11.74464 34.48224,12.03192 34.9056,12.03192 C35.26848,12.03192 35.586,11.72952 35.586,11.15496 Z M41.67864,13.68 C40.84704,13.68 40.18176,13.6044 39.59208,13.18104 C39.01752,12.7728 38.65464,12.12264 38.65464,11.06424 L38.65464,2.91456 L40.68072,2.91456 L40.68072,10.92816 C40.68072,11.5632 40.99824,11.8656 41.67864,11.8656 L41.67864,13.68 Z M50.85504,13.68 L48.708,13.68 L48.708,9.17424 L46.92384,9.17424 L46.92384,13.68 L44.7768,13.68 L44.7768,2.91456 L46.92384,2.91456 L46.92384,7.23888 L48.708,7.23888 L48.708,2.91456 L50.85504,2.91456 L50.85504,13.68 Z M57.2652,10.26288 L53.89344,10.26288 C53.89344,10.8072 53.92368,11.44224 54.04464,11.66904 C54.15048,11.85048 54.3168,11.98656 54.57384,11.98656 C54.83088,11.98656 54.96696,11.8656 55.10304,11.66904 C55.16352,11.5632 55.20888,11.29104 55.20888,11.17008 L57.21984,11.17008 C57.17448,11.80512 56.99304,12.546 56.49408,13.10544 C56.04048,13.6044 55.36008,13.80096 54.57384,13.80096 C53.75736,13.80096 53.24328,13.64976 52.66872,13.09032 C51.88248,12.33432 51.86736,10.83744 51.86736,9.61272 C51.86736,8.388 51.88248,6.876 52.66872,6.12 C53.24328,5.56056 53.89344,5.42448 54.57384,5.42448 C55.28448,5.42448 55.9044,5.54544 56.46384,6.12 C57.37104,7.07256 57.25008,8.96256 57.2652,10.26288 Z M55.23912,8.79624 C55.23912,8.25192 55.20888,7.7076 55.10304,7.54128 C54.98208,7.37496 54.83088,7.23888 54.57384,7.23888 C54.3168,7.23888 54.1656,7.37496 54.04464,7.54128 C53.9388,7.7076 53.89344,8.25192 53.89344,8.79624 L55.23912,8.79624 Z M63.20664,13.68 L61.31664,13.68 L61.31664,13.01472 C61.15032,13.21128 60.99912,13.40784 60.78744,13.54392 C60.54552,13.71024 60.3036,13.80096 59.89536,13.80096 C59.13936,13.80096 58.68576,13.58928 58.24728,13.04496 C57.89952,12.6216 57.77856,12.0168 57.77856,11.24568 C57.77856,10.5048 58.05072,9.86976 58.5648,9.43128 C58.97304,9.08352 59.50224,8.85672 60.56064,8.85672 L61.18056,8.85672 L61.18056,7.91928 C61.18056,7.46568 60.95376,7.20864 60.57576,7.20864 C60.36408,7.20864 60.24312,7.28424 60.13728,7.4052 C60.01632,7.5564 59.95584,7.73784 59.95584,7.96464 L57.92976,7.96464 C57.92976,7.29936 58.14144,6.69456 58.67064,6.15024 C59.07888,5.742 59.85,5.42448 60.56064,5.42448 C61.25616,5.42448 61.95168,5.60592 62.43552,6.08976 C62.88912,6.54336 63.20664,7.19352 63.20664,8.11584 L63.20664,13.68 Z M61.18056,11.15496 L61.18056,10.26288 L60.8328,10.26288 C60.50016,10.26288 60.27336,10.26288 60.06168,10.45944 C59.89536,10.61064 59.80464,10.94328 59.80464,11.15496 C59.80464,11.74464 60.0768,12.03192 60.50016,12.03192 C60.86304,12.03192 61.18056,11.72952 61.18056,11.15496 Z M67.2732,13.68 C66.4416,13.68 65.77632,13.6044 65.18664,13.18104 C64.61208,12.7728 64.2492,12.12264 64.2492,11.06424 L64.2492,2.91456 L66.27528,2.91456 L66.27528,10.92816 C66.27528,11.5632 66.5928,11.8656 67.2732,11.8656 L67.2732,13.68 Z M71.3397599,13.68 C70.5081599,13.68 69.8428799,13.6044 69.2531999,13.18104 C68.6786399,12.7728 68.3157599,12.12264 68.3157599,11.06424 L68.3157599,7.39008 L67.5597599,7.39008 L67.5597599,5.86296 L68.3157599,5.86296 L68.3157599,3.64032 L70.3418399,3.64032 L70.3418399,5.86296 L71.3397599,5.86296 L71.3397599,7.39008 L70.3418399,7.39008 L70.3418399,10.92816 C70.3418399,11.5632 70.6593599,11.8656 71.3397599,11.8656 L71.3397599,13.68 Z M77.3719199,13.68 L75.3458399,13.68 L75.3458399,7.97976 C75.3458399,7.4808 75.0736799,7.23888 74.7107999,7.23888 C74.3479199,7.23888 74.0757599,7.4808 74.0757599,7.97976 L74.0757599,13.68 L72.0496799,13.68 L72.0496799,2.91456 L74.0757599,2.91456 L74.0757599,6.02928 C74.2269599,5.86296 74.3932799,5.72688 74.5747199,5.62104 C74.8015199,5.50008 75.0887999,5.42448 75.3458399,5.42448 C76.0867199,5.42448 76.5251999,5.63616 76.9183199,6.10488 C77.2358399,6.498 77.3719199,6.93648 77.3719199,7.94952 L77.3719199,13.68 Z M87.7730399,13.68 L85.5352799,13.68 L85.1875199,12.00168 L82.7078399,12.00168 L82.3600799,13.68 L80.1223199,13.68 L82.8892799,2.91456 L85.0060799,2.91456 L87.7730399,13.68 Z M84.7792799,10.06632 L83.9476799,6.07464 L83.1160799,10.06632 L84.7792799,10.06632 Z M91.4313599,13.68 C90.5997599,13.68 89.9344799,13.6044 89.3447999,13.18104 C88.7702399,12.7728 88.4073599,12.12264 88.4073599,11.06424 L88.4073599,7.39008 L87.6513599,7.39008 L87.6513599,5.86296 L88.4073599,5.86296 L88.4073599,3.64032 L90.4334399,3.64032 L90.4334399,5.86296 L91.4313599,5.86296 L91.4313599,7.39008 L90.4334399,7.39008 L90.4334399,10.92816 C90.4334399,11.5632 90.7509599,11.8656 91.4313599,11.8656 L91.4313599,13.68 Z M95.1350399,13.68 C94.3034399,13.68 93.6381599,13.6044 93.0484799,13.18104 C92.4739199,12.7728 92.1110399,12.12264 92.1110399,11.06424 L92.1110399,2.91456 L94.1371199,2.91456 L94.1371199,10.92816 C94.1371199,11.5632 94.4546399,11.8656 95.1350399,11.8656 L95.1350399,13.68 Z M100.87992,13.68 L98.9899199,13.68 L98.9899199,13.01472 C98.8235999,13.21128 98.6723999,13.40784 98.4607199,13.54392 C98.2187999,13.71024 97.9768799,13.80096 97.5686399,13.80096 C96.8126399,13.80096 96.3590399,13.58928 95.9205599,13.04496 C95.5727999,12.6216 95.4518399,12.0168 95.4518399,11.24568 C95.4518399,10.5048 95.7239999,9.86976 96.2380799,9.43128 C96.6463199,9.08352 97.1755199,8.85672 98.2339199,8.85672 L98.8538399,8.85672 L98.8538399,7.91928 C98.8538399,7.46568 98.6270399,7.20864 98.2490399,7.20864 C98.0373599,7.20864 97.9163999,7.28424 97.8105599,7.4052 C97.6895999,7.5564 97.6291199,7.73784 97.6291199,7.96464 L95.6030399,7.96464 C95.6030399,7.29936 95.8147199,6.69456 96.3439199,6.15024 C96.7521599,5.742 97.5232799,5.42448 98.2339199,5.42448 C98.9294399,5.42448 99.6249599,5.60592 100.1088,6.08976 C100.5624,6.54336 100.87992,7.19352 100.87992,8.11584 L100.87992,13.68 Z M98.8538399,11.15496 L98.8538399,10.26288 L98.5060799,10.26288 C98.1734399,10.26288 97.9466399,10.26288 97.7349599,10.45944 C97.5686399,10.61064 97.4779199,10.94328 97.4779199,11.15496 C97.4779199,11.74464 97.7500799,12.03192 98.1734399,12.03192 C98.5363199,12.03192 98.8538399,11.72952 98.8538399,11.15496 Z M107.0028,11.1852 C107.0028,12.07728 106.65504,12.68208 106.23168,13.12056 C105.70248,13.64976 105.05232,13.80096 104.32656,13.80096 C103.6008,13.80096 102.8448,13.55904 102.3912,13.09032 C101.92248,12.59136 101.6352,12.04704 101.62008,11.23056 L103.61592,11.23056 C103.63104,11.45736 103.70664,11.6388 103.8276,11.75976 C103.94856,11.89584 104.14512,11.97144 104.32656,11.97144 C104.53824,11.97144 104.6592,11.9412 104.8104,11.80512 C104.91624,11.7144 104.97672,11.51784 104.97672,11.35152 C104.97672,11.1852 104.94648,11.04912 104.84064,10.89792 C104.71968,10.74672 104.53824,10.64088 104.31144,10.55016 L103.17744,10.11168 C102.60288,9.88488 102.17952,9.58248 101.92248,9.17424 C101.74104,8.87184 101.65032,8.50896 101.65032,8.04024 C101.65032,7.16328 101.9376,6.63408 102.3912,6.16536 C102.87504,5.6664 103.58568,5.42448 104.31144,5.42448 C105.02208,5.42448 105.70248,5.6664 106.15608,6.08976 C106.59456,6.51312 106.91208,7.08768 106.91208,7.91928 L104.93136,7.91928 C104.93136,7.7076 104.87088,7.52616 104.76504,7.4052 C104.64408,7.28424 104.47776,7.20864 104.31144,7.20864 C104.11488,7.20864 103.94856,7.28424 103.84272,7.39008 C103.72176,7.49592 103.6764,7.64712 103.6764,7.84368 C103.6764,7.99488 103.70664,8.10072 103.78224,8.20656 C103.87296,8.35776 104.0544,8.47872 104.29632,8.56944 L105.4152,8.9928 C105.98976,9.20448 106.36776,9.47664 106.63992,9.85464 C106.8516,10.14192 107.0028,10.5804 107.0028,11.1852 Z"/>
      <g transform="matrix(0 1 1 0 .344 .344)">
        <polygon fill="#6A1B9A" points="0 .031 2.631 .031 2.631 4.05 0 4.05"/>
        <polygon fill="#D84315" points="2.627 .031 5.258 .031 5.258 4.05 2.627 4.05"/>
        <polygon fill="#0097A7" points="5.254 .031 7.885 .031 7.885 4.049 5.254 4.049"/>
        <polygon fill="#FAA806" points="7.881 .031 10.512 .031 10.512 4.05 7.881 4.05"/>
        <polygon fill="#558B2F" points="10.508 .031 13.139 .031 13.139 4.05 10.508 4.05"/>
        <polygon fill="#5D4037" points="13.135 .031 15.766 .031 15.766 4.05 13.135 4.05"/>
      </g>
    </g>
    <g fill="#008DC9">
      <path d="M16.4680612 8.68523077L16.4680612 8.58553846 16.4104126 8.66039161 16.4269075 8.75169231 16.4680612 8.68523077zM16.4269075 9.16674126L16.4680612 9.19141259 16.5175457 9.11706294 16.591689 8.98413986 16.5505353 8.99236364 16.484556 9.02542657 16.4515664 8.8346014 16.4104126 8.86783217 16.4434023 8.98413986 16.4020819 9.07527273 16.3444334 9.05882517 16.27029 9.1085035 16.2784541 9.23303497 16.4269075 9.16674126zM16.6493376 8.71006993L16.7483065 8.78475524 16.8636036 8.75991608 16.7731321 8.73490909 16.7483065 8.63538462 16.7483065 8.56053147 16.6986554 8.46923077 16.6328428 8.49423776 16.6000198 8.46923077 16.5008842 8.56053147 16.6576683 8.64360839 16.6493376 8.71006993zM17.4569173 7.97127273L17.5393914 8.05418182 17.5805451 8.04579021 17.646691 8.08741259 17.6301962 8.03756643 17.4650814 7.92142657 17.358115 7.82173427 17.4074328 7.97127273 17.4569173 7.97127273zM16.1053418 9.37401399L16.1464955 9.2911049 15.9652191 9.2994965 15.882745 9.35756643 15.9735498 9.3907972 16.1053418 9.37401399zM18.0257386 9.3907972L18.099882 9.52372028 18.0752231 9.5733986 18.1410358 9.79745455 18.1986843 9.81423776 18.1986843 9.5733986 18.1327051 9.49032168 18.1080461 9.24142657 17.9932489 8.93966434 17.9695896 8.99337063 18.0009131 9.16674126 18.0257386 9.3907972zM17.5477221 8.20355245L17.6795141 8.41116084 17.7619882 8.45261538 17.6218655 8.21194406 17.5477221 8.20355245zM17.9186056 8.78475524L17.9680901 8.80959441 17.8442956 8.56053147 17.778483 8.54408392 17.8442956 8.652 17.9186056 8.78475524zM16.4915538 6.9673007C16.4848893 6.98458741 16.4792244 7.00254545 16.4722266 7.01983217L16.5340405 7.06632168 16.6000198 7.04148252 16.4915538 6.9673007zM5.52249888 15.6356643L5.51350171 15.5552727 5.42502949 15.4481958 5.37187952 15.4661538 5.46934891 15.591021 5.46051835 15.6266014 5.54016 15.7158881 5.59314336 15.8318601 5.63762939 15.8139021 5.59314336 15.7158881 5.52249888 15.6356643zM16.7246473 4.72053147L16.8171182 4.78833566 17.0357163 4.86453147 17.1113592 4.99997203 17.170174 4.99997203 17.1535126 4.85597203 17.0860338 4.80511888 17.1030284 4.72892308 16.9685707 4.66984615 16.9179199 4.72053147 16.8507743 4.68662937 16.8844304 4.61043357 16.7246473 4.72053147zM14.0366582 17.7008392L14.0443224 17.705035C14.0431561 17.7008392 14.0416566 17.696979 14.0404903 17.6931189L14.0366582 17.7008392zM20.7707099 14.8164755C20.3321809 15.8600559 19.705711 16.7982378 18.9089613 17.6055105L17.7563233 16.4442797C18.4032867 15.7880559 18.9122935 15.0257622 19.268515 14.1772028 19.6267358 13.3241119 19.8131773 12.4194965 19.8270063 11.4878601L21.4571609 11.4878601C21.443332 12.6415385 21.213904 13.760979 20.7707099 14.8164755zM17.5212304 16.2074685L17.5310607 16.1485594 17.6135348 16.0737063 17.5393914 15.7001119 17.5557196 15.6004196 17.4734121 15.4428252 17.4239277 15.392979 17.4734121 15.3847552 17.4074328 15.2934545 17.2508154 15.2852308 17.2508154 15.4095944 17.1933334 15.4592727 17.2344872 15.5591329 17.1683413 15.749958 17.1190234 15.7831888 17.1380175 15.8216224 16.4985516 15.1774825C17.4737453 14.1857622 18.0207402 12.8803636 18.0482316 11.4878601L19.7030452 11.4878601C19.6752206 13.3254545 18.9564463 15.0494266 17.6686841 16.3561678L17.5212304 16.2074685zM16.3577625 17.4012587L16.3607616 17.3937063 16.4185767 17.294014 16.3607616 17.1446434 16.5751942 16.962042 16.5585328 16.8373427 16.4020819 16.7546014 16.5585328 16.4474685 16.7398092 16.1485594 16.5257098 15.8827133 16.4513998 15.9077203 16.3525975 15.8827133 16.2619593 15.6834965 16.2208055 15.7001119 16.27029 15.5091189 16.3017801 15.3642797C16.3379354 15.3312168 16.3744239 15.2986573 16.4095796 15.2645874L17.1233554 15.9832448 17.1273541 15.9906294 17.1316861 15.991972 17.5797121 16.4429371C17.2041633 16.8111608 16.7939588 17.1305455 16.3577625 17.4012587zM16.1713211 14.5296503L15.8974071 14.7474965 15.8580861 14.7785455 15.8334272 14.7370909 15.7014686 14.7370909 15.5118615 14.7785455 15.3305851 14.704028 15.2399469 14.704028 15.0998243 14.5957762 15.0093527 14.6043357 14.9268786 14.5296503 14.79492 14.5210909 14.7289407 14.429958 14.6712922 14.4074685C14.6752909 14.404951 14.6792897 14.4022657 14.683455 14.3992448L14.7619304 14.4131748 14.7619304 14.3717203 14.9515375 14.4052867 15.0175168 14.4465734 15.2234521 14.4798042 15.2399469 14.5296503 15.4047285 14.5296503 15.6273253 14.5957762 15.6909719 14.702014 15.8250965 14.6956364 15.9240654 14.5877203 16.0063729 14.4215664 16.1300007 14.0978182 16.1053418 14.0399161 16.1629904 13.9815105 16.2126414 13.7824615 16.1794852 13.6992168 16.2208055 13.6329231 16.1629904 13.5582378 16.1464955 13.359021 16.0063729 13.3920839 15.9240654 13.5085594 15.8004376 13.5001678 15.8167658 13.6495385 15.7179635 13.7742378 15.6354894 13.7327832 15.561346 13.7987413 15.3717389 13.8156923 15.3640746 13.8088112C15.4055616 13.7623217 15.4458822 13.7146573 15.4850366 13.6661538L15.5695101 13.6661538 15.6614812 13.6495385 15.7509531 13.550014 15.7676145 13.4711329 15.8580861 13.4669371 16.0310318 13.2096503 16.1713211 12.9105734 16.542038 12.7365315 16.5338739 12.6366713 16.484556 12.586993 16.5092149 12.5537622 16.6246787 12.6116643 16.8717677 12.6616783 17.0697056 12.5787692 17.3911046 12.5121399 17.3084639 12.2796923 17.1683413 12.1387133 16.9953956 12.1304895 16.7729654 11.5907413 16.7398092 11.6155804 16.6575017 11.5492867 16.723481 11.5076643 16.7198155 11.4878601 17.9242705 11.4878601C17.8966125 12.8467972 17.3627802 14.120979 16.4109125 15.089035L16.3747572 15.0527832 16.3855871 15.010993 16.4267408 14.8035524 16.3855871 14.4798042 16.3114437 14.2888112 16.2619593 14.3384895 16.1713211 14.4714126 16.1713211 14.5296503zM15.1246498 9.8473007L15.2646058 9.79745455 15.108155 9.68970629 15.1987932 9.58179021 15.1822984 9.52372028 15.3305851 9.45725874 15.1906291 9.2911049 15.0256809 9.44064336 15.0008553 9.54839161 14.8938889 9.49854545 14.7784252 9.5154965 14.7456022 9.44064336 14.7444359 9.44030769 15.0115187 9.17144056 15.0341782 9.19997203 15.2647725 9.2081958 15.3432478 9.11337063C15.4540463 9.24495105 15.5551812 9.38525874 15.6461527 9.53244755L15.6438201 9.53194406 15.5283563 9.78083916 15.3470799 9.68131469 15.2977621 9.68970629 15.3470799 9.78923077 15.4047285 9.83085315 15.3470799 9.97183217 15.322421 9.90553846 15.1246498 9.8473007zM15.1218174 9.06016783L15.2139551 8.96735664C15.2476112 9.0031049 15.2802676 9.03969231 15.3124242 9.07678322L15.2069573 9.16674126 15.1164857 9.15834965 15.0834961 9.12511888 15.1576394 9.07527273 15.1218174 9.06016783zM16.4572313 7.71516084C16.5808591 7.84422378 16.6968227 7.97865734 16.8057885 8.11762238L16.7399758 8.15387413 16.6658324 8.17048951 16.7812962 8.20355245 16.8352792 8.1568951C16.8870963 8.22386014 16.9367473 8.29216783 16.9850655 8.36148252L16.9295829 8.36148252 16.9295829 8.39454545 16.9873981 8.41116084 17.1601772 8.68523077 17.2084953 8.70956643C17.2288223 8.74447552 17.2478163 8.78005594 17.2674768 8.8153007L17.2674768 8.9259021 17.1520131 9.05043357 17.11919 8.95913287 17.0202211 8.94251748 17.0615415 9.05043357 16.9873981 9.12511888 17.1685079 9.19141259 17.2428179 9.2994965 17.3911046 9.34095105 17.3994354 9.40741259 17.5312273 9.44064336 17.5558862 9.64808392 17.6353613 9.63667133C17.68168 9.77093706 17.7220007 9.90721678 17.7576562 10.0453427L17.7536574 10.0466853 17.6711833 10.1878322 17.5557196 10.2459021 17.4734121 10.4867413 17.2591461 10.6112727 17.1850027 10.4781818 17.250982 10.162993 17.3497843 10.0881399 17.0200545 9.83085315 16.8469422 9.92232168 16.6904913 10.2459021 16.5257098 10.1546014 16.4762253 10.0218462 16.5668635 9.98039161 16.6080172 10.0384615 16.6821606 10.0134545 16.6575017 9.91376224 16.5503687 9.8806993 16.5585328 9.94699301 16.484556 9.94699301 16.4020819 9.82262937 16.2126414 9.63163636 15.9900447 9.47387413 15.7839427 9.45725874 15.7631159 9.48595804C15.6303243 9.26777622 15.4758728 9.06402797 15.3015942 8.87924476L16.4572313 7.71516084zM17.2839716 8.56892308L17.2803061 8.5888951C17.2734749 8.57765035 17.2664771 8.56640559 17.2596459 8.55532867L17.2839716 8.56892308zM16.9542418 10.8601678L17.1850027 10.7107972 17.4650814 10.6857902 17.5393914 10.528028 17.6300296 10.4781818 17.7536574 10.2625175 17.7839812 10.1515804C17.7936449 10.1921958 17.8023088 10.2331469 17.8109728 10.2739301L17.7619882 10.4036643 17.778483 10.4368951 17.7125037 10.5696503 17.7206678 10.6361119 17.5890425 10.8188811 17.6135348 10.9348531 17.6630192 10.9432448 17.7949778 10.7356364 17.7949778 10.6112727 17.8609571 10.5944895 17.8676216 10.5840839C17.9056097 10.8396923 17.92577 11.0998322 17.9264365 11.362993L16.6809943 11.362993 16.6493376 11.3415105 16.6575017 11.241986 16.7646347 11.2003636 16.8469422 11.0842238 17.0447134 11.0593846 17.0447134 10.9764755 16.9542418 10.8601678zM16.5487025 7.62302098L16.6904913 7.78027972 16.7648013 7.54783217 16.6493376 7.53121678 16.6493376 7.52165035 17.0095578 7.15862937 17.2459835 7.40567832 17.4729123 7.38872727 17.5485552 7.51594406 17.5740472 7.71062937 18.0279046 7.98184615 18.1541983 7.9648951 18.4569366 8.31213986 18.5242487 8.48987413 18.7343494 8.71023776 18.9782728 8.70167832 19.0864055 8.47141259C19.4889458 9.36881119 19.7032118 10.3491189 19.7053778 11.362993L18.0505642 11.362993C18.0497311 11.0464615 18.0205736 10.7344615 17.9670904 10.4291748L18.0422335 10.3123636 18.0833872 10.3123636 18.1740254 9.92232168 18.1080461 9.90553846 18.124541 9.83924476 17.9597594 9.8473007 17.9267697 9.80584615 17.8939467 9.8806993 17.9925824 9.96360839 17.9186056 9.98844755 17.890781 10.0622937C17.8511268 9.90268531 17.8046414 9.74509091 17.750825 9.59051748L17.8442956 9.44886713 17.8196367 9.28288112 17.7373292 9.26626573 17.7043396 9.08366434 17.7536574 9.04220979 17.6630192 8.91767832 17.5065684 8.93412587 17.4542515 8.89904895C17.4199289 8.83258741 17.3837736 8.76696503 17.3467852 8.70167832L17.5065684 8.70167832 17.4735787 8.61876923 17.5805451 8.58553846 17.5805451 8.50246154 17.5065684 8.49423776 17.3994354 8.57731469 17.3662791 8.54408392 17.4569173 8.40293706 17.3827739 8.35309091 17.2923023 8.48601399 17.1825035 8.43062937C17.0953642 8.29636364 17.0015603 8.16579021 16.9019249 8.03874126L16.9047574 8.0045035 16.8905952 8.02363636C16.7822958 7.88668531 16.6671653 7.75426573 16.5447038 7.62688112L16.5487025 7.62302098zM18.95528 5.19868531C19.7297035 5.99504895 20.3410115 6.91577622 20.7707099 7.93888112 21.2260669 9.02341259 21.4576608 10.1755804 21.4594935 11.362993L19.8293389 11.362993C19.8275061 10.3972867 19.6390653 9.46027972 19.268515 8.57815385 19.2326929 8.49255944 19.194205 8.40864336 19.1550506 8.3248951L19.1970374 8.23594406 19.2895084 8.29518881 19.3229979 8.19348252 18.7763362 7.29574825 18.6587065 7.26184615 17.8512934 6.32987413 17.8507936 6.31141259 18.95528 5.19868531zM4.60845262 14.8164755C4.16525848 13.760979 3.93566392 12.6415385 3.92183493 11.4878601L5.55215623 11.4878601C5.56281955 12.2155804 5.68044927 12.926014 5.90137988 13.6090909L5.77908496 13.6911608 5.46051835 13.5125874 5.38954064 13.5840839 5.30106842 13.5392727 5.24791845 13.5840839 5.28340731 13.6998881 5.09729909 13.6911608 4.99099914 13.6285594 4.99999632 13.5305455 4.97333802 13.4501538 4.92018805 13.4501538 4.92918522 13.5392727 4.92018805 13.592979 4.87603525 13.575021 4.74307701 13.6376224 4.83171583 13.7087832 4.71658533 13.6820979 4.66343535 13.7445315 4.72541589 13.7712168 4.64560762 13.7712168 4.64560762 13.904979 4.68126309 13.9766434 4.72541589 14.0120559 4.65460479 14.0120559 4.69009365 14.128028 4.76090474 14.1547133 4.78606351 14.1991888 4.83171583 14.2797483 4.85837413 14.3510769 4.69892421 14.2528951 4.76090474 14.4225734 4.65460479 14.1904615 4.65460479 14.3423497 4.75207418 14.573958 4.83171583 14.7703217 5.07963797 15.2610629 5.05314629 15.1627133 4.85837413 14.6899301 4.85837413 14.5116923 4.95584352 14.3510769 5.27441013 14.7345734 5.31872954 14.6991608 5.26557957 14.4581538 5.32772672 14.5026294 5.42502949 14.6723077 5.58447941 14.7167832 5.65529051 14.8238601 5.71727104 14.8327552 5.66428768 14.6991608 5.71727104 14.6276643 5.77042102 14.8147972 5.88538491 15.0020979 5.99185147 14.9844755 6.27509585 15.4661538 6.43437915 15.5106294 6.47886518 15.3146014 6.5406791 15.3946573 6.77993729 15.7425734 7.07851018 15.822965C7.24679066 16.0376224 7.42606769 16.2445594 7.61950694 16.4409231L6.46670233 17.601986C5.67161871 16.7957203 5.04614849 15.8588811 4.60845262 14.8164755zM4.60845262 7.93888112C5.03748454 6.91711888 5.64779286 5.99756643 6.42021693 5.20237762L7.57302154 6.36327273C6.95021714 7.00791608 6.45737193 7.75174825 6.11048088 8.57815385 5.74009721 9.46027972 5.55165639 10.3972867 5.54965702 11.362993L3.91950233 11.362993C3.92150171 10.1755804 4.15292902 9.02341259 4.60845262 7.93888112zM7.33093091 11.4878601C7.33592934 11.7416224 7.35858889 11.9928671 7.39774325 12.2394126L7.31127041 12.1925874 7.31127041 12.3083916 7.24895665 12.2817063 7.19613991 12.1925874 7.07201222 12.245958 7.0543511 12.3532028 6.77094012 12.7900699 6.69129846 12.808028 6.65597622 13.5392727 6.45220689 13.6376224 6.39022635 13.6106014 6.29275696 13.6552448 6.06249595 13.6376224 6.03800364 13.627049C5.81174137 12.944979 5.68728046 12.225986 5.6761173 11.4878601L7.33093091 11.4878601zM8.91859893 7.71868531L10.074236 8.88276923C9.80781965 9.1659021 9.58622259 9.49183217 9.42060793 9.84931469L9.35662803 9.83773427 9.409778 9.76640559 9.27698637 9.88237762 9.17068643 9.95370629 9.14402813 9.90906294 8.95825314 9.98055944 8.9670837 10.0517203 9.06438648 9.98928671 9.23266696 9.98055944 9.38128695 9.93960839C9.37328946 9.95806993 9.36495874 9.97636364 9.35729448 9.99499301L9.16185587 10.1321119 9.11753645 10.0873007 8.88727544 10.256979 8.6835061 10.2212308 8.55088109 10.3818462 8.34727837 10.8368392 8.38260061 10.9617063 8.21432013 11.1845874 8.18782845 11.3540979 8.18549585 11.362993 7.45255937 11.362993C7.45622489 9.99213986 7.97622824 8.70302098 8.91859893 7.71868531zM9.4980836 9.98206993C9.50808046 9.95907692 9.51757748 9.93608392 9.52790757 9.91342657L9.56023075 9.90906294 9.52490851 9.98055944 9.4980836 9.98206993zM9.71984728 12.1301538L9.88779454 12.2013147 10.0030917 12.343972 10.056075 12.3083916 10.2510138 12.4334266 10.3218249 12.5227133 10.1888666 12.469007 10.1625416 12.5227133 10.2776721 12.584979 10.4014665 12.6833287 10.4014665 12.6205594 10.3749749 12.5227133 10.4281248 12.4334266 10.490272 12.3976783 10.3661443 12.245958 10.5079331 12.3174545 10.5964053 12.4334266 10.6583859 12.5938741 10.7823469 12.6205594 10.516597 12.6652028 10.6140664 12.8793566 10.7025386 12.8882517 10.7201998 12.798965 10.6938747 12.6920559 10.8088386 12.6833287 10.8974774 12.5314406 10.9327997 12.3083916 10.9947802 12.2817063 11.0500962 12.1937622C11.134403 12.3652867 11.2428689 12.5227133 11.3738278 12.658993L10.2081939 13.8331469C9.69952033 13.312028 9.35246267 12.6316364 9.24549626 11.874042L9.31230861 11.8804196 9.53373907 12.1033007 9.71984728 12.1301538zM8.48006999 11.2292308L8.52422279 10.9346853 8.76331437 10.8098182 9.04672536 10.8811469 9.10604006 10.9899021C9.09287753 11.1124196 9.08571311 11.2371189 9.08504666 11.362993L8.64951678 11.362993 8.64818386 11.3272448 8.48006999 11.2292308zM8.96508433 15.0855105C8.86261651 14.9811189 8.76581358 14.8723636 8.6730094 14.7610909L8.67484216 14.7612587 8.72782552 14.573958 8.71899496 14.3598042 8.55088109 14.0655944 8.55088109 13.7623217 8.48890055 13.5662937 8.53305335 13.4859021 8.35594231 13.1646713 8.37377005 13.0488671 8.27613405 12.8613986 8.17899789 12.8347133 8.33828119 12.808028 8.29412839 12.7455944 8.18782845 12.5134825 8.00188684 12.4599441 8.04620626 12.3083916 7.97522855 12.0677203 8.06386738 11.8624615 8.28513122 11.8446713 8.34727837 11.7377622 8.32461882 11.4878601 8.46474148 11.4878601 8.55088109 11.5145455 8.65718104 11.5682517 8.65418198 11.4878601 9.08754587 11.4878601C9.09087816 11.6004755 9.09970872 11.7114126 9.11303786 11.821007L9.10887251 11.8267133 9.0112365 11.817986 8.86961432 11.9786014 8.993742 12.0052867 9.12769993 11.9242238C9.24383012 12.6959161 9.60071803 13.3890629 10.1205548 13.9215944L8.96508433 15.0855105zM8.84878752 15.2024895L8.78164195 15.0715804C8.81346529 15.1056503 8.84462217 15.1403916 8.87727858 15.173958L8.84878752 15.2024895zM8.41792285 14.7612587L8.40026173 14.7167832 8.48873394 14.7312168C8.50622845 14.7532028 8.52288988 14.7756923 8.54071761 14.7973427L8.41792285 14.7612587zM7.8955869 12.4065734L7.7096453 12.4512168 7.62983703 12.370993 7.57668705 12.3352448 7.52853551 12.2702937C7.4853824 12.0138462 7.46022363 11.7525315 7.45489197 11.4878601L8.15283943 11.4878601 8.14350903 11.5236084 8.04620626 11.6931189 7.98405911 11.7018462 7.86909522 12.0766154 7.97522855 12.245958 7.8955869 12.4065734zM7.70697947 16.3524755C7.58351824 16.2269371 7.46672159 16.0963636 7.35359046 15.9632727L7.46172316 16.0100979 7.56802311 15.9476643 7.86009804 16.134965 7.9084162 16.1497343 7.70697947 16.3524755zM20.8848407 7.89020979C20.4368147 6.82346853 19.7955161 5.86514685 18.9787727 5.04226573 18.1620292 4.21972028 17.2108279 3.57373427 16.1516606 3.12243357 15.3134238 2.76545455 14.4351997 2.54408392 13.5318167 2.45899301 13.5246523 2.50363636 13.5188208 2.54492308 13.5141556 2.58268531 14.4070418 2.66626573 15.2751025 2.88444755 16.1031758 3.2373986 17.1381841 3.67829371 18.0682253 4.30833566 18.8686406 5.10923077L17.8454619 6.14022378 17.8429627 6.06721678 17.7589891 6.07577622 17.6581874 6.02492308 17.5065684 5.98262937 17.7168357 5.9488951 17.6748489 5.88948252 17.5570525 5.88948252 17.5907086 5.7965035 17.4897403 5.54223776 17.2206582 5.21177622 16.9599067 5.04226573 16.8171182 4.95767832 16.7078192 4.98318881 16.7078192 4.91538462 16.4555651 4.80511888 16.3560964 4.8986014C16.5412049 5.21597203 16.6363417 5.54257343 16.6530031 5.83376224 16.6658324 6.05731469 16.6555023 6.27012587 16.6233458 6.47303497L16.7078192 6.42318881 16.9769014 6.91443357 16.7917929 6.93138462 16.9234182 7.06883916 16.6110163 7.38352448 16.4515664 7.18262937 16.4663951 7.03241958C16.4234086 7.13597203 16.373091 7.236 16.3159423 7.3325035L16.3361026 7.37345455 16.5340405 7.39846154 16.5533677 7.44159441 16.458231 7.53742657C16.402915 7.48254545 16.3464327 7.42934266 16.2891174 7.37697902 16.2669577 7.41255944 16.2434651 7.44746853 16.2191394 7.48220979 16.27029 7.52937063 16.3211074 7.57653147 16.3705918 7.62587413L15.2147882 8.78995804C15.1201512 8.69597203 15.0198494 8.6081958 14.9153822 8.52528671 14.8730621 8.54492308 14.8302423 8.56422378 14.7867559 8.58268531 14.906385 8.67398601 15.0205158 8.77233566 15.1274822 8.87823776L14.9783624 9.02811189 14.976363 9.02542657 15.001022 8.94251748 14.8855582 8.97574825 14.762097 8.95913287 14.762097 8.85960839 14.6301384 8.94251748 14.4900158 9.07527273 14.5561617 9.11706294 14.6961177 9.02542657 14.8362404 9.07527273 14.8362404 9.10027972 14.9303775 9.07644755 14.606979 9.40220979 14.2262653 9.48226573 14.1191323 9.62341259 14.0451555 9.67309091 14.0366582 9.74777622 14.0943067 9.73938462 14.1521219 9.78923077 14.1401257 9.87213986 14.1123011 9.9005035 14.0201633 9.8806993 13.801732 9.9151049C13.7597451 9.88254545 13.716592 9.85132867 13.6717728 9.82262937L13.6574439 9.80584615 13.5957966 9.77714685C13.5193206 9.73283916 13.4388459 9.69558042 13.3560386 9.66251748L13.3497073 10.1353007C13.3473747 10.285007 13.3448754 10.4256503 13.3427095 10.5622657L13.3936934 10.5364196 13.4380129 10.5797203 13.3407101 10.6775664C13.339877 10.7393287 13.3388773 10.7982378 13.3378776 10.8571469L13.5223197 10.6713566 13.4844983 10.8022657 13.5386479 10.8212308 13.5776357 11.0211189 13.6822695 11.1258462 13.4350138 10.9929231 13.4155199 11.0877483C13.7382519 11.2198322 14.17928 11.4153566 14.5368344 11.6857343 15.0781644 12.0950769 15.356577 12.6625175 15.2814339 13.2039441 15.2271176 13.594993 15.0021883 13.9284755 14.6361366 14.1723357L14.6464666 14.2141259 14.5724899 14.3054266 14.4405313 14.322042 14.3910469 14.4052867 14.1354605 14.513035 13.9048662 14.5046434 13.8387203 14.6043357 13.8800407 14.670965 13.8792076 14.6716364C13.8482174 14.683049 13.8170605 14.6937902 13.785737 14.7043636L13.6244543 14.7204755 13.5834672 14.6541818 13.4021908 14.679021 13.3996916 14.6781818C13.3655356 14.6899301 13.3330458 14.7015105 13.3000562 14.7132587L13.2993897 14.8421538C13.2993897 14.8804196 13.2917255 15.173958 13.2797292 15.5935385 13.8657119 15.8890909 14.5918171 16.3744615 14.5609935 17.6610629 14.5609935 17.6610629 14.5476643 17.8953566 14.480852 18.065035L14.4818517 18.0662098 14.7351055 18.1402238C14.2379283 18.2922797 13.7217571 18.388951 13.1940895 18.4265455 13.1927565 18.469007 13.191257 18.5116364 13.1900907 18.5520839 13.7454163 18.5134825 14.2894121 18.4109371 14.8169131 18.2451189L14.9268786 18.2822098 15.0420091 18.3815664 15.1836313 18.3265175 15.4047285 18.2736503 15.4955333 18.1907413 15.742789 18.082993 15.9900447 17.9084476 16.27029 17.6261538 16.2834525 17.5922517C16.783962 17.2975385 17.2473165 16.9434126 17.6675178 16.5313846L18.8201558 17.6924476C18.0305705 18.4706853 17.1176905 19.0856224 16.1031758 19.5177902 15.022182 19.9786573 13.8735427 20.2121119 12.6895812 20.2121119 11.5056198 20.2121119 10.3569805 19.9786573 9.27582007 19.5177902 8.25997245 19.084951 7.3459262 18.469007 6.55534116 17.6894266L7.70814577 16.5281958C8.3487779 17.1572308 9.08854556 17.6546853 9.91028747 18.0047832 10.6470561 18.3186294 11.4226458 18.5012308 12.2208951 18.5529231 12.2197288 18.5121399 12.2183959 18.4701818 12.217063 18.4273846 10.5519193 18.3162797 8.99990673 17.6216224 7.79578491 16.4399161L8.04154106 16.1923636 8.24980898 16.375972 8.6835061 16.3403916 8.86078376 16.1618182 9.09987533 16.1707133 9.32113917 16.1973986 9.43626968 16.1082797 9.42743912 16.0012028 9.30364467 15.8585455 9.15302531 15.5641678 9.00240594 15.5017343 8.90860207 15.318965 8.96608402 15.2610629C9.84564111 16.1176783 10.9654561 16.636951 12.1709108 16.7532587 12.1697445 16.710965 12.1687448 16.6688392 12.1677451 16.6273846 10.9969462 16.5109091 9.90895456 16.0050629 9.05372316 15.1727832L10.2091936 14.0088671C10.5137646 14.3000559 10.8684865 14.5383776 11.2586973 14.7093986 11.2675279 14.6679441 11.2783578 14.6264895 11.2918536 14.5853706 10.9224696 14.4213986 10.5859086 14.1965035 10.2968327 13.9205874L11.4634663 12.7452587C11.6457424 12.9112448 11.8613414 13.0398042 12.0981003 13.1215385L12.0959344 12.9892867C11.8936646 12.9129231 11.7092225 12.7998042 11.5511055 12.6571469L11.6279147 12.5797762 11.6687352 12.5772587 11.7392131 12.5062657 11.8953307 12.5265734 11.9859689 12.4757203 12.086604 12.4651469 12.0831051 12.2565315 11.7270502 12.1395524 11.7140543 12.1513007 11.5681001 12.1766434 11.4624666 12.3236643 11.4173142 12.5111329 11.4191469 12.5227133C11.2743591 12.3599161 11.1600616 12.1702657 11.0850852 11.9611469L11.0957485 11.9069371C10.9892819 11.8584336 10.8908129 11.8065734 10.7995082 11.7511888L10.7201998 11.7911329 10.6317276 11.7377622 10.4989359 11.7911329 10.4281248 11.7285315 10.5079331 11.6484755 10.6132334 11.6271608C10.248348 11.3544336 10.0279172 11.0045035 9.91395299 10.5396084 9.8454745 10.2601678 9.82481432 9.98928671 9.84797371 9.73132867L9.68419182 9.79309091 9.58072431 9.80467133C9.6886904 9.58934266 9.8188162 9.38744056 9.96660312 9.19997203 10.0194199 9.05429371 10.0872319 8.91432168 10.1720386 8.78223776 10.1683731 8.78593007 10.1643743 8.78928671 10.1607088 8.79314685L9.00507177 7.62923077C9.81215163 6.82413986 10.8329977 6.3151049 11.9381506 6.156 11.9376507 6.11471329 11.9369843 6.07275524 11.9361512 6.03062937 10.7985085 6.19090909 9.74733865 6.71286713 8.91743263 7.54078322L8.63752054 7.25882517C8.63718732 7.25983217 8.63652086 7.26083916 8.63618763 7.26151049 8.61386131 7.30732867 8.59670003 7.34676923 8.58303766 7.3805035L8.83095979 7.63040559C7.86526309 8.63840559 7.33226382 9.95874126 7.3285983 11.362993L5.6737847 11.362993C5.67761683 9.51365035 6.38272871 7.77474126 7.66066068 6.45172028L8.11585105 6.91006993C8.14717455 6.91393007 8.18299663 6.91594406 8.2198184 6.91292308 8.24164488 6.91124476 8.26330474 6.90772028 8.28463138 6.90335664L7.74730014 6.3620979C8.10718711 6.0020979 8.49973049 5.68808392 8.9170994 5.41871329 8.94092525 5.34772028 8.97274859 5.27806993 9.01206958 5.21144056 8.52255665 5.508 8.07019872 5.8633007 7.65966099 6.27381818L6.50685639 5.11275524C7.30827136 4.31018182 8.23947889 3.6787972 9.27582007 3.2373986 10.0988949 2.8867972 10.9612907 2.66844755 11.8486787 2.58386014L11.8310176 2.46016783C10.9332995 2.54626573 10.0605736 2.76746853 9.2273353 3.12243357 8.16833457 3.57373427 7.21713331 4.21972028 6.40038983 5.04226573 5.58347973 5.86514685 4.94201453 6.82346853 4.49415519 7.89020979 4.03030087 8.99488112 3.79520804 10.168028 3.79520804 11.3775944 3.79520804 12.5871608 4.03030087 13.7603077 4.49415519 14.8651469 4.94201453 15.9318881 5.58347973 16.8898741 6.40038983 17.7127552 7.21713331 18.5356364 8.16833457 19.1816224 9.2273353 19.6329231 10.3239909 20.0998322 11.4889583 20.336979 12.6895812 20.336979 13.8902042 20.336979 15.055005 20.0998322 16.1516606 19.6329231 17.2108279 19.1816224 18.1620292 18.5356364 18.9787727 17.7127552 19.7955161 16.8898741 20.4368147 15.9318881 20.8848407 14.8651469 21.348695 13.7603077 21.5837878 12.5871608 21.5837878 11.3775944 21.5837878 10.168028 21.348695 8.99488112 20.8848407 7.89020979zM17.5393914 12.1053147L17.3086305 12.1885594 17.3662791 12.2796923 17.5312273 12.2963077 17.5393914 12.1053147zM11.2307061 11.965007C11.2063804 11.9552727 11.1818881 11.9448671 11.1580623 11.9347972L11.1453996 12.0945734 11.2307061 11.965007zM11.3426709 12.0088112C11.3058492 11.9952168 11.2695272 11.9811189 11.2343716 11.9666853L11.2428689 12.0677203 11.3426709 12.0088112zM8.4812363 7.27829371C8.48873394 7.22206993 8.49939726 7.17406993 8.5115601 7.13194406L8.43924948 7.05927273C8.38559967 7.07051748 8.33161662 7.0773986 8.27846665 7.07404196L8.4812363 7.27829371zM11.8803354 9.89127273L11.8733376 9.86794406C11.8763367 9.86626573 11.8791691 9.86425175 11.8825014 9.86274126L11.8803354 9.89127273zM11.8715048 9.66822378L11.8816683 9.72411189C11.7718695 9.77882517 11.670568 9.8467972 11.5747647 9.92181818 11.5734318 10.0522238 11.6239159 10.1906853 11.7218852 10.3172308 11.763872 10.3712727 11.81269 10.4177622 11.8748371 10.4617343L12.050282 10.3853706 12.0369529 9.62626573 11.9778048 9.63247552 11.9954659 9.54335664 12.0344537 9.48243357 12.0331208 9.40556643 11.9954659 9.43627972 11.9158243 9.56131469 11.8715048 9.66822378zM13.2460731 16.7428531C13.2460731 16.7445315 13.2460731 16.7458741 13.2460731 16.7477203 13.248739 16.7473846 13.2515714 16.7472168 13.2542372 16.7468811 13.251738 16.7453706 13.248739 16.744028 13.2460731 16.7428531zM8.74548664 12.5403357L8.7101644 12.5671888 8.6835061 12.6027692 8.62169218 12.469007 8.5952005 12.4958601 8.62169218 12.6116643 8.65718104 12.6833287 8.63052274 12.7276364 8.70133384 12.8169231 8.74548664 12.9151049 8.7811421 12.906042 8.78997266 12.7544895 8.75448381 12.6740979 8.74548664 12.5403357zM8.67484216 11.7377622L8.74548664 11.9248951 8.70133384 11.9873287 8.71899496 12.0853427 8.69250328 12.2285035 8.6393533 12.2640839 8.72782552 12.4958601 8.75448381 12.486965 8.72782552 12.2817063 8.79880322 11.9337902 8.74548664 11.7553846 8.67484216 11.7377622zM13.4844983 12.8942937L13.4896633 12.8946294C13.486331 12.8961399 13.4831653 12.8983217 13.4798331 12.9L13.4844983 12.8942937zM13.3856959 13.1681958L13.4021908 13.2344895 13.3945265 13.2648671C13.662609 13.1322797 13.7009303 13.0554126 13.6980978 13.0205035 13.6892673 12.9139301 13.5319833 12.8038322 13.307054 12.6965874 13.3057211 12.7776503 13.3043882 12.8498182 13.3030552 12.9144336L13.3480411 12.9627692C13.3330458 12.9691469 13.3172175 12.9741818 13.3020556 12.9800559 13.3010559 13.0293986 13.3002228 13.0743776 13.2993897 13.1141538 13.3258814 13.1047552 13.3525397 13.0966993 13.3781983 13.0856224L13.3856959 13.1681958zM14.3747187 9.22464336L14.4983465 9.22464336 14.5230054 9.1747972 14.4158724 9.15012587 14.3747187 9.08366434 14.2427601 9.09205594 14.308906 9.18335664 14.308906 9.2911049 14.3747187 9.22464336zM14.1851115 9.37418182L14.1272964 9.41563636 14.1028041 9.38257343 13.9461866 9.64808392 14.0863092 9.62341259 14.0944733 9.52372028 14.2016064 9.41563636 14.2840805 9.34095105 14.234596 9.27465734 14.1851115 9.37418182zM13.6081261 9.26626573L13.4433445 9.27465734 13.3936934 9.35756643 13.3600373 9.35756643 13.3563718 9.6260979 13.5258186 9.54839161 13.6081261 9.26626573zM14.7779254 6.40204196C14.346061 6.21793007 13.8900376 6.0928951 13.4198519 6.02827972 13.4186856 6.07040559 13.4176859 6.11253147 13.4168528 6.15365035 13.8648788 6.21625175 14.299409 6.33524476 14.7114462 6.50895105 14.7359385 6.47353846 14.7585981 6.43795804 14.7779254 6.40204196zM9.81421765 23.9344448L10.4655131 24.0000671C10.4655131 24.0000671 11.2972519 22.1579413 13.3905944 22.0694937 14.7345057 22.0127664 15.9096366 22.6898014 17.341187 22.7945287 19.0603137 22.920235 20.2346116 22.5545287 21.2183026 21.6109762 20.1781293 22.1879832 18.9510147 21.9389203 17.5319604 21.6109762 16.6090836 21.3974937 15.663214 21.308207 14.9617676 21.3152559 11.7056236 21.3478154 9.81421765 23.9344448 9.81421765 23.9344448M19.6402316 17.8524923C19.335494 18.1591217 18.9272888 18.5634294 18.5305801 19.4213874 18.1455344 20.2546741 18.1415356 20.5900028 17.7669866 21.1967161 18.6180526 20.8756531 19.2480214 21.4942825 21.3943473 20.6938909 22.3875354 20.3239888 23.0941468 19.3816112 23.4212108 18.5634294 22.6574506 19.2589259 22.0393114 19.6118769 21.1299304 19.7469818 20.2342117 19.8799049 19.6613916 19.9393175 18.9126268 20.3830657 19.3824792 19.8799049 19.5587572 19.5989538 19.8083455 18.9331636 20.0760947 18.2195413 20.032775 17.6054434 20.3370127 17.0546182 20.1185814 17.3333874 19.9449692 17.5458629 19.6402316 17.8524923"/>
      <path d="M20.7220918,16.7863385 C20.4989952,17.9579748 20.5649745,18.9374434 19.9699947,19.687821 C20.7622459,19.0245483 21.5343367,19.0285762 22.5986691,18.5485762 C23.8681037,17.9200448 24.5383932,16.8202406 24.8899495,15.2201287 C24.6082046,15.9265343 23.8862647,16.5940028 23.0833502,17.0990098 C22.398232,17.5303385 21.6671283,17.7419748 21.1594544,18.3713455 C21.4533621,18.0162126 21.5306712,17.8435133 21.5961506,17.4472615 C21.8022526,16.3622266 21.4600267,15.7471217 21.6221425,14.6144224 C21.456861,15.082842 20.8660466,16.0312615 20.7220918,16.7863385"/>
      <path d="M21.9275965,13.3439664 C21.8461221,15.1807217 22.5925543,15.5575049 22.0553897,17.2469035 C22.5252422,16.5663441 23.0815674,16.3620923 23.8030075,15.7233231 C24.7010588,14.9237706 25.4419928,13.7158825 25.3743473,12.0842182 C25.2052338,12.5405538 24.6695687,13.4154629 24.0820865,14.0369455 C23.4946044,14.6582601 23.000093,15.4025958 22.7455063,15.9153231 C23.3326552,13.8857287 22.2829849,13.1137007 22.1560248,11.8959105 C22.1233684,12.3550993 21.9565874,13.0380084 21.9275965,13.3439664"/>
      <path d="M22.27727,11.2572084 C22.1179867,10.6609007 22.1862986,10.306607 22.0486752,9.6382993 C22.2904326,10.2349427 23.7003231,11.2919497 23.5532026,13.3264112 C23.6325111,12.9534881 23.9210871,11.8238098 24.3317914,11.0338238 C24.6550233,10.4125091 24.982587,9.79253706 24.9044449,8.87382378 C25.2756617,10.0843972 25.2568342,10.7822434 25.095385,11.3887888 C24.9339357,11.9953343 24.5310622,12.4610685 24.1848376,12.9420755 C23.957409,13.258607 23.4750605,13.8763972 23.2449661,14.4510545 C23.2629605,13.2059077 22.4860378,12.0374601 22.27727,11.2572084"/>
      <path d="M21.8284277,8.54010629 C21.5631776,8.0298965 21.4608764,7.60897343 21.1178175,6.96198042 C21.329751,7.23957483 21.5135266,7.38777063 22.0406943,7.83823217 C22.766633,8.45853986 23.3184597,9.15521119 23.6058694,10.3140923 C23.6268628,9.59241399 23.7150018,9.16024615 23.8619557,8.35599441 C23.9939142,7.63112727 23.9592584,6.80186853 23.6265296,5.88533706 C24.268328,6.66726713 24.8203213,8.2077986 24.5077528,9.24332308 C24.2603305,10.2266517 23.8386297,10.7241063 23.7148352,11.4180923 C23.2851368,10.0297846 22.1919802,9.23895944 21.8284277,8.54010629"/>
      <path d="M22.1763017,7.25415944 C21.8550693,6.99401958 21.0503221,6.48884476 20.6564458,6.02277483 C20.2637358,5.55771189 20.0641318,5.11362797 19.7870521,4.70361399 C20.3677031,5.24134825 20.6846036,5.40078881 21.2769176,5.7669986 C21.8137489,6.07580979 22.5398542,6.49186573 22.8335953,7.14573986 C22.657484,6.65466294 22.5695116,6.00397762 22.5105301,5.45634126 C22.4227244,4.64084476 22.0919949,4.14406154 21.8497376,3.84414545 C22.6416556,4.48543217 23.1211717,5.02702657 23.3331051,6.18137622 C23.5448719,7.33589371 23.3036144,8.20811748 23.3844223,8.82993566 C22.964221,7.98993566 22.4973676,7.51463497 22.1763017,7.25415944"/>
      <path d="M22.3197234 6.04826853C21.967334 4.98337343 21.5987831 4.34812867 20.8805087 3.74057622 19.9393043 2.94421259 18.9407846 2.57112168 18.5452422 2.37928951 19.3153336 2.93246434 19.2751796 3.41162517 20.2998577 4.38421259 21.1014393 5.14516364 21.6652623 5.20507972 22.3197234 6.04826853M15.564445 23.9344448L14.9131496 24.0000671C14.9131496 24.0000671 14.0815774 22.1579413 11.9882349 22.0694937 10.644157 22.0127664 9.46919267 22.6898014 8.03764228 22.7945287 6.31834893 22.920235 5.14405107 22.5545287 4.16036002 21.6109762 5.20086656 22.1879832 6.42764793 21.9389203 7.84670225 21.6109762 8.76957907 21.3974937 9.71544867 21.308207 10.416895 21.3152559 13.6732057 21.3478154 15.564445 23.9344448 15.564445 23.9344448M5.73843106 17.8524923C6.0433353 18.1591217 6.45154043 18.5634294 6.84808255 19.4213874 7.23312829 20.2546741 7.23729365 20.5900028 7.61167606 21.1967161 6.76077664 20.8756531 6.13064121 21.4942825 3.98431531 20.6938909 2.99112724 20.3239888 2.28468245 19.3816112 1.9576185 18.5634294 2.72137863 19.2589259 3.33935121 19.6118769 4.24873227 19.7469818 5.14445095 19.8799049 5.71727104 19.9393175 6.46620249 20.3830657 5.99618344 19.8799049 5.82007209 19.5989538 5.57048381 18.9331636 5.30273457 18.2195413 5.34588768 17.6054434 5.0416499 17.0546182 5.26024791 17.3333874 5.43402667 17.5458629 5.73843106 17.8524923"/>
      <path d="M4.6565042,16.7863385 C4.87976741,17.9579748 4.81378813,18.9374434 5.40876793,19.687821 C4.61651676,19.0245483 3.84442591,19.0285762 2.77992691,18.5485762 C1.51065888,17.9200448 0.840369398,16.8202406 0.489146374,15.2201287 C0.770391376,15.9265343 1.49249792,16.5940028 2.2952458,17.0990098 C2.98053057,17.5303385 3.71163429,17.7419748 4.21914156,18.3713455 C3.92540048,18.0162126 3.84825804,17.8435133 3.78261199,17.4472615 C3.57651006,16.3622266 3.91873591,15.7471217 3.75662016,14.6144224 C3.92190158,15.082842 4.51288264,16.0312615 4.6565042,16.7863385"/>
      <path d="M3.45123274,13.3439664 C3.53270715,15.1807217 2.7861083,15.5575049 3.32327293,17.2469035 C2.85342049,16.5663441 2.29709522,16.3620923 1.57565513,15.7233231 C0.677770466,14.9237706 -0.0631634956,13.7158825 0.00431531136,12.0842182 C0.173595479,12.5405538 0.709260576,13.4154629 1.29674273,14.0369455 C1.88422489,14.6582601 2.37873624,15.4025958 2.63315634,15.9153231 C2.04617402,13.8857287 3.09584435,13.1137007 3.22263786,11.8959105 C3.25529428,12.3550993 3.42207523,13.0380084 3.45123274,13.3439664"/>
      <path d="M3.10140927,11.2572084 C3.26069258,10.6609007 3.19254732,10.306607 3.33017076,9.6382993 C3.08824674,10.2349427 1.67852283,11.2919497 1.82547667,13.3264112 C1.74616825,12.9534881 1.45775883,11.8238098 1.04688787,11.0338238 C0.723822669,10.4125091 0.396092266,9.79253706 0.47423439,8.87382378 C0.103017645,10.0843972 0.121845065,10.7822434 0.283294359,11.3887888 C0.444910267,11.9953343 0.847783736,12.4610685 1.19384172,12.9420755 C1.42127029,13.258607 1.90378541,13.8763972 2.1337132,14.4510545 C2.11571885,13.2059077 2.89280812,12.0374601 3.10140927,11.2572084"/>
      <path d="M3.42665712,8.72932028 C3.76538407,8.22599161 3.91783619,7.60904056 4.26089511,6.96204755 C4.04896167,7.23964196 3.86518606,7.38783776 3.33801829,7.8382993 C2.61207962,8.45843916 2.06025294,9.15511049 1.7728432,10.3141594 C1.75168318,9.59231329 1.6635442,9.16031329 1.51692358,8.35589371 C1.38479841,7.63119441 1.41945419,6.80176783 1.75218302,5.88523636 C1.11038459,6.66716643 0.558391293,8.2076979 0.870959791,9.24339021 C1.11821547,10.226551 1.53991636,10.7240056 1.66387743,11.4181594 C2.0935758,10.0298517 2.98346298,9.38772587 3.42665712,8.72932028"/>
      <path d="M3.20252751,7.25415944 C3.52359334,6.99401958 4.32850721,6.48884476 4.72238351,6.02277483 C5.11492689,5.55771189 5.31469748,5.11362797 5.59161051,4.70361399 C5.01095954,5.24134825 4.69405907,5.40078881 4.10191171,5.7669986 C3.56474709,6.07580979 2.83880841,6.49186573 2.54523395,7.14573986 C2.72134531,6.65466294 2.80931768,6.00397762 2.86829915,5.45634126 C2.95593829,4.64084476 3.28666776,4.14406154 3.528925,3.84414545 C2.73700705,4.48543217 2.25749099,5.02702657 2.04572417,6.18137622 C1.83395734,7.33589371 2.07504829,8.20811748 1.99424033,8.82993566 C2.41460831,7.98993566 2.88146168,7.51463497 3.20252751,7.25415944"/>
      <path d="M3.05893928 6.04826853C3.4113286 4.98337343 3.77987952 4.34812867 4.49832054 3.74057622 5.43935833 2.94421259 6.43787805 2.57112168 6.83342049 2.37928951 6.06349564 2.93246434 6.10364969 3.41162517 5.0788049 4.38421259 4.27722332 5.14516364 3.7134004 5.20507972 3.05893928 6.04826853M12.4039876 15.2879664C12.3928244 15.4175329 12.4796305 18.9072671 12.5092879 19.2686098 12.5814319 20.1441902 12.8446825 20.156442 12.9024977 19.3132531 12.9194924 19.063351 13.0397879 14.9573371 13.0397879 14.8119944 12.6729032 14.9279664 12.422815 15.0721343 12.4039876 15.2879664zM13.0451196 13.4169734C13.0496182 13.3820643 13.1031014 9.20958881 13.1064337 9.06642797 12.94815 9.08942098 12.4313124 9.22855385 12.2935223 9.2825958 12.2951884 9.37574266 12.3583353 13.6606657 12.3583353 13.6606657 12.3583353 13.6606657 12.5154526 13.6039385 12.669071 13.5522462 12.8390176 13.5008895 12.9658112 13.4475189 13.0451196 13.4169734zM12.2177128 7.5504C12.4927931 7.46614825 12.8721739 7.4309035 13.1334252 7.33691748 13.1334252 6.98514126 13.2332272 2.85462378 13.2477226 2.63761678 13.2888764 2.02805035 13.870527.378427972 12.6794011.378427972 11.5187656.378427972 12.0327709 2.11800839 12.1250752 2.68326713 12.1605641 2.90010629 12.2177128 7.19140699 12.2177128 7.5504zM16.3937345 5.84891748C16.3437502 4.9829035 15.4886855 3.79398042 13.4771506 3.65736503 13.4696529 3.94486154 13.4614888 4.27196643 13.4531581 4.61165874 13.5836171 4.6276028 13.6922497 4.64774266 13.7662264 4.66536503 14.7282576 4.8952951 15.1437938 5.43655385 15.1489588 5.98603636 15.1541239 6.52276364 14.7095968 7.16069371 13.7174084 7.4549035 13.6211053 7.48343497 13.51064 7.51213427 13.3923439 7.54116923L13.3923439 7.54888951 13.2042363 7.60209231C13.0451196 7.63599441 12.8231893 7.6897007 12.6882317 7.71873566 12.542944 7.74995245 12.3768295 7.7810014 12.263865 7.81591049L11.9649588 7.88858182 11.9647922 7.8864C11.746694 7.9484979 11.5485896 8.01479161 11.3944713 8.0872951 10.3324715 8.58642797 9.92326673 9.48634406 10.1661904 10.4770573 10.3109783 11.0681622 10.644207 11.4899245 11.525097 11.7978965 11.7098723 11.8625119 11.8956473 11.9229315 12.07809 11.9813371L12.0584295 10.8511552C11.8230034 10.7519664 11.6492247 10.6485818 11.5170995 10.4778965 11.170375 10.0297846 11.2276904 9.39672168 12.0276058 9.09613427L12.0276058 9.09328112 12.0680931 9.08086154C12.0795895 9.07683357 12.0895864 9.07213427 12.101416 9.06827413 12.4837959 8.94172867 12.8881689 8.84841399 13.2882099 8.75442797L13.3680182 8.73378462 13.3680182 8.73546294C13.9290086 8.60304336 14.4773364 8.46474965 14.9366922 8.22508531 15.7687642 7.79107133 16.4658786 7.09893147 16.3937345 5.84891748zM14.3810333 11.8949035C14.0518034 11.6461762 13.6429318 11.4632392 13.3300301 11.3348476 13.3225325 11.7802741 13.316701 12.132386 13.3118691 12.4101483 13.6860849 12.5746238 13.9370061 12.7575608 13.9569999 12.9987357 13.9766603 13.2367217 13.7095776 13.424358 13.2903759 13.600414L13.2903759 13.602428 13.2222306 13.6281063C13.1204293 13.6690573 13.0116301 13.7096727 12.8959997 13.7499524 12.806028 13.7821762 12.691564 13.8224559 12.5541071 13.8691133 12.4134846 13.9171133 12.294522 13.9681343 12.2155468 14.004386 11.4937735 14.3546517 11.455119 14.8089734 11.502604 15.2327497 11.5420916 15.5835189 11.8130066 15.8159664 12.1535663 15.993365 12.1454022 15.5940923 12.14157 15.3089455 12.1454022 15.2654769 12.1615637 15.0764979 12.2620322 14.940386 12.4066534 14.8329734 12.5249496 14.7317706 12.7203882 14.6549035 12.9743085 14.5547077 13.3062042 14.4237986 13.6071097 14.3437427 14.1141172 14.1477147 15.2924138 13.6922182 15.2907476 12.5830154 14.3810333 11.8949035zM10.2421666 5.19000839L9.88211299 5.58206434 9.69067311 5.55051189 9.72949425 5.37747692 10.0598905 5.06161678 10.3316385 5.04080559 10.2421666 5.19000839zM11.074072 5.41037203C11.2985015 5.09568671 11.5967411 4.89495944 11.9144747 4.76975664 11.9079767 4.41378462 11.9014788 4.0698965 11.895314 3.76796643 11.3176621 3.90474965 11.0425819 4.10833007 10.9221197 4.14827413 10.5972217 4.25702937 10.1598591 4.2295049 9.68750744 4.74726713 9.60303397 4.84007832 9.39859818 5.10005035 9.25297725 5.31235804 9.11085522 5.5192951 9.10435726 5.85193846 8.99972345 6.03051189 8.84760456 6.28930909 8.88425972 6.43733706 8.88425972 6.43733706L8.90225407 6.46704336C8.8817605 6.52880559 8.83827416 6.6243021 8.74530336 6.72852587 8.58701974 6.90558881 8.37925166 7.0030993 8.13149614 6.96332308 8.34659525 7.07191049 8.64483491 6.92002238 8.64483491 6.92002238 8.64483491 6.92002238 8.57652304 7.10094545 8.5192077 7.3683021 8.72497641 6.89971469 8.92374732 6.67263776 9.02138332 6.58033007 9.12068546 6.60819021 9.33545134 6.60735105 9.75165396 6.36701538 10.2030122 6.1062042 10.8822989 5.67957483 11.074072 5.41037203zM13.2713819 15.8830993C13.2662168 16.0618406 13.2605519 16.2546797 13.2545538 16.4552392 13.7069117 16.6722462 14.1092854 16.9897846 14.3012251 17.6547357 14.3268837 16.5942042 13.7955506 16.1635469 13.2713819 15.8830993z"/>
    </g>
  </g>
</svg>
