<svg xmlns="http://www.w3.org/2000/svg" width="54" height="50" viewBox="0 0 54 50">
  <g fill="#B9B9B9" fill-rule="evenodd">
    <path d="M35.1520513 17.7327465L35.1520513 17.5235915 35.0297115 17.6806338 35.0649679 17.8721831 35.1520513 17.7327465zM35.0649679 18.7429577L35.1520513 18.7947183 35.2564103 18.6387324 35.4133013 18.3598592 35.3262179 18.3771127 35.1866026 18.4464789 35.1167949 18.0461268 35.0297115 18.1158451 35.0995192 18.3598592 35.0124359 18.5510563 34.8900962 18.5165493 34.7332051 18.6207746 34.7504808 18.8820423 35.0649679 18.7429577zM35.535641 17.7852113L35.7447115 17.9415493 35.9890385 17.8894366 35.7972436 17.8373239 35.7447115 17.628169 35.7447115 17.4711268 35.64 17.2799296 35.5003846 17.3320423 35.4309295 17.2799296 35.2215064 17.4711268 35.5529167 17.6457746 35.535641 17.7852113zM37.2445192 16.2348592L37.4190385 16.4088028 37.5057692 16.3915493 37.6457372 16.4788732 37.6108333 16.3739437 37.2617949 16.1302817 37.0350962 15.9214789 37.1398077 16.2348592 37.2445192 16.2348592zM34.3845192 19.178169L34.4716026 19.0038732 34.0880128 19.0214789 33.9134936 19.1433099 34.1052885 19.2130282 34.3845192 19.178169zM38.4478205 19.2130282L38.6050641 19.4919014 38.5525321 19.5964789 38.6917949 20.0665493 38.8141346 20.1014085 38.8141346 19.5964789 38.6745192 19.421831 38.6219872 18.8996479 38.3790705 18.2665493 38.329359 18.3792254 38.395641 18.7429577 38.4478205 19.2130282zM37.4366667 16.7221831L37.7155449 17.1577465 37.8897115 17.2447183 37.5932051 16.7397887 37.4366667 16.7221831zM38.2214744 17.9415493L38.3261859 17.993662 38.0642308 17.4711268 37.9249679 17.4366197 38.0642308 17.6630282 38.2214744 17.9415493zM35.2014103 14.1285211C35.1876603 14.1647887 35.1756731 14.2024648 35.1608654 14.2387324L35.2913141 14.3366197 35.4309295 14.2841549 35.2014103 14.1285211zM11.9903526 32.3147887L11.9716667 32.1461268 11.7841026 31.921831 11.6716346 31.9591549 11.8778846 32.2211268 11.8591987 32.2957746 12.0280769 32.4830986 12.1401923 32.7264085 12.2339744 32.6887324 12.1401923 32.4830986 11.9903526 32.3147887zM35.6946474 9.41514085L35.8903205 9.55704225 36.3528846 9.71690141 36.5133013 10.0014085 36.6374038 10.0014085 36.6021474 9.69894366 36.4597115 9.59225352 36.4953205 9.43239437 36.2111538 9.3084507 36.1039744 9.41514085 35.9615385 9.34366197 36.0327564 9.18380282 35.6946474 9.41514085zM30.0070833 36.6475352L30.0233013 36.656338C30.0204808 36.6475352 30.0176603 36.6394366 30.0148397 36.631338L30.0070833 36.6475352zM44.2566667 30.5961268C43.3287179 32.7859155 42.0030769 34.7538732 40.3171154 36.4475352L37.8780769 34.0112676C39.2467308 32.634507 40.3241667 31.0352113 41.0775962 29.2549296 41.835609 27.4651408 42.2304808 25.5676056 42.2597436 23.6126761L45.7088782 23.6126761C45.6796154 26.0330986 45.1944872 28.3816901 44.2566667 30.5961268zM37.380609 33.5144366L37.4014103 33.3908451 37.5755769 33.2338028 37.4186859 32.4503521 37.4535897 32.2408451 37.2790705 31.9102113 37.174359 31.8056338 37.2790705 31.7887324 37.1394551 31.596831 36.8080449 31.5795775 36.8080449 31.840493 36.6864103 31.9447183 36.7734936 32.1542254 36.6338782 32.5545775 36.5291667 32.6246479 36.5697115 32.7049296 35.2162179 31.3535211C37.2797756 29.2728873 38.4372436 26.5341549 38.4957692 23.6126761L41.9970833 23.6126761C41.9385577 27.4679577 40.4175962 31.0848592 37.6926282 33.8264085L37.380609 33.5144366zM34.9186538 36.0190141L34.925 36.003169 35.0469872 35.7943662 34.925 35.4806338 35.3783974 35.0975352 35.3434936 34.8359155 35.0120833 34.6623239 35.3434936 34.0179577 35.7270833 33.3908451 35.2736859 32.8330986 35.1167949 32.8855634 34.9073718 32.8330986 34.7155769 32.4151408 34.6284936 32.4503521 34.7332051 32.0492958 34.8001923 31.7457746C34.8763462 31.6760563 34.9535577 31.6077465 35.0283013 31.5362676L36.5386859 33.0440141 36.5467949 33.059507 36.5563141 33.0623239 37.504359 34.0084507C36.7096795 34.781338 35.8413141 35.4510563 34.9186538 36.0190141zM34.5237821 29.9943662L33.9445192 30.4514085 33.8613141 30.5165493 33.8091346 30.4295775 33.5299038 30.4295775 33.1286859 30.5165493 32.7450962 30.3602113 32.5533013 30.3602113 32.2567949 30.1330986 32.065 30.1510563 31.8908333 29.9943662 31.6116026 29.9764085 31.4719872 29.7852113 31.3496474 29.7380282C31.3584615 29.7327465 31.3665705 29.7271127 31.3757372 29.7211268L31.5417949 29.7503521 31.5417949 29.6630282 31.9430128 29.7334507 32.0826282 29.8200704 32.5180449 29.8897887 32.5533013 29.9943662 32.9019872 29.9943662 33.3730128 30.1330986 33.5076923 30.3559859 33.7911538 30.3426056 34.0005769 30.1165493 34.1750962 29.7676056 34.4366987 29.0883803 34.3841667 28.9669014 34.5065064 28.8443662 34.6112179 28.4267606 34.5414103 28.2524648 34.6284936 28.1130282 34.5065064 27.956338 34.47125 27.5383803 34.1750962 27.6077465 34.0005769 27.8521127 33.7393269 27.834507 33.7735256 28.1478873 33.5648077 28.409507 33.3902885 28.3225352 33.2333974 28.4609155 32.8321795 28.4964789 32.815609 28.4820423C32.90375 28.3848592 32.9887179 28.284507 33.0719231 28.1827465L33.2506731 28.1827465 33.4449359 28.1478873 33.6346154 27.9390845 33.6698718 27.7735915 33.8613141 27.7647887 34.2272756 27.225 34.5237821 26.5975352 35.3085897 26.2323944 35.2909615 26.0232394 35.1866026 25.918662 35.2391346 25.8489437 35.4834615 25.9704225 36.0059615 26.0753521 36.4248077 25.9014085 37.1049038 25.7616197 36.9303846 25.2742958 36.6338782 24.978169 36.2679167 24.9609155 35.796891 23.8285211 35.7270833 23.8809859 35.5529167 23.7415493 35.6921795 23.6542254 35.6844231 23.6126761 38.233109 23.6126761C38.1749359 26.4637324 37.0449679 29.1369718 35.0307692 31.1679577L34.9546154 31.0919014 34.9775321 31.0042254 35.0646154 30.5690141 34.9775321 29.8897887 34.8202885 29.4890845 34.7155769 29.5933099 34.5237821 29.8721831 34.5237821 29.9943662zM32.3089744 20.1707746L32.6051282 20.0665493 32.2744231 19.8401408 32.4658654 19.6137324 32.4309615 19.4919014 32.7450962 19.3524648 32.4485897 19.0038732 32.0999038 19.3179577 32.0473718 19.543662 31.8210256 19.4390845 31.5766987 19.4746479 31.506891 19.3179577 31.5047756 19.3169014 32.0695833 18.7528169 32.1175321 18.8126761 32.6054808 18.8299296 32.7715385 18.6309859C33.0063462 18.9073944 33.2203526 19.2014085 33.4128526 19.5102113L33.4079167 19.5091549 33.1632372 20.031338 32.78 19.8225352 32.6752885 19.8401408 32.78 20.0489437 32.9019872 20.1362676 32.78 20.4320423 32.7274679 20.2929577 32.3089744 20.1707746zM32.3033333 18.5193662L32.4979487 18.3246479C32.5691667 18.3996479 32.6386218 18.4764085 32.7066667 18.5545775L32.4834936 18.7429577 32.2920513 18.7253521 32.2222436 18.6556338 32.3787821 18.5510563 32.3033333 18.5193662zM35.1287821 15.6975352C35.3907372 15.9683099 35.6361218 16.2503521 35.8666987 16.5419014L35.7274359 16.6179577 35.5701923 16.6528169 35.8145192 16.7221831 35.9291026 16.6242958C36.03875 16.7651408 36.1438141 16.9080986 36.2457051 17.0535211L36.1286538 17.0535211 36.1286538 17.1228873 36.250641 17.1577465 36.6166026 17.7327465 36.7188462 17.7838028C36.761859 17.8570423 36.8020513 17.9320423 36.8433013 18.0056338L36.8433013 18.2376761 36.5993269 18.4989437 36.5295192 18.3073944 36.3204487 18.2725352 36.4075321 18.4989437 36.250641 18.6556338 36.6342308 18.7947183 36.7914744 19.0214789 37.1049038 19.1084507 37.1225321 19.2478873 37.4014103 19.3179577 37.4539423 19.7528169 37.6217628 19.7292254C37.7201282 20.0105634 37.8050962 20.2964789 37.8805449 20.5866197L37.8724359 20.5890845 37.6975641 20.8852113 37.4535897 21.0070423 37.2790705 21.5123239 36.8256731 21.7735915 36.6687821 21.4943662 36.8083974 20.8330986 37.0174679 20.6760563 36.3200962 20.1362676 35.9537821 20.328169 35.6227244 21.0070423 35.2736859 20.815493 35.1693269 20.5369718 35.3607692 20.45 35.4478526 20.571831 35.6050962 20.5193662 35.5529167 20.3102113 35.3258654 20.2408451 35.3434936 20.3799296 35.1866026 20.3799296 35.0120833 20.1190141 34.6112179 19.7183099 34.1401923 19.3873239 33.7040705 19.3524648 33.6603526 19.4126761C33.3790064 18.9549296 33.0525321 18.5274648 32.6833974 18.1397887L35.1287821 15.6975352zM36.8785577 17.4887324L36.8708013 17.5306338C36.8563462 17.5073944 36.8415385 17.4838028 36.8270833 17.4602113L36.8785577 17.4887324zM36.1808333 22.2961268L36.6687821 21.9823944 37.2617949 21.9299296 37.4186859 21.5989437 37.6104808 21.4943662 37.8720833 21.0419014 37.9366026 20.8091549C37.9566987 20.8943662 37.9750321 20.9802817 37.9933654 21.0658451L37.8897115 21.3380282 37.9249679 21.4077465 37.7853526 21.6862676 37.8026282 21.8257042 37.52375 22.2091549 37.5759295 22.4524648 37.6802885 22.4700704 37.9595192 22.034507 37.9595192 21.7735915 38.0991346 21.7387324 38.1135897 21.7169014C38.1939744 22.2528169 38.2366346 22.7985915 38.2380449 23.3507042L35.6022756 23.3507042 35.535641 23.3056338 35.5529167 23.096831 35.7796154 23.009507 35.9537821 22.7661972 36.3722756 22.7137324 36.3722756 22.5397887 36.1808333 22.2961268zM35.3226923 15.5042254L35.6227244 15.8341549 35.7796154 15.3464789 35.535641 15.3116197 35.535641 15.2915493 36.2978846 14.5299296 36.7981731 15.0485915 37.2783654 15.0130282 37.4384295 15.2795775 37.4923718 15.6883803 38.4527564 16.2570423 38.7196474 16.2214789 39.360609 16.95 39.5026923 17.3232394 39.9476282 17.7852113 40.4637821 17.7672535 40.6922436 17.2841549C41.544391 19.1669014 41.9977885 21.2235915 42.0020192 23.3507042L38.5007051 23.3507042C38.4989423 22.6866197 38.436891 22.0323944 38.3237179 21.3915493L38.4827244 21.1464789 38.5698077 21.1464789 38.7616026 20.328169 38.6219872 20.2929577 38.6572436 20.1538732 38.3082051 20.1707746 38.2383974 20.0838028 38.1689423 20.2408451 38.3780128 20.4147887 38.2214744 20.4669014 38.1622436 20.621831C38.0786859 20.2869718 37.9803205 19.9566901 37.8660897 19.6320423L38.0642308 19.3348592 38.0116987 18.9866197 37.8375321 18.9517606 37.7680769 18.568662 37.8724359 18.4820423 37.6802885 18.2204225 37.3495833 18.2549296 37.2388782 18.181338C37.16625 18.0419014 37.089391 17.9042254 37.0114744 17.7672535L37.3495833 17.7672535 37.2794231 17.5933099 37.5057692 17.5235915 37.5057692 17.3492958 37.3495833 17.3320423 37.1225321 17.506338 37.0527244 17.4366197 37.2445192 17.140493 37.0876282 17.0359155 36.8958333 17.3147887 36.6638462 17.1985915C36.4791026 16.9169014 36.280609 16.6429577 36.0701282 16.3767606L36.0761218 16.3045775 36.0458013 16.3447183C35.8166346 16.0573944 35.5730128 15.7795775 35.3142308 15.5123239L35.3226923 15.5042254zM40.4151282 10.4179577C42.0534936 12.0887324 43.3470513 14.0204225 44.2566667 16.1669014 45.2202244 18.4422535 45.7099359 20.859507 45.7141667 23.3507042L42.2643269 23.3507042C42.2604487 21.3246479 41.8616987 19.3588028 41.0775962 17.5080986 41.0017949 17.3285211 40.9203526 17.1524648 40.8378526 16.9767606L40.9266987 16.7901408 41.1223718 16.9144366 41.1932372 16.7010563 40.0364744 14.8176056 39.7875641 14.7464789 38.0790385 12.7911972 38.0779808 12.7528169 40.4151282 10.4179577zM10.0561859 30.5961268C9.11836538 28.3816901 8.63288462 26.0330986 8.60362179 23.6126761L12.0534615 23.6126761C12.0760256 25.1394366 12.3249359 26.6299296 12.7924359 28.0630282L12.5336538 28.2352113 11.8591987 27.8605634 11.7090064 28.0105634 11.5217949 27.9169014 11.4093269 28.0105634 11.4844231 28.2535211 11.090609 28.2352113 10.8660256 28.1038732 10.8850641 27.8982394 10.8286538 27.7295775 10.7161859 27.7295775 10.7352244 27.9169014 10.7161859 28.0292254 10.6227564 27.9915493 10.3414103 28.1228873 10.5286218 28.2721831 10.285 28.2161972 10.1728846 28.3471831 10.3040385 28.403169 10.1351603 28.403169 10.1351603 28.6838028 10.2102564 28.8341549 10.3040385 28.9084507 10.1538462 28.9084507 10.2289423 29.1517606 10.3787821 29.2080986 10.4323718 29.3010563 10.5286218 29.4704225 10.5850321 29.6197183 10.2479808 29.4137324 10.3787821 29.7697183 10.1538462 29.2827465 10.1538462 29.6014085 10.3600962 30.0873239 10.5286218 30.4992958 11.0535897 31.5288732 10.9971795 31.3225352 10.5850321 30.3306338 10.5850321 29.9566901 10.7912821 29.6197183 11.4657372 30.4246479 11.5595192 30.35 11.4470513 29.8443662 11.5782051 29.9376761 11.7841026 30.2940141 12.1215064 30.3869718 12.2716987 30.6116197 12.4025 30.6302817 12.2903846 30.35 12.4025 30.2 12.5153205 30.5926056 12.7585897 30.9855634 12.9835256 30.9485915 13.5828846 31.9591549 13.9202885 32.0528169 14.0144231 31.6411972 14.1452244 31.8091549 14.6515064 32.5390845 15.2829487 32.7077465C15.639391 33.1580986 16.01875 33.5922535 16.4277244 34.0045775L13.9886859 36.440493C12.3058974 34.7485915 10.9823718 32.7830986 10.0561859 30.5961268zM10.0561859 16.1669014C10.9640385 14.0232394 12.2554808 12.0940141 13.8903205 10.4257042L16.329359 12.8612676C15.0114744 14.2137324 13.9689423 15.7746479 13.2349038 17.5080986 12.4508013 19.3588028 12.0524038 21.3246479 12.0481731 23.3507042L8.5986859 23.3507042C8.60291667 20.859507 9.09262821 18.4422535 10.0561859 16.1669014zM15.8170833 23.6126761C15.8280128 24.1450704 15.8759615 24.6721831 15.9584615 25.1894366L15.7754808 25.0911972 15.7754808 25.334507 15.6439744 25.278169 15.531859 25.0911972 15.2695513 25.203169 15.2321795 25.428169 14.6321154 26.3450704 14.4635897 26.3823944 14.3891987 27.9169014 13.9576603 28.1228873 13.8265064 28.0661972 13.620609 28.1598592 13.1333654 28.1228873 13.0815385 28.1007042C12.6027564 26.6697183 12.339391 25.1612676 12.3157692 23.6126761L15.8170833 23.6126761zM19.1770192 15.7049296L21.6224038 18.1471831C21.0586538 18.7411972 20.5897436 19.425 20.2389423 20.175L20.1039103 20.1507042 20.2160256 20.0010563 19.9353846 20.2443662 19.7104487 20.3940141 19.6540385 20.3007042 19.2605769 20.4503521 19.2796154 20.5996479 19.4855128 20.468662 19.84125 20.4503521 20.1560897 20.3644366C20.1391667 20.4035211 20.1211859 20.4415493 20.1049679 20.4806338L19.6917628 20.7683099 19.5979808 20.6746479 19.1107372 21.0302817 18.6795513 20.9552817 18.3989103 21.2922535 17.9677244 22.246831 18.0428205 22.5088028 17.6863782 22.9764085 17.6303205 23.3320423 17.6253846 23.3507042 16.0744551 23.3507042C16.0822115 20.4746479 17.1829167 17.7700704 19.1770192 15.7049296zM20.4032372 20.4535211C20.424391 20.4052817 20.4444872 20.3570423 20.4663462 20.3098592L20.5347436 20.3007042 20.4596474 20.4503521 20.4032372 20.4535211zM20.8721474 24.9602113L21.2278846 25.109507 21.4715064 25.4088028 21.5839744 25.334507 21.9964744 25.596831 22.1463141 25.7838028 21.8649679 25.6711268 21.8089103 25.7838028 22.0525321 25.9144366 22.3148397 26.1207746 22.3148397 25.9890845 22.2584295 25.7838028 22.37125 25.596831 22.5024038 25.5214789 22.2400962 25.203169 22.5397756 25.353169 22.7269872 25.596831 22.8584936 25.9330986 23.1204487 25.9890845 22.5584615 26.0830986 22.764359 26.5320423 22.9519231 26.5510563 22.9892949 26.3633803 22.9332372 26.1390845 23.176859 26.1207746 23.3644231 25.8021127 23.4388141 25.334507 23.5703205 25.278169 23.6873718 25.093662C23.8654167 25.4535211 24.0949359 25.7838028 24.3720513 26.0697183L21.9055128 28.5330986C20.8294872 27.4397887 20.0950962 26.0123239 19.86875 24.4232394L20.0101282 24.4362676 20.4786859 24.9038732 20.8721474 24.9602113zM18.2487179 23.0700704L18.3425 22.4521127 18.8484295 22.1901408 19.448141 22.3401408 19.5736538 22.5679577C19.5458013 22.825 19.530641 23.0866197 19.5292308 23.3507042L18.6076282 23.3507042 18.6048077 23.2757042 18.2487179 23.0700704zM19.2750321 31.1605634C19.0582051 30.9415493 18.8537179 30.7133803 18.6573397 30.4799296L18.6608654 30.4802817 18.7733333 30.0873239 18.7546474 29.6380282 18.3989103 29.0207746 18.3989103 28.3848592 18.2674038 27.9732394 18.3611859 27.8045775 17.9864103 27.1306338 18.0241346 26.8876761 17.8175321 26.4943662 17.6119872 26.4383803 17.9490385 26.3823944 17.855609 26.2514085 17.6303205 25.7644366 17.236859 25.6521127 17.330641 25.334507 17.1808013 24.8292254 17.3680128 24.3985915 17.8365705 24.3612676 17.9677244 24.1369718 17.9201282 23.6126761 18.2166346 23.6126761 18.3989103 23.668662 18.6234936 23.781338 18.6175 23.6126761 19.5345192 23.6126761C19.5415705 23.8489437 19.5602564 24.0816901 19.5884615 24.3116197L19.5792949 24.3235915 19.3730449 24.3052817 19.0730128 24.6422535 19.3356731 24.6982394 19.6194872 24.528169C19.8648718 26.1471831 20.6200641 27.6014085 21.7204167 28.718662L19.2750321 31.1605634zM19.0292949 31.4059859L18.886859 31.131338C18.9545513 31.203169 19.0201282 31.2757042 19.0895833 31.3461268L19.0292949 31.4059859zM18.1175641 30.4802817L18.0801923 30.3869718 18.2674038 30.4172535C18.3040705 30.4633803 18.3396795 30.5105634 18.3774038 30.556338L18.1175641 30.4802817zM17.0122756 25.5401408L16.6188141 25.6338028 16.4499359 25.465493 16.3374679 25.390493 16.2355769 25.2542254C16.1439103 24.7165493 16.0910256 24.1679577 16.079391 23.6126761L17.5562821 23.6126761 17.5365385 23.6876761 17.330641 24.043662 17.1991346 24.0616197 16.9558654 24.8478873 17.1808013 25.203169 17.0122756 25.5401408zM16.6131731 33.818662C16.3515705 33.5552817 16.1047756 33.281338 15.8653846 33.0021127L16.0941987 33.1003521 16.3191346 32.9693662 16.9371795 33.3623239 17.0394231 33.3933099 16.6131731 33.818662zM44.4978205 16.0647887C43.5501282 13.8267606 42.1927564 11.8161972 40.4648397 10.0901408 38.7362179 8.36408451 36.7234295 7.00880282 34.4821795 6.06197183 32.7084295 5.31302817 30.8500641 4.84859155 28.9388141 4.67007042 28.9236538 4.76373239 28.9113141 4.85035211 28.9014423 4.92957746 30.7908333 5.10492958 32.6273397 5.56302817 34.3799359 6.30316901 36.5700641 7.22852113 38.5380769 8.55 40.2314423 10.2306338L38.0663462 12.393662 38.0614103 12.240493 37.8833654 12.2580986 37.6700641 12.1514085 37.3495833 12.0626761 37.7945192 11.9919014 37.7053205 11.8672535 37.4564103 11.8672535 37.5276282 11.6721831 37.3136218 11.1390845 36.7445833 10.4454225 36.1928205 10.0901408 35.8903205 9.91232394 35.659391 9.96584507 35.659391 9.82359155 35.1252564 9.59225352 34.9147756 9.78838028C35.3068269 10.4542254 35.508141 11.1394366 35.5433974 11.7503521 35.5705449 12.2193662 35.5486859 12.6658451 35.4802885 13.0915493L35.659391 12.9869718 36.2287821 14.0176056 35.8370833 14.053169 36.115609 14.3415493 35.4545513 15.0017606 35.1167949 14.5802817 35.1485256 14.2651408C35.0575641 14.4823944 34.9510897 14.6922535 34.8301603 14.8950704L34.8728205 14.9806338 35.2913141 15.0330986 35.3325641 15.1235915 35.13125 15.3246479C35.0141987 15.209507 34.8943269 15.0978873 34.7730449 14.9880282 34.7265064 15.0630282 34.6764423 15.1362676 34.6253205 15.2088028 34.7335577 15.3077465 34.8407372 15.4066901 34.9454487 15.5102113L32.5000641 17.9524648C32.2998077 17.7556338 32.0872115 17.5711268 31.8665064 17.3975352 31.7766026 17.4383803 31.6863462 17.4788732 31.5939744 17.5176056 31.8474679 17.7091549 32.0889744 17.915493 32.3149679 18.1376761L31.9997756 18.4524648 31.9951923 18.4464789 32.0473718 18.2725352 31.8033974 18.3422535 31.5417949 18.3073944 31.5417949 18.0985915 31.2629167 18.2725352 30.9664103 18.5510563 31.1063782 18.6387324 31.4025321 18.4464789 31.6990385 18.5510563 31.6990385 18.6035211 31.8982372 18.5535211 31.2135577 19.2369718 30.4083013 19.4049296 30.18125 19.7010563 30.0247115 19.8052817 30.0070833 19.9619718 30.1290705 19.9443662 30.2514103 20.0489437 30.2260256 20.2228873 30.1671474 20.2823944 29.9721795 20.2408451 29.5099679 20.3130282C29.4211218 20.2447183 29.3294551 20.1792254 29.2349679 20.1190141L29.2046474 20.0838028 29.0741987 20.0235915C28.9120192 19.9306338 28.7420833 19.8524648 28.5665064 19.7830986L28.5534615 20.775C28.5481731 21.0890845 28.5432372 21.3841549 28.5383013 21.6707746L28.6465385 21.6165493 28.7403205 21.7073944 28.5344231 21.9126761C28.5323077 22.0422535 28.5301923 22.1658451 28.5284295 22.2894366L28.9187179 21.8996479 28.8386859 22.1742958 28.9532692 22.2140845 29.0354167 22.6338028 29.2568269 22.8535211 28.7339744 22.5746479 28.6927244 22.7732394C29.375641 23.0503521 30.3085256 23.4605634 31.0654808 24.028169 32.2109615 24.8866197 32.7997436 26.0771127 32.6410897 27.2130282 32.5258013 28.0334507 32.0501923 28.7330986 31.2752564 29.2447183L31.2974679 29.3323944 31.1409295 29.5239437 30.8616987 29.5588028 30.7569872 29.7334507 30.2161538 29.959507 29.7278526 29.9419014 29.5882372 30.1510563 29.6756731 30.2908451 29.6739103 30.2926056C29.6083333 30.3161972 29.5424038 30.3387324 29.4757692 30.3609155L29.1348397 30.3950704 29.0477564 30.2556338 28.6641667 30.3077465 28.6592308 30.306338C28.5869551 30.3306338 28.5178526 30.3549296 28.4480449 30.3795775L28.4469872 30.65C28.4469872 30.7302817 28.4304167 31.3461268 28.4053846 32.2264085 29.645 32.8464789 31.1818269 33.8647887 31.11625 36.5640845 31.11625 36.5640845 31.0883974 37.0559859 30.9470192 37.4116197L30.9487821 37.4140845 31.4846795 37.5697183C30.4326282 37.8883803 29.3407372 38.0911972 28.2238141 38.1704225 28.2209936 38.259507 28.2181731 38.3485915 28.2153526 38.4334507 29.3904487 38.3524648 30.5415705 38.1373239 31.6577885 37.7897887L31.8908333 37.8672535 32.1344551 38.0757042 32.4337821 37.9602113 32.9019872 37.8492958 33.0937821 37.6753521 33.6173397 37.4492958 34.1401923 37.0830986 34.7332051 36.4908451 34.7610577 36.4197183C35.8201603 35.8014085 36.8009936 35.0584507 37.6898077 34.1943662L40.1291987 36.6302817C38.4583974 38.2626761 36.5266987 39.5528169 34.3799359 40.4598592 32.0921474 41.4264085 29.6619231 41.9161972 27.15625 41.9161972 24.6509295 41.9161972 22.2207051 41.4264085 19.9325641 40.4598592 17.7829808 39.5514085 15.8491667 38.259507 14.1758974 36.6235915L16.615641 34.1873239C17.97125 35.5070423 19.5366346 36.5507042 21.2754808 37.2852113 22.8345192 37.943662 24.4753526 38.3267606 26.1644872 38.4355634 26.1623718 38.3496479 26.1591987 38.2616197 26.1563782 38.171831 22.6332051 37.9387324 19.3487179 36.481338 16.8010897 34.0021127L17.3207692 33.4827465 17.7618269 33.8679577 18.6795513 33.7933099 19.0546795 33.418662 19.5602564 33.4373239 20.0288141 33.4933099 20.2720833 33.306338 20.25375 33.0816901 19.9914423 32.7823944 19.6730769 32.1647887 19.354359 32.0338028 19.1555128 31.6503521 19.2771474 31.5288732C21.1383333 33.3260563 23.5082692 34.415493 26.0590705 34.659507 26.0566026 34.5707746 26.0544872 34.4823944 26.0523718 34.3954225 23.5745513 34.1514085 21.2726603 33.0897887 19.4629487 31.343662L21.9079808 28.9017606C22.5521154 29.5126761 23.3030769 30.0130282 24.1284295 30.3714789 24.1474679 30.284507 24.1700321 30.1975352 24.1985897 30.1112676 23.4173077 29.7672535 22.7047756 29.2954225 22.0934295 28.7165493L24.5620833 26.2507042C24.9474359 26.5989437 25.4036538 26.868662 25.905 27.0401408L25.9000641 26.7626761C25.4724038 26.6024648 25.0817628 26.3651408 24.7475321 26.0658451L24.9097115 25.9035211 24.9964423 25.8982394 25.1455769 25.7492958 25.4755769 25.7919014 25.6673718 25.6855634 25.8806731 25.6630282 25.8732692 25.2253521 25.1198397 24.9799296 25.0923397 25.0045775 24.7834936 25.0577465 24.5599679 25.3661972 24.4640705 25.7598592 24.4679487 25.7838028C24.1619231 25.4422535 23.9197115 25.0443662 23.7614103 24.6056338L23.7839744 24.4919014C23.5586859 24.3901408 23.3503205 24.281338 23.1571154 24.1651408L22.9892949 24.2489437 22.8020833 24.1369718 22.5207372 24.2489437 22.37125 24.1176056 22.5397756 23.9496479 22.7629487 23.9049296C21.9908333 23.3327465 21.524391 22.5985915 21.2832372 21.6232394 21.1383333 21.0369718 21.0946154 20.468662 21.1436218 19.9274648L20.7970513 20.0570423 20.578109 20.081338C20.8065705 19.6295775 21.0815705 19.2059859 21.3942949 18.8126761 21.5060577 18.5070423 21.6499038 18.2133803 21.829359 17.9362676 21.8216026 17.9440141 21.813141 17.9510563 21.8053846 17.9591549L19.36 15.5172535C21.0674679 13.828169 23.2279808 12.7605634 25.5665385 12.4264085 25.5651282 12.3397887 25.5637179 12.2517606 25.5623077 12.1633803 23.155 12.4996479 20.9303205 13.5947183 19.1745513 15.3316901L18.5822436 14.7401408C18.5815385 14.7422535 18.5797756 14.7443662 18.5794231 14.7457746 18.5321795 14.8419014 18.4955128 14.9246479 18.4666026 14.9954225L18.9915705 15.5197183C16.948109 17.634507 15.8202564 20.4045775 15.8125 23.3507042L12.3108333 23.3507042C12.3185897 19.4707746 13.8109936 15.8225352 16.5151603 13.046831L17.4783654 14.0084507C17.5446474 14.0165493 17.6200962 14.0207746 17.6983654 14.0144366 17.7445513 14.0109155 17.7903846 14.0035211 17.8351603 13.9943662L16.698141 12.8588028C17.4600321 12.1035211 18.2906731 11.4447183 19.1734936 10.8795775 19.2242628 10.7306338 19.29125 10.584507 19.3744551 10.4447183 18.3389744 11.0669014 17.3814103 11.8123239 16.5126923 12.6735915L14.0736538 10.2376761C15.7691346 8.55387324 17.7396154 7.22922535 19.9325641 6.30316901 21.6745833 5.56760563 23.4994551 5.10985915 25.3772115 4.93204225L25.3398397 4.67253521C23.4398718 4.85352113 21.5934936 5.31725352 19.8303205 6.06197183 17.5894231 7.00880282 15.5766346 8.36408451 13.8480128 10.0901408 12.1197436 11.8161972 10.7623718 13.8267606 9.81467949 16.0647887 8.83314103 18.3823944 8.33567308 20.8440141 8.33567308 23.3816901 8.33567308 25.9190141 8.83314103 28.3802817 9.81467949 30.6982394 10.7623718 32.9362676 12.1197436 34.9461268 13.8480128 36.6725352 15.5766346 38.3989437 17.5894231 39.7542254 19.8303205 40.7010563 22.1508974 41.6806338 24.6156731 42.178169 27.15625 42.178169 29.6971795 42.178169 32.1619551 41.6806338 34.4821795 40.7010563 36.7234295 39.7542254 38.7362179 38.3989437 40.4648397 36.6725352 42.1927564 34.9461268 43.5501282 32.9362676 44.4978205 30.6982394 45.4797115 28.3802817 45.9768269 25.9190141 45.9768269 23.3816901 45.9768269 20.8440141 45.4797115 18.3823944 44.4978205 16.0647887zM37.4190385 24.9084507L36.9307372 25.0827465 37.0527244 25.2742958 37.4014103 25.3088028 37.4190385 24.9084507zM24.0695513 24.6140845C24.0180769 24.5933099 23.96625 24.571831 23.9158333 24.5503521L23.8890385 24.8855634 24.0695513 24.6140845zM24.3061218 24.7056338C24.2282051 24.6771127 24.1516987 24.6475352 24.0773077 24.6172535L24.0949359 24.8292254 24.3061218 24.7056338zM18.2515385 14.7809859C18.2674038 14.6630282 18.2899679 14.5623239 18.3153526 14.4739437L18.1626923 14.3214789C18.0491667 14.3450704 17.9349359 14.359507 17.8224679 14.3528169L18.2515385 14.7809859zM25.4438462 20.2630282L25.4290385 20.2144366C25.4357372 20.2105634 25.4417308 20.206338 25.4484295 20.203169L25.4438462 20.2630282zM25.4251603 19.7954225L25.4466667 19.9123239C25.2146795 20.0271127 25.0003205 20.1697183 24.7972436 20.3271127 24.7947756 20.6007042 24.9016026 20.8911972 25.1089103 21.1566901 25.1974038 21.2704225 25.3010577 21.3676056 25.4325641 21.4602113L25.8038141 21.2996479 25.775609 19.7073944 25.6500962 19.7200704 25.6874679 19.5330986 25.7699679 19.4052817 25.7671474 19.2443662 25.6874679 19.3084507 25.5189423 19.5707746 25.4251603 19.7954225zM28.3341667 34.6376761C28.3338141 34.6411972 28.3338141 34.6440141 28.3338141 34.6478873 28.3398077 34.6471831 28.3454487 34.646831 28.3514423 34.6461268 28.3461538 34.6429577 28.3398077 34.6401408 28.3341667 34.6376761zM18.8107051 25.8207746L18.7359615 25.8774648 18.6795513 25.9517606 18.54875 25.6711268 18.4926923 25.7274648 18.54875 25.9704225 18.6234936 26.1207746 18.5674359 26.2140845 18.7172756 26.4010563 18.8107051 26.6070423 18.8858013 26.5880282 18.9044872 26.2700704 18.8297436 26.1014085 18.8107051 25.8207746zM18.6608654 24.1369718L18.8107051 24.5295775 18.7172756 24.6605634 18.7546474 24.8661972 18.6985897 25.1665493 18.5857692 25.2411972 18.7733333 25.7274648 18.8297436 25.7088028 18.7733333 25.278169 18.9231731 24.5482394 18.8107051 24.1742958 18.6608654 24.1369718zM28.8386859 26.5633803L28.8492628 26.5640845C28.8422115 26.5672535 28.8358654 26.571831 28.8288141 26.5753521L28.8386859 26.5633803zM28.6292628 27.1383803L28.6641667 27.2771127 28.6483013 27.3408451C29.2152244 27.0626761 29.2963141 26.9014085 29.2906731 26.828169 29.2716346 26.6045775 28.9391667 26.3735915 28.4628526 26.1485915 28.4600321 26.318662 28.4572115 26.4700704 28.4547436 26.6056338L28.5499359 26.7070423C28.5178526 26.7204225 28.4847115 26.7309859 28.4522756 26.7433099 28.4505128 26.846831 28.4483974 26.9411972 28.4469872 27.0246479 28.5026923 27.0052817 28.5591026 26.9880282 28.61375 26.9647887L28.6292628 27.1383803zM30.7224359 18.8647887L30.9836859 18.8647887 31.0358654 18.7602113 30.8091667 18.7080986 30.7224359 18.568662 30.4432051 18.5862676 30.5828205 18.7778169 30.5828205 19.0038732 30.7224359 18.8647887zM30.3208654 19.178169L30.1988782 19.2651408 30.1466987 19.1957746 29.815641 19.7528169 30.1117949 19.7010563 30.1294231 19.4919014 30.3561218 19.2651408 30.5302885 19.1084507 30.4255769 18.9693662 30.3208654 19.178169zM29.1002885 18.9517606L28.75125 18.9693662 28.6465385 19.1433099 28.5749679 19.1433099 28.5675641 19.7066901 28.9257692 19.543662 29.1002885 18.9517606zM31.575641 12.9426056C30.6617949 12.556338 29.6968269 12.2940141 28.7015385 12.1588028 28.6994231 12.246831 28.6973077 12.3355634 28.6955449 12.4214789 29.6435897 12.5528169 30.5630769 12.8024648 31.4349679 13.1669014 31.4867949 13.0926056 31.534391 13.0179577 31.575641 12.9426056zM21.0720513 49.7257042L22.4502244 49.8633803C22.4502244 49.8633803 24.2102244 45.9985915 28.6398397 45.8130282 31.4836218 45.6940141 33.970609 47.1144366 36.9994872 47.3341549 40.6372436 47.5978873 43.1224679 46.8306338 45.2036538 44.8510563 43.0025962 46.0616197 40.4059615 45.5390845 37.4031731 44.8510563 35.4503205 44.403169 33.4491667 44.2158451 31.9645192 44.2306338 25.074359 44.2989437 21.0720513 49.7257042 21.0720513 49.7257042M41.8645192 36.9658451C41.2196795 37.6091549 40.3558974 38.4573944 39.5164423 40.2570423 38.7016667 42.0052817 38.6932051 42.7088028 37.900641 43.9816901 39.7011859 43.3080986 41.0342308 44.606338 45.5763141 42.9267606 47.6775962 42.1507042 49.1731731 40.1739437 49.8652564 38.4573944 48.2491026 39.9165493 46.9410897 40.6570423 45.0167949 40.940493 43.1214103 41.2193662 41.9092949 41.343662 40.3245192 42.275 41.3191026 41.2193662 41.6917628 40.6299296 42.2199038 39.2330986 42.7868269 37.7355634 42.6951603 36.4475352 43.3389423 35.2919014 42.8763782 35.8767606 42.5090064 36.3225352 41.8645192 36.9658451"/>
    <path d="M44.1537179,34.7288732 C43.6812821,37.1873239 43.8208974,39.2422535 42.5622436,40.8161972 C44.2386859,39.4246479 45.8721154,39.4334507 48.1246474,38.4260563 C50.8108333,37.1073944 52.2291987,34.8 52.9727564,31.4429577 C52.3769231,32.925 50.8492628,34.3257042 49.1502564,35.3848592 C47.7001603,36.2897887 46.1534615,36.7338028 45.0791987,38.0542254 C45.7011218,37.3091549 45.864359,36.946831 46.0032692,36.115493 C46.439391,33.8390845 45.7152244,32.5485915 46.0582692,30.1721831 C45.7085256,31.1549296 44.4583333,33.1447183 44.1537179,34.7288732"/>
    <path d="M46.7045192,27.5066901 C46.5321154,31.3605634 48.1116026,32.1510563 46.9749359,35.6950704 C47.9695192,34.2676056 49.1463782,33.8390845 50.6729808,32.4985915 C52.5736538,30.8211268 54.1411538,28.2869718 53.9983654,24.8640845 C53.6405128,25.8211268 52.5066667,27.6566901 51.2635256,28.9605634 C50.0203846,30.2644366 48.9739744,31.8257042 48.4352564,32.9017606 C49.6776923,28.6433099 47.4565385,27.0235915 47.1878846,24.4690141 C47.1187821,25.4323944 46.7662179,26.8647887 46.7045192,27.5066901"/>
    <path d="M47.4445513,23.1288732 C47.1075,21.8778169 47.2520513,21.134507 46.9608333,19.7323944 C47.4720513,20.9841549 50.4558013,23.2017606 50.1444872,27.4700704 C50.3123077,26.6876761 50.9229487,24.3176056 51.7916667,22.6602113 C52.475641,21.3566901 53.1691346,20.0559859 53.0037821,18.1285211 C53.7892949,20.6683099 53.7494551,22.1323944 53.4078205,23.4049296 C53.0661859,24.6774648 52.2136859,25.6545775 51.4810577,26.6637324 C50.9998077,27.3278169 49.9791346,28.6239437 49.491891,29.8295775 C49.5303205,27.2172535 47.8863141,24.7658451 47.4445513,23.1288732"/>
    <path d="M46.4947436,17.428169 C45.9334615,16.3580986 45.7169872,15.4746479 44.9910577,14.1176056 C45.4395192,14.7 45.8283974,15.0109155 46.9439103,15.9559859 C48.4800321,17.2570423 49.6477244,18.718662 50.2558974,21.1503521 C50.3003205,19.6359155 50.4868269,18.7295775 50.7977885,17.0419014 C51.0770192,15.5214789 51.0036859,13.781338 50.2996154,11.8584507 C51.6576923,13.4989437 52.8257372,16.7309859 52.1643269,18.9038732 C51.6407692,20.9665493 50.7484295,22.0102113 50.4864744,23.4665493 C49.5772115,20.5538732 47.2640385,18.8943662 46.4947436,17.428169"/>
    <path d="M47.2308974,14.7302817 C46.5511538,14.184507 44.8482692,13.125 44.0148077,12.146831 C43.1838141,11.1711268 42.7614423,10.2394366 42.1751282,9.37922535 C43.4038141,10.5073944 44.074391,10.8419014 45.3274038,11.6102113 C46.4637179,12.2580986 48.0001923,13.1309859 48.6217628,14.5028169 C48.2491026,13.4728873 48.0629487,12.1073944 47.938141,10.9584507 C47.7523397,9.24753521 47.0525,8.20528169 46.5398718,7.57605634 C48.215609,8.92147887 49.2302885,10.0577465 49.67875,12.4795775 C50.126859,14.9017606 49.6163462,16.7316901 49.7873397,18.0362676 C48.8978205,16.2739437 47.9102885,15.2767606 47.2308974,14.7302817"/>
    <path d="M47.5344551 12.2003521C46.7884295 9.96619718 46.0089103 8.6334507 44.4890064 7.35880282 42.4973718 5.68838028 40.3841026 4.90528169 39.5471154 4.5028169 41.1766667 5.66338028 41.0920513 6.66866197 43.2603205 8.70950704 44.9565064 10.3056338 46.1495833 10.431338 47.5344551 12.2003521M33.2397436 49.7257042L31.8615705 49.8633803C31.8615705 49.8633803 30.1019231 45.9985915 25.6723077 45.8130282 22.8281731 45.6940141 20.341891 47.1144366 17.3126603 47.3341549 13.6745513 47.5978873 11.1900321 46.8306338 9.10849359 44.8510563 11.3102564 46.0616197 13.9058333 45.5390845 16.9089744 44.8510563 18.8618269 44.403169 20.8629808 44.2158451 22.3472756 44.2306338 29.238141 44.2989437 33.2397436 49.7257042 33.2397436 49.7257042M12.4476282 36.9658451C13.0924679 37.6091549 13.95625 38.4573944 14.7957051 40.2570423 15.6101282 42.0052817 15.6189423 42.7088028 16.4115064 43.9816901 14.610609 43.3080986 13.2775641 44.606338 8.73583333 42.9267606 6.63419872 42.1507042 5.13897436 40.1739437 4.44724359 38.4573944 6.06304487 39.9165493 7.37070513 40.6570423 9.295 40.940493 11.1907372 41.2193662 12.4025 41.343662 13.9872756 42.275 12.9926923 41.2193662 12.6200321 40.6299296 12.091891 39.2330986 11.5253205 37.7355634 11.6166346 36.4475352 10.9732051 35.2919014 11.4357692 35.8767606 11.8034936 36.3225352 12.4476282 36.9658451"/>
    <path d="M10.1580769,34.7288732 C10.6305128,37.1873239 10.4908974,39.2422535 11.7499038,40.8161972 C10.0734615,39.4246479 8.43967949,39.4334507 6.18714744,38.4260563 C3.5013141,37.1073944 2.08294872,34.8 1.33974359,31.4429577 C1.93487179,32.925 3.46288462,34.3257042 5.16153846,35.3848592 C6.61163462,36.2897887 8.1586859,36.7338028 9.23259615,38.0542254 C8.61102564,37.3091549 8.44778846,36.946831 8.30887821,36.115493 C7.87275641,33.8390845 8.59692308,32.5485915 8.25387821,30.1721831 C8.60362179,31.1549296 9.85416667,33.1447183 10.1580769,34.7288732"/>
    <path d="M7.60762821,27.5066901 C7.78003205,31.3605634 6.20019231,32.1510563 7.33721154,35.6950704 C6.34262821,34.2676056 5.16541667,33.8390845 3.6388141,32.4985915 C1.73884615,30.8211268 0.17099359,28.2869718 0.313782051,24.8640845 C0.671987179,25.8211268 1.80548077,27.6566901 3.04862179,28.9605634 C4.29176282,30.2644366 5.33817308,31.8257042 5.87689103,32.9017606 C4.63445513,28.6433099 6.85560897,27.0235915 7.12391026,24.4690141 C7.19301282,25.4323944 7.54592949,26.8647887 7.60762821,27.5066901"/>
    <path d="M6.86759615,23.1288732 C7.20464744,21.8778169 7.06044872,21.134507 7.3513141,19.7323944 C6.83974359,20.9841549 3.85669872,23.2017606 4.16766026,27.4700704 C3.99983974,26.6876761 3.38955128,24.3176056 2.52012821,22.6602113 C1.83650641,21.3566901 1.14301282,20.0559859 1.30801282,18.1285211 C0.5225,20.6683099 0.562339744,22.1323944 0.903974359,23.4049296 C1.24596154,24.6774648 2.09846154,25.6545775 2.83108974,26.6637324 C3.31233974,27.3278169 4.33301282,28.6239437 4.81990385,29.8295775 C4.78182692,27.2172535 6.42583333,24.7658451 6.86759615,23.1288732"/>
    <path d="M7.55580128,17.8253521 C8.2725641,16.7693662 8.59516026,15.4746479 9.32073718,14.1176056 C8.87262821,14.7 8.48375,15.0109155 7.36823718,15.9559859 C5.83211538,17.2570423 4.66442308,18.718662 4.05589744,21.1503521 C4.01147436,19.6359155 3.82496795,18.7295775 3.51471154,17.0419014 C3.23477564,15.5214789 3.30810897,13.781338 4.01217949,11.8584507 C2.65445513,13.4989437 1.48641026,16.7309859 2.14782051,18.9038732 C2.67102564,20.9665493 3.56336538,22.0102113 3.82567308,23.4665493 C4.7349359,20.5538732 6.61798077,19.2066901 7.55580128,17.8253521"/>
    <path d="M7.08125,14.7302817 C7.76099359,14.184507 9.46387821,13.125 10.2973397,12.146831 C11.1279808,11.1711268 11.5510577,10.2394366 12.1370192,9.37922535 C10.9079808,10.5073944 10.2374038,10.8419014 8.98439103,11.6102113 C7.84807692,12.2580986 6.31195513,13.1309859 5.69073718,14.5028169 C6.06304487,13.4728873 6.24955128,12.1073944 6.37435897,10.9584507 C6.55945513,9.24753521 7.25929487,8.20528169 7.77192308,7.57605634 C6.09653846,8.92147887 5.08150641,10.0577465 4.63375,12.4795775 C4.18528846,14.9017606 4.69544872,16.7316901 4.52445513,18.0362676 C5.41432692,16.2739437 6.40221154,15.2767606 7.08125,14.7302817"/>
    <path d="M6.77769231 12.2003521C7.52336538 9.96619718 8.30288462 8.6334507 9.82314103 7.35880282 11.8144231 5.68838028 13.9276923 4.90528169 14.7646795 4.5028169 13.1351282 5.66338028 13.2204487 6.66866197 11.0518269 8.70950704 9.35564103 10.3056338 8.16221154 10.431338 6.77769231 12.2003521M27.9086218 27.6598592C27.9184936 27.5866197 28.0316667 18.8327465 28.0383654 18.5323944 27.7037821 18.5806338 26.6097756 18.8725352 26.3182051 18.9862676 26.3217308 19.1816901 26.4557051 28.1711268 26.4557051 28.1711268 26.4557051 28.1711268 26.7878205 28.0521127 27.1128846 27.9440141 27.4725 27.8359155 27.7408013 27.7242958 27.9086218 27.6598592zM26.5523077 31.5852113C26.5286859 31.8573944 26.7123718 39.1788732 26.7751282 39.9366197 26.9277885 41.7735915 27.4848397 41.7992958 27.6071795 40.0306338 27.643141 39.506338 27.8976923 30.8919014 27.8976923 30.5869718 27.1213462 30.8302817 26.5917949 31.1323944 26.5523077 31.5852113zM26.158141 15.3521127C26.7398718 15.175 27.5426603 15.1014085 28.0954808 14.9042254 28.0954808 14.1658451 28.3070192 5.5 28.3376923 5.04471831 28.4244231 3.76584507 29.6555769.304929577 27.1347436.304929577 24.6787821.304929577 25.7664423 3.95492958 25.9621154 5.14049296 26.036859 5.59577465 26.158141 14.5989437 26.158141 15.3521127zM30.7354808 24.4669014C30.0391667 23.9447183 29.1739744 23.5609155 28.5115064 23.2915493 28.4959936 24.2260563 28.4833013 24.9647887 28.4734295 25.5475352 29.2652885 25.8926056 29.7958974 26.2764085 29.8382051 26.7827465 29.8798077 27.2820423 29.3146474 27.6757042 28.4275962 28.0450704L28.4275962 28.0489437 28.2833974 28.1035211C28.0683333 28.1890845 27.838109 28.2739437 27.5930769 28.3584507 27.4026923 28.4264085 27.1604808 28.5105634 26.8696154 28.6084507 26.5720513 28.7091549 26.3206731 28.8161972 26.1532051 28.8922535 24.6258974 29.6274648 24.5441026 30.5802817 24.6449359 31.4693662 24.7284936 32.2052817 25.3017628 32.6933099 26.0224038 33.065493 26.0051282 32.2278169 25.9970192 31.6292254 26.0047756 31.5383803 26.0393269 31.1419014 26.2515705 30.8559859 26.5579487 30.6309859 26.8082692 30.4183099 27.2214744 30.2570423 27.7587821 30.046831 28.4610897 29.7721831 29.0981731 29.6042254 30.1710256 29.1933099 32.664359 28.2376761 32.6608333 25.9102113 30.7354808 24.4669014zM28.3877564 32.8341549C28.3764744 33.2091549 28.3648397 33.6133803 28.3521474 34.034507 29.309359 34.4897887 30.1604487 35.1556338 30.5666026 36.5507042 30.6208974 34.3260563 29.4965705 33.4221831 28.3877564 32.8341549zM21.9777885 10.3996479L21.2155449 11.2225352 20.8104487 11.156338 20.8925962 10.7933099 21.5917308 10.1302817 22.1667628 10.0869718 21.9777885 10.3996479zM23.738141 10.8623239C24.2130449 10.2017606 24.8437821 9.78098592 25.5164744 9.51795775 25.5027244 8.77112676 25.4886218 8.05 25.4759295 7.41619718 24.2535897 7.70316901 23.6711538 8.13028169 23.4166026 8.21443662 22.72875 8.44260563 21.8036218 8.38450704 20.8041026 9.47112676 20.6253526 9.66584507 20.1924038 10.2112676 19.8846154 10.656338 19.5835256 11.090493 19.5697756 11.7883803 19.3483654 12.1630282 19.0268269 12.706338 19.104391 13.0169014 19.104391 13.0169014L19.1421154 13.0788732C19.09875 13.2084507 19.0070833 13.4088028 18.81 13.6274648 18.4750641 13.9989437 18.0354167 14.2038732 17.5115064 14.1204225 17.9666667 14.3478873 18.5974038 14.0295775 18.5974038 14.0295775 18.5974038 14.0295775 18.4532051 14.4088028 18.3315705 14.9697183 18.7673397 13.9866197 19.1875962 13.5105634 19.3945513 13.3169014 19.6043269 13.3753521 20.0591346 13.3735915 20.9394872 12.8693662 21.8949359 12.321831 23.3319872 11.4267606 23.738141 10.8623239zM34.9944551 11.7823944C34.8890385 9.96514085 33.0793269 7.47112676 28.8231731 7.18450704 28.8073077 7.78767606 28.7896795 8.47394366 28.7720513 9.18626761 29.048109 9.22007042 29.2783333 9.26197183 29.4345192 9.29894366 31.4705769 9.78133803 32.3495192 10.9172535 32.3608013 12.0700704 32.3713782 13.1957746 31.4310897 14.5341549 29.3312179 15.1517606 29.1277885 15.2116197 28.8940385 15.2714789 28.6437179 15.3327465L28.6433654 15.3485915 28.2456731 15.4605634C27.9086218 15.5316901 27.439359 15.6440141 27.1537821 15.7049296 26.8463462 15.7707746 26.4948397 15.8359155 26.2554487 15.9088028L25.6229487 16.0616197 25.6229487 16.0566901C25.1614423 16.1869718 24.741891 16.3260563 24.4157692 16.478169 22.1688782 17.5253521 21.3026282 19.4137324 21.8166667 21.4919014 22.1230449 22.7323944 22.8281731 23.6169014 24.6921795 24.2630282 25.0835256 24.3989437 25.4766346 24.5253521 25.8626923 24.6478873L25.8207372 22.2767606C25.3225641 22.068662 24.9548397 21.8521127 24.675609 21.4940141 23.9419231 20.5535211 24.0628526 19.2257042 25.7558654 18.5947183L25.7555128 18.5887324 25.8411859 18.5626761C25.8655128 18.5542254 25.8870192 18.5443662 25.9116987 18.5362676 26.7208333 18.2711268 27.576859 18.0753521 28.4233654 17.878169L28.5922436 17.8348592 28.5922436 17.8383803C29.7789744 17.5605634 30.9392628 17.2704225 31.9112821 16.7676056 33.6723397 15.8570423 35.1474679 14.4045775 34.9944551 11.7823944z"/>
  </g>
</svg>
