<?xml version="1.0" encoding="UTF-8"?>
<svg width="216px" height="28px" viewBox="0 0 216 28" version="1.1" xmlns="http://www.w3.org/2000/svg" xmlns:xlink="http://www.w3.org/1999/xlink">
    <!-- Generator: sketchtool 64 (101010) - https://sketch.com -->
    <title>6E695423-B836-4165-8028-73E3176E5810</title>
    <desc>Created with sketchtool.</desc>
    <g id="TIPP-(Unicef)" stroke="none" stroke-width="1" fill="none" fill-rule="evenodd">
        <g id="Topbar-(Subpage)" transform="translate(-40.000000, -15.000000)" fill="#00AEEF">
            <g id="Top-navigation-bar-(logged-out)">
                <g id="Upper">
                    <g id="Unicef-logo-horizontal" transform="translate(40.000000, 15.000000)">
                        <path d="M72.913176,17.12424 C71.926456,16.59336 71.906296,15.85864 71.960056,15.58872 C72.011576,15.3132 72.204216,15.43416 72.327416,15.43416 C72.975896,15.43416 73.657976,15.246 74.497976,14.406 C75.446616,13.45848 75.743416,11.35512 74.287416,9.98424 C72.717176,8.50472 71.048376,8.76344 69.972056,10.09176 C69.751416,10.36504 69.213816,10.5644 68.746776,10.54872 C68.056856,10.52296 68.492536,11.05496 68.492536,11.16584 C68.492536,11.27672 68.386136,11.35512 68.325656,11.3372 C68.091576,11.27224 68.185656,11.6116 68.185656,11.71464 C68.185656,11.81768 68.088216,11.8692 68.036696,11.8692 C67.746616,11.8692 67.827256,12.12456 67.836216,12.19512 C67.844056,12.26344 67.818296,12.38216 67.721976,12.4348 C67.629016,12.4852 67.520376,12.7092 67.520376,12.88056 C67.520376,13.18968 67.809336,13.40248 68.292056,13.75416 C68.772536,14.10696 68.834136,14.4396 68.841976,14.6804 C68.852056,14.92008 68.874456,15.3076 68.984216,15.56408 C69.113016,15.87208 69.096216,16.43768 68.430936,16.46344 C67.617816,16.4948 66.173016,17.13096 66.050936,17.17464 C65.591736,17.33368 64.983576,17.39192 64.510936,17.27544 C64.255576,17.0996 64.013656,16.90584 63.784056,16.69864 C63.688856,16.37832 63.853496,16.03448 64.019256,15.80264 C64.290296,16.06808 64.693496,16.05128 64.919736,16.05912 C65.147096,16.06808 66.259256,15.89784 66.417176,15.8452 C66.575096,15.79368 66.644536,15.8116 66.740856,15.8452 C67.165336,15.9964 67.747736,16.04232 67.984056,15.246 C68.220376,14.44856 67.661496,14.67144 67.590936,14.70616 C67.520376,14.74088 67.424056,14.73192 67.458776,14.6636 C67.562936,14.46088 67.407256,14.48104 67.318776,14.47432 C67.092536,14.45192 66.794616,14.68824 66.698296,14.77448 C66.600856,14.8596 66.505656,14.85064 66.469816,14.83384 C66.167416,14.68712 65.269176,14.89992 64.990296,14.4228 C65.016056,14.29512 64.760696,12.35752 64.631896,12.02376 C64.603896,11.95096 64.579256,11.8356 64.666616,11.7068 C64.895096,11.3708 65.524536,11.73144 65.866136,11.7236 C66.274936,11.7124 66.339896,11.54552 66.453016,11.41 C66.560536,11.27896 66.638936,11.35288 66.698296,11.31704 C66.772216,11.26888 66.701656,11.1748 66.728536,11.1244 C66.755416,11.07288 66.785656,11.09752 66.855096,11.03816 C66.925656,10.97656 66.845016,10.85 66.881976,10.79848 C66.981656,10.64952 67.257176,10.76824 67.092536,10.3796 C67.001816,10.16456 67.127256,9.9316 67.249336,9.77928 C67.447576,9.5284 68.213656,8.47336 66.864056,7.378 C65.577176,6.33416 64.272376,6.41816 63.431256,7.30968 C62.592376,8.2012 63.012376,9.50488 63.099736,9.84648 C63.187096,10.19032 62.935096,10.50056 62.645016,10.63496 C62.414296,10.74136 61.889016,11.08408 61.493656,11.4212 C61.556376,8.62568 63.291256,6.16616 65.949016,5.11896 C66.062136,5.25672 66.188696,5.38776 66.325336,5.51096 C66.028536,5.72376 65.382296,6.28824 65.382296,6.28824 C65.382296,6.28824 65.470776,6.30168 65.552536,6.32184 C65.609656,6.33416 65.730616,6.37 65.730616,6.37 C65.730616,6.37 66.299576,5.89624 66.566136,5.70808 C66.774456,5.86264 67.001816,5.99144 67.242616,6.0956 C67.113816,6.30952 66.790136,6.90648 66.790136,6.90648 C66.790136,6.90648 66.864056,6.95016 66.931256,6.99384 C66.998456,7.03864 67.042136,7.07672 67.042136,7.07672 C67.042136,7.07672 67.394936,6.42488 67.529336,6.20648 C67.827256,6.30392 68.136376,6.35992 68.451096,6.37224 L68.451096,7.5684 C68.277496,7.56504 67.829496,7.546 67.646936,7.52808 L67.532696,7.51688 L67.596536,7.60984 C67.644696,7.67928 67.682776,7.7476 67.715256,7.8092 L67.727576,7.83496 L67.757816,7.83832 C67.889976,7.8484 68.298776,7.86184 68.451096,7.86632 L68.451096,10.04248 L68.759096,10.04248 L68.759096,9.5452 C69.211576,9.52392 69.587896,9.49368 70.042616,9.45448 L70.062776,9.45112 L70.461496,9.10616 L70.244216,9.1252 C69.763736,9.1868 69.340376,9.2148 68.958456,9.23608 C68.958456,9.23608 68.828536,9.2428 68.759096,9.24728 L68.759096,7.86632 C69.317976,7.85512 69.876856,7.77784 70.423416,7.63784 C70.572376,7.99624 70.853496,8.86872 70.853496,8.86872 L71.144696,8.78024 C71.144696,8.78024 70.863576,7.91448 70.715736,7.55496 C71.178296,7.41496 71.625176,7.22792 72.047416,7.00056 C72.389016,7.41048 72.682456,7.85848 72.926616,8.33448 C72.707096,8.43416 72.308376,8.57192 72.308376,8.57192 C72.627576,8.60664 72.870616,8.68168 72.870616,8.68168 C72.870616,8.68168 72.983736,8.63352 73.055416,8.60216 C73.083416,8.66488 73.139416,8.79144 73.139416,8.79144 L73.538136,8.96504 L73.492216,8.8564 C73.492216,8.8564 73.360056,8.54616 73.329816,8.4756 C73.752056,8.26952 74.167576,8.03656 74.565176,7.77448 C75.321176,8.9068 75.723256,10.22168 75.723256,11.58136 C75.723256,13.83928 74.620056,15.84968 72.913176,17.12424 L72.913176,17.12424 Z M67.831736,4.66088 C67.392696,4.84792 66.973816,5.07304 66.579576,5.33736 C66.458616,5.2332 66.351096,5.12232 66.250296,5.00808 C66.761016,4.83224 67.289656,4.718 67.831736,4.66088 L67.831736,4.66088 Z M67.402776,5.84136 C67.198936,5.75736 67.010776,5.65208 66.834936,5.53 C67.234776,5.27016 67.663736,5.04952 68.112856,4.86808 C67.860856,5.17832 67.620056,5.50312 67.402776,5.84136 L67.402776,5.84136 Z M68.451096,4.92968 L68.451096,6.07432 C68.195736,6.062 67.941496,6.0172 67.696216,5.94328 C67.923576,5.59496 68.177816,5.2556 68.451096,4.92968 L68.451096,4.92968 Z M68.759096,6.3756 C69.078296,6.36104 69.391896,6.30504 69.692056,6.20648 C69.919416,6.57496 70.122136,6.96248 70.301336,7.3612 C69.796216,7.48776 69.278776,7.55832 68.759096,7.56952 L68.759096,6.3756 Z M68.759096,4.91624 C69.032376,5.2388 69.289976,5.58264 69.525176,5.94328 C69.276536,6.0172 69.018936,6.06312 68.759096,6.07432 L68.759096,4.91624 Z M70.389816,5.53 C70.211736,5.6532 70.020216,5.75736 69.820856,5.84024 C69.605816,5.5076 69.362776,5.1828 69.105176,4.86584 C69.555416,5.04616 69.985496,5.26792 70.389816,5.53 L70.389816,5.53 Z M70.969976,5.01032 C70.869176,5.12792 70.760536,5.23656 70.641816,5.33848 C70.249816,5.07528 69.833176,4.85128 69.398616,4.66536 C69.938456,4.72136 70.465976,4.83672 70.969976,5.01032 L70.969976,5.01032 Z M71.846936,6.76872 C71.449336,6.97928 71.028216,7.15064 70.598136,7.27944 C70.417816,6.87512 70.210616,6.47864 69.978776,6.09672 C70.218456,5.99256 70.444696,5.86488 70.656376,5.7092 C71.089816,6.0172 71.490776,6.3756 71.846936,6.76872 L71.846936,6.76872 Z M71.272376,5.1212 C71.863736,5.35416 72.421496,5.66888 72.934456,6.05416 C72.679096,6.26136 72.404696,6.44952 72.116856,6.61864 C71.752856,6.20984 71.341816,5.83912 70.896056,5.51432 C71.031576,5.39224 71.158136,5.2612 71.272376,5.1212 L71.272376,5.1212 Z M74.392696,7.5292 C74.013016,7.78008 73.613176,8.00744 73.198776,8.20568 C72.954616,7.72632 72.656696,7.27048 72.313976,6.84936 C72.617496,6.66792 72.907576,6.4652 73.177496,6.24344 C73.636696,6.62088 74.044376,7.05432 74.392696,7.5292 L74.392696,7.5292 Z M68.607896,4.3204 C64.517656,4.3204 61.190136,7.57736 61.190136,11.58136 C61.190136,15.58536 64.517656,18.84232 68.607896,18.84232 C72.695896,18.84232 76.024536,15.58536 76.024536,11.58136 C76.024536,7.57736 72.695896,4.3204 68.607896,4.3204 L68.607896,4.3204 Z" id="Fill-2"></path>
                        <path d="M60.519032,6.250384 L60.403672,6.351184 C59.967992,6.727504 58.974552,7.723184 59.126872,8.815184 C59.127992,8.818544 59.142552,8.891344 59.142552,8.891344 C59.143672,8.892464 59.191832,9.107504 59.191832,9.107504 L59.330712,8.984304 C59.938872,8.437744 60.396952,7.513744 60.582872,6.448624 L60.635512,6.148464 L60.519032,6.250384 Z" id="Fill-3"></path>
                        <path d="M58.500456,8.13624 L58.451176,8.2684 C58.381736,8.45096 58.255176,8.834 58.189096,9.34248 C58.095016,10.06376 58.116296,11.08408 58.755816,11.84456 C58.754696,11.84344 58.826376,11.93416 58.826376,11.93416 L58.900296,12.02712 L58.995496,11.56456 C59.100776,10.74584 58.960776,9.03112 58.655016,8.26616 L58.549736,8.00632 L58.500456,8.13624 Z" id="Fill-4"></path>
                        <path d="M57.772456,10.950128 L57.754536,11.221168 C57.700776,11.954768 57.739976,13.764688 59.237416,14.725648 C59.237416,14.726768 59.415496,14.837648 59.415496,14.837648 L59.406536,14.631568 C59.380776,13.945008 58.562056,11.894288 57.947176,11.159568 L57.772456,10.950128 Z" id="Fill-5"></path>
                        <path d="M58.021432,14.325472 L58.047192,14.449792 C58.265592,15.490272 59.273592,17.175872 60.830392,17.664192 L61.043192,17.731392 L60.967032,17.526432 C60.675832,16.748032 59.175032,14.934752 58.211832,14.336672 L57.994552,14.201152 L58.021432,14.325472 Z" id="Fill-6"></path>
                        <path d="M61.14836,7.817712 L61.02516,7.891632 C59.86596,8.582672 59.32388,9.422672 59.36532,10.457552 L59.3754,10.693872 L59.5434,10.556112 C60.1706,10.048752 60.9546,8.749552 61.18644,8.013712 L61.27044,7.743792 L61.14836,7.817712 Z" id="Fill-7"></path>
                        <path d="M60.467064,10.084144 L60.378584,10.165904 C60.081784,10.442544 59.121944,11.441584 59.204824,12.678064 C59.218264,12.868464 59.261944,13.073424 59.336984,13.286224 L59.405304,13.483344 L59.528504,13.313104 C59.987704,12.681424 60.595864,11.013744 60.563384,10.238704 L60.552184,10.002384 L60.467064,10.084144 Z" id="Fill-8"></path>
                        <path d="M60.51668,12.231072 L60.4506,12.325152 C59.96676,13.029632 59.72036,13.752032 59.73492,14.417312 C59.74836,14.910112 59.90964,15.380512 60.21204,15.818432 L60.31396,15.966272 L60.39796,15.809472 C60.60852,15.424192 60.77316,14.176512 60.74964,13.189792 C60.74068,12.840352 60.70372,12.551392 60.64548,12.355392 L60.58164,12.136992 L60.51668,12.231072 Z" id="Fill-9"></path>
                        <path d="M61.077912,14.526064 L61.047672,14.625744 C60.902072,15.082704 60.832632,15.529584 60.844952,15.952944 C60.874072,16.912784 61.306392,17.664304 62.136312,18.183984 L62.277432,18.270224 L62.307672,18.085424 C62.307672,18.082064 62.319992,17.938704 62.319992,17.938704 C62.296472,17.158064 61.702872,15.193584 61.238072,14.593264 L61.109272,14.428624 L61.077912,14.526064 Z" id="Fill-10"></path>
                        <path d="M59.444168,17.57056 L59.503528,17.66912 C60.128488,18.6928 61.186888,20.0144 63.168168,19.67504 L63.333928,19.64704 L63.239848,19.51152 C62.870248,18.9728 60.466728,17.64448 59.616648,17.50896 L59.383688,17.47088 L59.444168,17.57056 Z" id="Fill-11"></path>
                        <path d="M62.374536,20.171312 L62.063176,20.253072 L62.361096,20.372912 C63.621096,20.878032 65.200296,21.026992 66.115336,20.725712 C66.460296,20.610352 66.667496,20.425552 66.923976,20.182512 C68.534536,20.344912 70.044296,21.657552 70.923496,22.728272 C70.923496,22.729392 70.971656,22.782032 70.971656,22.782032 L71.039976,22.760752 C71.138536,22.727152 71.290856,22.611792 71.354696,22.544592 L71.416296,22.478512 L71.361416,22.406832 C70.443016,21.233072 69.006056,20.505072 68.943336,20.474832 C67.649736,19.857712 65.367176,19.377232 62.374536,20.171312" id="Fill-12"></path>
                        <path d="M62.440952,16.892512 L62.458872,16.995552 C62.647032,18.156992 63.128632,19.681312 65.133432,19.512192 L65.262232,19.503232 L65.229752,19.380032 C65.094232,18.852512 63.258552,17.316992 62.616792,16.886912 L62.424152,16.788352 L62.440952,16.892512 Z" id="Fill-13"></path>
                        <path d="M76.60828,6.148688 L76.66092,6.447728 C76.84684,7.515088 77.30492,8.437968 77.9142,8.983408 L78.05308,9.107728 C78.05308,9.107728 78.10012,8.892688 78.10012,8.890448 C78.10012,8.890448 78.1158,8.817648 78.11692,8.814288 C78.27036,7.723408 77.27692,6.727728 76.84124,6.350288 L76.72476,6.250608 L76.60828,6.148688 Z" id="Fill-14"></path>
                        <path d="M78.694952,8.006096 L78.589672,8.265936 C78.281672,9.030896 78.141672,10.745616 78.248072,11.564336 L78.343272,12.026896 L78.417192,11.935056 C78.417192,11.935056 78.488872,11.844336 78.488872,11.845456 C79.127272,11.082736 79.149672,10.063536 79.054472,9.342256 C78.988392,8.833776 78.862952,8.450736 78.794632,8.268176 L78.744232,8.136016 L78.694952,8.006096 Z" id="Fill-15"></path>
                        <path d="M79.471336,10.950688 L79.296616,11.159008 C78.682856,11.893728 77.863016,13.944448 77.837256,14.632128 L77.829416,14.838208 C77.829416,14.838208 78.005256,14.726208 78.005256,14.725088 C79.503816,13.765248 79.541896,11.955328 79.490376,11.220608 L79.480296,11.086208 L79.471336,10.950688 Z" id="Fill-16"></path>
                        <path d="M79.249352,14.201936 L79.032072,14.337456 C78.067752,14.935536 76.566952,16.747696 76.277992,17.526096 L76.199592,17.732176 L76.413512,17.663856 C77.969192,17.175536 78.978312,15.489936 79.196712,14.449456 L79.223592,14.326256 L79.249352,14.201936 Z" id="Fill-17"></path>
                        <path d="M76.032264,7.709296 L76.111784,7.979216 C76.326824,8.720656 77.085064,10.033296 77.702184,10.554096 L77.869064,10.695216 L77.882504,10.457776 C77.945224,9.424016 77.418824,8.573936 76.274184,7.859376 L76.152104,7.784336 L76.032264,7.709296 Z" id="Fill-18"></path>
                        <path d="M76.690152,10.003056 L76.681192,10.238256 C76.648712,11.014416 77.255752,12.680976 77.714952,13.312656 L77.839272,13.484016 L77.908712,13.285776 C77.981512,13.072976 78.025192,12.869136 78.038632,12.678736 C78.122632,11.442256 77.161672,10.442096 76.864872,10.165456 L76.778632,10.084816 L76.690152,10.003056 Z" id="Fill-19"></path>
                        <path d="M76.664392,12.136656 L76.598312,12.355056 C76.538952,12.551056 76.503112,12.840016 76.495272,13.189456 C76.469512,14.176176 76.636392,15.423856 76.844712,15.810256 L76.929832,15.965936 L77.032872,15.818096 C77.335272,15.381296 77.495432,14.909776 77.507752,14.416976 C77.523432,13.751696 77.278152,13.029296 76.793192,12.324816 L76.728232,12.230736 L76.664392,12.136656 Z" id="Fill-20"></path>
                        <path d="M76.132168,14.428624 L76.005608,14.593264 C75.539688,15.192464 74.946088,17.158064 74.924808,17.938704 C74.924808,17.938704 74.934888,18.082064 74.936008,18.085424 L74.966248,18.270224 L75.106248,18.183984 C75.936168,17.663184 76.370728,16.912784 76.398728,15.954064 C76.411048,15.528464 76.342728,15.082704 76.196008,14.624624 L76.163528,14.526064 L76.132168,14.428624 Z" id="Fill-21"></path>
                        <path d="M77.859432,17.471552 L77.627592,17.508512 C76.778632,17.645152 74.373992,18.973472 74.003272,19.512192 L73.910312,19.646592 L74.074952,19.675712 C76.057352,20.015072 77.115752,18.692352 77.739592,17.668672 L77.798952,17.571232 L77.859432,17.471552 Z" id="Fill-22"></path>
                        <path d="M68.301016,20.475168 C68.237176,20.504288 66.800216,21.233408 65.884056,22.407168 L65.828056,22.478848 L65.890776,22.544928 C65.953496,22.612128 66.105816,22.727488 66.204376,22.759968 L66.272696,22.782368 L66.319736,22.728608 C67.198936,21.657888 68.707576,20.345248 70.319256,20.182848 C70.574616,20.425888 70.784056,20.610688 71.130136,20.724928 C72.044056,21.027328 73.622136,20.877248 74.882136,20.373248 L75.181176,20.253408 L74.869816,20.171648 C71.876056,19.376448 69.593496,19.858048 68.301016,20.475168" id="Fill-23"></path>
                        <path d="M74.81964,16.788576 L74.62812,16.886016 C73.98524,17.317216 72.14956,18.852736 72.01404,19.380256 L71.98268,19.503456 L72.11036,19.512416 C74.11404,19.681536 74.59676,18.157216 74.78492,16.995776 L74.80284,16.892736 L74.81964,16.788576 Z" id="Fill-24"></path>
                        <path d="M23.75716,9.66112 L25.88628,9.66112 L25.88628,20.67632 L23.75716,20.67632 L23.75716,9.66112 Z M23.55668,4.8328 L26.09012,4.8328 L26.09012,7.09408 L23.55668,7.09408 L23.55668,4.8328 Z" id="Fill-25"></path>
                        <path d="M7.681576,9.670976 L9.810696,9.670976 L9.810696,20.687296 L7.726376,20.687296 L7.726376,19.062176 L7.681576,19.062176 C6.829256,20.445376 5.395656,21.015456 3.825416,21.015456 C1.471176,21.015456 0.127176,19.260416 0.127176,17.043936 L0.127176,9.670976 L2.257416,9.670976 L2.257416,16.189376 C2.257416,18.098976 2.705416,19.501216 4.744936,19.501216 C5.619656,19.501216 6.806856,19.062176 7.254856,17.923136 C7.658056,16.890496 7.681576,15.595776 7.681576,15.332576 L7.681576,9.670976 Z" id="Fill-26"></path>
                        <path d="M14.063112,11.294304 L14.109032,11.294304 C14.824712,9.912224 16.393832,9.342144 17.514952,9.342144 C18.298952,9.342144 21.774312,9.539264 21.774312,13.071744 L21.774312,20.686624 L19.645192,20.686624 L19.645192,13.752704 C19.645192,11.931584 18.860072,10.944864 17.066952,10.944864 C17.066952,10.944864 15.901032,10.878784 15.005032,11.755744 C14.691432,12.062624 14.109032,12.545344 14.109032,14.695744 L14.109032,20.686624 L11.977672,20.686624 L11.977672,9.671424 L14.063112,9.671424 L14.063112,11.294304 Z" id="Fill-27"></path>
                        <path d="M34.804728,13.204464 C34.693848,11.830224 34.026328,10.872624 32.510968,10.872624 C30.486008,10.872624 29.705368,12.592944 29.705368,15.166704 C29.705368,17.739344 30.486008,19.463024 32.510968,19.463024 C33.912088,19.463024 34.781208,18.571504 34.892088,16.997904 L37.010008,16.997904 C36.828568,19.463024 34.960408,20.966064 32.487448,20.966064 C28.903448,20.966064 27.477688,18.481904 27.477688,15.254064 C27.477688,12.045264 29.124088,9.365104 32.668888,9.365104 C35.028728,9.365104 36.809528,10.827824 36.917048,13.204464 L34.804728,13.204464 Z" id="Fill-28"></path>
                        <path d="M45.846472,14.121296 C45.891272,12.290096 45.043432,10.872176 42.994952,10.872176 C41.233192,10.872176 40.190472,12.329296 40.190472,14.121296 L45.846472,14.121296 Z M40.190472,15.558256 C40.033672,17.476816 40.835592,19.462576 42.994952,19.462576 C44.642472,19.462576 45.466792,18.832016 45.709832,17.236016 L47.939752,17.236016 C47.604872,19.724656 45.643752,20.965616 42.973672,20.965616 C39.387432,20.965616 37.960552,18.482576 37.960552,15.254736 C37.960552,12.044816 39.611432,9.365776 43.151752,9.365776 C46.490472,9.434096 48.070792,11.502736 48.070792,14.536816 L48.070792,15.558256 L40.190472,15.558256 Z" id="Fill-29"></path>
                        <path d="M50.468712,20.63936 L50.468712,11.1328 L48.544552,11.1328 L48.544552,9.69248 L50.468712,9.69248 L50.468712,7.33936 C50.538152,4.94032 52.382792,4.30864 53.965352,4.30864 C54.477192,4.30864 54.969992,4.43856 55.482952,4.5248 L55.482952,6.24736 C55.123432,6.22944 54.768392,6.18016 54.409992,6.18016 C53.210472,6.18016 52.518312,6.48928 52.583272,7.68656 L52.583272,9.69248 L55.168232,9.69248 L55.168232,11.1328 L52.583272,11.1328 L52.583272,20.63936 L50.468712,20.63936 Z" id="Fill-30"></path>
                        <path d="M93.54156,20.622112 L93.54156,10.883712 L91.29372,10.883712 L91.29372,9.686432 L93.54156,9.686432 L93.54156,7.354592 C93.54156,5.480832 94.31996,4.631872 96.23404,4.631872 C96.65684,4.631872 97.1026,4.784192 97.50356,4.871552 L97.50356,5.917632 C97.23588,5.872832 96.94692,5.830272 96.67924,5.830272 C94.8542,5.830272 94.81052,6.722912 94.8766,8.292032 L94.8766,9.686432 L97.41284,9.686432 L97.41284,10.883712 L94.8766,10.883712 L94.8766,20.622112 L93.54156,20.622112 Z" id="Fill-31"></path>
                        <path d="M103.117,10.55768 C100.42452,10.55768 99.35604,13.12808 99.35604,15.15416 C99.35604,17.18024 100.42452,19.75064 103.117,19.75064 C105.8106,19.75064 106.87908,17.18024 106.87908,15.15416 C106.87908,13.12808 105.8106,10.55768 103.117,10.55768 M108.325,15.15416 C108.325,18.0292 106.6786,20.94904 103.117,20.94904 C99.55652,20.94904 97.909,18.0292 97.909,15.15416 C97.909,12.278 99.55652,9.35928 103.117,9.35928 C106.6786,9.35928 108.325,12.278 108.325,15.15416" id="Fill-32"></path>
                        <path d="M111.601,20.622112 L110.26596,20.622112 L110.26596,12.148192 C110.28836,11.298112 110.19876,10.426752 110.15508,9.686432 L111.5338,9.686432 L111.601,11.298112 L111.6458,11.298112 C112.04676,10.187072 113.04804,9.403072 114.1602,9.359392 C114.60484,9.336992 115.0506,9.359392 115.49524,9.380672 L115.49524,10.644032 C115.22756,10.622752 114.93972,10.556672 114.67204,10.556672 C112.69188,10.556672 111.6458,11.951072 111.601,14.043232 L111.601,20.622112 Z" id="Fill-33"></path>
                        <path d="M129.15924,14.261072 C129.00356,12.147632 127.84548,10.557232 125.53156,10.557232 C123.35092,10.557232 122.19396,12.343632 122.01588,14.261072 L129.15924,14.261072 Z M121.97108,15.459472 C122.01588,17.790192 123.10564,19.750192 125.84292,19.750192 C127.42324,19.750192 128.73588,18.639152 129.06964,17.136112 L130.473,17.136112 C129.78196,19.750192 128.11316,20.948592 125.42068,20.948592 C122.08196,20.948592 120.52404,18.138512 120.52404,15.154832 C120.52404,12.191312 122.19396,9.358832 125.50916,9.358832 C129.24884,9.358832 130.60516,12.038992 130.60516,15.459472 L121.97108,15.459472 Z" id="Fill-34"></path>
                        <polygon id="Fill-35" points="132.40388 9.685872 136.25332 18.813872 139.9706 9.685872 141.43892 9.685872 137.01044 20.621552 135.49732 20.621552 130.93556 9.685872"></polygon>
                        <path d="M150.3474,14.261072 C150.19172,12.147632 149.03364,10.557232 146.71972,10.557232 C144.53908,10.557232 143.38212,12.343632 143.20404,14.261072 L150.3474,14.261072 Z M143.15924,15.459472 C143.20404,17.790192 144.2938,19.750192 147.03108,19.750192 C148.6114,19.750192 149.92404,18.639152 150.2578,17.136112 L151.66116,17.136112 C150.97012,19.750192 149.30132,20.948592 146.60884,20.948592 C143.27012,20.948592 141.7122,18.138512 141.7122,15.154832 C141.7122,12.191312 143.38212,9.358832 146.69732,9.358832 C150.437,9.358832 151.79332,12.038992 151.79332,15.459472 L143.15924,15.459472 Z" id="Fill-36"></path>
                        <path d="M155.20036,20.622112 L153.86532,20.622112 L153.86532,12.148192 C153.8866,11.298112 153.79924,10.426752 153.75444,9.686432 L155.13316,9.686432 L155.20036,11.298112 L155.24516,11.298112 C155.64612,10.187072 156.6474,9.403072 157.75956,9.359392 C158.2042,9.336992 158.64996,9.359392 159.0946,9.380672 L159.0946,10.644032 C158.82692,10.622752 158.53908,10.556672 158.2714,10.556672 C156.29124,10.556672 155.24516,11.951072 155.20036,14.043232 L155.20036,20.622112 Z" id="Fill-37"></path>
                        <polygon id="Fill-38" points="161.96628 9.685872 165.72724 18.836272 169.4658 9.685872 170.91284 9.685872 164.74724 24.804752 163.28004 24.804752 164.97012 20.621552 160.34228 9.685872"></polygon>
                        <path d="M183.64164,13.040832 C183.53076,11.363072 182.43988,10.557792 180.593,10.557792 C178.54564,10.557792 177.27668,12.648832 177.27668,15.131872 C177.27668,17.637312 178.54564,19.750752 180.593,19.750752 C182.32788,19.750752 183.53076,18.705792 183.64164,17.201632 L185.08868,17.201632 C184.73252,19.707072 183.26308,20.949152 180.72628,20.949152 C177.38756,20.949152 175.83076,18.137952 175.83076,15.154272 C175.83076,12.190752 177.49956,9.358272 180.81588,9.358272 C183.1074,9.358272 184.97668,10.710112 185.08868,13.040832 L183.64164,13.040832 Z" id="Fill-39"></path>
                        <path d="M188.28404,11.341568 L188.32884,11.341568 C189.10724,9.990848 190.3762,9.359168 191.82324,9.359168 C195.4722,9.359168 195.76228,12.517568 195.76228,13.782048 L195.76228,20.623008 L194.42612,20.623008 L194.42612,13.563648 C194.42612,11.668608 193.31284,10.557568 191.48836,10.557568 C189.28532,10.557568 188.28404,12.365248 188.28404,14.326368 L188.28404,20.623008 L186.94788,20.623008 L186.94788,4.892608 L188.28404,4.892608 L188.28404,11.341568 Z" id="Fill-40"></path>
                        <path d="M199.34516,20.62144 L198.01012,20.62144 L198.01012,9.68576 L199.34516,9.68576 L199.34516,20.62144 Z M199.45492,6.52736 L197.897,6.52736 L197.897,4.89328 L199.45492,4.89328 L199.45492,6.52736 Z" id="Fill-41"></path>
                        <polygon id="Fill-42" points="201.9626 20.62144 203.29876 20.62144 203.29876 4.89216 201.9626 4.89216"></polygon>
                        <path d="M210.1554,10.557456 C207.61748,10.557456 206.79428,12.866896 206.79428,14.957936 C206.79428,16.984016 207.39572,19.751536 209.95492,19.751536 C212.87028,19.751536 213.76068,17.377136 213.76068,14.891856 C213.76068,12.670896 212.75828,10.557456 210.1554,10.557456 L210.1554,10.557456 Z M213.80436,19.010096 L213.76068,18.922736 C212.84788,20.230896 211.49044,20.948816 209.93252,20.948816 C206.6162,20.948816 205.34836,17.855376 205.34836,15.110256 C205.34836,12.278896 206.6162,9.359056 209.93252,9.359056 C211.42324,9.359056 212.98116,10.056816 213.76068,11.341456 L213.80436,11.298896 L213.80436,4.892496 L215.14052,4.892496 L215.14052,18.160016 C215.14052,19.010096 215.2066,19.881456 215.2514,20.621776 L213.87156,20.621776 L213.80436,19.010096 Z" id="Fill-43"></path>
                        <polygon id="Fill-44" points="85.39188 27.47024 85.82084 27.47024 85.82084 0.3696 85.39188 0.3696"></polygon>
                    </g>
                </g>
            </g>
        </g>
    </g>
</svg>