<?xml version="1.0" encoding="UTF-8"?>
<svg width="59px" height="32px" viewBox="0 0 59 32" version="1.1" xmlns="http://www.w3.org/2000/svg" xmlns:xlink="http://www.w3.org/1999/xlink">
    <!-- Generator: sketchtool 64 (101010) - https://sketch.com -->
    <title>964B1579-C43F-45E6-8667-87AA95FB2FDF</title>
    <desc>Created with sketchtool.</desc>
    <g id="TIPP-(Unicef)" stroke="none" stroke-width="1" fill="none" fill-rule="evenodd">
        <g id="Login-(Unicef)" transform="translate(-118.000000, -824.000000)" fill="#FFFFFF">
            <g id="Footer" transform="translate(0.000000, 802.000000)">
                <g id="Unicef-logo-footer" transform="translate(118.000000, 22.000000)">
                    <polygon id="Fill-2" points="0.245108969 18.7154286 58.2995408 18.7154286 58.2995408 18.3993176 0.245108969 18.3993176"></polygon>
                    <path d="M1.20820707,29.6980071 L1.20820707,25.0336355 L0.15334759,25.0336355 L0.15334759,24.4593837 L1.20820707,24.4593837 L1.20820707,23.3425902 C1.20820707,22.4452908 1.57336979,22.0385084 2.47215565,22.0385084 C2.67034438,22.0385084 2.87943348,22.1113428 3.06771277,22.1534579 L3.06771277,22.6543799 C2.9423584,22.6335701 2.80610365,22.6122648 2.68124476,22.6122648 C1.82407853,22.6122648 1.80376418,23.0403524 1.83497891,23.7919832 L1.83497891,24.4593837 L3.02559766,24.4593837 L3.02559766,25.0336355 L1.83497891,25.0336355 L1.83497891,29.6980071 L1.20820707,29.6980071 Z" id="Fill-3"></path>
                    <path d="M5.70461373,24.8768187 C4.44066515,24.8768187 3.93974315,26.1080661 3.93974315,27.0786954 C3.93974315,28.0493247 4.44066515,29.2805721 5.70461373,29.2805721 C6.96806684,29.2805721 7.46948431,28.0493247 7.46948431,27.0786954 C7.46948431,26.1080661 6.96806684,24.8768187 5.70461373,24.8768187 M8.14877616,27.0786954 C8.14877616,28.456107 7.37584014,29.854824 5.70461373,29.854824 C4.03338732,29.854824 3.2604513,28.456107 3.2604513,27.0786954 C3.2604513,25.7012838 4.03338732,24.3030623 5.70461373,24.3030623 C7.37584014,24.3030623 8.14877616,25.7012838 8.14877616,27.0786954" id="Fill-4"></path>
                    <path d="M9.68805843,29.6980071 L9.06128659,29.6980071 L9.06128659,25.6386066 C9.07218697,25.2313288 9.03007187,24.814637 9.00926205,24.4593837 L9.65634823,24.4593837 L9.68805843,25.2313288 L9.70886824,25.2313288 C9.89714753,24.6996875 10.3668548,24.3236244 10.8890821,24.3033101 C11.0981712,24.2929052 11.3072603,24.3033101 11.5158539,24.3132195 L11.5158539,24.9186861 C11.3904996,24.9082812 11.2547403,24.8770664 11.1293859,24.8770664 C10.1998808,24.8770664 9.70886824,25.5449624 9.68805843,26.546311 L9.68805843,29.6980071 Z" id="Fill-5"></path>
                    <path d="M17.9287455,26.6507069 C17.8554157,25.6389534 17.3128741,24.8769178 16.2263044,24.8769178 C15.2026597,24.8769178 14.6596226,25.7325976 14.5758878,26.6507069 L17.9287455,26.6507069 Z M14.555078,27.2249587 C14.5758878,28.3412567 15.0877102,29.2806712 16.3724686,29.2806712 C17.1141899,29.2806712 17.7300613,28.7485345 17.8871259,28.028614 L18.544617,28.028614 C18.2210739,29.2806712 17.4382285,29.854923 16.1737844,29.854923 C14.6071025,29.854923 13.8757862,28.5082307 13.8757862,27.0787945 C13.8757862,25.6592678 14.6596226,24.3031614 16.2158995,24.3031614 C17.9703652,24.3031614 18.6075419,25.5869289 18.6075419,27.2249587 L14.555078,27.2249587 Z" id="Fill-6"></path>
                    <polygon id="Fill-7" points="19.45356 24.4595323 21.2605457 28.8315756 23.0046065 24.4595323 23.6943032 24.4595323 21.615799 29.6981558 20.9052924 29.6981558 18.7643587 24.4595323"></polygon>
                    <path d="M27.8771753,26.6507069 C27.8038455,25.6389534 27.2613039,24.8769178 26.1747342,24.8769178 C25.1510895,24.8769178 24.6080524,25.7325976 24.5243176,26.6507069 L27.8771753,26.6507069 Z M24.5035078,27.2249587 C24.5243176,28.3412567 25.03614,29.2806712 26.3208984,29.2806712 C27.0626197,29.2806712 27.6784911,28.7485345 27.8355557,28.028614 L28.4930468,28.028614 C28.1695037,29.2806712 27.3866583,29.854923 26.1222142,29.854923 C24.5555323,29.854923 23.824216,28.5082307 23.824216,27.0787945 C23.824216,25.6592678 24.6080524,24.3031614 26.1643293,24.3031614 C27.918795,24.3031614 28.5559717,25.5869289 28.5559717,27.2249587 L24.5035078,27.2249587 Z" id="Fill-8"></path>
                    <path d="M30.1581789,29.6980071 L29.5314071,29.6980071 L29.5314071,25.6386066 C29.5423074,25.2313288 29.5001923,24.814637 29.4793825,24.4593837 L30.1264687,24.4593837 L30.1581789,25.2313288 L30.1789887,25.2313288 C30.367268,24.6996875 30.8369753,24.3236244 31.3592026,24.3033101 C31.5682917,24.2929052 31.7773808,24.3033101 31.9859744,24.3132195 L31.9859744,24.9186861 C31.86062,24.9082812 31.7248608,24.8770664 31.5995064,24.8770664 C30.6700013,24.8770664 30.1789887,25.5449624 30.1581789,26.546311 L30.1581789,29.6980071 Z" id="Fill-9"></path>
                    <polygon id="Fill-10" points="33.3332118 24.4595323 35.0980824 28.842476 36.8530435 24.4595323 37.5318399 24.4595323 34.63878 31.7018438 33.9490833 31.7018438 34.7433246 29.6981558 32.5706807 24.4595323"></polygon>
                    <path d="M43.506239,26.0666447 C43.4542144,25.2629894 42.9423921,24.8770169 42.0748209,24.8770169 C41.1141011,24.8770169 40.5190394,25.8783654 40.5190394,27.0679932 C40.5190394,28.2680259 41.1141011,29.2807703 42.0748209,29.2807703 C42.8903675,29.2807703 43.4542144,28.7793528 43.506239,28.0599278 L44.1850353,28.0599278 C44.0180613,29.2599605 43.3288601,29.8550221 42.1377458,29.8550221 C40.571064,29.8550221 39.8397476,28.5083298 39.8397476,27.0788936 C39.8397476,25.6593669 40.623584,24.3027651 42.1798609,24.3027651 C43.2555302,24.3027651 44.1330108,24.9503467 44.1850353,26.0666447 L43.506239,26.0666447 Z" id="Fill-11"></path>
                    <path d="M45.6868104,25.2526341 L45.7076202,25.2526341 C46.0732784,24.6055479 46.6688355,24.3033101 47.3476319,24.3033101 C49.0604779,24.3033101 49.1962372,25.8159855 49.1962372,26.4214521 L49.1962372,29.6980071 L48.5694654,29.6980071 L48.5694654,26.3169075 C48.5694654,25.4092032 48.0472381,24.8770664 47.1905673,24.8770664 C46.1570131,24.8770664 45.6868104,25.7431512 45.6868104,26.6820702 L45.6868104,29.6980071 L45.0600386,29.6980071 L45.0600386,22.1638628 L45.6868104,22.1638628 L45.6868104,25.2526341 Z" id="Fill-12"></path>
                    <path d="M51.1272564,29.6980567 L50.2702104,29.6980567 L50.2702104,24.4594332 L51.1272564,24.4594332 L51.1272564,29.6980567 Z M51.1990722,22.9462623 L50.1990722,22.9462623 L50.1990722,22.1639124 L51.1990722,22.1639124 L51.1990722,22.9462623 Z" id="Fill-13"></path>
                    <polygon id="Fill-14" points="52.1101069 29.6980567 52.7368788 29.6980567 52.7368788 22.1639124 52.1101069 22.1639124"></polygon>
                    <path d="M55.95695,24.8768682 C54.7663313,24.8768682 54.3798633,25.9832568 54.3798633,26.9846053 C54.3798633,27.9552346 54.6617867,29.2806217 55.8628104,29.2806217 C57.2313035,29.2806217 57.6484908,28.1435139 57.6484908,26.9538861 C57.6484908,25.8891171 57.179279,24.8768682 55.95695,24.8768682 L55.95695,24.8768682 Z M57.6697961,28.9258639 L57.6484908,28.8842442 C57.2204032,29.5105206 56.5837219,29.8548735 55.852901,29.8548735 C54.2961285,29.8548735 53.7005714,28.3729173 53.7005714,27.0579351 C53.7005714,25.7013333 54.2961285,24.3031119 55.852901,24.3031119 C56.5525072,24.3031119 57.2833281,24.6365644 57.6484908,25.2524359 L57.6697961,25.2316261 L57.6697961,22.1641601 L58.2965679,22.1641601 L58.2965679,28.5190815 C58.2965679,28.9258639 58.3277826,29.3435466 58.3490879,29.6978089 L57.7015063,29.6978089 L57.6697961,28.9258639 Z" id="Fill-15"></path>
                    <path d="M54.0062775,10.0133086 C53.2759521,9.62535413 53.2615834,9.08776722 53.3007257,8.89007397 C53.3393725,8.68841694 53.4820684,8.77661093 53.5727397,8.77661093 C54.0523564,8.77661093 54.5572422,8.63936524 55.1790593,8.02498019 C55.8806474,7.33181513 56.1006369,5.7928797 55.0229857,4.78954928 C53.8611043,3.70743885 52.6263885,3.89670909 51.8301654,4.86882477 C51.6666597,5.06849991 51.2687958,5.21416862 50.9239474,5.20326824 C50.413116,5.18444032 50.7351727,5.57388116 50.7351727,5.65414759 C50.7351727,5.73590044 50.6573836,5.7928797 50.6122956,5.77999743 C50.438385,5.73193666 50.5082466,5.98016804 50.5082466,6.05547975 C50.5082466,6.13079147 50.4364032,6.1689428 50.3987473,6.1689428 C50.1837125,6.1689428 50.2431691,6.35573567 50.2496103,6.40776021 C50.2560514,6.45730739 50.236728,6.54401496 50.1653801,6.58266176 C50.097005,6.61982214 50.0162431,6.78332784 50.0162431,6.90868221 C50.0162431,7.13461735 50.2297914,7.2901955 50.5875221,7.54833631 C50.9422799,7.80598165 50.9878633,8.04975378 50.9943044,8.22564628 C51.001241,8.4010433 51.0180871,8.6839577 51.098849,8.87174151 C51.194475,9.09718119 51.1820882,9.51139562 50.6900847,9.52972807 C50.0880865,9.55301525 49.0193538,10.0182633 48.9286824,10.0499735 C48.5887888,10.1664093 48.1398913,10.2090199 47.7895928,10.1242942 C47.600818,9.9949761 47.4214572,9.85376664 47.2515104,9.70165679 C47.1811534,9.46729863 47.3030394,9.21609442 47.4259164,9.04614759 C47.6260871,9.24086801 47.9248566,9.22798574 48.092326,9.23393141 C48.2607864,9.24086801 49.0832696,9.11600911 49.200201,9.07785779 C49.3171323,9.04020193 49.3681659,9.05258872 49.4395139,9.07785779 C49.7531475,9.188348 50.184208,9.22154461 50.3591096,8.63936524 C50.5340111,8.05619492 50.1202921,8.21920514 50.0682676,8.24397873 C50.0162431,8.27023874 49.9448951,8.26280666 49.9706597,8.21325948 C50.0474578,8.06511341 49.9325083,8.07997756 49.8676015,8.07452737 C49.6996366,8.05867228 49.4791516,8.23159194 49.4078037,8.29402138 C49.3364557,8.3569463 49.2651078,8.35050517 49.2393433,8.3376229 C49.01539,8.23010552 48.3509623,8.38568367 48.1438551,8.03687152 C48.163674,7.94322734 47.9748992,6.52617797 47.8792732,6.2814149 C47.8584633,6.22889489 47.8401309,6.14416921 47.9045422,6.05002956 C48.0734981,5.80427555 48.5397371,6.06836202 48.7924277,6.06241636 C49.0946655,6.05448881 49.1432217,5.93210727 49.226461,5.83350838 C49.3057365,5.73689138 49.3642022,5.79139328 49.4078037,5.76513327 C49.4632965,5.72995478 49.410281,5.6610842 49.4300999,5.62392381 C49.4504143,5.58626795 49.4727105,5.60460041 49.5237441,5.56099889 C49.5757686,5.51591096 49.516312,5.42276226 49.543563,5.38560187 C49.6178837,5.27659807 49.8220181,5.36330564 49.6996366,5.07940029 C49.6322524,4.92233573 49.7254011,4.75189343 49.815577,4.6399168 C49.9627321,4.45659223 50.5290564,3.68464715 49.5306807,2.88396471 C48.5783839,2.11945171 47.6127093,2.18089021 46.9913877,2.83293111 C46.370066,3.48546748 46.6807268,4.43875524 46.7451382,4.68896851 C46.810045,4.94066819 46.6237476,5.16759427 46.4087128,5.26619316 C46.2382705,5.34398224 45.8498206,5.59469097 45.5569968,5.84143593 C45.6035711,3.79612831 46.8873386,1.9965747 48.8538662,1.23057528 C48.9376009,1.33165153 49.0307496,1.42727759 49.1323214,1.51794893 C48.9123319,1.67303161 48.4342016,2.0862551 48.4342016,2.0862551 C48.4342016,2.0862551 48.4996039,2.09616453 48.5605469,2.11053322 C48.6031575,2.11994718 48.6918469,2.14620719 48.6918469,2.14620719 C48.6918469,2.14620719 49.112998,1.79987239 49.3101957,1.66163576 C49.4642875,1.7750988 49.6327479,1.86923845 49.8111177,1.94504563 C49.7154917,2.10161472 49.4756833,2.53862086 49.4756833,2.53862086 C49.4756833,2.53862086 49.5306807,2.57033105 49.5802279,2.60253672 C49.6302705,2.63474239 49.6619807,2.66347975 49.6619807,2.66347975 C49.6619807,2.66347975 49.9240853,2.18584493 50.0226842,2.02630301 C50.2431691,2.09715548 50.4720771,2.13827964 50.7049489,2.1476936 L50.7049489,3.02319229 C50.5761262,3.01972398 50.2446556,3.00634625 50.1103827,2.99346398 L50.0251616,2.98504096 L50.0727268,3.0529206 C50.1084008,3.10345872 50.1361472,3.15350137 50.1604254,3.19908478 L50.1698393,3.21791271 L50.1921356,3.2198946 C50.2897435,3.22732667 50.5919813,3.23773158 50.7049489,3.24070441 L50.7049489,4.83265533 L50.9328659,4.83265533 L50.9328659,4.46848355 C51.2678048,4.45262845 51.5457645,4.4308277 51.8821899,4.40209033 L51.897054,4.40010844 L52.1923552,4.14741782 L52.0313269,4.1617865 C51.6755781,4.20637897 51.3634309,4.22768425 51.0805165,4.24254841 C51.0805165,4.24254841 50.984395,4.24750313 50.9328659,4.25097143 L50.9328659,3.24020894 C51.3460894,3.23178592 51.7593129,3.17629308 52.1646088,3.07373041 C52.2746036,3.335835 52.4827017,3.97350722 52.4827017,3.97350722 L52.6977365,3.90909588 C52.6977365,3.90909588 52.4896383,3.27588291 52.3806345,3.01278738 C52.7230056,2.91022472 53.0534852,2.7734745 53.366128,2.60699597 C53.6183231,2.90725188 53.8358352,3.23525422 54.0156915,3.58257996 C53.8536722,3.65541431 53.5588665,3.75698604 53.5588665,3.75698604 C53.7952065,3.7822551 53.9745673,3.836757 53.9745673,3.836757 C53.9745673,3.836757 54.0583021,3.80207397 54.1113176,3.77928227 C54.1326228,3.82486567 54.173747,3.91702343 54.173747,3.91702343 L54.4690482,4.04435968 L54.4348606,3.96458872 C54.4348606,3.96458872 54.3372527,3.73815811 54.314461,3.68613357 C54.6266082,3.53600561 54.9342962,3.36506784 55.228111,3.17381572 C55.7879942,4.00224458 56.0852772,4.96395536 56.0852772,5.95886275 C56.0852772,7.61027029 55.2687397,9.08033514 54.0062775,10.0133086 L54.0062775,10.0133086 Z M50.2466375,0.896131814 C49.9221034,1.03288203 49.6119381,1.19737867 49.3196097,1.39061268 C49.2309202,1.31381455 49.1511493,1.23354812 49.076333,1.14981338 C49.454378,1.02148618 49.8453053,0.937255974 50.2466375,0.896131814 L50.2466375,0.896131814 Z M49.9295355,1.7592437 C49.7789121,1.6978052 49.639189,1.62100707 49.5088799,1.53132667 C49.8046766,1.3410655 50.122274,1.17954169 50.4552311,1.04725072 C50.2679427,1.2741768 50.0900684,1.51200327 49.9295355,1.7592437 L49.9295355,1.7592437 Z M50.7049489,1.09233865 L50.7049489,1.93018148 C50.5156786,1.92076751 50.3283903,1.8875709 50.1465521,1.83405995 C50.3150126,1.57938744 50.5027964,1.33115606 50.7049489,1.09233865 L50.7049489,1.09233865 Z M50.9328659,2.14967549 C51.1687105,2.13927058 51.4005913,2.09864189 51.6230581,2.02630301 C51.7910231,2.29583967 51.941151,2.57924955 52.0739375,2.87108244 C51.7003517,2.96373567 51.3168566,3.01526474 50.9328659,3.02368776 L50.9328659,2.14967549 Z M50.9328659,1.08193374 C51.1350184,1.31827379 51.3252796,1.56997347 51.4996857,1.83405995 C51.3158656,1.88806637 51.125109,1.92126299 50.9328659,1.93018148 L50.9328659,1.08193374 Z M52.1388443,1.53132667 C52.0070488,1.62150254 51.8658393,1.6978052 51.7181887,1.75825276 C51.5591423,1.51547157 51.379286,1.27714963 51.1890248,1.04526883 C51.5214864,1.17706433 51.8405703,1.34007455 52.1388443,1.53132667 L52.1388443,1.53132667 Z M52.5689138,1.1512998 C52.4940976,1.23751189 52.4133357,1.31728285 52.3256372,1.39110815 C52.0357862,1.19886509 51.7276027,1.03486392 51.405546,0.898609173 C51.8058872,0.940228805 52.1953281,1.02396354 52.5689138,1.1512998 L52.5689138,1.1512998 Z M53.2169909,2.43804008 C52.9231762,2.59163634 52.6120199,2.71699071 52.292936,2.81162583 C52.1601496,2.51582916 52.0065533,2.2249872 51.8356155,1.94603658 C52.012499,1.86973392 52.179473,1.77608975 52.3360421,1.66213123 C52.6576033,1.88806637 52.9533999,2.14967549 53.2169909,2.43804008 L53.2169909,2.43804008 Z M52.7918761,1.2320617 C53.2298732,1.40299947 53.6426012,1.63289839 54.0221326,1.91482185 C53.8333579,2.06643623 53.629719,2.20417739 53.4166661,2.32754987 C53.1476249,2.02878037 52.8439007,1.75775729 52.513421,1.51993082 C52.6140018,1.43025042 52.7076459,1.33462436 52.7918761,1.2320617 L52.7918761,1.2320617 Z M55.1007748,2.99395945 C54.8203377,3.17777949 54.5240456,3.34326708 54.2173485,3.48893579 C54.0365013,3.13814175 53.8170073,2.80468922 53.5628303,2.49700123 C53.7877745,2.36371931 54.0023138,2.21557324 54.2014934,2.05355396 C54.5413871,2.32953176 54.8436249,2.64613824 55.1007748,2.99395945 L55.1007748,2.99395945 Z M50.8208893,0.646414023 C47.794052,0.646414023 45.3325481,3.02913795 45.3325481,5.95886275 C45.3325481,8.88759661 47.794052,11.2703205 50.8208893,11.2703205 C53.8457447,11.2703205 56.3082396,8.88759661 56.3082396,5.95886275 C56.3082396,3.02913795 53.8457447,0.646414023 50.8208893,0.646414023 L50.8208893,0.646414023 Z" id="Fill-16"></path>
                    <path d="M44.8360853,2.05850868 L44.7503687,2.1318385 C44.428312,2.40732083 43.6935273,3.13566439 43.8059994,3.93486041 C43.8069904,3.93733777 43.8173953,3.99035326 43.8173953,3.99035326 C43.8183862,3.9913442 43.8540602,4.14890424 43.8540602,4.14890424 L43.9571183,4.0582329 C44.4070067,3.65888262 44.745414,2.98305907 44.8831551,2.20368192 L44.9222974,1.98369243 L44.8360853,2.05850868 Z" id="Fill-17"></path>
                    <path d="M43.3427333,3.43814993 L43.3060684,3.5352624 C43.2545393,3.66854432 43.1613906,3.94848589 43.1118434,4.32108069 C43.0429728,4.84826269 43.0588279,5.59444324 43.531508,6.15085808 C43.5310126,6.15036261 43.5835326,6.21675583 43.5835326,6.21675583 L43.6385299,6.28463547 L43.7088869,5.94573275 C43.7871715,5.3472028 43.6836179,4.09266819 43.4576827,3.53328051 L43.3789027,3.34301934 L43.3427333,3.43814993 Z" id="Fill-18"></path>
                    <path d="M42.8041554,5.49723167 L42.7902822,5.69442945 C42.7511399,6.23152089 42.7793818,7.55591703 43.8872568,8.25849606 C43.8872568,8.25899153 44.0190523,8.34074438 44.0190523,8.34074438 L44.0131066,8.19012095 C43.9937832,7.68721706 43.3878212,6.1874239 42.9329781,5.64983699 L42.8041554,5.49723167 Z" id="Fill-19"></path>
                    <path d="M42.9879755,7.9659695 L43.0068034,8.05664084 C43.1688227,8.81768554 43.9145077,10.0514103 45.0664797,10.40815 L45.2240397,10.4576972 L45.1670605,10.3075693 C44.9520257,9.73827216 43.8416734,8.41189413 43.1286895,7.97439252 L42.9681566,7.87529816 L42.9879755,7.9659695 Z" id="Fill-20"></path>
                    <path d="M45.3018288,3.20507999 L45.210662,3.25908642 C44.3530003,3.76496313 43.9516681,4.3788527 43.9828829,5.1364291 L43.9903149,5.30934876 L44.1146784,5.20777704 C44.57844,4.83666865 45.1586375,3.8868492 45.3305662,3.34827134 L45.3925001,3.15107356 L45.3018288,3.20507999 Z" id="Fill-21"></path>
                    <path d="M44.7974385,4.86317639 L44.7320362,4.92263301 C44.5125422,5.12528098 43.8025311,5.8561019 43.8639696,6.76083342 C43.8738791,6.90055647 43.9055892,7.04969349 43.9615776,7.2057671 L44.0116202,7.3499494 L44.1032825,7.22558598 C44.4431762,6.76331078 44.8930646,5.54345919 44.868291,4.9756485 L44.8608589,4.80371978 L44.7974385,4.86317639 Z" id="Fill-22"></path>
                    <path d="M44.8345989,6.43372293 L44.7855472,6.50259351 C44.4278165,7.01738872 44.2449874,7.54655261 44.2563833,8.03310593 C44.2657973,8.39380941 44.385206,8.73816231 44.6096547,9.05774163 L44.6844709,9.16624996 L44.7469004,9.0513005 C44.9024785,8.76987251 45.0248601,7.85671797 45.0070231,7.13481554 C45.0000865,6.87964756 44.973331,6.6680811 44.9297295,6.52439427 L44.8826597,6.36485235 L44.8345989,6.43372293 Z" id="Fill-23"></path>
                    <path d="M45.2498043,8.1126787 L45.227508,8.18551306 C45.1199907,8.51995653 45.0684616,8.84647245 45.0773801,9.15713327 C45.0986854,9.85872136 45.4187602,10.4081996 46.0331452,10.7887219 L46.1371943,10.8521423 L46.1594905,10.7163831 C46.1594905,10.7139057 46.1689045,10.6088657 46.1689045,10.6088657 C46.151563,10.0385776 45.711584,8.60071843 45.368222,8.16222588 L45.2730914,8.04133076 L45.2498043,8.1126787 Z" id="Fill-24"></path>
                    <path d="M44.0408531,10.3399236 L44.08495,10.4122625 C44.5472252,11.1614158 45.3305662,12.1275859 46.7961718,11.8793545 L46.9185533,11.8590401 L46.8491873,11.7594503 C46.5756868,11.3655502 44.796943,10.3944255 44.1681893,10.2948356 L43.9962606,10.2670892 L44.0408531,10.3399236 Z" id="Fill-25"></path>
                    <path d="M46.2090377,12.2424858 L45.9791388,12.3024379 L46.1996237,12.3901364 C47.1311107,12.7592629 48.2994332,12.8687621 48.9767432,12.6477817 C49.2319112,12.5635515 49.3855074,12.4287832 49.5752732,12.2509088 C50.7668829,12.369822 51.8836763,13.3295509 52.5347263,14.1128918 C52.5347263,14.1138828 52.5694093,14.1525296 52.5694093,14.1525296 L52.6199474,14.1366745 C52.6932772,14.1123964 52.8057493,14.0281662 52.8533146,13.978619 L52.898898,13.9305582 L52.8577739,13.8780382 C52.1789775,13.0193856 51.1151995,12.4862579 51.0691207,12.4649526 C50.1118691,12.0130823 48.4228057,11.6612973 46.2090377,12.2424858" id="Fill-26"></path>
                    <path d="M46.2580894,9.84380765 L46.2714671,9.91911937 C46.4106947,10.7688535 46.7669389,11.8841606 48.2503815,11.7607881 L48.3450167,11.7538515 L48.321234,11.6636756 C48.2211487,11.2777031 46.862565,10.1549639 46.387903,9.83934841 L46.2452071,9.76800047 L46.2580894,9.84380765 Z" id="Fill-27"></path>
                    <path d="M56.740291,1.98408881 L56.7794332,2.20308735 C56.9171744,2.98345545 57.2555817,3.65878352 57.706461,4.0581338 L57.8090237,4.14830967 C57.8090237,4.14830967 57.8442022,3.99124511 57.8442022,3.99025416 C57.8442022,3.99025416 57.855598,3.93674321 57.856589,3.93426585 C57.970052,3.13606077 57.2347718,2.40771721 56.9127152,2.13173941 L56.8265031,2.05890505 L56.740291,1.98408881 Z" id="Fill-28"></path>
                    <path d="M58.2841811,3.3428707 L58.2063921,3.5326364 C57.978475,4.09251954 57.8749214,5.34705416 57.953206,5.94607958 L58.023563,6.28399135 L58.0790558,6.21710266 C58.0790558,6.21710266 58.1315758,6.15070944 58.1315758,6.15120491 C58.6042559,5.5942946 58.6206065,4.84811405 58.5502495,4.32043658 C58.5007023,3.94833725 58.4085446,3.66839568 58.357511,3.53461829 L58.3203506,3.43800129 L58.2841811,3.3428707 Z" id="Fill-29"></path>
                    <path d="M58.858433,5.49703348 L58.7291148,5.6496388 C58.2752626,6.18722571 57.6683097,7.68751434 57.6494817,8.19041823 L57.6440316,8.34104166 C57.6440316,8.34104166 57.7738452,8.25928881 57.7738452,8.25879334 C58.8827111,7.55571884 58.910953,6.23181817 58.8723062,5.69472673 L58.8648741,5.59563237 L58.858433,5.49703348 Z" id="Fill-30"></path>
                    <path d="M58.6944318,7.8755459 L58.5334034,7.97414479 C57.8204195,8.41214186 56.7100672,9.73802442 56.4955279,10.3073215 L56.4380532,10.457945 L56.5966041,10.4083978 C57.7475852,10.0506671 58.4932702,8.81793327 58.6552895,8.05688858 L58.6756039,7.96621724 L58.6944318,7.8755459 Z" id="Fill-31"></path>
                    <path d="M56.3141852,3.12575495 L56.3731464,3.3234482 C56.5321928,3.86598983 57.0930669,4.8262142 57.5493964,5.20673655 L57.6732644,5.30979468 L57.6831738,5.13637955 C57.7292527,4.38028957 57.3403073,3.75847245 56.493546,3.23574969 L56.4028747,3.18075232 L56.3141852,3.12575495 Z" id="Fill-32"></path>
                    <path d="M56.8007385,4.80386842 L56.7938019,4.97629261 C56.7705148,5.54360783 57.2189167,6.76296395 57.5588104,7.22523915 L57.6504727,7.35009804 L57.7020018,7.20591575 C57.7565037,7.04934665 57.7887093,6.90070511 57.7981233,6.76098206 C57.8605527,5.85625054 57.1500462,5.12493415 56.9300567,4.92278165 L56.8661408,4.86332504 L56.8007385,4.80386842 Z" id="Fill-33"></path>
                    <path d="M56.7819106,6.36465416 L56.7328589,6.52419609 C56.6887619,6.66788291 56.6625019,6.87944937 56.6565562,7.13461735 C56.6382238,7.85651978 56.7611008,8.76967432 56.9151925,9.05209325 L56.9786129,9.16605177 L57.0544201,9.05803891 C57.2783734,8.73796413 57.3967911,8.39361122 57.4057096,8.03340321 C57.4176009,7.54635443 57.2357628,7.01768601 56.8770412,6.5028908 L56.8294759,6.43352474 L56.7819106,6.36465416 Z" id="Fill-34"></path>
                    <path d="M56.3880105,8.04138031 L56.2943663,8.16177996 C55.9500134,8.60076798 55.5100345,10.0381317 55.4941794,10.6089152 C55.4941794,10.6089152 55.5026024,10.7144507 55.5030979,10.7169281 L55.5253941,10.8516964 L55.6294432,10.7887715 C56.2428373,10.4077537 56.564894,9.8587709 56.5852083,9.15718282 C56.5941268,8.84602653 56.5440841,8.5195106 56.4350803,8.18506713 L56.4112977,8.11272825 L56.3880105,8.04138031 Z" id="Fill-35"></path>
                    <path d="M57.6658323,10.2673865 L57.4948945,10.2946375 C56.8661408,10.3942273 55.0869015,11.3658475 54.8129056,11.7597476 L54.7440351,11.858842 L54.8664166,11.8796518 C56.3330131,12.1278831 57.1158586,11.1607222 57.5771429,10.4115688 L57.6212398,10.3402209 L57.6658323,10.2673865 Z" id="Fill-36"></path>
                    <path d="M50.5939632,12.4647544 C50.5468934,12.4860597 49.4836109,13.0196829 48.80531,13.8783355 L48.7641858,13.9308555 L48.8102647,13.9789163 C48.8573345,14.027968 48.9693111,14.1121982 49.0431364,14.1364763 L49.0931791,14.1523314 C49.0931791,14.1523314 49.1278621,14.1136846 49.1278621,14.1131891 C49.7784166,13.3298482 50.89521,12.3696238 52.0873152,12.2507106 C52.27609,12.428585 52.4306772,12.5633533 52.6868361,12.6475835 C53.3631551,12.8685639 54.5314777,12.7590647 55.4634601,12.3899382 L55.6839451,12.3027351 L55.4540462,12.2422876 C53.2387917,11.6610992 51.5502238,12.0133796 50.5939632,12.4647544" id="Fill-37"></path>
                    <path d="M55.4168858,9.76780228 L55.2746854,9.83964569 C54.7995279,10.1547658 53.4414397,11.2775049 53.3413544,11.6639729 L53.3180672,11.7536533 L53.4122068,11.7605899 C54.895154,11.8839624 55.2518937,10.7691508 55.3916167,9.91941665 L55.4049944,9.84360947 L55.4168858,9.76780228 Z" id="Fill-38"></path>
                    <path d="M17.6366649,4.55385335 L19.2122653,4.55385335 L19.2122653,12.6122068 L17.6366649,12.6122068 L17.6366649,4.55385335 Z M17.4885188,1.02163482 L19.3628887,1.02163482 L19.3628887,2.67551972 L17.4885188,2.67551972 L17.4885188,1.02163482 Z" id="Fill-39"></path>
                    <path d="M5.74276506,4.5608395 L7.31836541,4.5608395 L7.31836541,12.6201839 L5.7754662,12.6201839 L5.7754662,11.4315471 L5.74276506,11.4315471 C5.11202945,12.4433005 4.05122431,12.8599923 2.88934292,12.8599923 C1.14825498,12.8599923 0.152852118,11.5757294 0.152852118,9.9545456 L0.152852118,4.5608395 L1.72944341,4.5608395 L1.72944341,9.32926018 C1.72944341,10.7259952 2.06091405,11.7526128 3.57012118,11.7526128 C4.21720736,11.7526128 5.09567888,11.4315471 5.42714952,10.597668 C5.72492807,9.84256897 5.74276506,8.89522688 5.74276506,8.70298382 L5.74276506,4.5608395 Z" id="Fill-40"></path>
                    <path d="M10.4643141,5.74843587 L10.4980062,5.74843587 C11.0276656,4.73717791 12.1890515,4.32048612 13.0184713,4.32048612 C13.5986688,4.32048612 16.1691765,4.46466842 16.1691765,7.04904937 L16.1691765,12.6196389 L14.5940716,12.6196389 L14.5940716,7.54699854 C14.5940716,6.21467485 14.0138741,5.49277242 12.6870006,5.49277242 C12.6870006,5.49277242 11.8238888,5.44471166 11.1609475,6.08585218 C10.9290667,6.31079638 10.4980062,6.6635723 10.4980062,8.23719077 L10.4980062,12.6196389 L8.9214149,12.6196389 L8.9214149,4.56128542 L10.4643141,4.56128542 L10.4643141,5.74843587 Z" id="Fill-41"></path>
                    <path d="M25.8106615,7.14586456 C25.7284132,6.14005679 25.2344278,5.43995513 24.1131751,5.43995513 C22.6153638,5.43995513 22.0376437,6.69795805 22.0376437,8.58124639 C22.0376437,10.4635438 22.6153638,11.7240241 24.1131751,11.7240241 C25.1501976,11.7240241 25.7928245,11.0719832 25.8750729,9.92149763 L27.4422502,9.92149763 C27.3084728,11.7240241 25.9261065,12.8239715 24.0963291,12.8239715 C21.4440685,12.8239715 20.3897045,11.0065809 20.3897045,8.64516226 C20.3897045,6.2981123 21.6075742,4.33753035 24.2306019,4.33753035 C25.9766446,4.33753035 27.2936086,5.40774946 27.3733796,7.14586456 L25.8106615,7.14586456 Z" id="Fill-42"></path>
                    <path d="M33.9801989,7.8165352 C34.0133955,6.47727491 33.3856327,5.44025241 31.8699845,5.44025241 C30.5668936,5.44025241 29.7949485,6.5055168 29.7949485,7.8165352 L33.9801989,7.8165352 Z M29.7949485,8.86792638 C29.6795036,10.271598 30.2730788,11.7243214 31.8699845,11.7243214 C33.0898361,11.7243214 33.6992664,11.2625416 33.8796181,10.0947146 L35.5290438,10.0947146 C35.2808124,11.9160689 33.8305664,12.8232778 31.8551203,12.8232778 C29.2013733,12.8232778 28.1450274,11.0068782 28.1450274,8.64545954 C28.1450274,6.29741864 29.3673564,4.33733216 31.9864203,4.33733216 C34.4568428,4.38737482 35.6261562,5.90104119 35.6261562,8.12025942 L35.6261562,8.86792638 L29.7949485,8.86792638 Z" id="Fill-43"></path>
                    <path d="M37.400094,12.5848568 L37.400094,5.63090996 L35.9766034,5.63090996 L35.9766034,4.57654595 L37.400094,4.57654595 L37.400094,2.85527689 C37.451623,1.10031575 38.8166479,0.638040549 39.9873982,0.638040549 C40.3654432,0.638040549 40.7301104,0.733171136 41.1096418,0.796591528 L41.1096418,2.05608086 C40.8435735,2.04270313 40.5809734,2.00752463 40.3163915,2.00752463 C39.4280105,2.00752463 38.9166836,2.23345977 38.9647444,3.10895846 L38.9647444,4.57654595 L40.8772656,4.57654595 L40.8772656,5.63090996 L38.9647444,5.63090996 L38.9647444,12.5848568 L37.400094,12.5848568 Z" id="Fill-44"></path>
                </g>
            </g>
        </g>
    </g>
</svg>
