<?xml version="1.0" encoding="UTF-8"?>
<svg width="112px" height="112px" viewBox="0 0 112 112" version="1.1" xmlns="http://www.w3.org/2000/svg" xmlns:xlink="http://www.w3.org/1999/xlink">
    <!-- Generator: sketchtool 64 (101010) - https://sketch.com -->
    <title>76257554-C4F5-4983-B438-6C802433F705</title>
    <desc>Created with sketchtool.</desc>
    <g id="TIPP-(Unicef)" stroke="none" stroke-width="1" fill="none" fill-rule="evenodd">
        <g id="Login-(Unicef)" transform="translate(-116.000000, 0.000000)">
            <g id="Top-navigation-bar-(logged-out)">
                <g id="Upper">
                    <g>
                        <g id="Unicef-logo-banner" transform="translate(116.000000, 0.000000)">
                            <polygon id="Fill-1" fill="#00AEEF" points="0 111.562307 111.661252 111.562307 111.661252 0 0 0"></polygon>
                            <polygon id="Fill-2" fill="#FFFFFF" points="15.1323681 77.728 95.641816 77.728 95.641816 77.2896196 15.1323681 77.2896196"></polygon>
                            <path d="M16.4679853,92.9585571 L16.4679853,86.4900417 L15.0051141,86.4900417 L15.0051141,85.6936736 L16.4679853,85.6936736 L16.4679853,84.1449129 C16.4679853,82.9005448 16.9743902,82.3364221 18.2208196,82.3364221 C18.4956663,82.3364221 18.7856294,82.4374282 19.0467337,82.4958331 L19.0467337,83.190508 C18.8728933,83.1616491 18.6839362,83.1321031 18.5107828,83.1321031 C17.3220712,83.1321031 17.2938994,83.7257718 17.3371877,84.7681276 L17.3371877,85.6936736 L18.9883288,85.6936736 L18.9883288,86.4900417 L17.3371877,86.4900417 L17.3371877,92.9585571 L16.4679853,92.9585571 Z" id="Fill-3" fill="#FFFFFF"></path>
                            <path d="M22.7035681,86.2725693 C20.9507337,86.2725693 20.2560589,87.980054 20.2560589,89.3261153 C20.2560589,90.6721767 20.9507337,92.3796613 22.7035681,92.3796613 C24.4557153,92.3796613 25.1510773,90.6721767 25.1510773,89.3261153 C25.1510773,87.980054 24.4557153,86.2725693 22.7035681,86.2725693 M26.0931141,89.3261153 C26.0931141,91.2362994 25.0212123,93.1760294 22.7035681,93.1760294 C20.3859239,93.1760294 19.3140221,91.2362994 19.3140221,89.3261153 C19.3140221,87.4159313 20.3859239,85.4768883 22.7035681,85.4768883 C25.0212123,85.4768883 26.0931141,87.4159313 26.0931141,89.3261153" id="Fill-4" fill="#FFFFFF"></path>
                            <path d="M28.2277791,92.9585571 L27.3585767,92.9585571 L27.3585767,87.329011 C27.3736933,86.7642012 27.3152883,86.1863362 27.2864294,85.6936736 L28.1838037,85.6936736 L28.2277791,86.7642012 L28.256638,86.7642012 C28.5177423,86.0269252 29.1691288,85.5054037 29.8933497,85.4772319 C30.1833129,85.4628025 30.4732761,85.4772319 30.7625521,85.4909742 L30.7625521,86.3306307 C30.5887117,86.3162012 30.4004417,86.2729129 30.2266012,86.2729129 C28.9375706,86.2729129 28.256638,87.199146 28.2277791,88.5878086 L28.2277791,92.9585571 Z" id="Fill-5" fill="#FFFFFF"></path>
                            <path d="M39.6559018,88.732584 C39.5542086,87.329492 38.801816,86.2727067 37.2949693,86.2727067 C35.8753865,86.2727067 35.1223067,87.4593571 35.006184,88.732584 L39.6559018,88.732584 Z M34.9773252,89.5289521 C35.006184,91.0770258 35.7159755,92.3797988 37.4976687,92.3797988 C38.5262822,92.3797988 39.3803681,91.6418356 39.598184,90.6434552 L40.5099877,90.6434552 C40.0613006,92.3797988 38.9756564,93.1761669 37.222135,93.1761669 C35.0494724,93.1761669 34.0352883,91.308584 34.0352883,89.3262528 C34.0352883,87.3576638 35.1223067,85.4770258 37.2805399,85.4770258 C39.7136196,85.4770258 40.5972515,87.2573448 40.5972515,89.5289521 L34.9773252,89.5289521 Z" id="Fill-6" fill="#FFFFFF"></path>
                            <polygon id="Fill-7" fill="#FFFFFF" points="41.7705031 85.6938798 44.2764172 91.7569963 46.6950675 85.6938798 47.6515337 85.6938798 44.7690798 92.9587632 43.7837546 92.9587632 40.8147239 85.6938798"></polygon>
                            <path d="M53.4523092,88.732584 C53.350616,87.329492 52.5982233,86.2727067 51.0913767,86.2727067 C49.6717939,86.2727067 48.9187141,87.4593571 48.8025914,88.732584 L53.4523092,88.732584 Z M48.7737325,89.5289521 C48.8025914,91.0770258 49.5123828,92.3797988 51.2940761,92.3797988 C52.3226896,92.3797988 53.1767755,91.6418356 53.3945914,90.6434552 L54.3063951,90.6434552 C53.857708,92.3797988 52.7720638,93.1761669 51.0185423,93.1761669 C48.8458798,93.1761669 47.8316957,91.308584 47.8316957,89.3262528 C47.8316957,87.3576638 48.9187141,85.4770258 51.0769472,85.4770258 C53.510027,85.4770258 54.3936589,87.2573448 54.3936589,89.5289521 L48.7737325,89.5289521 Z" id="Fill-8" fill="#FFFFFF"></path>
                            <path d="M56.6155877,92.9585571 L55.7463853,92.9585571 L55.7463853,87.329011 C55.7615018,86.7642012 55.7030969,86.1863362 55.674238,85.6936736 L56.5716123,85.6936736 L56.6155877,86.7642012 L56.6444466,86.7642012 C56.9055509,86.0269252 57.5569374,85.5054037 58.2811583,85.4772319 C58.5711215,85.4628025 58.8610847,85.4772319 59.1503607,85.4909742 L59.1503607,86.3306307 C58.9765202,86.3162012 58.7882503,86.2729129 58.6144098,86.2729129 C57.3253791,86.2729129 56.6444466,87.199146 56.6155877,88.5878086 L56.6155877,92.9585571 Z" id="Fill-9" fill="#FFFFFF"></path>
                            <polygon id="Fill-10" fill="#FFFFFF" points="61.0186994 85.6938798 63.4662086 91.7721129 65.8999755 85.6938798 66.8413252 85.6938798 62.8292515 95.7374626 61.8727853 95.7374626 62.9742331 92.9587632 59.961227 85.6938798"></polygon>
                            <path d="M75.1265767,87.922611 C75.0544294,86.808108 74.344638,86.2728442 73.1414969,86.2728442 C71.8091779,86.2728442 70.9839509,87.6615067 70.9839509,89.3112736 C70.9839509,90.9754699 71.8091779,92.3799362 73.1414969,92.3799362 C74.2724908,92.3799362 75.0544294,91.6845742 75.1265767,90.686881 L76.0679264,90.686881 C75.8363681,92.3510773 74.880589,93.1763043 73.2287607,93.1763043 C71.0560982,93.1763043 70.0419141,91.3087215 70.0419141,89.3263902 C70.0419141,87.3578012 71.1289325,85.4764761 73.2871656,85.4764761 C74.7788957,85.4764761 75.9957791,86.3745374 76.0679264,87.922611 L75.1265767,87.922611 Z" id="Fill-11" fill="#FFFFFF"></path>
                            <path d="M78.1505767,86.7937472 L78.1794356,86.7937472 C78.6865276,85.896373 79.5124417,85.4772319 80.4537914,85.4772319 C82.8291534,85.4772319 83.0174233,87.5749988 83.0174233,88.4146552 L83.0174233,92.9585571 L82.1482209,92.9585571 L82.1482209,88.2696736 C82.1482209,87.0108761 81.424,86.2729129 80.2359755,86.2729129 C78.8026503,86.2729129 78.1505767,87.4739926 78.1505767,88.7760785 L78.1505767,92.9585571 L77.2813742,92.9585571 L77.2813742,82.5102626 L78.1505767,82.5102626 L78.1505767,86.7937472 Z" id="Fill-12" fill="#FFFFFF"></path>
                            <path d="M85.3888703,92.9586258 L84.4833121,92.9586258 L84.4833121,85.6937423 L85.3888703,85.6937423 L85.3888703,92.9586258 Z M85.464751,83.5952883 L84.4081472,83.5952883 L84.4081472,82.5103313 L85.464751,82.5103313 L85.464751,83.5952883 Z" id="Fill-13" fill="#FFFFFF"></path>
                            <polygon id="Fill-14" fill="#FFFFFF" points="87.0583558 92.9586258 87.9275583 92.9586258 87.9275583 82.5103313 87.0583558 82.5103313"></polygon>
                            <path d="M92.3931288,86.272638 C90.7419877,86.272638 90.2060368,87.8069693 90.2060368,89.1956319 C90.2060368,90.5416933 90.5970061,92.3797301 92.2625767,92.3797301 C94.1603926,92.3797301 94.7389448,90.8027975 94.7389448,89.1530307 C94.7389448,87.6764172 94.0882454,86.272638 92.3931288,86.272638 L92.3931288,86.272638 Z M94.7684908,91.8877546 L94.7389448,91.8300368 C94.1452761,92.6985521 93.2623313,93.1760982 92.2488344,93.1760982 C90.0899141,93.1760982 89.264,91.1209325 89.264,89.2973252 C89.264,87.416 90.0899141,85.4769571 92.2488344,85.4769571 C93.2190429,85.4769571 94.2325399,85.9393865 94.7389448,86.7934724 L94.7684908,86.7646135 L94.7684908,82.5106748 L95.6376933,82.5106748 L95.6376933,91.3236319 C95.6376933,91.8877546 95.6809816,92.4669939 95.7105276,92.9582822 L94.8124663,92.9582822 L94.7684908,91.8877546 Z" id="Fill-15" fill="#FFFFFF"></path>
                            <path d="M89.6879509,65.6599656 C88.6751411,65.1219534 88.6552147,64.3764319 88.7094969,64.1022724 C88.763092,63.822616 88.9609816,63.9449227 89.0867239,63.9449227 C89.7518528,63.9449227 90.4520245,63.7545914 91.3143558,62.9025669 C92.2873129,61.9412908 92.5923926,59.8071067 91.0979141,58.4156957 C89.4866258,56.9150331 87.7743313,57.1775117 86.670135,58.5256344 C86.4433865,58.8025423 85.8916319,59.0045546 85.4133988,58.989438 C84.7049816,58.9633276 85.1516074,59.5034012 85.1516074,59.6147141 C85.1516074,59.7280883 85.0437301,59.8071067 84.9812025,59.7892417 C84.7400245,59.7225914 84.836908,60.0668368 84.836908,60.1712785 C84.836908,60.2757202 84.7372761,60.3286282 84.6850552,60.3286282 C84.3868466,60.3286282 84.4693006,60.5876712 84.4782331,60.6598184 C84.4871656,60.7285301 84.4603681,60.8487755 84.3614233,60.9023706 C84.2666012,60.9539043 84.1546012,61.1806528 84.1546012,61.3544933 C84.1546012,61.6678184 84.4507485,61.883573 84.9468466,62.2415607 C85.4388221,62.5988613 85.5020368,62.9369227 85.5109693,63.1808491 C85.520589,63.4240883 85.5439509,63.8164319 85.6559509,64.0768491 C85.7885644,64.3894871 85.7713865,64.9639166 85.0890798,64.9893399 C84.2542331,65.0216344 82.7721227,65.6668368 82.6463804,65.7108123 C82.1750184,65.8722847 81.5524908,65.9313767 81.0666994,65.8138798 C80.804908,65.6345423 80.5561718,65.4387141 80.3204908,65.2277693 C80.2229202,64.9027632 80.3919509,64.5543951 80.5623558,64.3187141 C80.8399509,64.5887509 81.2542822,64.5708859 81.4865276,64.5791313 C81.7201472,64.5887509 82.8607607,64.4155975 83.0229202,64.3626896 C83.1850798,64.3104687 83.2558528,64.3276466 83.3547975,64.3626896 C83.7897423,64.5159166 84.3875337,64.5619534 84.6300859,63.7545914 C84.872638,62.9458552 84.2988957,63.1719166 84.2267485,63.2062724 C84.1546012,63.2426896 84.0556564,63.2323828 84.0913865,63.1636712 C84.1978896,62.9582233 84.0384785,62.9788368 83.9484663,62.9712785 C83.7155337,62.9492908 83.4097669,63.1890945 83.3108221,63.2756712 C83.2118773,63.362935 83.1129325,63.3540025 83.0772025,63.3361374 C82.7666258,63.1870331 81.8452025,63.4027877 81.5579877,62.9190577 C81.5854724,62.7891926 81.323681,60.8240393 81.1910675,60.4846037 C81.1622086,60.4117693 81.1367853,60.2942724 81.2261104,60.1637202 C81.4604172,59.8229104 82.1069939,60.1891436 82.4574233,60.1808982 C82.8765644,60.1699043 82.9439018,60.0001865 83.0593374,59.8634503 C83.1692761,59.7294626 83.2503558,59.8050454 83.3108221,59.7686282 C83.3877791,59.7198429 83.3142577,59.6243337 83.3417423,59.5728 C83.3699141,59.5205791 83.4008344,59.5460025 83.4716074,59.4855362 C83.5437546,59.4230086 83.4613006,59.2938307 83.499092,59.2422969 C83.6021595,59.0911313 83.8852515,59.2113767 83.7155337,58.8176589 C83.6220859,58.5998429 83.7512638,58.3634748 83.876319,58.2081865 C84.0803926,57.9539534 84.8657669,56.8834258 83.481227,55.7730454 C82.160589,54.7128245 80.8213988,54.798027 79.9597546,55.7022724 C79.0981104,56.6072049 79.5289325,57.9292172 79.6182577,58.276211 C79.7082699,58.6252663 79.4499141,58.9399656 79.1517055,59.0767018 C78.9153374,59.1845791 78.376638,59.5322601 77.9705521,59.8744442 C78.0351411,57.038027 79.8154601,54.5424196 82.5426258,53.4801374 C82.6587485,53.6203092 82.7879264,53.7529227 82.9287853,53.878665 C82.6237055,54.0937325 81.960638,54.6667877 81.960638,54.6667877 C81.960638,54.6667877 82.0513374,54.6805301 82.1358528,54.7004564 C82.1949448,54.7135117 82.3179387,54.7499288 82.3179387,54.7499288 C82.3179387,54.7499288 82.9019877,54.2696344 83.1754601,54.0779288 C83.3891534,54.2352785 83.622773,54.3658307 83.870135,54.4709595 C83.7375215,54.6880883 83.4049571,55.2941252 83.4049571,55.2941252 C83.4049571,55.2941252 83.481227,55.3381006 83.5499387,55.3827632 C83.6193374,55.4274258 83.6633129,55.4672785 83.6633129,55.4672785 C83.6633129,55.4672785 84.0267975,54.8048982 84.1635337,54.5836466 C84.4693006,54.6819043 84.7867485,54.738935 85.1096933,54.7519902 L85.1096933,55.9661252 C84.9310429,55.9613153 84.471362,55.9427632 84.2851534,55.9248982 L84.1669693,55.9132172 L84.2329325,56.0073521 C84.2824049,56.077438 84.3208834,56.1468368 84.3545521,56.2100515 L84.3676074,56.236162 L84.3985276,56.2389104 C84.5338896,56.2492172 84.9530307,56.2636466 85.1096933,56.2677693 L85.1096933,58.4754748 L85.4257669,58.4754748 L85.4257669,57.9704442 C85.8902577,57.9484564 86.2757301,57.9182233 86.7422822,57.8783706 L86.7628957,57.8756221 L87.1724172,57.5251926 L86.9491043,57.545119 C86.4557546,57.6069595 86.0228712,57.6365055 85.6305276,57.657119 C85.6305276,57.657119 85.497227,57.6639902 85.4257669,57.6688 L85.4257669,56.2670822 C85.9988221,56.2554012 86.5718773,56.1784442 87.1339387,56.036211 C87.2864785,56.3996957 87.5750675,57.2840147 87.5750675,57.2840147 L87.8732761,57.1946896 C87.8732761,57.1946896 87.5846871,56.3165546 87.4335215,55.9516957 C87.908319,55.8094626 88.3666258,55.6198184 88.8001963,55.3889472 C89.1499387,55.8053399 89.4515828,56.260211 89.7010061,56.7418798 C89.476319,56.8428859 89.0674847,56.9837448 89.0674847,56.9837448 C89.3952393,57.0187877 89.6439755,57.0943706 89.6439755,57.0943706 C89.6439755,57.0943706 89.7600982,57.0462724 89.8336196,57.014665 C89.8631656,57.0778798 89.9201963,57.2056834 89.9201963,57.2056834 L90.3297178,57.3822724 L90.2823067,57.2716466 C90.2823067,57.2716466 90.1469448,56.9576344 90.1153374,56.8854871 C90.5482209,56.6772908 90.9749202,56.4402356 91.3823804,56.1750086 C92.1588221,57.3238675 92.571092,58.6575607 92.571092,60.0372908 C92.571092,62.3274503 91.4387239,64.3661252 89.6879509,65.6599656 L89.6879509,65.6599656 Z M84.4741104,53.0163337 C84.0240491,53.2059779 83.5939141,53.4341006 83.1885153,53.7020761 C83.0655215,53.595573 82.9548957,53.4842601 82.8511411,53.3681374 C83.375411,53.1901742 83.917546,53.0733644 84.4741104,53.0163337 L84.4741104,53.0163337 Z M84.0343558,54.2132908 C83.8254724,54.1280883 83.6317055,54.0215853 83.4509939,53.8972172 C83.8612025,53.6333644 84.3016442,53.4093644 84.7633865,53.2259043 C84.5036564,53.5406037 84.2569816,53.8704196 84.0343558,54.2132908 L84.0343558,54.2132908 Z M85.1096933,53.2884319 L85.1096933,54.450346 C84.8472147,54.4372908 84.5874847,54.391254 84.3353129,54.3170454 C84.5689325,53.9638675 84.8293497,53.6196221 85.1096933,53.2884319 L85.1096933,53.2884319 Z M85.4257669,54.7547387 C85.7528344,54.7403092 86.0744049,54.6839656 86.3829202,54.5836466 C86.6158528,54.957438 86.8240491,55.3504687 87.0081963,55.7551804 C86.4901104,55.8836712 85.9582822,55.9551313 85.4257669,55.9668123 L85.4257669,54.7547387 Z M85.4257669,53.2740025 C85.7061104,53.6017571 85.9699632,53.9508123 86.2118282,54.3170454 C85.956908,54.3919411 85.6923681,54.4379779 85.4257669,54.450346 L85.4257669,53.2740025 Z M87.0982086,53.8972172 C86.9154356,54.0222724 86.7196074,54.1280883 86.5148466,54.2119166 C86.2942822,53.8752294 86.0448589,53.5447264 85.7810061,53.2231558 C86.2420613,53.4059288 86.6845644,53.6319902 87.0982086,53.8972172 L87.0982086,53.8972172 Z M87.6946258,53.3701988 C87.5908712,53.4897571 87.4788712,53.6003828 87.3572515,53.7027632 C86.9552883,53.436162 86.5279018,53.2087264 86.0812761,53.0197693 C86.6364663,53.0774871 87.1765399,53.1936098 87.6946258,53.3701988 L87.6946258,53.3701988 Z M88.5933742,55.1546405 C88.1859141,55.3676466 87.7544049,55.5414871 87.3119018,55.6727264 C87.1277546,55.2625178 86.9147485,54.8591804 86.6776933,54.4723337 C86.9229939,54.3665178 87.1545521,54.2366528 87.371681,54.078616 C87.8176196,54.3919411 88.2278282,54.7547387 88.5933742,55.1546405 L88.5933742,55.1546405 Z M88.0038282,53.4821988 C88.6112393,53.719254 89.1836074,54.0380761 89.7099387,54.4290454 C89.4481472,54.6393031 89.1657423,54.8303215 88.8702822,55.0014135 C88.4971779,54.5870822 88.0759755,54.2112294 87.6176687,53.8814135 C87.7571534,53.7570454 87.8870184,53.6244319 88.0038282,53.4821988 L88.0038282,53.4821988 Z M91.2057914,55.9255853 C90.8168834,56.1805055 90.4059877,56.4100025 89.9806626,56.6120147 C89.729865,56.1255362 89.4254724,55.6631067 89.0729816,55.2364074 C89.3849325,55.051573 89.682454,54.8461252 89.9586748,54.621438 C90.4300368,55.004162 90.8491779,55.4432294 91.2057914,55.9255853 L91.2057914,55.9255853 Z M85.2704785,52.670027 C81.0728834,52.670027 77.6592883,55.9743706 77.6592883,60.0372908 C77.6592883,64.0988368 81.0728834,67.4031804 85.2704785,67.4031804 C89.4653252,67.4031804 92.8802945,64.0988368 92.8802945,60.0372908 C92.8802945,55.9743706 89.4653252,52.670027 85.2704785,52.670027 L85.2704785,52.670027 Z" id="Fill-16" fill="#FFFFFF"></path>
                            <path d="M76.9707975,54.6283092 L76.8519264,54.7300025 C76.4053006,55.1120393 75.3863067,56.1221006 75.5422822,57.2304196 C75.5436564,57.2338552 75.5580859,57.3073767 75.5580859,57.3073767 C75.5594601,57.3087509 75.6089325,57.527254 75.6089325,57.527254 L75.7518528,57.4015117 C76.3757546,56.8476957 76.8450552,55.9104687 77.0360736,54.8296344 L77.0903558,54.5245546 L76.9707975,54.6283092 Z" id="Fill-17" fill="#FFFFFF"></path>
                            <path d="M74.8998282,56.5415853 L74.8489816,56.6762601 C74.7775215,56.8610945 74.6483436,57.2493153 74.5796319,57.766027 C74.4841227,58.497119 74.5061104,59.5319166 75.1616196,60.3035485 C75.1609325,60.3028613 75.2337669,60.394935 75.2337669,60.394935 L75.3100368,60.4890699 L75.4076074,60.0190822 C75.5161718,59.1890454 75.3725644,57.4492663 75.0592393,56.6735117 L74.9499877,56.4096589 L74.8998282,56.5415853 Z" id="Fill-18" fill="#FFFFFF"></path>
                            <path d="M74.1529325,59.3971043 L74.1336933,59.6705767 C74.079411,60.415411 74.1185767,62.2520736 75.6549693,63.2264049 C75.6549693,63.227092 75.8377423,63.3404663 75.8377423,63.3404663 L75.8294969,63.1315828 C75.8026994,62.4341595 74.9623558,60.3542577 74.3315828,59.6087362 L74.1529325,59.3971043 Z" id="Fill-19" fill="#FFFFFF"></path>
                            <path d="M74.4078528,62.8207313 L74.4339632,62.9464736 C74.6586503,64.0018847 75.6927607,65.7128049 77.2903067,66.2075288 L77.5088098,66.2762405 L77.4297914,66.0680442 C77.1315828,65.2785472 75.5917546,63.4391362 74.6029939,62.8324123 L74.3803681,62.694989 L74.4078528,62.8207313 Z" id="Fill-20" fill="#FFFFFF"></path>
                            <path d="M77.6166871,56.2183656 L77.4902577,56.2932613 C76.3008589,56.9948074 75.7442945,57.8461448 75.7875828,58.896746 L75.7978896,59.1365497 L75.9703558,58.9956908 C76.6134969,58.4810405 77.4181104,57.163838 77.6565399,56.4169423 L77.7424294,56.1434699 L77.6166871,56.2183656 Z" id="Fill-21" fill="#FFFFFF"></path>
                            <path d="M76.9172025,58.5178012 L76.8265031,58.6002552 C76.5221104,58.8812859 75.5374724,59.8947828 75.6226748,61.1494577 C75.6364172,61.3432245 75.6803926,61.5500466 75.7580368,61.7664883 L75.8274356,61.9664393 L75.9545521,61.793973 C76.4259141,61.1528933 77.049816,59.4612123 77.0154601,58.6737767 L77.0051534,58.4353472 L76.9172025,58.5178012 Z" id="Fill-22" fill="#FFFFFF"></path>
                            <path d="M76.9687362,60.6958233 L76.9007117,60.7913325 C76.4046135,61.5052466 76.1510675,62.2390871 76.1668712,62.9138356 C76.1799264,63.4140564 76.3455215,63.8916025 76.6567853,64.3347926 L76.7605399,64.4852712 L76.8471166,64.3258601 C77.0628712,63.9355779 77.232589,62.6692221 77.2078528,61.6680933 C77.1982331,61.3142282 77.1611288,61.0208294 77.1006626,60.8215656 L77.0353865,60.6003141 L76.9687362,60.6958233 Z" id="Fill-23" fill="#FFFFFF"></path>
                            <path d="M77.5445399,63.0241865 L77.5136196,63.1251926 C77.3645153,63.5889963 77.2930552,64.0418061 77.3054233,64.4726282 C77.3349693,65.4455853 77.7788466,66.2075975 78.6308712,66.7353031 L78.7751656,66.823254 L78.8060859,66.634984 C78.8060859,66.6315485 78.8191411,66.4858798 78.8191411,66.4858798 C78.795092,65.6950086 78.1849325,63.7009963 77.7087607,63.0928982 L77.5768344,62.9252417 L77.5445399,63.0241865 Z" id="Fill-24" fill="#FFFFFF"></path>
                            <path d="M75.8679755,66.1129129 L75.9291288,66.2132319 C76.5702086,67.2521521 77.6565399,68.5920294 79.6890307,68.247784 L79.8587485,68.2196123 L79.7625521,68.0815018 C79.3832638,67.5352442 76.9165153,66.1884957 76.0445644,66.0503853 L75.806135,66.0119067 L75.8679755,66.1129129 Z" id="Fill-25" fill="#FFFFFF"></path>
                            <path d="M78.8747975,68.7513718 L78.5559755,68.8345129 L78.8617423,68.9561325 C80.1535215,69.4680344 81.7737423,69.6198871 82.7130307,69.3134331 C83.0668957,69.1966233 83.2799018,69.0097276 83.5430675,68.7630528 C85.1955828,68.9279607 86.7443436,70.2589055 87.6472147,71.3452368 C87.6472147,71.346611 87.6953129,71.4002061 87.6953129,71.4002061 L87.7653988,71.3782184 C87.867092,71.3445497 88.0230675,71.2277399 88.0890307,71.1590282 L88.1522454,71.0923779 L88.0952147,71.0195436 C87.153865,69.8287706 85.6786258,69.0894331 85.6147239,69.0598871 C84.2872147,68.4332368 81.9448344,67.945384 78.8747975,68.7513718" id="Fill-26" fill="#FFFFFF"></path>
                            <path d="M78.9428221,65.4249031 L78.9613742,65.5293448 C79.154454,66.7077497 79.6484908,68.2544491 81.7057178,68.0833571 L81.8369571,68.0737374 L81.8039755,67.9486822 C81.6651779,67.4134184 79.7811043,65.8564123 79.1228466,65.418719 L78.9249571,65.3197742 L78.9428221,65.4249031 Z" id="Fill-27" fill="#FFFFFF"></path>
                            <path d="M93.4794601,54.5251043 L93.5337423,54.8288098 C93.7247607,55.9110184 94.1940613,56.8475583 94.8193374,57.4013742 L94.9615706,57.5264294 C94.9615706,57.5264294 95.0103558,57.3086135 95.0103558,57.3072393 C95.0103558,57.3072393 95.0261595,57.2330307 95.0275337,57.2295951 C95.1848834,56.1226503 94.1652025,55.112589 93.7185767,54.729865 L93.5990184,54.6288589 L93.4794601,54.5251043 Z" id="Fill-28" fill="#FFFFFF"></path>
                            <path d="M95.6205153,56.4094528 L95.512638,56.6726184 C95.1965644,57.4490601 95.0529571,59.1888393 95.1615215,60.0195632 L95.259092,60.4881767 L95.3360491,60.395416 C95.3360491,60.395416 95.4088834,60.3033423 95.4088834,60.3040294 C96.0643926,59.5317104 96.0870675,58.4969129 95.9894969,57.7651337 C95.9207853,57.2491092 95.7929816,56.8608883 95.7222086,56.6753669 L95.6706748,56.5413791 L95.6205153,56.4094528 Z" id="Fill-29" fill="#FFFFFF"></path>
                            <path d="M96.4168834,59.3968294 L96.237546,59.6084613 C95.6081472,60.3539828 94.7664294,62.4345718 94.740319,63.1319951 L94.7327607,63.3408785 C94.7327607,63.3408785 94.9127853,63.2275043 94.9127853,63.2268172 C96.4505521,62.2517988 96.4897178,60.4158233 96.4361227,59.670989 L96.425816,59.5335656 L96.4168834,59.3968294 Z" id="Fill-30" fill="#FFFFFF"></path>
                            <path d="M96.1894479,62.6953325 L95.966135,62.8320687 C94.9773742,63.4394798 93.437546,65.2782037 93.1400245,66.0677006 L93.060319,66.276584 L93.2801963,66.2078724 C94.8763681,65.7117742 95.9104785,64.0022282 96.1351656,62.9468172 L96.1633374,62.8210748 L96.1894479,62.6953325 Z" id="Fill-31" fill="#FFFFFF"></path>
                            <path d="M92.8885399,56.1083583 L92.9703067,56.3825178 C93.1908712,57.1349104 93.9686871,58.4665423 94.6015215,58.9942479 L94.7733006,59.1371681 L94.7870429,58.8966773 C94.8509448,57.8481374 94.3115583,56.9858061 93.1372761,56.2608982 L93.0115337,56.1846282 L92.8885399,56.1083583 Z" id="Fill-32" fill="#FFFFFF"></path>
                            <path d="M93.5632883,58.4355534 L93.5536687,58.6746699 C93.5213742,59.4614184 94.1432147,61.1524123 94.6145767,61.793492 L94.7416933,61.9666454 L94.8131534,61.7666945 C94.8887362,61.5495656 94.9333988,61.3434307 94.946454,61.1496638 C95.0330307,59.894989 94.0477055,58.8808049 93.7426258,58.6004613 L93.6539877,58.5180074 L93.5632883,58.4355534 Z" id="Fill-33" fill="#FFFFFF"></path>
                            <path d="M93.5371779,60.6000393 L93.4691534,60.8212908 C93.408,61.0205546 93.3715828,61.3139534 93.3633374,61.6678184 C93.3379141,62.6689472 93.508319,63.9353031 93.7220123,64.3269595 L93.8099632,64.4849963 L93.915092,64.3352049 C94.2256687,63.8913276 94.3898896,63.4137816 94.4022577,62.9142479 C94.4187485,62.2388123 94.1665767,61.5056589 93.6691043,60.7917448 L93.6031411,60.6955485 L93.5371779,60.6000393 Z" id="Fill-34" fill="#FFFFFF"></path>
                            <path d="M92.9909202,62.9253104 L92.8610552,63.0922798 C92.3835092,63.701065 91.7733497,65.6943902 91.751362,66.4859485 C91.751362,66.4859485 91.7630429,66.6323043 91.7637301,66.6357399 L91.7946503,66.8226356 L91.9389448,66.7353718 C92.7895951,66.2069791 93.2362209,65.445654 93.2643926,64.4726969 C93.2767607,64.0411877 93.207362,63.5883779 93.0561963,63.1245742 L93.0232147,63.0242552 L92.9909202,62.9253104 Z" id="Fill-35" fill="#FFFFFF"></path>
                            <path d="M94.7629939,66.012319 L94.5259387,66.0501104 C93.6539877,66.1882209 91.1865521,67.5356564 90.8065767,68.0819141 L90.7110675,68.2193374 L90.8807853,68.2481963 C92.9146503,68.5924417 94.0002945,67.2511902 94.64,66.2122699 L94.7011534,66.1133252 L94.7629939,66.012319 Z" id="Fill-36" fill="#FFFFFF"></path>
                            <path d="M84.9557791,69.0596123 C84.8905031,69.0891583 83.4159509,69.8291828 82.4752883,71.0199558 L82.4182577,71.0927902 L82.4821595,71.1594405 C82.5474356,71.227465 82.7027239,71.3442748 82.8051043,71.3779436 L82.8745031,71.3999313 C82.8745031,71.3999313 82.9226012,71.3463362 82.9226012,71.3456491 C83.8247853,70.2593178 85.373546,68.9276859 87.0267485,68.7627779 C87.2885399,69.0094528 87.5029202,69.1963485 87.8581595,69.3131583 C88.7960736,69.6196123 90.4162945,69.4677595 91.7087607,68.9558577 L92.0145276,68.8349252 L91.6957055,68.7510969 C88.6236074,67.9451092 86.2819141,68.4336491 84.9557791,69.0596123" id="Fill-37" fill="#FFFFFF"></path>
                            <path d="M91.6441718,65.3194994 L91.4469693,65.4191313 C90.7880245,65.8561374 88.904638,67.4131436 88.7658405,67.9490945 L88.733546,68.0734626 L88.8640982,68.0830822 C90.920638,68.2541742 91.415362,66.708162 91.6091288,65.5297571 L91.627681,65.4246282 L91.6441718,65.3194994 Z" id="Fill-38" fill="#FFFFFF"></path>
                            <path d="M39.2508466,58.0888344 L41.4358773,58.0888344 L41.4358773,69.2640982 L39.2508466,69.2640982 L39.2508466,58.0888344 Z M39.0453988,53.1903804 L41.6447607,53.1903804 L41.6447607,55.4839755 L39.0453988,55.4839755 L39.0453988,53.1903804 Z" id="Fill-39" fill="#FFFFFF"></path>
                            <path d="M22.7564761,58.0985227 L24.9415067,58.0985227 L24.9415067,69.2751607 L22.8018258,69.2751607 L22.8018258,67.6267681 L22.7564761,67.6267681 C21.8817767,69.0298601 20.4106601,69.6077252 18.7993718,69.6077252 C16.3848442,69.6077252 15.004427,67.826719 15.004427,65.5784736 L15.004427,58.0985227 L17.1908319,58.0985227 L17.1908319,64.7113325 C17.1908319,66.6483141 17.6505129,68.0720196 19.7434699,68.0720196 C20.6408442,68.0720196 21.8591018,67.6267681 22.3187828,66.4703509 C22.7317399,65.4231853 22.7564761,64.1094184 22.7564761,63.8428172 L22.7564761,58.0985227 Z" id="Fill-40" fill="#FFFFFF"></path>
                            <path d="M29.3042847,59.7454724 L29.3510086,59.7454724 C30.0855362,58.3430675 31.6961374,57.7652025 32.8463706,57.7652025 C33.650984,57.7652025 37.2157448,57.9651534 37.2157448,61.5491534 L37.2157448,69.2744049 L35.0314012,69.2744049 L35.0314012,62.2397055 C35.0314012,60.3920491 34.2267877,59.3909202 32.3866896,59.3909202 C32.3866896,59.3909202 31.1897325,59.3242699 30.2703706,60.2133988 C29.9488,60.5253497 29.3510086,61.0145767 29.3510086,63.1968589 L29.3510086,69.2744049 L27.1646037,69.2744049 L27.1646037,58.0991411 L29.3042847,58.0991411 L29.3042847,59.7454724 Z" id="Fill-41" fill="#FFFFFF"></path>
                            <path d="M50.5864834,61.683416 C50.4724221,60.2885693 49.7873669,59.3176736 48.2324221,59.3176736 C46.1552687,59.3176736 45.3540908,61.0622626 45.3540908,63.6739926 C45.3540908,66.2843485 46.1552687,68.032373 48.2324221,68.032373 C49.6705571,68.032373 50.5617472,67.1281276 50.6758086,65.5326429 L52.8491583,65.5326429 C52.6636368,68.032373 50.7465816,69.5577718 48.2090601,69.5577718 C44.5309252,69.5577718 43.0687411,67.0374282 43.0687411,63.7626307 C43.0687411,60.5077595 44.7576736,57.7888393 48.3952687,57.7888393 C50.8166675,57.7888393 52.6430233,59.273011 52.7536491,61.683416 L50.5864834,61.683416 Z" id="Fill-42" fill="#FFFFFF"></path>
                            <path d="M61.9159362,62.6134969 C61.961973,60.7562209 61.0913963,59.3180859 58.9895067,59.3180859 C57.1823902,59.3180859 56.1118626,60.7953865 56.1118626,62.6134969 L61.9159362,62.6134969 Z M56.1118626,64.0715583 C55.9517644,66.0181595 56.7749301,68.0327853 58.9895067,68.0327853 C60.6811877,68.0327853 61.5263411,67.3923926 61.7764515,65.7728589 L64.0638626,65.7728589 C63.7196172,68.2986994 61.708427,69.5568098 58.9688933,69.5568098 C55.2886969,69.5568098 53.8237644,67.0378405 53.8237644,63.7630429 C53.8237644,60.5067975 55.518881,57.7885644 59.1509791,57.7885644 C62.5769423,57.8579632 64.1985374,59.9571043 64.1985374,63.0346994 L64.1985374,64.0715583 L56.1118626,64.0715583 Z" id="Fill-43" fill="#FFFFFF"></path>
                            <path d="M66.6586209,69.2261693 L66.6586209,59.5824883 L64.684535,59.5824883 L64.684535,58.1203043 L66.6586209,58.1203043 L66.6586209,55.7332613 C66.730081,53.2994945 68.6230871,52.6584147 70.2466748,52.6584147 C70.7709448,52.6584147 71.2766626,52.7903411 71.8029939,52.878292 L71.8029939,54.6249423 C71.4340123,54.6063902 71.0698405,54.5576049 70.7029202,54.5576049 C69.4709202,54.5576049 68.761816,54.8709301 68.8284663,56.085065 L68.8284663,58.1203043 L71.4807362,58.1203043 L71.4807362,59.5824883 L68.8284663,59.5824883 L68.8284663,69.2261693 L66.6586209,69.2261693 Z" id="Fill-44" fill="#FFFFFF"></path>
                        </g>
                    </g>
                </g>
            </g>
        </g>
    </g>
</svg>