<?xml version="1.0" encoding="UTF-8" standalone="no"?>
<svg width="40px" height="39px" viewBox="0 0 40 39" version="1.1" xmlns="http://www.w3.org/2000/svg" xmlns:xlink="http://www.w3.org/1999/xlink">
    <!-- Generator: Sketch 3.7.2 (28276) - http://www.bohemiancoding.com/sketch -->
    <title>icon-domain-9</title>
    <desc>Created with Sketch.</desc>
    <defs>
        <path d="M14.5940667,39.456615 C15.9760667,39.7754607 17.4120667,39.9621491 18.8860667,40 C17.4120667,39.9621491 15.9760667,39.7754607 14.5940667,39.456615 Z M0,0 L40,0 L40,38.4924435 L0,38.4924435 L0,0 Z" id="path-1"></path>
        <polygon id="path-3" points="-0.666666667 40.2412 40.908 40.2412 40.908 -1.33346667 -0.666666667 -1.33346667"></polygon>
    </defs>
    <g id="Assets" stroke="none" stroke-width="1" fill="none" fill-rule="evenodd">
        <g id="Thematic-overview" transform="translate(-30.000000, -477.000000)">
            <g id="icon-domain-9" transform="translate(30.000000, 477.000000)">
                <mask id="mask-2" fill="white">
                    <use xlink:href="#path-1"></use>
                </mask>
                <use id="Fill-1" fill="#FAA906" xlink:href="#path-1"></use>
                <path d="M11.8430667,24.3814667 C11.8324,24.4688 11.8257333,24.5581333 11.8170667,24.6461333 L14.0444,24.6461333 C14.7164,24.6461333 15.2610667,25.1908 15.2610667,25.8628 L15.2610667,39.6688 C16.6430667,40.0001333 18.0784,40.1941333 19.5530667,40.2334667 L19.5530667,23.9428 C19.5530667,21.9268 17.9184,20.2928 15.9030667,20.2928 L13.0650667,20.2928 C12.7550667,20.9134667 12.4944,21.5608 12.2924,22.2241333 C12.0790667,22.9248 11.9277333,23.6501333 11.8430667,24.3814667" id="Fill-6" fill="#FEFEFE" mask="url(#mask-2)"></path>
                <path d="M9.66146667,24.6461333 C9.6608,24.5061333 9.66013333,24.3661333 9.66413333,24.2274667 C9.6848,23.3581333 9.7848,22.4848 9.96213333,21.6314667 C10.0548,21.1814667 10.1701333,20.7341333 10.3054667,20.2928 L-0.648533333,20.2928 C-0.5892,21.7901333 -0.372533333,23.2468 -0.0132,24.6461333 L9.66146667,24.6461333 Z M4.23746667,21.7648 L6.77213333,21.7648 C7.1868,21.7648 7.52346667,22.1014667 7.52346667,22.5161333 C7.52346667,22.9308 7.1868,23.2674667 6.77213333,23.2674667 L4.23746667,23.2674667 C3.82213333,23.2674667 3.48613333,22.9308 3.48613333,22.5161333 C3.48613333,22.1014667 3.82213333,21.7648 4.23746667,21.7648 L4.23746667,21.7648 Z" id="Fill-8" fill="#FEFEFE" mask="url(#mask-2)"></path>
                <path d="M4.237,23.2676 L6.77166667,23.2676 C7.187,23.2676 7.52366667,22.9309333 7.52366667,22.5162667 C7.52366667,22.1009333 7.187,21.7649333 6.77166667,21.7649333 L4.237,21.7649333 C3.82233333,21.7649333 3.48566667,22.1009333 3.48566667,22.5162667 C3.48566667,22.9309333 3.82233333,23.2676 4.237,23.2676" id="Fill-10" fill="#E19A1E" mask="url(#mask-2)"></path>
                <path d="M-0.013,24.6461333 L-0.013,24.6461333 C1.89433333,32.0648 7.795,37.8801333 15.261,39.6688 C7.795,37.8801333 1.89433333,32.0648 -0.013,24.6461333" id="Fill-12" fill="#221F20" mask="url(#mask-2)"></path>
                <path d="M18.4479333,10.987 L18.4479333,6.64166667 L32.4079333,6.64166667 L32.4079333,16.8123333 L18.4479333,16.8123333 L18.4479333,14.8636667 C18.0826,15.0476667 17.7272667,15.249 17.3866,15.4676667 C17.2546,15.5516667 17.1246,15.6396667 16.9952667,15.7296667 L16.9952667,16.8096667 C16.9952667,17.6123333 17.6459333,18.2623333 18.4479333,18.2623333 L24.2499333,18.2623333 L24.2499333,16.9796667 L26.6059333,16.9796667 L26.6059333,18.2623333 L29.2552667,18.2623333 L29.7872667,18.2623333 L30.4606,18.2623333 L30.9919333,18.2623333 L31.6652667,18.2623333 L32.1966,18.2623333 L32.4079333,18.2623333 C33.2099333,18.2623333 33.8606,17.6123333 33.8606,16.8096667 L33.8606,6.64166667 C33.8606,5.839 33.2099333,5.189 32.4079333,5.189 L18.4479333,5.189 C17.6459333,5.189 16.9952667,5.839 16.9952667,6.64166667 L16.9952667,11.757 C17.1206,11.6816667 17.2466,11.6063333 17.3739333,11.535 C17.7166,11.3403333 18.0739333,11.1596667 18.4479333,10.987" id="Fill-14" fill="#FEFEFE" mask="url(#mask-2)"></path>
                <mask id="mask-4" fill="white">
                    <use xlink:href="#path-3"></use>
                </mask>
                <g id="Clip-17"></g>
                <polygon id="Fill-16" fill="#FEFEFE" mask="url(#mask-4)" points="24.25 20.4158667 26.606 20.4158667 26.606 20.4025333 24.25 20.4025333"></polygon>
                <polygon id="Fill-18" fill="#FEFEFE" mask="url(#mask-4)" points="24.25 20.4025333 26.606 20.4025333 26.606 18.2618667 24.25 18.2618667"></polygon>
                <polygon id="Fill-19" fill="#FEFEFE" mask="url(#mask-4)" points="24.25 18.2625333 26.606 18.2625333 26.606 16.9798667 24.25 16.9798667"></polygon>
                <path d="M20.8772667,9.16013333 L21.1372667,10.7628 C21.0126,10.7954667 20.8746,10.8341333 20.7246,10.8794667 C20.3452667,10.9921333 19.8886,11.1441333 19.3806,11.3514667 C19.0859333,11.4721333 18.7726,11.6121333 18.4479333,11.7708 C18.2112667,11.8868 17.9699333,12.0108 17.7232667,12.1508 C17.4839333,12.2854667 17.2406,12.4341333 16.9952667,12.5914667 C16.6392667,12.8201333 16.2799333,13.0701333 15.9219333,13.3494667 C15.3166,13.8188 14.7199333,14.3621333 14.1586,14.9728 C13.5966,15.5821333 13.0706,16.2588 12.6059333,16.9868 C12.1406,17.7154667 11.7366,18.4948 11.4086,19.3014667 C11.2752667,19.6281333 11.1586,19.9594667 11.0506,20.2934667 C10.8926,20.7834667 10.7579333,21.2794667 10.6559333,21.7754667 C10.4826,22.6081333 10.3912667,23.4408 10.3719333,24.2441333 C10.3679333,24.3794667 10.3692667,24.5128 10.3699333,24.6461333 C10.3719333,25.3061333 10.4192667,25.9441333 10.5039333,26.5474667 C10.6046,27.2674667 10.7592667,27.9468 10.9359333,28.5528 C11.2959333,29.7708 11.7552667,30.7214667 12.1132667,31.3594667 C12.2912667,31.6794667 12.4446,31.9234667 12.5499333,32.0881333 C12.6572667,32.2514667 12.7139333,32.3388 12.7139333,32.3388 C12.7139333,32.3388 12.6652667,32.2468 12.5726,32.0741333 C12.4832667,31.9008 12.3539333,31.6454667 12.2072667,31.3128 C11.9106,30.6508 11.5459333,29.6734667 11.3052667,28.4621333 C11.1872667,27.8548 11.0992667,27.1988 11.0652667,26.4928 C11.0366,25.9014667 11.0486,25.2794667 11.1059333,24.6461333 C11.1166,24.5301333 11.1259333,24.4148 11.1399333,24.2981333 C11.2272667,23.5434667 11.3846,22.7741333 11.6152667,22.0174667 C11.7932667,21.4314667 12.0159333,20.8528 12.2766,20.2934667 C12.3532667,20.1301333 12.4312667,19.9681333 12.5139333,19.8088 C13.2446,18.3908 14.2406,17.1321333 15.3319333,16.1501333 C15.8732667,15.6601333 16.4359333,15.2354667 16.9952667,14.8774667 C16.9986,14.8754667 17.0019333,14.8728 17.0059333,14.8708 C17.4952667,14.5561333 17.9812667,14.2954667 18.4479333,14.0768 C18.5166,14.0448 18.5852667,14.0108 18.6526,13.9808 C19.1799333,13.7421333 19.6792667,13.5674667 20.1252667,13.4301333 C20.5719333,13.2941333 20.9679333,13.2014667 21.2952667,13.1361333 C21.3732667,13.1201333 21.4466,13.1061333 21.5166,13.0941333 L21.7739333,14.6794667 L26.1052667,11.1434667 L20.8772667,9.16013333 Z" id="Fill-20" fill="#FEFEFE" mask="url(#mask-4)"></path>
                <path d="M33.4407333,35.4120667 C33.1287333,35.6727333 32.8094,35.9247333 32.4820667,36.1667333 C32.8094,35.9247333 33.1287333,35.6727333 33.4407333,35.4120667" id="Fill-23" fill="#FEFEFE" mask="url(#mask-4)"></path>
                <path id="Fill-24" fill="#FEFEFE" mask="url(#mask-4)"></path>
                <path d="M31.4446667,36.8873333 C30.95,37.2093333 30.44,37.512 29.9173333,37.7913333 C30.44,37.512 30.95,37.2093333 31.4446667,36.8873333" id="Fill-26" fill="#FEFEFE" mask="url(#mask-4)"></path>
                <path id="Fill-28" fill="#FEFEFE" mask="url(#mask-4)"></path>
                <path id="Fill-29" fill="#FEFEFE" mask="url(#mask-4)"></path>
                <path d="M0.4948,12.5898 L0.4948,12.5898 C0.215466667,13.3884667 -0.0158666667,14.2084667 -0.1972,15.0478 C-0.0158666667,14.2084667 0.215466667,13.3878 0.4948,12.5898" id="Fill-30" fill="#FEFEFE" mask="url(#mask-4)"></path>
                <path d="M34.3639333,34.5930667 C34.8072667,34.1757333 35.2326,33.7384 35.6379333,33.2837333 C35.2326,33.7384 34.8072667,34.1757333 34.3639333,34.5930667" id="Fill-32" fill="#FEFEFE" mask="url(#mask-4)"></path>
                <path id="Fill-33" fill="#FEFEFE" mask="url(#mask-4)"></path>
                <path id="Fill-34" fill="#FEFEFE" mask="url(#mask-4)"></path>
                <path d="M37.167,31.3515333 C36.8156667,31.8542 36.4423333,32.3408667 36.0483333,32.8095333 C36.4423333,32.3408667 36.8156667,31.8542 37.167,31.3515333" id="Fill-35" fill="#FEFEFE" mask="url(#mask-4)"></path>
                <path id="Fill-41" fill="#FEFEFE" mask="url(#mask-4)"></path>
                <path id="Fill-45" fill="#FEFEFE" mask="url(#mask-4)"></path>
                <path id="Fill-46" fill="#FEFEFE" mask="url(#mask-4)"></path>
                <path id="Fill-50" fill="#FEFEFE" mask="url(#mask-4)"></path>
                <path d="M29.5228,21.2512667 L21.1594667,21.2512667 C20.8821333,21.2512667 20.6568,21.0266 20.6568,20.7492667 C20.6568,20.4719333 20.8821333,20.2472667 21.1594667,20.2472667 L29.5228,20.2472667 C29.8001333,20.2472667 30.0248,20.4719333 30.0248,20.7492667 C30.0248,21.0266 29.8001333,21.2512667 29.5228,21.2512667" id="Fill-51" fill="#FEFEFE" mask="url(#mask-4)"></path>
            </g>
        </g>
    </g>
</svg>