<?xml version="1.0" encoding="UTF-8" standalone="no"?>
<svg width="40px" height="40px" viewBox="0 0 40 40" version="1.1" xmlns="http://www.w3.org/2000/svg" xmlns:xlink="http://www.w3.org/1999/xlink">
    <!-- Generator: Sketch 3.7.2 (28276) - http://www.bohemiancoding.com/sketch -->
    <title>icon-domain-2</title>
    <desc>Created with Sketch.</desc>
    <defs>
        <polygon id="path-1" points="39.5947937 39.5951111 0 39.5951111 0 0.00019047619 39.5947937 0.00019047619 39.5947937 39.5951111"></polygon>
    </defs>
    <g id="Assets" stroke="none" stroke-width="1" fill="none" fill-rule="evenodd">
        <g id="Thematic-overview" transform="translate(-29.000000, -80.000000)">
            <g id="icon-domain-2" transform="translate(29.000000, 80.000000)">
                <mask id="mask-2" fill="white">
                    <use xlink:href="#path-1"></use>
                </mask>
                <use id="Clip-2" fill="#7C3AA4" xlink:href="#path-1"></use>
                <path d="M32.4494603,8.19320635 C31.099619,8.19320635 30.004381,9.24273016 29.9091429,10.5690794 L19.819619,12.2617778 C18.9993016,8.98812698 16.043746,6.55828571 12.5148571,6.55828571 C8.35231746,6.55892063 4.97898413,9.93352381 4.97898413,14.0966984 C4.97898413,18.2592381 8.35231746,21.6338413 12.5148571,21.6338413 C14.6024762,21.6338413 16.4869206,20.7868571 17.8526349,19.4166984 L22.3535873,23.2433651 C21.8246984,24.0414603 21.5142222,25.0020952 21.5142222,26.0319365 C21.5142222,26.291619 21.539619,26.5455873 21.5770794,26.7938413 L12.3339048,29.3633651 C11.9980317,28.8706667 11.4342222,28.5500317 10.7942222,28.5500317 C9.76501587,28.5500317 8.9288254,29.3836825 8.9288254,30.4135238 C8.9288254,31.4427302 9.76501587,32.2782857 10.7942222,32.2782857 C11.7859683,32.2782857 12.5904127,31.499873 12.6475556,30.5208254 L21.8939048,27.9538413 C22.6513651,29.7919365 24.4564444,31.0852698 26.5662857,31.0852698 C29.3573968,31.0852698 31.6189841,28.8230476 31.6189841,26.0319365 C31.6189841,24.0947937 30.5294603,22.4147937 28.9294603,21.5659048 L32.1199365,13.2814603 C32.2304127,13.2960635 32.3383492,13.3151111 32.4488254,13.3151111 C33.8646984,13.3151111 35.012,12.1671746 35.012,10.7525714 C35.012,9.33796825 33.8653333,8.19320635 32.4494603,8.19320635 L32.4494603,8.19320635 Z M27.8088254,21.1379683 C27.4094603,21.0370159 26.9948571,20.9779683 26.5669206,20.9779683 C25.2393016,20.9779683 24.0393016,21.4928889 23.1364444,22.3297143 L18.6259683,18.4979683 C19.5186667,17.2579683 20.0545397,15.7424127 20.0545397,14.0966984 C20.0545397,13.8776508 20.0380317,13.6605079 20.019619,13.4471746 L30.0964444,11.7570159 C30.2862857,12.2059048 30.6031111,12.5855873 30.9954921,12.8586032 L27.8088254,21.1379683 Z" id="Fill-4" fill="#FEFEFE" mask="url(#mask-2)"></path>
            </g>
        </g>
    </g>
</svg>