<?xml version="1.0" encoding="UTF-8" standalone="no"?>
<svg width="40px" height="40px" viewBox="0 0 40 40" version="1.1" xmlns="http://www.w3.org/2000/svg" xmlns:xlink="http://www.w3.org/1999/xlink">
    <!-- Generator: Sketch 3.7.2 (28276) - http://www.bohemiancoding.com/sketch -->
    <title>icon-domain-12</title>
    <desc>Created with Sketch.</desc>
    <defs>
        <polygon id="path-1" points="39.5947937 0.00019047619 0 0.00019047619 0 39.5949841 39.5947937 39.5949841 39.5947937 0.00019047619"></polygon>
    </defs>
    <g id="Assets" stroke="none" stroke-width="1" fill="none" fill-rule="evenodd">
        <g id="Thematic-overview" transform="translate(-31.000000, -575.000000)">
            <g id="icon-domain-12" transform="translate(31.000000, 575.000000)">
                <mask id="mask-2" fill="white">
                    <use xlink:href="#path-1"></use>
                </mask>
                <use id="Clip-2" fill="#558B2F" xlink:href="#path-1"></use>
                <path d="M29.6834921,8.4551746 L29.6834921,8.29453968 C29.5869841,7.65136508 29.0403175,7.33009524 28.4936508,7.55485714 C27.8511111,7.84438095 27.2396825,8.13390476 26.5971429,8.39104762 C25.5038095,8.84120635 24.4428571,9.32311111 23.3177778,9.77326984 C22.6098413,10.0627937 21.9031746,10.4164444 21.1952381,10.7059683 C20.1342857,11.156127 19.0733333,11.6056508 17.9806349,12.0558095 C17.4339683,12.2812063 16.8873016,12.5707302 16.3406349,12.763746 C15.5368254,13.0526349 14.7330159,13.0850159 13.8974603,12.956127 C13.0936508,12.827873 12.3215873,12.6672381 11.5825397,12.1846984 C12.1292063,11.9599365 12.6752381,11.7345397 13.1901587,11.4773968 C14.7971429,10.7700952 16.4371429,10.0945397 18.012381,9.38787302 C19.3952381,8.77644444 20.7457143,8.19803175 22.1603175,7.5872381 C22.3850794,7.49073016 22.5780952,7.33009524 22.867619,7.45834921 C23.3177778,7.68374603 23.7679365,7.8767619 24.2822222,8.06914286 L24.2822222,5.85073016 C24.2822222,5.33644444 23.7031746,4.9504127 23.2212698,5.11168254 C22.7063492,5.30469841 22.2244444,5.56184127 21.7419048,5.75422222 C20.6809524,6.17263492 19.652381,6.65453968 18.6231746,7.10469841 C17.915873,7.39422222 17.2085714,7.71549206 16.5012698,8.03739683 C15.4726984,8.48755556 14.444127,8.90533333 13.3825397,9.35549206 C12.6434921,9.6767619 11.9038095,9.96628571 11.1965079,10.2875556 C10.4250794,10.6412063 9.78190476,11.187873 9.78190476,12.2812063 C9.81428571,18.2932698 9.78190476,24.3377143 9.78190476,30.3504127 C9.78190476,30.5751746 9.81428571,30.7681905 9.91015873,30.9929524 C10.1996825,31.7967619 10.8428571,32.2151746 11.5825397,32.5040635 C12.3857143,32.8259683 13.1901587,33.0189841 14.0580952,33.1154921 C14.9260317,33.2113651 15.7622222,33.179619 16.5977778,32.9224762 C17.8193651,32.5364444 18.9450794,31.9256508 20.1666667,31.4431111 C21.0669841,31.0577143 21.9673016,30.6393016 22.8352381,30.2539048 C24.0568254,29.7389841 25.2790476,29.2246984 26.532381,28.6780317 C27.4009524,28.2926349 28.2688889,27.9066032 29.1368254,27.5529524 C29.5228571,27.3923175 29.78,27.0386667 29.78,26.6208889 C29.6834921,20.6405714 29.6834921,14.563746 29.6834921,8.4551746" id="Fill-4" fill="#FEFEFE" mask="url(#mask-2)"></path>
                <path d="M27.4563175,18.2895873 L27.4563175,18.275619 C27.4525079,15.116254 25.1820317,13.4273651 22.3807619,14.5035556 C19.5775873,15.580381 17.3052063,19.0184762 17.3052063,22.1822857 C17.3052063,25.3460952 19.5775873,27.0375238 22.3807619,25.9606984 C25.1820317,24.8845079 27.4525079,21.4514921 27.4563175,18.2895873 L27.4563175,18.2895873 Z M22.3140952,16.4559365 C22.6734603,16.3175238 22.9610794,16.532127 22.9610794,16.9492698 C22.9610794,17.3435556 22.6734603,17.7899048 22.3039365,17.932127 C21.9547302,18.0660952 21.6569524,17.8445079 21.6569524,17.4502222 C21.6569524,17.0330794 21.9547302,16.5937143 22.3140952,16.4559365 L22.3140952,16.4559365 Z M23.6290159,23.3708571 L21.1325079,24.3302222 L21.1325079,23.9822857 C21.7490159,23.675619 21.8106032,23.5943492 21.8106032,22.7829206 L21.8106032,20.452127 C21.8106032,19.7105397 21.7591746,19.683873 21.2150476,19.8000635 L21.2150476,19.475619 C21.8004444,19.1695873 22.4169524,18.7822857 22.9407619,18.3841905 L22.9407619,22.3486349 C22.9407619,23.1372063 22.9921905,23.1867302 23.6290159,23.0235556 L23.6290159,23.3708571 Z" id="Fill-6" fill="#558B2F" mask="url(#mask-2)"></path>
            </g>
        </g>
    </g>
</svg>