<?xml version="1.0" encoding="UTF-8" standalone="no"?>
<svg width="40px" height="40px" viewBox="0 0 40 40" version="1.1" xmlns="http://www.w3.org/2000/svg" xmlns:xlink="http://www.w3.org/1999/xlink">
    <!-- Generator: Sketch 3.7.2 (28276) - http://www.bohemiancoding.com/sketch -->
    <title>icon-domain-11</title>
    <desc>Created with Sketch.</desc>
    <defs>
        <polygon id="path-1" points="0.000190476191 39.5947937 39.5949206 39.5947937 39.5949206 6.34920635e-05 0.000190476191 6.34920635e-05 0.000190476191 39.5947937"></polygon>
    </defs>
    <g id="Assets" stroke="none" stroke-width="1" fill="none" fill-rule="evenodd">
        <g id="Thematic-overview" transform="translate(-31.000000, -526.000000)">
            <g id="icon-domain-11" transform="translate(31.000000, 526.000000)">
                <mask id="mask-2" fill="white">
                    <use xlink:href="#path-1"></use>
                </mask>
                <use id="Clip-2" fill="#558B2F" xlink:href="#path-1"></use>
                <path d="M19.7975873,25.4014603 C21.4610794,25.4014603 22.8147302,24.0471746 22.8147302,22.3849524 C22.8147302,20.7208254 21.4598095,19.3665397 19.7975873,19.3665397 C18.1347302,19.3665397 16.7804444,20.7214603 16.7804444,22.3849524 C16.7804444,24.0478095 18.1340952,25.4014603 19.7975873,25.4014603" id="Fill-4" fill="#FEFEFE" mask="url(#mask-2)"></path>
                <path d="M19.7975873,26.6570159 C16.3563175,26.6570159 13.5582222,29.6773333 13.5582222,33.3890794 L13.5582222,33.5332063 L26.0369524,33.5332063 L26.0369524,33.3890794 C26.0369524,29.6773333 23.2388571,26.6570159 19.7975873,26.6570159" id="Fill-6" fill="#FEFEFE" mask="url(#mask-2)"></path>
                <path d="M10.3062857,12.0916825 C11.4231111,12.0916825 12.3316825,11.1831111 12.3316825,10.0675556 C12.3316825,8.95136508 11.4231111,8.04215873 10.3062857,8.04215873 C9.18946032,8.04215873 8.28088889,8.95136508 8.28088889,10.0675556 C8.28088889,11.1831111 9.18946032,12.0916825 10.3062857,12.0916825" id="Fill-8" fill="#FEFEFE" mask="url(#mask-2)"></path>
                <path d="M14.4404444,17.54 C14.4404444,15.0834921 12.5858413,13.084127 10.3064762,13.084127 C8.02647619,13.084127 6.17187302,15.0834921 6.17187302,17.54 L6.17187302,17.6853968 L14.4404444,17.6853968 L14.4404444,17.54 Z" id="Fill-10" fill="#FEFEFE" mask="url(#mask-2)"></path>
                <path d="M29.2891429,12.0916825 C30.4066032,12.0916825 31.3139048,11.1831111 31.3139048,10.0675556 C31.3139048,8.95136508 30.4053333,8.04215873 29.2891429,8.04215873 C28.1723175,8.04215873 27.264381,8.95136508 27.264381,10.0675556 C27.264381,11.1831111 28.1723175,12.0916825 29.2891429,12.0916825" id="Fill-12" fill="#FEFEFE" mask="url(#mask-2)"></path>
                <path d="M29.2891429,13.0850159 C27.0091429,13.0850159 25.1545397,15.084381 25.1545397,17.5415238 L25.1545397,17.6850159 L33.4231111,17.6850159 L33.4231111,17.5415238 C33.4231111,15.0831111 31.5685079,13.0850159 29.2891429,13.0850159" id="Fill-14" fill="#FEFEFE" mask="url(#mask-2)"></path>
                <polygon id="Fill-16" fill="#FEFEFE" mask="url(#mask-2)" points="29.9453968 20.5687619 31.5726984 20.5687619 31.5726984 18.9414603 29.9453968 18.9414603"></polygon>
                <polygon id="Fill-18" fill="#FEFEFE" mask="url(#mask-2)" points="29.9453968 23.568127 31.5726984 23.568127 31.5726984 21.9408254 29.9453968 21.9408254"></polygon>
                <polygon id="Fill-19" fill="#FEFEFE" mask="url(#mask-2)" points="29.9453968 26.568127 31.5726984 26.568127 31.5726984 24.9414603 29.9453968 24.9414603"></polygon>
                <polygon id="Fill-20" fill="#FEFEFE" mask="url(#mask-2)" points="23.9447619 26.5687619 25.5720635 26.5687619 25.5720635 24.9420952 23.9447619 24.9420952"></polygon>
                <polygon id="Fill-21" fill="#FEFEFE" mask="url(#mask-2)" points="26.9453968 26.5687619 28.5726984 26.5687619 28.5726984 24.9420952 26.9453968 24.9420952"></polygon>
                <polygon id="Fill-22" fill="#FEFEFE" mask="url(#mask-2)" points="8.14603175 20.5687619 9.77333333 20.5687619 9.77333333 18.9414603 8.14603175 18.9414603"></polygon>
                <polygon id="Fill-23" fill="#FEFEFE" mask="url(#mask-2)" points="8.14603175 23.568127 9.77333333 23.568127 9.77333333 21.9408254 8.14603175 21.9408254"></polygon>
                <polygon id="Fill-24" fill="#FEFEFE" mask="url(#mask-2)" points="8.14603175 26.568127 9.77333333 26.568127 9.77333333 24.9414603 8.14603175 24.9414603"></polygon>
                <polygon id="Fill-25" fill="#FEFEFE" mask="url(#mask-2)" points="14.1466667 26.5687619 15.7739683 26.5687619 15.7739683 24.9420952 14.1466667 24.9420952"></polygon>
                <polygon id="Fill-26" fill="#FEFEFE" mask="url(#mask-2)" points="11.1460317 26.5687619 12.7733333 26.5687619 12.7733333 24.9420952 11.1460317 24.9420952"></polygon>
            </g>
        </g>
    </g>
</svg>