<?xml version="1.0" encoding="UTF-8"?>
<svg width="142px" height="82px" viewBox="0 0 142 82" version="1.1" xmlns="http://www.w3.org/2000/svg" xmlns:xlink="http://www.w3.org/1999/xlink">
    <!-- Generator: Sketch 43.1 (39012) - http://www.bohemiancoding.com/sketch -->
    <title>Illustration</title>
    <desc>Created with Sketch.</desc>
    <defs>
        <polygon id="path-1" points="1.94647419e-05 20.197105 36.6929845 20.197105 36.6929845 0.0979963633 1.94647419e-05 0.0979963633 1.94647419e-05 20.197105"></polygon>
        <polygon id="path-3" points="35.3489441 19.4126926 35.3489441 0.0497029982 1.94647419e-05 0.0497029982 1.94647419e-05 19.4126926 35.3489441 19.4126926"></polygon>
        <polygon id="path-5" points="0.144517816 19.4127514 4.55126536 19.4127514 4.55126536 0.176361905 0.144517816 0.176361905 0.144517816 19.4127514"></polygon>
        <polygon id="path-7" points="0.0885061804 19.4127514 4.49515239 19.4127514 4.49515239 0.176361905 0.0885061804 0.176361905 0.0885061804 19.4127514"></polygon>
    </defs>
    <g id="Planning-&amp;-Guidance-(CMS)" stroke="none" stroke-width="1" fill="none" fill-rule="evenodd">
        <g id="Dashboard---Team-member" transform="translate(-1104.000000, -817.000000)">
            <g id="Flex---1---Improve-project" transform="translate(30.000000, 719.000000)">
                <g id="Group-5" transform="translate(11.000000, 108.000000)">
                    <g id="Group-4" transform="translate(806.000000, 0.000000)">
                        <g id="Illustration" transform="translate(256.826206, -9.878378)">
                            <g id="Page-1" transform="translate(21.970009, 31.023800)">
                                <polygon id="Fill-1" fill="#9C743E" points="0 47.8440005 36.6927899 47.8440005 36.6927899 38.1489979 0 38.1489979"></polygon>
                                <g id="Group-9" transform="translate(0.000000, 0.194520)">
                                    <g id="Group-4" transform="translate(0.000000, 27.452376)">
                                        <mask id="mask-2" fill="white">
                                            <use xlink:href="#path-1"></use>
                                        </mask>
                                        <g id="Clip-3"></g>
                                        <path d="M31.118302,0.863436044 C30.0753811,0.863436044 24.5604359,-0.276621904 23.7252038,0.225952661 C22.0961996,1.20619856 18.3465117,4.42891139 18.3465117,6.47940777 C18.3465117,4.42891139 14.5966292,1.20619856 12.967625,0.225952661 C12.1325876,-0.276621904 6.61803163,0.863436044 5.57472148,0.863436044 C2.49559399,0.863436044 1.94647419e-05,3.3774854 1.94647419e-05,6.47940777 L1.94647419e-05,9.41269412 L1.94647419e-05,10.5019652 L6.72100012,10.5019652 L6.72100012,15.891847 L6.72100012,20.1971639 L18.3465117,20.1971639 L29.9718287,20.1971639 L29.9718287,15.891847 L29.9718287,10.5019652 L36.693004,10.5019652 L36.693004,9.41269412 L36.693004,6.47940777 C36.693004,3.3774854 34.1972348,0.863436044 31.118302,0.863436044" id="Fill-2" fill="#FB8C00" mask="url(#mask-2)"></path>
                                    </g>
                                    <path d="M22.3010076,22.5802262 C22.3010076,17.8007675 18.3465507,17.4027081 18.3465507,17.4027081 C18.3465507,17.4027081 14.3918991,17.8007675 14.3918991,22.5802262 C14.3918991,27.3598809 10.4374422,27.6783284 10.4374422,27.6783284 C11.9401202,34.5290688 18.3465507,33.9713934 18.3465507,33.9713934 C18.3465507,33.9713934 24.7529811,34.5290688 26.2554645,27.6783284 C26.2554645,27.6783284 22.3010076,27.3598809 22.3010076,22.5802262" id="Fill-5" fill="#9C743E"></path>
                                    <path d="M26.7814991,14.4565387 C26.5136643,14.3784955 26.2425204,14.4020262 26.0023255,14.4985016 C26.3005254,10.2716201 26.0576054,4.84487371 24.5677741,2.80869178 C22.2623701,-0.343233132 18.3464533,0.0138438409 18.3464533,0.0138438409 C18.3464533,0.0138438409 14.4305366,-0.343233132 12.1253272,2.80869178 C10.6358852,4.84487371 10.3923813,10.2716201 10.6905811,14.4985016 C10.4503862,14.4020262 10.1792424,14.3784955 9.91140753,14.4565387 C9.27510513,14.6445875 8.90955728,15.3165824 9.0960295,15.9581837 L9.75491101,18.2267304 C9.94157788,18.8683316 10.6092185,19.2359974 11.2455209,19.0483408 C11.2803628,19.0381442 11.3120903,19.0206923 11.3451804,19.0077505 C11.4333557,19.3175701 11.5256186,20.1774178 11.6202172,20.353309 C12.7133571,22.3861575 12.8264472,25.0964913 18.3464533,25.0964913 C23.8664594,25.0964913 23.9795496,22.3861575 25.0724948,20.353309 C25.1672881,20.1774178 25.259551,19.3175701 25.3477263,19.0077505 C25.3808163,19.0206923 25.4123492,19.0381442 25.4473857,19.0483408 C26.0840774,19.2359974 26.7513288,18.8683316 26.9379957,18.2267304 L27.5970718,15.9581837 C27.7831547,15.3165824 27.4179962,14.6445875 26.7814991,14.4565387" id="Fill-7" fill="#AB8551"></path>
                                </g>
                            </g>
                            <g id="Page-1" transform="translate(50.965183, 28.090328)">
                                <path d="M10.288459,18.3771694 C10.3871453,18.8777831 10.0646145,19.363494 9.5682636,19.4629108 C9.07171804,19.5621316 8.58938174,19.2378014 8.49030621,18.7371877 L7.97293337,16.1145054 C7.87405248,15.614676 8.19638861,15.128769 8.69293417,15.0295482 C9.18947973,14.9297393 9.67181603,15.2542656 9.77108621,15.7546831 L10.288459,18.3771694 L10.288459,18.3771694 Z" id="Fill-1" fill="#EDC18E"></path>
                                <path d="M25.0606603,18.3771694 C24.961974,18.8777831 25.2839208,19.363494 25.7808557,19.4629108 C26.2774013,19.5621316 26.7597376,19.2378014 26.8586184,18.7371877 L27.3759913,16.1145054 C27.4746775,15.614676 27.1521468,15.128769 26.6561851,15.0295482 C26.1596396,14.9297393 25.6773033,15.2542656 25.5780331,15.7546831 L25.0606603,18.3771694 Z" id="Fill-3" fill="#EDC18E"></path>
                                <path d="M21.3105637,21.3406926 L14.0385362,21.3406926 C14.0385362,28.7249895 9.58597651,29.2256032 9.58597651,29.2256032 C9.58597651,36.2194881 17.6745499,37.3101317 17.6745499,37.3101317 C17.6745499,37.3101317 25.762734,36.2194881 25.762734,29.2256032 C25.762734,29.2256032 21.3105637,28.7249895 21.3105637,21.3406926" id="Fill-5" fill="#EDC18E"></path>
                                <g id="Group-9" transform="translate(0.000000, 28.604395)">
                                    <mask id="mask-4" fill="white">
                                        <use xlink:href="#path-3"></use>
                                    </mask>
                                    <g id="Clip-8"></g>
                                    <path d="M29.9786414,0.787040004 C28.9736767,0.787040004 23.6607755,-0.311055026 22.8562977,0.172891141 C21.2868556,1.11725287 17.6745888,4.22172439 17.6745888,6.19711891 C17.6745888,4.22172439 14.0621274,1.11725287 12.4926853,0.172891141 C11.6884022,-0.311055026 6.3756956,0.787040004 5.37034169,0.787040004 C2.40430436,0.787040004 1.94647419e-05,3.20931999 1.94647419e-05,6.19711891 L1.94647419e-05,10.07261 L1.94647419e-05,19.4126926 L6.47496578,19.4126926 L17.6745888,19.4126926 L28.8742119,19.4126926 L35.3489636,19.4126926 L35.3489636,10.07261 L35.3489636,6.19711891 C35.3489636,3.20931999 32.9446787,0.787040004 29.9786414,0.787040004" id="Fill-7" fill="#1A237E" mask="url(#mask-4)"></path>
                                </g>
                                <g id="Group-12" transform="translate(8.564486, 28.604395)">
                                    <mask id="mask-6" fill="white">
                                        <use xlink:href="#path-5"></use>
                                    </mask>
                                    <g id="Clip-11"></g>
                                    <path d="M2.13179797,0.176361905 C2.13179797,0.176361905 -0.692536044,4.50579765 0.392817952,10.1296129 L2.7702415,12.1459899 L1.45773397,13.8784309 C1.45773397,13.8784309 1.78843993,18.1260978 2.7702415,19.4128299 L4.55126536,19.4128299 L4.55126536,2.73570768 L2.13179797,0.176361905 Z" id="Fill-10" fill="#121960" mask="url(#mask-6)"></path>
                                </g>
                                <g id="Group-15" transform="translate(21.995158, 28.604395)">
                                    <mask id="mask-8" fill="white">
                                        <use xlink:href="#path-7"></use>
                                    </mask>
                                    <g id="Clip-14"></g>
                                    <path d="M2.50816822,0.176361905 C2.50816822,0.176361905 5.33230759,4.50579765 4.24675894,10.1296129 L1.86914075,12.1459899 L3.18203757,13.8784309 C3.18203757,13.8784309 2.85133161,18.1260978 1.86914075,19.4128299 L0.0885061804,19.4128299 L0.0885061804,2.73570768 L2.50816822,0.176361905 Z" id="Fill-13" fill="#121960" mask="url(#mask-8)"></path>
                                </g>
                                <path d="M17.674511,26.3838509 C14.2962104,26.3838509 11.7175214,23.5178228 10.5618997,21.3681057 C9.40627802,19.219173 8.60647178,6.85932904 11.0960122,3.45641098 C13.5335818,0.12271212 17.674511,0.500770552 17.674511,0.500770552 C17.674511,0.500770552 21.8154401,0.12271212 24.2535937,3.45641098 C26.7427448,6.85932904 25.942744,19.219173 24.7871222,21.3681057 C23.6313059,23.5178228 21.0528116,26.3838509 17.674511,26.3838509" id="Fill-16" fill="#FCD6AA"></path>
                                <polygon id="Fill-18" fill="#E5E5E5" points="13.1157322 48.0171465 22.083528 48.0171465 22.083528 30.2609499 13.1157322 30.2609499"></polygon>
                                <path d="M11.9923052,26.6910037 C11.9923052,26.6910037 13.1158101,28.6932624 15.5356668,30.2609891 C15.5356668,30.2609891 12.7703109,34.1351076 12.8131334,35.571259 C12.8131334,35.571259 10.7393598,30.5215906 10.6963427,28.7807178 C10.6963427,28.7807178 11.6033997,26.8651302 11.9923052,26.6910037" id="Fill-20" fill="#F1F1F1"></path>
                                <path d="M23.3567362,26.6910037 C23.3567362,26.6910037 22.233426,28.6932624 19.8135693,30.2609891 C19.8135693,30.2609891 22.5787305,34.1351076 22.5359081,35.571259 C22.5359081,35.571259 24.6096817,30.5215906 24.6528934,28.7807178 C24.6528934,28.7807178 23.7456418,26.8651302 23.3567362,26.6910037" id="Fill-21" fill="#F1F1F1"></path>
                                <polygon id="Fill-22" fill="#092133" points="15.5355889 30.2609891 19.8135498 30.2609891 19.8135498 32.5238492 18.7507749 33.9172534 16.6766121 33.9172534 15.5355889 32.3938426"></polygon>
                                <polygon id="Fill-23" fill="#092133" points="16.6765731 33.9173514 15.53555 48.0170877 19.8135109 48.0170877 18.750736 33.9173514"></polygon>
                                <path d="M25.799717,15.6005184 L24.6156768,9.93964248 C24.6156768,9.93964248 22.6427306,9.63354849 22.1113431,6.42220879 C22.1113431,6.42220879 21.4279361,8.79252535 19.4544059,9.32804276 C17.4816543,9.86257974 11.6375603,9.40432115 11.6375603,9.40432115 C11.6375603,9.40432115 11.3856865,11.0102851 10.430357,11.7746377 L9.47405425,15.2320683 C9.47405425,15.2320683 5.84096022,-7.84353595e-05 17.7707057,-7.84353595e-05 C29.7006459,-7.84353595e-05 25.799717,15.6005184 25.799717,15.6005184" id="Fill-24" fill="#5D4037"></path>
                            </g>
                            <g id="Page-1" transform="translate(80.404540, 32.391706)">
                                <path d="M18.3768767,0.114319536 C18.3768767,0.114319536 11.5447524,-0.47629872 8.92518746,6.73093036 C6.30523324,13.9381594 4.5900002,27.6774852 19.0892863,29.2979598 L18.828848,36.3873397 C18.828848,36.3873397 25.1879791,37.6870136 29.6450157,33.0787402 C34.1020522,28.4706628 31.9903224,4.5702323 24.4843287,1.51556723 C21.0830598,-0.594147847 18.3768767,0.114319536 18.3768767,0.114319536" id="Fill-24" fill="#3B3B3B"></path>
                                <path d="M35.5842728,33.0560135 C35.2660243,31.5159353 30.1709335,28.6289258 28.515068,28.2442003 C26.8592024,27.8590827 25.9040675,30.3962705 25.9040675,30.3962705 L18.4523805,38.3809901 L11.0010827,30.3962705 C11.0010827,30.3962705 10.0455585,27.8590827 8.38969296,28.2442003 C6.73382738,28.6289258 1.6391259,31.5159353 1.32087737,33.0560135 C1.00223955,34.5953075 -0.971874552,44.7322933 1.00223955,48.6462177 L18.4523805,48.6462177 L35.902716,48.6462177 C37.8766355,44.7322933 35.902716,34.5953075 35.5842728,33.0560135" id="Fill-25" fill="#89BA67"></path>
                                <path d="M22.0886862,22.4121 L14.8160747,22.4121 C14.8160747,29.7960047 10.3639044,30.2968145 10.3639044,30.2968145 C10.3639044,37.2903072 18.4524778,38.3811469 18.4524778,38.3811469 C18.4524778,38.3811469 26.5408565,37.2903072 26.5408565,30.2968145 C26.5408565,30.2968145 22.0886862,29.7960047 22.0886862,22.4121" id="Fill-26" fill="#EDD0A8"></path>
                                <path d="M18.4524389,25.1073546 C15.3746739,25.1073546 13.0252796,22.4960454 11.9726264,20.5375145 C10.9197785,18.5795718 10.1912132,7.320176 12.4592449,4.21982233 C14.6799773,1.18339348 18.4524389,1.52674427 18.4524389,1.52674427 C18.4524389,1.52674427 22.2245111,1.18339348 24.4460221,4.21982233 C26.7136645,7.320176 25.9852939,18.5795718 24.9322514,20.5375145 C23.8794035,22.4960454 21.5303985,25.1073546 18.4524389,25.1073546" id="Fill-27" fill="#FCE5C5"></path>
                                <path d="M11.0401484,14.9059733 C20.3980176,13.5566891 22.5720346,6.90262536 22.5720346,6.90262536 C22.5720346,6.90262536 22.8439571,10.5408495 25.9318437,12.9823462 C25.9318437,12.9823462 28.1428437,6.64300432 24.6354919,3.16086655 C21.1279455,-0.320486878 15.4025863,-0.21616785 11.9466215,3.52461052 C8.49065657,7.26578108 11.0401484,14.9059733 11.0401484,14.9059733" id="Fill-28" fill="#3B3B3B"></path>
                                <path d="M7.33587184,39.1644417 C7.33587184,39.1644417 5.2330958,46.381083 11.206825,48.6461001 L6.42784164,48.6461001 C6.42784164,48.6461001 5.75844918,42.8232551 7.33587184,39.1644417" id="Fill-29" fill="#8BC53F"></path>
                                <path d="M29.568928,39.1644417 C29.568928,39.1644417 31.6720933,46.381083 25.6981695,48.6461001 L30.4769582,48.6461001 C30.4769582,48.6461001 31.1463507,42.8232551 29.568928,39.1644417" id="Fill-30" fill="#8BC53F"></path>
                            </g>
                            <path d="M35.5626544,33.1117702 L35.5626544,9.60811885 L4.38168255,9.60811885 L4.38168255,33.1117702 L17.2438236,33.1117702 C17.5892835,35.1181537 18.8426592,38.3169083 23.2527237,39.6658507 C23.2527237,39.6658507 21.6139567,35.9490642 22.5082117,33.1117702 L35.5626544,33.1117702 Z" id="Fill-1" fill="#BDBDBD" transform="translate(19.972168, 24.636985) rotate(-19.000000) translate(-19.972168, -24.636985) "></path>
                            <path d="M100.636816,23.9085218 L100.636816,0.424894733 L65.6115169,0.424894733 L65.6115169,23.9085218 L80.0594415,23.9085218 C80.4474934,26.1557032 81.8553988,29.7383592 86.8091838,31.2491961 C86.8091838,31.2491961 84.9683718,27.0863362 85.9728803,23.9085218 L100.636816,23.9085218 Z" id="Fill-1" fill="#BDBDBD" transform="translate(83.124166, 15.837045) scale(-1, 1) translate(-83.124166, -15.837045) "></path>
                            <path d="M132.165952,15.5774535 L110.416858,26.7940547 L118.483255,42.5013263 L121.432059,40.9806294 C123.722742,42.7305192 123.966531,46.942524 123.966531,46.942524 C127.283532,43.7147535 126.557012,40.2738013 125.930126,38.6608155 L140.232349,31.284725 L132.165952,15.5774535 Z" id="Fill-1" fill="#BDBDBD" transform="translate(125.324603, 31.259989) rotate(46.000000) translate(-125.324603, -31.259989) "></path>
                            <g id="Group-2" transform="translate(18.811248, 21.847994) rotate(-20.000000) translate(-18.811248, -21.847994) translate(8.311248, 15.347994)" stroke="#EEEEEE" stroke-width="2" stroke-linecap="square">
                                <path d="M0.287913425,4.5011053 L20.9751578,4.5011053" id="Line"></path>
                                <path d="M0.633720977,1.09317744 L14.9425756,1.09317744" id="Line"></path>
                                <path d="M0.287913425,7.943127 L16.014188,7.943127" id="Line"></path>
                                <path d="M0.287913425,11.3851487 L18.0481849,11.3851487" id="Line"></path>
                            </g>
                            <g id="Group-2" transform="translate(127.137397, 29.648117) rotate(19.000000) translate(-127.137397, -29.648117) translate(119.137397, 25.648117)" stroke="#EEEEEE" stroke-width="2" stroke-linecap="square">
                                <path d="M0.243619052,1.30204984 L12.5113882,1.30204984" id="Line"></path>
                                <path d="M0.243619052,4.26125402 L15.3480003,4.26125402" id="Line"></path>
                                <path d="M0.243619052,7.22045819 L7.64255083,7.22045819" id="Line"></path>
                            </g>
                            <g id="Group-2" transform="translate(70.870997, 4.723179)" stroke="#EEEEEE" stroke-width="2" stroke-linecap="square">
                                <path d="M0.354354984,7.29119039 L22.324364,7.29119039" id="Line"></path>
                                <path d="M0.354354984,10.546315 L25.1592039,10.546315" id="Line"></path>
                                <path d="M0.354354984,0.899309367 L22.324364,0.899309367" id="Line"></path>
                                <path d="M0.354354984,4.15443396 L25.1592039,4.15443396" id="Line"></path>
                                <path d="M0.354354984,13.8014396 L15.2372643,13.8014396" id="Line"></path>
                            </g>
                        </g>
                    </g>
                </g>
            </g>
        </g>
    </g>
</svg>