<?xml version="1.0" encoding="UTF-8"?>
<svg width="134px" height="109px" viewBox="0 0 134 109" version="1.1" xmlns="http://www.w3.org/2000/svg" xmlns:xlink="http://www.w3.org/1999/xlink">
    <!-- Generator: Sketch 43.1 (39012) - http://www.bohemiancoding.com/sketch -->
    <title>Illustration</title>
    <desc>Created with Sketch.</desc>
    <defs>
        <polygon id="path-1" points="0 108.004608 133.285615 108.004608 133.285615 0 0 0"></polygon>
    </defs>
    <g id="Planning-&amp;-Guidance-(CMS)" stroke="none" stroke-width="1" fill="none" fill-rule="evenodd">
        <g id="Dashboard---Team-member" transform="translate(-296.000000, -832.000000)">
            <g id="Flex---1---Improve-project" transform="translate(30.000000, 719.000000)">
                <g id="Group-5" transform="translate(11.000000, 108.000000)">
                    <g id="Group-4">
                        <g id="Illustration" transform="translate(255.000000, 5.086207)">
                            <path d="M90.5635524,107.18251 C89.8633007,107.18251 89.2949293,106.614572 89.2949293,105.914603 L89.2949293,54.2461592 C89.2949293,53.5461902 89.8633007,52.9780009 90.5640567,52.9780009 C91.2648128,52.9780009 91.8326798,53.5461902 91.8326798,54.2461592 L91.8326798,105.914603 C91.8326798,106.614572 91.2648128,107.18251 90.5635524,107.18251 L90.5635524,107.18251 Z" id="Fill-1" fill="#9D9D9D"></path>
                            <path d="M117.977462,105.966232 C117.30873,106.172594 116.597131,105.799932 116.388846,105.130704 L101.069295,55.7813791 C100.862019,55.1129063 101.236478,54.4028585 101.905462,54.1957403 C102.575958,53.9873622 103.28554,54.3617876 103.492817,55.0302605 L118.813376,104.379585 C119.020148,105.047806 118.647706,105.75735 117.977462,105.966232" id="Fill-3" fill="#9D9D9D"></path>
                            <path d="M63.621336,105.966232 C64.290824,106.172594 65.002423,105.799932 65.2094474,105.130704 L80.5297547,55.7813791 C80.7370312,55.1129063 80.362824,54.4028585 79.6933359,54.1957403 C79.0238479,53.9873622 78.3130054,54.3617876 78.1054767,55.0302605 L62.7856737,104.379585 C62.578145,105.047806 62.9518479,105.75735 63.621336,105.966232" id="Fill-5" fill="#9D9D9D"></path>
                            <mask id="mask-2" fill="white">
                                <use xlink:href="#path-1"></use>
                            </mask>
                            <g id="Clip-8"></g>
                            <polygon id="Fill-7" fill="#FFFFFF" mask="url(#mask-2)" points="49.7546876 66.7724542 131.373224 66.7724542 131.373224 10.8560703 49.7546876 10.8560703"></polygon>
                            <path d="M133.285665,67.8280266 C133.285665,69.2833976 131.632244,70.463115 129.592764,70.463115 L51.534492,70.463115 C49.495012,70.463115 47.8428517,69.2833976 47.8428517,67.8280266 C47.8428517,66.3731595 49.495012,65.1939461 51.534492,65.1939461 L129.592764,65.1939461 C131.632244,65.1939461 133.285665,66.3731595 133.285665,67.8280266" id="Fill-10" fill="#9D9D9D" mask="url(#mask-2)"></path>
                            <polygon id="Fill-12" fill="#C9C9C9" mask="url(#mask-2)" points="125.424363 56.0619391 54.8192198 56.0999863 54.8182111 56.8473254 125.425371 56.8087742"></polygon>
                            <polygon id="Fill-13" fill="#C9C9C9" mask="url(#mask-2)" points="125.427313 50.3265777 54.8211614 50.3651289 54.8211614 51.1109562 125.427313 51.0739168"></polygon>
                            <polygon id="Fill-14" fill="#C9C9C9" mask="url(#mask-2)" points="125.430263 44.5908385 54.8233552 44.6286338 54.8233552 45.3764768 125.430263 45.3379256"></polygon>
                            <polygon id="Fill-15" fill="#C9C9C9" mask="url(#mask-2)" points="125.431499 38.8557291 54.8253473 38.8927685 54.8263559 39.6403595 125.431499 39.6025642"></polygon>
                            <polygon id="Fill-16" fill="#C9C9C9" mask="url(#mask-2)" points="125.433466 33.1195111 54.8273141 33.1570544 54.8283228 33.9043935 125.433466 33.8658423"></polygon>
                            <polygon id="Fill-17" fill="#C9C9C9" mask="url(#mask-2)" points="125.435432 27.3831671 54.8295332 27.4217183 54.8295332 28.1705692 125.434424 28.1310101"></polygon>
                            <polygon id="Fill-18" fill="#C9C9C9" mask="url(#mask-2)" points="125.437651 21.6485365 54.8335173 21.6863318 54.8315 22.4331669 125.436391 22.3946157"></polygon>
                            <polygon id="Fill-19" fill="#C9C9C9" mask="url(#mask-2)" points="125.440602 15.9120665 54.8344503 15.9508696 54.8344503 16.6974528 125.439593 16.6599095"></polygon>
                            <polygon id="Fill-20" fill="#039BE5" mask="url(#mask-2)" points="54.8365685 45.9756835 62.6275938 45.9640929 62.6222984 56.8569506 54.8325339 56.8680372"></polygon>
                            <polygon id="Fill-21" fill="#F44336" mask="url(#mask-2)" points="63.8340844 41.2656835 71.627127 41.2568646 71.630153 56.841127 63.8391276 56.8544813"></polygon>
                            <polygon id="Fill-22" fill="#039BE5" mask="url(#mask-2)" points="72.8285492 30.3297643 80.6193224 30.3191816 80.6399996 56.8315774 72.8509915 56.8411522"></polygon>
                            <polygon id="Fill-23" fill="#F44336" mask="url(#mask-2)" points="81.8444225 33.9905668 89.6334305 33.9819998 89.6478037 56.8159049 81.8567784 56.8272435"></polygon>
                            <polygon id="Fill-24" fill="#039BE5" mask="url(#mask-2)" points="90.8612792 45.3871099 98.6502872 45.3722437 98.6563391 56.8028025 90.867331 56.8143931"></polygon>
                            <polygon id="Fill-25" fill="#F44336" mask="url(#mask-2)" points="99.6342203 41.0426156 107.426002 41.0287573 107.435332 56.7705002 99.6443068 56.779823"></polygon>
                            <polygon id="Fill-26" fill="#039BE5" mask="url(#mask-2)" points="108.639881 33.9275746 116.428889 33.9185037 116.44301 56.7546765 108.652237 56.7675269"></polygon>
                            <polygon id="Fill-27" fill="#F44336" mask="url(#mask-2)" points="117.629277 18.8281503 125.421059 18.8183235 125.454849 56.7416246 117.663067 56.7552309"></polygon>
                            <path d="M38.8144712,35.8844713 L47.8905101,50.1277565 L54.6600304,36.5620151 L59.2786154,38.862741 L50.8919852,55.6700594 C50.5417333,56.3733039 49.8883835,56.8779972 49.119544,57.0410209 C48.9415181,57.0790682 48.761475,57.0979659 48.5829449,57.0979659 C47.9896095,57.0979659 47.4091344,56.8933673 46.9423839,56.5101229 L35.204279,43.3976732 L38.8144712,35.8844713 Z" id="Fill-28" fill="#003C60" mask="url(#mask-2)"></path>
                            <polygon id="Fill-29" fill="#E0B496" mask="url(#mask-2)" points="17.012057 33.6771249 27.5697953 33.6771249 27.5697953 30.9397373 17.012057 30.9397373"></polygon>
                            <path d="M24.5655213,24.8010497 L23.0379286,23.9922303 L23.0371721,8.57023567 C23.0371721,8.57023567 24.0932233,8.20588897 25.6016517,6.69407693 L22.0938369,6.69407693 L10.6068845,6.69407693 C10.6068845,6.69407693 10.2558761,11.8924426 10.1719064,16.6614537 C10.1343344,16.6599419 10.2591542,16.763249 10.006993,16.763249 C8.2418644,16.763249 8.2418644,22.7837885 10.006993,22.7837885 C10.2591542,22.7837885 10.1819929,22.7913476 10.2430159,22.7883239 C10.2437724,22.7933633 10.269745,22.8049539 10.2707536,22.8107492 C10.2785706,22.8026862 10.3005086,22.7986547 10.3005086,22.7986547 C10.3005086,22.7986547 13.4363856,30.6530221 19.2123906,32.7095904 C19.2181903,32.7113542 19.2257552,32.7143778 19.231807,32.7161416 C19.9272677,32.8574961 22.0920718,32.7108503 22.0920718,32.7108503 C22.0920718,32.7108503 22.509903,32.7395747 23.0364156,32.7592283 L23.0374242,25.7252708 L24.5655213,24.8010497 Z" id="Fill-30" fill="#FDD0AB" mask="url(#mask-2)"></path>
                            <path d="M24.9860001,32.8303721 C25.2056325,32.7163545 25.4199696,32.5865724 25.6320372,32.449458 C24.8995088,32.6430313 24.2557412,32.8091083 23.7922689,32.9275253 C24.2769227,32.9333912 24.7398907,32.9124941 24.9860001,32.8303721" id="Fill-31" fill="#FDD0AB" mask="url(#mask-2)"></path>
                            <path d="M33.8349174,22.802031 C33.8964448,22.8050547 33.9622588,22.810346 33.9622588,22.810346 C35.9795486,22.810346 35.9795486,16.8701845 33.9622588,16.8701845 C33.9622588,16.8701845 33.9441032,16.6600427 33.9060269,16.6615545 C33.8228137,11.8922914 33.5807389,6.69392575 33.5807389,6.69392575 L25.6016013,6.69392575 C24.0931728,8.20573779 22.867165,8.61090341 22.867165,8.61090341 L22.867165,32.7484944 C23.1193262,32.7573133 23.4516747,32.7704157 23.707114,32.7724314 C24.1708385,32.6915495 24.828475,32.5799274 25.5610033,32.4468879 C30.9232118,30.0635162 33.8349174,22.802031 33.8349174,22.802031" id="Fill-32" fill="#FDD0AB" mask="url(#mask-2)"></path>
                            <polygon id="Fill-33" fill="#373844" mask="url(#mask-2)" points="24.2522866 105.250187 29.8590914 105.250187 31.211432 66.5450273 21.5730736 66.5450273"></polygon>
                            <polygon id="Fill-34" fill="#2D2E3A" mask="url(#mask-2)" points="20.3584382 105.250187 14.7516334 105.250187 13.3995449 66.5450273 23.0379033 66.5450273"></polygon>
                            <polygon id="Fill-35" fill="#E8E1E5" mask="url(#mask-2)" points="12.585871 54.5078791 31.6923792 54.5078791 31.6923792 35.8846225 12.585871 35.8846225"></polygon>
                            <polygon id="Fill-36" fill="#212121" mask="url(#mask-2)" points="19.7129559 36.4422292 24.5655465 36.4422292 24.5655465 33.6771249 19.7129559 33.6771249"></polygon>
                            <polygon id="Fill-37" fill="#212121" mask="url(#mask-2)" points="19.1961514 64.012465 22.1799752 66.5444982 25.0823509 64.012465 22.9871433 35.8844461 21.2906026 35.8844461"></polygon>
                            <polygon id="Fill-38" fill="#FEF7FA" mask="url(#mask-2)" points="24.889851 37.4557228 29.1972691 35.8844461 29.1972691 33.6766966 23.701163 33.6766966"></polygon>
                            <polygon id="Fill-39" fill="#FEF7FA" mask="url(#mask-2)" points="19.3941232 37.4557228 15.0867052 35.8844461 15.0867052 33.6766966 20.5828112 33.6766966"></polygon>
                            <path d="M6.05247457,70.1810108 C4.38770617,70.340759 2.72318993,70.5000032 1.05867368,70.6600033 C-1.26927874,58.9439639 0.25453154,47.0273575 5.50427607,35.8845469 C7.0966742,36.2914763 8.68907233,36.6979018 10.2817226,37.1048312 C5.28792174,47.7028855 3.83875118,59.0369404 6.05247457,70.1810108" id="Fill-40" fill="#003C60" mask="url(#mask-2)"></path>
                            <path d="M6.74395108,70.7449923 C6.52633594,70.6265671 6.30317326,70.5396379 6.0883319,70.4774016 C6.04899475,70.3791338 6.0063795,70.2828818 5.96048616,70.1899053 L1.17219667,70.6492442 C1.1010872,71.0471028 1.09074859,71.4757015 1.15227593,71.9204262 C1.40645444,73.755766 2.7782115,75.1476409 4.21628697,75.0297196 C5.50508298,74.9241447 6.40605504,73.6401124 6.39672507,72.0532137 C6.92273339,72.2129618 7.40057891,72.2041429 7.5924736,71.9937491 C7.85825153,71.7037331 7.47849673,71.1446146 6.74395108,70.7449923" id="Fill-41" fill="#FDD0AB" mask="url(#mask-2)"></path>
                            <path d="M24.406458,71.8284072 L24.4026755,71.8226119 C24.3529998,71.8243757 24.3035762,71.8284072 24.2531439,71.8284072 C22.7275685,71.8284072 21.4700405,70.8676507 21.2718418,69.6231774 L21.2413303,69.6151144 L21.2413303,53.5369934 L29.0240343,35.8845721 L38.814446,35.8845721 L34.9896645,53.5503477 L34.9896645,71.8284072 L24.406458,71.8284072 Z" id="Fill-42" fill="#003C60" mask="url(#mask-2)"></path>
                            <polygon id="Fill-43" fill="#004873" mask="url(#mask-2)" points="27.7249249 44.1129619 21.2413555 53.5365902 29.4396212 34.6890815 33.3861965 35.8849249 30.7427904 39.7261873 27.9233758 43.8247097"></polygon>
                            <path d="M19.8717418,71.8284072 L19.8760285,71.8226119 C19.9252,71.8243757 19.9746236,71.8284072 20.0250558,71.8284072 C21.5506312,71.8284072 22.8079071,70.8676507 23.0071145,69.6231774 L23.0371216,69.6151144 L23.0371216,53.5369934 L15.2546698,35.8845721 L5.46400592,35.8845721 L9.28853521,53.5503477 L9.28853521,71.8284072 L19.8717418,71.8284072 Z" id="Fill-44" fill="#003C60" mask="url(#mask-2)"></path>
                            <polygon id="Fill-45" fill="#004873" mask="url(#mask-2)" points="10.8926841 35.8844713 14.8390072 34.6891319 23.0372729 53.5371446 13.5353337 39.7262377"></polygon>
                            <path d="M35.103364,7.23104737 C33.0232861,-0.912832108 20.3738704,-0.371603399 15.4201632,0.42234989 C15.3490537,-0.0573984637 12.9875639,1.06738969 12.2489836,1.7043665 C12.0316207,1.88150047 11.8361957,2.06039823 11.6654826,2.24181568 C11.6337102,2.27331176 11.6137895,2.29523304 11.6137895,2.29523304 L11.6180762,2.29523304 C10.5915279,3.42128103 10.4253537,4.61586451 10.6369169,5.68446365 C9.33828662,8.25857562 8.58785482,12.0728774 10.2952385,17.3632116 C10.3002817,17.3785817 10.3050728,17.3936999 10.3096117,17.4080621 C10.3653393,17.577889 10.4220756,17.7479678 10.4823421,17.9205663 L10.9024427,17.2011958 C10.9024427,17.2011958 11.0673561,15.9481556 11.3079179,14.4255089 L12.5694805,9.0847809 C12.5694805,9.0847809 12.7091779,9.10997776 12.9633564,9.15205653 C16.006438,10.2702935 27.6540171,11.2567509 27.6540171,11.2567509 C27.6540171,11.2567509 29.0615811,10.9113018 30.7717385,10.3448762 C31.1514933,10.298766 31.5161185,10.2445927 31.8588056,10.1790808 L32.4470977,10.9715223 C32.4470977,10.9715223 32.7766724,12.6125943 32.92923,13.3438074 C33.0817875,14.0742646 33.6917655,18.3972911 33.6917655,18.3972911 L34.1953315,17.9205663 C34.1953315,17.9205663 34.9028959,12.703555 34.9450068,11.4852864 C34.9820745,10.4144196 35.3888105,8.04616603 35.103364,7.23104737" id="Fill-46" fill="#5D4037" mask="url(#mask-2)"></path>
                            <path d="M15.2930487,104.239591 C15.2224436,104.237323 15.1536036,104.232284 15.0827463,104.232284 C15.0116368,104.232284 14.9420403,104.237323 14.8719395,104.239591 L14.7516586,104.239591 L14.7577104,104.243371 C11.9960407,104.364316 9.80602047,105.99934 9.80602047,108.004507 L20.3584634,108.004507 L20.3584634,104.239591 L15.2930487,104.239591 Z" id="Fill-47" fill="#373844" mask="url(#mask-2)"></path>
                            <path d="M29.3178021,104.239591 C29.3884073,104.237323 29.4572473,104.232284 29.5281046,104.232284 C29.5994662,104.232284 29.6690627,104.237323 29.7389114,104.239591 L29.8591923,104.239591 L29.8531404,104.243371 C32.6148101,104.364316 34.8048304,105.99934 34.8048304,108.004507 L24.2523874,108.004507 L24.2523874,104.239591 L29.3178021,104.239591 Z" id="Fill-48" fill="#2D2E3A" mask="url(#mask-2)"></path>
                            <path d="M25.7649009,63.2491763 L34.2057457,63.2491763 C34.5101043,63.2491763 34.7594918,63.0002312 34.7594918,62.696609 L34.7594918,61.5428444 C34.7594918,61.2387182 34.5101043,60.9895212 34.2057457,60.9895212 L25.7649009,60.9895212 C25.4605423,60.9895212 25.2116592,61.2387182 25.2116592,61.5428444 L25.2116592,62.696609 C25.2116592,63.0002312 25.4605423,63.2491763 25.7649009,63.2491763" id="Fill-49" fill="#043A4F" mask="url(#mask-2)"></path>
                            <path d="M10.0726558,63.2491763 L18.5142571,63.2491763 C18.8183635,63.2491763 19.0672466,63.0002312 19.0672466,62.696609 L19.0672466,61.5428444 C19.0672466,61.2387182 18.8183635,60.9895212 18.5142571,60.9895212 L10.0726558,60.9895212 C9.76854932,60.9895212 9.51966619,61.2387182 9.51966619,61.5428444 L9.51966619,62.696609 C9.51966619,63.0002312 9.76854932,63.2491763 10.0726558,63.2491763" id="Fill-50" fill="#043A4F" mask="url(#mask-2)"></path>
                            <path d="M69.8712023,34.9194313 C69.8712023,34.9194313 66.2156211,34.8138564 62.8036275,34.8042816 C63.1806086,34.5127539 63.392424,34.2018245 62.7017544,34.1345489 C61.919046,34.0587063 60.5722529,34.471179 59.5653731,34.8360297 C58.9241271,34.8544234 58.3625641,34.8811321 57.9341421,34.9194313 C54.998229,35.1802189 55.0093241,36.8978893 55.0093241,36.8978893 L58.7004601,38.7370087 C58.7004601,38.7370087 61.1955954,37.5265512 66.7401164,36.8978893 C72.2853939,36.2692275 69.8712023,34.9194313 69.8712023,34.9194313" id="Fill-51" fill="#FDD0AB" mask="url(#mask-2)"></path>
                            <path d="M30.8668537,22.2895016 C30.8668537,22.2895016 29.1196286,22.9851871 26.7825984,22.213659 C25.24618,21.7059421 24.6820954,19.9086496 24.5597972,19.1950743 C24.4271604,18.4167431 24.2561951,17.2022541 25.4148759,16.8605845 C25.4148759,16.8605845 26.7634341,16.4425685 29.0240595,16.4425685 C31.284937,16.4425685 32.4279839,16.4292142 32.808243,17.226443 C33.1877456,18.0236719 32.6629981,21.8283989 30.8668537,22.2895016 M19.7064501,19.1950743 C19.5844041,19.9086496 19.0200673,21.7059421 17.4836489,22.213659 C15.1463665,22.9851871 13.3993936,22.2895016 13.3993936,22.2895016 C11.6032492,21.8283989 11.0785017,18.0236719 11.4580043,17.226443 C11.8380113,16.4292142 12.9813103,16.4425685 15.2419356,16.4425685 C17.502561,16.4425685 18.8516236,16.8605845 18.8516236,16.8605845 C20.0100522,17.2022541 19.8390869,18.4167431 19.7064501,19.1950743 M34.153271,15.9681115 C34.153271,15.9681115 32.7285601,15.9489619 32.1970042,15.9678595 C31.664944,15.9870091 29.4229786,15.4934025 25.1869222,16.3856236 C25.1869222,16.3856236 23.8829965,16.6567419 22.1329976,16.6776553 C20.3837552,16.6567419 19.0795773,16.3856236 19.0795773,16.3856236 C14.8432687,15.4934025 12.6013033,15.9870091 12.0694953,15.9678595 C11.5376872,15.9489619 10.1127242,15.9681115 10.1127242,15.9681115 C9.88477042,16.8411829 10.0557357,17.6003646 10.1127242,17.6384118 C10.1697126,17.6764591 10.4735669,17.6764591 10.7017728,18.0370263 C10.9294744,18.3978454 10.9796545,19.4132792 11.3407493,20.6093745 C11.509193,21.1667292 11.8919738,21.7699422 12.297449,22.1375645 C12.76193,22.5586041 13.3275276,22.776305 13.7032478,22.8546673 C14.4060212,23.0028249 16.5869636,23.1570297 17.9360262,22.5306356 C19.2845844,21.9039895 19.8965797,20.5428547 20.4092234,19.157027 C20.9221194,17.7714513 21.8909228,17.6953567 21.8909228,17.6953567 C21.8909228,17.6953567 21.9489199,17.6908213 22.0454976,17.6877977 C22.2593303,17.6877977 22.3753245,17.6953567 22.3753245,17.6953567 C22.3753245,17.6953567 23.3441279,17.7714513 23.8570239,19.157027 C24.3699198,20.5428547 24.9814108,21.9039895 26.3302212,22.5306356 C27.6792837,23.1570297 29.8602261,23.0028249 30.5629995,22.8546673 C30.9382154,22.776305 31.5040652,22.5586041 31.9687983,22.1375645 C32.3742735,21.7699422 32.7570543,21.1667292 32.9257501,20.6093745 C33.286845,19.4132792 33.3367729,18.3978454 33.5647267,18.0370263 C33.7926804,17.6764591 34.0965347,17.6764591 34.153271,17.6384118 C34.2105116,17.6003646 34.3814769,16.8411829 34.153271,15.9681115" id="Fill-52" stroke="#212121" fill="#212121" mask="url(#mask-2)"></path>
                        </g>
                    </g>
                </g>
            </g>
        </g>
    </g>
</svg>