<?xml version="1.0" encoding="UTF-8" standalone="no"?>
<svg width="25px" height="25px" viewBox="0 0 25 25" version="1.1" xmlns="http://www.w3.org/2000/svg" xmlns:xlink="http://www.w3.org/1999/xlink">
    <!-- Generator: Sketch 3.7 (28169) - http://www.bohemiancoding.com/sketch -->
    <title>icon-axis6</title>
    <desc>Created with Sketch.</desc>
    <defs></defs>
    <g id="Symbols" stroke="none" stroke-width="1" fill="none" fill-rule="evenodd">
        <g id="Flex---2---Project-Details" transform="translate(-23.000000, -415.000000)" fill="#FEFEFE">
            <g id="Overview">
                <g transform="translate(10.000000, 87.000000)">
                    <g id="icon-axis6" transform="translate(13.000000, 328.000000)">
                        <path d="M24.4995,4.7171 L24.4995,1.4371 C24.4995,0.8301 24.1465,0.6791 23.7165,1.1091 L1.1525,23.6971 C0.7235,24.1271 0.8755,24.4811 1.4805,24.4811 L4.5855,24.4811 L4.5855,22.6891 L5.6455,22.6891 L5.6455,24.4811 L7.1855,24.4811 L7.1855,22.6891 L8.2705,22.6891 L8.2705,24.4811 L9.8095,24.4811 L9.8095,22.6891 L10.8955,22.6891 L10.8955,24.4811 L12.4345,24.4811 L12.4345,22.6891 L13.5205,22.6891 L13.5205,24.4811 L15.0595,24.4811 L15.0595,22.6891 L16.1445,22.6891 L16.1445,24.4811 L17.6845,24.4811 L17.6845,22.6891 L18.7705,22.6891 L18.7705,24.4811 L20.3095,24.4811 L20.3095,22.6891 L21.3945,22.6891 L21.3945,24.4811 L23.6915,24.4811 C24.2975,24.4811 24.5245,24.2521 24.5245,23.6481 L24.5245,21.5281 L22.7075,21.5281 L22.7075,20.4421 L24.5245,20.4421 L24.5245,18.9031 L22.7075,18.9031 L22.7075,17.8171 L24.5245,17.8171 L24.5245,16.2781 L22.7075,16.2781 L22.7075,15.1921 L24.5245,15.1921 L24.5245,13.6531 L22.7075,13.6531 L22.7075,12.5671 L24.5245,12.5671 L24.5245,11.0281 L22.7075,11.0281 L22.7075,9.9431 L24.5245,9.9431 L24.5245,8.4031 L22.7075,8.4031 L22.7075,7.3181 L24.5245,7.3181 L24.5245,5.7781 L22.7075,5.7781 L22.7075,4.6931 L24.4995,4.6931 L24.4995,4.7171 Z M20.0575,20.0641 L9.6075,20.0641 L20.0575,9.5881 L20.0575,20.0641 Z" id="Fill-3"></path>
                    </g>
                </g>
            </g>
        </g>
    </g>
</svg>