<?xml version="1.0" encoding="UTF-8" standalone="no"?>
<svg width="264px" height="166px" viewBox="0 0 264 166" version="1.1" xmlns="http://www.w3.org/2000/svg" xmlns:xlink="http://www.w3.org/1999/xlink">
    <!-- Generator: Sketch 3.8.2 (29753) - http://www.bohemiancoding.com/sketch -->
    <title>Group 4</title>
    <desc>Created with Sketch.</desc>
    <defs>
        <filter x="-50%" y="-50%" width="200%" height="200%" filterUnits="objectBoundingBox" id="filter-1">
            <feOffset dx="-10" dy="13" in="SourceAlpha" result="shadowOffsetOuter1"></feOffset>
            <feGaussianBlur stdDeviation="13.5" in="shadowOffsetOuter1" result="shadowBlurOuter1"></feGaussianBlur>
            <feColorMatrix values="0 0 0 0 0   0 0 0 0 0   0 0 0 0 0  0 0 0 0.120414402 0" type="matrix" in="shadowBlurOuter1" result="shadowMatrixOuter1"></feColorMatrix>
            <feMerge>
                <feMergeNode in="shadowMatrixOuter1"></feMergeNode>
                <feMergeNode in="SourceGraphic"></feMergeNode>
            </feMerge>
        </filter>
    </defs>
    <g id="Dashboard" stroke="none" stroke-width="1" fill="none" fill-rule="evenodd">
        <g id="Dashboard---01---Default-view-(Version-1)" transform="translate(-488.000000, -802.000000)">
            <g id="Flex---1---Progress" transform="translate(31.000000, 686.000000)">
                <g id="Bg">
                    <g transform="translate(0.000000, 26.000000)">
                        <g id="Group-4" transform="translate(457.000000, 103.000000)">
                            <g id="Group" transform="translate(0.000000, 25.000000)">
                                <polygon id="Fill-81" fill="#0E424F" points="20.3991073 22.9110342 8.9784034 21.6145592 0.519683683 96.0729243 11.9403875 97.3700086"></polygon>
                                <polygon id="Fill-82" fill="#231F1F" points="18.4112258 30.2273451 9.27478465 29.1897995 2.50732131 88.756979 11.644372 89.7939154"></polygon>
                                <polygon id="Fill-84" fill="#231F1F" points="11.2209179 83.0422535 4.43456127 82.2715576 4.37788133 82.7680929 11.1648475 83.5387888"></polygon>
                                <polygon id="Fill-86" fill="#231F1F" points="11.4464797 81.0568433 4.66012307 80.2861474 4.60344313 80.7826827 11.3904092 81.5527694"></polygon>
                                <polygon id="Fill-88" fill="#231F1F" points="11.6720415 79.0711285 4.88568487 78.3004326 4.82900492 78.7969679 11.615971 79.5676638"></polygon>
                                <polygon id="Fill-90" fill="#231F1F" points="16.5126306 36.464377 9.72566446 35.6936811 9.66898452 36.1902164 16.4559506 36.9609124"></polygon>
                                <polygon id="Fill-92" fill="#231F1F" points="16.5798542 33.2875867 10.3724862 32.5832986 10.3164157 33.0792246 16.5231743 33.784122"></polygon>
                                <polygon id="Fill-95" fill="#744C4C" points="83.0828584 97.8747688 95.1380119 97.8747688 95.1380119 19.2820617 83.0828584 19.2820617"></polygon>
                                <polygon id="Fill-96" fill="#231F1F" points="83.0828584 26.7483689 95.1380119 26.7483689 95.1380119 25.3075026 83.0828584 25.3075026"></polygon>
                                <polygon id="Fill-98" fill="#231F1F" points="83.0828584 30.4160285 95.1380119 30.4160285 95.1380119 28.9751622 83.0828584 28.9751622"></polygon>
                                <polygon id="Fill-100" fill="#231F1F" points="83.0828584 88.0506804 95.1380119 88.0506804 95.1380119 86.6098141 83.0828584 86.6098141"></polygon>
                                <polygon id="Fill-102" fill="#231F1F" points="83.0828584 84.3830207 95.1380119 84.3830207 95.1380119 82.9421544 83.0828584 82.9421544"></polygon>
                                <path d="M93.303593,40.10919 C93.303593,37.794056 91.4264507,35.9175789 89.1104961,35.9175789 C86.7945414,35.9175789 84.9173992,37.794056 84.9173992,40.10919 C84.9173992,42.424324 86.7945414,44.300801 89.1104961,44.300801 C91.4264507,44.300801 93.303593,42.424324 93.303593,40.10919" id="Fill-104" fill="#231F1F"></path>
                                <path d="M91.2068007,40.10919 C91.2068007,38.951623 90.2682296,38.0133845 89.1108618,38.0133845 C87.952275,38.0133845 87.0137038,38.951623 87.0137038,40.10919 C87.0137038,41.266757 87.952275,42.2049955 89.1108618,42.2049955 C90.2682296,42.2049955 91.2068007,41.266757 91.2068007,40.10919" id="Fill-106" fill="#231F1F"></path>
                                <polygon id="Fill-109" fill="#BC8F6E" points="33.4598727 97.8747688 45.9361643 97.8747688 45.9361643 16.5404556 33.4598727 16.5404556"></polygon>
                                <polygon id="Fill-110" fill="#231F1F" points="33.4598727 24.26752 45.9361643 24.26752 45.9361643 22.7760863 33.4598727 22.7760863"></polygon>
                                <polygon id="Fill-112" fill="#231F1F" points="33.4598727 28.0631213 45.9361643 28.0631213 45.9361643 26.5716876 33.4598727 26.5716876"></polygon>
                                <polygon id="Fill-114" fill="#231F1F" points="33.4598727 87.707675 45.9361643 87.707675 45.9361643 86.2168506 33.4598727 86.2168506"></polygon>
                                <polygon id="Fill-116" fill="#231F1F" points="33.4598727 83.912683 45.9361643 83.912683 45.9361643 82.4212493 33.4598727 82.4212493"></polygon>
                                <path d="M44.0378128,38.0939877 C44.0378128,35.6984332 42.0948487,33.7561576 39.6984451,33.7561576 C37.301432,33.7561576 35.3590774,35.6984332 35.3590774,38.0939877 C35.3590774,40.4895421 37.301432,42.4318177 39.6984451,42.4318177 C42.0948487,42.4318177 44.0378128,40.4895421 44.0378128,38.0939877" id="Fill-118" fill="#231F1F"></path>
                                <path d="M41.8677633,38.0939877 C41.8677633,36.8962105 40.8962813,35.9250727 39.6980794,35.9250727 C38.5004871,35.9250727 37.5290051,36.8962105 37.5290051,38.0939877 C37.5290051,39.2917649 38.5004871,40.2629027 39.6980794,40.2629027 C40.8962813,40.2629027 41.8677633,39.2917649 41.8677633,38.0939877" id="Fill-120" fill="#231F1F"></path>
                                <polygon id="Fill-123" fill="#54ABB4" points="127.238363 97.8747688 139.854221 97.8747688 139.854221 15.6265869 127.238363 15.6265869"></polygon>
                                <polygon id="Fill-124" fill="#231F1F" points="127.238363 35.09199 139.854221 35.09199 139.854221 33.5841066 127.238363 33.5841066"></polygon>
                                <polygon id="Fill-126" fill="#231F1F" points="127.238363 27.415493 139.854221 27.415493 139.854221 25.9076097 127.238363 25.9076097"></polygon>
                                <polygon id="Fill-128" fill="#231F1F" points="127.238363 31.2537415 139.854221 31.2537415 139.854221 29.7458581 127.238363 29.7458581"></polygon>
                                <polygon id="Fill-130" fill="#FFFFFF" points="129.844421 86.0858627 137.248772 86.0858627 137.248772 73.2003142 129.844421 73.2003142"></polygon>
                                <polygon id="Fill-133" fill="#F3703A" points="106.772637 97.8747688 117.285852 97.8747688 117.285852 29.3346172 106.772637 29.3346172"></polygon>
                                <polygon id="Fill-134" fill="#231F1F" points="106.772637 45.5557864 117.285852 45.5557864 117.285852 44.2989124 106.772637 44.2989124"></polygon>
                                <polygon id="Fill-136" fill="#231F1F" points="106.772637 39.1587056 117.285852 39.1587056 117.285852 37.9018316 106.772637 37.9018316"></polygon>
                                <polygon id="Fill-138" fill="#231F1F" points="106.772637 42.357246 117.285852 42.357246 117.285852 41.100372 106.772637 41.100372"></polygon>
                                <polygon id="Fill-140" fill="#FFFFFF" points="108.94354 88.0506804 115.11434 88.0506804 115.11434 77.3127233 108.94354 77.3127233"></polygon>
                                <polygon id="Fill-143" fill="#0E424F" points="58.4118465 97.8747688 70.7473524 97.8747688 70.7473524 17.4543243 58.4118465 17.4543243"></polygon>
                                <polygon id="Fill-144" fill="#231F1F" points="58.4118465 36.4871628 70.7473524 36.4871628 70.7473524 35.012788 58.4118465 35.012788"></polygon>
                                <polygon id="Fill-146" fill="#231F1F" points="58.4118465 28.9812547 70.7473524 28.9812547 70.7473524 27.5068799 58.4118465 27.5068799"></polygon>
                                <polygon id="Fill-148" fill="#231F1F" points="58.4118465 32.7342088 70.7473524 32.7342088 70.7473524 31.2598339 58.4118465 31.2598339"></polygon>
                                <polygon id="Fill-150" fill="#FFFFFF" points="60.9593966 86.3478384 68.1998023 86.3478384 68.1998023 73.7486354 60.9593966 73.7486354"></polygon>
                                <polygon id="Fill-153" fill="#FDCC94" points="45.9361643 97.8747688 58.4118465 97.8747688 58.4118465 16.5404556 45.9361643 16.5404556"></polygon>
                                <polygon id="Fill-154" fill="#231F1F" points="45.9361643 35.7895764 58.4118465 35.7895764 58.4118465 34.2981427 45.9361643 34.2981427"></polygon>
                                <polygon id="Fill-156" fill="#231F1F" points="45.9361643 28.1983738 58.4118465 28.1983738 58.4118465 26.7075494 45.9361643 26.7075494"></polygon>
                                <polygon id="Fill-158" fill="#231F1F" points="45.9361643 31.9939751 58.4118465 31.9939751 58.4118465 30.5025414 45.9361643 30.5025414"></polygon>
                                <polygon id="Fill-160" fill="#FFFFFF" points="48.5123592 86.2168506 55.8356516 86.2168506 55.8356516 73.4744748 48.5123592 73.4744748"></polygon>
                                <polygon id="Fill-163" fill="#744C4C" points="117.285852 97.8747688 127.238363 97.8747688 127.238363 32.990092 117.285852 32.990092"></polygon>
                                <polygon id="Fill-164" fill="#231F1F" points="117.285852 48.3461322 127.238363 48.3461322 127.238363 47.1562751 117.285852 47.1562751"></polygon>
                                <polygon id="Fill-166" fill="#231F1F" points="117.285852 42.290229 127.238363 42.290229 127.238363 41.100372 117.285852 41.100372"></polygon>
                                <polygon id="Fill-168" fill="#231F1F" points="117.285852 45.3181806 127.238363 45.3181806 127.238363 44.1289328 117.285852 44.1289328"></polygon>
                                <polygon id="Fill-170" fill="#FFFFFF" points="119.341567 88.5746318 125.183258 88.5746318 125.183258 78.4093657 119.341567 78.4093657"></polygon>
                                <polygon id="Fill-173" fill="#AF9C31" points="70.7479619 97.8747688 83.0828584 97.8747688 83.0828584 17.4543243 70.7479619 17.4543243"></polygon>
                                <polygon id="Fill-174" fill="#231F1F" points="70.7479619 36.4871628 83.0828584 36.4871628 83.0828584 35.012788 70.7479619 35.012788"></polygon>
                                <polygon id="Fill-176" fill="#231F1F" points="70.7479619 28.9812547 83.0828584 28.9812547 83.0828584 27.5068799 70.7479619 27.5068799"></polygon>
                                <polygon id="Fill-178" fill="#231F1F" points="70.7479619 32.7342088 83.0828584 32.7342088 83.0828584 31.2598339 70.7479619 31.2598339"></polygon>
                                <polygon id="Fill-180" fill="#FFFFFF" points="73.2949025 86.3478384 80.5353082 86.3478384 80.5353082 73.7486354 73.2949025 73.7486354"></polygon>
                                <polygon id="Fill-183" fill="#BC8F6E" points="95.1380119 97.8747688 106.772637 97.8747688 106.772637 22.0236677 95.1380119 22.0236677"></polygon>
                                <polygon id="Fill-184" fill="#231F1F" points="95.1380119 39.975095 106.772637 39.975095 106.772637 38.5847961 95.1380119 38.5847961"></polygon>
                                <polygon id="Fill-186" fill="#231F1F" points="95.1380119 32.8956589 106.772637 32.8956589 106.772637 31.5047507 95.1380119 31.5047507"></polygon>
                                <polygon id="Fill-188" fill="#231F1F" points="95.1380119 36.4353769 106.772637 36.4353769 106.772637 35.045078 95.1380119 35.045078"></polygon>
                                <polygon id="Fill-190" fill="#FFFFFF" points="97.5405101 87.0027776 104.369529 87.0027776 104.369529 75.1194385 97.5405101 75.1194385"></polygon>
                                <polygon id="Fill-193" fill="#54ABB4" points="20.8452333 97.8747688 33.4604822 97.8747688 33.4604822 15.6265869 20.8452333 15.6265869"></polygon>
                                <polygon id="Fill-194" fill="#231F1F" points="20.8452333 79.9172491 33.4604822 79.9172491 33.4604822 78.4093657 20.8452333 78.4093657"></polygon>
                                <polygon id="Fill-196" fill="#231F1F" points="20.8452333 87.593746 33.4604822 87.593746 33.4604822 86.0858627 20.8452333 86.0858627"></polygon>
                                <polygon id="Fill-198" fill="#231F1F" points="20.8452333 83.7554976 33.4604822 83.7554976 33.4604822 82.2476142 20.8452333 82.2476142"></polygon>
                                <polygon id="Fill-200" fill="#FFFFFF" points="23.4500728 40.3010415 30.8550331 40.3010415 30.8550331 27.415493 23.4500728 27.415493"></polygon>
                                <polygon id="Fill-476" fill="#F3703A" points="152.043456 97.8747688 164.659314 97.8747688 164.659314 15.6265869 152.043456 15.6265869"></polygon>
                                <polygon id="Fill-477" fill="#FFFFFF" points="155.196811 40.8493627 161.50535 40.8493627 161.50535 15.6265869 155.196811 15.6265869"></polygon>
                                <polygon id="Fill-491" fill="#FDCC94" points="139.854221 97.8747688 152.043456 97.8747688 152.043456 0.395442144 139.854221 0.395442144"></polygon>
                            </g>
                            <g id="Book" filter="url(#filter-1)" transform="translate(104.000000, 0.000000)">
                                <path d="M45.7902755,64.1330204 C50.5158754,64.1330204 54.3472791,66.3065867 54.3472791,68.9860912 C54.3472791,71.6671088 50.5158754,73.8401708 45.7902755,73.8401708 C41.0646755,73.8401708 37.2332718,71.6671088 37.2332718,68.9860912 C37.2332718,66.3065867 41.0646755,64.1330204 45.7902755,64.1330204 L45.7902755,64.1330204 Z" id="Fill-1" fill="#353535"></path>
                                <path d="M45.7902755,64.1330204 C50.5158754,64.1330204 54.3472791,66.3055779 54.3472791,68.9860912 C54.3472791,71.6671088 50.5158754,73.8401708 45.7902755,73.8401708 L45.7902755,64.1330204 Z" id="Fill-3" fill="#212121"></path>
                                <polygon id="Fill-5" fill="#353535" points="0 71.4774956 91.5798436 71.4774956 91.5798436 12.2756814 0 12.2756814"></polygon>
                                <polygon id="Fill-7" fill="#212121" points="45.790427 71.4774956 91.580854 71.4774956 91.580854 12.2756814 45.790427 12.2756814"></polygon>
                                <path d="M1.96455426,13.6639593 C16.5732964,9.33296814 31.1815333,9.43738407 45.7902755,13.6639593 L45.7902755,69.0835965 L1.96455426,69.0835965 L1.96455426,13.6639593 Z" id="Fill-8" fill="#FFFFFF"></path>
                                <path d="M89.6159967,13.6639593 C75.0072545,9.33296814 60.3985124,9.43738407 45.7902755,13.6639593 L45.7902755,69.0835965 L89.6159967,69.0835965 L89.6159967,13.6639593 Z" id="Fill-9" fill="#E6E6E6"></path>
                                <path d="M45.7902755,66.1812372 L45.7902755,69.0836973 L89.6159967,69.0836973 L89.6159967,66.1812372 C75.0072545,61.850246 60.3990176,61.9546619 45.7902755,66.1812372" id="Fill-10" fill="#CCCCCC"></path>
                                <path d="M52.4663347,20.9692407 C62.6243033,18.9081611 72.7822719,18.8637717 82.9397353,20.9404885 L82.9397353,17.3989221 C72.7822719,15.3222053 62.6243033,15.3665947 52.4663347,17.4266655 L52.4663347,20.9692407 Z" id="Fill-11" fill="#CCCCCC"></path>
                                <path d="M52.4663347,40.1846469 C62.6243033,38.1235673 72.7822719,38.0791779 82.9397353,40.1558947 L82.9397353,23.8034522 C72.7822719,21.7267354 62.6243033,21.7711248 52.4663347,23.8322044 L52.4663347,40.1846469 Z" id="Fill-12" fill="#CCCCCC"></path>
                                <path d="M52.4663347,59.4001035 C62.6243033,57.3400327 72.7822719,57.2956434 82.9397353,59.3723602 L82.9397353,43.0189088 C72.7822719,40.942192 62.6243033,40.9875903 52.4663347,43.0476611 L52.4663347,59.4001035 Z" id="Fill-13" fill="#CCCCCC"></path>
                                <path d="M8.64061352,20.9692407 C18.7985821,18.9081611 28.9565507,18.8637717 39.1140141,20.9404885 L39.1140141,17.3989221 C28.9565507,15.3222053 18.7985821,15.3665947 8.64061352,17.4266655 L8.64061352,20.9692407 Z" id="Fill-14" fill="#E6E6E6"></path>
                                <path d="M8.64061352,33.7788558 C18.7985821,31.718785 28.9565507,31.6743956 39.1140141,33.7511124 L39.1140141,23.8038558 C28.9565507,21.7266345 18.7985821,21.7710239 8.64061352,23.8321035 L8.64061352,33.7788558 Z" id="Fill-15" fill="#E6E6E6"></path>
                                <path d="M8.64061352,40.1846469 C18.7985821,38.1235673 28.9565507,38.0791779 39.1140141,40.1558947 L39.1140141,36.6143283 C28.9565507,34.5376115 18.7985821,34.5820009 8.64061352,36.6420717 L8.64061352,40.1846469 Z" id="Fill-16" fill="#E6E6E6"></path>
                                <path d="M64.8091229,53.8100177 L64.8091229,53.8100177 C63.939176,52.7507257 64.0705269,51.1380796 65.1561923,50.3057788 L75.5137132,42.364115 C76.5993786,41.5313097 78.1533603,41.6508584 79.0233072,42.709646 C79.8927489,43.7679292 79.7351279,45.3422389 78.6762378,46.2128761 L68.3177065,54.1560531 C67.2300204,54.9903717 65.6790698,54.8693097 64.8091229,53.8100177" id="Fill-17" fill="#DEAC81"></path>
                                <path d="M69.6148974,56.5627142 L69.6148974,56.5627142 C68.5878347,55.655254 68.4600202,54.042608 69.3986736,53.0483867 L78.3598338,43.5621743 C79.2984873,42.5679531 80.8519639,42.4388204 81.8790266,43.3452717 C82.9070997,44.2527319 83.0015713,45.8320858 82.0952503,46.8595991 L73.1345954,56.3468204 C72.1934159,57.3430593 70.6424653,57.4701743 69.6148974,56.5627142" id="Fill-18" fill="#DEAC81"></path>
                                <polygon id="Fill-19" fill="#DEAC81" points="92.2273024 55.8178805 85.8269789 41.0130133 72.8692161 41.2051991 66.9594376 47.1669956 84.2255087 58.9755796"></polygon>
                                <path d="M74.8903017,59.1301354 L74.8903017,59.1301354 C73.6545932,58.535923 73.0928157,57.0181088 73.726331,55.8059761 L79.7704916,44.2465779 C80.4040069,43.0359584 81.8640223,42.4901708 83.0992256,43.0848876 C84.3349341,43.6791 84.8557908,45.1727018 84.2631963,46.4080381 L78.2185306,57.9684451 C77.5840049,59.1825956 76.1255051,59.7253566 74.8903017,59.1301354" id="Fill-20" fill="#DEAC81"></path>
                                <path d="M93.6422543,58.0936938 L93.6422543,58.0936938 C92.4964706,58.8462956 90.689891,58.652092 90.188737,57.3824549 L84.0667763,41.8840035 C83.5656222,40.6143664 83.6333184,39.1883575 84.7785969,38.4357558 C85.9243806,37.683154 87.4753312,38.0044726 88.2316091,39.1469947 L94.3535698,54.645446 C94.8572498,55.9191186 94.788038,57.3400832 93.6422543,58.0936938" id="Fill-21" fill="#F9C293"></path>
                                <path d="M72.7200318,39.5640027 L72.7200318,39.5640027 C72.8579502,38.2015513 74.0881016,37.2310381 75.4511194,37.3374717 L86.3416217,38.1828876 C87.7046395,38.2893212 88.7099788,39.5473566 88.5725656,40.909808 C88.434142,42.2722593 87.2065166,43.2715248 85.841478,43.1363389 L74.9509757,42.290923 C73.582906,42.1844894 72.5826186,40.9274628 72.7200318,39.5640027" id="Fill-22" fill="#F9C293"></path>
                                <path d="M61.4913011,48.0613912 L61.4913011,48.0613912 C60.7405804,46.9158425 61.0442029,45.3264 62.2132256,44.6151611 L73.3659244,37.8301434 C74.5339367,37.1199133 76.0672055,37.4044088 76.817421,38.5504619 C77.5686469,39.6970195 77.2422905,41.2435858 76.0954964,41.996692 L64.9427976,48.7817097 C63.771249,49.4949664 62.2420218,49.2079487 61.4913011,48.0613912" id="Fill-23" fill="#F9C293"></path>
                                <polygon id="Fill-24" fill="#F9C293" points="92.071399 51.8790292 84.1327548 61.7359938 89.432257 67.4839142 98.4277705 58.5182681"></polygon>
                                <path d="M80.2891254,41.7649088 C81.4621897,43.7982451 86.8763713,53.1558292 80.9403226,53.4297319 C75.0047791,53.7046434 88.667795,60.7459088 88.667795,60.7459088 L91.813143,51.5421743 C91.813143,51.5421743 88.6561755,41.6014752 80.2891254,41.7649088" id="Fill-25" fill="#F9C293"></path>
                                <path d="M89.90608,52.6071159 C95.0292689,53.4661513 96.3185282,61.4622929 94.1815506,64.5191071 C92.0440679,67.5764257 87.1123481,67.5143814 82.6630902,64.7662752 C78.2143374,62.0176646 77.546974,56.8286469 78.7129655,55.2513106 C79.8784519,53.6739743 84.7823859,51.7480805 89.90608,52.6071159" id="Fill-26" fill="#F9C293"></path>
                                <polygon id="Fill-27" fill="#FFFFFF" points="98.4223649 56.7134363 86.8695511 68.0297018 90.3710621 71.5929584 101.924381 60.2766929"></polygon>
                                <polygon id="Fill-28" fill="#283593" points="122.506208 105.826391 88.5763684 72.0817143 102.433885 58.5086523 148.511245 105.656531"></polygon>
                                <path d="M45.7902755,13.6639593 C50.031898,4.42844602 57.3789581,-1.74066903 68.8736743,0.439454867 L68.8736743,52.5354372 C57.3789581,50.3548088 50.031898,56.5244283 45.7902755,65.7594372 L45.7902755,13.6639593 Z" id="Fill-29" fill="#F6F6F6"></path>
                                <path d="M62.5806039,10.2334673 C57.315455,10.708131 53.1627469,13.2474053 49.9683949,17.0598478 L49.9683949,13.085485 C49.9941599,12.9911575 50.0204301,12.8983434 50.0482158,12.8050248 C53.2319587,9.0455469 57.3583966,6.54410442 62.5806039,6.07398053 L62.5806039,10.2334673 Z" id="Fill-30" fill="#E0DDDD"></path>
                                <path d="M62.5806039,25.3336752 C57.315455,25.8073301 53.1627469,28.3476133 49.9683949,32.1590469 L49.9683949,20.0362062 C49.9941599,19.9418788 50.0204301,19.8490646 50.0482158,19.7552416 C53.2319587,15.9957637 57.3583966,13.4943212 62.5806039,13.0247018 L62.5806039,25.3336752 Z" id="Fill-31" fill="#E0DDDD"></path>
                                <path d="M62.5806039,45.4663274 C57.315455,45.9409912 53.1627469,48.4802655 49.9683949,52.292708 L49.9683949,35.3748053 C49.9941599,35.2814867 50.0204301,35.1876637 50.0482158,35.0948496 C53.2319587,31.3353717 57.3583966,28.8339292 62.5806039,28.3643097 L62.5806039,45.4663274 Z" id="Fill-32" fill="#E0DDDD"></path>
                                <path d="M83.0149084,57.5676292 L83.0149084,57.5676292 C82.3066242,59.0107885 80.4874147,59.7114345 79.0976215,58.9063726 L66.5419944,51.6290363 C65.1522012,50.8239743 64.4919105,49.1618947 65.2001948,47.7177265 C65.9094895,46.273054 67.6695911,45.6743018 69.1174818,46.3784788 L81.6741192,53.6563195 C83.0674488,54.4633991 83.7236979,56.1234611 83.0149084,57.5676292" id="Fill-33" fill="#F9C293"></path>
                                <path d="M45.7902755,66.1812372 L45.7902755,69.0836973 L1.96455426,69.0836973 L1.96455426,66.1812372 C16.5727912,61.850246 31.1820385,61.9546619 45.7902755,66.1812372" id="Fill-34" fill="#E6E6E6"></path>
                                <path d="M8.64061352,59.4001035 C18.7985821,57.3400327 28.9565507,57.2956434 39.1140141,59.3723602 L39.1140141,43.0189088 C28.9565507,40.942192 18.7985821,40.9875903 8.64061352,43.0476611 L8.64061352,59.4001035 Z" id="Fill-35" fill="#E6E6E6"></path>
                                <polygon id="Fill-36" fill="#E7D1A7" points="23.8028985 76.7308274 25.2679658 98.4624558 14.3234076 110.911659 10.1631216 106.81119 8.34492251 79.727615"></polygon>
                                <polygon id="Fill-37" fill="#F9C293" points="8.84041839 81.9711451 8.78434167 109.031517 12.1206536 113.078012 24.5161337 99.1306673 24.5444247 83.3446938"></polygon>
                                <path d="M32.7933095,56.6395381 L29.744959,72.9506177 C29.4352741,74.6086619 26.6112305,80.5891221 24.9309498,80.4135823 C23.2531951,80.2380425 23.1536716,75.0974496 23.5062981,73.4459628 L26.3919756,61.0139097 C27.5943412,55.8334673 31.0008754,56.2496177 32.7933095,56.6395381" id="Fill-38" fill="#DEAC81"></path>
                                <path d="M21.1629482,41.6900522 L21.4094837,56.8465035 C19.9196617,54.7617159 16.2681077,56.0061319 15.9932813,58.741123 C14.7600987,56.3950434 11.2272657,57.2838398 10.4937216,59.7141584 C9.00137372,57.738831 5.40084444,59.127008 5.43671333,61.9371584 L5.60039671,74.8055389 C5.64636952,78.4187336 7.66361568,83.0422912 9.23123773,84.8657867 C13.8765116,90.2717071 22.208198,86.7049195 24.2330221,83.4665124 C25.8112532,80.9413619 27.2177179,79.3161053 27.2197387,77.3821407 L27.2197387,41.5331761 C27.2247906,37.000415 21.0664558,37.9638664 21.1629482,41.6900522" id="Fill-39" fill="#F9C293"></path>
                                <path d="M16.3078666,57.6542894 C16.143678,57.9811566 16.0330402,58.3458558 15.9931297,58.7408204 C15.911288,58.5844487 15.8188372,58.4432097 15.7177981,58.3155903 C15.7662969,60.8245991 15.8395503,63.9328646 15.8395503,63.9328646 C15.8395503,63.9328646 16.1684326,60.0609 16.3078666,57.6542894 M21.3658853,56.788192 C21.2279669,56.6060947 21.0738822,56.4512363 20.9061573,56.3221035 C20.9859782,58.8623867 21.2213993,63.2009442 21.2213993,63.2009442 C21.2213993,63.2009442 21.4123633,58.736785 21.4098373,56.8462009 C21.4098373,56.8759619 21.3926607,56.8492274 21.3658853,56.788192 M10.3601984,64.2224044 C10.3601984,64.2224044 10.2768411,61.6710239 10.2131865,59.4051478 C10.31271,59.4974575 10.4066764,59.5998558 10.4935701,59.7143602 C10.5577299,59.5014929 10.6446236,59.299723 10.7486939,59.1115726 C10.5905676,61.4198204 10.3601984,64.2224044 10.3601984,64.2224044" id="Fill-40" fill="#DEAC81"></path>
                                <polygon id="Fill-41" fill="#FFFFFF" points="7.39242667 87.4045566 7.51013725 113.522158 20.2946179 113.522158 25.5971513 102.632636 25.5309707 87.3808487"></polygon>
                                <polygon id="Fill-42" fill="#283593" points="6.84974552 91.5314445 6.8692255 112.241613 26.1169869 112.241613 26.0893048 91.517825"></polygon>
                                <path d="M15.8687506,10.8629894 L15.8687506,22.3013257 L11.5917643,20.3355823 L7.3147781,22.7023434 L7.3147781,12.2758832 C10.1661023,11.6433345 13.0169212,11.1732106 15.8687506,10.8629894" id="Fill-43" fill="#F44336"></path>
                            </g>
                        </g>
                    </g>
                </g>
            </g>
        </g>
    </g>
</svg>