<?xml version="1.0" encoding="UTF-8" standalone="no"?>
<svg width="40px" height="40px" viewBox="0 0 40 40" version="1.1" xmlns="http://www.w3.org/2000/svg" xmlns:xlink="http://www.w3.org/1999/xlink">
    <!-- Generator: Sketch 3.7.2 (28276) - http://www.bohemiancoding.com/sketch -->
    <title>icon-domain-4</title>
    <desc>Created with Sketch.</desc>
    <defs>
        <polygon id="path-1" points="39.5947937 39.5947937 0 39.5947937 0 6.34920635e-05 39.5947937 6.34920635e-05 39.5947937 39.5947937"></polygon>
    </defs>
    <g id="Assets" stroke="none" stroke-width="1" fill="none" fill-rule="evenodd">
        <g id="Thematic-overview" transform="translate(-29.000000, -181.000000)">
            <g id="icon-domain-4" transform="translate(29.000000, 181.000000)">
                <mask id="mask-2" fill="white">
                    <use xlink:href="#path-1"></use>
                </mask>
                <use id="Clip-2" fill="#D84315" xlink:href="#path-1"></use>
                <path d="M11.7860317,13.4349841 L11.7796825,13.4229206 C11.7625397,13.4299048 11.7403175,13.4349841 11.7225397,13.4406984 C11.6139683,13.4699048 11.4990476,13.5092698 11.3898413,13.5670476 L4.57015873,17.0000635 C4.15111111,17.2127619 3.86412698,17.5454603 3.71492063,17.9987937 C3.60571429,18.3092698 3.58857143,18.6133968 3.66285714,18.9175238 C3.69142857,19.0489524 3.74412698,19.1753016 3.80698413,19.308 C3.88126984,19.4514921 3.96698413,19.5829206 4.07047619,19.6978413 C4.26603175,19.916254 4.51174603,20.0768889 4.80507937,20.1746667 C5.12698413,20.2832381 5.44253968,20.2946667 5.75238095,20.2153016 C5.87238095,20.1860952 5.99873016,20.139746 6.12,20.0768889 L12.584127,16.8222857 L12.9288889,17.7924444 L6.5968254,20.9606984 C6.17777778,21.1848254 5.9015873,21.5232381 5.76444444,21.9772063 C5.66666667,22.2819683 5.6552381,22.5854603 5.73015873,22.8787937 C5.75873016,23.0165714 5.81015873,23.1543492 5.88444444,23.2857778 C5.95365079,23.4172063 6.03428571,23.532127 6.12571429,23.6368889 C6.32634921,23.8654603 6.58539683,24.0318095 6.90095238,24.1302222 C7.35428571,24.2673651 7.79047619,24.2267302 8.2152381,24.003873 L14.0019048,20.8235556 L14.3346032,21.7537143 L8.60571429,24.7391111 C8.48507937,24.8006984 8.38222222,24.8699048 8.28444444,24.9448254 C8.03746032,25.1460952 7.85968254,25.4102222 7.75047619,25.7378413 C7.64126984,26.0470476 7.62412698,26.3518095 7.69904762,26.6559365 C7.72761905,26.788 7.77904762,26.9137143 7.84190476,27.0470476 C7.9168254,27.1905397 8.0031746,27.3226032 8.10666667,27.4375238 C8.15809524,27.499746 8.22095238,27.5568889 8.28444444,27.6089524 C8.44507937,27.7416508 8.62857143,27.8381587 8.84126984,27.9137143 C9.28888889,28.0635556 9.72507937,28.0286349 10.1555556,27.8159365 L15.5403175,25.0718095 L15.8266667,25.9733968 L10.7638095,28.515619 C10.511746,28.6426032 10.3104762,28.8146667 10.1555556,29.0273651 C10.0457143,29.1708571 9.96634921,29.332127 9.90920635,29.515619 C9.84063492,29.715619 9.81079365,29.9111746 9.81650794,30.1060952 C9.82349206,30.3473651 9.88063492,30.5886349 10.0006349,30.8235556 C10.2133333,31.2489524 10.5466667,31.5353016 11,31.6908571 C11.447619,31.8394286 11.8838095,31.8051429 12.3142857,31.5930794 L17.2793651,29.0965714 L16.7288889,25.2737143 C16.6603175,24.8019683 16.7688889,24.3772063 17.0615873,23.9924444 C17.3428571,23.6191111 17.7219048,23.396254 18.191746,23.3264127 C18.6571429,23.2572063 19.0825397,23.3670476 19.4673016,23.6476825 C19.8393651,23.9410159 20.0634921,24.3137143 20.1326984,24.779746 L20.752381,29.0781587 L21.6368254,29.0781587 L21.2228571,21.0019683 C21.2114286,20.5257778 21.3720635,20.1181587 21.6996825,19.7733968 C22.0273016,19.4229206 22.4292063,19.2445079 22.9053968,19.2394286 C23.375873,19.2222857 23.7834921,19.3829206 24.1333333,19.7099048 C24.4787302,20.0368889 24.6565079,20.4387937 24.6673016,20.915619 L25.0349206,28.8146667 L25.7930159,28.8146667 L25.9815873,24.796254 C26.0107937,24.3200635 26.2006349,23.9232381 26.5555556,23.6083175 C26.911746,23.292127 27.3257143,23.1492698 27.8019048,23.1778413 C28.272381,23.2057778 28.6692063,23.3949841 28.984127,23.7505397 C29.3003175,24.1067302 29.4495238,24.5206984 29.4209524,24.9911746 L29.208254,28.6076825 L32.8933333,29.7213333 L32.8933333,13.3486349 L21.3669841,5.74863492 C18.1752381,8.21212698 18.6228571,10.6794286 22.7047619,13.1543492 L11.7860317,13.4349841 Z M21.4990476,15.443873 C21.9352381,15.0940317 22.4285714,14.9505397 22.9796825,15.0140317 C23.5314286,15.0768889 23.9784127,15.3289524 24.3231746,15.7664127 C24.6736508,16.2026032 24.8107937,16.6959365 24.7473016,17.2470476 C24.6844444,17.7975238 24.4374603,18.2451429 24.0012698,18.5899048 C23.5650794,18.939746 23.071746,19.0781587 22.5206349,19.0153016 C21.9695238,18.9511746 21.5219048,18.7048254 21.1771429,18.268 C20.8330159,17.8324444 20.6895238,17.3384762 20.752381,16.7873651 C20.815873,16.236254 21.0679365,15.7886349 21.4990476,15.443873 L21.4990476,15.443873 Z M29.7301587,19.796254 C30.0806349,20.2318095 30.2184127,20.7257778 30.1549206,21.275619 C30.0920635,21.828 29.8457143,22.2749841 29.4095238,22.619746 C28.9726984,22.9695873 28.4793651,23.1073651 27.928254,23.0445079 C27.3771429,22.9810159 26.9295238,22.7346667 26.5847619,22.2984762 C26.2406349,21.8622857 26.0971429,21.3689524 26.16,20.8172063 C26.2234921,20.2660952 26.4761905,19.8178413 26.9066667,19.4737143 C27.3428571,19.123873 27.8361905,18.980381 28.3873016,19.043873 C28.9384127,19.1067302 29.3860317,19.3587937 29.7301587,19.796254 L29.7301587,19.796254 Z M19.1968254,19.7264127 C19.5930159,20.1226032 19.7885714,20.5937143 19.7885714,21.1499048 C19.7885714,21.7073651 19.5930159,22.1784762 19.1968254,22.5740317 C18.8006349,22.9695873 18.3301587,23.1657778 17.7726984,23.1657778 C17.2165079,23.1657778 16.7453968,22.9702222 16.3492063,22.5740317 C15.9593651,22.1784762 15.7638095,21.7073651 15.7638095,21.1499048 C15.7638095,20.5937143 15.9587302,20.1226032 16.3492063,19.7264127 C16.7460317,19.3302222 17.215873,19.1353016 17.7726984,19.1353016 C18.3301587,19.1353016 18.8006349,19.3302222 19.1968254,19.7264127 L19.1968254,19.7264127 Z" id="Fill-4" fill="#FEFEFE" mask="url(#mask-2)"></path>
            </g>
        </g>
    </g>
</svg>