<?xml version="1.0" encoding="UTF-8" standalone="no"?>
<svg width="40px" height="40px" viewBox="0 0 40 40" version="1.1" xmlns="http://www.w3.org/2000/svg" xmlns:xlink="http://www.w3.org/1999/xlink">
    <!-- Generator: Sketch 3.7.2 (28276) - http://www.bohemiancoding.com/sketch -->
    <title>icon-domain-13</title>
    <desc>Created with Sketch.</desc>
    <defs>
        <polygon id="path-1" points="39.5947937 39.5947937 0 39.5947937 0 6.34920635e-05 39.5947937 6.34920635e-05 39.5947937 39.5947937"></polygon>
    </defs>
    <g id="Assets" stroke="none" stroke-width="1" fill="none" fill-rule="evenodd">
        <g id="Thematic-overview" transform="translate(-31.000000, -625.000000)">
            <g id="icon-domain-13" transform="translate(31.000000, 625.000000)">
                <mask id="mask-2" fill="white">
                    <use xlink:href="#path-1"></use>
                </mask>
                <use id="Clip-2" fill="#558B2F" xlink:href="#path-1"></use>
                <path d="M10.7775238,21.0643175 L11.9413333,21.0643175 C11.9413333,21.0643175 14.3114921,20.9824127 15.080381,23.6490794 L15.5787937,26.3017778 L16.0765714,23.6490794 C16.8435556,20.9824127 19.215619,21.0643175 19.215619,21.0643175 L20.3787937,21.0643175 C20.3787937,21.0643175 22.7495873,20.9824127 23.5184762,23.6490794 L24.016254,26.3011429 L24.5140317,23.6490794 C25.2810159,20.9824127 27.6530794,21.0643175 27.6530794,21.0643175 L28.8168889,21.0643175 C28.8168889,21.0643175 31.1870476,20.9824127 31.9559365,23.6490794 L32.3546667,25.771619 C33.2175238,23.9614603 33.7013333,21.9360635 33.7013333,19.7970159 C33.7013333,12.1182857 27.4765714,5.89352381 19.7972063,5.89352381 C12.1184762,5.89352381 5.89307937,12.1182857 5.89307937,19.7970159 C5.89307937,21.9360635 6.37752381,23.9614603 7.24038095,25.772254 L7.63911111,23.6490794 C8.40546032,20.9824127 10.7775238,21.0643175 10.7775238,21.0643175" id="Fill-4" fill="#FEFEFE" mask="url(#mask-2)"></path>
                <path d="M11.3566349,20.1676825 C12.7013968,20.1676825 13.7909206,19.0870476 13.7909206,17.7537143 C13.7909206,16.4210159 12.7013968,15.339746 11.3566349,15.339746 C10.011873,15.339746 8.92171429,16.4210159 8.92171429,17.7537143 C8.92171429,19.0870476 10.011873,20.1676825 11.3566349,20.1676825" id="Fill-6" fill="#558B2F" mask="url(#mask-2)"></path>
                <path d="M19.7944762,20.1676825 C21.1392381,20.1676825 22.2287619,19.0870476 22.2287619,17.7537143 C22.2287619,16.4210159 21.1392381,15.339746 19.7944762,15.339746 C18.4497143,15.339746 17.3595556,16.4210159 17.3595556,17.7537143 C17.3595556,19.0870476 18.4497143,20.1676825 19.7944762,20.1676825" id="Fill-8" fill="#558B2F" mask="url(#mask-2)"></path>
                <path d="M28.2319365,20.1676825 C29.5766984,20.1676825 30.6662222,19.0870476 30.6662222,17.7537143 C30.6662222,16.4210159 29.5766984,15.339746 28.2319365,15.339746 C26.8871746,15.339746 25.7970159,16.4210159 25.7970159,17.7537143 C25.7970159,19.0870476 26.8871746,20.1676825 28.2319365,20.1676825" id="Fill-10" fill="#558B2F" mask="url(#mask-2)"></path>
            </g>
        </g>
    </g>
</svg>