<?xml version="1.0" encoding="UTF-8" standalone="no"?>
<svg width="40px" height="41px" viewBox="0 0 40 41" version="1.1" xmlns="http://www.w3.org/2000/svg" xmlns:xlink="http://www.w3.org/1999/xlink">
    <!-- Generator: Sketch 3.7.2 (28276) - http://www.bohemiancoding.com/sketch -->
    <title>icon-domain-3</title>
    <desc>Created with Sketch.</desc>
    <defs>
        <polygon id="path-1" points="0.000190476191 40.359375 39.5949206 40.359375 39.5949206 0.408910938 0.000190476191 0.408910938 0.000190476191 40.359375"></polygon>
    </defs>
    <g id="Assets" stroke="none" stroke-width="1" fill="none" fill-rule="evenodd">
        <g id="Thematic-overview" transform="translate(-29.000000, -129.000000)">
            <g id="icon-domain-3" transform="translate(29.000000, 129.000000)">
                <g id="Group-3" transform="translate(0.000000, 0.231778)">
                    <mask id="mask-2" fill="white">
                        <use xlink:href="#path-1"></use>
                    </mask>
                    <use id="Clip-2" fill="#7C3AA4" xlink:href="#path-1"></use>
                </g>
                <path d="M28.7265492,11.3178368 C28.7265492,10.7977503 28.3615135,10.3720534 27.9155678,10.3720534 L23.0506201,10.3720534 C22.6046744,10.3720534 22.2396387,10.7977503 22.2396387,11.3178368 L22.2396387,13.5775228 L28.7265492,13.5775228 L28.7265492,11.3178368 Z" id="Fill-6" fill="#FEFEFE"></path>
                <path d="M26.6147988,23.5580859 L31.3376836,23.5580859 L31.3376836,18.8055716 C31.3376836,17.1952858 30.502241,15.6038778 29.4362991,15.1800687 L28.3600082,14.7534279 L28.3600082,13.993592 L27.1435361,13.993592 L27.1435361,15.2602998 C27.1435361,15.5717854 27.3166458,15.8332445 27.5565533,15.9285779 L27.5556125,15.9314096 L29.0449206,16.5222882 C29.5539008,16.7242819 30.1221523,17.7115967 30.1221523,18.8055716 L30.1221523,20.1562862 C29.1916875,19.9127611 27.4361291,19.6446948 25.6250628,20.37527 C23.4038016,21.2729147 21.6171964,20.853825 20.821268,20.5668808 L20.821268,18.8055716 C20.821268,17.7115967 21.3885787,16.7242819 21.8984997,16.5222882 L23.386867,15.9314096 C23.3934527,15.9295218 23.3981567,15.9248023 23.4047424,15.9219706 C23.4263811,15.9125317 23.4461382,15.9012049 23.4668361,15.8889343 C23.48283,15.8794953 23.4988238,15.8700564 23.5138768,15.8587296 C23.5317523,15.846459 23.5468053,15.8323006 23.5637399,15.8171982 C23.578793,15.8030398 23.593846,15.7907691 23.6079582,15.7747229 C23.6220704,15.7586767 23.634301,15.7416866 23.6474724,15.7246965 C23.6597029,15.7067624 23.6728743,15.6907162 23.6841641,15.6727822 C23.6954539,15.6529604 23.7058028,15.6331386 23.7152109,15.6123729 C23.7246191,15.593495 23.7340272,15.575561 23.7424945,15.5547953 C23.750021,15.5340296 23.7566067,15.51232 23.7631924,15.4896665 C23.7697781,15.4679569 23.7773046,15.4471912 23.7810679,15.4245377 C23.7848312,15.403772 23.7876536,15.3820624 23.790476,15.3612967 C23.7932985,15.3348676 23.7961209,15.3093824 23.7970617,15.2838972 C23.7970617,15.2754022 23.7980025,15.2687949 23.7980025,15.2602998 L23.7980025,13.993592 L22.5824712,13.993592 L22.5824712,14.7534279 L21.5061804,15.1800687 C20.4402384,15.6038778 19.6047959,17.1952858 19.6047959,18.8055716 L19.6047959,26.6285782 C19.6047959,28.3219269 20.7873987,29.7009583 22.2400151,29.7009583 L24.5544168,29.7009583 C23.9541776,29.052502 23.5740889,28.1293722 23.5740889,27.1024138 C23.5740889,25.147606 24.9392096,23.5580859 26.6147988,23.5580859" id="Fill-8" fill="#FEFEFE"></path>
                <path d="M32.087418,24.5038692 L29.3515318,24.5038692 L26.6147047,24.5038692 C25.3841204,24.5038692 24.3849762,25.6676925 24.3849762,27.1033577 C24.3849762,28.5390228 25.3841204,29.7028461 26.6147047,29.7028461 L29.3515318,29.7028461 L32.087418,29.7028461 C33.319884,29.7028461 34.3180873,28.5390228 34.3180873,27.1033577 C34.3180873,25.6676925 33.319884,24.5038692 32.087418,24.5038692 L32.087418,24.5038692 Z M30.2020273,28.5796103 L26.7812287,28.5796103 C26.083145,28.5796103 25.5148935,27.9169956 25.5148935,27.1033577 C25.5148935,26.2887758 26.083145,25.6252172 26.7812287,25.6252172 L30.2020273,25.6252172 L30.2020273,28.5796103 Z" id="Fill-10" fill="#FEFEFE"></path>
                <path d="M15.5299436,13.6094265 L13.0189118,13.6094265 L13.0189118,10.983509 L13.8280116,10.983509 C14.0566293,10.983509 14.2419696,10.7975615 14.2419696,10.567251 C14.2419696,10.3378844 14.0566293,10.1509931 13.8280116,10.1509931 L11.1034151,10.1509931 L8.37975941,10.1509931 C8.15114168,10.1509931 7.96486056,10.3378844 7.96486056,10.567251 C7.96486056,10.7975615 8.15114168,10.983509 8.37975941,10.983509 L9.18885919,10.983509 L9.18885919,13.6094265 L6.6768866,13.6094265 C6.44826887,13.6094265 6.26292857,13.7963178 6.26292857,14.0266283 C6.26292857,14.2559949 6.44826887,14.4428863 6.6768866,14.4428863 L8.37975941,14.4428863 L8.37975941,25.256154 L9.97632026,25.256154 L9.97632026,28.2879466 L10.7355569,28.2879466 L10.9764052,31.8804132 L11.1034151,31.8804132 L11.2313657,31.8804132 L11.472214,28.2879466 L12.2323915,28.2879466 L12.2323915,25.256154 L13.8280116,25.256154 L13.8280116,14.4428863 L15.5299436,14.4428863 C15.7595021,14.4428863 15.9448424,14.2559949 15.9448424,14.0266283 C15.9448424,13.7963178 15.7595021,13.6094265 15.5299436,13.6094265 L15.5299436,13.6094265 Z M13.1252237,24.5520079 L12.2323915,24.5520079 L11.5296037,24.5520079 L11.5296037,25.256154 L11.5296037,27.5838005 L11.1034151,27.5838005 L10.6781673,27.5838005 L10.6781673,25.256154 L10.6781673,24.5520079 L9.97632026,24.5520079 L9.08254724,24.5520079 L9.08254724,21.1039574 L9.97632026,21.1039574 L10.6781673,21.1039574 L11.1034151,21.1039574 L11.5296037,21.1039574 L12.2323915,21.1039574 L13.1252237,21.1039574 L13.1252237,24.5520079 Z" id="Fill-12" fill="#FEFEFE"></path>
            </g>
        </g>
    </g>
</svg>