<?xml version="1.0" encoding="UTF-8" standalone="no"?>
<svg width="370px" height="116px" viewBox="0 0 370 116" version="1.1" xmlns="http://www.w3.org/2000/svg" xmlns:xlink="http://www.w3.org/1999/xlink">
    <!-- Generator: Sketch 3.8.3 (29802) - http://www.bohemiancoding.com/sketch -->
    <title>icons-all</title>
    <desc>Created with Sketch.</desc>
    <defs></defs>
    <g id="Dashboard-v2" stroke="none" stroke-width="1" fill="none" fill-rule="evenodd">
        <g id="Dashboard---Null-view" transform="translate(-207.000000, -268.000000)">
            <g id="Flex---2---Project-Details-(null)" transform="translate(32.000000, 169.000000)">
                <g id="Flex---2---Project-Details">
                    <g id="icons-all" transform="translate(175.000000, 99.000000)">
                        <g id="icon-axis-1">
                            <rect id="Card" fill="#7C3AA4" x="0" y="0" width="55.5614241" height="55.4339649"></rect>
                            <g id="Group" transform="translate(6.945178, 15.063725)" fill="#FEFEFE">
                                <polygon id="Fill-3" points="16.7515352 5.06816924 26.4867482 5.06816924 26.4867482 0.153914376 16.7515352 0.153914376"></polygon>
                                <polygon id="Fill-4" points="5.7981007 17.3538064 15.5333137 17.3538064 15.5333137 12.4395515 5.7981007 12.4395515"></polygon>
                                <polygon id="Fill-5" points="16.7515352 17.3538064 26.4867482 17.3538064 26.4867482 12.4395515 16.7515352 12.4395515"></polygon>
                                <polygon id="Fill-6" points="27.7036498 17.3538064 37.4401827 17.3538064 37.4401827 12.4395515 27.7036498 12.4395515"></polygon>
                                <polygon id="Fill-7" points="11.2147648 11.2109878 20.9499778 11.2109878 20.9499778 6.29673296 11.2147648 6.29673296"></polygon>
                                <polygon id="Fill-8" points="22.1668794 11.2109878 31.9020924 11.2109878 31.9020924 6.29673296 22.1668794 6.29673296"></polygon>
                                <polygon id="Fill-9" points="0.261330284 23.4446575 9.9965433 23.4446575 9.9965433 18.5290702 0.261330284 18.5290702"></polygon>
                                <polygon id="Fill-10" points="11.2134449 23.4446575 20.9486579 23.4446575 20.9486579 18.5290702 11.2134449 18.5290702"></polygon>
                                <polygon id="Fill-11" points="22.1668794 23.4446575 31.9034123 23.4446575 31.9034123 18.5290702 22.1668794 18.5290702"></polygon>
                                <polygon id="Fill-12" points="33.1189941 23.4446575 42.8542071 23.4446575 42.8542071 18.5290702 33.1189941 18.5290702"></polygon>
                            </g>
                        </g>
                        <g id="icon-axis-2" transform="translate(62.767372, 30.000000)">
                            <rect id="Card" fill="#D84315" x="0" y="0" width="55.7940377" height="55.6660449"></rect>
                            <g id="Group-2" transform="translate(6.718058, 18.091465)" fill="#FEFEFE">
                                <path d="M30.9890874,1.14069124 C31.5624134,1.31608456 32.3922118,1.57226706 32.6178797,1.63049556 C33.4563607,1.81390487 33.8756013,1.78223708 34.2035875,1.78223708 C34.879398,1.78223708 37.047017,1.53681167 40.5146785,1.18978543 C42.0950962,4.12169539 43.0036712,7.46396719 43.0420244,11.0160381 C42.006487,11.4329974 39.8256428,12.4899101 36.5867782,14.5944989 C35.7418028,13.3958057 31.413283,8.20476316 26.0367332,5.20974365 L20.8988504,9.43053722 L20.2627157,9.95569482 C19.9003438,10.2670948 19.4480401,10.4320312 18.971931,10.4320312 C18.9137399,10.4320312 18.8542262,10.4307117 18.7947126,10.4254338 C18.2723151,10.3779321 17.798851,10.1377846 17.458962,9.74457619 L17.431189,9.71026941 C17.1111378,9.33949232 16.963015,8.88558726 16.9603699,8.43168221 C16.9590474,8.29709408 16.9722727,8.16646443 16.9974006,8.0331958 C17.0807197,7.61359752 17.2923238,7.21511111 17.642793,6.91426706 L22.6882272,2.13638858 L23.1286281,1.69831742 L23.513483,1.35261067 C23.5200956,1.34601321 24.2633549,0.469870899 26.043474,0.436883614 C27.2760676,0.417091242 28.7771338,0.510775134 30.4937717,0.992389507 C30.6286693,1.03197425 30.7648894,1.0702395 30.9037546,1.11378272 C30.9315276,1.12169967 30.9606232,1.13093611 30.9897187,1.14017255 L30.9890874,1.14069124 Z M12.070068,12.8448533 L12.0489076,12.8224219 C11.7910151,12.5717185 11.4484811,12.4331719 11.0861091,12.4331719 C10.7105119,12.4331719 10.3600427,12.5796355 10.1008278,12.8448533 L7.82476165,15.1500048 C7.29442899,15.6909963 7.30368667,16.5631801 7.84724458,17.0922962 L7.86972751,17.113408 C8.12761995,17.3654309 8.46883149,17.502658 8.83252596,17.502658 C9.20680063,17.502658 9.55726984,17.357514 9.81648481,17.0922962 L12.0925509,14.7871446 C12.6228836,14.2461532 12.6136259,13.3726498 12.070068,12.8448533 Z M15.6010784,15.440029 L15.5785955,15.4189171 C15.320703,15.1682138 14.9794915,15.0283477 14.6171195,15.0283477 C14.2401998,15.0283477 13.8910531,15.1748112 13.6305156,15.440029 L11.3557721,17.7465 C10.8254394,18.2874915 10.8346971,19.1596754 11.378255,19.6901109 L11.4007379,19.7099033 C11.6573078,19.9619262 11.9998419,20.1004728 12.3635364,20.1004728 C12.737811,20.1004728 13.0882802,19.9540092 13.3488177,19.6901109 L15.6235613,17.3836399 C16.153894,16.8426484 16.1446363,15.9691451 15.6010784,15.440029 Z M19.3600922,17.728555 L19.3376092,17.7048041 C19.0797168,17.4554202 18.7385052,17.3168736 18.3748108,17.3168736 C17.9992136,17.3168736 17.6500669,17.4633372 17.3895294,17.728555 L15.1134633,20.0337065 C14.5831306,20.574698 14.5937108,21.4455623 15.1359462,21.9759979 L15.1584292,21.9971097 C15.4163216,22.2491326 15.7575331,22.3863597 16.1212276,22.3863597 C16.4968248,22.3863597 16.8459715,22.2425351 17.106509,21.9759979 L19.3825751,19.6708463 C19.9129078,19.1298549 19.9023275,18.2563515 19.3600922,17.728555 Z M22.8899123,20.2206784 L22.8674294,20.1969276 C22.6108594,19.9475437 22.2683254,19.8089971 21.9046309,19.8089971 C21.5290337,19.8089971 21.179887,19.9567801 20.9193495,20.2219979 L18.644606,22.5271494 C18.1129508,23.0681409 18.123531,23.9390053 18.6670889,24.4694408 L18.6895718,24.4892332 C18.9461417,24.7412561 19.2886758,24.8811222 19.6510477,24.8811222 C20.0266449,24.8811222 20.3771141,24.7346586 20.6376516,24.4681213 L22.9123952,22.1629698 C23.4440504,21.6219783 23.4321477,20.7497945 22.8899123,20.2206784 Z M35.714705,16.2311961 C35.1367614,13.9366005 29.1073684,8.69689999 26.1250738,6.94329587 L21.2330525,10.9954541 L21.1973444,11.0244829 C20.5850151,11.5496405 19.8020801,11.8386091 18.9940171,11.8386091 C18.8935052,11.8386091 18.7929933,11.8346506 18.6911588,11.8254142 C17.8024218,11.7475642 16.9930363,11.3332439 16.4137702,10.6603032 L16.378062,10.619399 C16.0672686,10.2591778 15.8635997,9.90423465 15.726057,9.52422112 C15.726057,9.52422112 15.6586082,9.28407368 15.6414154,9.17587538 C15.5316458,8.48446187 15.5845468,7.99361105 15.6903488,7.59116617 L15.854342,7.07260603 L16.0302379,6.7084264 C16.2087788,6.40362388 16.4256729,6.11729424 16.7073708,5.8758273 L22.1164995,0.749603083 C21.7686753,0.500219202 21.1933768,0.369589551 20.3694435,0.369589551 C17.8182921,0.369589551 13.9551956,1.59935557 13.739624,1.66928861 C13.4486684,1.79859877 13.0267828,1.86325385 12.48587,1.86325385 C11.8748632,1.86325385 7.05029081,1.12038018 3.54295361,0.566193774 C1.82763825,3.41761476 0.764327879,6.70446792 0.555368875,10.2209126 C2.67008689,11.3042151 6.3136442,13.7993734 6.83207413,14.3825886 L9.67947119,11.548321 C9.89239777,11.3662312 10.4835666,11.008649 11.0548975,11.0126075 C13.115392,11.0297608 13.6920131,12.9100361 13.8229431,13.5143632 C13.9922263,13.4972098 14.157542,13.4892929 14.316245,13.4892929 C16.7536592,13.4892929 17.261509,15.4368622 17.3646659,16.1018859 C17.7045549,16.0345918 18.0272511,16.0002851 18.3274644,16.0002851 C20.5625322,16.0002851 21.0783171,17.8726434 21.1880867,18.5033603 C22.3651342,18.325229 23.2697416,18.5772518 23.8767807,19.243595 C25.5418401,20.8533746 24.2933762,22.5476016 24.1399632,22.7085795 L21.3613375,25.5164573 C21.8242214,25.7632022 22.2646223,25.8859149 22.6746052,25.8859149 C24.3158591,25.8859149 25.0300228,23.869732 25.0379579,23.8499396 L25.0895364,23.6981981 L25.2469169,23.7272269 C25.5206797,23.7747286 25.7825397,23.7997989 26.0245618,23.7997989 C28.2411143,23.7997989 28.356174,21.711044 28.3588191,21.6226381 L28.3680767,21.3917271 L28.5929061,21.4497847 C29.0385971,21.5645804 29.4551926,21.6226381 29.8307898,21.6226381 C32.139919,21.6226381 32.3713609,19.4520747 32.3792961,19.3597103 L32.399134,19.1578281 L32.6001578,19.1934543 C32.9426919,19.2581094 33.262743,19.2910967 33.5510535,19.2910967 C34.3234083,19.2910967 34.903997,19.0615052 35.2729815,18.6102391 C35.9871452,17.7406943 35.7305753,16.3130045 35.714705,16.2311961 Z" id="Combined-Shape"></path>
                            </g>
                        </g>
                        <g id="icon-axis-3" transform="translate(126.655589, 60.000000)">
                            <rect id="Card" fill="#0097A7" x="0" y="0" width="55.3088722" height="55.1819923"></rect>
                            <g id="Group-4" transform="translate(5.276918, 12.415948)" fill="#FEFEFE">
                                <polygon id="Fill-3" points="14.9520815 22.9138114 2.03501742 16.4700953 0.380872445 17.1903697 14.9520815 24.4585927 44.0944996 9.92081037 42.4925908 9.19919971"></polygon>
                                <polygon id="Fill-4" points="14.9520815 25.4886251 2.03501742 19.0449091 0.380872445 19.7665198 14.9520815 27.0347428 44.0944996 12.4969605 42.4925908 11.7766861"></polygon>
                                <polygon id="Fill-5" points="14.9520815 28.0646416 2.03501742 21.6209256 0.380872445 22.3425362 14.9520815 29.6094229 44.0944996 15.0716406 42.4925908 14.3500299"></polygon>
                                <path d="M29.5236923,0.0777735943 L0.381274262,14.6155559 L14.9524833,21.8837789 L44.0949014,7.34733292 L29.5236923,0.0777735943 Z M25.8792158,12.8008387 C23.8687935,13.8030758 20.6073822,13.8030758 18.5956204,12.8008387 C16.5825193,11.7959291 16.5825193,10.1669598 18.5956204,9.16338644 C20.6060428,8.1611494 23.8674541,8.1611494 25.8792158,9.16338644 C27.892317,10.1669598 27.892317,11.7959291 25.8792158,12.8008387 L25.8792158,12.8008387 Z" id="Fill-6"></path>
                            </g>
                        </g>
                        <g id="icon-axis-4" transform="translate(189.422961, 60.000000)">
                            <rect id="Card" fill="#FAA906" x="0" y="0" width="55.3448104" height="55.217848"></rect>
                            <g id="Group-5" transform="translate(13.836203, 11.996366)" fill="#FEFEFE">
                                <path d="M0.388489822,12.4781403 L0.388489822,18.2196462 C0.388489822,20.4891381 6.64629678,22.3291578 14.3730473,22.3291578 C22.0984525,22.3291578 28.3562595,20.4891381 28.3562595,18.2196462 L28.3562595,12.4781403 C28.3562595,12.4781403 24.6879363,15.9380754 14.3730473,15.9380754 C2.6887585,15.9380754 0.388489822,12.4781403 0.388489822,12.4781403 Z M0.388489822,20.6264349 L0.388489822,28.3757231 C0.388489822,30.645215 6.64629678,32.4838926 14.3730473,32.4838926 C22.0984525,32.4838926 28.3562595,30.645215 28.3562595,28.3757231 L28.3562595,20.6264349 C28.3562595,20.6264349 24.6879363,24.0877121 14.3730473,24.0877121 C2.6887585,24.08637 0.388489822,20.6264349 0.388489822,20.6264349 Z M14.3723747,0.206644665 C6.64562419,0.206644665 0.387817228,2.04666441 0.387817228,4.31615631 L0.387817228,4.37252453 C1.27967579,5.94009789 7.29400402,7.60296037 12.9733808,7.87272257 C13.6970911,7.90761718 14.4073495,7.92506449 15.1028109,7.92774869 C14.6804223,7.9505644 14.2513079,7.9666696 13.8181579,7.9774064 C9.11404117,8.65248294 2.51052131,7.18556713 0.387817228,5.38446829 L0.387817228,10.0549779 C0.387817228,12.3244698 6.64562419,14.1644896 14.3723747,14.1644896 C22.0991251,14.1644896 28.3569321,12.3244698 28.3569321,10.0549779 L28.3569321,4.31615631 C28.3569321,2.04666441 22.0991251,0.206644665 14.3723747,0.206644665 Z" id="Combined-Shape"></path>
                            </g>
                        </g>
                        <g id="icon-axis-5" transform="translate(252.190332, 30.000000)">
                            <rect id="Card" fill="#558B2F" x="0" y="0" width="55.461081" height="55.3338519"></rect>
                            <path d="M20.1962723,9.71303794 C22.111463,9.71303794 23.662415,11.2618974 23.662415,13.1697639 C23.662415,15.0790958 22.111463,16.6294205 20.1962723,16.6294205 C18.2825503,16.6294205 16.7301296,15.0790958 16.7301296,13.1697639 C16.7301296,11.2618974 18.2825503,9.71303794 20.1962723,9.71303794 Z M27.8229612,9.71303794 C29.7366833,9.71303794 31.289104,11.2618974 31.289104,13.1697639 C31.289104,15.0790958 29.7366833,16.6294205 27.8229612,16.6294205 C25.9077705,16.6294205 24.3568185,15.0790958 24.3568185,13.1697639 C24.3568185,11.2618974 25.9077705,9.71303794 27.8229612,9.71303794 Z M35.4483283,9.71303794 C37.3635191,9.71303794 38.9144711,11.2618974 38.9144711,13.1697639 C38.9144711,15.0790958 37.3635191,16.6294205 35.4483283,16.6294205 C33.5331376,16.6294205 31.9821856,15.0790958 31.9821856,13.1697639 C31.9821856,11.2618974 33.5331376,9.71303794 35.4483283,9.71303794 Z M38.9150585,17.3201796 C40.8287806,17.3201796 42.3812013,18.869039 42.3812013,20.7783709 L42.3812013,28.6296374 C42.3812013,30.5389693 40.8287806,32.0878287 38.9150585,32.0878287 L38.9150585,44.9886407 L32.1340497,44.9886407 L32.1340497,32.0863634 L31.1367993,32.0863634 L31.1367993,44.9886407 L24.5085357,44.9886407 L24.5085357,32.0863634 L23.5098166,32.0863634 L23.5098166,44.9886407 L16.7302765,44.9886407 L16.7302765,32.0863634 C14.8150857,32.0863634 13.2641337,30.5389693 13.2641337,28.6296374 L13.2641337,20.7783709 C13.2641337,18.869039 14.8150857,17.3201796 16.7302765,17.3201796 L38.9150585,17.3201796 Z" id="Combined-Shape" fill="#FEFEFE"></path>
                        </g>
                        <g id="icon-axis-6" transform="translate(314.957704, 0.000000)">
                            <rect id="Card" fill="#744D41" x="0" y="0" width="54.9854285" height="54.8592906"></rect>
                            <path d="M42.9913753,14.4166555 L42.9913753,9.46417378 C42.9913753,8.54766267 42.4571541,8.31966732 41.8064029,8.9689256 L7.65861634,43.074614 C7.00937859,43.7238723 7.23941155,44.258378 8.15500324,44.258378 L12.8540317,44.258378 L12.8540317,41.5526318 L14.4582088,41.5526318 L14.4582088,44.258378 L16.7888059,44.258378 L16.7888059,41.5526318 L18.4308174,41.5526318 L18.4308174,44.258378 L20.7599011,44.258378 L20.7599011,41.5526318 L22.403426,41.5526318 L22.403426,44.258378 L24.7325096,44.258378 L24.7325096,41.5526318 L26.3760346,41.5526318 L26.3760346,44.258378 L28.7051182,44.258378 L28.7051182,41.5526318 L30.3471298,41.5526318 L30.3471298,44.258378 L32.6777268,44.258378 L32.6777268,41.5526318 L34.3212517,41.5526318 L34.3212517,44.258378 L36.6503354,44.258378 L36.6503354,41.5526318 L38.2923469,41.5526318 L38.2923469,44.258378 L41.7685686,44.258378 C42.6856736,44.258378 43.0292097,43.9126102 43.0292097,43.0006288 L43.0292097,39.7996345 L40.2794079,39.7996345 L40.2794079,38.1598798 L43.0292097,38.1598798 L43.0292097,35.8361392 L40.2794079,35.8361392 L40.2794079,34.1963845 L43.0292097,34.1963845 L43.0292097,31.8726438 L40.2794079,31.8726438 L40.2794079,30.2328892 L43.0292097,30.2328892 L43.0292097,27.9091485 L40.2794079,27.9091485 L40.2794079,26.2693939 L43.0292097,26.2693939 L43.0292097,23.9456532 L40.2794079,23.9456532 L40.2794079,22.3074085 L43.0292097,22.3074085 L43.0292097,19.9821579 L40.2794079,19.9821579 L40.2794079,18.3439132 L43.0292097,18.3439132 L43.0292097,16.0186626 L40.2794079,16.0186626 L40.2794079,14.3804179 L42.9913753,14.3804179 L42.9913753,14.4166555 Z M36.2689649,37.5891365 L20.4541994,37.5891365 L36.2689649,21.7713929 L36.2689649,37.5891365 Z" id="Fill-3" fill="#FEFEFE"></path>
                        </g>
                    </g>
                </g>
            </g>
        </g>
    </g>
</svg>