<?xml version="1.0" encoding="UTF-8" standalone="no"?>
<svg width="1153px" height="531px" viewBox="0 0 1153 531" version="1.1" xmlns="http://www.w3.org/2000/svg" xmlns:xlink="http://www.w3.org/1999/xlink">
    <!-- Generator: Sketch 3.7.2 (28276) - http://www.bohemiancoding.com/sketch -->
    <title>wmap</title>
    <desc>Created with Sketch.</desc>
    <defs></defs>
    <g id="Country-level-map" stroke="none" stroke-width="1" fill="none" fill-rule="evenodd">
        <g id="01b---Country-level-map-(init)" transform="translate(-63.000000, -245.000000)" fill="#CFD8DC">
            <g id="Flex---3---Project-Performance" transform="translate(29.000000, 80.000000)">
                <path d="M783.965348,168.171968 C779.412807,166.681195 764.822615,170.314537 760.818251,173.112244 C759.912422,174.19857 761.922961,174.942285 761.038859,175.995185 C757.873472,177.116608 752.212879,175.744495 749.732713,177.547796 C749.04415,178.807934 750.895918,179.982837 749.507092,180.873624 C745.658156,180.467505 745.089924,179.646911 741.909496,182.621773 C740.381955,184.050709 739.342424,183.382201 738.299552,182.715364 C737.031057,181.904798 735.757549,181.092561 733.598268,184.055723 C732.005547,186.241745 728.139898,179.070323 724.499871,178.923251 C721.028642,178.781193 716.34407,181.443527 716.250479,185.533126 C716.09338,191.210432 723.665907,189.696261 724.230796,193.735722 C716.125134,193.565253 707.676861,190.369783 699.402401,189.743057 C698.277636,191.150267 701.793989,192.017656 700.281489,193.518457 C700.395136,193.406482 691.473893,193.854382 690.746891,193.959672 C686.61551,194.556316 683.841201,192.85162 680.326519,192.85162 C678.437983,192.841592 675.001851,194.53459 671.415304,196.227587 C666.077266,198.749534 660.408317,201.26981 659.036204,198.171274 C658.900831,196.849299 660.246203,197.011412 659.926991,195.510612 C659.288565,194.255487 655.155513,193.713996 654.381715,195.286661 C652.832447,197.571288 655.753828,198.843125 655.49311,201.278166 C650.562862,200.427489 647.25876,202.778967 644.623166,204.380044 C644.310639,205.611771 644.516205,207.376632 643.297849,207.705873 C641.979216,207.898069 640.74749,207.513677 639.597656,207.129284 C638.018305,206.602834 636.589369,206.076384 635.310847,207.040707 C634.951524,209.318649 638.188775,208.008373 637.752573,210.366535 C632.803941,210.97822 627.392367,207.184436 627.332201,202.168953 C627.69821,202.317696 652.15224,203.469202 644.997531,197.669893 C638.884023,192.716247 625.065958,190.456689 617.573653,189.743057 C612.683515,189.276772 610.918653,185.726994 605.821278,186.079632 C601.252024,186.397173 596.570796,186.467367 592.071735,186.641179 C588.274609,186.804963 585.836225,188.807145 581.940493,189.10296 C580.262538,189.229977 566.853934,192.659424 566.354224,193.735722 C565.321379,197.564603 567.052815,197.509451 562.465178,200.597959 C560.496421,201.921605 557.668631,205.402862 556.375068,207.481922 C552.280455,213.996535 540.44786,211.718593 536.194476,219.018703 C535.557722,222.406368 536.849614,229.689765 539.752611,231.656851 C544.798177,235.07627 547.868301,230.792804 552.069875,228.782265 C553.777913,227.965014 558.026283,231.446271 559.742678,234.927527 C561.300302,238.086229 560.775523,241.24493 554.376228,241.191449 C554.197402,239.187596 554.667029,235.905221 553.049239,234.758729 C550.928397,235.766505 547.336837,235.858425 546.397583,238.525773 C545.348025,241.500634 550.385234,247.266518 546.559696,249.109929 C544.906809,249.905454 543.05337,249.892084 541.21163,249.877042 C540.033384,249.868686 538.85681,249.86033 537.745415,250.062553 C533.983385,250.744432 531.371189,257.633409 527.325043,259.373202 C523.467751,261.032773 518.577613,268.48664 513.558788,266.150204 C513.720901,266.225411 500.676634,270.335065 500.492795,271.127247 C501.96017,274.083725 506.689866,273.570645 508.885915,276.121004 C511.905901,279.625658 512.876909,283.703558 511.135445,288.200947 C509.429078,292.603074 503.492725,291.555187 497.334093,290.5073 C491.259025,289.476127 484.970034,288.443281 482.309371,292.636499 C482.805738,300.051927 478.071029,308.919688 481.425269,315.476082 C482.194053,316.968527 483.882037,316.664356 485.444675,316.360185 C486.256912,316.201414 487.037395,316.044314 487.634039,316.136234 C493.697409,317.125626 491.452892,323.892601 489.405586,327.006178 C485.140503,333.475666 473.844386,334.254478 475.657714,344.962309 C472.219911,351.781092 464.608945,353.216714 459.917688,358.492915 C454.424222,364.638177 451.008145,371.707651 446.208256,378.563203 C443.199969,382.861711 450.421529,391.243133 448.076737,397.13269 C445.31914,404.06512 443.211668,409.486722 444.615535,416.811901 C445.300756,420.341624 451.350756,424.103654 453.924512,426.272963 C457.982357,429.695725 457.405769,434.592548 460.80179,437.874923 C464.754345,441.677064 476.294468,451.154839 481.868156,450.733679 C487.433487,450.334245 491.564867,447.229024 497.613195,447.855751 C503.663195,448.474121 505.220819,448.885254 511.135445,446.296456 C516.525293,443.953334 522.454961,441.879287 528.433096,442.755033 C532.760015,443.385102 532.928813,447.974411 535.527639,450.479646 C545.861105,451.955378 553.664267,449.547077 550.607513,462.487725 C547.378618,476.183787 551.657071,475.697447 558.504266,486.9217 C563.528106,495.159392 566.359238,505.156933 567.460605,514.379004 C567.997083,518.908147 564.697995,521.291379 562.598879,524.745895 C560.707001,527.857801 559.433493,534.780203 559.109266,538.538891 C558.40399,546.701376 567.579266,553.767508 569.680053,561.385159 C572.509514,571.641746 572.357428,578.863306 578.325535,588.224093 C579.92327,590.717628 584.489181,598.410487 584.535976,601.300113 C584.5928,605.339574 582.893118,611.859201 590.079581,611.944435 C593.241625,611.972847 596.985271,609.714961 600.057066,609.285444 C606.91596,608.286024 612.175449,609.841977 618.740199,606.424229 C626.158969,602.561923 636.291883,592.858526 640.187614,585.555074 C641.447752,583.211952 642.863318,579.993085 642.117932,577.312367 C640.76086,572.427243 648.238125,572.064578 650.970652,570.303059 C654.986715,567.714261 653.358897,560.634759 652.382875,556.951278 C650.746702,550.714097 652.544989,550.214387 657.483593,546.093034 C665.403744,539.451404 676.387334,537.278753 675.225801,525.240591 C674.669268,519.541558 676.165055,515.171186 673.340608,510.202499 C670.54123,505.278936 672.937832,499.787141 670.038177,495.518716 C665.654435,489.06594 679.330442,476.658427 682.544295,472.246273 C689.533548,462.661537 700.525495,457.926827 707.670176,448.266883 C710.77874,444.063638 721.672081,425.806679 716.913974,420.578944 C712.892897,419.322149 703.132677,424.040146 698.949487,424.790546 C692.038783,426.089123 690.58812,425.952079 685.644502,420.797881 C686.637237,415.733931 681.768825,412.027053 677.22297,408.82657 C674.672611,407.03831 670.892197,405.903518 669.46326,402.840079 C667.852156,399.390576 668.27833,396.35722 665.094559,393.706585 C659.298593,388.879956 662.599352,382.199888 657.239588,377.471863 C652.284271,373.104833 647.053194,361.756906 645.071067,355.391037 C645.973553,354.221147 647.915569,354.095802 649.723884,353.831741 C654.712627,357.991534 656.502557,362.721229 659.926991,367.803563 C661.930844,370.800151 665.094559,371.6408 666.135761,375.564944 C668.549075,384.713479 679.09145,389.637042 681.210621,398.628477 C681.065221,399.811737 679.345483,399.418988 679.440746,400.846253 C680.523729,402.261819 681.706988,403.590479 682.98551,404.833905 C685.04953,408.45889 685.111367,412.800851 686.752554,416.58795 C693.207001,420.386748 709.040618,408.764733 715.703974,407.267275 C718.409761,407.125217 720.333393,405.88012 721.476542,403.533656 C723.518835,399.509237 727.675285,400.416737 731.32534,399.071364 C734.176527,398.018463 741.145725,392.723878 742.412548,389.977981 C743.838142,386.956324 750.770572,379.101352 748.521042,376.069667 C746.749495,373.681422 744.553446,371.308217 741.42817,371.164488 C735.384856,370.883715 737.146375,364.980787 733.324179,362.483909 C729.204497,366.0504 726.572246,371.10098 717.35686,369.578452 C715.351336,368.699364 716.220396,364.947362 715.361363,362.926796 C714.783104,362.320125 713.895659,362.477224 713.075065,362.632652 C710.101875,357.587086 704.147138,355.3292 701.59845,350.749919 C697.670965,343.698828 708.584361,344.755071 711.510756,349.895899 C713.965852,354.206106 718.337896,356.574296 722.760078,358.648343 C726.132702,360.231036 729.231238,360.129089 732.491886,358.482887 C736.427729,356.497418 736.210463,360.423232 738.209303,362.259959 C743.096098,366.820856 750.782271,365.70779 758.17263,364.596395 C764.93459,363.57692 771.449203,362.560787 775.344934,365.886616 C779.477987,369.414668 786.031038,373.654681 787.209284,378.220592 C789.228179,386.058851 795.441963,382.146407 799.842418,381.108548 C803.410581,382.814915 804.76431,400.767703 807.548647,405.199913 C812.513991,413.105023 816.289392,422.156624 820.004626,430.721885 C823.790054,439.440904 828.320868,432.322963 831.553105,427.673488 C835.881696,421.479759 833.15084,413.506127 833.333009,406.389857 C836.197566,400.872993 845.5149,396.507635 849.69809,391.204693 C854.048407,385.689501 858.360285,380.685717 865.038682,380.222775 C867.906582,380.01888 870.659165,379.534211 873.040725,377.872968 C876.533681,375.436256 877.192161,381.304087 878.759813,383.309611 C882.296222,387.837083 891.52832,392.402994 889.452602,399.4474 C887.781332,405.121363 891.98792,403.680728 896.01401,402.240093 C898.731496,401.269085 901.368761,400.296405 902.058996,401.511419 C905.658913,407.845534 908.665528,416.445892 908.94463,423.682494 C909.063291,427.243971 906.086758,433.441043 909.731799,436.120089 C912.895514,438.444827 916.186246,441.232506 917.371177,445.195088 C919.727668,453.0768 922.989988,462.248733 932.675001,464.043677 C935.333992,460.60086 928.192653,446.199522 925.226148,443.622423 C920.312613,439.350655 913.557337,435.521774 912.046509,428.340325 C911.347918,424.924248 913.537282,422.435726 914.045348,419.245271 C915.09992,412.543476 915.026384,414.787992 919.141052,417.030837 C923.489698,419.40237 924.8334,421.596748 928.458385,424.573281 C930.602625,425.591085 932.522915,426.919745 934.222597,428.564275 C933.973578,430.138612 934.342929,431.542479 935.328979,432.777548 C938.099945,432.515159 950.5108,422.778336 951.516905,420.578944 C952.125248,413.140119 949.996049,407.19541 944.385594,402.30193 C941.270345,399.586115 933.082791,394.361723 933.341838,389.536765 C933.58083,384.83381 941.626326,378.482982 946.172182,380.862871 C954.177568,385.056089 940.862555,389.842608 946.989433,393.350605 C955.703438,398.339347 950.980427,384.990909 951.080703,383.550274 C951.247831,380.779308 960.566835,378.140371 963.047001,377.339833 C979.940203,371.881463 985.632551,363.633743 987.663144,346.519933 C987.114968,344.928883 984.661542,345.231383 984.113366,343.63532 C984.001391,342.488828 984.746777,342.191342 984.556252,340.976328 C981.668297,338.506191 978.23885,332.773733 975.611612,329.621716 C974.242842,327.977186 969.686958,326.544907 969.698657,324.121565 C969.720384,320.020267 975.431115,319.229756 976.794872,315.918969 C974.110812,314.329591 956.188106,315.611455 956.844916,309.484578 C956.91678,308.801028 963.780688,302.959937 964.521061,302.328197 C970.190011,297.481512 968.206213,306.96263 970.589445,308.376525 C974.189361,307.682948 975.050066,304.820061 979.261667,305.433418 C985.278241,306.307492 982.276639,311.065599 986.10552,313.034356 C991.57726,315.843762 990.82686,315.491124 994.51034,319.901607 C996.78661,322.630792 994.936514,328.344866 1000.36146,327.181661 C1011.44365,324.808457 1004.75021,316.326759 999.113019,311.707367 C997.440077,310.335254 989.979525,307.699661 993.121514,304.540959 C996.196652,301.452451 995.920892,301.078087 995.646804,296.84643 C997.557066,294.50498 998.987674,290.83487 1002.72296,292.852093 C1005.78306,294.50498 1009.47322,291.996403 1010.72835,289.086721 C1013.06144,283.633365 1014.42687,275.91878 1014.05418,270.019195 C1013.94722,268.327869 1005.53404,258.19997 1008.27994,257.157097 C1012.8776,255.403934 1019.23846,270.208048 1022.9186,271.568463 C1025.38205,268.941225 1023.96648,264.574195 1021.76876,262.663933 C1017.47694,258.931986 1011.07263,250.721034 1005.84657,249.171766 C1001.58984,250.568948 1002.82825,251.611821 997.859566,249.171766 C995.528144,248.028617 993.49755,248.254239 991.562219,248.47986 C989.707108,248.693783 987.938904,248.911048 986.07878,247.919984 C978.242192,243.746822 976.666184,246.043148 980.344651,236.757569 C983.906128,227.756105 987.496017,228.102058 993.243517,228.449683 C995.778834,228.60344 998.735312,228.757196 1002.29512,228.105401 C1006.73401,227.308205 1007.47271,226.385664 1012.04197,228.546616 C1013.34389,229.161644 1022.07795,230.624006 1022.47738,227.888136 C1022.93698,224.721078 1018.36271,226.134973 1020.08914,221.627556 C1021.47128,218.012598 1025.8734,217.056631 1029.00536,219.077197 C1030.82705,220.252101 1032.20919,222.334504 1034.67097,222.120581 C1039.36056,221.702763 1036.1935,216.97641 1038.22075,215.91014 C1045.02783,217.919007 1042.27525,225.931078 1041.10202,230.547127 C1040.00901,234.850649 1036.77844,232.205028 1039.11488,237.833867 C1040.48365,241.132955 1043.10922,243.703369 1045.83673,245.894405 C1051.64105,250.557249 1057.45874,255.796683 1063.71598,259.817759 C1068.0195,257.66182 1063.5405,251.072001 1063.94662,248.062042 C1064.47307,245.814184 1068.16992,245.902761 1064.59674,243.629833 C1061.5567,241.694502 1063.49203,241.214847 1063.27811,238.751394 C1062.58453,237.499613 1057.84815,233.664047 1056.62645,233.20779 C1051.75303,231.386105 1052.94631,231.795566 1050.86725,226.554462 C1052.6037,223.273758 1058.35622,223.781824 1063.13438,224.28989 C1065.58112,224.548937 1067.77216,224.807984 1069.04232,224.560636 C1071.40884,224.096023 1073.18206,219.239311 1075.3263,217.837115 C1078.26941,215.915154 1082.49271,217.180305 1084.78068,215.467253 C1084.03696,212.019422 1070.39104,210.999947 1074.71796,206.223456 C1077.83488,202.78231 1083.38182,204.590624 1088.78838,206.402282 C1092.63899,207.692502 1096.4194,208.981052 1099.19706,208.37271 C1099.8923,201.304906 1090.43458,199.314423 1085.23526,199.279327 C1078.08222,199.219161 1071.10968,196.466578 1063.92823,194.974134 C1057.63089,193.663858 1053.45939,191.683402 1046.87292,192.408733 C1044.35264,192.679479 1040.53045,191.477836 1036.56953,190.276192 C1030.99752,188.586538 1025.1464,186.896883 1022.25176,189.301841 C1020.9348,190.185944 1023.40995,191.479507 1022.03951,192.408733 C1020.18607,192.721261 1018.70198,191.862228 1017.23126,190.999852 C1015.94438,190.246109 1014.66753,189.492366 1013.16339,189.525792 C1009.84258,189.590971 1006.5836,190.276192 1003.03048,190.331344 C999.331955,190.389839 995.566583,190.819355 991.874746,190.409894 C986.606901,189.833305 982.859913,185.563209 976.938601,185.290792 C974.139223,185.163776 971.364914,185.280765 968.61066,185.399425 C962.94171,185.641759 957.342954,185.884093 951.737513,183.982187 C941.380649,180.452464 931.342998,179.86919 919.807889,180.432409 C915.927199,183.218417 912.922254,183.116469 909.414258,183.01285 C907.204838,182.947671 904.794866,182.882491 901.843402,183.539301 C898.02622,185.265723 895.813458,187.175985 892.004632,182.630129 C886.539578,176.108832 880.46618,177.731635 873.015656,177.104909 C868.919372,176.767312 867.49545,178.98676 863.705008,179.10542 C860.038241,179.214052 856.734139,177.638044 853.284636,177.104909 C849.651294,176.548376 845.87088,176.494895 842.22751,176.949481 C838.30671,177.437492 836.665522,174.519453 833.333009,173.337865 C832.382056,167.093998 817.420842,165.758653 807.81605,165.758653 C804.96152,165.758653 802.579959,165.877313 801.181106,166.019371 C796.222446,166.522424 788.557999,169.67444 783.965348,168.171968 Z M832.218271,173.779081 C831.708534,176.326097 827.478548,177.29042 825.349349,177.547796 L825.349349,177.547796 C825.280827,177.38234 825.264114,177.253652 825.282498,177.156718 L825.282498,177.156718 C825.406172,175.341719 831.365923,173.779081 832.218271,173.779081 M733.544787,186.417228 C733.808848,186.383803 733.735312,186.012781 733.767066,185.757077 L733.767066,185.757077 C736.265615,185.277422 740.211485,189.400446 742.342355,193.523471 L742.342355,193.523471 C744.660407,198.010832 744.827534,202.496522 738.645505,201.054216 L738.645505,201.054216 C737.978668,198.662628 740.147977,198.445363 740.196444,196.394714 L740.196444,196.394714 C740.29672,192.487283 733.237273,191.265584 733.544787,186.417228 M587.194968,209.482433 C589.314139,206.250196 593.3536,200.977337 598.058226,205.489768 L598.058226,205.489768 C598.058226,213.710748 585.087496,210.334781 588.969857,221.896631 L588.969857,221.896631 C590.871763,227.543854 596.28668,226.134973 601.736693,224.724421 L601.736693,224.724421 C605.993419,223.624725 610.2702,222.523357 612.915822,224.779573 L612.915822,224.779573 C610.734814,229.556064 592.334125,224.547266 592.075078,231.083605 L592.075078,231.083605 C592.644981,230.333205 604.526043,233.311409 598.537881,235.801602 L598.537881,235.801602 C597.583586,236.199364 596.530685,235.604392 595.476113,235.011091 L595.476113,235.011091 C594.622094,234.528094 593.764732,234.046768 592.962523,234.091892 L592.962523,234.091892 C588.901335,234.332555 588.92139,240.223784 589.412744,242.961325 L589.412744,242.961325 C582.904816,246.569598 579.004071,244.605855 571.917884,247.438659 L571.917884,247.438659 C570.49229,248.008562 553.766214,247.22975 553.935013,245.403051 L553.935013,245.403051 C553.938355,245.34957 571.755771,239.279516 573.34682,238.829944 L573.34682,238.829944 C576.995204,237.797099 573.602525,231.606713 578.370659,229.307044 L578.370659,229.307044 C585.622302,225.809075 576.769582,224.216354 575.897179,221.057653 L575.897179,221.057653 C575.907207,221.102777 575.918906,221.147902 575.930604,221.194697 L575.930604,221.194697 C576.047593,221.665996 576.166254,222.137294 575.883809,221.010857 L575.883809,221.010857 C575.76682,220.534545 575.795232,220.649863 575.860411,220.910581 L575.860411,220.910581 C574.157386,213.662281 584.439043,213.680665 587.194968,209.482433 M882.334661,256.933147 C882.406526,255.997235 888.170738,243.623148 888.108901,243.196974 L888.108901,243.196974 C893.139425,248.623589 889.394108,251.459736 885.506732,255.093078 L885.506732,255.093078 C885.485006,255.113133 885.463279,255.134859 885.43821,255.158257 L885.43821,255.158257 C884.585862,255.957125 884.020973,257.218934 883.118487,257.218934 L883.118487,257.218934 C882.884509,257.218934 882.627133,257.133699 882.334661,256.933147 M646.398056,283.541445 C645.921744,281.709732 641.57644,281.559318 643.827642,278.912025 L643.827642,278.912025 C645.744589,276.657481 650.380693,276.241335 653.049712,276.889788 L653.049712,276.889788 C654.814574,280.571597 650.327213,280.449594 650.392392,283.322508 L650.392392,283.322508 C650.440859,285.807688 656.307019,286.987605 657.929822,287.976997 L657.929822,287.976997 C667.217073,293.639261 674.846423,301.001208 657.709215,300.613473 L657.709215,300.613473 C648.958442,300.422949 641.949133,292.547922 633.22343,298.529399 L633.22343,298.529399 C631.396731,299.784523 629.713762,299.634109 627.994024,299.485366 L627.994024,299.485366 C626.71216,299.371719 625.406898,299.259744 624.004702,299.729371 L624.004702,299.729371 C621.178583,300.670297 621.66158,305.139274 617.795932,301.948819 L617.795932,301.948819 C617.575324,299.879786 620.309522,300.765559 620.456594,299.064206 L620.456594,299.064206 C619.607589,297.605186 618.79368,296.126112 618.013197,294.628654 L618.013197,294.628654 C617.837713,292.957383 620.244343,288.433254 620.896138,286.867273 L620.896138,286.867273 C621.56966,285.292936 624.922229,281.034539 626.195737,279.69418 L626.195737,279.69418 C628.052519,277.742136 629.653596,278.547688 631.369991,279.349898 L631.369991,279.349898 C632.330971,279.79947 633.327049,280.250713 634.426745,280.215616 L634.426745,280.215616 C637.074037,283.843945 638.160363,285.274552 640.190957,285.274552 L640.190957,285.274552 C641.566413,285.274552 643.376399,284.617743 646.398056,283.541445 M699.402401,306.382699 C701.128823,300.72712 697.457042,299.381747 692.85102,295.422507 L692.85102,295.422507 C680.959931,285.204359 693.778576,274.428007 706.050715,277.113738 L706.050715,277.113738 C707.47798,277.937675 708.46403,281.497481 706.934817,282.657343 L706.934817,282.657343 C703.928202,282.592163 697.632525,284.520809 701.021862,288.692301 L701.021862,288.692301 C702.562774,290.325132 704.317608,291.680532 706.286364,292.763516 L706.286364,292.763516 C709.277939,294.566817 707.748726,296.16288 710.036695,297.737217 L710.036695,297.737217 C713.375894,296.475408 716.705065,298.435808 716.688352,301.063045 L716.688352,301.063045 C716.233767,302.110932 715.286156,301.912051 714.285065,301.713169 L714.285065,301.713169 C713.584803,301.574454 712.859471,301.43741 712.261157,301.724868 L712.261157,301.724868 C711.838325,301.751609 712.102386,302.456885 711.59432,302.390034 L711.59432,302.390034 C712.697358,307.871801 718.688863,308.44839 717.580811,316.136234 L717.580811,316.136234 C716.163573,317.610295 713.464471,318.420861 710.925811,318.35401 L710.925811,318.35401 C704.193934,318.196911 697.196324,313.278362 699.402401,306.382699 M783.44224,280.439567 C782.424436,278.932081 784.819367,276.766114 785.65166,278.440727 L785.65166,278.440727 C785.489547,279.605603 784.994851,280.446252 783.661177,280.446252 L783.661177,280.446252 C783.590983,280.446252 783.517447,280.444581 783.44224,280.439567 M731.32534,281.766556 C734.029455,281.094705 737.58759,286.838862 733.991016,287.53411 L733.991016,287.53411 C733.887397,287.554165 733.782107,287.562522 733.675146,287.564193 L733.675146,287.564193 C731.236762,287.564193 727.942688,282.61389 731.32534,281.766556 M582.761087,303.498086 C581.98896,295.920546 558.668051,294.887701 561.253507,283.322508 L561.253507,283.322508 C561.789984,282.595506 563.078534,281.459042 563.912498,281.766556 L563.912498,281.766556 C565.521931,282.155962 570.333519,286.001555 571.174168,287.285091 L571.174168,287.285091 C574.493312,292.36074 581.440783,292.634828 585.968255,296.233073 L585.968255,296.233073 C588.755935,298.447507 588.837827,305.306401 591.897923,308.744205 L591.897923,308.744205 C595.004815,312.235489 594.725713,319.075999 600.723903,318.35401 L600.723903,318.35401 C606.183944,315.449342 606.969441,311.765862 602.383475,308.376525 L602.383475,308.376525 C596.901707,304.322023 609.285822,299.014068 612.026706,302.612313 L612.026706,302.612313 C613.141443,309.292381 615.265628,315.185281 620.012036,318.801911 L620.012036,318.801911 C621.683307,318.201925 622.985227,318.788541 624.298845,319.375157 L624.298845,319.375157 C625.43698,319.881552 626.585143,320.387947 627.992353,320.1289 L627.992353,320.1289 C630.808444,319.617491 630.793403,316.427035 634.242905,318.183541 L634.242905,318.183541 C637.201054,319.692698 640.07731,319.122795 642.788111,318.552891 L642.788111,318.552891 C645.427047,317.99803 647.912227,317.443168 650.166771,318.801911 L650.166771,318.801911 C650.536122,324.955529 650.733331,326.498112 648.86318,332.250625 L648.86318,332.250625 C648.856495,332.274023 648.848138,332.299092 648.839782,332.324161 L648.839782,332.324161 C648.570707,333.153111 648.470431,333.457282 648.465417,333.472324 L648.465417,333.472324 C648.472102,333.455611 648.612489,333.024423 648.752876,332.593235 L648.752876,332.593235 C648.761232,332.568166 648.767917,332.544768 648.776274,332.519699 L648.776274,332.519699 C647.059879,337.866094 646.511702,342.814726 639.178167,340.257682 L639.178167,340.257682 C635.626717,339.019271 632.740433,339.552406 629.830751,340.082199 L629.830751,340.082199 C626.75227,340.647088 623.645378,341.210306 619.702851,339.674409 L619.702851,339.674409 C614.077355,337.483373 596.427066,330.088001 591.715755,335.581467 L591.715755,335.581467 C587.990493,339.918414 592.477854,347.034684 583.300908,342.152903 L583.300908,342.152903 C580.67367,340.755721 578.678173,341.424229 576.107759,340.528428 L576.107759,340.528428 C573.099472,339.488898 572.404224,335.740238 569.054997,334.525224 L569.054997,334.525224 C565.515246,333.240017 554.854212,334.408235 553.266505,329.000004 L553.266505,329.000004 C552.673204,326.930971 556.21964,325.951606 556.375068,324.121565 L556.375068,324.121565 C556.410164,323.687035 555.121615,318.412505 555.041394,318.136745 L555.041394,318.136745 C554.118853,314.886124 544.983688,315.730116 538.168246,316.57745 L538.168246,316.57745 C534.997846,316.970198 532.328827,317.364618 531.222446,317.344563 L531.222446,317.344563 C527.14956,317.27437 523.370817,317.125626 519.389851,318.178527 L519.389851,318.178527 C515.19329,319.288251 511.981108,323.070336 507.809617,324.121565 L507.809617,324.121565 C505.147283,324.800101 497.872242,324.768347 495.353638,323.168941 L495.353638,323.168941 C490.911401,320.347836 498.005944,318.280474 499.635433,318.211952 L499.635433,318.211952 C507.757808,317.877698 513.66742,314.503403 514.904161,306.825586 L514.904161,306.825586 C515.895224,300.688681 525.725637,300.092037 527.990209,296.179593 L527.990209,296.179593 C528.153993,294.757341 527.732833,293.928391 527.766259,292.636499 L527.766259,292.636499 C529.394076,290.560781 531.414642,290.17806 533.829628,291.486665 L533.829628,291.486665 C538.530912,293.258212 540.56652,290.935146 544.622693,288.866113 L544.622693,288.866113 C550.213093,285.974815 551.215856,287.86335 554.819115,292.636499 L554.819115,292.636499 C558.659695,297.693764 564.041186,298.153363 568.904583,301.419026 L568.904583,301.419026 C575.071571,305.558763 572.99084,306.783804 573.889983,312.150254 L573.889983,312.150254 C580.260866,313.201483 577.0303,306.631719 577.441433,304.388874 L577.441433,304.388874 C578.038077,303.101995 579.311585,303.325946 580.52827,303.551567 L580.52827,303.551567 C580.997897,303.638473 581.459167,303.725379 581.8703,303.725379 L581.8703,303.725379 C582.209568,303.725379 582.51541,303.665213 582.761087,303.498086 M640.187614,477.348662 C641.902338,472.953221 639.676206,468.218511 646.795818,468.28202 L646.795818,468.28202 C652.556688,468.337171 649.15231,477.241701 646.229257,478.97648 L646.229257,478.97648 C646.177448,479.013248 646.088871,479.060043 645.955169,479.118538 L645.955169,479.118538 C645.926757,479.120209 645.898346,479.12188 645.871605,479.123552 L645.871605,479.123552 C645.869934,479.123552 645.868263,479.125223 645.866592,479.125223 L645.866592,479.125223 C645.85155,479.125223 645.83818,479.126894 645.823139,479.126894 L645.823139,479.126894 C645.422034,479.153634 645.030956,479.168676 644.65492,479.168676 L644.65492,479.168676 C642.560818,479.168676 640.916288,478.715762 640.187614,477.348662 M630.65803,488.653136 L631.31651,488.653136 C631.974991,489.047556 634.799438,497.943729 634.426745,498.635635 L634.426745,498.635635 C631.580571,498.31308 629.431317,493.239103 630.337146,489.595733 L630.337146,489.595733 C629.994535,490.349476 629.64524,490.941106 630.65803,488.653136 L630.65803,488.653136 L630.65803,488.653136 M650.614671,514.818548 L651.057558,514.818548 C653.370596,515.929943 652.082047,520.510895 651.057558,522.138713 L651.057558,522.138713 C648.854823,521.226199 649.431412,517.627954 650.280417,515.538865 L650.280417,515.538865 C650.153401,515.739418 650.141702,515.700979 650.614671,514.818548 L650.614671,514.818548 L650.614671,514.818548 M299.728078,178.144439 C296.308658,180.372243 293.400648,182.600047 292.720441,182.431248 L292.720441,182.431248 C292.053604,180.022947 295.519819,178.762809 295.162167,176.662022 L295.162167,176.662022 C293.769998,173.976291 278.691796,178.461981 277.638895,179.765572 L277.638895,179.765572 C280.861105,185.40611 284.004765,181.752712 287.400786,184.423403 L287.400786,184.423403 C287.882112,187.440046 282.679447,187.426676 285.34011,190.864479 L285.34011,190.864479 C287.790192,194.028195 281.414295,197.200266 278.97424,195.734562 L278.97424,195.734562 C279.005995,193.586979 283.785828,193.279465 281.008177,190.821026 L281.008177,190.821026 C278.177044,188.314121 273.505843,191.225474 272.396119,194.14017 L272.396119,194.14017 C270.709808,198.565694 250.868484,198.089382 251.480169,192.408733 L251.480169,192.408733 C252.332517,192.378651 253.828304,192.537421 255.606536,192.696192 L255.606536,192.696192 C260.730651,193.15412 268.197888,193.612048 269.436299,189.525792 L269.436299,189.525792 C269.329338,186.913596 266.175651,187.807726 265.893206,185.533126 L265.893206,185.533126 C265.291548,180.892008 272.091948,180.703154 272.987749,177.547796 L272.987749,177.547796 C271.371631,174.210268 261.365734,180.412353 259.682764,181.321525 L259.682764,181.321525 C258.103414,181.047436 257.919574,179.384522 256.355265,179.10542 L256.355265,179.10542 C253.743069,181.092561 247.196702,178.913224 245.07586,177.046415 L245.07586,177.046415 C241.862007,174.215282 237.215875,175.263169 233.251621,174.536166 L233.251621,174.536166 C228.884591,173.735628 205.473433,180.860254 212.225366,185.09024 L212.225366,185.09024 C217.289316,184.894701 221.532672,182.722049 225.978251,182.648513 L225.978251,182.648513 C227.960378,194.128471 218.679813,192.555805 209.760242,190.98314 L209.760242,190.98314 C204.763143,190.10238 199.878019,189.219949 197.152177,190.633844 L197.152177,190.633844 C192.917178,189.343623 195.171721,188.419411 190.27657,189.081234 L190.27657,189.081234 C184.259996,189.883444 178.006102,190.374797 171.869196,190.85278 L171.869196,190.85278 C165.095537,191.394272 162.316214,191.691758 155.906891,190.409894 L155.906891,190.409894 C149.778342,189.188195 143.674862,189.435543 137.499518,188.635004 L137.499518,188.635004 C132.007723,187.936413 126.367184,186.933651 120.870376,185.976013 L120.870376,185.976013 C115.876619,185.095253 112.819865,186.119742 107.710791,186.278513 L107.710791,186.278513 C101.204535,186.477394 93.4097293,187.886275 87.3881415,190.409894 L87.3881415,190.409894 C83.2133077,192.158043 73.819096,191.364189 70.9762648,195.286661 L70.9762648,195.286661 C71.4475631,197.118374 73.0152149,199.016937 72.3099387,201.278166 L72.3099387,201.278166 C71.5678946,202.899299 56.5064044,202.606826 53.4011838,203.524354 L53.4011838,203.524354 C41.0906049,207.167724 61.6706304,208.91253 62.1085033,209.258483 L62.1085033,209.258483 C62.427716,211.892405 38.959735,215.734656 35.9397491,217.334062 L35.9397491,217.334062 C35.2060614,217.723468 34.8885199,218.152985 34.8784923,218.604228 L34.8784923,218.604228 L34.8784923,218.647681 C34.931973,221.062667 43.6994583,224.06594 45.0297896,224.662584 L45.0297896,224.662584 C50.937731,227.313219 57.3019292,227.443578 63.6644562,226.778412 L63.6644562,226.778412 C65.1017488,226.622984 66.677757,226.977293 68.2337098,227.329931 L68.2337098,227.329931 C70.3695936,227.817942 72.4670381,228.304282 74.1098971,227.466976 L74.1098971,227.466976 C76.0067891,226.34221 78.0641232,225.835816 80.2852417,225.946119 L80.2852417,225.946119 C83.7130176,225.673702 85.5464014,222.575167 88.4978652,222.344531 L88.4978652,222.344531 C92.1579477,222.048716 98.8848116,225.270926 103.084714,225.662003 L103.084714,225.662003 C110.266164,226.325498 110.650556,231.783867 110.005446,236.533618 L110.005446,236.533618 C109.868402,237.511312 109.188195,243.606435 110.005446,244.293327 L110.005446,244.293327 C110.307946,244.547361 111.310708,244.40196 112.430459,244.253217 L112.430459,244.253217 C114.598097,243.969101 117.208622,243.684985 116.057116,246.300523 L116.057116,246.300523 C114.280556,250.336642 114.740155,251.407926 114.664948,256.047373 L114.664948,256.047373 C114.604782,259.692414 111.225473,260.529721 110.891219,263.141917 L110.891219,263.141917 C110.52354,266.06664 114.527904,266.964112 114.883885,269.569623 L114.883885,269.569623 C115.395293,273.329982 111.218788,278.907012 109.153098,281.592743 L109.153098,281.592743 C103.564369,288.861099 97.3221737,295.121678 93.1523537,303.27915 L93.1523537,303.27915 C92.5389974,307.584343 91.004771,325.704258 96.7723257,327.413968 L96.7723257,327.413968 C106.520847,330.300252 102.349355,338.487807 104.904728,345.854767 L104.904728,345.854767 C105.835626,348.518772 110.623816,350.753261 107.109134,353.69804 L107.109134,353.69804 C103.03959,357.109103 109.470639,358.97257 111.462794,360.388136 L111.462794,360.388136 C114.024851,362.211492 112.911785,374.911477 120.427489,373.348839 L120.427489,373.348839 C121.29655,372.222402 117.089962,361.217086 116.658774,359.824918 L116.658774,359.824918 C115.179699,355.046755 110.455018,349.615126 109.781496,344.743372 L109.781496,344.743372 C109.266744,340.921176 114.295597,336.75637 116.215887,341.63648 L116.215887,341.63648 C117.726716,345.498786 114.79865,348.119339 117.950666,351.6992 L117.950666,351.6992 C120.211895,354.2646 121.976757,357.453385 124.420154,359.824918 L124.420154,359.824918 C124.52043,361.245498 124.52043,361.504544 124.420154,362.926796 L124.420154,362.926796 C127.692502,366.782417 131.558151,370.273701 134.197087,374.642402 L134.197087,374.642402 C137.355788,379.871808 133.976479,381.686808 134.173689,386.434887 L134.173689,386.434887 C134.494573,393.619679 153.938135,399.375535 159.008769,401.732026 L159.008769,401.732026 C162.881103,403.526971 166.273782,405.601018 170.460315,403.533656 L170.460315,403.533656 C176.826185,400.39501 179.62222,405.826639 183.631598,409.690617 L183.631598,409.690617 C186.594761,412.546818 192.867039,413.651528 196.883103,414.2465 L196.883103,414.2465 C203.1019,415.165699 202.876279,420.268088 207.57422,423.015657 L207.57422,423.015657 C207.689538,424.449607 207.315173,426.381596 207.791485,427.451209 L207.791485,427.451209 C209.561361,429.852825 228.003831,441.5935 229.157008,437.731194 L229.157008,437.731194 C233.781414,422.228488 240.753954,447.0385 240.031965,453.268996 L240.031965,453.268996 C239.428637,458.45662 232.02658,462.170183 229.305751,466.261453 L229.305751,466.261453 C228.033914,468.155003 226.078528,472.249616 225.70082,474.565997 L225.70082,474.565997 C225.080779,478.378165 228.628886,478.49014 228.638914,481.563607 L228.638914,481.563607 C228.652284,486.14623 219.259744,490.267584 227.8835,495.727624 L227.8835,495.727624 C233.866648,499.514723 236.859894,508.168562 240.189065,514.173437 L240.189065,514.173437 C242.617421,518.553837 245.756067,526.1999 249.016716,529.612635 L249.016716,529.612635 C253.495721,534.297206 259.393635,535.550659 264.783482,538.545576 L264.783482,538.545576 C277.112445,545.414498 276.156478,560.120007 276.313578,572.697989 L276.313578,572.697989 C276.420539,580.201994 275.745346,587.866441 276.530843,595.318636 L276.530843,595.318636 C277.403246,603.379174 279.930207,607.014187 278.748619,615.494214 L278.748619,615.494214 C277.779282,622.857832 280.570304,624.719628 281.631561,631.464875 L281.631561,631.464875 C282.193107,634.929419 281.349116,645.180993 285.400276,646.982622 L285.400276,646.982622 C288.179599,646.130274 284.875497,643.03341 286.511671,641.654612 L286.511671,641.654612 C289.688756,642.618935 288.677637,647.771462 289.616891,650.971945 L289.616891,650.971945 C288.48377,651.687249 284.328991,650.159708 286.344543,653.567428 L286.344543,653.567428 C287.735041,655.920577 284.806975,659.821323 287.536159,661.131599 L287.536159,661.131599 C292.092043,663.317621 289.576781,663.3828 289.616891,667.597745 L289.616891,667.597745 C289.658673,671.894581 294.585579,674.994788 296.711435,678.026473 L296.711435,678.026473 C303.688989,687.947135 316.863615,694.57038 329.251072,695.614924 L329.251072,695.614924 C329.092301,695.653363 328.960271,695.70183 328.865009,695.758653 L328.865009,695.758653 L332.192508,695.758653 C332.190837,695.756982 332.189166,695.756982 332.187494,695.755311 L332.187494,695.755311 C332.336238,695.756982 332.484981,695.758653 332.633724,695.758653 L332.633724,695.758653 C334.403599,695.243902 336.200215,694.744192 336.626389,692.879054 L336.626389,692.879054 C335.190768,689.568267 330.185312,689.909206 327.531335,688.446845 L327.531335,688.446845 C324.53976,686.78393 322.479084,683.570077 320.09251,681.203558 L320.09251,681.203558 C316.551087,677.690547 318.160521,674.344664 319.55436,670.258407 L319.55436,670.258407 C321.942606,663.212331 324.101888,664.071364 316.35722,660.722138 L316.35722,660.722138 C311.510535,658.626364 318.568311,652.315647 318.444637,648.089004 L318.444637,648.089004 C318.942675,645.921366 321.317551,645.63725 321.770465,643.432844 L321.770465,643.432844 C320.035686,640.464667 314.883159,643.65178 315.560024,637.885897 L315.560024,637.885897 C316.487579,637.496491 317.864706,637.722112 319.250189,637.949405 L319.250189,637.949405 C321.909181,638.382264 324.594912,638.818466 324.15704,634.884295 L324.15704,634.884295 C323.483517,628.857693 325.691266,629.658232 330.857163,628.794185 L330.857163,628.794185 C335.200795,628.067182 341.163889,626.506216 340.619054,620.589918 L340.619054,620.589918 C340.264745,616.837916 334.453737,614.498137 333.743447,611.051977 L333.743447,611.051977 C336.613019,610.497115 339.019648,610.838054 341.148847,611.177322 L341.148847,611.177322 C345.612811,611.890955 348.860089,612.601245 352.590365,605.073842 L352.590365,605.073842 C356.136801,597.98097 360.283224,592.437366 364.344411,585.334466 L364.344411,585.334466 C365.367229,579.012049 361.097132,574.489591 367.840709,569.990531 L367.840709,569.990531 C373.942518,565.912631 379.803664,565.762217 386.294878,563.378985 L386.294878,563.378985 C393.47967,560.75509 396.875692,544.403379 397.45228,537.855341 L397.45228,537.855341 C398.35978,527.556972 397.463979,521.488589 405.110042,513.013576 L405.110042,513.013576 C408.948951,508.760192 419.132002,490.093771 406.221437,489.702694 L406.221437,489.702694 C400.163081,489.517183 397.542529,483.893358 392.632336,481.346341 L392.632336,481.346341 C389.339933,479.636632 379.633194,478.866176 375.871164,479.222157 L375.871164,479.222157 C373.384313,479.456134 367.409521,473.740389 364.137173,472.548773 L364.137173,472.548773 C359.210268,470.753829 356.780241,471.074713 352.127423,468.079796 L352.127423,468.079796 C351.146388,467.446384 347.718612,459.502835 347.046761,457.610957 L347.046761,457.610957 C344.889151,451.52419 342.425698,448.168279 335.834207,445.388956 L335.834207,445.388956 C333.37911,444.354439 331.005906,444.387865 328.684511,444.422961 L328.684511,444.422961 C325.681238,444.464743 322.761529,444.508196 319.851847,442.243624 L319.851847,442.243624 C316.37059,439.537837 311.49048,435.879426 308.46548,432.999827 L308.46548,432.999827 C307.407566,431.99038 305.724597,427.825573 306.466641,426.346499 L306.466641,426.346499 C305.502318,425.853474 305.04439,426.389952 304.514597,426.929772 L304.514597,426.929772 C304.070039,427.379344 303.577014,427.827245 302.697926,427.673488 L302.697926,427.673488 C299.850081,423.634027 297.21783,424.833999 294.542125,426.0323 L294.542125,426.0323 C292.514874,426.941471 290.460883,427.848971 288.269847,426.481872 L288.269847,426.481872 C286.354571,425.290256 285.039281,425.41393 283.580262,425.539275 L283.580262,425.539275 C282.674433,425.616154 281.715124,425.694704 280.525179,425.457383 L280.525179,425.457383 C277.338066,424.833999 275.462901,420.022411 271.879697,420.136058 L271.879697,420.136058 C269.650222,420.209594 268.075885,424.870767 265.002419,423.239607 L265.002419,423.239607 C264.738358,422.908696 267.34554,415.98295 263.792419,418.464787 L263.792419,418.464787 C259.488897,421.471403 255.431052,421.628502 251.030597,423.906444 L251.030597,423.906444 C247.365501,425.803336 247.527614,433.524606 242.609065,433.883929 L242.609065,433.883929 C240.61691,433.126844 238.842021,432.01712 237.284397,430.558101 L237.284397,430.558101 C233.869991,429.079026 231.48843,430.683446 228.431677,431.906816 L228.431677,431.906816 C216.378473,436.731774 217.187368,420.187867 217.76897,414.151238 L217.76897,414.151238 C218.181774,409.976404 221.472506,407.3007 216.388501,404.372634 L216.388501,404.372634 C213.686057,402.816681 210.659386,403.20943 207.600961,403.602178 L207.600961,403.602178 C204.885146,403.949802 202.144262,404.299098 199.58889,403.282966 L199.58889,403.282966 C196.321556,397.878077 212.628142,386.169155 205.575381,380.222775 L205.575381,380.222775 C192.686542,380.889612 191.814139,394.035826 177.855687,393.746696 L177.855687,393.746696 C161.736283,393.459237 169.305467,370.345566 172.094818,363.150746 L172.094818,363.150746 C175.198367,355.098564 175.868547,354.293012 183.653325,349.272515 L183.653325,349.272515 C190.686031,344.736687 194.127177,348.440223 201.144842,348.956645 L201.144842,348.956645 C203.920823,349.168897 206.352521,347.711549 208.79759,346.254201 L208.79759,346.254201 C212.50614,344.04311 216.246443,341.832019 221.275296,345.451991 L221.275296,345.451991 C223.419536,346.997916 224.141525,346.51659 225.13426,346.036936 L225.13426,346.036936 C225.759315,345.734436 226.48966,345.431936 227.748127,345.630817 L227.748127,345.630817 C233.681137,346.565057 229.862284,353.320333 230.63274,356.275139 L230.63274,356.275139 C232.721828,358.402666 236.517283,358.817141 239.502173,360.042183 L239.502173,360.042183 C244.465846,355.954255 235.303941,343.777378 242.81296,337.495072 L242.81296,337.495072 C250.360417,331.182683 259.890002,328.498623 267.442474,322.346676 L267.442474,322.346676 C268.659159,319.48546 267.517681,315.639867 267.663081,312.812077 L267.663081,312.812077 C268.396769,312.360834 269.070291,312.578099 269.772225,312.795364 L269.772225,312.795364 C270.231824,312.937422 270.703122,313.07948 271.21286,313.034356 L271.21286,313.034356 C274.799407,312.272257 278.431077,303.670227 282.300069,302.171098 L282.300069,302.171098 C285.401947,300.934357 293.572789,300.234095 295.827333,297.954482 L295.827333,297.954482 C299.022802,294.70219 296.250164,291.035422 302.910177,288.667232 L302.910177,288.667232 C307.298934,287.106265 314.196267,283.073489 318.887523,283.984332 L318.887523,283.984332 C318.26414,286.190409 315.038587,285.647246 315.560024,288.418212 L315.560024,288.418212 C316.327137,292.477728 321.693587,287.238295 323.095783,286.650008 L323.095783,286.650008 C325.502412,285.637218 344.34933,282.722522 339.729938,277.113738 L339.729938,277.113738 C337.281527,276.973352 336.099939,279.96994 333.965726,280.882453 L333.965726,280.882453 C323.8161,282.389939 326.548628,275.074788 329.973061,268.909471 L329.973061,268.909471 C329.363047,266.893919 327.447771,267.056032 325.410492,267.219817 L325.410492,267.219817 C324.061777,267.325107 322.659581,267.432068 321.544844,266.910632 L321.544844,266.910632 C322.475741,260.021655 328.265023,262.518533 332.941237,265.01374 L332.941237,265.01374 C335.48324,266.372483 337.696002,267.729554 338.618544,267.577469 L338.618544,267.577469 C339.150008,265.052179 335.326141,265.702303 335.742287,264.026019 L335.742287,264.026019 C337.839731,262.653906 340.420173,262.871171 342.948806,263.086765 L342.948806,263.086765 C344.442921,263.215453 345.920325,263.342469 347.270711,263.141917 L347.270711,263.141917 C350.354205,262.683988 356.414232,256.468533 359.465972,259.149251 L359.465972,259.149251 C360.17292,261.629417 348.930283,270.248159 347.270711,272.454236 L347.270711,272.454236 C349.329716,274.463103 355.448238,273.749471 358.13397,274.229125 L358.13397,274.229125 C360.097713,274.578421 364.210709,277.045216 366.045764,277.112067 L366.045764,277.112067 C365.65803,277.112067 365.464162,277.113738 366.1193,277.113738 L366.1193,277.113738 C367.914245,277.110396 366.941565,277.110396 366.227933,277.112067 L366.227933,277.112067 C369.989963,276.998421 367.68361,271.392979 368.260198,269.227013 L368.260198,269.227013 C369.687463,263.865577 361.75227,267.555742 361.459798,263.584803 L361.459798,263.584803 C361.280972,261.134721 365.723209,256.139293 366.864687,253.720965 L366.864687,253.720965 C367.969397,251.382857 364.783955,246.907195 363.012408,245.403051 L363.012408,245.403051 C360.787947,243.522872 355.986387,243.855455 355.697257,240.083397 L355.697257,240.083397 C355.458266,235.096326 356.367437,230.592251 353.522934,226.031354 L353.522934,226.031354 C352.015448,223.61804 348.544219,225.817432 345.15154,228.016824 L345.15154,228.016824 C340.094275,231.297528 335.214165,234.57656 337.293226,222.563468 L337.293226,222.563468 C336.750063,220.407529 329.085616,215.746355 327.088448,216.491742 L327.088448,216.491742 C324.506335,217.457736 322.507495,217.013178 320.754333,216.571963 L320.754333,216.571963 C318.023477,215.883399 315.875894,215.191493 313.01635,219.822584 L313.01635,219.822584 C306.015398,231.163826 308.953491,246.369045 290.059778,245.845938 L290.059778,245.845938 C286.521698,249.228589 288.823038,259.152594 280.966395,258.484086 L280.966395,258.484086 C274.349835,257.922539 279.32855,248.762305 281.059986,246.659847 L281.059986,246.659847 C284.008107,243.079985 269.877515,241.749654 267.663081,240.526284 L267.663081,240.526284 C262.318358,237.564792 254.887889,236.941408 255.247212,231.656851 L255.247212,231.656851 C255.076743,227.866409 250.836729,229.671381 254.61213,225.259227 L254.61213,225.259227 C257.88782,221.433689 263.575154,219.117308 268.02909,217.01485 L268.02909,217.01485 C276.430567,213.050596 288.002444,207.710886 297.154321,206.154934 L297.154321,206.154934 C296.459073,208.710306 293.611228,209.113082 292.944391,211.700209 L292.944391,211.700209 C293.99562,213.613814 310.536185,211.58322 310.902193,210.809422 L310.902193,210.809422 C309.692193,206.993911 301.945854,206.036273 302.255039,201.939989 L302.255039,201.939989 C303.456683,201.406854 304.329086,201.953359 305.204832,202.498194 L305.204832,202.498194 C306.170826,203.099851 307.141834,203.70318 308.564085,202.852503 L308.564085,202.852503 C310.865425,201.475376 313.34559,201.340003 315.855839,200.511053 L315.855839,200.511053 C320.326487,199.031979 321.100286,191.999272 324.655078,189.968678 L324.655078,189.968678 C326.506846,189.141399 337.29824,188.275681 339.004607,190.072297 L339.004607,190.072297 C340.54719,191.700115 347.41444,196.434824 345.639551,198.552324 L345.639551,198.552324 C344.332618,200.109948 337.216348,204.314865 335.292715,205.046881 L335.292715,205.046881 C333.992467,205.543249 332.10226,205.42626 330.143531,205.307599 L330.143531,205.307599 C326.655589,205.098691 322.952053,204.888111 321.98773,208.148759 L321.98773,208.148759 C323.219457,209.963759 325.560907,209.631176 328.146362,209.298593 L328.146362,209.298593 C330.979166,208.935928 334.109456,208.56992 336.402439,211.033372 L336.402439,211.033372 C340.054165,214.939132 345.562673,219.033744 351.9252,217.6867 L351.9252,217.6867 C353.145227,215.540789 349.398239,214.935789 350.815476,213.251148 L350.815476,213.251148 C353.200379,213.451701 354.744633,214.499587 356.583031,215.243303 L356.583031,215.243303 C358.583541,213.780941 362.982326,211.327516 359.892146,208.239008 L359.892146,208.239008 C358.441483,206.788345 355.449909,202.342765 359.908859,202.16394 L359.908859,202.16394 C361.610212,202.097089 362.479273,203.205141 363.308223,204.314865 L363.308223,204.314865 C364.315999,205.660238 365.261939,207.007282 367.564949,206.245182 L367.564949,206.245182 C369.423402,205.630155 375.637186,203.485915 375.874507,201.054216 L375.874507,201.054216 C376.402628,195.691109 359.937271,196.327863 364.98785,189.066192 L364.98785,189.066192 C366.82959,186.417228 361.867588,185.700253 360.406898,184.64401 L360.406898,184.64401 C358.835903,183.51256 357.044301,183.069674 355.032092,183.31535 L355.032092,183.31535 C351.632727,182.055212 352.05723,178.75111 349.264537,177.104909 L349.264537,177.104909 C345.445684,177.576207 340.934925,177.188473 336.265395,176.800738 L336.265395,176.800738 C326.510188,175.990172 316.061405,175.179605 309.792469,182.205627 L309.792469,182.205627 C304.051655,188.686814 312.566778,186.549259 314.22635,189.743057 L314.22635,189.743057 C313.905466,193.037131 304.449417,199.34952 301.370937,197.504437 L301.370937,197.504437 C300.531959,195.320087 306.222635,192.74633 301.03334,192.046068 L301.03334,192.046068 C295.70533,191.32575 298.879073,186.47238 298.262374,183.0914 L298.262374,183.0914 C300.749224,178.553901 310.330618,181.114287 312.901032,176.662022 L312.901032,176.662022 C312.381267,174.629757 311.136171,173.847603 309.503339,173.847603 L309.503339,173.847603 C306.795881,173.847603 303.025495,175.995185 299.728078,178.144439 M322.211681,181.095903 L322.211681,180.211801 L322.211681,181.095903 C322.338697,181.124315 322.450672,181.136014 322.550949,181.137685 L322.550949,181.137685 C322.450672,181.136014 322.338697,181.124315 322.211681,181.095903 L322.211681,181.095903 L322.211681,181.095903 M322.335355,181.000641 C322.321984,181.000641 322.310286,181.002312 322.298587,181.003983 L322.298587,181.003983 C322.310286,181.002312 322.321984,181.000641 322.335355,181.000641 M322.457357,181.020696 C322.505824,181.034066 322.55262,181.054121 322.584374,181.074177 L322.584374,181.074177 C322.55262,181.054121 322.505824,181.034066 322.457357,181.020696 M322.584374,181.074177 C322.611114,181.090889 322.627827,181.105931 322.629498,181.119301 L322.629498,181.119301 C322.627827,181.105931 322.611114,181.090889 322.584374,181.074177 M322.584374,181.137685 C322.57936,181.139356 322.576018,181.139356 322.571004,181.139356 L322.571004,181.139356 C322.576018,181.139356 322.57936,181.139356 322.584374,181.137685 M322.571004,181.147712 L322.55262,181.147712 L322.55262,181.147712 L322.571004,181.147712 M240.610225,195.067725 C241.153388,196.16575 240.021938,196.81086 239.283236,197.287172 L239.283236,197.287172 C237.182449,195.752946 234.600336,196.16575 232.02658,196.581896 L232.02658,196.581896 C229.965903,196.912807 227.91024,197.243719 226.113624,196.575211 L226.113624,196.575211 C225.816138,196.543457 225.34484,196.302794 224.646249,195.734562 L224.646249,195.734562 C224.711428,194.669962 224.962119,194.263844 225.261276,194.233761 L225.261276,194.233761 C227.814978,191.419341 237.515032,193.617062 240.610225,195.067725 M349.0456,201.939989 C348.171526,200.828594 349.612161,199.917752 350.598211,200.613 L350.598211,200.613 C350.731912,201.577324 350.289026,201.96673 349.458404,201.96673 L349.458404,201.96673 C349.329716,201.96673 349.192672,201.956702 349.0456,201.939989 M190.498849,201.719382 C194.441376,201.373429 201.194981,198.390211 202.252895,203.271992 L202.252895,203.271992 C201.134815,204.863041 193.002412,206.246853 189.521156,206.25521 L189.521156,206.25521 C189.320603,206.327074 188.932869,206.320389 188.282744,206.154934 L188.282744,206.154934 C188.284416,206.146577 188.286087,206.138221 188.287758,206.128193 L188.287758,206.128193 C188.573545,204.209575 189.674913,203.103194 190.498849,201.719382 M202.914718,218.570802 C202.421693,220.644849 195.653047,221.65931 192.39407,221.741203 L192.39407,221.741203 C192.206888,221.828109 191.767343,221.839808 190.941736,221.677694 L190.941736,221.677694 C190.941736,221.671009 190.943407,221.662653 190.943407,221.655968 L190.943407,221.655968 C191.446459,217.324035 200.40447,216.561935 202.914718,218.570802 M115.268277,235.856754 C115.229838,235.856754 115.189727,235.858425 115.152959,235.858425 L115.152959,235.858425 C115.189727,235.858425 115.229838,235.856754 115.268277,235.856754 M115.300031,235.856754 C115.330114,235.858425 115.361868,235.858425 115.393622,235.858425 L115.393622,235.858425 C115.361868,235.858425 115.330114,235.858425 115.300031,235.856754 M115.771329,235.920262 C115.767987,236.242817 115.998622,236.341422 115.998622,236.665649 L115.998622,236.665649 C115.998622,236.341422 115.767987,236.242817 115.771329,235.920262 M114.432641,236.289613 C114.427628,236.28627 114.424285,236.28627 114.422614,236.289613 L114.422614,236.289613 C114.424285,236.28627 114.427628,236.28627 114.432641,236.289613 M114.432641,236.289613 C114.452697,236.306325 114.489465,236.401588 114.517876,236.495179 L114.517876,236.495179 C114.524561,236.518577 114.531246,236.541975 114.537932,236.565372 L114.537932,236.565372 C114.531246,236.541975 114.524561,236.518577 114.517876,236.495179 L114.517876,236.495179 C114.489465,236.401588 114.452697,236.306325 114.432641,236.289613 L114.432641,236.289613 L114.432641,236.289613 M114.419271,236.36482 C114.420943,236.389889 114.424285,236.419972 114.429299,236.45674 L114.429299,236.45674 C114.424285,236.419972 114.420943,236.389889 114.419271,236.36482 M114.429299,236.424986 C114.43097,236.450055 114.434313,236.476795 114.437655,236.505207 L114.437655,236.505207 C114.434313,236.476795 114.43097,236.450055 114.429299,236.424986 M114.459382,236.567044 C114.486122,236.615511 114.516205,236.660635 114.547959,236.702417 L114.547959,236.702417 L114.547959,236.702417 L114.547959,236.702417 C114.516205,236.660635 114.486122,236.615511 114.459382,236.567044 M114.547959,236.607154 C114.552973,236.637237 114.557987,236.663977 114.557987,236.68069 L114.557987,236.68069 C114.557987,236.663977 114.552973,236.637237 114.547959,236.607154 M114.494479,236.632223 C114.506177,236.65395 114.517876,236.670662 114.526233,236.682361 L114.526233,236.682361 C114.517876,236.670662 114.506177,236.65395 114.494479,236.632223 M114.547959,236.702417 L114.547959,236.702417 L114.547959,236.702417 C114.73347,236.94308 115.007559,237.076781 115.276633,237.090151 L115.276633,237.090151 C115.007559,237.076781 114.73347,236.94308 114.547959,236.702417 M115.350169,237.091823 L115.3251,237.091823 L115.3251,237.091823 L115.350169,237.091823 M221.761636,249.614653 C225.913072,248.645316 224.236788,255.957125 221.761636,256.047373 L221.761636,256.047373 C221.726539,256.049044 221.691442,256.049044 221.656346,256.049044 L221.656346,256.049044 C218.327175,256.050716 219.014067,250.258092 221.761636,249.614653 M120.937226,266.258836 C120.927199,266.258836 120.917171,266.258836 120.907144,266.260507 L120.907144,266.260507 C120.917171,266.258836 120.927199,266.258836 120.937226,266.258836 M122.202378,268.909471 C123.068096,268.020355 122.200707,266.313988 120.99405,266.260507 L120.99405,266.260507 C122.200707,266.313988 123.068096,268.020355 122.202378,268.909471 L122.202378,268.909471 C122.173967,268.916156 122.145555,268.919499 122.117143,268.924513 L122.117143,268.924513 C122.145555,268.919499 122.173967,268.916156 122.202378,268.909471 M120.273732,266.429306 C120.272061,266.430977 120.268718,266.430977 120.267047,266.432648 L120.267047,266.432648 C120.268718,266.430977 120.272061,266.430977 120.273732,266.429306 M120.23195,266.452704 C120.221923,266.457717 120.211895,266.462731 120.201867,266.467745 L120.201867,266.467745 C120.211895,266.462731 120.221923,266.457717 120.23195,266.452704 M120.183483,266.601447 C120.108276,267.398643 120.496011,268.92117 121.797931,268.946239 L121.797931,268.946239 C120.496011,268.92117 120.108276,267.398643 120.183483,266.601447 M121.841384,268.946239 L121.831356,268.946239 L121.831356,268.946239 L121.841384,268.946239 M231.740792,275.562799 C232.466124,272.875396 244.193429,269.701653 246.760501,269.161833 L246.760501,269.161833 C250.56097,268.361295 257.877792,275.079802 252.588221,277.331004 L252.588221,277.331004 C252.167061,277.509829 246.091992,278.178338 245.045777,277.99784 L245.045777,277.99784 C242.030805,277.479747 242.281496,274.483159 238.601358,275.634664 L238.601358,275.634664 C237.339549,276.030755 235.638195,276.938255 234.139065,276.938255 L234.139065,276.938255 C233.21151,276.938255 232.362505,276.590631 231.740792,275.562799 M233.498969,294.145656 C234.436552,290.896707 244.887006,275.479236 249.481329,280.882453 L249.481329,280.882453 C249.187185,283.203848 247.375528,283.108586 245.578912,284.15313 L245.578912,284.15313 C245.941578,283.932522 246.105363,283.833917 245.486992,284.206611 L245.486992,284.206611 C243.768926,285.24447 244.464175,284.824981 245.157752,284.407163 L245.157752,284.407163 C245.269727,284.338641 245.383374,284.27179 245.485321,284.209953 L245.485321,284.209953 C245.314852,284.408834 235.93401,296.431955 233.689494,296.433626 L233.689494,296.433626 C233.163043,296.433626 233.031013,295.773474 233.498969,294.145656 M255.914049,291.083889 C252.954229,290.824842 253.818276,283.220561 253.91521,281.32534 L253.91521,281.32534 C255.634947,279.134304 262.238137,280.050161 264.559532,280.658503 L264.559532,280.658503 C266.412971,281.144843 267.185098,283.945892 265.443634,285.316334 L265.443634,285.316334 C264.723316,285.406583 264.221935,285.251155 263.76735,285.094055 L263.76735,285.094055 C263.306079,284.938627 262.889933,284.779856 262.341756,284.875119 L262.341756,284.875119 C259.41369,285.3765 258.79532,291.090574 256.087862,291.092245 L256.087862,291.092245 C256.031038,291.092245 255.972544,291.088903 255.914049,291.083889 M276.978743,289.086721 C276.313578,291.779137 270.938772,291.351292 268.288137,290.44045 L268.288137,290.44045 C268.131037,290.393654 267.925471,290.315104 267.663081,290.193102 L267.663081,290.193102 C267.663081,290.186417 267.664753,290.17806 267.666424,290.171375 L267.666424,290.171375 C268.040788,287.793157 275.800498,287.935215 276.978743,289.086721 M249.703608,297.289316 C249.265735,294.414731 260.994712,293.709455 262.341756,294.187438 L262.341756,294.187438 C260.327875,295.868736 258.153552,296.818018 254.739146,297.906015 L254.739146,297.906015 C254.831066,297.875932 254.929671,297.844178 255.029947,297.814095 L255.029947,297.814095 C255.145265,297.777327 255.260583,297.740559 255.365873,297.707134 L255.365873,297.707134 C255.175348,297.7673 254.919643,297.849192 254.582047,297.954482 L254.582047,297.954482 C253.804906,298.39904 253.069547,298.621319 252.377641,298.621319 L252.377641,298.621319 C251.399948,298.621319 250.50916,298.176761 249.703608,297.289316 M209.496181,420.657494 C209.77027,420.657494 210.052714,420.874759 210.23154,421.464718 L210.23154,421.464718 C210.052714,420.874759 209.768598,420.657494 209.496181,420.657494 M210.23154,421.464718 C210.116223,421.793958 209.9023,422.024593 209.788654,422.355505 L209.788654,422.355505 C209.9023,422.024593 210.116223,421.793958 210.23154,421.464718 M264.116645,427.451209 C266.244173,426.470173 266.755581,430.496264 265.002419,430.782051 L265.002419,430.782051 C264.928883,430.79375 264.858689,430.800435 264.788496,430.800435 L264.788496,430.800435 C263.275996,430.800435 262.580748,428.161499 264.116645,427.451209 M825.282498,177.156718 C825.274142,177.287077 825.295868,177.417437 825.349349,177.547796 L825.349349,177.547796 C826.696393,177.385682 826.123147,176.906028 825.656863,176.906028 L825.656863,176.906028 C825.48138,176.906028 825.319266,176.976221 825.282498,177.156718 M665.689532,192.62767 C666.144117,193.459963 668.086133,193.518457 668.794752,192.85162 L668.794752,192.85162 C669.219255,191.661675 668.126244,190.99651 667.110112,190.994838 L667.110112,190.994838 C666.219324,190.994838 665.387032,191.507919 665.689532,192.62767 M225.261276,194.233761 C224.901953,194.628181 224.683017,195.124548 224.646249,195.734562 L224.646249,195.734562 C225.110862,196.112269 225.600544,196.383015 226.113624,196.575211 L226.113624,196.575211 C226.64676,196.630363 226.626704,196.018678 226.376014,195.405321 L226.376014,195.405321 C226.135351,194.818705 225.682437,194.230418 225.298044,194.230418 L225.298044,194.230418 C225.286345,194.230418 225.272975,194.23209 225.261276,194.233761 M333.074939,197.954009 C333.674925,200.499354 339.973944,197.923926 339.509331,195.953498 L339.509331,195.953498 C339.024662,195.171344 338.202397,194.858816 337.303254,194.858816 L337.303254,194.858816 C335.225864,194.858816 332.742356,196.530087 333.074939,197.954009 M740.196444,196.394714 C740.174717,197.313912 740.193101,196.625349 740.209814,195.936785 L740.209814,195.936785 C740.219841,195.485542 740.23154,195.034299 740.23154,195.034299 L740.23154,195.034299 C740.23154,195.034299 740.221513,195.385266 740.196444,196.394714 M188.287758,206.128193 C188.286087,206.138221 188.284416,206.146577 188.282744,206.154934 L188.282744,206.154934 C188.555161,206.225127 188.983007,206.256881 189.521156,206.25521 L189.521156,206.25521 C189.726722,206.181674 189.743435,206.026246 189.653186,205.870818 L189.653186,205.870818 C189.531183,205.656895 189.206957,205.442972 188.902786,205.442972 L188.902786,205.442972 C188.628697,205.442972 188.367979,205.618456 188.287758,206.128193 M298.486324,214.583151 C297.618935,215.109601 297.518658,215.938551 297.597208,216.353026 L297.597208,216.353026 C298.050122,218.590858 302.539155,217.05496 302.478989,215.467253 L302.478989,215.467253 C301.803796,214.609891 301.014956,214.182046 300.110799,214.182046 L300.110799,214.182046 C299.604404,214.182046 299.064584,214.315748 298.486324,214.583151 M298.561531,214.533013 C298.319197,214.683427 298.076863,214.83217 298.486324,214.583151 L298.486324,214.583151 C298.767097,214.41101 298.865702,214.350844 298.864031,214.350844 L298.864031,214.350844 C298.86236,214.350844 298.711945,214.441093 298.561531,214.533013 M575.883809,221.010857 C575.888823,221.025899 575.892165,221.04094 575.897179,221.057653 L575.897179,221.057653 C575.883809,221.005844 575.87211,220.955706 575.860411,220.910581 L575.860411,220.910581 C575.868767,220.944007 575.875453,220.977432 575.883809,221.010857 M190.943407,221.655968 C190.943407,221.662653 190.941736,221.671009 190.941736,221.677694 L190.941736,221.677694 C191.234208,221.736189 191.743946,221.756244 192.39407,221.741203 L192.39407,221.741203 C192.541142,221.671009 192.534457,221.555692 192.437523,221.438703 L192.437523,221.438703 C192.285437,221.256534 191.912744,221.072694 191.576819,221.072694 L191.576819,221.072694 C191.272647,221.072694 191.00023,221.223109 190.943407,221.655968 M501.729535,232.113108 C497.957477,234.992707 499.012049,236.627209 498.722919,240.96917 L498.722919,240.96917 C500.805322,241.871656 503.487711,244.659336 505.591841,245.845938 L505.591841,245.845938 C510.62905,248.672056 505.277642,250.289846 503.636455,252.016269 L503.636455,252.016269 C503.624756,252.027967 503.611385,252.041338 503.599687,252.054708 L503.599687,252.054708 C503.813609,254.636821 501.801399,254.989459 501.15796,256.71421 L501.15796,256.71421 C501.544024,257.80555 503.200253,257.623381 503.375736,258.931986 L503.375736,258.931986 C503.128388,260.342538 500.609784,260.543091 501.15796,262.033864 L501.15796,262.033864 C503.663195,263.989251 519.179271,261.286806 521.338552,259.592138 L521.338552,259.592138 C520.873939,256.926461 526.049864,254.5566 521.923497,252.646338 L521.923497,252.646338 C518.845016,251.219073 519.65224,250.757802 518.012724,248.285993 L518.012724,248.285993 C516.503566,246.013065 513.71923,243.907264 511.974423,241.809819 L511.974423,241.809819 C508.782297,237.965897 512.104782,238.78482 512.688056,235.199944 L512.688056,235.199944 C512.300321,233.296367 508.750542,234.556505 508.476454,232.540953 L508.476454,232.540953 C508.621855,231.2875 509.798429,231.056865 509.808457,229.658011 L509.808457,229.658011 C509.624617,229.52431 509.342172,229.465815 508.989534,229.465815 L508.989534,229.465815 C506.980667,229.465815 502.715584,231.359365 501.729535,232.113108 M592.071735,231.213964 C592.071735,231.170511 592.073407,231.127058 592.075078,231.083605 L592.075078,231.083605 C592.048338,231.118702 592.046666,231.162155 592.071735,231.213964 M487.63571,247.091034 C487.797824,247.030869 487.811194,247.025855 487.41176,247.17794 L487.41176,247.17794 C487.391705,247.184625 487.373321,247.192982 487.354937,247.199667 L487.354937,247.199667 C482.795711,248.922747 485.30763,248.514957 485.193984,252.278658 L485.193984,252.278658 C484.537175,253.909818 482.635269,254.300895 482.309371,256.26631 L482.309371,256.26631 C484.627423,260.051737 489.870199,256.679113 492.731414,255.823423 L492.731414,255.823423 C497.53966,254.382788 495.706276,253.909818 497.165295,249.614653 L497.165295,249.614653 C498.696179,245.185786 498.051068,243.785261 496.36977,243.785261 L496.36977,243.785261 C494.314107,243.785261 490.705834,245.882706 487.63571,247.091034 M487.286415,247.223065 C486.883639,247.376822 486.484205,247.527236 487.354937,247.199667 L487.354937,247.199667 C487.373321,247.192982 487.393376,247.184625 487.41176,247.17794 L487.41176,247.17794 C487.486967,247.149529 487.560503,247.121117 487.63571,247.091034 L487.63571,247.091034 C487.548804,247.12446 487.416774,247.172927 487.286415,247.223065 M105.050129,249.796821 C105.016703,249.549473 104.948181,249.546131 104.904728,250.50544 L104.904728,250.50544 C104.908071,250.507111 104.909742,250.510454 104.911413,250.512125 L104.911413,250.512125 C105.22227,250.928271 105.589949,251.295951 106.014452,251.611821 L106.014452,251.611821 C107.368181,251.041918 108.650045,250.403493 109.121344,248.954501 L109.121344,248.954501 C108.743637,248.247554 108.155349,247.951739 107.535308,247.951739 L107.535308,247.951739 C106.525861,247.951739 105.436192,248.737236 105.050129,249.796821 M885.591967,255.012857 C885.41147,255.183326 885.229301,255.352125 885.190862,255.390564 L885.190862,255.390564 C885.21426,255.367166 885.289467,255.296973 885.43821,255.158257 L885.43821,255.158257 C885.461608,255.136531 885.485006,255.114804 885.506732,255.093078 L885.506732,255.093078 C885.872741,254.750467 886.0031,254.628464 886.0031,254.628464 L886.0031,254.628464 C886.0031,254.628464 885.797533,254.820661 885.591967,255.012857 M885.18752,255.392235 C885.18752,255.392235 885.189191,255.390564 885.190862,255.390564 L885.190862,255.390564 C885.189191,255.390564 885.18752,255.392235 885.18752,255.392235 M885.182506,255.397249 C885.184177,255.395578 885.184177,255.395578 885.18752,255.392235 L885.18752,255.392235 C885.184177,255.395578 885.184177,255.395578 885.182506,255.397249 M1028.01931,278.888628 C1031.76463,276.470299 1026.44665,273.838048 1024.2506,272.678186 L1024.2506,272.678186 C1023.38822,275.180078 1025.74973,278.04965 1028.01931,278.888628 M1030.67998,283.541445 C1030.67329,283.825561 1030.39085,283.848959 1030.46104,284.206611 L1030.46104,284.206611 C1032.383,289.04661 1028.6427,296.976789 1035.33781,298.397369 L1035.33781,298.397369 C1037.74277,291.752397 1044.85904,298.38567 1047.97596,291.302825 L1047.97596,291.302825 C1047.79044,288.21766 1045.14984,288.496762 1041.99114,287.976997 L1041.99114,287.976997 C1037.35837,287.213226 1033.29384,283.508019 1031.03763,283.506348 L1031.03763,283.506348 C1030.91228,283.506348 1030.79362,283.518047 1030.67998,283.541445 M261.867115,284.95534 C261.232032,285.062301 260.603635,285.172605 262.341756,284.875119 L262.341756,284.875119 C262.477129,284.851721 262.532281,284.841693 262.530609,284.841693 L262.530609,284.841693 C262.528938,284.841693 262.196355,284.898517 261.867115,284.95534 M267.666424,290.171375 C267.664753,290.17806 267.663081,290.186417 267.663081,290.193102 L267.663081,290.193102 C267.846921,290.278336 268.057501,290.360229 268.288137,290.44045 L268.288137,290.44045 C268.812915,290.595878 268.791189,290.390312 268.587294,290.184745 L268.587294,290.184745 C268.433537,290.029317 268.176161,289.873889 267.970595,289.873889 L267.970595,289.873889 C267.823523,289.873889 267.703192,289.95411 267.666424,290.171375 M549.056574,297.737217 C550.076049,297.125532 550.859875,296.286554 550.607513,294.411388 L550.607513,294.411388 C550.186353,293.956803 549.766864,293.769621 549.382472,293.769621 L549.382472,293.769621 C547.704516,293.767949 546.680027,297.317728 549.056574,297.737217 M254.582047,297.954482 C254.635527,297.937769 254.687337,297.921057 254.739146,297.906015 L254.739146,297.906015 C254.272862,298.053087 253.962005,298.151692 254.582047,297.954482 M1035.56176,316.584135 C1033.14343,317.881041 1031.9936,321.190156 1029.79587,322.127739 L1029.79587,322.127739 C1028.14633,322.819645 1026.56364,322.804604 1025.01604,322.789562 L1025.01604,322.789562 C1022.90523,322.769507 1020.85959,322.747781 1018.80393,324.524341 L1018.80393,324.524341 C1013.18177,329.377711 1011.07597,330.828374 1015.6001,336.759713 L1015.6001,336.759713 C1022.35036,345.58235 1018.85908,335.815445 1022.47738,333.657835 L1022.47738,333.657835 C1025.37369,334.650569 1027.03494,331.933083 1028.98029,330.502476 L1028.98029,330.502476 C1030.61814,329.29749 1031.41032,329.808899 1032.28607,330.318636 L1032.28607,330.318636 C1032.91948,330.686316 1033.59802,331.057338 1034.67097,330.773222 L1034.67097,330.773222 C1037.51714,330.029506 1037.69764,326.590032 1041.30926,325.968319 L1041.30926,325.968319 C1043.9883,325.505377 1047.39937,325.608996 1049.30963,323.235792 L1049.30963,323.235792 C1048.40881,320.070405 1046.03394,315.534577 1045.75818,312.36919 L1045.75818,312.36919 C1045.19998,306.228943 1044.6284,300.381167 1036.45087,299.505421 L1036.45087,299.505421 C1032.56016,303.977741 1044.47632,311.755834 1035.56176,316.584135 M546.173632,301.504261 C546.228784,303.981084 546.436022,305.565448 545.948011,307.714702 L545.948011,307.714702 C546.312348,308.413293 546.522928,308.613846 546.624875,308.563707 L546.624875,308.563707 C548.200884,309.785406 550.645952,307.743114 551.272679,306.158749 L551.272679,306.158749 C552.036449,302.045752 550.861546,299.929924 549.088328,299.929924 L549.088328,299.929924 C548.20924,299.929924 547.18308,300.449689 546.173632,301.504261 M562.361559,313.259978 C563.984363,315.918969 567.373699,316.813099 571.007041,317.469908 L571.007041,317.469908 C571.012055,317.464894 571.017069,317.461552 571.022083,317.456538 L571.022083,317.456538 C572.317318,316.470488 572.409237,314.281124 573.005881,312.591469 L573.005881,312.591469 C572.056599,312.611525 570.933506,312.511248 569.765287,312.412644 L569.765287,312.412644 C568.694003,312.322395 567.582608,312.232146 566.529708,312.232146 L566.529708,312.232146 C564.870136,312.232146 563.354294,312.456097 562.361559,313.259978 M638.41941,325.231289 C639.276772,327.352131 643.239354,326.125418 643.513443,324.347186 L643.513443,324.347186 C643.19423,323.713775 642.361937,323.43133 641.459451,323.43133 L641.459451,323.43133 C640.053913,323.43133 638.481247,324.116551 638.41941,325.231289 M834.885619,429.879565 C834.883948,429.882908 834.882276,429.88625 834.878934,429.892935 L834.878934,429.892935 C834.021572,432.426581 834.317387,431.577576 834.604845,430.726899 L834.604845,430.726899 C834.67671,430.514648 834.746903,430.302396 834.800384,430.141954 L834.800384,430.141954 C833.657235,433.992562 832.452249,448.022878 840.145107,443.672561 L840.145107,443.672561 C845.314347,440.749509 839.760715,430.60991 835.544099,429.226098 L835.544099,429.226098 C835.236586,429.34643 835.009293,429.567037 834.885619,429.879565 M977.683988,447.855751 C974.236157,450.469618 972.533132,452.194369 969.429583,455.1943 L969.429583,455.1943 C966.618506,457.913457 963.439749,455.725764 961.628092,459.838761 L961.628092,459.838761 C960.565164,462.255418 959.104473,461.847628 957.580275,461.439838 L957.580275,461.439838 C956.266656,461.090542 954.906242,460.739576 953.714626,462.195252 L953.714626,462.195252 C951.760911,464.585169 952.534709,469.05916 953.741366,471.581108 L953.741366,471.581108 C956.448824,477.286825 958.979128,482.606479 965.929942,483.109532 L965.929942,483.109532 C965.933285,483.111203 965.938299,483.111203 965.941641,483.111203 L965.941641,483.111203 L965.933285,483.111203 L965.933285,483.111203 C965.981752,483.114546 966.025205,483.117888 966.061973,483.119559 L966.061973,483.119559 C966.043589,483.117888 966.025205,483.117888 966.006821,483.116217 L966.006821,483.116217 C971.486917,483.50228 976.09461,483.935139 981.456046,484.224269 L981.456046,484.224269 C982.652675,482.708427 983.164084,480.983676 982.986929,479.051687 L982.986929,479.051687 C983.240963,474.861812 986.015272,474.990499 987.663144,471.800044 L987.663144,471.800044 C988.000741,468.659727 992.449663,464.153981 991.146072,462.658194 L991.146072,462.658194 C985.241473,455.886206 990.500962,453.289051 992.539912,447.190585 L992.539912,447.190585 C991.707619,445.801759 986.586846,440.203003 985.206377,439.496056 L985.206377,439.496056 C984.964042,439.372382 984.721708,439.313887 984.482717,439.313887 L984.482717,439.313887 C981.791971,439.313887 979.360272,446.577229 977.683988,447.855751 M897.195599,446.522077 C897.473029,451.470709 902.87959,453.218858 905.618802,456.501233 L905.618802,456.501233 C908.745749,460.278305 910.473843,463.23144 912.932282,467.371177 L912.932282,467.371177 C918.477558,476.564836 925.408317,486.288288 934.444876,492.645802 L934.444876,492.645802 C934.757404,492.645802 935.081631,492.650815 935.402514,492.655829 L935.402514,492.655829 C936.732846,492.675884 938.068191,492.699282 938.878757,492.207929 L938.878757,492.207929 C941.890387,489.465374 937.877666,484.42315 941.98732,481.815968 L941.98732,481.815968 C944.158301,480.438841 942.488702,476.103566 940.207417,475.792709 L940.207417,475.792709 C939.396851,475.689091 938.957307,476.140334 938.547846,476.591577 L938.547846,476.591577 C938.103288,477.08293 937.693826,477.575955 936.879918,477.348662 L936.879918,477.348662 C935.928965,477.198248 931.60873,472.384989 931.336313,471.357157 L931.336313,471.357157 C929.105167,462.38912 922.563814,464.130584 916.911577,457.669452 L916.911577,457.669452 C915.049782,455.540253 904.738043,445.61792 899.391648,445.616248 L899.391648,445.616248 C898.500861,445.616248 897.748789,445.892008 897.195599,446.522077 M1001.62828,464.043677 C999.519138,464.259271 997.490215,466.154492 997.416679,468.029658 L997.416679,468.029658 C1000.09071,468.972254 1014.69762,469.03242 1014.93327,465.15173 L1014.93327,465.15173 C1013.32885,464.24423 1008.37854,463.926688 1004.80202,463.926688 L1004.80202,463.926688 C1003.47504,463.926688 1002.3369,463.970142 1001.62828,464.043677 M1001.81045,464.025293 C1001.95084,464.010252 1002.05278,464.000224 1002.05278,464.000224 L1002.05278,464.000224 C1002.05278,464.000224 1001.98259,464.006909 1001.81045,464.025293 M1001.50795,464.055376 C1001.29737,464.077103 1001.08846,464.098829 1001.00323,464.108857 L1001.00323,464.108857 C1001.07843,464.100501 1001.26896,464.080445 1001.62828,464.043677 L1001.62828,464.043677 C1001.69847,464.036992 1001.75864,464.030307 1001.81045,464.025293 L1001.81045,464.025293 C1001.7202,464.03365 1001.61324,464.045349 1001.50795,464.055376 M1000.99654,464.108857 L1001.00323,464.108857 L1001.00323,464.108857 L1000.99654,464.108857 M1000.98818,464.108857 L1000.99654,464.108857 L1000.99654,464.108857 L1000.98818,464.108857 M1000.98317,464.110528 C1000.98484,464.110528 1000.98651,464.110528 1000.98818,464.108857 L1000.98818,464.108857 C1000.98651,464.110528 1000.98484,464.110528 1000.98317,464.110528 M1000.97481,464.110528 L1000.98317,464.110528 L1000.98317,464.110528 L1000.97481,464.110528 M1000.9698,464.1122 C1000.97147,464.1122 1000.97314,464.110528 1000.97481,464.110528 L1000.97481,464.110528 C1000.97314,464.110528 1000.97147,464.1122 1000.9698,464.1122 M1000.9698,464.1122 C1000.96312,464.1122 1000.96144,464.1122 1000.9698,464.1122 M1045.18995,471.225127 C1042.85017,474.718082 1046.88629,479.151963 1048.19991,482.001479 L1048.19991,482.001479 C1049.45503,484.734007 1079.01646,491.790111 1069.73256,498.961533 L1069.73256,498.961533 C1064.2324,503.211574 1068.79999,504.500123 1073.32077,503.014364 L1073.32077,503.014364 C1076.19202,502.070096 1077.23656,503.590952 1079.15852,505.444391 L1079.15852,505.444391 C1081.03369,507.252706 1083.17291,507.147416 1085.41409,507.042126 L1085.41409,507.042126 C1086.3734,506.997002 1087.35276,506.951877 1088.33881,507.057167 L1088.33881,507.057167 C1092.97659,504.433273 1094.56262,497.022859 1101.19422,503.067845 L1101.19422,503.067845 C1106.6175,508.019819 1104.75904,509.975206 1112.72933,511.718341 L1112.72933,511.718341 C1126.80143,514.791808 1105.8086,502.591533 1106.076,498.413356 L1106.076,498.413356 C1106.31667,494.547707 1110.40125,494.567763 1104.07549,492.079241 L1104.07549,492.079241 C1099.94746,490.453095 1098.97812,485.810305 1094.00776,483.995305 L1094.00776,483.995305 C1088.1767,481.866107 1073.46785,474.03119 1067.54152,476.068469 L1067.54152,476.068469 C1064.80565,477.006052 1061.76561,482.223758 1059.06316,482.001479 L1059.06316,482.001479 C1054.15297,481.610402 1056.21532,474.851784 1053.96412,472.739298 L1053.96412,472.739298 C1052.65384,471.509243 1050.10014,469.774464 1047.91245,469.774464 L1047.91245,469.774464 C1046.86122,469.774464 1045.89355,470.173898 1045.18995,471.225127 M995.003365,474.703041 C994.949884,476.406066 994.381652,477.920237 993.307025,479.242212 L993.307025,479.242212 C991.24802,482.451051 994.64237,482.696728 995.200575,485.557943 L995.200575,485.557943 C998.222232,500.89185 995.932591,482.42264 1000.51856,481.563607 L1000.51856,481.563607 C1002.30515,484.371341 1004.7101,492.39344 1009.17073,491.536078 L1009.17073,491.536078 C1010.18017,490.780664 1009.74898,488.569573 1009.83756,486.878247 L1009.83756,486.878247 C1007.73845,484.326217 1007.02147,480.387032 1005.17806,477.574284 L1005.17806,477.574284 C1006.34294,475.207765 1010.53114,474.868497 1010.27878,471.800044 L1010.27878,471.800044 C1008.37854,471.444063 1006.63039,472.114243 1005.0243,472.782751 L1005.0243,472.782751 C1003.46835,473.431204 1002.0461,474.079657 1000.74251,473.798884 L1000.74251,473.798884 C999.006058,473.432875 997.583806,471.519271 996.534248,471.519271 L996.534248,471.519271 C995.869083,471.519271 995.354331,472.286384 995.003365,474.703041 M948.476864,485.603067 C954.117402,485.603067 954.117402,476.848952 948.476864,476.848952 L948.476864,476.848952 C942.832983,476.848952 942.832983,485.603067 948.476864,485.603067 M645.239865,479.006563 C644.912296,479.100154 644.85213,479.190402 645.823139,479.126894 L645.823139,479.126894 C645.83818,479.126894 645.85155,479.125223 645.866592,479.125223 L645.866592,479.125223 C645.868263,479.125223 645.869934,479.123552 645.871605,479.123552 L645.871605,479.123552 C645.900017,479.12188 645.926757,479.120209 645.955169,479.118538 L645.955169,479.118538 C646.045418,479.078427 646.137337,479.031632 646.229257,478.97648 L646.229257,478.97648 C646.342904,478.896259 646.277724,478.866176 646.130652,478.866176 L646.130652,478.866176 C645.908373,478.866176 645.493898,478.936369 645.239865,479.006563 M965.889832,483.107861 C965.776185,483.099504 965.682594,483.092819 965.680923,483.092819 L965.680923,483.092819 C965.680923,483.092819 965.739417,483.097833 965.889832,483.107861 M965.933285,483.111203 C965.931614,483.111203 965.931614,483.111203 965.929942,483.109532 L965.929942,483.109532 C965.916572,483.109532 965.903202,483.107861 965.889832,483.107861 L965.889832,483.107861 C965.904873,483.107861 965.919915,483.109532 965.933285,483.111203 M966.061973,483.119559 C966.292608,483.136272 966.471434,483.149642 966.061973,483.119559 M630.65803,488.653136 C630.524328,488.952294 630.419038,489.268164 630.337146,489.595733 L630.337146,489.595733 C630.539369,489.152846 630.738251,488.653136 630.65803,488.653136 L630.65803,488.653136 L630.65803,488.653136 M1122.03497,489.98681 C1120.00604,491.649724 1111.38563,489.687653 1111.84022,492.874766 L1111.84022,492.874766 C1112.51374,497.699724 1122.72687,495.418439 1123.1497,490.428026 L1123.1497,490.428026 C1122.78871,490.347805 1122.75027,489.9467 1122.30906,489.9467 L1122.30906,489.9467 C1122.23218,489.9467 1122.14193,489.958398 1122.03497,489.98681 M1111.76167,492.326589 C1111.82518,492.78786 1111.89203,493.247459 1111.84022,492.874766 L1111.84022,492.874766 C1111.70986,491.953896 1111.66473,491.641368 1111.66306,491.641368 L1111.66306,491.641368 C1111.66306,491.641368 1111.71153,491.983978 1111.76167,492.326589 M948.191077,501.072348 C953.099598,501.821077 973.049555,507.70562 976.794872,503.73301 L976.794872,503.73301 C975.442814,501.100759 971.191102,501.353121 968.59729,499.97098 L968.59729,499.97098 C968.582249,498.834516 969.033492,498.241215 968.366655,497.520898 L968.366655,497.520898 C960.200827,498.498591 953.226615,494.918729 945.503674,493.810677 L945.503674,493.810677 C946.351008,493.920981 947.016173,494.007887 945.085856,493.753854 L945.085856,493.753854 C943.984489,493.611796 944.178356,493.638536 944.701464,493.707058 L944.701464,493.707058 C943.902596,493.615138 943.207348,493.573357 942.609033,493.573357 L942.609033,493.573357 C935.136782,493.571685 942.57895,500.204958 948.191077,501.072348 M984.780203,503.510731 C984.25041,503.560869 983.677164,503.48232 983.120631,503.40377 L983.120631,503.40377 C981.924001,503.236643 980.797565,503.067845 980.344651,504.174226 L980.344651,504.174226 C980.814278,506.084488 983.139015,506.111228 985.445368,506.168051 L985.445368,506.168051 C986.153987,505.320717 987.504374,505.340773 988.811307,505.36417 L988.811307,505.36417 C990.084815,505.385897 991.318213,505.405952 991.874746,504.617112 L991.874746,504.617112 C991.555533,503.16645 990.631321,502.746961 989.466445,502.746961 L989.466445,502.746961 C988.040852,502.746961 986.254263,503.37703 984.780203,503.510731 M996.315312,504.174226 C996.699704,505.715137 1001.25893,506.524032 1002.07451,504.842734 L1002.07451,504.842734 C1001.85557,503.74638 1000.21271,503.109626 998.72027,503.109626 L998.72027,503.109626 C997.64063,503.107955 996.64121,503.442209 996.315312,504.174226 M1009.97795,509.746242 C1009.92614,509.417001 1009.83088,509.37522 1009.83756,510.605275 L1009.83756,510.605275 C1010.23031,510.805827 1010.51944,511.101642 1010.72835,511.494391 L1010.72835,511.494391 C1012.97119,511.283811 1022.94199,506.193121 1023.80771,503.73301 L1023.80771,503.73301 C1023.43335,503.604322 1022.95035,503.542485 1022.38713,503.542485 L1022.38713,503.542485 C1018.55825,503.542485 1011.09269,506.360248 1009.97795,509.746242 M993.559387,507.856035 C993.455768,507.837651 993.2736,507.973024 992.989484,508.392513 L992.989484,508.392513 C992.992826,508.405883 992.99784,508.419253 993.001183,508.430952 L993.001183,508.430952 L993.001183,508.432623 L993.001183,508.432623 C993.004525,508.442651 993.007868,508.452678 993.01121,508.464377 L993.01121,508.464377 C993.547688,510.117264 995.319235,510.521711 996.980478,511.053175 L996.980478,511.053175 C997.306375,510.787443 997.60219,510.489957 997.859566,510.160717 L997.859566,510.160717 C997.821127,508.733452 996.131472,507.57359 994.670782,507.57359 L994.670782,507.57359 C994.269677,507.57359 993.885285,507.662167 993.559387,507.856035 M1071.93195,541.654139 C1067.26409,541.52378 1050.77533,530.097303 1059.73167,526.575936 L1059.73167,526.575936 C1060.49377,525.310784 1062.87868,518.692553 1060.56062,518.291448 L1060.56062,518.291448 C1058.86261,518.433506 1057.18131,518.680854 1055.51339,519.03015 L1055.51339,519.03015 C1051.48228,518.908147 1048.52915,515.508783 1044.64846,515.263106 L1044.64846,515.263106 C1043.60391,516.13718 1044.9309,516.969473 1044.64846,518.369998 L1044.64846,518.369998 C1042.8134,519.521503 1040.81958,519.890854 1038.66531,519.479721 L1038.66531,519.479721 C1035.78905,520.179984 1034.62919,523.335343 1033.12505,525.466212 L1033.12505,525.466212 C1029.37973,530.720687 1027.9157,529.164734 1025.69792,527.608781 L1025.69792,527.608781 C1024.30241,526.629417 1022.60774,525.650052 1019.8585,526.368699 L1019.8585,526.368699 C1013.57619,528.011558 1012.53332,534.125065 1007.49778,536.596874 L1007.49778,536.596874 C1005.13628,537.758407 1001.8422,536.590189 1000.83944,539.718808 L1000.83944,539.718808 C999.728046,543.183352 998.808848,545.255727 996.066293,547.784359 L996.066293,547.784359 C989.668669,553.683944 964.285412,552.333558 962.590744,563.156706 L962.590744,563.156706 C962.251476,565.3327 960.702208,575.445558 959.569087,576.272837 L959.569087,576.272837 C957.281117,577.945779 959.894984,590.981689 959.722843,593.986634 L959.722843,593.986634 C959.672705,594.897476 959.691089,594.569907 959.712816,594.167131 L959.712816,594.167131 C959.517277,598.632766 961.141752,600.899008 958.175247,605.292779 L958.175247,605.292779 C955.029916,609.908828 954.099018,609.196867 958.843755,613.273096 L958.843755,613.273096 C966.138851,614.361093 971.042359,608.506632 978.177013,608.434767 L978.177013,608.434767 C979.295093,608.423068 980.314568,608.479892 981.272206,608.538386 L981.272206,608.538386 C984.402496,608.723897 986.852578,608.911079 989.889277,606.705002 L989.889277,606.705002 C994.662425,603.245472 998.177107,602.496743 1003.84773,601.971964 L1003.84773,601.971964 C1010.56791,601.325182 1015.85915,597.15202 1022.84673,599.521882 L1022.84673,599.521882 C1025.45391,600.405984 1027.904,601.11126 1029.45494,603.516218 L1029.45494,603.516218 C1030.14684,604.589174 1031.89165,611.745554 1032.45988,611.944435 L1032.45988,611.944435 C1034.27154,612.270333 1039.55609,608.133939 1041.54825,607.286604 L1041.54825,607.286604 C1038.39456,611.207405 1044.0117,614.934338 1044.20724,618.372142 L1044.20724,618.372142 C1044.67185,626.146893 1044.38941,624.388716 1051.92015,627.975263 L1051.92015,627.975263 C1052.78086,628.384724 1065.14158,628.912845 1065.78,628.528453 L1065.78,628.528453 C1070.39104,625.747459 1078.68054,625.939655 1081.73395,621.753122 L1081.73395,621.753122 C1089.00231,611.789007 1101.0037,605.580237 1107.18071,595.091343 L1107.18071,595.091343 C1108.89711,592.183333 1111.49928,589.62796 1112.72933,586.44419 L1112.72933,586.44419 C1114.00618,583.155129 1113.22236,579.812588 1114.7031,576.503472 L1114.7031,576.503472 C1116.32089,572.8835 1110.27925,565.013487 1108.51272,561.828046 L1108.51272,561.828046 C1107.81914,560.579607 1105.89718,560.432535 1105.18856,558.950118 L1105.18856,558.950118 C1104.69219,557.923958 1103.82815,553.95469 1103.85322,552.748033 L1103.85322,552.748033 C1099.07338,546.367122 1096.99933,548.630022 1095.65563,539.653628 L1095.65563,539.653628 C1094.62446,532.786377 1094.0579,530.857731 1089.00398,527.022165 L1089.00398,527.022165 C1089.44185,522.412801 1088.53769,516.957774 1085.8904,514.155053 L1085.8904,514.155053 C1077.397,517.614583 1082.47766,541.913186 1071.93195,541.654139 M650.614671,514.818548 C650.502696,515.029128 650.38905,515.271462 650.280417,515.538865 L650.280417,515.538865 C650.417461,515.319929 650.69155,514.818548 650.614671,514.818548 L650.614671,514.818548 L650.614671,514.818548 M1036.45087,516.814045 C1036.78847,518.005661 1040.00232,518.217912 1039.77837,516.376172 L1039.77837,516.376172 C1039.60958,515.766158 1038.99622,515.495412 1038.34108,515.495412 L1038.34108,515.495412 C1037.45197,515.495412 1036.48764,515.993451 1036.45087,516.814045 M709.376544,520.368837 C705.850163,523.256793 704.595039,528.715162 700.670895,531.506184 L700.670895,531.506184 C697.69102,533.627027 693.812001,533.556833 690.970841,535.660963 L690.970841,535.660963 C686.008839,539.374526 689.438286,545.066873 689.199294,549.791555 L689.199294,549.791555 C689.237734,549.13976 689.262803,548.69353 689.195952,549.856735 L689.195952,549.856735 C689.149156,550.657273 689.130772,550.983171 689.12743,551.029967 L689.12743,551.029967 C689.130772,550.973144 689.157513,550.530257 689.182582,550.08737 L689.182582,550.08737 C689.185924,550.038903 689.187595,549.990436 689.190938,549.94197 L689.190938,549.94197 C688.783148,556.34795 684.078521,558.198046 685.203286,565.601775 L685.203286,565.601775 C686.252844,572.453984 690.422664,576.31629 697.400219,572.474039 L697.400219,572.474039 C701.051945,570.455144 704.167193,558.960145 705.407276,555.084469 L705.407276,555.084469 C706.62229,551.292356 708.086323,547.70581 709.525287,543.99726 L709.525287,543.99726 C710.730273,541.121004 711.420507,538.124416 711.59432,535.007496 L711.59432,535.007496 C712.774237,534.088297 713.735217,532.975231 714.472247,531.669969 L714.472247,531.669969 C714.863325,529.587566 713.183698,520.221765 710.065107,520.220094 L710.065107,520.220094 C709.842828,520.220094 709.613864,520.268561 709.376544,520.368837 M689.12743,551.029967 L689.12743,551.034981 L689.12743,551.034981 L689.12743,551.029967 M689.190938,549.94197 C689.192609,549.913558 689.19428,549.885146 689.195952,549.856735 L689.195952,549.856735 C689.197623,549.835008 689.197623,549.813282 689.199294,549.791555 L689.199294,549.791555 C689.195952,549.840022 689.19428,549.891831 689.190938,549.94197 M1174.49281,613.827957 C1172.98031,617.407819 1175.64264,620.574877 1173.35969,624.377017 L1173.35969,624.377017 C1171.58145,627.341851 1168.45451,628.815912 1165.94927,631.011961 L1165.94927,631.011961 C1165.89746,632.613038 1167.26958,632.78685 1167.2796,634.33779 L1167.2796,634.33779 C1166.63115,636.431892 1163.87021,636.40348 1163.72481,638.995621 L1163.72481,638.995621 C1166.79995,641.400579 1184.96666,627.557445 1186.12151,624.806534 L1186.12151,624.806534 C1185.05691,623.783716 1183.38062,624.823246 1182.08038,625.005415 L1182.08038,625.005415 C1182.03525,625.0121 1181.97843,625.018785 1181.90656,625.02547 L1181.90656,625.02547 C1180.89879,624.798177 1181.0843,624.756395 1181.45866,624.78815 L1181.45866,624.78815 C1179.32946,623.053371 1176.99971,613.007364 1175.26493,613.009035 L1175.26493,613.009035 C1174.99252,613.009035 1174.73347,613.258054 1174.49281,613.827957 M1181.90656,625.02547 C1181.96339,625.020456 1182.02188,625.013771 1182.08038,625.005415 L1182.08038,625.005415 C1182.48482,624.940235 1181.86311,624.821575 1181.45866,624.78815 L1181.45866,624.78815 C1181.60908,624.910152 1181.75949,624.992045 1181.90656,625.02547 M1155.07933,636.560579 C1154.30887,637.04859 1154.06654,637.202347 1154.09161,637.185635 L1154.09161,637.185635 C1145.79542,642.423396 1138.81787,646.528037 1129.58911,650.353575 L1129.58911,650.353575 C1126.65603,651.57026 1111.10319,658.023036 1121.47342,660.270895 L1121.47342,660.270895 C1129.72448,662.062497 1134.8369,653.577456 1141.33313,650.524045 L1141.33313,650.524045 C1146.8032,647.948617 1158.15447,645.07236 1160.39898,638.328784 L1160.39898,638.328784 C1159.08369,638.106505 1157.19516,636.361698 1155.7963,636.361698 L1155.7963,636.361698 C1155.53726,636.361698 1155.29659,636.420193 1155.07933,636.560579 M1154.72836,636.779516 C1154.42252,636.973383 1154.11668,637.167251 1154.09161,637.185635 L1154.09161,637.185635 C1154.41751,636.978397 1154.74842,636.769488 1155.07933,636.560579 L1155.07933,636.560579 C1155.28991,636.425206 1155.37347,636.371726 1155.3718,636.371726 L1155.3718,636.371726 C1155.37013,636.371726 1155.04925,636.575621 1154.72836,636.779516 M1051.52072,638.552734 C1050.61322,640.367734 1048.32525,645.994902 1050.78536,647.512415 L1050.78536,647.512415 C1056.02479,650.746324 1063.40847,641.955441 1064.38282,637.885897 L1064.38282,637.885897 C1063.14942,636.953328 1061.78566,637.282568 1060.335,637.611809 L1060.335,637.611809 C1059.35564,637.834087 1058.33449,638.056366 1057.28828,637.885897 L1057.28828,637.885897 C1055.9663,637.671974 1054.73625,636.926588 1053.64491,636.926588 L1053.64491,636.926588 C1052.86108,636.926588 1052.14912,637.31098 1051.52072,638.552734" id="wmap"></path>
            </g>
        </g>
    </g>
</svg>