<?xml version="1.0" encoding="UTF-8" standalone="no"?>
<svg width="21px" height="25px" viewBox="0 0 21 25" version="1.1" xmlns="http://www.w3.org/2000/svg" xmlns:xlink="http://www.w3.org/1999/xlink">
    <!-- Generator: Sketch 3.7 (28169) - http://www.bohemiancoding.com/sketch -->
    <title>icon-axis5</title>
    <desc>Created with Sketch.</desc>
    <defs></defs>
    <g id="Symbols" stroke="none" stroke-width="1" fill="none" fill-rule="evenodd">
        <g id="Flex---2---Project-Details" transform="translate(-26.000000, -353.000000)" fill="#FEFEFE">
            <g id="Overview">
                <g transform="translate(10.000000, 87.000000)">
                    <g id="icon-axis5" transform="translate(16.000000, 266.000000)">
                        <path d="M5.6846,0.8789 C6.9886,0.8789 8.0446,1.9359 8.0446,3.2379 C8.0446,4.5409 6.9886,5.5989 5.6846,5.5989 C4.3816,5.5989 3.3246,4.5409 3.3246,3.2379 C3.3246,1.9359 4.3816,0.8789 5.6846,0.8789" id="Fill-14"></path>
                        <path d="M10.8774,0.8789 C12.1804,0.8789 13.2374,1.9359 13.2374,3.2379 C13.2374,4.5409 12.1804,5.5989 10.8774,5.5989 C9.5734,5.5989 8.5174,4.5409 8.5174,3.2379 C8.5174,1.9359 9.5734,0.8789 10.8774,0.8789" id="Fill-16"></path>
                        <path d="M16.0693,0.8789 C17.3733,0.8789 18.4293,1.9359 18.4293,3.2379 C18.4293,4.5409 17.3733,5.5989 16.0693,5.5989 C14.7653,5.5989 13.7093,4.5409 13.7093,3.2379 C13.7093,1.9359 14.7653,0.8789 16.0693,0.8789" id="Fill-18"></path>
                        <path d="M18.4297,6.0703 C19.7327,6.0703 20.7897,7.1273 20.7897,8.4303 L20.7897,13.7883 C20.7897,15.0913 19.7327,16.1483 18.4297,16.1483 L18.4297,24.9523 L13.8127,24.9523 L13.8127,16.1473 L13.1337,16.1473 L13.1337,24.9523 L8.6207,24.9523 L8.6207,16.1473 L7.9407,16.1473 L7.9407,24.9523 L3.3247,24.9523 L3.3247,16.1473 C2.0207,16.1473 0.9647,15.0913 0.9647,13.7883 L0.9647,8.4303 C0.9647,7.1273 2.0207,6.0703 3.3247,6.0703 L18.4297,6.0703 Z" id="Fill-20"></path>
                    </g>
                </g>
            </g>
        </g>
    </g>
</svg>