<?xml version="1.0" encoding="UTF-8" standalone="no"?>
<svg width="33px" height="20px" viewBox="0 0 33 20" version="1.1" xmlns="http://www.w3.org/2000/svg" xmlns:xlink="http://www.w3.org/1999/xlink">
    <!-- Generator: Sketch 3.7 (28169) - http://www.bohemiancoding.com/sketch -->
    <title>icon-axis2</title>
    <desc>Created with Sketch.</desc>
    <defs></defs>
    <g id="Symbols" stroke="none" stroke-width="1" fill="none" fill-rule="evenodd">
        <g id="Flex---2---Project-Details" transform="translate(-20.000000, -170.000000)">
            <g id="Overview">
                <g transform="translate(10.000000, 87.000000)">
                    <g id="icon-axis2" transform="translate(10.000000, 83.000000)">
                        <path d="M9.4375,9.9847 L9.4215,9.9677 C9.2265,9.7777 8.9675,9.6727 8.6935,9.6727 C8.4095,9.6727 8.1445,9.7837 7.9485,9.9847 L6.2275,11.7317 C5.8265,12.1417 5.8335,12.8027 6.2445,13.2037 L6.2615,13.2197 C6.4565,13.4107 6.7145,13.5147 6.9895,13.5147 C7.2725,13.5147 7.5375,13.4047 7.7335,13.2037 L9.4545,11.4567 C9.8555,11.0467 9.8485,10.3847 9.4375,9.9847" id="Fill-5" fill="#FEFEFE"></path>
                        <path d="M9.4375,9.9847 L9.4215,9.9677 C9.2265,9.7777 8.9675,9.6727 8.6935,9.6727 C8.4095,9.6727 8.1445,9.7837 7.9485,9.9847 L6.2275,11.7317 C5.8265,12.1417 5.8335,12.8027 6.2445,13.2037 L6.2615,13.2197 C6.4565,13.4107 6.7145,13.5147 6.9895,13.5147 C7.2725,13.5147 7.5375,13.4047 7.7335,13.2037 L9.4545,11.4567 C9.8555,11.0467 9.8485,10.3847 9.4375,9.9847 L9.4375,9.9847 Z" id="Stroke-7" stroke="#FEFEFE" stroke-width="0.194"></path>
                        <path d="M12.1074,11.9515 L12.0904,11.9355 C11.8954,11.7455 11.6374,11.6395 11.3634,11.6395 C11.0784,11.6395 10.8144,11.7505 10.6174,11.9515 L8.8974,13.6995 C8.4964,14.1095 8.5034,14.7705 8.9144,15.1725 L8.9314,15.1875 C9.1254,15.3785 9.3844,15.4835 9.6594,15.4835 C9.9424,15.4835 10.2074,15.3725 10.4044,15.1725 L12.1244,13.4245 C12.5254,13.0145 12.5184,12.3525 12.1074,11.9515" id="Fill-9" fill="#FEFEFE"></path>
                        <path d="M12.1074,11.9515 L12.0904,11.9355 C11.8954,11.7455 11.6374,11.6395 11.3634,11.6395 C11.0784,11.6395 10.8144,11.7505 10.6174,11.9515 L8.8974,13.6995 C8.4964,14.1095 8.5034,14.7705 8.9144,15.1725 L8.9314,15.1875 C9.1254,15.3785 9.3844,15.4835 9.6594,15.4835 C9.9424,15.4835 10.2074,15.3725 10.4044,15.1725 L12.1244,13.4245 C12.5254,13.0145 12.5184,12.3525 12.1074,11.9515 L12.1074,11.9515 Z" id="Stroke-11" stroke="#FEFEFE" stroke-width="0.194"></path>
                        <path d="M14.9497,13.6859 L14.9327,13.6679 C14.7377,13.4789 14.4797,13.3739 14.2047,13.3739 C13.9207,13.3739 13.6567,13.4849 13.4597,13.6859 L11.7387,15.4329 C11.3377,15.8429 11.3457,16.5029 11.7557,16.9049 L11.7727,16.9209 C11.9677,17.1119 12.2257,17.2159 12.5007,17.2159 C12.7847,17.2159 13.0487,17.1069 13.2457,16.9049 L14.9667,15.1579 C15.3677,14.7479 15.3597,14.0859 14.9497,13.6859" id="Fill-13" fill="#FEFEFE"></path>
                        <path d="M14.9497,13.6859 L14.9327,13.6679 C14.7377,13.4789 14.4797,13.3739 14.2047,13.3739 C13.9207,13.3739 13.6567,13.4849 13.4597,13.6859 L11.7387,15.4329 C11.3377,15.8429 11.3457,16.5029 11.7557,16.9049 L11.7727,16.9209 C11.9677,17.1119 12.2257,17.2159 12.5007,17.2159 C12.7847,17.2159 13.0487,17.1069 13.2457,16.9049 L14.9667,15.1579 C15.3677,14.7479 15.3597,14.0859 14.9497,13.6859 L14.9497,13.6859 Z" id="Stroke-15" stroke="#FEFEFE" stroke-width="0.194"></path>
                        <path d="M17.6187,15.5746 L17.6017,15.5566 C17.4077,15.3676 17.1487,15.2626 16.8737,15.2626 C16.5897,15.2626 16.3257,15.3746 16.1287,15.5756 L14.4087,17.3226 C14.0067,17.7326 14.0147,18.3926 14.4257,18.7946 L14.4427,18.8096 C14.6367,19.0006 14.8957,19.1066 15.1697,19.1066 C15.4537,19.1066 15.7187,18.9956 15.9157,18.7936 L17.6357,17.0466 C18.0377,16.6366 18.0287,15.9756 17.6187,15.5746" id="Fill-17" fill="#FEFEFE"></path>
                        <path d="M17.6187,15.5746 L17.6017,15.5566 C17.4077,15.3676 17.1487,15.2626 16.8737,15.2626 C16.5897,15.2626 16.3257,15.3746 16.1287,15.5756 L14.4087,17.3226 C14.0067,17.7326 14.0147,18.3926 14.4257,18.7946 L14.4427,18.8096 C14.6367,19.0006 14.8957,19.1066 15.1697,19.1066 C15.4537,19.1066 15.7187,18.9956 15.9157,18.7936 L17.6357,17.0466 C18.0377,16.6366 18.0287,15.9756 17.6187,15.5746 L17.6187,15.5746 Z" id="Stroke-19" stroke="#FEFEFE" stroke-width="0.194"></path>
                        <path d="M27.3159,12.5511 C26.8789,10.8121 22.3199,6.8411 20.0649,5.5121 L16.3659,8.5831 L16.3389,8.6051 C15.8759,9.0031 15.2839,9.2221 14.6729,9.2221 C14.5969,9.2221 14.5209,9.2191 14.4439,9.2121 C13.7719,9.1531 13.1599,8.8391 12.7219,8.3291 L12.6949,8.2981 C12.4599,8.0251 12.3059,7.7561 12.2019,7.4681 C12.2019,7.4681 12.1509,7.2861 12.1379,7.2041 C12.0549,6.6801 12.0949,6.3081 12.1749,6.0031 L12.2989,5.6101 L12.4319,5.3341 C12.5669,5.1031 12.7309,4.8861 12.9439,4.7031 L17.0339,0.8181 C16.7709,0.6291 16.3359,0.5301 15.7129,0.5301 C13.7839,0.5301 10.8629,1.4621 10.6999,1.5151 C10.4799,1.6131 10.1609,1.6621 9.7519,1.6621 C9.2899,1.6621 5.6419,1.0991 2.9899,0.6791 C1.6929,2.8401 0.8889,5.3311 0.7309,7.9961 C2.3299,8.8171 5.0849,10.7081 5.4769,11.1501 L7.6299,9.0021 C7.7909,8.8641 8.2379,8.5931 8.6699,8.5961 C10.2279,8.6091 10.6639,10.0341 10.7629,10.4921 C10.8909,10.4791 11.0159,10.4731 11.1359,10.4731 C12.9789,10.4731 13.3629,11.9491 13.4409,12.4531 C13.6979,12.4021 13.9419,12.3761 14.1689,12.3761 C15.8589,12.3761 16.2489,13.7951 16.3319,14.2731 C17.2219,14.1381 17.9059,14.3291 18.3649,14.8341 C19.6239,16.0541 18.6799,17.3381 18.5639,17.4601 L16.4629,19.5881 C16.8129,19.7751 17.1459,19.8681 17.4559,19.8681 C18.6969,19.8681 19.2369,18.3401 19.2429,18.3251 L19.2819,18.2101 L19.4009,18.2321 C19.6079,18.2681 19.8059,18.2871 19.9889,18.2871 C21.6649,18.2871 21.7519,16.7041 21.7539,16.6371 L21.7609,16.4621 L21.9309,16.5061 C22.2679,16.5931 22.5829,16.6371 22.8669,16.6371 C24.6129,16.6371 24.7879,14.9921 24.7939,14.9221 L24.8089,14.7691 L24.9609,14.7961 C25.2199,14.8451 25.4619,14.8701 25.6799,14.8701 C26.2639,14.8701 26.7029,14.6961 26.9819,14.3541 C27.5219,13.6951 27.3279,12.6131 27.3159,12.5511" id="Fill-21" fill="#FEFEFE"></path>
                        <path d="M27.3159,12.5511 C26.8789,10.8121 22.3199,6.8411 20.0649,5.5121 L16.3659,8.5831 L16.3389,8.6051 C15.8759,9.0031 15.2839,9.2221 14.6729,9.2221 C14.5969,9.2221 14.5209,9.2191 14.4439,9.2121 C13.7719,9.1531 13.1599,8.8391 12.7219,8.3291 L12.6949,8.2981 C12.4599,8.0251 12.3059,7.7561 12.2019,7.4681 C12.2019,7.4681 12.1509,7.2861 12.1379,7.2041 C12.0549,6.6801 12.0949,6.3081 12.1749,6.0031 L12.2989,5.6101 L12.4319,5.3341 C12.5669,5.1031 12.7309,4.8861 12.9439,4.7031 L17.0339,0.8181 C16.7709,0.6291 16.3359,0.5301 15.7129,0.5301 C13.7839,0.5301 10.8629,1.4621 10.6999,1.5151 C10.4799,1.6131 10.1609,1.6621 9.7519,1.6621 C9.2899,1.6621 5.6419,1.0991 2.9899,0.6791 C1.6929,2.8401 0.8889,5.3311 0.7309,7.9961 C2.3299,8.8171 5.0849,10.7081 5.4769,11.1501 L7.6299,9.0021 C7.7909,8.8641 8.2379,8.5931 8.6699,8.5961 C10.2279,8.6091 10.6639,10.0341 10.7629,10.4921 C10.8909,10.4791 11.0159,10.4731 11.1359,10.4731 C12.9789,10.4731 13.3629,11.9491 13.4409,12.4531 C13.6979,12.4021 13.9419,12.3761 14.1689,12.3761 C15.8589,12.3761 16.2489,13.7951 16.3319,14.2731 C17.2219,14.1381 17.9059,14.3291 18.3649,14.8341 C19.6239,16.0541 18.6799,17.3381 18.5639,17.4601 L16.4629,19.5881 C16.8129,19.7751 17.1459,19.8681 17.4559,19.8681 C18.6969,19.8681 19.2369,18.3401 19.2429,18.3251 L19.2819,18.2101 L19.4009,18.2321 C19.6079,18.2681 19.8059,18.2871 19.9889,18.2871 C21.6649,18.2871 21.7519,16.7041 21.7539,16.6371 L21.7609,16.4621 L21.9309,16.5061 C22.2679,16.5931 22.5829,16.6371 22.8669,16.6371 C24.6129,16.6371 24.7879,14.9921 24.7939,14.9221 L24.8089,14.7691 L24.9609,14.7961 C25.2199,14.8451 25.4619,14.8701 25.6799,14.8701 C26.2639,14.8701 26.7029,14.6961 26.9819,14.3541 C27.5219,13.6951 27.3279,12.6131 27.3159,12.5511 L27.3159,12.5511 Z" id="Stroke-23" stroke="#FEFEFE" stroke-width="0.194"></path>
                        <path d="M30.9453,1.1517 C28.3233,1.4147 26.6843,1.6007 26.1733,1.6007 C25.9253,1.6007 25.6083,1.6247 24.9743,1.4857 C24.8003,1.4407 24.1513,1.2397 23.7173,1.1067 L19.9773,4.1867 C24.0523,6.4547 27.3353,10.4007 27.9753,11.3107 C30.4243,9.7157 32.0733,8.9147 32.8563,8.5987 C32.8273,5.9067 32.1403,3.3737 30.9453,1.1517" id="Fill-25" fill="#FEFEFE"></path>
                        <path d="M30.9453,1.1517 C28.3233,1.4147 26.6843,1.6007 26.1733,1.6007 C25.9253,1.6007 25.6083,1.6247 24.9743,1.4857 C24.8003,1.4407 24.1513,1.2397 23.7173,1.1067 L19.9773,4.1867 C24.0523,6.4547 27.3353,10.4007 27.9753,11.3107 C30.4243,9.7157 32.0733,8.9147 32.8563,8.5987 C32.8273,5.9067 32.1403,3.3737 30.9453,1.1517 L30.9453,1.1517 Z" id="Stroke-27" stroke="#FEFEFE" stroke-width="0.194"></path>
                        <path d="M23.6782,1.0941 C23.5732,1.0611 23.4702,1.0321 23.3682,1.0021 C22.0702,0.6371 20.9352,0.5661 20.0032,0.5811 C18.6572,0.6061 18.0952,1.2701 18.0902,1.2751 L17.7992,1.5371 L17.4662,1.8691 L13.6512,5.4901 C13.3862,5.7181 13.2262,6.0201 13.1632,6.3381 C13.1442,6.4391 13.1342,6.5381 13.1352,6.6401 C13.1372,6.9841 13.2492,7.3281 13.4912,7.6091 L13.5122,7.6351 C13.7692,7.9331 14.1272,8.1151 14.5222,8.1511 C14.5672,8.1551 14.6122,8.1561 14.6562,8.1561 C15.0162,8.1561 15.3582,8.0311 15.6322,7.7951 L16.1132,7.3971 L20.0032,4.1941 L23.7432,1.1141 C23.7212,1.1071 23.6992,1.1001 23.6782,1.0941" id="Fill-29" fill="#FEFEFE"></path>
                        <path d="M23.6782,1.0941 C23.5732,1.0611 23.4702,1.0321 23.3682,1.0021 C22.0702,0.6371 20.9352,0.5661 20.0032,0.5811 C18.6572,0.6061 18.0952,1.2701 18.0902,1.2751 L17.7992,1.5371 L17.4662,1.8691 L13.6512,5.4901 C13.3862,5.7181 13.2262,6.0201 13.1632,6.3381 C13.1442,6.4391 13.1342,6.5381 13.1352,6.6401 C13.1372,6.9841 13.2492,7.3281 13.4912,7.6091 L13.5122,7.6351 C13.7692,7.9331 14.1272,8.1151 14.5222,8.1511 C14.5672,8.1551 14.6122,8.1561 14.6562,8.1561 C15.0162,8.1561 15.3582,8.0311 15.6322,7.7951 L16.1132,7.3971 L20.0032,4.1941 L23.7432,1.1141 C23.7212,1.1071 23.6992,1.1001 23.6782,1.0941 L23.6782,1.0941 Z" id="Stroke-31" stroke="#FEFEFE" stroke-width="0.194"></path>
                    </g>
                </g>
            </g>
        </g>
    </g>
</svg>