<?xml version="1.0" encoding="UTF-8" standalone="no"?>
<svg width="22px" height="25px" viewBox="0 0 22 25" version="1.1" xmlns="http://www.w3.org/2000/svg" xmlns:xlink="http://www.w3.org/1999/xlink">
    <!-- Generator: Sketch 3.7 (28169) - http://www.bohemiancoding.com/sketch -->
    <title>icon-axis4</title>
    <desc>Created with Sketch.</desc>
    <defs></defs>
    <g id="Symbols" stroke="none" stroke-width="1" fill="none" fill-rule="evenodd">
        <g id="Flex---2---Project-Details" transform="translate(-26.000000, -291.000000)" fill="#FEFEFE">
            <g id="Overview">
                <g transform="translate(10.000000, 87.000000)">
                    <g id="icon-axis4" transform="translate(16.000000, 204.000000)">
                        <path d="M0.4888,9.8574 L0.4888,14.1354 C0.4888,15.8264 5.1408,17.1974 10.8848,17.1974 C16.6278,17.1974 21.2798,15.8264 21.2798,14.1354 L21.2798,9.8574 C21.2798,9.8574 18.5528,12.4354 10.8848,12.4354 C2.1988,12.4354 0.4888,9.8574 0.4888,9.8574" id="Fill-8"></path>
                        <path d="M0.4888,15.9287 L0.4888,21.7027 C0.4888,23.3937 5.1408,24.7637 10.8848,24.7637 C16.6278,24.7637 21.2798,23.3937 21.2798,21.7027 L21.2798,15.9287 C21.2798,15.9287 18.5528,18.5077 10.8848,18.5077 C2.1988,18.5067 0.4888,15.9287 0.4888,15.9287 M11.8988,21.5267 C11.8988,22.1347 11.4048,22.6287 10.7958,22.6287 C10.1858,22.6287 9.6918,22.1347 9.6918,21.5267 C9.6918,20.9167 10.1858,20.4227 10.7958,20.4227 C11.4048,20.4227 11.8988,20.9167 11.8988,21.5267" id="Fill-10"></path>
                        <path d="M10.8843,0.7139 C5.1403,0.7139 0.4883,2.0849 0.4883,3.7759 L0.4883,3.8179 C1.1513,4.9859 5.6223,6.2249 9.8443,6.4259 C10.3823,6.4519 10.9103,6.4649 11.4273,6.4669 C11.1133,6.4839 10.7943,6.4959 10.4723,6.5039 C6.9753,7.0069 2.0663,5.9139 0.4883,4.5719 L0.4883,8.0519 C0.4883,9.7429 5.1403,11.1139 10.8843,11.1139 C16.6283,11.1139 21.2803,9.7429 21.2803,8.0519 L21.2803,3.7759 C21.2803,2.0849 16.6283,0.7139 10.8843,0.7139" id="Fill-12"></path>
                    </g>
                </g>
            </g>
        </g>
    </g>
</svg>