<?xml version="1.0" encoding="UTF-8" standalone="no"?>
<svg width="718px" height="266px" viewBox="0 0 718 266" version="1.1" xmlns="http://www.w3.org/2000/svg" xmlns:xlink="http://www.w3.org/1999/xlink">
    <!-- Generator: Sketch 3.8.3 (29802) - http://www.bohemiancoding.com/sketch -->
    <title>squares</title>
    <desc>Created with Sketch.</desc>
    <defs></defs>
    <g id="Dashboard-v2" stroke="none" stroke-width="1" fill="none" fill-rule="evenodd" opacity="0.6">
        <g id="Dashboard---Null-view" transform="translate(-34.000000, -205.000000)">
            <g id="Flex---2---Project-Details-(null)" transform="translate(32.000000, 169.000000)">
                <g id="Flex---2---Project-Details">
                    <g id="squares" transform="translate(-184.000000, -132.000000)">
                        <polygon id="Fill-98" fill="#ECEFF1" points="193.8477 176.8296 187.0357 176.8756 186.9907 170.0636 193.8027 170.0186"></polygon>
                        <polygon id="Fill-99" fill="#ECEFF1" points="204.0664 176.7632 197.2544 176.8072 197.2094 169.9952 204.0194 169.9512"></polygon>
                        <polygon id="Fill-108" fill="#ECEFF1" points="193.9785 196.5112 187.1665 196.5562 187.1215 189.7422 193.9335 189.6982"></polygon>
                        <polygon id="Fill-147" fill="#CFD8DC" points="194.043 206.3491 187.231 206.3941 187.186 199.5821 193.998 199.5371"></polygon>
                        <polygon id="Fill-148" fill="#CFD8DC" points="204.2617 206.2817 197.4497 206.3267 197.4057 199.5147 204.2167 199.4697"></polygon>
                        <polygon id="Fill-162" fill="#ECEFF1" points="635.7568 255.8764 642.5688 255.8304 642.6138 262.6424 635.8028 262.6864"></polygon>
                        <polygon id="Fill-163" fill="#ECEFF1" points="615.3213 256.0107 622.1333 255.9667 622.1783 262.7777 615.3663 262.8227"></polygon>
                        <polygon id="Fill-164" fill="#ECEFF1" points="605.1025 256.0781 611.9145 256.0341 611.9585 262.8451 605.1485 262.8901"></polygon>
                        <polygon id="Fill-165" fill="#ECEFF1" points="584.666 256.2139 591.479 256.1689 591.524 262.9809 584.711 263.0259"></polygon>
                        <polygon id="Fill-166" fill="#ECEFF1" points="543.7939 256.4853 550.6069 256.4403 550.6519 263.2523 543.8399 263.2973"></polygon>
                        <polygon id="Fill-167" fill="#ECEFF1" points="901.3223 244.3462 908.1343 244.3012 908.1783 251.1132 901.3673 251.1572"></polygon>
                        <polygon id="Fill-168" fill="#ECEFF1" points="850.2305 244.6841 857.0425 244.6391 857.0875 251.4511 850.2765 251.4961"></polygon>
                        <polygon id="Fill-169" fill="#ECEFF1" points="829.7949 244.8183 836.6069 244.7733 836.6519 251.5873 829.8399 251.6303"></polygon>
                        <polygon id="Fill-170" fill="#ECEFF1" points="809.3574 244.9546 816.1694 244.9096 816.2134 251.7216 809.4024 251.7666"></polygon>
                        <polygon id="Fill-171" fill="#ECEFF1" points="799.1396 245.0224 805.9516 244.9774 805.9956 251.7904 799.1856 251.8344"></polygon>
                        <polygon id="Fill-172" fill="#ECEFF1" points="768.4863 245.2265 775.2973 245.1805 775.3433 251.9935 768.5303 252.0385"></polygon>
                        <polygon id="Fill-173" fill="#ECEFF1" points="748.0479 245.3613 754.8599 245.3173 754.9049 252.1293 748.0939 252.1753"></polygon>
                        <polygon id="Fill-174" fill="#ECEFF1" points="727.6123 245.4971 734.4243 245.4521 734.4703 252.2651 727.6583 252.3101"></polygon>
                        <polygon id="Fill-175" fill="#ECEFF1" points="707.0791 186.522 713.8921 186.477 713.9381 193.289 707.1251 193.334"></polygon>
                        <polygon id="Fill-176" fill="#ECEFF1" points="696.8623 186.5898 703.6743 186.5458 703.7193 193.3578 696.9073 193.4018"></polygon>
                        <polygon id="Fill-177" fill="#ECEFF1" points="687.0342 245.6958 693.8482 245.6508 693.8932 252.4638 687.0792 252.5078"></polygon>
                        <polygon id="Fill-178" fill="#ECEFF1" points="676.8193 245.7641 683.6293 245.7181 683.6743 252.5311 676.8643 252.5761"></polygon>
                        <polygon id="Fill-179" fill="#ECEFF1" points="666.5996 245.831 673.4116 245.786 673.4556 252.598 666.6446 252.643"></polygon>
                        <polygon id="Fill-180" fill="#ECEFF1" points="635.6914 246.0361 642.5034 245.9921 642.5484 252.8041 635.7364 252.8481"></polygon>
                        <polygon id="Fill-181" fill="#ECEFF1" points="615.2559 246.1723 622.0679 246.1273 622.1129 252.9393 615.3009 252.9843"></polygon>
                        <polygon id="Fill-182" fill="#ECEFF1" points="605.0361 246.2392 611.8491 246.1942 611.8941 253.0072 605.0821 253.0512"></polygon>
                        <polygon id="Fill-183" fill="#ECEFF1" points="584.6006 246.3755 591.4126 246.3305 591.4576 253.1425 584.6466 253.1865"></polygon>
                        <polygon id="Fill-184" fill="#ECEFF1" points="574.3838 246.4433 581.1958 246.3983 581.2408 253.2103 574.4288 253.2553"></polygon>
                        <polygon id="Fill-185" fill="#ECEFF1" points="543.7285 246.647 550.5415 246.601 550.5865 253.413 543.7735 253.459"></polygon>
                        <polygon id="Fill-186" fill="#ECEFF1" points="860.3848 234.7783 867.1958 234.7343 867.2398 241.5443 860.4298 241.5893"></polygon>
                        <polygon id="Fill-187" fill="#ECEFF1" points="850.1641 234.8462 856.9761 234.8002 857.0221 241.6112 850.2111 241.6562"></polygon>
                        <polygon id="Fill-188" fill="#ECEFF1" points="829.7295 234.9805 836.5415 234.9355 836.5855 241.7475 829.7745 241.7925"></polygon>
                        <polygon id="Fill-189" fill="#ECEFF1" points="809.293 235.1167 816.105 235.0717 816.149 241.8837 809.338 241.9277"></polygon>
                        <polygon id="Fill-190" fill="#ECEFF1" points="768.4199 235.3872 775.2339 235.3432 775.2779 242.1552 768.4649 242.2002"></polygon>
                        <polygon id="Fill-191" fill="#ECEFF1" points="747.9824 235.5224 754.7944 235.4774 754.8404 242.2904 748.0274 242.3344"></polygon>
                        <polygon id="Fill-192" fill="#ECEFF1" points="737.7656 235.5913 744.5776 235.5463 744.6226 242.3573 737.8106 242.4023"></polygon>
                        <polygon id="Fill-193" fill="#ECEFF1" points="697.1885 235.7886 704.0005 235.7436 704.0455 242.5556 697.2325 242.6006"></polygon>
                        <polygon id="Fill-194" fill="#ECEFF1" points="686.9687 235.8564 693.7817 235.8114 693.8267 242.6244 687.0147 242.6684"></polygon>
                        <polygon id="Fill-195" fill="#ECEFF1" points="584.5352 236.5351 591.3482 236.4901 591.3932 243.3021 584.5812 243.3471"></polygon>
                        <polygon id="Fill-196" fill="#ECEFF1" points="829.6641 225.1406 836.4761 225.0966 836.5211 231.9076 829.7101 231.9526"></polygon>
                        <polygon id="Fill-197" fill="#ECEFF1" points="819.4453 225.209 826.2573 225.164 826.3043 231.976 819.4903 232.021"></polygon>
                        <polygon id="Fill-198" fill="#ECEFF1" points="809.2266 225.2764 816.0386 225.2314 816.0826 232.0434 809.2716 232.0884"></polygon>
                        <polygon id="Fill-199" fill="#ECEFF1" points="799.0098 225.3447 805.8208 225.3007 805.8648 232.1117 799.0548 232.1567"></polygon>
                        <polygon id="Fill-200" fill="#ECEFF1" points="768.3555 225.5478 775.1675 225.5028 775.2125 232.3148 768.4005 232.3598"></polygon>
                        <polygon id="Fill-201" fill="#ECEFF1" points="747.918 225.6841 754.73 225.6391 754.775 232.4511 747.962 232.4961"></polygon>
                        <polygon id="Fill-202" fill="#ECEFF1" points="737.7012 225.7519 744.5122 225.7069 744.5562 232.5179 737.7462 232.5629"></polygon>
                        <polygon id="Fill-203" fill="#ECEFF1" points="727.4824 225.8193 734.2944 225.7733 734.3394 232.5863 727.5274 232.6313"></polygon>
                        <polygon id="Fill-204" fill="#ECEFF1" points="706.9492 166.8432 713.7612 166.7982 713.8072 173.6102 706.9932 173.6552"></polygon>
                        <polygon id="Fill-205" fill="#ECEFF1" points="696.7314 166.9111 703.5434 166.8671 703.5874 173.6771 696.7764 173.7231"></polygon>
                        <polygon id="Fill-206" fill="#ECEFF1" points="686.5127 166.979 693.3247 166.934 693.3697 173.746 686.5577 173.79"></polygon>
                        <polygon id="Fill-207" fill="#ECEFF1" points="697.123 225.9497 703.935 225.9047 703.98 232.7167 697.168 232.7607"></polygon>
                        <polygon id="Fill-208" fill="#ECEFF1" points="686.9033 226.0171 693.7163 225.9731 693.7623 232.7851 686.9493 232.8291"></polygon>
                        <polygon id="Fill-209" fill="#ECEFF1" points="646.0322 226.289 652.8442 226.243 652.8892 233.055 646.0772 233.1"></polygon>
                        <polygon id="Fill-210" fill="#ECEFF1" points="615.125 226.4917 621.937 226.4467 621.982 233.2597 615.17 233.3047"></polygon>
                        <polygon id="Fill-211" fill="#ECEFF1" points="594.6895 226.6279 601.5015 226.5839 601.5465 233.3949 594.7345 233.4399"></polygon>
                        <polygon id="Fill-212" fill="#ECEFF1" points="584.4697 226.6958 591.2817 226.6508 591.3277 233.4628 584.5157 233.5078"></polygon>
                        <polygon id="Fill-213" fill="#ECEFF1" points="574.2529 226.7641 581.0649 226.7191 581.1089 233.5311 574.2979 233.5761"></polygon>
                        <polygon id="Fill-214" fill="#ECEFF1" points="543.5986 226.9673 550.4106 226.9213 550.4556 233.7343 543.6436 233.7783"></polygon>
                        <polygon id="Fill-215" fill="#ECEFF1" points="798.9434 215.5044 805.7554 215.4594 805.8004 222.2724 798.9894 222.3174"></polygon>
                        <polygon id="Fill-216" fill="#ECEFF1" points="768.2891 215.707 775.1011 215.663 775.1471 222.476 768.3341 222.521"></polygon>
                        <polygon id="Fill-217" fill="#ECEFF1" points="686.8389 216.1767 693.6519 216.1317 693.6969 222.9437 686.8849 222.9887"></polygon>
                        <polygon id="Fill-218" fill="#ECEFF1" points="615.0596 216.6514 621.8726 216.6064 621.9176 223.4204 615.1046 223.4634"></polygon>
                        <polygon id="Fill-219" fill="#ECEFF1" points="870.4062 205.1904 877.2172 205.1464 877.2612 211.9564 870.4512 212.0014"></polygon>
                        <polygon id="Fill-220" fill="#ECEFF1" points="839.752 205.3935 846.563 205.3475 846.607 212.1605 839.797 212.2055"></polygon>
                        <polygon id="Fill-221" fill="#ECEFF1" points="819.3154 205.5298 826.1274 205.4848 826.1724 212.2968 819.3604 212.3418"></polygon>
                        <polygon id="Fill-222" fill="#ECEFF1" points="809.0967 205.5967 815.9087 205.5517 815.9527 212.3637 809.1417 212.4087"></polygon>
                        <polygon id="Fill-223" fill="#ECEFF1" points="727.3516 206.1387 734.1636 206.0927 734.2076 212.9057 727.3966 212.9507"></polygon>
                        <polygon id="Fill-225" fill="#ECEFF1" points="686.7725 206.3359 693.5865 206.2929 693.6325 213.1029 686.8175 213.1479"></polygon>
                        <polygon id="Fill-226" fill="#ECEFF1" points="676.5576 206.4048 683.3676 206.3598 683.4126 213.1718 676.6026 213.2148"></polygon>
                        <polygon id="Fill-227" fill="#ECEFF1" points="645.9023 206.6074 652.7143 206.5634 652.7593 213.3744 645.9473 213.4194"></polygon>
                        <polygon id="Fill-228" fill="#ECEFF1" points="625.2139 206.7441 632.0249 206.7001 632.0689 213.5131 625.2579 213.5581"></polygon>
                        <polygon id="Fill-229" fill="#ECEFF1" points="614.9941 206.8115 621.8071 206.7675 621.8511 213.5805 615.0401 213.6265"></polygon>
                        <polygon id="Fill-232" fill="#ECEFF1" points="870.3398 195.3506 877.1518 195.3056 877.1968 202.1176 870.3848 202.1626"></polygon>
                        <polygon id="Fill-233" fill="#ECEFF1" points="809.0303 195.7568 815.8423 195.7128 815.8883 202.5248 809.0763 202.5688"></polygon>
                        <polygon id="Fill-234" fill="#ECEFF1" points="778.3779 195.9609 785.1889 195.9149 785.2339 202.7279 778.4239 202.7729"></polygon>
                        <polygon id="Fill-235" fill="#ECEFF1" points="727.2871 196.3003 734.0991 196.2543 734.1441 203.0673 727.3311 203.1113"></polygon>
                        <polygon id="Fill-237" fill="#ECEFF1" points="686.709 196.499 693.521 196.455 693.566 203.264 686.754 203.31"></polygon>
                        <polygon id="Fill-238" fill="#ECEFF1" points="656.0547 196.7021 662.8667 196.6561 662.9137 203.4671 656.0997 203.5131"></polygon>
                        <polygon id="Fill-239" fill="#ECEFF1" points="594.4932 197.1098 601.3052 197.0648 601.3502 203.8738 594.5392 203.9218"></polygon>
                        <polygon id="Fill-240" fill="#ECEFF1" points="584.2744 197.1777 591.0864 197.1337 591.1324 203.9427 584.3194 203.9887"></polygon>
                        <polygon id="Fill-243" fill="#ECEFF1" points="870.2754 185.5122 877.0864 185.4672 877.1304 192.2772 870.3204 192.3222"></polygon>
                        <polygon id="Fill-244" fill="#ECEFF1" points="839.6211 185.7148 846.4321 185.6688 846.4771 192.4808 839.6661 192.5268"></polygon>
                        <polygon id="Fill-245" fill="#ECEFF1" points="829.4043 185.7822 836.2143 185.7382 836.2593 192.5492 829.4483 192.5942"></polygon>
                        <polygon id="Fill-246" fill="#ECEFF1" points="819.1855 185.8506 825.9975 185.8056 826.0425 192.6176 819.2295 192.6626"></polygon>
                        <polygon id="Fill-247" fill="#ECEFF1" points="808.9658 185.918 815.7778 185.873 815.8218 192.685 809.0108 192.73"></polygon>
                        <polygon id="Fill-248" fill="#ECEFF1" points="798.749 185.9863 805.56 185.9403 805.605 192.7533 798.794 192.7983"></polygon>
                        <polygon id="Fill-249" fill="#ECEFF1" points="778.3125 186.1221 785.1235 186.0771 785.1675 192.8881 778.3575 192.9331"></polygon>
                        <polygon id="Fill-250" fill="#ECEFF1" points="757.876 186.2583 764.688 186.2123 764.732 193.0233 757.922 193.0683"></polygon>
                        <polygon id="Fill-251" fill="#ECEFF1" points="747.6562 186.3257 754.4702 186.2797 754.5142 193.0897 747.7012 193.1357"></polygon>
                        <polygon id="Fill-252" fill="#ECEFF1" points="737.4395 186.3926 744.2515 186.3476 744.2955 193.1596 737.4865 193.2036"></polygon>
                        <polygon id="Fill-253" fill="#ECEFF1" points="727.2207 186.4609 734.0327 186.4149 734.0787 193.2259 727.2677 193.2709"></polygon>
                        <polygon id="Fill-254" fill="#ECEFF1" points="717.0039 186.5288 723.8159 186.4838 723.8599 193.2938 717.0489 193.3388"></polygon>
                        <polygon id="Fill-257" fill="#ECEFF1" points="686.6426 186.6572 693.4566 186.6142 693.5016 193.4252 686.6876 193.4692"></polygon>
                        <polygon id="Fill-258" fill="#ECEFF1" points="676.4268 186.7261 683.2378 186.6811 683.2818 193.4931 676.4718 193.5381"></polygon>
                        <polygon id="Fill-259" fill="#ECEFF1" points="645.7715 186.9302 652.5835 186.8842 652.6285 193.6972 645.8165 193.7422"></polygon>
                        <polygon id="Fill-260" fill="#ECEFF1" points="635.3008 186.998 642.1128 186.953 642.1578 193.765 635.3458 193.81"></polygon>
                        <polygon id="Fill-261" fill="#ECEFF1" points="870.21 175.6719 877.022 175.6269 877.066 182.4389 870.255 182.4839"></polygon>
                        <polygon id="Fill-262" fill="#ECEFF1" points="829.3379 175.9424 836.1499 175.8974 836.1949 182.7104 829.3829 182.7544"></polygon>
                        <polygon id="Fill-263" fill="#ECEFF1" points="819.1211 176.0107 825.9321 175.9647 825.9761 182.7787 819.1651 182.8227"></polygon>
                        <polygon id="Fill-264" fill="#ECEFF1" points="808.9004 176.0781 815.7124 176.0341 815.7574 182.8461 808.9454 182.8901"></polygon>
                        <polygon id="Fill-265" fill="#ECEFF1" points="635.2354 177.1572 642.0474 177.1132 642.0914 183.9252 635.2814 183.9692"></polygon>
                        <polygon id="Fill-266" fill="#ECEFF1" points="594.3633 177.4292 601.1753 177.3842 601.2193 184.1962 594.4083 184.2412"></polygon>
                        <polygon id="Fill-267" fill="#ECEFF1" points="584.1445 177.4975 590.9565 177.4515 591.0015 184.2645 584.1895 184.3095"></polygon>
                        <polygon id="Fill-268" fill="#ECEFF1" points="523.3418 325.1767 530.1548 325.1307 530.2008 331.9437 523.3888 331.9887"></polygon>
                        <polygon id="Fill-269" fill="#ECEFF1" points="676.2969 167.0464 683.1079 167.0014 683.1519 173.8114 676.3419 173.8564"></polygon>
                        <polygon id="Fill-270" fill="#ECEFF1" points="666.0771 167.1138 672.8891 167.0678 672.9341 173.8808 666.1241 173.9258"></polygon>
                        <polygon id="Fill-271" fill="#ECEFF1" points="655.8584 167.1816 662.6704 167.1356 662.7174 173.9476 655.9034 173.9926"></polygon>
                        <polygon id="Fill-272" fill="#ECEFF1" points="624.9512 167.3857 631.7632 167.3427 631.8082 174.1537 624.9962 174.1977"></polygon>
                        <polygon id="Fill-273" fill="#ECEFF1" points="594.2969 167.5898 601.1099 167.5458 601.1549 174.3558 594.3429 174.4008"></polygon>
                        <polygon id="Fill-274" fill="#ECEFF1" points="584.0791 167.6572 590.8911 167.6132 590.9361 174.4242 584.1241 174.4692"></polygon>
                        <polygon id="Fill-275" fill="#ECEFF1" points="543.207 167.9277 550.019 167.8837 550.064 174.6957 543.252 174.7397"></polygon>
                        <polygon id="Fill-276" fill="#ECEFF1" points="532.9893 167.9956 539.8013 167.9506 539.8463 174.7636 533.0343 174.8086"></polygon>
                        <polygon id="Fill-277" fill="#ECEFF1" points="522.7705 168.0639 529.5825 168.0189 529.6275 174.8309 522.8155 174.8759"></polygon>
                        <polygon id="Fill-278" fill="#ECEFF1" points="502.335 168.1997 509.147 168.1547 509.191 174.9667 502.38 175.0117"></polygon>
                        <polygon id="Fill-279" fill="#ECEFF1" points="492.1162 168.2671 498.9282 168.2221 498.9732 175.0351 492.1612 175.0791"></polygon>
                        <polygon id="Fill-280" fill="#ECEFF1" points="420.5898 168.7417 427.4018 168.6967 427.4458 175.5097 420.6348 175.5537"></polygon>
                        <polygon id="Fill-281" fill="#ECEFF1" points="410.3721 168.81 417.1841 168.765 417.2291 175.577 410.4171 175.622"></polygon>
                        <polygon id="Fill-282" fill="#ECEFF1" points="400.1543 168.8769 406.9663 168.8319 407.0103 175.6449 400.1993 175.6889"></polygon>
                        <polygon id="Fill-283" fill="#ECEFF1" points="533.4961 315.2695 540.3061 315.2245 540.3511 322.0355 533.5411 322.0815"></polygon>
                        <polygon id="Fill-284" fill="#ECEFF1" points="502.8398 315.4726 509.6518 315.4276 509.6968 322.2386 502.8848 322.2836"></polygon>
                        <polygon id="Fill-285" fill="#ECEFF1" points="492.623 315.541 499.434 315.494 499.478 322.306 492.669 322.352"></polygon>
                        <polygon id="Fill-286" fill="#ECEFF1" points="482.4033 315.6074 489.2153 315.5624 489.2613 322.3744 482.4483 322.4194"></polygon>
                        <polygon id="Fill-291" fill="#ECEFF1" points="492.5576 305.7012 499.3686 305.6562 499.4126 312.4692 492.6026 312.5132"></polygon>
                        <polygon id="Fill-292" fill="#ECEFF1" points="482.3389 305.7695 489.1509 305.7245 489.1959 312.5375 482.3839 312.5815"></polygon>
                        <polygon id="Fill-302" fill="#ECEFF1" points="492.4932 295.8613 499.3032 295.8163 499.3482 302.6293 492.5382 302.6733"></polygon>
                        <polygon id="Fill-303" fill="#ECEFF1" points="482.2734 295.9297 489.0864 295.8847 489.1314 302.6977 482.3184 302.7417"></polygon>
                        <polygon id="Fill-315" fill="#ECEFF1" points="523.0811 285.8183 529.8931 285.7733 529.9391 292.5863 523.1261 292.6303"></polygon>
                        <polygon id="Fill-321" fill="#ECEFF1" points="523.0156 275.979 529.8276 275.933 529.8726 282.746 523.0616 282.791"></polygon>
                        <polygon id="Fill-322" fill="#ECEFF1" points="512.7969 276.0454 519.6099 276.0004 519.6559 282.8134 512.8419 282.8574"></polygon>
                        <polygon id="Fill-323" fill="#ECEFF1" points="502.5781 276.1147 509.3901 276.0687 509.4351 282.8817 502.6231 282.9267"></polygon>
                        <polygon id="Fill-324" fill="#ECEFF1" points="471.9258 276.3169 478.7378 276.2719 478.7818 283.0849 471.9718 283.1299"></polygon>
                        <polygon id="Fill-325" fill="#ECEFF1" points="840.2695 283.313 847.0795 283.268 847.1235 290.08 840.3135 290.124"></polygon>
                        <polygon id="Fill-326" fill="#ECEFF1" points="830.0488 283.3808 836.8608 283.3358 836.9058 290.1478 830.0938 290.1928"></polygon>
                        <polygon id="Fill-327" fill="#ECEFF1" points="819.832 283.4482 826.643 283.4032 826.687 290.2152 819.877 290.2602"></polygon>
                        <polygon id="Fill-343" fill="#ECEFF1" points="512.7324 266.2065 519.5444 266.1615 519.5894 272.9745 512.7774 273.0185"></polygon>
                        <polygon id="Fill-344" fill="#ECEFF1" points="502.5137 266.2739 509.3257 266.2299 509.3697 273.0429 502.5587 273.0869"></polygon>
                        <polygon id="Fill-345" fill="#ECEFF1" points="471.8613 266.479 478.6723 266.433 478.7153 273.245 471.9063 273.291"></polygon>
                        <polygon id="Fill-346" fill="#ECEFF1" points="819.7676 273.6089 826.5776 273.5629 826.6216 280.3759 819.8126 280.4219"></polygon>
                        <polygon id="Fill-347" fill="#ECEFF1" points="799.3301 273.7431 806.1421 273.6981 806.1881 280.5121 799.3741 280.5561"></polygon>
                        <polygon id="Fill-348" fill="#ECEFF1" points="789.1113 273.8115 795.9233 273.7675 795.9683 280.5795 789.1573 280.6255"></polygon>
                        <polygon id="Fill-353" fill="#ECEFF1" points="522.8857 256.3003 529.6977 256.2553 529.7417 263.0673 522.9307 263.1123"></polygon>
                        <polygon id="Fill-354" fill="#ECEFF1" points="512.667 256.3677 519.48 256.3227 519.525 263.1347 512.712 263.1797"></polygon>
                        <polygon id="Fill-364" fill="#ECEFF1" points="522.8193 246.4595 529.6323 246.4155 529.6773 253.2285 522.8643 253.2725"></polygon>
                        <polygon id="Fill-365" fill="#ECEFF1" points="512.6016 246.5278 519.4136 246.4828 519.4586 253.2958 512.6466 253.3398"></polygon>
                        <polygon id="Fill-366" fill="#ECEFF1" points="502.3818 246.5952 509.1938 246.5502 509.2388 253.3622 502.4278 253.4082"></polygon>
                        <polygon id="Fill-367" fill="#ECEFF1" points="471.7305 246.7993 478.5415 246.7543 478.5865 253.5653 471.7765 253.6103"></polygon>
                        <polygon id="Fill-371" fill="#ECEFF1" points="901.4473 263.6387 908.2613 263.5937 908.3053 270.4077 901.4933 270.4527"></polygon>
                        <polygon id="Fill-372" fill="#ECEFF1" points="870.7939 263.8428 877.6059 263.7968 877.6519 270.6108 870.8399 270.6548"></polygon>
                        <polygon id="Fill-373" fill="#ECEFF1" points="860.5771 263.9101 867.3891 263.8651 867.4331 270.6791 860.6211 270.7231"></polygon>
                        <polygon id="Fill-379" fill="#ECEFF1" points="512.5361 236.687 519.3491 236.642 519.3931 243.455 512.5811 243.499"></polygon>
                        <polygon id="Fill-380" fill="#ECEFF1" points="471.665 236.9585 478.476 236.9135 478.521 243.7255 471.71 243.7705"></polygon>
                        <polygon id="Fill-388" fill="#ECEFF1" points="512.4707 226.8491 519.2837 226.8041 519.3297 233.6161 512.5177 233.6611"></polygon>
                        <polygon id="Fill-389" fill="#ECEFF1" points="502.252 226.9165 509.064 226.8715 509.109 233.6835 502.297 233.7285"></polygon>
                        <polygon id="Fill-390" fill="#ECEFF1" points="492.0352 226.9848 498.8472 226.9398 498.8922 233.7518 492.0802 233.7968"></polygon>
                        <polygon id="Fill-391" fill="#ECEFF1" points="471.6006 227.1206 478.4116 227.0756 478.4556 233.8866 471.6466 233.9316"></polygon>
                        <polygon id="Fill-392" fill="#ECEFF1" points="615.4482 275.3052 622.2602 275.2602 622.3052 282.0732 615.4932 282.1182"></polygon>
                        <polygon id="Fill-393" fill="#ECEFF1" points="554.1377 275.7124 560.9517 275.6674 560.9967 282.4804 554.1837 282.5254"></polygon>
                        <polygon id="Fill-399" fill="#ECEFF1" points="512.4053 217.0093 519.2173 216.9643 519.2633 223.7763 512.4513 223.8213"></polygon>
                        <polygon id="Fill-400" fill="#ECEFF1" points="491.9697 217.145 498.7817 217.1 498.8257 223.912 492.0157 223.957"></polygon>
                        <polygon id="Fill-401" fill="#ECEFF1" points="615.3828 265.4648 622.1948 265.4198 622.2388 272.2328 615.4278 272.2778"></polygon>
                        <polygon id="Fill-407" fill="#ECEFF1" points="746.9551 176.6562 753.7671 176.6112 753.8111 183.4242 747.0021 183.4682"></polygon>
                        <polygon id="Fill-417" fill="#ECEFF1" points="388.2021 305.8457 395.0141 305.8007 395.0581 312.6137 388.2461 312.6577"></polygon>
                        <polygon id="Fill-418" fill="#ECEFF1" points="306.4561 306.3887 313.2671 306.3427 313.3121 313.1567 306.5011 313.2007"></polygon>
                        <polygon id="Fill-428" fill="#ECEFF1" points="418.79 295.8037 425.602 295.7587 425.647 302.5717 418.834 302.6157"></polygon>
                        <polygon id="Fill-429" fill="#ECEFF1" points="408.5732 295.8711 415.3852 295.8261 415.4302 302.6391 408.6182 302.6831"></polygon>
                        <polygon id="Fill-430" fill="#ECEFF1" points="398.3545 295.9394 405.1665 295.8944 405.2095 302.7074 398.3995 302.7514"></polygon>
                        <polygon id="Fill-431" fill="#ECEFF1" points="306.3916 296.5498 313.2026 296.5038 313.2476 303.3168 306.4366 303.3618"></polygon>
                        <polygon id="Fill-442" fill="#ECEFF1" points="388.0703 286.167 394.8823 286.122 394.9273 292.934 388.1163 292.979"></polygon>
                        <polygon id="Fill-443" fill="#ECEFF1" points="336.9805 286.5058 343.7925 286.4608 343.8355 293.2738 337.0255 293.3178"></polygon>
                        <polygon id="Fill-444" fill="#ECEFF1" points="306.3262 286.7099 313.1372 286.6639 313.1812 293.4769 306.3712 293.5219"></polygon>
                        <polygon id="Fill-445" fill="#ECEFF1" points="532.582 177.5151 539.393 177.4691 539.437 184.2821 532.627 184.3271"></polygon>
                        <polygon id="Fill-446" fill="#ECEFF1" points="512.1445 177.6499 518.9565 177.6059 519.0015 184.4179 512.1915 184.4629"></polygon>
                        <polygon id="Fill-447" fill="#ECEFF1" points="491.709 177.7866 498.52 177.7406 498.564 184.5536 491.753 184.5986"></polygon>
                        <polygon id="Fill-448" fill="#ECEFF1" points="481.4902 177.854 488.3022 177.808 488.3472 184.621 481.5352 184.666"></polygon>
                        <polygon id="Fill-449" fill="#ECEFF1" points="471.2734 177.9214 478.0844 177.8764 478.1284 184.6894 471.3184 184.7334"></polygon>
                        <polygon id="Fill-450" fill="#ECEFF1" points="461.0537 177.9897 467.8667 177.9437 467.9117 184.7567 461.0997 184.8017"></polygon>
                        <polygon id="Fill-457" fill="#ECEFF1" points="336.915 276.667 343.727 276.622 343.772 283.434 336.96 283.479"></polygon>
                        <polygon id="Fill-458" fill="#ECEFF1" points="306.2607 276.8701 313.0717 276.8251 313.1167 283.6371 306.3057 283.6821"></polygon>
                        <polygon id="Fill-459" fill="#ECEFF1" points="285.8262 277.0068 292.6362 276.9608 292.6812 283.7728 285.8712 283.8188"></polygon>
                        <polygon id="Fill-460" fill="#ECEFF1" points="818.1543 165.4487 824.9663 165.4047 825.0103 172.2167 818.1993 172.2607"></polygon>
                        <polygon id="Fill-461" fill="#ECEFF1" points="807.9355 165.5166 814.7475 165.4716 814.7925 172.2846 807.9805 172.3286"></polygon>
                        <polygon id="Fill-468" fill="#ECEFF1" points="408.376 266.3515 415.188 266.3065 415.234 273.1195 408.422 273.1645"></polygon>
                        <polygon id="Fill-469" fill="#ECEFF1" points="387.9395 266.4873 394.7515 266.4423 394.7965 273.2553 387.9855 273.3003"></polygon>
                        <polygon id="Fill-484" fill="#ECEFF1" points="408.3115 256.5127 415.1235 256.4677 415.1675 263.2797 408.3565 263.3247"></polygon>
                        <polygon id="Fill-485" fill="#ECEFF1" points="387.875 256.6484 394.687 256.6034 394.731 263.4154 387.92 263.4604"></polygon>
                        <polygon id="Fill-486" fill="#ECEFF1" points="336.7852 256.9873 343.5962 256.9423 343.6422 263.7553 336.8302 263.7993"></polygon>
                        <polygon id="Fill-490" fill="#ECEFF1" points="225.5137 190.2925 232.3267 190.2465 232.3717 197.0585 225.5597 197.1025"></polygon>
                        <polygon id="Fill-497" fill="#ECEFF1" points="317.4121 179.8413 324.2241 179.7963 324.2681 186.6083 317.4571 186.6523"></polygon>
                        <polygon id="Fill-498" fill="#ECEFF1" points="296.9756 179.977 303.7876 179.932 303.8326 186.744 297.0216 186.789"></polygon>
                        <polygon id="Fill-499" fill="#ECEFF1" points="286.7578 180.0439 293.5698 179.9989 293.6138 186.8109 286.8028 186.8559"></polygon>
                        <polygon id="Fill-500" fill="#ECEFF1" points="276.54 180.1128 283.352 180.0678 283.397 186.8778 276.585 186.9238"></polygon>
                        <polygon id="Fill-501" fill="#ECEFF1" points="256.1035 180.248 262.9155 180.203 262.9595 187.014 256.1485 187.06"></polygon>
                        <polygon id="Fill-502" fill="#ECEFF1" points="245.8848 180.3154 252.6968 180.2694 252.7418 187.0824 245.9308 187.1274"></polygon>
                        <polygon id="Fill-503" fill="#ECEFF1" points="225.4482 180.4521 232.2612 180.4061 232.3062 187.2181 225.4942 187.2631"></polygon>
                        <polygon id="Fill-504" fill="#ECEFF1" points="215.2314 180.5185 222.0424 180.4735 222.0884 187.2855 215.2764 187.3305"></polygon>
                        <polygon id="Fill-514" fill="#ECEFF1" points="317.3467 170.0019 324.1587 169.9569 324.2037 176.7689 317.3917 176.8139"></polygon>
                        <polygon id="Fill-515" fill="#ECEFF1" points="296.9102 170.1382 303.7222 170.0932 303.7672 176.9042 296.9552 176.9502"></polygon>
                        <polygon id="Fill-516" fill="#ECEFF1" points="286.6914 170.2056 293.5034 170.1606 293.5484 176.9726 286.7364 177.0176"></polygon>
                        <polygon id="Fill-517" fill="#ECEFF1" points="276.4746 170.2734 283.2866 170.2294 283.3306 177.0394 276.5196 177.0854"></polygon>
                        <polygon id="Fill-518" fill="#ECEFF1" points="256.0381 170.4097 262.8501 170.3637 262.8951 177.1757 256.0831 177.2197"></polygon>
                        <polygon id="Fill-519" fill="#ECEFF1" points="225.3828 170.6113 232.1948 170.5673 232.2408 177.3793 225.4288 177.4233"></polygon>
                        <polygon id="Fill-547" fill="#ECEFF1" points="461.7666 228.769 468.5776 228.723 468.6226 235.536 461.8116 235.581"></polygon>
                        <polygon id="Fill-548" fill="#ECEFF1" points="451.5479 228.8364 458.3599 228.7914 458.4049 235.6034 451.5929 235.6484"></polygon>
                        <polygon id="Fill-549" fill="#ECEFF1" points="441.3291 228.9048 448.1411 228.8598 448.1881 235.6708 441.3741 235.7168"></polygon>
                        <polygon id="Fill-550" fill="#ECEFF1" points="410.6748 229.1079 417.4878 229.0619 417.5328 235.8739 410.7198 235.9199"></polygon>
                        <polygon id="Fill-551" fill="#ECEFF1" points="390.2393 229.2427 397.0503 229.1977 397.0963 236.0097 390.2843 236.0547"></polygon>
                        <polygon id="Fill-552" fill="#ECEFF1" points="369.8027 229.3774 376.6147 229.3324 376.6597 236.1454 369.8477 236.1894"></polygon>
                        <polygon id="Fill-553" fill="#ECEFF1" points="339.1494 229.5815 345.9614 229.5365 346.0064 236.3495 339.1944 236.3935"></polygon>
                        <polygon id="Fill-554" fill="#ECEFF1" points="298.2764 229.853 305.0884 229.808 305.1324 236.62 298.3224 236.665"></polygon>
                        <polygon id="Fill-555" fill="#ECEFF1" points="267.623 230.0561 274.434 230.0111 274.479 236.8241 267.668 236.8681"></polygon>
                        <polygon id="Fill-556" fill="#ECEFF1" points="257.4043 230.1235 264.2163 230.0785 264.2603 236.8915 257.4493 236.9355"></polygon>
                        <polygon id="Fill-561" fill="#ECEFF1" points="461.7002 218.9282 468.5122 218.8832 468.5572 225.6962 461.7452 225.7402"></polygon>
                        <polygon id="Fill-562" fill="#ECEFF1" points="451.4824 218.9966 458.2944 218.9516 458.3384 225.7636 451.5284 225.8086"></polygon>
                        <polygon id="Fill-563" fill="#ECEFF1" points="441.2646 219.0649 448.0766 219.0189 448.1216 225.8309 441.3096 225.8769"></polygon>
                        <polygon id="Fill-564" fill="#ECEFF1" points="431.0459 219.1323 437.8579 219.0873 437.9029 225.8983 431.0909 225.9443"></polygon>
                        <polygon id="Fill-565" fill="#ECEFF1" points="420.8291 219.2007 427.6411 219.1547 427.6861 225.9667 420.8741 226.0117"></polygon>
                        <polygon id="Fill-566" fill="#ECEFF1" points="410.6094 219.2681 417.4224 219.2221 417.4674 226.0341 410.6554 226.0791"></polygon>
                        <polygon id="Fill-567" fill="#ECEFF1" points="390.1738 219.4028 396.9858 219.3578 397.0308 226.1698 390.2188 226.2148"></polygon>
                        <polygon id="Fill-568" fill="#ECEFF1" points="267.5586 220.2173 274.3686 220.1713 274.4136 226.9843 267.6036 227.0293"></polygon>
                        <polygon id="Fill-575" fill="#ECEFF1" points="461.6357 209.0874 468.4467 209.0424 468.4917 215.8564 461.6807 215.9004"></polygon>
                        <polygon id="Fill-576" fill="#ECEFF1" points="441.1992 209.2231 448.0112 209.1781 448.0572 215.9921 441.2442 216.0361"></polygon>
                        <polygon id="Fill-577" fill="#ECEFF1" points="430.9814 209.2915 437.7934 209.2465 437.8374 216.0595 431.0254 216.1045"></polygon>
                        <polygon id="Fill-578" fill="#ECEFF1" points="420.7627 209.3589 427.5747 209.3129 427.6187 216.1269 420.8087 216.1719"></polygon>
                        <polygon id="Fill-579" fill="#ECEFF1" points="410.5439 209.4272 417.3559 209.3812 417.4019 216.1952 410.5889 216.2392"></polygon>
                        <polygon id="Fill-580" fill="#ECEFF1" points="390.1094 209.562 396.9204 209.517 396.9654 216.331 390.1544 216.375"></polygon>
                        <polygon id="Fill-581" fill="#ECEFF1" points="379.8906 209.6304 386.7026 209.5854 386.7486 216.3994 379.9346 216.4434"></polygon>
                        <polygon id="Fill-582" fill="#ECEFF1" points="359.4551 209.7661 366.2671 209.7211 366.3111 216.5351 359.5001 216.5791"></polygon>
                        <polygon id="Fill-583" fill="#ECEFF1" points="298.1455 210.1733 304.9575 210.1273 305.0015 216.9403 298.1915 216.9853"></polygon>
                        <polygon id="Fill-584" fill="#ECEFF1" points="277.71 210.3081 284.521 210.2631 284.565 217.0761 277.756 217.1201"></polygon>
                        <polygon id="Fill-585" fill="#ECEFF1" points="267.4932 210.3764 274.3042 210.3304 274.3492 217.1444 267.5382 217.1884"></polygon>
                        <polygon id="Fill-586" fill="#ECEFF1" points="236.8379 210.5796 243.6499 210.5346 243.6939 217.3466 236.8829 217.3916"></polygon>
                        <polygon id="Fill-590" fill="#ECEFF1" points="676.0233 426.4807 676.0683 433.2907 682.8803 433.2457 682.8363 426.4337"></polygon>
                        <polygon id="Fill-598" fill="#ECEFF1" points="461.5693 199.2495 468.3823 199.2045 468.4273 206.0155 461.6153 206.0615"></polygon>
                        <polygon id="Fill-599" fill="#ECEFF1" points="390.043 199.7231 396.856 199.6781 396.9 206.4911 390.088 206.5351"></polygon>
                        <polygon id="Fill-600" fill="#ECEFF1" points="379.8252 199.7915 386.6372 199.7465 386.6822 206.5595 379.8702 206.6035"></polygon>
                        <polygon id="Fill-601" fill="#ECEFF1" points="359.3896 199.9272 366.2016 199.8822 366.2466 206.6952 359.4346 206.7392"></polygon>
                        <polygon id="Fill-602" fill="#ECEFF1" points="338.9531 200.063 345.7651 200.018 345.8101 206.83 338.9981 206.875"></polygon>
                        <polygon id="Fill-603" fill="#ECEFF1" points="277.6436 200.4692 284.4556 200.4242 284.4996 207.2372 277.6896 207.2812"></polygon>
                        <polygon id="Fill-604" fill="#ECEFF1" points="267.4277 200.5376 274.2387 200.4916 274.2827 207.3056 267.4727 207.3496"></polygon>
                        <polygon id="Fill-605" fill="#ECEFF1" points="257.208 200.605 264.02 200.56 264.064 207.373 257.253 207.417"></polygon>
                        <polygon id="Fill-606" fill="#ECEFF1" points="236.7725 200.7407 243.5845 200.6957 243.6295 207.5077 236.8175 207.5527"></polygon>
                        <polygon id="Fill-611" fill="#ECEFF1" points="461.5049 189.4097 468.3169 189.3647 468.3619 196.1757 461.5499 196.2217"></polygon>
                        <polygon id="Fill-612" fill="#ECEFF1" points="441.0684 189.5454 447.8804 189.4994 447.9264 196.3124 441.1134 196.3574"></polygon>
                        <polygon id="Fill-613" fill="#ECEFF1" points="430.8506 189.6138 437.6626 189.5688 437.7066 196.3798 430.8956 196.4248"></polygon>
                        <polygon id="Fill-614" fill="#ECEFF1" points="410.4131 189.7495 417.2261 189.7035 417.2721 196.5155 410.4581 196.5605"></polygon>
                        <polygon id="Fill-615" fill="#ECEFF1" points="389.9785 189.8843 396.7905 189.8393 396.8345 196.6513 390.0235 196.6963"></polygon>
                        <polygon id="Fill-616" fill="#ECEFF1" points="379.7598 189.9516 386.5718 189.9066 386.6168 196.7196 379.8058 196.7636"></polygon>
                        <polygon id="Fill-617" fill="#ECEFF1" points="359.3242 190.0884 366.1362 190.0434 366.1812 196.8544 359.3692 196.9004"></polygon>
                        <polygon id="Fill-618" fill="#ECEFF1" points="338.8877 190.2241 345.6997 190.1791 345.7447 196.9901 338.9327 197.0361"></polygon>
                        <polygon id="Fill-620" fill="#ECEFF1" points="890.2646 164.7954 897.0746 164.7504 897.1196 171.5624 890.3086 171.6074"></polygon>
                        <polygon id="Fill-621" fill="#ECEFF1" points="869.8271 164.9302 876.6391 164.8852 876.6821 171.6982 869.8731 171.7422"></polygon>
                        <polygon id="Fill-624" fill="#ECEFF1" points="675.8926 414.8008 682.7046 414.7558 682.7496 421.5688 675.9376 421.6128"></polygon>
                        <polygon id="Fill-631" fill="#ECEFF1" points="389.9131 180.0444 396.7251 179.9994 396.7701 186.8124 389.9581 186.8564"></polygon>
                        <polygon id="Fill-632" fill="#ECEFF1" points="338.8232 180.3843 345.6352 180.3393 345.6792 187.1503 338.8682 187.1963"></polygon>
                        <polygon id="Fill-638" fill="#ECEFF1" points="460.8906 305.1152 467.7026 305.0702 467.7456 311.8812 460.9376 311.9272"></polygon>
                        <polygon id="Fill-651" fill="#ECEFF1" points="460.8262 295.2754 467.6372 295.2304 467.6832 302.0434 460.8712 302.0894"></polygon>
                        <polygon id="Fill-652" fill="#ECEFF1" points="450.6074 295.3437 457.4194 295.2987 457.4644 302.1117 450.6524 302.1557"></polygon>
                        <polygon id="Fill-653" fill="#ECEFF1" points="440.3906 295.4111 447.2016 295.3651 447.2456 302.1801 440.4366 302.2241"></polygon>
                        <polygon id="Fill-667" fill="#ECEFF1" points="460.7617 285.4355 467.5717 285.3905 467.6157 292.2035 460.8067 292.2475"></polygon>
                        <polygon id="Fill-675" fill="#ECEFF1" points="708.3389 323.9189 715.1519 323.8729 715.1969 330.6849 708.3849 330.7299"></polygon>
                        <polygon id="Fill-676" fill="#ECEFF1" points="698.123 323.9863 704.934 323.9403 704.978 330.7533 698.168 330.7983"></polygon>
                        <polygon id="Fill-677" fill="#ECEFF1" points="687.9033 324.0537 694.7163 324.0087 694.7613 330.8207 687.9483 330.8657"></polygon>
                        <polygon id="Fill-678" fill="#ECEFF1" points="666.9521 314.8818 673.7641 314.8368 673.8091 321.6488 666.9971 321.6938"></polygon>
                        <polygon id="Fill-679" fill="#ECEFF1" points="450.3457 255.9839 457.1577 255.9399 457.2027 262.7529 450.3907 262.7969"></polygon>
                        <polygon id="Fill-680" fill="#ECEFF1" points="440.1309 256.0522 446.9409 256.0072 446.9859 262.8212 440.1759 262.8652"></polygon>
                        <polygon id="Fill-681" fill="#ECEFF1" points="698.0576 314.1455 704.8686 314.1005 704.9136 320.9155 698.1026 320.9595"></polygon>
                        <polygon id="Fill-685" fill="#ECEFF1" points="460.5 246.0776 467.312 246.0326 467.356 252.8446 460.545 252.8896"></polygon>
                        <polygon id="Fill-686" fill="#ECEFF1" points="450.2812 246.1445 457.0932 246.1005 457.1382 252.9125 450.3262 252.9565"></polygon>
                        <polygon id="Fill-687" fill="#ECEFF1" points="440.0645 246.2134 446.8755 246.1684 446.9195 252.9804 440.1095 253.0254"></polygon>
                        <polygon id="Fill-688" fill="#ECEFF1" points="666.7539 285.0264 673.5659 284.9814 673.6109 291.7954 666.7989 291.8384"></polygon>
                        <polygon id="Fill-689" fill="#ECEFF1" points="656.5342 285.0947 663.3462 285.0507 663.3912 291.8637 656.5792 291.9067"></polygon>
                        <polygon id="Fill-690" fill="#ECEFF1" points="646.3174 285.1621 653.1294 285.1171 653.1744 291.9311 646.3624 291.9761"></polygon>
                        <polygon id="Fill-691" fill="#ECEFF1" points="687.7725 304.374 694.5855 304.329 694.6305 311.142 687.8175 311.186"></polygon>
                        <polygon id="Fill-692" fill="#CFD8DC" points="860.4492 244.6167 867.2612 244.5717 867.3052 251.3837 860.4942 251.4277"></polygon>
                        <polygon id="Fill-693" fill="#CFD8DC" points="819.5762 244.8872 826.3882 244.8422 826.4332 251.6552 819.6212 251.6992"></polygon>
                        <polygon id="Fill-694" fill="#CFD8DC" points="778.7051 245.1587 785.5161 245.1137 785.5601 251.9257 778.7501 251.9707"></polygon>
                        <polygon id="Fill-695" fill="#CFD8DC" points="697.2539 245.6269 704.0659 245.5819 704.1099 252.3949 697.2989 252.4389"></polygon>
                        <polygon id="Fill-696" fill="#CFD8DC" points="870.6016 234.7099 877.4126 234.6649 877.4576 241.4769 870.6466 241.5219"></polygon>
                        <polygon id="Fill-697" fill="#CFD8DC" points="819.5117 235.0488 826.3227 235.0048 826.3687 241.8158 819.5567 241.8608"></polygon>
                        <polygon id="Fill-698" fill="#CFD8DC" points="778.6387 235.3193 785.4497 235.2753 785.4947 242.0873 778.6857 242.1313"></polygon>
                        <polygon id="Fill-699" fill="#CFD8DC" points="707.0146 176.6816 713.8266 176.6376 713.8726 183.4506 707.0586 183.4956"></polygon>
                        <polygon id="Fill-700" fill="#CFD8DC" points="696.7959 176.7505 703.6079 176.7055 703.6529 183.5185 696.8419 183.5635"></polygon>
                        <polygon id="Fill-701" fill="#CFD8DC" points="635.627 236.1958 642.439 236.1508 642.483 242.9638 635.673 243.0088"></polygon>
                        <polygon id="Fill-702" fill="#CFD8DC" points="839.8828 225.0732 846.6938 225.0282 846.7378 231.8402 839.9278 231.8852"></polygon>
                        <polygon id="Fill-703" fill="#CFD8DC" points="758.1367 225.6167 764.9487 225.5717 764.9947 232.3817 758.1817 232.4277"></polygon>
                        <polygon id="Fill-704" fill="#CFD8DC" points="635.5605 226.3559 642.3735 226.3109 642.4185 233.1229 635.6055 233.1679"></polygon>
                        <polygon id="Fill-705" fill="#CFD8DC" points="645.9678 216.4482 652.7798 216.4022 652.8238 223.2152 646.0128 223.2602"></polygon>
                        <polygon id="Fill-706" fill="#CFD8DC" points="635.4961 216.5156 642.3081 216.4716 642.3521 223.2836 635.5411 223.3276"></polygon>
                        <polygon id="Fill-707" fill="#CFD8DC" points="625.2783 216.5845 632.0903 216.5395 632.1353 223.3515 625.3233 223.3965"></polygon>
                        <polygon id="Fill-708" fill="#CFD8DC" points="594.624 216.7886 601.436 216.7426 601.481 223.5556 594.669 223.6006"></polygon>
                        <polygon id="Fill-709" fill="#CFD8DC" points="584.4043 216.8559 591.2173 216.8109 591.2623 223.6229 584.4503 223.6679"></polygon>
                        <polygon id="Fill-710" fill="#CFD8DC" points="901.0596 204.9863 907.8716 204.9423 907.9176 211.7523 901.1056 211.7983"></polygon>
                        <polygon id="Fill-711" fill="#CFD8DC" points="890.8418 205.0547 897.6538 205.0097 897.6978 211.8217 890.8868 211.8667"></polygon>
                        <polygon id="Fill-712" fill="#CFD8DC" points="849.9687 205.3262 856.7807 205.2802 856.8267 212.0922 850.0137 212.1372"></polygon>
                        <polygon id="Fill-713" fill="#CFD8DC" points="829.5332 205.4609 836.3452 205.4169 836.3902 212.2279 829.5792 212.2729"></polygon>
                        <polygon id="Fill-714" fill="#CFD8DC" points="798.8789 205.665 805.6899 205.618 805.7359 212.432 798.9239 212.477"></polygon>
                        <polygon id="Fill-715" fill="#CFD8DC" points="747.7871 206.0029 754.5991 205.9589 754.6451 212.7699 747.8311 212.8149"></polygon>
                        <polygon id="Fill-716" fill="#CFD8DC" points="737.5703 206.0713 744.3823 206.0253 744.4253 212.8383 737.6153 212.8833"></polygon>
                        <polygon id="Fill-719" fill="#CFD8DC" points="666.3389 206.4726 673.1509 206.4276 673.1949 213.2386 666.3839 213.2846"></polygon>
                        <polygon id="Fill-720" fill="#CFD8DC" points="604.7764 206.8804 611.5884 206.8354 611.6334 213.6484 604.8214 213.6934"></polygon>
                        <polygon id="Fill-721" fill="#CFD8DC" points="594.5586 206.9473 601.3706 206.9023 601.4156 213.7163 594.6036 213.7603"></polygon>
                        <polygon id="Fill-722" fill="#CFD8DC" points="900.9951 195.1465 907.8071 195.1015 907.8531 201.9155 901.0401 201.9585"></polygon>
                        <polygon id="Fill-723" fill="#CFD8DC" points="829.4687 195.6216 836.2807 195.5766 836.3257 202.3886 829.5137 202.4336"></polygon>
                        <polygon id="Fill-724" fill="#CFD8DC" points="747.7217 196.164 754.5337 196.118 754.5787 202.931 747.7667 202.976"></polygon>
                        <polygon id="Fill-725" fill="#CFD8DC" points="737.5049 196.2324 744.3169 196.1864 744.3609 202.9994 737.5509 203.0444"></polygon>
                        <polygon id="Fill-728" fill="#CFD8DC" points="666.2725 196.6348 673.0845 196.5888 673.1305 203.3998 666.3185 203.4448"></polygon>
                        <polygon id="Fill-729" fill="#CFD8DC" points="543.4014 197.4482 550.2154 197.4022 550.2604 204.2142 543.4474 204.2592"></polygon>
                        <polygon id="Fill-731" fill="#CFD8DC" points="849.8379 185.6474 856.6499 185.6014 856.6959 192.4134 849.8849 192.4584"></polygon>
                        <polygon id="Fill-732" fill="#CFD8DC" points="666.208 186.7939 673.02 186.7479 673.064 193.5609 666.254 193.6059"></polygon>
                        <polygon id="Fill-733" fill="#CFD8DC" points="614.8643 187.1343 621.6763 187.0893 621.7213 193.9003 614.9103 193.9463"></polygon>
                        <polygon id="Fill-734" fill="#CFD8DC" points="604.6455 187.2021 611.4575 187.1571 611.5025 193.9691 604.6905 194.0141"></polygon>
                        <polygon id="Fill-735" fill="#CFD8DC" points="543.3369 187.6089 550.1489 187.5639 550.1939 194.3759 543.3819 194.4199"></polygon>
                        <polygon id="Fill-738" fill="#CFD8DC" points="849.7734 175.8081 856.5854 175.7621 856.6294 182.5751 849.8184 182.6191"></polygon>
                        <polygon id="Fill-739" fill="#CFD8DC" points="614.7979 177.2934 621.6109 177.2484 621.6559 184.0604 614.8429 184.1054"></polygon>
                        <polygon id="Fill-740" fill="#CFD8DC" points="604.5811 177.3613 611.3921 177.3153 611.4371 184.1293 604.6261 184.1733"></polygon>
                        <polygon id="Fill-741" fill="#CFD8DC" points="390 178.7851 396.812 178.7401 396.856 185.5521 390.045 185.5971"></polygon>
                        <polygon id="Fill-742" fill="#CFD8DC" points="379.7832 178.8525 386.5942 178.8085 386.6382 185.6195 379.8282 185.6645"></polygon>
                        <polygon id="Fill-743" fill="#CFD8DC" points="513.124 325.2451 519.936 325.1981 519.98 332.0111 513.169 332.0561"></polygon>
                        <polygon id="Fill-744" fill="#CFD8DC" points="502.9043 325.3125 509.7173 325.2675 509.7633 332.0785 502.9493 332.1235"></polygon>
                        <polygon id="Fill-745" fill="#CFD8DC" points="492.6875 325.3799 499.4995 325.3339 499.5435 332.1469 492.7325 332.1919"></polygon>
                        <polygon id="Fill-748" fill="#CFD8DC" points="696.7314 166.9101 703.5434 166.8651 703.5874 173.6761 696.7764 173.7221"></polygon>
                        <polygon id="Fill-749" fill="#CFD8DC" points="635.1699 167.3183 641.9819 167.2733 642.0259 174.0853 635.2149 174.1303"></polygon>
                        <polygon id="Fill-750" fill="#CFD8DC" points="614.7334 167.4546 621.5454 167.4096 621.5904 174.2196 614.7794 174.2656"></polygon>
                        <polygon id="Fill-751" fill="#CFD8DC" points="604.5156 167.5224 611.3276 167.4774 611.3726 174.2884 604.5606 174.3344"></polygon>
                        <polygon id="Fill-752" fill="#CFD8DC" points="451.2441 168.539 458.0561 168.493 458.1001 175.306 451.2891 175.351"></polygon>
                        <polygon id="Fill-753" fill="#CFD8DC" points="441.0264 168.6059 447.8384 168.5609 447.8824 175.3729 441.0724 175.4179"></polygon>
                        <polygon id="Fill-754" fill="#CFD8DC" points="430.8086 168.6738 437.6206 168.6298 437.6646 175.4418 430.8536 175.4858"></polygon>
                        <polygon id="Fill-755" fill="#CFD8DC" points="369.498 169.081 376.311 169.036 376.356 175.848 369.544 175.893"></polygon>
                        <polygon id="Fill-783" fill="#CFD8DC" points="492.4268 286.0215 499.2388 285.9765 499.2828 292.7895 492.4718 292.8335"></polygon>
                        <polygon id="Fill-784" fill="#CFD8DC" points="840.333 293.1504 847.145 293.1054 847.189 299.9194 840.378 299.9634"></polygon>
                        <polygon id="Fill-785" fill="#CFD8DC" points="799.46 293.4219 806.272 293.3779 806.318 300.1909 799.505 300.2359"></polygon>
                        <polygon id="Fill-786" fill="#CFD8DC" points="789.2422 293.4902 796.0542 293.4452 796.0982 300.2582 789.2872 300.3022"></polygon>
                        <polygon id="Fill-796" fill="#CFD8DC" points="492.3613 276.1811 499.1723 276.1361 499.2173 282.9491 492.4073 282.9931"></polygon>
                        <polygon id="Fill-797" fill="#CFD8DC" points="870.9219 283.1103 877.7339 283.0643 877.7789 289.8763 870.9669 289.9223"></polygon>
                        <polygon id="Fill-798" fill="#CFD8DC" points="860.7051 283.1767 867.5161 283.1317 867.5601 289.9437 860.7491 289.9887"></polygon>
                        <polygon id="Fill-804" fill="#CFD8DC" points="492.2969 266.3423 499.1089 266.2973 499.1529 273.1103 492.3419 273.1543"></polygon>
                        <polygon id="Fill-805" fill="#CFD8DC" points="482.0771 266.4106 488.8901 266.3656 488.9341 273.1786 482.1221 273.2226"></polygon>
                        <polygon id="Fill-806" fill="#CFD8DC" points="870.8564 273.2695 877.6694 273.2235 877.7144 280.0375 870.9024 280.0815"></polygon>
                        <polygon id="Fill-807" fill="#CFD8DC" points="860.6396 273.3359 867.4516 273.2909 867.4946 280.1049 860.6856 280.1499"></polygon>
                        <polygon id="Fill-814" fill="#CFD8DC" points="492.2314 256.5034 499.0414 256.4584 499.0864 263.2704 492.2764 263.3154"></polygon>
                        <polygon id="Fill-815" fill="#CFD8DC" points="482.0117 256.5718 488.8237 256.5268 488.8687 263.3378 482.0567 263.3838"></polygon>
                        <polygon id="Fill-823" fill="#CFD8DC" points="533.0391 246.3921 539.8511 246.3471 539.8941 253.1601 533.0841 253.2041"></polygon>
                        <polygon id="Fill-824" fill="#CFD8DC" points="492.166 246.6636 498.978 246.6186 499.023 253.4306 492.211 253.4756"></polygon>
                        <polygon id="Fill-825" fill="#CFD8DC" points="481.9463 246.7309 488.7593 246.6869 488.8043 253.4989 481.9923 253.5429"></polygon>
                        <polygon id="Fill-826" fill="#CFD8DC" points="891.2314 263.707 898.0434 263.663 898.0874 270.475 891.2774 270.519"></polygon>
                        <polygon id="Fill-827" fill="#CFD8DC" points="881.0127 263.7754 887.8257 263.7294 887.8707 270.5434 881.0577 270.5874"></polygon>
                        <polygon id="Fill-836" fill="#CFD8DC" points="492.1016 236.8227 498.9116 236.7777 498.9566 243.5907 492.1466 243.6347"></polygon>
                        <polygon id="Fill-844" fill="#CFD8DC" points="532.9082 226.7134 539.7192 226.6684 539.7642 233.4804 532.9552 233.5254"></polygon>
                        <polygon id="Fill-845" fill="#CFD8DC" points="522.6895 226.7807 529.5015 226.7357 529.5475 233.5487 522.7345 233.5927"></polygon>
                        <polygon id="Fill-846" fill="#CFD8DC" points="595.0117 275.4419 601.8227 275.3959 601.8677 282.2099 595.0567 282.2539"></polygon>
                        <polygon id="Fill-847" fill="#CFD8DC" points="584.792 275.5093 591.606 275.4643 591.651 282.2763 584.837 282.3213"></polygon>
                        <polygon id="Fill-856" fill="#CFD8DC" points="532.8418 216.8735 539.6538 216.8285 539.6988 223.6415 532.8888 223.6855"></polygon>
                        <polygon id="Fill-857" fill="#CFD8DC" points="605.1631 265.5337 611.9751 265.4887 612.0201 272.3017 605.2091 272.3457"></polygon>
                        <polygon id="Fill-858" fill="#CFD8DC" points="594.9463 265.6011 601.7583 265.5561 601.8033 272.3691 594.9913 272.4131"></polygon>
                        <polygon id="Fill-859" fill="#CFD8DC" points="584.7275 265.6689 591.5405 265.6239 591.5855 272.4359 584.7735 272.4809"></polygon>
                        <polygon id="Fill-860" fill="#CFD8DC" points="564.292 265.8052 571.104 265.7592 571.149 272.5722 564.337 272.6172"></polygon>
                        <polygon id="Fill-861" fill="#CFD8DC" points="554.0732 265.8725 560.8862 265.8275 560.9312 272.6395 554.1192 272.6845"></polygon>
                        <polygon id="Fill-862" fill="#CFD8DC" points="543.8564 265.9404 550.6674 265.8944 550.7124 272.7074 543.9014 272.7524"></polygon>
                        <polygon id="Fill-869" fill="#CFD8DC" points="532.7773 207.0337 539.5883 206.9887 539.6323 213.8017 532.8233 213.8457"></polygon>
                        <polygon id="Fill-870" fill="#CFD8DC" points="512.3408 207.1694 519.1528 207.1244 519.1978 213.9364 512.3848 213.9814"></polygon>
                        <polygon id="Fill-871" fill="#CFD8DC" points="502.1221 207.2368 508.9341 207.1918 508.9801 214.0048 502.1661 214.0488"></polygon>
                        <polygon id="Fill-872" fill="#CFD8DC" points="491.9043 207.3052 498.7163 207.2602 498.7613 214.0722 491.9493 214.1172"></polygon>
                        <polygon id="Fill-873" fill="#CFD8DC" points="471.4687 207.4409 478.2807 207.3949 478.3257 214.2079 471.5147 214.2529"></polygon>
                        <polygon id="Fill-874" fill="#CFD8DC" points="757.1719 176.5879 763.9839 176.5429 764.0289 183.3569 757.2169 183.4009"></polygon>
                        <polygon id="Fill-878" fill="#CFD8DC" points="408.6377 305.7099 415.4497 305.6649 415.4937 312.4779 408.6837 312.5219"></polygon>
                        <polygon id="Fill-879" fill="#CFD8DC" points="398.4189 305.7783 405.2309 305.7333 405.2749 312.5463 398.4649 312.5903"></polygon>
                        <polygon id="Fill-880" fill="#CFD8DC" points="296.2373 306.456 303.0503 306.411 303.0953 313.224 296.2823 313.268"></polygon>
                        <polygon id="Fill-881" fill="#CFD8DC" points="512.2754 197.3296 519.0874 197.2846 519.1324 204.0966 512.3194 204.1416"></polygon>
                        <polygon id="Fill-882" fill="#CFD8DC" points="491.8398 197.4653 498.6508 197.4203 498.6948 204.2323 491.8838 204.2773"></polygon>
                        <polygon id="Fill-883" fill="#CFD8DC" points="471.4043 197.6011 478.2153 197.5551 478.2603 204.3681 471.4493 204.4131"></polygon>
                        <polygon id="Fill-884" fill="#CFD8DC" points="777.542 166.6123 784.355 166.5673 784.399 173.3803 777.587 173.4243"></polygon>
                        <polygon id="Fill-885" fill="#CFD8DC" points="767.3252 166.6797 774.1372 166.6347 774.1822 173.4487 767.3712 173.4927"></polygon>
                        <polygon id="Fill-886" fill="#CFD8DC" points="757.1074 166.7471 763.9194 166.7021 763.9644 173.5171 757.1524 173.5601"></polygon>
                        <polygon id="Fill-888" fill="#CFD8DC" points="296.1719 296.6172 302.9849 296.5722 303.0299 303.3842 296.2169 303.4292"></polygon>
                        <polygon id="Fill-889" fill="#CFD8DC" points="512.209 187.4897 519.023 187.4457 519.067 194.2567 512.255 194.3017"></polygon>
                        <polygon id="Fill-890" fill="#CFD8DC" points="491.7754 187.6264 498.5864 187.5814 498.6294 194.3924 491.8194 194.4374"></polygon>
                        <polygon id="Fill-891" fill="#CFD8DC" points="481.5547 187.6938 488.3677 187.6478 488.4137 194.4598 481.5997 194.5058"></polygon>
                        <polygon id="Fill-892" fill="#CFD8DC" points="471.3379 187.7612 478.1499 187.7162 478.1949 194.5282 471.3829 194.5732"></polygon>
                        <polygon id="Fill-895" fill="#CFD8DC" points="418.7246 285.9648 425.5366 285.9188 425.5816 292.7318 418.7696 292.7768"></polygon>
                        <polygon id="Fill-896" fill="#CFD8DC" points="408.5078 286.0322 415.3188 285.9872 415.3638 292.7992 408.5528 292.8442"></polygon>
                        <polygon id="Fill-897" fill="#CFD8DC" points="398.2891 286.1006 405.1001 286.0556 405.1451 292.8676 398.3331 292.9126"></polygon>
                        <polygon id="Fill-898" fill="#CFD8DC" points="367.6348 286.3027 374.4468 286.2577 374.4918 293.0697 367.6808 293.1147"></polygon>
                        <polygon id="Fill-899" fill="#CFD8DC" points="326.7627 286.5732 333.5747 286.5282 333.6197 293.3422 326.8077 293.3852"></polygon>
                        <polygon id="Fill-900" fill="#CFD8DC" points="316.542 286.6416 323.355 286.5966 323.4 293.4096 316.588 293.4536"></polygon>
                        <polygon id="Fill-905" fill="#CFD8DC" points="418.6582 276.124 425.4702 276.079 425.5162 282.892 418.7042 282.936"></polygon>
                        <polygon id="Fill-906" fill="#CFD8DC" points="367.5693 276.4639 374.3813 276.4189 374.4253 283.2299 367.6143 283.2749"></polygon>
                        <polygon id="Fill-907" fill="#CFD8DC" points="326.6973 276.7344 333.5093 276.6894 333.5543 283.5014 326.7423 283.5464"></polygon>
                        <polygon id="Fill-908" fill="#CFD8DC" points="265.3867 277.1406 272.1997 277.0966 272.2457 283.9086 265.4327 283.9536"></polygon>
                        <polygon id="Fill-911" fill="#CFD8DC" points="367.5039 266.623 374.3159 266.577 374.3609 273.391 367.5489 273.435"></polygon>
                        <polygon id="Fill-912" fill="#CFD8DC" points="265.3223 267.3008 272.1343 267.2558 272.1793 274.0678 265.3683 274.1138"></polygon>
                        <polygon id="Fill-921" fill="#CFD8DC" points="367.4375 256.7842 374.2495 256.7382 374.2945 263.5512 367.4845 263.5962"></polygon>
                        <polygon id="Fill-922" fill="#CFD8DC" points="326.5664 257.0547 333.3784 257.0097 333.4234 263.8227 326.6124 263.8667"></polygon>
                        <polygon id="Fill-923" fill="#CFD8DC" points="316.3477 257.123 323.1587 257.077 323.2037 263.891 316.3927 263.935"></polygon>
                        <polygon id="Fill-932" fill="#CFD8DC" points="235.667 180.3843 242.48 180.3383 242.525 187.1503 235.712 187.1943"></polygon>
                        <polygon id="Fill-937" fill="#CFD8DC" points="235.6016 170.5454 242.4136 170.4994 242.4596 177.3104 235.6466 177.3564"></polygon>
                        <polygon id="Fill-938" fill="#CFD8DC" points="215.166 170.6802 221.978 170.6352 222.023 177.4472 215.211 177.4922"></polygon>
                        <polygon id="Fill-957" fill="#ECEFF1" points="666.5176 414.5293 673.3286 414.4843 673.3726 421.2953 666.5616 421.3403"></polygon>
                        <polygon id="Fill-958" fill="#ECEFF1" points="646.0811 414.664 652.8931 414.619 652.9371 421.432 646.1271 421.476"></polygon>
                        <polygon id="Fill-959" fill="#ECEFF1" points="635.8623 414.7324 642.6743 414.6874 642.7183 421.4984 635.9073 421.5434"></polygon>
                        <polygon id="Fill-960" fill="#ECEFF1" points="625.6445 414.8008 632.4565 414.7558 632.5015 421.5668 625.6895 421.6118"></polygon>
                        <polygon id="Fill-961" fill="#ECEFF1" points="666.4512 404.6894 673.2632 404.6444 673.3082 411.4574 666.4962 411.5014"></polygon>
                        <polygon id="Fill-962" fill="#ECEFF1" points="646.0146 404.8262 652.8276 404.7812 652.8726 411.5922 646.0606 411.6372"></polygon>
                        <polygon id="Fill-963" fill="#ECEFF1" points="635.7959 404.8926 642.6089 404.8476 642.6539 411.6606 635.8409 411.7046"></polygon>
                        <polygon id="Fill-964" fill="#ECEFF1" points="625.5791 404.9609 632.3911 404.9159 632.4351 411.7269 625.6241 411.7729"></polygon>
                        <polygon id="Fill-965" fill="#ECEFF1" points="666.3867 394.8496 673.1987 394.8026 673.2417 401.6176 666.4307 401.6616"></polygon>
                        <polygon id="Fill-966" fill="#CFD8DC" points="666.3203 385.0097 673.1323 384.9647 673.1773 391.7777 666.3653 391.8217"></polygon>
                        <polygon id="Fill-967" fill="#CFD8DC" points="656.1035 385.0781 662.9155 385.0331 662.9585 391.8461 656.1475 391.8901"></polygon>
                        <polygon id="Fill-968" fill="#CFD8DC" points="645.8848 385.1465 652.6968 385.1015 652.7418 391.9125 645.9298 391.9585"></polygon>
                        <polygon id="Fill-977" fill="#CFD8DC" points="400.458 229.1753 407.27 229.1303 407.314 235.9423 400.503 235.9873"></polygon>
                        <polygon id="Fill-978" fill="#CFD8DC" points="359.5859 229.4458 366.3979 229.4008 366.4419 236.2138 359.6309 236.2578"></polygon>
                        <polygon id="Fill-979" fill="#CFD8DC" points="318.7129 229.7173 325.5239 229.6723 325.5689 236.4843 318.7579 236.5293"></polygon>
                        <polygon id="Fill-980" fill="#CFD8DC" points="308.4951 229.7856 315.3071 229.7396 315.3521 236.5526 308.5401 236.5976"></polygon>
                        <polygon id="Fill-981" fill="#CFD8DC" points="247.1875 230.1919 253.9975 230.1469 254.0415 236.9599 247.2325 237.0039"></polygon>
                        <polygon id="Fill-982" fill="#CFD8DC" points="236.9687 230.2593 243.7807 230.2143 243.8247 237.0273 237.0137 237.0713"></polygon>
                        <polygon id="Fill-988" fill="#CFD8DC" points="400.3916 219.3364 407.2036 219.2904 407.2486 226.1024 400.4376 226.1474"></polygon>
                        <polygon id="Fill-989" fill="#CFD8DC" points="339.084 219.7427 345.896 219.6977 345.94 226.5087 339.129 226.5547"></polygon>
                        <polygon id="Fill-990" fill="#CFD8DC" points="318.6475 219.8784 325.4595 219.8334 325.5045 226.6444 318.6925 226.6904"></polygon>
                        <polygon id="Fill-991" fill="#CFD8DC" points="339.0186 209.9018 345.8306 209.8568 345.8756 216.6698 339.0636 216.7138"></polygon>
                        <polygon id="Fill-992" fill="#CFD8DC" points="328.8008 209.9692 335.6128 209.9242 335.6568 216.7362 328.8458 216.7812"></polygon>
                        <polygon id="Fill-993" fill="#CFD8DC" points="318.582 210.0376 325.394 209.9926 325.439 216.8046 318.627 216.8496"></polygon>
                        <polygon id="Fill-994" fill="#CFD8DC" points="308.3643 210.105 315.1763 210.059 315.2203 216.872 308.4093 216.917"></polygon>
                        <polygon id="Fill-995" fill="#CFD8DC" points="287.9287 210.2407 294.7407 210.1947 294.7847 217.0087 287.9737 217.0527"></polygon>
                        <polygon id="Fill-996" fill="#CFD8DC" points="247.0557 210.5122 253.8667 210.4662 253.9117 217.2802 247.1017 217.3242"></polygon>
                        <polygon id="Fill-998" fill="#CFD8DC" points="287.8633 200.4009 294.6753 200.3559 294.7203 207.1699 287.9073 207.2129"></polygon>
                        <polygon id="Fill-999" fill="#CFD8DC" points="246.9912 200.6733 253.8022 200.6273 253.8472 207.4413 247.0362 207.4853"></polygon>
                        <polygon id="Fill-1000" fill="#CFD8DC" points="420.6328 189.6811 427.4448 189.6351 427.4898 196.4471 420.6788 196.4931"></polygon>
                        <polygon id="Fill-1001" fill="#CFD8DC" points="880.0449 164.8628 886.8569 164.8178 886.9029 171.6298 880.0909 171.6748"></polygon>
                        <polygon id="Fill-1003" fill="#CFD8DC" points="461.0225 324.7949 467.8325 324.7489 467.8775 331.5609 461.0685 331.6069"></polygon>
                        <polygon id="Fill-1004" fill="#CFD8DC" points="450.8027 324.8633 457.6167 324.8163 457.6617 331.6293 450.8477 331.6743"></polygon>
                        <polygon id="Fill-1005" fill="#CFD8DC" points="440.5859 324.9297 447.3979 324.8847 447.4409 331.6977 440.6309 331.7417"></polygon>
                        <polygon id="Fill-1006" fill="#CFD8DC" points="430.3672 324.998 437.1792 324.953 437.2242 331.766 430.4122 331.81"></polygon>
                        <polygon id="Fill-1012" fill="#CFD8DC" points="379.6943 180.1118 386.5063 180.0668 386.5523 186.8798 379.7393 186.9238"></polygon>
                        <polygon id="Fill-1013" fill="#CFD8DC" points="369.4766 180.1802 376.2886 180.1352 376.3336 186.9472 369.5216 186.9922"></polygon>
                        <polygon id="Fill-1014" fill="#CFD8DC" points="359.2588 180.2485 366.0708 180.2025 366.1158 187.0145 359.3038 187.0605"></polygon>
                        <polygon id="Fill-1017" fill="#CFD8DC" points="460.9561 314.9551 467.7681 314.9101 467.8121 321.7211 461.0021 321.7671"></polygon>
                        <polygon id="Fill-1018" fill="#CFD8DC" points="450.7383 315.0234 457.5503 314.9774 457.5953 321.7894 450.7833 321.8344"></polygon>
                        <polygon id="Fill-1023" fill="#CFD8DC" points="369.4111 170.3403 376.2241 170.2953 376.2691 177.1073 369.4561 177.1523"></polygon>
                        <polygon id="Fill-1036" fill="#CFD8DC" points="667.1484 344.4014 673.9594 344.3554 674.0044 351.1694 667.1934 351.2134"></polygon>
                        <polygon id="Fill-1038" fill="#ECEFF1" points="687.2139 294.6855 694.0259 294.6385 694.0709 301.4525 687.2579 301.4975"></polygon>
                        <polygon id="Fill-1039" fill="#ECEFF1" points="676.9951 294.7519 683.8081 294.7069 683.8521 301.5219 677.0411 301.5649"></polygon>
                        <polygon id="Fill-1040" fill="#ECEFF1" points="676.9287 284.9121 683.7417 284.8681 683.7867 291.6801 676.9737 291.7241"></polygon>
                        <polygon id="Fill-1041" fill="#CFD8DC" points="687.1475 284.8447 693.9595 284.8007 694.0055 291.6117 687.1935 291.6567"></polygon>
                        <polygon id="Fill-1052" fill="#CFD8DC" points="460.6963 275.5962 467.5063 275.5512 467.5523 282.3632 460.7413 282.4072"></polygon>
                        <polygon id="Fill-1053" fill="#CFD8DC" points="450.4766 275.665 457.2896 275.619 457.3346 282.431 450.5216 282.476"></polygon>
                        <polygon id="Fill-1054" fill="#CFD8DC" points="440.2598 275.7319 447.0718 275.6869 447.1158 282.4989 440.3068 282.5439"></polygon>
                        <polygon id="Fill-1055" fill="#CFD8DC" points="667.0186 324.7226 673.8296 324.6756 673.8746 331.4896 667.0636 331.5346"></polygon>
                        <polygon id="Fill-1060" fill="#CFD8DC" points="460.6309 265.7563 467.4419 265.7113 467.4859 272.5233 460.6759 272.5683"></polygon>
                        <polygon id="Fill-1061" fill="#CFD8DC" points="450.4111 265.8242 457.2231 265.7802 457.2681 272.5922 450.4561 272.6362"></polygon>
                        <polygon id="Fill-1062" fill="#CFD8DC" points="440.1953 265.8921 447.0063 265.8471 447.0503 272.6601 440.2403 272.7041"></polygon>
                        <polygon id="Fill-1063" fill="#CFD8DC" points="429.9766 265.9604 436.7886 265.9154 436.8336 272.7274 430.0196 272.7724"></polygon>
                        <polygon id="Fill-1065" fill="#CFD8DC" points="718.5586 323.8506 725.3706 323.8046 725.4166 330.6176 718.6036 330.6616"></polygon>
                        <polygon id="Fill-1067" fill="#CFD8DC" points="687.8389 314.2139 694.6509 314.1689 694.6959 320.9829 687.8849 321.0269"></polygon>
                        <polygon id="Fill-1068" fill="#CFD8DC" points="666.8877 305.043 673.6987 304.998 673.7437 311.811 666.9327 311.855"></polygon>
                        <polygon id="Fill-1075" fill="#FFFFFF" points="768.2246 205.8672 775.0366 205.8222 775.0816 212.6342 768.2696 212.6792"></polygon>
                        <polygon id="Fill-1076" fill="#FFFFFF" points="656.1191 206.539 662.9321 206.494 662.9771 213.306 656.1651 213.351"></polygon>
                        <polygon id="Fill-1077" fill="#FFFFFF" points="635.4307 206.6763 642.2427 206.6313 642.2877 213.4443 635.4767 213.4893"></polygon>
                        <polygon id="Fill-1078" fill="#FFFFFF" points="543.4678 207.2876 550.2798 207.2416 550.3248 214.0556 543.5128 214.0996"></polygon>
                        <polygon id="Fill-1079" fill="#FFFFFF" points="512.5527 168.1308 519.3647 168.0858 519.4087 174.8988 512.5987 174.9438"></polygon>
                        <polygon id="Fill-1081" fill="#FFFFFF" points="840.2031 273.4717 847.0141 273.4267 847.0581 280.2407 840.2471 280.2847"></polygon>
                        <polygon id="Fill-1090" fill="#FFFFFF" points="377.8535 286.2353 384.6645 286.1903 384.7075 293.0033 377.8985 293.0473"></polygon>
                        <polygon id="Fill-1092" fill="#FFFFFF" points="418.5947 266.2832 425.4067 266.2382 425.4507 273.0522 418.6397 273.0972"></polygon>
                        <polygon id="Fill-1093" fill="#ECEFF1" points="654.6221 373.3193 661.4341 373.2743 661.4791 380.0873 654.6671 380.1323"></polygon>
                        <polygon id="Fill-1094" fill="#ECEFF1" points="644.4043 373.3877 651.2163 373.3427 651.2603 380.1557 644.4503 380.2007"></polygon>
                        <polygon id="Fill-1095" fill="#ECEFF1" points="613.75 373.5898 620.562 373.5448 620.607 380.3588 613.795 380.4028"></polygon>
                        <polygon id="Fill-1096" fill="#ECEFF1" points="603.5322 373.6582 610.3442 373.6132 610.3882 380.4272 603.5772 380.4712"></polygon>
                        <polygon id="Fill-1097" fill="#ECEFF1" points="562.6602 373.9297 569.4722 373.8847 569.5172 380.6977 562.7052 380.7427"></polygon>
                        <polygon id="Fill-1098" fill="#ECEFF1" points="542.2227 374.0654 549.0347 374.0204 549.0797 380.8334 542.2687 380.8784"></polygon>
                        <polygon id="Fill-1099" fill="#ECEFF1" points="644.3379 363.5498 651.1509 363.5048 651.1959 370.3158 644.3849 370.3618"></polygon>
                        <polygon id="Fill-1100" fill="#ECEFF1" points="634.1201 363.6172 640.9341 363.5712 640.9791 370.3832 634.1661 370.4282"></polygon>
                        <polygon id="Fill-1101" fill="#ECEFF1" points="562.5947 364.0908 569.4067 364.0458 569.4517 370.8578 562.6397 370.9028"></polygon>
                        <polygon id="Fill-1102" fill="#ECEFF1" points="542.1582 364.2265 548.9702 364.1815 549.0142 370.9935 542.2042 371.0385"></polygon>
                        <polygon id="Fill-1103" fill="#ECEFF1" points="491.0684 364.5654 497.8804 364.5204 497.9254 371.3334 491.1134 371.3774"></polygon>
                        <polygon id="Fill-1104" fill="#ECEFF1" points="623.8369 353.8457 630.6499 353.7997 630.6949 360.6117 623.8829 360.6567"></polygon>
                        <polygon id="Fill-1105" fill="#ECEFF1" points="593.1836 354.0478 599.9946 354.0028 600.0406 360.8148 593.2286 360.8598"></polygon>
                        <polygon id="Fill-1106" fill="#ECEFF1" points="572.7471 354.1836 579.5591 354.1386 579.6031 360.9506 572.7921 360.9956"></polygon>
                        <polygon id="Fill-1107" fill="#ECEFF1" points="562.5303 354.2519 569.3423 354.2069 569.3863 361.0179 562.5753 361.0639"></polygon>
                        <polygon id="Fill-1108" fill="#ECEFF1" points="542.0928 354.3877 548.9048 354.3427 548.9508 361.1537 542.1378 361.1997"></polygon>
                        <polygon id="Fill-1109" fill="#ECEFF1" points="501.2207 354.6582 508.0327 354.6132 508.0767 361.4252 501.2667 361.4702"></polygon>
                        <polygon id="Fill-1110" fill="#ECEFF1" points="491.0029 354.7265 497.8149 354.6805 497.8599 361.4935 491.0489 361.5385"></polygon>
                        <polygon id="Fill-1111" fill="#ECEFF1" points="654.4268 343.8017 661.2388 343.7567 661.2828 350.5677 654.4718 350.6137"></polygon>
                        <polygon id="Fill-1112" fill="#ECEFF1" points="644.208 343.8691 651.02 343.8231 651.065 350.6361 644.254 350.6811"></polygon>
                        <polygon id="Fill-1113" fill="#ECEFF1" points="623.7715 344.0058 630.5845 343.9598 630.6295 350.7718 623.8175 350.8168"></polygon>
                        <polygon id="Fill-1114" fill="#ECEFF1" points="613.5547 344.0722 620.3657 344.0272 620.4117 350.8392 613.5997 350.8842"></polygon>
                        <polygon id="Fill-1115" fill="#ECEFF1" points="593.1182 344.208 599.9302 344.163 599.9742 350.975 593.1632 351.02"></polygon>
                        <polygon id="Fill-1116" fill="#ECEFF1" points="480.7197 344.9541 487.5317 344.9091 487.5757 351.7201 480.7637 351.7651"></polygon>
                        <polygon id="Fill-1117" fill="#ECEFF1" points="470.501 345.0224 477.312 344.9764 477.356 351.7874 470.546 351.8334"></polygon>
                        <polygon id="Fill-1118" fill="#ECEFF1" points="654.3613 333.9629 661.1733 333.9169 661.2183 340.7289 654.4063 340.7739"></polygon>
                        <polygon id="Fill-1119" fill="#ECEFF1" points="623.7061 334.165 630.5181 334.12 630.5641 340.933 623.7521 340.977"></polygon>
                        <polygon id="Fill-1120" fill="#ECEFF1" points="593.0537 334.3681 599.8647 334.3231 599.9097 341.1361 593.0987 341.1801"></polygon>
                        <polygon id="Fill-1121" fill="#ECEFF1" points="572.6162 334.5039 579.4282 334.4589 579.4722 341.2719 572.6612 341.3159"></polygon>
                        <polygon id="Fill-1122" fill="#ECEFF1" points="644.0771 324.1894 650.8891 324.1434 650.9341 330.9564 644.1231 331.0014"></polygon>
                        <polygon id="Fill-1123" fill="#ECEFF1" points="623.6416 324.3242 630.4536 324.2792 630.4986 331.0932 623.6876 331.1372"></polygon>
                        <polygon id="Fill-1124" fill="#ECEFF1" points="592.9863 324.5283 599.7983 324.4833 599.8443 331.2963 593.0323 331.3403"></polygon>
                        <polygon id="Fill-1125" fill="#ECEFF1" points="572.5508 324.664 579.3628 324.619 579.4068 331.431 572.5968 331.476"></polygon>
                        <polygon id="Fill-1126" fill="#ECEFF1" points="644.0127 314.3506 650.8247 314.3046 650.8697 321.1176 644.0577 321.1626"></polygon>
                        <polygon id="Fill-1127" fill="#ECEFF1" points="623.5762 314.4853 630.3882 314.4403 630.4332 321.2533 623.6212 321.2973"></polygon>
                        <polygon id="Fill-1128" fill="#CFD8DC" points="521.7881 374.2012 528.5991 374.1552 528.6441 380.9692 521.8331 381.0132"></polygon>
                        <polygon id="Fill-1129" fill="#CFD8DC" points="623.9023 363.6855 630.7143 363.6395 630.7593 370.4515 623.9473 370.4965"></polygon>
                        <polygon id="Fill-1130" fill="#CFD8DC" points="613.6855 363.7519 620.4965 363.7069 620.5415 370.5189 613.7305 370.5639"></polygon>
                        <polygon id="Fill-1131" fill="#CFD8DC" points="603.4668 363.8203 610.2788 363.7753 610.3238 370.5873 603.5118 370.6323"></polygon>
                        <polygon id="Fill-1132" fill="#CFD8DC" points="593.249 363.8877 600.061 363.8427 600.105 370.6547 593.294 370.6997"></polygon>
                        <polygon id="Fill-1133" fill="#CFD8DC" points="521.7217 364.3623 528.5337 364.3163 528.5787 371.1293 521.7677 371.1743"></polygon>
                        <polygon id="Fill-1134" fill="#CFD8DC" points="480.8506 364.6328 487.6626 364.5878 487.7066 371.4008 480.8956 371.4448"></polygon>
                        <polygon id="Fill-1135" fill="#CFD8DC" points="470.6309 364.7012 477.4429 364.6552 477.4869 371.4692 470.6759 371.5132"></polygon>
                        <polygon id="Fill-1136" fill="#CFD8DC" points="521.6572 354.5224 528.4682 354.4774 528.5122 361.2894 521.7032 361.3344"></polygon>
                        <polygon id="Fill-1137" fill="#CFD8DC" points="511.4385 354.5908 518.2505 354.5458 518.2955 361.3578 511.4835 361.4028"></polygon>
                        <polygon id="Fill-1138" fill="#CFD8DC" points="480.7842 354.7939 487.5962 354.7489 487.6402 361.5609 480.8292 361.6059"></polygon>
                        <polygon id="Fill-1139" fill="#CFD8DC" points="470.5654 354.8623 477.3774 354.8163 477.4224 361.6293 470.6104 361.6743"></polygon>
                        <polygon id="Fill-1140" fill="#CFD8DC" points="633.9902 343.9375 640.8032 343.8915 640.8482 350.7035 634.0352 350.7485"></polygon>
                        <polygon id="Fill-1141" fill="#CFD8DC" points="633.9248 334.0986 640.7368 334.0526 640.7828 340.8646 633.9698 340.9096"></polygon>
                        <polygon id="Fill-1142" fill="#CFD8DC" points="613.4893 334.2334 620.3013 334.1884 620.3463 341.0004 613.5343 341.0454"></polygon>
                        <polygon id="Fill-1143" fill="#CFD8DC" points="562.3994 334.5722 569.2114 334.5272 569.2554 341.3392 562.4444 341.3842"></polygon>
                        <polygon id="Fill-1144" fill="#CFD8DC" points="552.1807 334.6396 558.9927 334.5946 559.0367 341.4066 552.2267 341.4516"></polygon>
                        <polygon id="Fill-1145" fill="#CFD8DC" points="633.8594 324.2578 640.6724 324.2118 640.7174 331.0248 633.9044 331.0698"></polygon>
                        <polygon id="Fill-1146" fill="#CFD8DC" points="613.4248 324.3926 620.2358 324.3476 620.2808 331.1606 613.4698 331.2046"></polygon>
                        <polygon id="Fill-1147" fill="#CFD8DC" points="562.334 324.7324 569.146 324.6874 569.191 331.4994 562.379 331.5444"></polygon>
                        <polygon id="Fill-1148" fill="#CFD8DC" points="552.1152 324.7998 558.9272 324.7548 558.9712 331.5668 552.1612 331.6118"></polygon>
                        <polygon id="Fill-1149" fill="#CFD8DC" points="541.8975 324.8681 548.7095 324.8221 548.7535 331.6351 541.9425 331.6801"></polygon>
                        <polygon id="Fill-1150" fill="#CFD8DC" points="531.6787 324.9355 538.4907 324.8895 538.5347 331.7025 531.7237 331.7475"></polygon>
                        <polygon id="Fill-1151" fill="#CFD8DC" points="654.2305 314.2832 661.0425 314.2372 661.0875 321.0502 654.2755 321.0952"></polygon>
                        <polygon id="Fill-1152" fill="#FFFFFF" points="634.1865 373.4551 640.9985 373.4091 641.0435 380.2231 634.2315 380.2671"></polygon>
                        <polygon id="Fill-1153" fill="#FFFFFF" points="572.8779 373.8613 579.6899 373.8163 579.7339 380.6303 572.9229 380.6753"></polygon>
                        <polygon id="Fill-1154" fill="#FFFFFF" points="870.666 244.5478 877.478 244.5028 877.523 251.3158 870.712 251.3598"></polygon>
                        <polygon id="Fill-1155" fill="#FFFFFF" points="849.9043 195.4863 856.7153 195.4403 856.7603 202.2533 849.9493 202.2983"></polygon>
                        <polygon id="Fill-1156" fill="#FFFFFF" points="900.9297 185.3081 907.7417 185.2631 907.7867 192.0731 900.9747 192.1191"></polygon>
                        <polygon id="Fill-1157" fill="#FFFFFF" points="768.0937 186.1894 774.9057 186.1434 774.9507 192.9554 768.1387 193.0004"></polygon>
                        <polygon id="Fill-1164" fill="#FFFFFF" points="532.7119 197.1938 539.5239 197.1488 539.5679 203.9618 532.7579 204.0058"></polygon>
                        <polygon id="Fill-1165" fill="#FFFFFF" points="532.6465 187.355 539.4575 187.309 539.5025 194.121 532.6925 194.167"></polygon>
                        <polygon id="Fill-1166" fill="#FFFFFF" points="316.4775 276.8027 323.2895 276.7577 323.3325 283.5697 316.5235 283.6147"></polygon>
                        <polygon id="Fill-1167" fill="#FFFFFF" points="667.083 334.5605 673.895 334.5155 673.94 341.3305 667.128 341.3735"></polygon>
                        <polygon id="Fill-1168" fill="#FFFFFF" points="636.0986 285.2305 642.9106 285.1855 642.9556 291.9985 636.1436 292.0425"></polygon>
                        <polygon id="Fill-1169" fill="#FFFFFF" points="625.8818 285.2988 632.6928 285.2528 632.7368 292.0658 625.9278 292.1108"></polygon>
                        <polygon id="Fill-1170" fill="#CFD8DC" points="615.6631 285.3672 622.4751 285.3202 622.5201 292.1332 615.7081 292.1772"></polygon>
                        <polygon id="Fill-1171" fill="#CFD8DC" points="697.9932 304.3066 704.8042 304.2606 704.8482 311.0736 698.0372 311.1186"></polygon>
                        <polygon id="Fill-1172" fill="#CFD8DC" points="657.1191 304.5771 663.9311 304.5321 663.9771 311.3451 657.1651 311.3901"></polygon>
                        <polygon id="Fill-1173" fill="#CFD8DC" points="666.8213 295.2021 673.6343 295.1571 673.6793 301.9701 666.8663 302.0141"></polygon>
                    </g>
                </g>
            </g>
        </g>
    </g>
</svg>